<svg width="18" height="18" viewBox="0 0 18 18" fill="none" xmlns="http://www.w3.org/2000/svg">
    <g clip-path="url(#clip0_1730_81942)">
        <path d="M16.2577 15.7437H1.74924C1.67676 15.7438 1.605 15.7294 1.53824 15.7011C1.47381 15.6739 1.41526 15.6345 1.36587 15.5849C1.31635 15.5356 1.27687 15.477 1.24964 15.4126C1.22139 15.3458 1.2069 15.2741 1.20703 15.2016C1.20689 15.1291 1.22138 15.0573 1.24964 14.9905C1.27687 14.9261 1.31635 14.8676 1.36587 14.8182C1.41527 14.7687 1.47381 14.7292 1.53824 14.702C1.605 14.6738 1.67676 14.6593 1.74924 14.6594H2.27214V4.43411C2.27206 4.37049 2.28319 4.30735 2.30503 4.2476C2.32612 4.19 2.35688 4.13641 2.39595 4.08912C2.47475 3.99362 2.58379 3.92788 2.70503 3.90278C2.72848 3.89284 2.7526 3.88454 2.7772 3.87795L8.83113 2.25592C8.87701 2.24359 8.92431 2.23733 8.97182 2.2373C9.03736 2.23729 9.10236 2.24923 9.16361 2.27255C9.2183 2.28944 9.26996 2.31493 9.31663 2.34806C9.36281 2.3808 9.4036 2.42053 9.43753 2.46584C9.50795 2.55946 9.54586 2.67352 9.5455 2.79067V5.5292H15.1115C15.1384 5.52523 15.1654 5.52324 15.1925 5.52324C15.3022 5.52303 15.4093 5.55626 15.4996 5.61849C15.5877 5.67893 15.6559 5.76409 15.6957 5.86324C15.7232 5.9292 15.7373 5.99998 15.7371 6.07144C15.7371 6.08929 15.7363 6.10676 15.7347 6.12348V14.8329H14.6504V6.61361H9.54554V14.6594H16.2577C16.3302 14.6593 16.402 14.6737 16.4687 14.702C16.5332 14.7292 16.5917 14.7687 16.6411 14.8182C16.6906 14.8675 16.73 14.9261 16.7572 14.9905C16.7855 15.0572 16.8 15.129 16.7998 15.2015C16.8 15.274 16.7855 15.3458 16.7572 15.4126C16.73 15.477 16.6906 15.5355 16.6411 15.5849C16.5917 15.6344 16.5332 15.6739 16.4687 15.7011C16.402 15.7293 16.3302 15.7438 16.2577 15.7437V15.7437ZM5.28418 12.3172C5.14044 12.3174 5.00264 12.3745 4.901 12.4762C4.79936 12.5778 4.74218 12.7156 4.74201 12.8594C4.74218 13.0031 4.79936 13.1409 4.901 13.2426C5.00264 13.3442 5.14044 13.4014 5.28418 13.4015H6.5637C6.70744 13.4014 6.84526 13.3442 6.9469 13.2426C7.04855 13.1409 7.10571 13.0031 7.10587 12.8594C7.10571 12.7156 7.04855 12.5778 6.9469 12.4762C6.84526 12.3745 6.70744 12.3174 6.5637 12.3172H5.28418ZM5.28418 10.0401C5.14044 10.0403 5.00264 10.0974 4.901 10.1991C4.79936 10.3007 4.74218 10.4385 4.74201 10.5823C4.74219 10.726 4.79936 10.8638 4.901 10.9654C5.00264 11.0671 5.14044 11.1243 5.28418 11.1244H6.5637C6.70744 11.1243 6.84524 11.0671 6.94688 10.9654C7.04852 10.8638 7.1057 10.726 7.10587 10.5823C7.10571 10.4385 7.04855 10.3007 6.9469 10.1991C6.84526 10.0974 6.70744 10.0403 6.5637 10.0401H5.28418ZM5.28418 7.76298C5.14044 7.76314 5.00264 7.82031 4.901 7.92195C4.79936 8.0236 4.74218 8.16141 4.74201 8.30515C4.74218 8.44889 4.79936 8.5867 4.901 8.68834C5.00264 8.78999 5.14044 8.84716 5.28418 8.84732H6.5637C6.70744 8.84716 6.84526 8.78999 6.9469 8.68834C7.04855 8.5867 7.10571 8.44889 7.10587 8.30515C7.10571 8.16141 7.04855 8.0236 6.9469 7.92195C6.84526 7.82031 6.70744 7.76314 6.5637 7.76298H5.28418ZM5.28418 5.48587C5.14044 5.48604 5.00264 5.5432 4.901 5.64485C4.79936 5.74649 4.74218 5.8843 4.74201 6.02804C4.74219 6.17178 4.79936 6.30958 4.901 6.41122C5.00264 6.51286 5.14044 6.57004 5.28418 6.57021H6.5637C6.70744 6.57004 6.84524 6.51286 6.94688 6.41122C7.04852 6.30958 7.1057 6.17178 7.10587 6.02804C7.10571 5.8843 7.04855 5.74649 6.9469 5.64485C6.84526 5.5432 6.70744 5.48604 6.5637 5.48587H5.28418ZM12.764 13.4745H11.5035C11.431 13.4746 11.3592 13.4601 11.2924 13.4319C11.228 13.4047 11.1695 13.3652 11.1201 13.3157C11.0706 13.2663 11.0311 13.2077 11.0039 13.1433C10.9756 13.0765 10.9611 13.0047 10.9613 12.9322C10.9611 12.8597 10.9756 12.788 11.0039 12.7212C11.0311 12.6568 11.0706 12.5983 11.1201 12.5489C11.1695 12.4994 11.228 12.4599 11.2924 12.4327C11.3592 12.4044 11.431 12.3899 11.5035 12.3901H12.764C12.8364 12.3899 12.9082 12.4044 12.975 12.4327C13.0394 12.4599 13.0979 12.4994 13.1473 12.5489C13.1969 12.5983 13.2363 12.6568 13.2636 12.7212C13.2918 12.788 13.3063 12.8597 13.3062 12.9322C13.3063 13.0047 13.2918 13.0765 13.2636 13.1433C13.2363 13.2077 13.1969 13.2663 13.1473 13.3157C13.0979 13.3652 13.0394 13.4047 12.975 13.4319C12.9082 13.4601 12.8364 13.4746 12.7638 13.4745H12.764ZM12.764 11.1757H11.5035C11.431 11.1758 11.3592 11.1613 11.2924 11.1331C11.228 11.1059 11.1695 11.0664 11.1201 11.0169C11.0706 10.9675 11.0311 10.909 11.0039 10.8445C10.9756 10.7778 10.9611 10.706 10.9613 10.6335C10.9611 10.561 10.9756 10.4893 11.0039 10.4225C11.0311 10.3581 11.0706 10.2996 11.1201 10.2502C11.1695 10.2007 11.228 10.1612 11.2924 10.134C11.3592 10.1057 11.431 10.0912 11.5035 10.0914H12.764C12.8364 10.0912 12.9082 10.1057 12.975 10.134C13.0394 10.1612 13.0979 10.2007 13.1473 10.2502C13.1969 10.2996 13.2363 10.3581 13.2636 10.4225C13.2918 10.4893 13.3063 10.561 13.3062 10.6335C13.3063 10.706 13.2918 10.7778 13.2636 10.8445C13.2363 10.909 13.1969 10.9675 13.1473 11.0169C13.0979 11.0664 13.0394 11.1059 12.975 11.1331C12.9082 11.1613 12.8364 11.1758 12.7638 11.1757L12.764 11.1757ZM12.764 8.90639H11.5035C11.431 8.90653 11.3592 8.89205 11.2924 8.8638C11.228 8.8366 11.1695 8.79714 11.1201 8.74762C11.0706 8.69824 11.0311 8.63972 11.0039 8.5753C10.9756 8.50853 10.9611 8.43675 10.9613 8.36424C10.9611 8.29176 10.9756 8.21999 11.0039 8.15323C11.0311 8.08882 11.0706 8.03031 11.1201 7.98093C11.1695 7.93142 11.228 7.89196 11.2924 7.86476C11.3592 7.83651 11.431 7.82203 11.5035 7.82217H12.764C12.8364 7.82203 12.9082 7.83651 12.975 7.86476C13.0394 7.89197 13.0979 7.93142 13.1473 7.98093C13.1969 8.0303 13.2363 8.08882 13.2636 8.15323C13.2918 8.21998 13.3063 8.29175 13.3062 8.36424C13.3063 8.43675 13.2918 8.50854 13.2636 8.5753C13.2363 8.63972 13.1969 8.69824 13.1473 8.74762C13.0979 8.79713 13.0394 8.83659 12.975 8.8638C12.9082 8.89206 12.8364 8.90653 12.7638 8.90637L12.764 8.90639Z" fill="#EFF1F8" />
    </g>
    <defs>
        <clipPath id="clip0_1730_81942">
            <rect width="18" height="18" fill="white" />
        </clipPath>
    </defs>
</svg>
    