<svg width="18" height="19" viewBox="0 0 18 19" fill="none" xmlns="http://www.w3.org/2000/svg">
    <g clip-path="url(#clip0_1012_15419)">
        <path d="M9.00044 18.0472C8.73216 18.0472 8.46442 18.0335 8.19754 18.0062C7.93556 17.9794 7.67495 17.9393 7.41705 17.8861C6.91128 17.7815 6.41711 17.6265 5.94221 17.4235C5.47495 17.2236 5.02841 16.9785 4.60887 16.6918C4.19222 16.407 3.80394 16.0826 3.44957 15.7233C3.43922 15.7138 3.42956 15.7048 3.42056 15.6958C3.08766 15.3537 2.78642 14.9821 2.52054 14.5856C2.25763 14.194 2.03086 13.7794 1.84289 13.3468C1.65564 12.9148 1.50796 12.4668 1.4021 12.0081C1.29517 11.5446 1.23096 11.0724 1.21006 10.5973V10.5973C1.21006 10.5793 1.20215 10.4172 1.20215 10.2476C1.20215 10.0707 1.20961 9.89975 1.21006 9.8984V9.89566C1.23096 9.42052 1.29517 8.94829 1.4021 8.48487C1.50797 8.02615 1.65566 7.57799 1.84289 7.14604C2.03088 6.71344 2.25765 6.29882 2.52054 5.90719C2.78641 5.51072 3.08765 5.13912 3.42056 4.79699C3.43001 4.78754 3.43922 4.77853 3.44957 4.76953C3.80378 4.4102 4.19192 4.08595 4.60843 3.80117C5.02809 3.51455 5.47461 3.2695 5.94177 3.06946C6.41673 2.86661 6.91089 2.71161 7.41661 2.60682C7.67468 2.55354 7.93542 2.51326 8.19754 2.48618C8.46442 2.45888 8.73216 2.44529 9.00044 2.44531C9.26721 2.44531 9.53398 2.45876 9.79938 2.48574C10.06 2.51235 10.3189 2.55221 10.5755 2.60506C11.0787 2.70862 11.5708 2.86186 12.0437 3.06265C12.5086 3.26037 12.9533 3.50278 13.3713 3.78634C13.7864 4.06805 14.1733 4.38883 14.5271 4.74437C14.5411 4.75611 14.5543 4.76873 14.5667 4.78216C14.9182 5.13865 15.2349 5.52803 15.512 5.94498C15.785 6.35677 16.018 6.79384 16.2077 7.25008C16.3968 7.70564 16.542 8.17819 16.6414 8.66131C16.7418 9.15013 16.7958 9.64728 16.8022 10.1463C16.8022 10.1827 16.8022 10.2179 16.8022 10.2476C16.8022 10.2773 16.8022 10.3124 16.8022 10.3489C16.7958 10.8478 16.7418 11.345 16.6414 11.8338C16.542 12.3169 16.3968 12.7895 16.2077 13.245C16.0179 13.7013 15.785 14.1383 15.512 14.5501C15.2349 14.9671 14.9182 15.3565 14.5667 15.713C14.5544 15.7264 14.5412 15.7391 14.5271 15.7507C14.1732 16.1062 13.7863 16.427 13.3713 16.7088C12.9533 16.9924 12.5086 17.2348 12.0437 17.4325C11.5708 17.6332 11.0787 17.7864 10.5755 17.8901C10.3189 17.9429 10.06 17.9827 9.79938 18.0094C9.53394 18.0354 9.26716 18.0481 9.00044 18.0472V18.0472ZM9.00044 10.2498C8.20666 10.2515 7.44635 10.5683 6.88574 11.1302C6.32512 11.6922 6.0102 12.4536 6.01033 13.2473C6.01128 14.0401 6.32646 14.8001 6.88706 15.3606C7.44766 15.9211 8.20769 16.2364 9.00044 16.2372C9.79422 16.2354 10.555 15.9188 11.1156 15.3569C11.6762 14.7949 11.9911 14.0334 11.991 13.2396C11.99 12.4469 11.6749 11.6869 11.1143 11.1264C10.5537 10.5659 9.79319 10.2506 9.00044 10.2498V10.2498ZM13.9589 6.89368C13.8796 6.89349 13.8014 6.9107 13.7295 6.94422C13.6576 6.97774 13.594 7.02672 13.5432 7.08759L11.8556 9.1968C11.7631 9.3071 11.7179 9.44963 11.7304 9.59309C11.7429 9.73654 11.8118 9.86916 11.922 9.9618C11.9713 10.0031 12.0276 10.0354 12.0881 10.0572C12.1466 10.0781 12.2084 10.0888 12.2705 10.0887C12.3498 10.0889 12.428 10.0717 12.4999 10.0383C12.5718 10.0048 12.6354 9.95601 12.6862 9.89522L14.3738 7.78601C14.4195 7.73151 14.454 7.66855 14.4753 7.60067C14.4966 7.53278 14.5045 7.46136 14.4981 7.39049C14.4922 7.31948 14.4722 7.25033 14.4392 7.18713C14.4063 7.12393 14.3609 7.06788 14.3061 7.02233C14.257 6.98094 14.2013 6.94867 14.1409 6.92697C14.0824 6.9056 14.0207 6.89449 13.9585 6.89412L13.9589 6.89368Z" fill="#EFF1F8" />
    </g>
    <defs>
        <clipPath id="clip0_1012_15419">
            <rect width="18" height="18" fill="white" transform="translate(0 0.882812)" />
        </clipPath>
    </defs>
</svg>
    