<svg width="24" height="24" viewBox="0 0 24 24" fill="none" xmlns="http://www.w3.org/2000/svg">
    <g clip-path="url(#clip0_31119_40878)">
        <path d="M21.3861 6.92088C20.5059 5.94763 19.046 5.45859 16.9015 5.45859H16.6531V5.41714C16.6531 3.67705 16.6531 1.52295 12.7589 1.52295H11.1844C7.2902 1.52295 7.2902 3.67705 7.2902 5.41714V5.45859H7.04179C4.89788 5.45859 3.42721 5.94763 2.55717 6.92088C2.15766 7.44385 1.87205 8.04465 1.71869 8.68463C1.56533 9.32462 1.54763 9.98954 1.66672 10.6368L1.67692 10.7112L1.76992 11.7967C2.12214 12.0247 2.51576 12.2851 2.88838 12.4927C3.03359 12.5839 3.1884 12.6667 3.3438 12.7495C4.51669 13.3938 5.76104 13.8985 7.05139 14.2532C7.05533 14.8994 7.18649 15.5384 7.4374 16.1339C7.6883 16.7293 8.05404 17.2695 8.51371 17.7236C8.97338 18.1777 9.518 18.5368 10.1165 18.7804C10.7149 19.024 11.3555 19.1473 12.0016 19.1434C12.6478 19.1395 13.2868 19.0083 13.8823 18.7574C14.4777 18.5065 15.0179 18.1408 15.472 17.6811C15.9261 17.2215 16.2852 16.6768 16.5288 16.0784C16.7725 15.4799 16.8958 14.8393 16.8919 14.1932V14.1519C18.1946 13.7581 19.4461 13.2116 20.6205 12.5239C20.6805 12.4951 20.7243 12.464 20.7759 12.4328C21.2636 12.1536 21.7339 11.845 22.1841 11.5087L22.2771 10.6513C22.2873 10.5913 22.2874 10.5355 22.2982 10.4647C22.3973 9.84361 22.3675 9.20872 22.2107 8.59967C22.0539 7.99062 21.7734 7.4205 21.3867 6.92454L21.3861 6.92088ZM8.77167 5.41714C8.77167 3.65665 8.77168 2.99373 11.185 2.99373H12.7595C15.1728 2.99373 15.1728 3.65365 15.1728 5.41714V5.45859H8.77107L8.77167 5.41714ZM11.9746 17.5551C11.1564 17.5541 10.3665 17.2551 9.75269 16.714C9.1389 16.1729 8.74323 15.4267 8.63967 14.6151C8.61896 14.476 8.60853 14.3356 8.60847 14.1951C8.609 13.3019 8.9635 12.4453 9.59432 11.813C9.90764 11.5015 10.2785 11.2538 10.6864 11.0839C11.0947 10.9144 11.5325 10.8271 11.9746 10.8271C12.4168 10.8271 12.8546 10.9144 13.2629 11.0839C13.6716 11.2529 14.0428 11.5009 14.3555 11.8137C14.6681 12.1265 14.9158 12.498 15.0846 12.9068C15.2536 13.3153 15.3407 13.753 15.3408 14.1951C15.3408 14.3193 15.3306 14.4314 15.3198 14.5472V14.5556C15.2296 15.3802 14.8384 16.1425 14.2212 16.6967C13.604 17.2509 12.8041 17.5581 11.9746 17.5594V17.5551Z" fill="#F2F2F8" />
        <path d="M11.3818 16.2952C11.2785 16.2986 11.1758 16.2781 11.0818 16.2353C10.9865 16.1975 10.9006 16.1396 10.8297 16.0655L9.8043 15.0508C9.67229 14.9031 9.60195 14.7104 9.60775 14.5124C9.61356 14.3144 9.69507 14.1261 9.8355 13.9864C9.97558 13.8454 10.1645 13.7638 10.3632 13.7584C10.5618 13.7531 10.7549 13.8243 10.9024 13.9575L11.3992 14.4544L13.0667 12.922C13.1413 12.8523 13.229 12.7981 13.3247 12.7626C13.4203 12.727 13.5221 12.7109 13.6241 12.715C13.8297 12.724 14.0235 12.813 14.1641 12.9633C14.2336 13.0381 14.2876 13.1259 14.3231 13.2215C14.3586 13.3172 14.3749 13.419 14.3711 13.521C14.3672 13.6229 14.3433 13.7231 14.3007 13.8158C14.2581 13.9086 14.1976 13.992 14.1227 14.0614L11.917 16.1014C11.7649 16.2234 11.5767 16.2915 11.3818 16.2952Z" fill="#F2F2F8" />
        <path d="M21.9673 13.5415L21.5323 18.2933C21.3151 20.3646 20.4654 22.4772 15.9088 22.4772H8.01662C3.45939 22.4772 2.61035 20.3644 2.40334 18.3051L1.97852 13.7564C1.97852 13.7564 2.42374 14.0174 2.60015 14.1086C3.40478 14.5562 4.2427 14.9411 5.10648 15.26C5.26303 15.3181 5.4032 15.4133 5.515 15.5373C5.6268 15.6613 5.70692 15.8105 5.74851 15.9722C6.13835 17.3363 6.96577 18.5344 8.10336 19.3821C9.24095 20.2298 10.6256 20.6801 12.0442 20.6636C13.4628 20.6471 14.8367 20.1648 15.9542 19.2909C17.0718 18.4169 17.8711 17.1998 18.2291 15.8271C18.2681 15.6645 18.3459 15.5138 18.4559 15.3879C18.567 15.2626 18.7056 15.1648 18.861 15.1022C19.7138 14.7666 20.541 14.3693 21.3361 13.9136C21.4315 13.8602 21.9361 13.5619 21.9673 13.5415Z" fill="#F2F2F8" />
    </g>
    <defs>
        <clipPath id="clip0_31119_40878">
            <rect width="24" height="24" fill="white" />
        </clipPath>
    </defs>
</svg>