<svg width="18" height="18" viewBox="0 0 18 18" fill="none" xmlns="http://www.w3.org/2000/svg">
    <g clip-path="url(#clip0_1730_81943)">
        <path fill-rule="evenodd" clip-rule="evenodd" d="M5.55251 4.0502H5.37276C3.80136 4.0502 2.71868 4.39937 2.06393 5.12702C1.76815 5.51109 1.55692 5.95334 1.44408 6.42478C1.37917 6.69596 1.34766 6.97327 1.3497 7.2506C1.34809 7.47157 1.3675 7.69279 1.40802 7.91123L1.41432 7.96342L1.49062 8.76981C1.49062 8.76981 1.4918 8.7706 1.49407 8.77211L1.95324 13.6914C2.11344 15.2102 2.73895 16.7757 6.1 16.7757H11.9198C15.2804 16.7757 15.9064 15.2102 16.0675 13.6833L16.5742 8.27088L16.6128 7.92293C16.6156 7.89924 16.6171 7.87806 16.6186 7.85643C16.6195 7.84324 16.6204 7.82989 16.6216 7.8157C16.7006 7.35561 16.6856 6.88408 16.5772 6.42961C16.4643 5.95659 16.2529 5.51272 15.9568 5.12702C15.3106 4.41017 14.2252 4.0502 12.6479 4.0502H12.4625V4.04212C12.4625 2.75603 12.4625 1.16211 9.59063 1.16211H8.42882C5.55251 1.16211 5.55251 2.76363 5.55251 4.04207V4.0502ZM2.65251 9.48116C3.96021 10.1978 5.38054 10.6847 6.85203 10.9208V10.9253C6.91934 11.6458 7.23747 12.4886 8.90943 12.4886C10.5814 12.4886 10.9117 11.6521 10.9637 10.91C12.5207 10.6565 14.0177 10.1175 15.38 9.32014L14.9794 13.5762C14.8583 14.7314 14.5384 15.6858 11.9194 15.6858H6.09951C3.47196 15.6858 3.16058 14.7314 3.03548 13.5821L2.65251 9.48116ZM11.3703 4.0502H6.64738V4.03855H6.64831C6.64831 2.7385 6.64832 2.25426 8.42439 2.25426H9.59107C11.3703 2.25426 11.3703 2.74479 11.3703 4.03852V4.0502ZM7.96174 10.4088V9.44305H9.84638V10.4024C9.84638 11.2151 9.84638 11.3375 8.90406 11.3375C7.96174 11.3375 7.96174 11.1904 7.96174 10.4088Z" fill="#EFF1F8" />
    </g>
    <defs>
        <clipPath id="clip0_1730_81943">
            <rect width="18" height="18" fill="white" />
        </clipPath>
    </defs>
</svg>
    