<svg width="24" height="24" viewBox="0 0 24 24" fill="none" xmlns="http://www.w3.org/2000/svg">
    <path d="M22.2855 4.79976C22.2855 5.41004 22.1046 6.00662 21.7655 6.51405C21.4265 7.02148 20.9446 7.41698 20.3807 7.65052C19.8169 7.88407 19.1965 7.94517 18.5979 7.82611C17.9994 7.70705 17.4496 7.41317 17.018 6.98164C16.5865 6.5501 16.2926 6.00029 16.1735 5.40174C16.0545 4.80318 16.1156 4.18276 16.3491 3.61893C16.5827 3.0551 16.9782 2.57319 17.4856 2.23414C17.993 1.89508 18.5896 1.71411 19.1999 1.71411C20.0183 1.71411 20.8031 2.03921 21.3818 2.61788C21.9605 3.19655 22.2855 3.98139 22.2855 4.79976Z" fill="#F2F2F8" />
    <path d="M15.5792 22.2853H7.39171C7.24772 22.2853 7.10421 22.2751 6.97161 22.2649C6.85162 22.2553 6.73606 22.2445 6.61187 22.2241C6.48647 22.2133 6.35893 22.1923 6.25153 22.1725C5.95162 22.1296 5.65539 22.0656 5.36447 21.9811C5.09071 21.9019 4.8235 21.8016 4.56529 21.6811C4.31829 21.5649 4.08166 21.4283 3.85751 21.2726C3.63879 21.1201 3.43353 20.9489 3.24465 20.7608C3.05625 20.5724 2.88509 20.3678 2.73257 20.1494C2.57624 19.9254 2.43881 19.6886 2.32243 19.4414C2.2017 19.1829 2.1014 18.9153 2.02245 18.6411C1.93777 18.3494 1.87419 18.052 1.83144 17.7512C1.81164 17.6438 1.79068 17.5173 1.77988 17.3913C1.76008 17.2714 1.74907 17.1561 1.73887 17.0313C1.72807 16.8891 1.71777 16.7506 1.71777 16.6114V8.42417C1.71777 8.28378 1.72867 8.14461 1.73887 8.00422C1.74967 7.87943 1.76008 7.76417 1.77988 7.64418C1.79068 7.51879 1.81164 7.39168 1.83144 7.28429C1.87419 6.98356 1.93777 6.68614 2.02245 6.39444C2.10143 6.12024 2.20173 5.85265 2.32243 5.59409C2.43884 5.34698 2.57628 5.11019 2.73257 4.88616C2.88509 4.66773 3.05625 4.46313 3.24465 4.27477C3.43353 4.08665 3.63879 3.91538 3.85751 3.76298C4.08166 3.60723 4.31829 3.47061 4.56529 3.35445C4.8235 3.23391 5.09071 3.13362 5.36447 3.05447C5.6554 2.96997 5.95163 2.90596 6.25153 2.86302C6.35893 2.84322 6.48647 2.82226 6.61187 2.81146C6.73186 2.79106 6.84742 2.78081 6.97161 2.77001C7.11321 2.75921 7.25192 2.74965 7.39171 2.74965H13.6451C13.8 2.74882 13.9531 2.78327 14.0927 2.85042C14.1593 2.88241 14.2223 2.92169 14.2802 2.96746C14.3376 3.01244 14.3898 3.06348 14.4361 3.1198C14.534 3.23872 14.6042 3.37788 14.6417 3.5273C14.6793 3.67671 14.6835 3.83261 14.6535 3.98372C14.6531 3.99412 14.6508 4.00443 14.6476 4.01433C14.6449 4.02432 14.6434 4.0346 14.6429 4.04495C14.6315 4.10074 14.6238 4.15536 14.6148 4.21295C14.6076 4.26155 14.6009 4.31134 14.5913 4.36353C14.5494 4.82057 14.5735 5.2813 14.6628 5.73148C14.6712 5.76088 14.6773 5.79144 14.6833 5.81424C14.7024 5.90095 14.7265 5.9865 14.7554 6.07043C14.8384 6.40662 14.9698 6.72882 15.1462 7.02678C15.2006 7.13217 15.2606 7.23451 15.3261 7.33335L15.3606 7.38623C15.6983 7.8782 16.1237 8.30371 16.6157 8.6414L16.6567 8.66717L16.6672 8.67377C16.7669 8.73889 16.8697 8.79899 16.9754 8.85379C17.2736 9.02995 17.5965 9.16147 17.9328 9.24429C18.0175 9.27358 18.1036 9.29788 18.1912 9.31695L18.272 9.33672C18.5811 9.39761 18.8956 9.42859 19.2106 9.42915C19.3546 9.42915 19.4991 9.42244 19.6407 9.40864C19.6923 9.39904 19.7427 9.39197 19.7913 9.38477C19.8513 9.37637 19.9042 9.36848 19.9594 9.35708C19.9698 9.35651 19.98 9.35468 19.9899 9.35166C20.0001 9.34869 20.0104 9.34686 20.021 9.34624C20.088 9.33317 20.156 9.32656 20.2243 9.32647C20.3599 9.32634 20.4943 9.35292 20.6198 9.40454C20.7422 9.45452 20.8537 9.52758 20.9485 9.61986C21.0465 9.71528 21.1242 9.82954 21.177 9.95573C21.2297 10.0819 21.2569 10.2175 21.2561 10.3543V16.6077C21.2561 16.7487 21.2458 16.8874 21.235 17.0278C21.2242 17.1526 21.2143 17.2677 21.1939 17.3877C21.1831 17.5137 21.1622 17.6403 21.1424 17.7477C21.0996 18.0485 21.0355 18.3457 20.9508 18.6374C20.8721 18.9117 20.7718 19.1793 20.6508 19.4378C20.5346 19.6849 20.3979 19.9217 20.2418 20.1457C20.0891 20.3641 19.9178 20.5688 19.7292 20.7571C19.5405 20.9453 19.3355 21.1165 19.1169 21.2689C18.8926 21.4244 18.656 21.5611 18.4091 21.6776C18.1509 21.798 17.8837 21.8983 17.6099 21.9775C17.319 22.062 17.0222 22.1259 16.7223 22.1688C16.6143 22.1886 16.4879 22.2096 16.3625 22.2204C16.2378 22.2414 16.1228 22.2517 16.0028 22.2613C15.8672 22.2751 15.7232 22.2853 15.5792 22.2853ZM6.59956 16.6282C6.49833 16.6283 6.39825 16.6484 6.30485 16.6874C6.21145 16.7264 6.12702 16.7836 6.05584 16.8555C5.98394 16.9267 5.92671 17.0113 5.88768 17.1045C5.84866 17.1978 5.82866 17.298 5.82851 17.3991C5.82866 17.5002 5.84866 17.6004 5.88768 17.6937C5.92671 17.787 5.98394 17.8716 6.05584 17.9427C6.12702 18.0147 6.21145 18.0718 6.30485 18.1108C6.39825 18.1499 6.49833 18.1699 6.59956 18.17H15.8569C15.958 18.1699 16.0577 18.1497 16.151 18.1107C16.2443 18.0717 16.329 18.0146 16.4 17.9427C16.4721 17.8717 16.5297 17.7871 16.5688 17.6938C16.6079 17.6005 16.6284 17.5003 16.6286 17.3991C16.6284 17.2979 16.6079 17.1977 16.5688 17.1044C16.5297 17.0111 16.4721 16.9265 16.4 16.8555C16.329 16.7836 16.2443 16.7266 16.151 16.6875C16.0577 16.6485 15.958 16.6283 15.8569 16.6282H6.59956ZM6.55327 12.3162C6.34642 12.3162 6.14762 12.3983 6.00135 12.5446C5.85508 12.6908 5.77284 12.8892 5.77284 13.0961C5.77284 13.3029 5.85508 13.5014 6.00135 13.6477C6.14762 13.794 6.34642 13.876 6.55327 13.876H15.8639C15.9664 13.876 16.0675 13.8559 16.1622 13.8167C16.2568 13.7775 16.3429 13.7201 16.4153 13.6477C16.4877 13.5753 16.5454 13.4892 16.5846 13.3946C16.6238 13.2999 16.6438 13.1985 16.6438 13.0961C16.6438 12.9936 16.6238 12.8923 16.5846 12.7977C16.5454 12.7031 16.4877 12.617 16.4153 12.5446C16.3429 12.4721 16.2568 12.4147 16.1622 12.3755C16.0675 12.3363 15.9664 12.3162 15.8639 12.3162H6.55327ZM6.59956 8.00305C6.49833 8.00312 6.39825 8.0232 6.30485 8.06222C6.21145 8.10125 6.12702 8.15841 6.05584 8.23038C5.98394 8.30149 5.92671 8.3861 5.88768 8.47939C5.84866 8.57269 5.82866 8.67283 5.82851 8.77396C5.82866 8.87508 5.84866 8.97523 5.88768 9.06852C5.92671 9.16182 5.98394 9.24642 6.05584 9.31753C6.127 9.38953 6.21144 9.44666 6.30485 9.48569C6.39826 9.52472 6.49833 9.54483 6.59956 9.54487H11.7421C11.8433 9.54476 11.9434 9.52472 12.0368 9.48569C12.1302 9.44666 12.2152 9.38948 12.2864 9.31753C12.3583 9.24642 12.4155 9.16182 12.4545 9.06852C12.4936 8.97523 12.5136 8.87508 12.5137 8.77396C12.5136 8.67283 12.4936 8.57269 12.4545 8.47939C12.4155 8.3861 12.3583 8.30149 12.2864 8.23038C12.2152 8.15843 12.1302 8.10125 12.0368 8.06222C11.9434 8.0232 11.8433 8.00315 11.7421 8.00305H6.59956Z" fill="#F2F2F8" />
</svg>