<svg width="24" height="24" viewBox="0 0 24 24" fill="none" xmlns="http://www.w3.org/2000/svg">
    <g clip-path="url(#clip0_31120_29037)">
        <path d="M12.0001 22.6476C9.1769 22.6444 6.47039 21.5214 4.4741 19.5251C2.47781 17.5288 1.35474 14.8223 1.35156 11.9991C1.35474 9.17592 2.47781 6.46912 4.4741 4.47283C6.47039 2.47655 9.1769 1.35376 12.0001 1.35059C14.8232 1.35376 17.5298 2.47655 19.526 4.47283C21.5223 6.46912 22.6454 9.17592 22.6486 11.9991C22.6454 14.8223 21.5223 17.5288 19.526 19.5251C17.5298 21.5214 14.8232 22.6444 12.0001 22.6476ZM11.8155 16.912C11.6114 16.9122 11.4161 16.9933 11.2717 17.1376C11.1274 17.2819 11.0463 17.4775 11.0461 17.6817C11.0463 17.8858 11.1274 18.0817 11.2717 18.226C11.4161 18.3703 11.6114 18.4514 11.8155 18.4516C12.0199 18.4518 12.2162 18.3709 12.361 18.2266C12.5058 18.0823 12.5873 17.8861 12.5878 17.6817C12.5873 17.4773 12.5063 17.2816 12.3616 17.1373C12.2169 16.993 12.0204 16.912 11.8161 16.912H11.8155ZM12.5239 7.12456C12.7553 7.12211 12.983 7.18163 13.1837 7.29683C13.3865 7.42426 13.5552 7.59885 13.6759 7.80573C13.7966 8.0126 13.8658 8.2456 13.8769 8.48485C13.924 9.07227 13.786 9.6596 13.4825 10.1648C13.2586 10.5607 12.947 10.9 12.5714 11.1565C12.5546 11.1661 12.0764 11.5922 11.9954 11.666C11.6333 11.9994 11.3698 12.4264 11.2348 12.8997C11.0338 13.4252 10.9622 13.9913 11.0256 14.5503C11.034 14.6343 11.0403 14.707 11.0403 14.7742C11.0403 14.8258 11.0403 14.8707 11.0403 14.9145V14.9397V14.9432C11.0345 15.0414 11.0364 15.14 11.045 15.2379C11.0478 15.3027 11.0628 15.3663 11.0901 15.4252C11.1026 15.4471 11.1106 15.4715 11.1135 15.4966C11.171 15.6333 11.2663 15.7507 11.3878 15.8356C11.5092 15.9206 11.6522 15.9694 11.8003 15.9765H11.8102C11.9434 15.9668 12.0733 15.9293 12.1911 15.8664C12.3089 15.8034 12.4125 15.7165 12.4946 15.6112C12.5671 15.5115 12.6033 15.3898 12.5972 15.2667C12.4875 14.6746 12.5252 14.0646 12.7073 13.4906C12.8481 13.094 13.0841 12.7379 13.3941 12.4532C13.9563 12.0927 14.4258 11.6054 14.7658 11.0305C14.9018 10.793 15.0191 10.5453 15.1167 10.2896C15.2104 10.0441 15.2841 9.79161 15.3371 9.53429C15.3883 9.28869 15.4188 9.03909 15.4279 8.78837C15.4365 8.54764 15.4228 8.30651 15.3875 8.06823C15.3546 7.84037 15.3005 7.61632 15.2252 7.39878C15.1529 7.18885 15.0571 6.98761 14.9404 6.79877C14.8254 6.61485 14.6898 6.4446 14.5361 6.29163C14.3803 6.13921 14.206 6.00695 14.0175 5.89757C13.8152 5.7811 13.5985 5.69269 13.3724 5.63478C13.1476 5.57679 12.916 5.54773 12.6839 5.54835C12.3552 5.55059 12.0286 5.6021 11.7153 5.70128C11.3828 5.80912 11.066 5.95943 10.7719 6.14836C10.1247 6.57198 9.58707 7.14293 9.20332 7.81452C9.06733 8.05299 8.94982 8.30168 8.85175 8.55809C8.75668 8.80302 8.68307 9.05566 8.63202 9.31338C8.60229 9.53435 8.58714 9.75695 8.5869 9.9799C8.58706 10.1839 8.66829 10.3796 8.81249 10.524C8.9567 10.6683 9.15224 10.7495 9.35625 10.7498C9.56107 10.7516 9.75847 10.6721 9.90471 10.5286C10.0509 10.3852 10.1339 10.1897 10.1362 9.98488C10.1362 9.97528 10.1361 9.95302 10.1403 9.92482V9.89904V9.88586C10.1403 9.85706 10.1455 9.8318 10.1455 9.8258C10.1693 9.34695 10.3088 8.88091 10.5522 8.46785C10.7401 8.09527 11.0194 7.77674 11.3643 7.54176C11.7092 7.30677 12.1084 7.16317 12.5239 7.12456Z" fill="#F2F2F8" />
    </g>
    <defs>
        <clipPath id="clip0_31120_29037">
            <rect width="24" height="24" fill="white" />
        </clipPath>
    </defs>
</svg>