<svg width="24" height="24" viewBox="0 0 24 24" fill="none" xmlns="http://www.w3.org/2000/svg">
    <g clip-path="url(#clip0_31119_38650)">
        <path d="M12.13 22.3405H11.8675C10.416 22.3425 8.99956 21.8948 7.81284 21.0589C6.62254 20.2272 5.71969 19.0468 5.22827 17.6804C5.02501 17.0885 4.90721 16.4707 4.87846 15.8455V15.836C4.82311 15.5783 4.82302 15.3117 4.87846 15.0541C4.93391 14.7964 5.04312 14.5534 5.19956 14.3413C5.48458 13.9905 5.88817 13.756 6.33393 13.6814L7.31245 13.6291H16.6851L17.6636 13.6814C18.1097 13.7551 18.513 13.9899 18.7974 14.3413C18.9542 14.5535 19.0644 14.7967 19.1203 15.0545C19.1761 15.3124 19.1763 15.5791 19.1214 15.8372V15.8455C19.093 16.4706 18.9754 17.0886 18.7722 17.6804C18.2798 19.0465 17.3772 20.2267 16.1876 21.0595C14.9998 21.8954 13.5825 22.3429 12.13 22.3405ZM11.9425 10.4252C11.3671 10.4269 10.7971 10.3142 10.2656 10.0937C9.73407 9.87315 9.2516 9.54912 8.84643 9.14051C8.43763 8.73504 8.11384 8.25242 7.89311 7.72063C7.67238 7.18884 7.55937 6.61858 7.56088 6.0428C7.55939 5.46676 7.67239 4.89617 7.89311 4.36409C8.11383 3.83201 8.43763 3.34903 8.84643 2.94319C9.2516 2.53466 9.73405 2.21079 10.2656 1.99046C10.7971 1.77012 11.3672 1.65764 11.9425 1.6597C12.5184 1.65796 13.0892 1.7706 13.6212 1.9909C14.1533 2.2112 14.6361 2.53488 15.0421 2.94319C15.4501 3.34955 15.7734 3.83268 15.9937 4.36468C16.214 4.89667 16.3266 5.46701 16.3253 6.0428C16.3266 6.61833 16.214 7.18835 15.9937 7.72005C15.7734 8.25175 15.45 8.7345 15.0421 9.14051C14.6363 9.54864 14.154 9.87236 13.6224 10.0929C13.0908 10.3135 12.5204 10.4267 11.9449 10.4258L11.9425 10.4252Z" fill="#F2F2F8" />
    </g>
    <defs>
        <clipPath id="clip0_31119_38650">
            <rect width="24" height="24" fill="white" />
        </clipPath>
    </defs>
</svg>