<svg width="24" height="25" viewBox="0 0 24 25" fill="none" xmlns="http://www.w3.org/2000/svg">
    <g clip-path="url(#clip0_2999_59795)">
        <path
            d="M11.7922 22.7038H9.15253C8.82912 22.7038 8.51381 22.6949 8.21501 22.6775C7.9162 22.6601 7.62263 22.6336 7.34662 22.5982C7.07062 22.5628 6.79945 22.5185 6.54504 22.4651C6.29064 22.4117 6.04189 22.3479 5.80909 22.2765C5.58172 22.2068 5.35808 22.1251 5.13934 22.0317C4.93155 21.9439 4.72932 21.8437 4.53347 21.7317C4.34487 21.6236 4.16332 21.5034 3.99029 21.3718C3.82109 21.2427 3.66085 21.1022 3.5104 20.9517C3.35993 20.8012 3.2195 20.6409 3.09027 20.4718C2.95867 20.2988 2.83865 20.1174 2.73049 19.9288C2.61852 19.7329 2.51834 19.5305 2.43049 19.3227C2.33682 19.1039 2.25498 18.8802 2.18556 18.6526C2.11356 18.4204 2.05027 18.1725 1.99747 17.9175C1.94467 17.6625 1.89868 17.3937 1.86328 17.1159C1.82788 16.8381 1.80338 16.5477 1.78418 16.2471C1.76498 15.9465 1.75781 15.6333 1.75781 15.3098V9.58334C1.75781 9.25993 1.76738 8.94492 1.78418 8.64611C1.80098 8.3473 1.82788 8.05329 1.86328 7.77729C1.89868 7.50128 1.94407 7.22997 1.99747 6.97556C2.05087 6.72115 2.11356 6.47283 2.18556 6.24063C2.255 6.01297 2.33684 5.78912 2.43049 5.5703C2.51835 5.36251 2.61853 5.16028 2.73049 4.96442C2.83868 4.77586 2.9587 4.59446 3.09027 4.42139C3.21946 4.25225 3.35989 4.09186 3.5104 3.94135C3.66089 3.79084 3.82113 3.65055 3.99029 3.52137C4.16335 3.3898 4.3449 3.26949 4.53347 3.1613C4.72929 3.04927 4.93152 2.94909 5.13934 2.8613C5.35806 2.76789 5.5817 2.6862 5.80909 2.61651C6.04189 2.54451 6.28944 2.48153 6.54504 2.42813C6.80065 2.37473 7.06882 2.33023 7.34662 2.29483C7.62443 2.25943 7.9144 2.23492 8.21501 2.21572C8.51561 2.19652 8.82852 2.18994 9.15253 2.18994H14.8796C15.2024 2.18994 15.5178 2.19892 15.8166 2.21572C16.1154 2.23252 16.4089 2.26003 16.6855 2.29483C16.9621 2.32963 17.2327 2.37533 17.4871 2.42813C17.7415 2.48093 17.9897 2.54511 18.2225 2.61651C18.45 2.6863 18.6733 2.76799 18.8922 2.8613C19.0999 2.94933 19.3027 3.0495 19.4987 3.1613C19.6871 3.26977 19.868 3.39007 20.0413 3.52137C20.2105 3.65054 20.3713 3.79082 20.5218 3.94135C20.6724 4.09172 20.8123 4.25212 20.9413 4.42139C21.0727 4.5946 21.1933 4.77598 21.3017 4.96442C21.4134 5.16041 21.5136 5.36262 21.6017 5.5703C21.6951 5.7892 21.7769 6.01304 21.8466 6.24063C21.918 6.47343 21.9819 6.72055 22.0347 6.97556C22.0875 7.23057 22.1329 7.49948 22.1683 7.77729C22.2037 8.05509 22.2282 8.3455 22.248 8.64611C22.2678 8.94672 22.2738 9.25993 22.2738 9.58334V15.3098C22.2738 15.6333 22.2648 15.9483 22.248 16.2471C22.2312 16.5459 22.2037 16.8399 22.1683 17.1159C22.1329 17.3919 22.0881 17.6631 22.0347 17.9175C21.9813 18.1719 21.915 18.4204 21.8466 18.6526C21.7769 18.8801 21.6951 19.1038 21.6017 19.3227C21.5136 19.5304 21.4134 19.7328 21.3017 19.9288C21.1933 20.1172 21.0727 20.2986 20.9413 20.4718C20.8122 20.641 20.6724 20.8013 20.5218 20.9517C20.3713 21.1023 20.2105 21.2427 20.0413 21.3718C19.8681 21.5032 19.6871 21.6233 19.4987 21.7317C19.3027 21.8434 19.0999 21.9436 18.8922 22.0317C18.6732 22.125 18.45 22.2067 18.2225 22.2765C17.9897 22.3479 17.7421 22.4117 17.4871 22.4651C17.2321 22.5185 16.9633 22.5634 16.6855 22.5982C16.4077 22.633 16.1172 22.6583 15.8166 22.6775C15.516 22.6967 15.203 22.7038 14.8796 22.7038H13.1921V21.2722H13.2067V14.348H15.7269L15.9214 13.3976H13.2214V9.86401C13.2212 9.73268 13.2469 9.60263 13.297 9.48124C13.3464 9.35877 13.4197 9.2476 13.5132 9.15428C13.6065 9.06067 13.7177 8.98677 13.8401 8.93703C13.9618 8.88721 14.0925 8.86173 14.2239 8.86203H16.0838V7.4304H13.9239C13.6429 7.43055 13.3645 7.48658 13.1054 7.59535C12.9761 7.6493 12.8522 7.71566 12.7356 7.7934C12.6176 7.87194 12.5074 7.96158 12.4063 8.06104C12.0046 8.46411 11.7783 9.00945 11.7764 9.57851V13.3982H9.86973V14.3486H11.7764V21.2728H11.7911V22.7044L11.7922 22.7038ZM14.6406 15.7742V21.2722H14.8808C15.8199 21.2944 16.758 21.1889 17.6688 20.9584C18.362 20.785 18.9973 20.4332 19.5128 19.9383C20.0079 19.4228 20.3597 18.7867 20.5329 18.0933C20.7636 17.1824 20.8694 16.2444 20.847 15.305V9.57851C20.8694 8.63935 20.7635 7.70151 20.5329 6.79084C20.3597 6.09734 20.008 5.46128 19.5128 4.94582C18.9973 4.45089 18.362 4.09914 17.6688 3.92568C16.758 3.69523 15.8199 3.5897 14.8808 3.6119H9.1537C8.21455 3.58967 7.27644 3.6952 6.36574 3.92568C5.67232 4.09902 5.03673 4.45077 4.52116 4.94582C4.02594 5.46126 3.67415 6.09733 3.50102 6.79084C3.27037 7.70151 3.16454 8.63935 3.18695 9.57851V15.305C3.16451 16.2444 3.27035 17.1824 3.50102 18.0933C3.67423 18.7867 4.026 19.4228 4.52116 19.9383C5.03673 20.4333 5.67232 20.7851 6.36574 20.9584C7.27644 21.1889 8.21455 21.2944 9.1537 21.2722H10.3449V15.7802H8.43708V11.9666H10.3449V9.57851C10.3449 9.34278 10.3678 9.10753 10.4141 8.87639C10.4599 8.64754 10.5277 8.42381 10.6168 8.20811C10.7062 7.9926 10.817 7.78633 10.9467 7.59242C11.0771 7.3965 11.2268 7.21403 11.3932 7.04763C11.5607 6.88146 11.7435 6.73186 11.9399 6.60114C12.1344 6.47191 12.3412 6.36189 12.5569 6.27242C12.7722 6.18318 12.9958 6.11499 13.2243 6.06894C13.4545 6.02278 13.6886 5.99949 13.9234 5.99936H17.5029V10.2559L16.501 10.2942H14.6406V11.9666H17.6488C17.2852 13.8152 16.8889 15.7748 16.8889 15.7748L14.6406 15.7742Z"
            fill="#EFF1F8" />
    </g>
    <defs>
        <clipPath id="clip0_2999_59795">
            <rect width="24" height="24" fill="white" transform="translate(0 0.5)" />
        </clipPath>
    </defs>
</svg>
    