<svg width="24" height="25" viewBox="0 0 24 25" fill="none" xmlns="http://www.w3.org/2000/svg">
    <path
        d="M14.8959 22.8537H9.12184C3.89677 22.8537 1.66406 20.621 1.66406 15.3959V9.62183C1.66406 4.39377 3.89437 2.16406 9.12184 2.16406H14.8959C20.121 2.16406 22.3537 4.39677 22.3537 9.62183V15.3959C22.3537 20.621 20.121 22.8537 14.8959 22.8537ZM9.12184 3.60773C4.68581 3.60773 3.10773 5.18581 3.10773 9.62183V15.3959C3.10773 19.8319 4.68581 21.41 9.12184 21.41H14.8959C19.3319 21.41 20.9106 19.8319 20.9106 15.3959V9.62183C20.9106 5.18581 19.3325 3.60713 14.8959 3.60713L9.12184 3.60773Z"
        fill="#EFF1F8" />
    <path
        d="M12.009 16.5978C11.0605 16.5997 10.1407 16.2726 9.40637 15.6722C8.67207 15.0718 8.16878 14.2352 7.98232 13.3052C7.79585 12.3752 7.93776 11.4093 8.38384 10.5722C8.82992 9.73515 9.55255 9.07872 10.4285 8.71487C11.3045 8.35103 12.2795 8.30229 13.1874 8.57698C14.0953 8.85168 14.8797 9.43278 15.4071 10.2212C15.9344 11.0096 16.1719 11.9566 16.0791 12.9005C15.9863 13.8445 15.5689 14.7271 14.8982 15.3977C14.1322 16.1649 13.0931 16.5965 12.009 16.5978ZM12.009 9.86183C11.3526 9.86222 10.7198 10.1067 10.2337 10.5478C9.74755 10.9889 9.44286 11.595 9.37886 12.2483C9.31485 12.9016 9.49612 13.5554 9.88739 14.0824C10.2787 14.6095 10.852 14.9721 11.4958 15.0999C12.1397 15.2277 12.8081 15.1114 13.3709 14.7737C13.9338 14.4361 14.351 13.9011 14.5413 13.2729C14.7317 12.6447 14.6815 11.9681 14.4007 11.3748C14.1198 10.7815 13.6284 10.3139 13.0219 10.0628C12.7007 9.92998 12.3566 9.86167 12.009 9.86183Z"
        fill="#EFF1F8" />
    <path
        d="M16.8213 8.17685C16.6957 8.17541 16.5715 8.14932 16.4559 8.10005C16.3394 8.05117 16.2321 7.98279 16.1385 7.89784C16.0507 7.80461 15.9791 7.69732 15.9267 7.58042C15.8369 7.34529 15.8369 7.08532 15.9267 6.85019C15.9802 6.73392 16.0517 6.62681 16.1385 6.53277C16.1843 6.49147 16.2326 6.45299 16.2831 6.41756C16.3368 6.38118 16.3951 6.35212 16.4565 6.33116C16.5128 6.30138 16.5736 6.2811 16.6365 6.27116C16.7911 6.24073 16.9508 6.24849 17.1017 6.29377C17.2525 6.33904 17.3901 6.42047 17.5024 6.53097C17.5894 6.6229 17.6581 6.73065 17.7046 6.84839C17.7553 6.96342 17.7815 7.08777 17.7815 7.2135C17.7815 7.33923 17.7553 7.46358 17.7046 7.57862C17.6557 7.69515 17.5873 7.80249 17.5024 7.89604C17.4088 7.98099 17.3015 8.04937 17.185 8.09825C17.07 8.14791 16.9465 8.17461 16.8213 8.17685Z"
        fill="#EFF1F8" />
</svg>
    