<svg width="24" height="25" viewBox="0 0 24 25" fill="none" xmlns="http://www.w3.org/2000/svg">
    <path
        d="M9.20135 22.8038C4.00389 22.8038 1.78125 20.5837 1.78125 15.3832V9.63797C1.78125 4.44051 4.00149 2.21729 9.20135 2.21729H14.9456C20.1436 2.21729 22.3639 4.43751 22.3639 9.63797V15.3832C22.3639 20.5807 20.1436 22.8038 14.9456 22.8038H9.20135ZM3.21863 9.63855V15.3838C3.21863 19.794 4.78813 21.3684 9.20135 21.3684H14.9456C19.3582 21.3684 20.9289 19.794 20.9289 15.3838V9.63855C20.9289 5.22833 19.3588 3.65378 14.9456 3.65378H9.20135C4.78873 3.65378 3.21921 5.22833 3.21921 9.63855H3.21863ZM10.2655 17.7707V17.7401C10.2655 17.7167 10.2655 17.6801 10.2655 17.6297C10.2727 15.7312 10.2865 11.2574 10.2655 10.7264H12.6058V11.7249C12.8205 11.3569 13.1294 11.0526 13.5006 10.8434C13.8427 10.6558 14.2261 10.5571 14.6163 10.5566H14.6702C14.6888 10.5566 14.7056 10.5566 14.72 10.5566C16.4091 10.5566 17.4148 11.741 17.4148 13.7289V17.7611H15.0751V13.9948C15.0751 12.9537 14.6654 12.4065 13.8926 12.4065C13.6258 12.4044 13.3656 12.4867 13.1484 12.6416C12.9353 12.7988 12.7733 13.0156 12.6832 13.2645C12.6243 13.4473 12.5989 13.6391 12.6082 13.8309V17.769L10.2655 17.7707ZM6.62368 17.7636V10.7264H8.96813V17.7636H6.62368ZM6.48949 8.53152C6.50077 8.19239 6.64635 7.87154 6.89381 7.63938C7.14127 7.40722 7.47052 7.28257 7.80968 7.29293C8.14925 7.28208 8.47926 7.40647 8.7273 7.63865C8.97534 7.87083 9.1212 8.19196 9.13279 8.53152C9.12151 8.87159 8.97585 9.19328 8.72789 9.42629C8.47992 9.6593 8.1498 9.78466 7.80968 9.77479C7.47018 9.78401 7.14105 9.6584 6.89381 9.42556C6.64658 9.19271 6.50121 8.87154 6.49008 8.5321L6.48949 8.53152Z"
        fill="#EFF1F8" />
</svg>
    