<svg width="24" height="25" viewBox="0 0 24 25" fill="none" xmlns="http://www.w3.org/2000/svg">
    <g clip-path="url(#clip0_2999_59799)">
        <path
            d="M9.72282 17.1708C9.13696 17.1707 8.55444 17.0836 7.99422 16.9122C7.43409 16.7403 6.90283 16.4857 6.41797 16.1568C6.61686 16.1836 6.81731 16.1973 7.018 16.1976C7.0534 16.1976 7.08698 16.1976 7.11878 16.1976C7.15059 16.1976 7.19871 16.1976 7.23891 16.1976C7.68857 16.1977 8.13372 16.1107 8.5503 15.9414C9.00565 15.7587 9.4164 15.4804 9.75505 15.1253C9.52213 15.124 9.29117 15.0851 9.07064 15.0102C8.85067 14.9349 8.64435 14.825 8.45889 14.6848C8.27347 14.5458 8.11096 14.3782 7.9784 14.1881C7.84637 13.997 7.74514 13.7864 7.67838 13.564C7.82151 13.5902 7.96708 13.6035 8.11258 13.6037H8.17235C8.32376 13.6034 8.47377 13.5725 8.613 13.513C8.45321 13.4752 8.29751 13.4209 8.14891 13.351C7.99953 13.2817 7.85772 13.1971 7.72585 13.0985C7.6007 13.0067 7.48641 12.9013 7.38423 12.7845C7.28157 12.6668 7.19185 12.5383 7.11703 12.4012C7.02272 12.2194 6.95089 12.0267 6.90374 11.8275C6.85581 11.6279 6.83419 11.4231 6.83869 11.2179C7.07545 11.3851 7.35351 11.4839 7.64264 11.5036H7.64615C7.68036 11.5036 7.71623 11.4982 7.75163 11.4928C7.61087 11.3674 7.48234 11.2292 7.36723 11.0799C7.25206 10.9305 7.15053 10.7711 7.0637 10.6036C6.98372 10.453 6.91991 10.2942 6.87385 10.1301C6.82849 9.96567 6.80073 9.79687 6.79064 9.6266C6.78362 9.41558 6.80585 9.20465 6.85627 8.99962C6.90735 8.7948 6.98646 8.59803 7.09183 8.41512C7.49409 8.85804 7.94466 9.25483 8.43487 9.59789C9.36933 10.3128 10.505 10.7158 11.6811 10.7499H11.7339H11.7385C11.7985 10.7499 11.8544 10.7468 11.9096 10.7402C11.8585 10.5534 11.8308 10.361 11.8282 10.1673C11.8239 10.0168 11.8354 9.86617 11.8616 9.71787C11.888 9.57102 11.9283 9.42696 11.9817 9.28762C12.0352 9.14854 12.1013 9.0149 12.1804 8.88858C12.2611 8.76182 12.3539 8.64271 12.4564 8.53275C12.5606 8.4238 12.6748 8.32516 12.798 8.23816C12.9199 8.15176 13.0504 8.07784 13.1871 8.01739C13.322 7.95622 13.4628 7.90873 13.6072 7.87574C13.7538 7.84235 13.9028 7.82346 14.0531 7.81934H14.0953C14.2393 7.81953 14.3829 7.83363 14.5242 7.86138C14.6654 7.88799 14.8039 7.92815 14.9373 7.98136C15.0774 8.03738 15.2114 8.10781 15.337 8.19142C15.4634 8.27518 15.5811 8.37113 15.6885 8.47811H15.7237C16.2674 8.46464 16.7927 8.27881 17.2238 7.94722C17.223 7.98771 17.2179 8.02795 17.208 8.0672C17.1851 8.15947 17.1495 8.24823 17.1031 8.33118C17.028 8.4716 16.9377 8.60309 16.8329 8.72304C16.6741 8.90555 16.4991 9.07339 16.3103 9.22463C16.7525 9.18923 17.1823 9.06229 17.573 8.85196C17.4243 9.10906 17.2525 9.35189 17.0591 9.57738C16.866 9.80209 16.652 10.0083 16.4204 10.1931C16.4405 10.6827 16.412 11.1732 16.3349 11.6571C16.2575 12.1407 16.1311 12.6153 15.9575 13.0733C15.7983 13.5033 15.5914 13.9143 15.3411 14.2985C15.0892 14.6818 14.7956 15.036 14.4656 15.3546C14.0246 15.7634 13.532 16.1131 13.0007 16.395C12.471 16.6763 11.9074 16.8885 11.3237 17.0262C10.8823 17.1152 10.4338 17.1625 9.98358 17.1673C9.90017 17.1691 9.81163 17.1708 9.72282 17.1708ZM11.2833 14.0026C11.246 14.0974 11.2091 14.1887 11.1737 14.2817C11.1095 14.4509 11.0484 14.6099 10.9698 14.7803C10.8788 14.976 10.7733 15.1647 10.6545 15.3449C10.5337 15.5413 10.3998 15.7293 10.2537 15.9077C10.1454 16.0285 10.015 16.1274 9.86931 16.1988C9.88431 16.1988 9.89996 16.1988 9.91736 16.1988C10.0994 16.1866 10.2802 16.1592 10.4576 16.1166C10.5608 16.095 10.6577 16.0752 10.7231 16.0668C11.0645 16.0239 11.4 15.942 11.7227 15.8226C11.7473 15.8136 11.7831 15.7985 11.8311 15.7775C12.0853 15.6797 12.3335 15.5686 12.5759 15.4445C12.8467 15.3067 13.1093 15.1528 13.3617 14.9837C13.6236 14.8191 13.8628 14.6215 14.0742 14.3956C14.5848 13.8383 14.9651 13.1742 15.187 12.4515C15.4067 11.7937 15.476 11.0949 15.3897 10.4067V10.3964C15.3897 10.3802 15.3897 10.2956 15.3897 10.259V10.2458L15.4577 10.0844L15.327 9.8607L15.2954 9.48626H15.1442C14.9567 9.26587 14.7247 9.08769 14.4633 8.96358L14.4299 8.94747C14.4167 8.94002 14.4035 8.93328 14.3895 8.92755C14.2437 8.87496 14.0896 8.85005 13.9348 8.85386C13.8788 8.85368 13.8228 8.85644 13.7672 8.86221C13.6038 8.86361 13.445 8.91563 13.3125 9.01105C13.2226 9.0661 13.1461 9.14053 13.0886 9.22888C13.009 9.33142 12.9431 9.44391 12.8929 9.56361C12.7931 9.80584 12.7388 10.0643 12.7323 10.3262C12.7213 10.5315 12.7565 10.7365 12.8355 10.9263C12.8475 10.9665 12.8598 11.0055 12.8736 11.0463C12.8732 11.1277 12.856 11.2082 12.8232 11.2827C12.7685 11.3684 12.7 11.4445 12.6204 11.5077L12.6134 11.5149L12.6087 11.5185C12.5991 11.5185 12.5948 11.5263 12.5876 11.5377L12.5841 11.5414C12.5164 11.5953 12.4364 11.6321 12.3515 11.6488C12.1821 11.6963 12.0076 11.7214 11.8317 11.7232C11.2829 11.7069 10.7379 11.625 10.2086 11.479C9.40026 11.19 8.63822 10.7842 7.94734 10.2747C8.19425 10.8919 8.67404 11.3876 9.28276 11.6548L9.3062 11.6691C9.31067 11.6715 9.3146 11.6743 9.3185 11.6775L9.32436 11.6811L9.34663 11.6955C9.24103 11.7513 9.18726 11.7861 9.13685 11.8155C9.04376 11.8757 8.94608 11.9289 8.84504 11.9746L8.68273 12.0538C8.534 12.1363 8.37414 12.1968 8.2081 12.2337C8.59525 12.6611 9.12333 12.9346 9.69587 13.0037C9.88548 13.0331 10.5074 13.1295 10.5567 13.1409L9.70817 13.6811C9.68104 13.7017 9.65158 13.7195 9.62086 13.7344C9.53494 13.7795 9.45291 13.8319 9.37593 13.891C9.32954 13.9102 9.28887 13.9404 9.25639 13.9787C9.29663 14.0316 9.34989 14.0729 9.41109 14.0987C9.60927 14.185 9.82447 14.2247 10.0404 14.215H10.0826C10.4949 14.187 10.9019 14.1085 11.295 13.9811L11.2833 14.0026Z"
            fill="#EFF1F8" />
        <path
            d="M14.8705 22.7929H9.1264C3.92834 22.7929 1.70703 20.5728 1.70703 15.3718V9.62767C1.70703 4.42901 3.92714 2.20654 9.1264 2.20654H14.8705C20.0685 2.20654 22.2898 4.42661 22.2898 9.62767V15.3718C22.2904 20.5704 20.0691 22.7929 14.8705 22.7929ZM9.1264 3.64231C4.71318 3.64231 3.14291 5.21624 3.14291 9.62767V15.3718C3.14291 19.7832 4.71318 21.3571 9.1264 21.3571H14.8705C19.2837 21.3571 20.854 19.7832 20.854 15.3718V9.62767C20.854 5.21624 19.2837 3.64231 14.8705 3.64231H9.1264Z"
            fill="#EFF1F8" />
    </g>
    <defs>
        <clipPath id="clip0_2999_59799">
            <rect width="24" height="24" fill="white" transform="translate(0 0.5)" />
        </clipPath>
    </defs>
</svg>
    