<svg width="16" height="16" viewBox="0 0 16 16" fill="none" xmlns="http://www.w3.org/2000/svg">
    <path
        d="M6.11536 10.3868C6.04969 10.387 5.98463 10.3741 5.92399 10.3489C5.86335 10.3237 5.80834 10.2867 5.76217 10.24C5.66927 10.1458 5.61719 10.0189 5.61719 9.88661C5.61719 9.75434 5.66927 9.62738 5.76217 9.53322L9.53687 5.76052C9.6306 5.66679 9.75772 5.61414 9.89026 5.61414C10.0228 5.61414 10.1499 5.66679 10.2437 5.76052C10.3374 5.85424 10.39 5.98136 10.39 6.11391C10.39 6.24645 10.3374 6.37357 10.2437 6.4673L6.46855 10.2404C6.42272 10.2875 6.36776 10.3248 6.30704 10.35C6.24631 10.3752 6.18109 10.3877 6.11536 10.3868Z"
        fill="#CED2DF" />
    <path
        d="M9.88673 10.3868C9.82106 10.3871 9.756 10.3742 9.69536 10.349C9.63472 10.3238 9.57971 10.2867 9.53354 10.24L5.76043 6.46693C5.66983 6.37264 5.61981 6.24657 5.62112 6.11581C5.62243 5.98505 5.67495 5.86001 5.76742 5.76754C5.85989 5.67507 5.98493 5.62255 6.11569 5.62124C6.24645 5.61993 6.37252 5.66995 6.46681 5.76055L10.2403 9.53526C10.3332 9.62942 10.3853 9.75638 10.3853 9.88865C10.3853 10.0209 10.3332 10.1479 10.2403 10.242C10.1939 10.2884 10.1388 10.3251 10.0781 10.35C10.0174 10.3748 9.95232 10.3874 9.88673 10.3868Z"
        fill="#CED2DF" />
    <path
        d="M9.9986 15.1666H5.9987C2.37879 15.1666 0.832031 13.6199 0.832031 9.99995V6.00005C0.832031 2.38014 2.37879 0.833374 5.9987 0.833374H9.9986C13.6185 0.833374 15.1653 2.38014 15.1653 6.00005V9.99995C15.1653 13.6199 13.6185 15.1666 9.9986 15.1666ZM5.9987 1.83335C2.92518 1.83335 1.83201 2.92652 1.83201 6.00005V9.99995C1.83201 13.0735 2.92518 14.1666 5.9987 14.1666H9.9986C13.0721 14.1666 14.1653 13.0735 14.1653 9.99995V6.00005C14.1653 2.92652 13.0717 1.83335 9.9986 1.83335H5.9987Z"
        fill="#CED2DF" />
</svg>
    