<svg width="16" height="16" viewBox="0 0 16 16" fill="none" xmlns="http://www.w3.org/2000/svg">
    <path
        d="M11.2117 13.9435H4.78594C2.43834 13.9435 1.0918 12.5967 1.0918 10.2479V5.75068C1.0918 3.40308 2.43834 2.05713 4.78594 2.05713H11.2117C13.5605 2.05713 14.907 3.40348 14.907 5.75068V10.2479C14.909 12.5967 13.5609 13.9435 11.2117 13.9435ZM3.89609 4.86357C3.82379 4.86326 3.75236 4.87928 3.68711 4.91045C3.62186 4.94162 3.56433 4.98701 3.51914 5.04346C3.47903 5.09287 3.44891 5.14981 3.43086 5.21084C3.41281 5.27187 3.40729 5.33584 3.41406 5.39912C3.42054 5.46243 3.4395 5.52389 3.46992 5.57979C3.50034 5.63568 3.54137 5.68489 3.59102 5.72471C6.51102 8.08951 6.53681 8.0995 6.58281 8.1167C6.99678 8.40835 7.49208 8.56233 7.99844 8.55674C8.50091 8.56368 8.99253 8.41089 9.40273 8.12061C9.45433 8.10301 9.48262 8.09349 12.4074 5.72549C12.5062 5.64419 12.5692 5.52719 12.5824 5.3999C12.5956 5.27262 12.5582 5.14523 12.4781 5.04541C12.4329 4.98907 12.3753 4.94363 12.3102 4.9124C12.245 4.88118 12.1738 4.8651 12.1016 4.86514C11.9906 4.86532 11.8832 4.90344 11.7969 4.97314L8.89805 7.29951C8.63912 7.4963 8.32124 7.5996 7.99609 7.59268C7.67059 7.5995 7.35201 7.49622 7.09258 7.29951L4.20078 4.97314C4.11468 4.90312 4.00708 4.86508 3.89609 4.86553V4.86357Z"
        fill="#EFF1F8" />
</svg>
    