<svg width="24" height="25" viewBox="0 0 24 25" fill="none" xmlns="http://www.w3.org/2000/svg">
    <path
        d="M22.294 16.8015C22.294 20.5521 20.0632 22.7829 16.3126 22.7829H14.0607V15.3015H14.5641L16.375 15.2703C16.4476 15.2649 16.615 15.2703 16.615 15.2703C16.615 15.2703 16.6618 15.0837 16.675 15.0111L17.035 13.0449C17.0452 13.0035 17.0836 12.6849 17.0836 12.6849H16.729L14.5342 12.7161H14.0104C14.0104 12.7161 14.0158 12.3477 14.0104 12.2079L13.969 9.68791C13.9692 9.60666 14.0008 9.5286 14.0572 9.47009C14.1177 9.41347 14.1975 9.38196 14.2804 9.38191L16.75 9.34045H17.056V9.0291L17.0145 6.55952V6.25351H16.7086L13.9282 6.2949C13.5224 6.29875 13.1216 6.38528 12.7504 6.54927C12.378 6.70952 12.0413 6.94223 11.7598 7.23386C11.4783 7.52536 11.2563 7.869 11.1064 8.24548C10.9559 8.62306 10.8835 9.02716 10.8934 9.43347L10.9402 12.2607C10.9456 12.3279 10.9402 12.7899 10.9402 12.7899C10.9402 12.7899 10.5046 12.7845 10.4368 12.7899L9.20193 12.8055H8.89592V13.1169L8.92712 15.0729V15.3843H9.23313L10.468 15.3639C10.6084 15.3585 10.9972 15.3639 10.9972 15.3639C10.9972 15.3639 10.9918 15.7323 10.9972 15.8673L11.0854 21.7347C11.0908 21.8697 11.0854 22.7829 11.0854 22.7829H7.69233C3.94173 22.7829 1.71094 20.5521 1.71094 16.7907V8.17891C1.71094 4.42831 3.94173 2.19751 7.69233 2.19751H16.3143C20.0649 2.19751 22.2957 4.42831 22.2957 8.17891L22.294 16.8015Z"
        fill="#1877F2" />
</svg>
    