<svg width="24" height="25" viewBox="0 0 24 25" fill="none" xmlns="http://www.w3.org/2000/svg">
    <path
        d="M6.99674 22.7149C6.20396 22.7061 5.41863 22.5608 4.67522 22.2853C4.13148 22.085 3.63944 21.7655 3.23515 21.3504C2.8188 20.9469 2.49884 20.4547 2.2991 19.9103C2.02379 19.1669 1.87866 18.3816 1.87008 17.5888C1.81008 16.2688 1.79688 15.8757 1.79688 12.5366C1.79688 9.19741 1.81008 8.80319 1.86948 7.48493C1.87937 6.69324 2.02468 5.90908 2.2991 5.16641C2.50006 4.62285 2.81962 4.1309 3.23455 3.72634C3.63823 3.31033 4.13044 2.9906 4.67462 2.79089C5.41814 2.516 6.20347 2.37127 6.99613 2.36307C8.3162 2.30307 8.71042 2.29047 12.0478 2.29047C15.3852 2.29047 15.7806 2.30367 17.0994 2.36307C17.8919 2.37269 18.6769 2.518 19.4204 2.79269C19.9643 2.99252 20.4565 3.312 20.8604 3.72754C21.2761 4.13149 21.5958 4.62362 21.7959 5.16761C22.0716 5.91098 22.2171 6.69632 22.2261 7.48913C22.2861 8.80919 22.2987 9.20281 22.2987 12.5408C22.2987 15.8787 22.2867 16.2736 22.2261 17.5924C22.2165 18.3852 22.071 19.1704 21.7959 19.9139C21.5878 20.4531 21.2692 20.9428 20.8605 21.3514C20.4517 21.76 19.962 22.0785 19.4228 22.2865C18.6794 22.5622 17.894 22.7077 17.1012 22.7167C15.7812 22.7767 15.3876 22.7893 12.0496 22.7893C8.71162 22.7893 8.3162 22.7779 6.99914 22.7167"
        fill="url(#paint0_linear_2980_60329)" />
    <path
        d="M6.99674 22.7149C6.20396 22.7061 5.41863 22.5608 4.67522 22.2853C4.13148 22.085 3.63944 21.7655 3.23515 21.3504C2.8188 20.9469 2.49884 20.4547 2.2991 19.9103C2.02379 19.1669 1.87866 18.3816 1.87008 17.5888C1.81008 16.2688 1.79688 15.8757 1.79688 12.5366C1.79688 9.19741 1.81008 8.80319 1.86948 7.48493C1.87937 6.69324 2.02468 5.90908 2.2991 5.16641C2.50006 4.62285 2.81962 4.1309 3.23455 3.72634C3.63823 3.31033 4.13044 2.9906 4.67462 2.79089C5.41814 2.516 6.20347 2.37127 6.99613 2.36307C8.3162 2.30307 8.71042 2.29047 12.0478 2.29047C15.3852 2.29047 15.7806 2.30367 17.0994 2.36307C17.8919 2.37269 18.6769 2.518 19.4204 2.79269C19.9643 2.99252 20.4565 3.312 20.8604 3.72754C21.2761 4.13149 21.5958 4.62362 21.7959 5.16761C22.0716 5.91098 22.2171 6.69632 22.2261 7.48913C22.2861 8.80919 22.2987 9.20281 22.2987 12.5408C22.2987 15.8787 22.2867 16.2736 22.2261 17.5924C22.2165 18.3852 22.071 19.1704 21.7959 19.9139C21.5878 20.4531 21.2692 20.9428 20.8605 21.3514C20.4517 21.76 19.962 22.0785 19.4228 22.2865C18.6794 22.5622 17.894 22.7077 17.1012 22.7167C15.7812 22.7767 15.3876 22.7893 12.0496 22.7893C8.71162 22.7893 8.3162 22.7779 6.99914 22.7167"
        fill="url(#paint1_radial_2980_60329)" />
    <path
        d="M9.53268 12.5822C9.53267 11.995 9.73626 11.4259 10.1088 10.972C10.4813 10.5181 10.9997 10.2074 11.5756 10.0928C12.1515 9.9782 12.7493 10.0669 13.2672 10.3437C13.7851 10.6205 14.191 11.0683 14.4157 11.6108C14.6404 12.1533 14.6701 12.7569 14.4997 13.3188C14.3292 13.8808 13.9692 14.3662 13.481 14.6925C12.9927 15.0187 12.4065 15.1656 11.8221 15.108C11.2377 15.0505 10.6914 14.7921 10.2761 14.3769C9.80013 13.9009 9.5327 13.2553 9.53268 12.5822ZM8.16042 12.5822C8.15904 13.5528 8.51871 14.4891 9.16947 15.2092C9.82023 15.9293 10.7155 16.3816 11.6813 16.4781C12.647 16.5747 13.6142 16.3086 14.3946 15.7316C15.175 15.1545 15.7129 14.3079 15.9037 13.3563C16.0945 12.4046 15.9245 11.4161 15.4268 10.5828C14.9291 9.74958 14.1393 9.13124 13.211 8.84805C12.2826 8.56487 11.2822 8.63709 10.4041 9.05067C9.52611 9.46426 8.83329 10.1896 8.46043 11.0857C8.26309 11.56 8.16114 12.0685 8.16042 12.5822ZM15.2216 8.51699C15.2212 8.72875 15.2943 8.93408 15.4284 9.09798C15.5624 9.26188 15.7492 9.37421 15.9568 9.41581C16.1645 9.45741 16.3801 9.42571 16.567 9.32612C16.7539 9.22653 16.9004 9.0652 16.9816 8.86965C17.0629 8.67409 17.0738 8.45642 17.0125 8.25372C16.9512 8.05103 16.8215 7.87587 16.6455 7.75811C16.4695 7.64034 16.2581 7.58726 16.0474 7.60791C15.8366 7.62857 15.6396 7.72167 15.4898 7.87136C15.3183 8.04251 15.2219 8.27474 15.2216 8.51699ZM8.99446 18.7835C8.51155 18.7783 8.03315 18.69 7.58019 18.5225C7.2517 18.396 6.95337 18.202 6.70441 17.9532C6.45545 17.7043 6.26138 17.4061 6.13472 17.0776C5.96713 16.6247 5.87884 16.1463 5.8737 15.6633C5.8365 14.8605 5.8293 14.6199 5.8293 12.5864C5.8293 10.5529 5.8371 10.3123 5.8737 9.50884C5.87946 9.02599 5.96774 8.54767 6.13472 8.09457C6.26103 7.76558 6.45494 7.46674 6.70391 7.21735C6.95289 6.96796 7.25141 6.77356 7.58019 6.6467C8.03312 6.47913 8.51154 6.39083 8.99446 6.38569C9.7973 6.34848 10.0379 6.34128 12.0708 6.34128C14.1037 6.34128 14.3449 6.34908 15.1484 6.38569C15.6312 6.39145 16.1095 6.47972 16.5626 6.6467C16.8912 6.77329 17.1896 6.96733 17.4385 7.21629C17.6875 7.46526 17.8815 7.76363 18.0081 8.09217C18.1757 8.54511 18.264 9.02353 18.2691 9.50644C18.3063 10.3105 18.3135 10.5499 18.3135 12.584C18.3135 14.6181 18.3063 14.8581 18.2691 15.6615C18.2636 16.1444 18.1753 16.6228 18.0081 17.0758C17.8815 17.404 17.6876 17.7021 17.4389 17.9508C17.1901 18.1996 16.892 18.3935 16.5638 18.5201C16.1109 18.6877 15.6325 18.776 15.1496 18.7811C14.3467 18.8183 14.1055 18.8255 12.072 18.8255C10.0385 18.8255 9.7979 18.8183 8.99566 18.7811L8.99446 18.7835ZM8.93146 5.01402C8.29983 5.02663 7.67493 5.14633 7.08336 5.36803C6.57737 5.56349 6.1178 5.86254 5.73414 6.246C5.35048 6.62945 5.05118 7.08886 4.85545 7.59475C4.63427 8.18681 4.51517 8.81212 4.50323 9.44404C4.46543 10.2559 4.45703 10.5157 4.45703 12.5834C4.45703 14.6511 4.46543 14.9109 4.50323 15.7228C4.5156 16.3545 4.6351 16.9796 4.85665 17.5714C5.05221 18.0773 5.3513 18.5367 5.73475 18.9203C6.1182 19.3038 6.57755 19.6031 7.08336 19.7988C7.67518 20.0202 8.30027 20.1397 8.93205 20.1522C9.7445 20.1894 10.0037 20.1984 12.0714 20.1984C14.1391 20.1984 14.3989 20.19 15.2108 20.1522C15.8426 20.1398 16.4677 20.0203 17.0595 19.7988C17.5654 19.6031 18.0249 19.3039 18.4084 18.9204C18.792 18.5368 19.0911 18.0774 19.2868 17.5714C19.5087 16.9797 19.6282 16.3546 19.6402 15.7228C19.6774 14.9103 19.6858 14.6511 19.6858 12.5834C19.6858 10.5157 19.6774 10.2559 19.6402 9.44404C19.6279 8.81224 19.5084 8.18712 19.2868 7.59535C19.0912 7.0895 18.7921 6.63009 18.4086 6.24654C18.0252 5.86299 17.5659 5.56377 17.0601 5.36803C16.4683 5.14633 15.8432 5.02682 15.2114 5.01462C14.3995 4.97741 14.1397 4.96841 12.0726 4.96841C10.0055 4.96841 9.7451 4.97681 8.93266 5.01462"
        fill="white" />
    <defs>
        <linearGradient id="paint0_linear_2980_60329" x1="3.27301" y1="3.35641" x2="20.597"
            y2="21.3134" gradientUnits="userSpaceOnUse">
            <stop stop-color="#9939A0" />
            <stop offset="0.316" stop-color="#D53B77" />
            <stop offset="1" stop-color="#DD3B71" />
        </linearGradient>
        <radialGradient id="paint1_radial_2980_60329" cx="0" cy="0" r="1"
            gradientUnits="userSpaceOnUse"
            gradientTransform="translate(1.79922 21.4914) rotate(-42.5104) scale(24.4195 58.191)">
            <stop stop-color="#FA8F21" />
            <stop offset="1" stop-color="#FA8F21" stop-opacity="0" />
        </radialGradient>
    </defs>
</svg>
    