<svg width="24" height="25" viewBox="0 0 24 25" fill="none" xmlns="http://www.w3.org/2000/svg">
    <path
        d="M14.9012 22.8559H9.1242C8.81039 22.8559 8.49227 22.8469 8.17845 22.8295C7.86464 22.8121 7.56643 22.7821 7.30302 22.7485C6.9964 22.7095 6.73145 22.6657 6.49204 22.6147C6.20942 22.5547 5.96739 22.4946 5.75138 22.4256C5.51496 22.3506 5.28873 22.2673 5.07751 22.1773C4.86735 22.0886 4.66247 21.9871 4.46459 21.8736C4.27507 21.7626 4.09228 21.6405 3.9173 21.5077C3.74567 21.3784 3.5837 21.237 3.43212 21.0846C3.27973 20.9329 3.13814 20.7707 3.00847 20.5992C2.87618 20.424 2.75395 20.2413 2.64282 20.052C2.52932 19.8543 2.42802 19.6499 2.33929 19.44C2.24749 19.2246 2.16345 18.9977 2.09084 18.7655C2.01824 18.5333 1.96297 18.3119 1.91857 18.0965C1.74265 17.4532 1.65732 16.7886 1.66484 16.1218V15.7917C1.66484 15.6633 1.66016 15.526 1.66016 15.3904V14.7579C1.66016 14.8095 1.66004 14.8617 1.66484 14.9145V12.7676C1.66004 12.5876 1.66004 12.3986 1.66484 12.2132V10.1131C1.66484 10.1839 1.66074 10.2511 1.66074 10.3219V9.61565C1.66074 9.47524 1.66063 9.33181 1.66543 9.21661V8.88422C1.65788 8.21739 1.74322 7.55275 1.91915 6.90951C1.97136 6.6731 2.02962 6.44865 2.09143 6.24224C2.16643 6.00223 2.25047 5.7778 2.33988 5.56779C2.42871 5.35787 2.53001 5.15348 2.64341 4.95575C2.7533 4.76566 2.87558 4.58295 3.00905 4.4086C3.13877 4.23711 3.28035 4.07486 3.43271 3.92313C3.58493 3.77074 3.74685 3.62863 3.91789 3.49772C4.09289 3.36573 4.27569 3.24433 4.46518 3.13412C4.66309 3.02068 4.86796 2.91923 5.0781 2.83045C5.29812 2.73551 5.52308 2.65251 5.75196 2.58156C5.99197 2.50775 6.24181 2.44404 6.49262 2.39244C6.74344 2.34084 7.01979 2.29235 7.3036 2.25635C7.61802 2.21854 7.90362 2.1927 8.17904 2.17709C8.49225 2.15969 8.81037 2.15073 9.12479 2.15073H14.9018C15.2162 2.15073 15.535 2.15969 15.8482 2.17709C16.1236 2.1921 16.4109 2.21854 16.7254 2.25635C17.0062 2.29235 17.2784 2.33783 17.534 2.39244C17.7896 2.44704 18.031 2.50715 18.2747 2.58156C18.5038 2.65244 18.7289 2.73544 18.9491 2.83045C19.1591 2.91905 19.3638 3.02051 19.5614 3.13412C19.7519 3.24299 19.935 3.36444 20.1093 3.49772C20.2803 3.62876 20.4422 3.77086 20.5945 3.92313C20.7469 4.07537 20.889 4.23758 21.0199 4.4086C21.1523 4.58323 21.2738 4.76592 21.3832 4.95575C21.4968 5.15345 21.5983 5.35784 21.6873 5.56779C21.783 5.78765 21.866 6.01285 21.9358 6.24224C22.0018 6.46605 22.0555 6.66224 22.0957 6.84945C22.284 7.51099 22.3751 8.19647 22.3659 8.88422V16.1235C22.3752 16.8121 22.2841 17.4983 22.0957 18.1607C22.0447 18.3851 21.9928 18.5837 21.9358 18.7679C21.8661 18.9973 21.7831 19.2225 21.6873 19.4423C21.5982 19.6522 21.4967 19.8566 21.3832 20.0544C21.2725 20.2434 21.151 20.4261 21.0199 20.6016C20.8889 20.7726 20.7468 20.9347 20.5945 21.087C20.4428 21.2392 20.2809 21.3806 20.1093 21.51C19.9351 21.6442 19.752 21.7665 19.5614 21.8761C19.3637 21.9895 19.159 22.0908 18.9491 22.1797C18.7373 22.2703 18.5105 22.3537 18.2747 22.4281C18.0574 22.4947 17.8148 22.5565 17.534 22.6171C17.294 22.6681 17.029 22.7118 16.7254 22.7508C16.4637 22.7844 16.1692 22.8108 15.8482 22.8318C15.5272 22.8528 15.2151 22.8559 14.9012 22.8559ZM10.2674 10.7155C10.2908 11.2555 10.2758 15.7252 10.2674 17.6213C10.2674 17.7071 10.2674 17.7562 10.2674 17.7616H12.6078V13.8242C12.5977 13.6324 12.623 13.4405 12.6822 13.2579C12.7723 13.0084 12.934 12.7912 13.1474 12.6338C13.3639 12.4802 13.6233 12.3983 13.8887 12.3997C14.6633 12.3997 15.0724 12.9494 15.0724 13.9899V17.7556H17.4127V13.7222C17.4127 11.7374 16.4051 10.5523 14.7184 10.5523C14.6848 10.5523 14.6501 10.5523 14.6141 10.5523C14.2235 10.5524 13.839 10.6511 13.4967 10.8391C13.1269 11.0483 12.8195 11.3517 12.6054 11.7187V10.719L10.2674 10.7155ZM6.62388 10.7155V17.7538H8.96892V10.7155H6.62388ZM7.81164 7.28453C7.47261 7.27465 7.14371 7.39936 6.89636 7.63142C6.649 7.86348 6.5032 8.184 6.49145 8.52297C6.50289 8.86225 6.64842 9.18318 6.89577 9.41569C7.14312 9.6482 7.4723 9.77345 7.81164 9.7639C8.15093 9.77329 8.48019 9.64802 8.7275 9.41554C8.97482 9.18307 9.12022 8.86219 9.13182 8.52297C9.12053 8.18363 8.97489 7.86264 8.7275 7.6301C8.48012 7.39756 8.15102 7.27248 7.81164 7.28218V7.28453Z"
        fill="#1680B9" />
</svg>
        