<svg width="16" height="16" viewBox="0 0 16 16" fill="none" xmlns="http://www.w3.org/2000/svg">
    <path
        d="M8.00474 14.9016H7.91758C7.29405 14.8817 6.695 14.6542 6.21549 14.2551C5.71999 13.8353 5.26843 13.3662 4.86781 12.8551C4.80581 12.7791 4.74139 12.7055 4.67899 12.6299C4.60778 12.5563 4.53421 12.4803 4.46301 12.409C3.7272 11.7 3.08769 10.8973 2.56091 10.0217C2.05064 9.17604 1.7768 8.20886 1.76805 7.22119C1.75788 6.41108 1.91218 5.60729 2.22159 4.85852C2.531 4.10976 2.98907 3.43159 3.56814 2.86497C4.14997 2.29232 4.8405 1.84185 5.59905 1.5401C6.36122 1.23738 7.17557 1.08786 7.99556 1.10008H8.00918C8.82513 1.08767 9.63549 1.23607 10.3941 1.53687C11.1504 1.8362 11.8399 2.2826 12.4226 2.85017C13.0003 3.41313 13.4585 4.08676 13.7699 4.83084C14.0813 5.57492 14.2396 6.37415 14.2351 7.18076V7.22075C14.223 8.20691 13.9491 9.17217 13.4414 10.0177C12.9133 10.8916 12.2739 11.6933 11.5393 12.4027C11.4705 12.4715 11.3989 12.545 11.3253 12.621C11.2609 12.697 11.1965 12.7731 11.1345 12.8487C10.7346 13.3613 10.283 13.8313 9.78686 14.2515C9.30735 14.6506 8.7083 14.8781 8.08477 14.8979L8.00474 14.9016ZM8.10357 4.85745C7.70395 4.85745 7.313 4.97409 6.97871 5.19306C6.64725 5.41106 6.38789 5.7225 6.23346 6.08793C6.0807 6.45147 6.041 6.85258 6.11949 7.23901C6.19797 7.62545 6.391 7.97931 6.67347 8.25445C6.95856 8.53351 7.31906 8.7231 7.71053 8.79993C8.10201 8.87676 8.50739 8.83745 8.8768 8.68684C9.24578 8.53797 9.56204 8.28258 9.78525 7.95321C10.045 7.57157 10.162 7.11058 10.1157 6.65124C10.0694 6.1919 9.86279 5.76357 9.53206 5.44146C9.15044 5.06782 8.63804 4.85784 8.10396 4.85623L8.10357 4.85745Z"
        fill="#EFF1F8" />
</svg>
    