<svg width="10" height="10" viewBox="0 0 14 14" fill="none" xmlns="http://www.w3.org/2000/svg">
    <path
        d="M5.15042 13.9365L8.90514 13.9365C9.12463 13.9365 9.33782 13.9306 9.53876 13.9189C9.74125 13.9071 9.93884 13.8891 10.1261 13.8653C10.3128 13.8416 10.4951 13.8113 10.6678 13.7752C10.8393 13.7393 11.0066 13.6964 11.1646 13.6477C11.3185 13.6005 11.4697 13.5453 11.6176 13.4821C11.7581 13.4221 11.8948 13.3539 12.0273 13.2778C12.1547 13.2043 12.2773 13.1228 12.3944 13.0337C12.5089 12.9463 12.6176 12.8513 12.7196 12.7495C12.8214 12.6474 12.9163 12.5388 13.0038 12.4242C13.0927 12.307 13.1742 12.1844 13.2477 12.0569C13.3238 11.9245 13.392 11.7877 13.452 11.6472C13.5151 11.4992 13.5704 11.348 13.6175 11.1941C13.666 11.0367 13.7088 10.8694 13.7449 10.6971C13.7806 10.5264 13.811 10.3442 13.8351 10.1553C13.8586 9.96978 13.8766 9.77218 13.8886 9.56796C13.9002 9.36461 13.9062 9.15141 13.9062 8.93433V5.06265C13.9062 4.84558 13.9002 4.63237 13.8886 4.42901C13.8766 4.22479 13.8586 4.0272 13.8351 3.84172C13.8108 3.65222 13.7806 3.46988 13.7449 3.2998C13.7091 3.12818 13.6662 2.96095 13.6175 2.80268C13.5703 2.64889 13.5151 2.49767 13.452 2.34967C13.392 2.2092 13.3238 2.0724 13.2477 1.93998C13.1743 1.81254 13.0928 1.6899 13.0038 1.57282C12.9164 1.45815 12.8215 1.34946 12.7196 1.24746C12.6176 1.14556 12.5089 1.05055 12.3944 0.963051C12.2773 0.874069 12.1547 0.792594 12.0273 0.719118C11.8948 0.64305 11.7581 0.574819 11.6176 0.514778C11.4697 0.451637 11.3184 0.396377 11.1646 0.349229C11.0079 0.300727 10.8408 0.257875 10.6678 0.221692C10.4958 0.185721 10.3135 0.155379 10.1261 0.131514C9.93803 0.107745 9.74044 0.0896988 9.53876 0.0780362C9.33614 0.0662964 9.12297 0.0603027 8.90514 0.0603027H5.15057C5.02385 0.0643455 4.90367 0.117562 4.81551 0.208674C4.72735 0.299787 4.67814 0.421639 4.67828 0.548419C4.67826 0.611611 4.69071 0.674186 4.71491 0.732559C4.73911 0.790931 4.77459 0.843954 4.81932 0.888592C4.86404 0.933231 4.91714 0.968605 4.97557 0.992691C5.03399 1.01678 5.09658 1.0291 5.15977 1.02896C5.16877 1.02895 5.17772 1.0287 5.1866 1.02822H8.90514C9.66718 1.02822 10.2838 1.09762 10.7903 1.24041C11.3127 1.38788 11.7206 1.61358 12.0372 1.93053C12.3539 2.2472 12.5794 2.65522 12.7264 3.17788C12.8691 3.68403 12.9383 4.30059 12.9383 5.06271V8.93438C12.9383 9.69643 12.8691 10.3129 12.7264 10.8191C12.5795 11.3416 12.3538 11.7495 12.0372 12.0665C11.7205 12.3836 11.3127 12.6092 10.7903 12.7564C10.2838 12.8992 9.66718 12.9686 8.90514 12.9686H5.18925C5.17966 12.968 5.17003 12.9677 5.16034 12.9677C5.03184 12.9692 4.9091 13.0213 4.81881 13.1127C4.72851 13.2042 4.67797 13.3275 4.67813 13.456C4.67809 13.5821 4.72758 13.7031 4.81593 13.7929C4.90428 13.8828 5.0244 13.9344 5.15042 13.9365Z"
        fill="white" />
    <path fill-rule="evenodd" clip-rule="evenodd"
        d="M3.90309 8.44075C3.90309 9.45781 4.27089 10.2315 4.93634 10.6156C5.22381 10.7821 5.55087 10.868 5.88306 10.8643C6.3375 10.8643 6.83524 10.7182 7.33837 10.4261L9.84317 8.98167C10.7249 8.46768 11.2118 7.7643 11.2118 6.99612C11.2118 6.22795 10.725 5.52464 9.84317 5.01615L7.33835 3.57165C6.45658 3.06312 5.60716 2.9928 4.93632 3.37696C4.27095 3.76105 3.90307 4.5347 3.90307 5.55176V6.51803H0.630649C0.617784 6.51696 0.604765 6.51643 0.591605 6.51643C0.463107 6.51787 0.340375 6.56997 0.250076 6.66141C0.159777 6.75284 0.109215 6.87621 0.109375 7.00472C0.109358 7.06791 0.121805 7.13049 0.14601 7.18886C0.170214 7.24724 0.205685 7.30026 0.250415 7.3449C0.295145 7.38954 0.348242 7.42492 0.406665 7.449C0.465088 7.47309 0.527697 7.48541 0.59089 7.48526C0.610055 7.48526 0.629197 7.48414 0.648232 7.4819H3.90309V8.44075ZM4.84215 5.61678C4.84215 4.9347 5.05397 4.4335 5.44155 4.21133C5.59961 4.12398 5.77776 4.07944 5.95833 4.08212C6.25801 4.08212 6.59904 4.1855 6.96074 4.39731L9.35302 5.77694C9.94716 6.11799 10.2727 6.55206 10.2727 6.99641C10.2727 7.44077 9.94716 7.87485 9.35302 8.2158L6.96074 9.59543C6.36648 9.93648 5.82916 10.0037 5.44155 9.78149C5.05395 9.5593 4.84215 9.05804 4.84215 8.37604V5.61678Z"
        fill="white" />
</svg>
    