<svg width="64" height="24" viewBox="0 0 64 24" fill="none" xmlns="http://www.w3.org/2000/svg">
    <g clip-path="url(#clip0_3008_58648)">
        <path
            d="M33.3494 7.46387V16.8719H31.3776L26.5603 9.38387H26.5104L26.5353 9.79187C26.6102 10.5599 26.6352 11.2799 26.6352 11.9759V16.8719H25.1875V7.46387H27.1344L31.9267 14.9279H31.9766C31.9017 13.7039 31.9017 12.8639 31.9017 12.4079V7.46387H33.3494Z"
            fill="#373737" />
        <path
            d="M39.4657 13.2959L41.5124 7.46387H43.1848L39.7403 16.8719H38.068L34.6484 7.46387H36.2958L38.3425 13.3199C38.4424 13.5839 38.5422 13.9199 38.667 14.3519C38.7918 14.7599 38.8667 15.1199 38.9166 15.3839C38.9915 15.0479 39.0664 14.6639 39.1912 14.2319C39.316 13.7759 39.3908 13.4879 39.4657 13.2959Z"
            fill="#373737" />
        <path d="M46.0545 16.8719H44.457V7.46387H46.0545V16.8719Z" fill="#373737" />
        <path
            d="M50.2459 13.1279V16.8959H48.6484V7.46387H51.394C52.667 7.46387 53.5905 7.67987 54.1896 8.13587C54.8136 8.59187 55.1131 9.28787 55.1131 10.1999C55.1131 11.3759 54.4891 12.2159 53.2161 12.6959L55.9617 16.8719H54.1396L51.7934 13.1039L50.2459 13.1279ZM50.2459 8.78387V11.8559H51.3691C52.0929 11.8559 52.642 11.7119 52.9915 11.4719C53.3409 11.2079 53.4907 10.8239 53.4907 10.2959C53.4907 9.76787 53.316 9.38387 52.9665 9.14387C52.6171 8.90387 52.068 8.78387 51.3192 8.78387H50.2459V8.78387Z"
            fill="#373737" />
        <path
            d="M62.9278 15.5759V16.8719H57.3867V7.46387H62.9278V8.75987H59.0091V11.3279H62.7032V12.5999H59.0091V15.5519L62.9278 15.5759Z"
            fill="#373737" />
        <path
            d="M17.1061 14.616H17.0561C16.1077 16.2 14.3355 17.28 12.2888 17.28C9.2187 17.28 6.74766 14.904 6.74766 11.976C6.74766 9.04805 9.2187 6.67205 12.2638 6.67205C14.9345 6.67205 17.1809 8.52005 17.6801 10.968H8.64462V12.816H17.5553H17.7051H19.6769C19.7019 12.552 19.7269 12.264 19.7269 11.976C19.7269 8.01605 16.3822 4.80005 12.2638 4.80005C8.14542 4.80005 4.80078 8.01605 4.80078 11.976C4.80078 15.936 8.14542 19.152 12.2638 19.152C15.0344 19.152 17.4805 17.688 18.7534 15.528L17.1061 14.616Z"
            fill="#373737" />
        <path
            d="M19.8234 3.97864C19.9227 3.75514 19.9724 3.5068 19.9724 3.25846C19.9724 2.21545 19.1281 1.39594 18.1099 1.39594C17.6132 1.39594 17.191 1.56977 16.8434 1.89261C15.3782 1.17243 13.7391 0.799927 11.9759 0.799927C5.79236 0.799927 0.800781 5.81633 0.800781 11.9999C0.800781 18.1835 5.81719 23.1999 12.0008 23.1999C18.2092 23.1999 23.2008 18.1835 23.2008 11.9999C23.2008 8.84605 21.9094 6.015 19.8234 3.97864ZM18.085 2.01678C18.7804 2.01678 19.3516 2.58795 19.3516 3.2833C19.3516 3.97864 18.7804 4.54982 18.085 4.54982C17.3897 4.54982 16.8185 3.97864 16.8185 3.2833C16.8185 2.58795 17.3897 2.01678 18.085 2.01678ZM12.0008 21.7347C6.61187 21.7347 2.26597 17.3888 2.26597 11.9999C2.26597 6.61101 6.6367 2.26512 12.0008 2.26512C13.5156 2.26512 14.956 2.61279 16.2473 3.23363C16.2473 3.25846 16.2473 3.25846 16.2473 3.2833C16.2473 4.32631 17.0917 5.14582 18.1099 5.14582C18.3334 5.14582 18.5817 5.09616 18.7804 5.02166C20.5932 6.78485 21.7356 9.26822 21.7356 12.0248C21.7356 17.3888 17.3897 21.7347 12.0008 21.7347Z"
            fill="#6ACCE5" />
    </g>
    <defs>
        <clipPath id="clip0_3008_58648">
            <rect width="62.4" height="24" fill="white" transform="translate(0.800781)" />
        </clipPath>
    </defs>
</svg>
    