<svg width="24" height="24" viewBox="0 0 24 24" fill="none" xmlns="http://www.w3.org/2000/svg">
<path d="M7.47394 12.5762C7.40334 12.5075 7.34712 12.4254 7.30859 12.3348C7.27005 12.2441 7.24996 12.1467 7.2495 12.0482C7.24877 11.8498 7.32619 11.6591 7.46502 11.5173C7.60385 11.3755 7.79292 11.2942 7.9913 11.2907L15.9963 11.2093C16.1951 11.2072 16.3866 11.2842 16.5287 11.4233C16.6707 11.5624 16.7517 11.7523 16.7538 11.9511C16.7559 12.1499 16.6789 12.3414 16.5398 12.4834C16.4006 12.6255 16.2108 12.7065 16.012 12.7085L8.00611 12.79C7.90753 12.7924 7.8095 12.7747 7.718 12.7379C7.6265 12.7012 7.54346 12.6462 7.47394 12.5762Z" fill="#2F2F3D"/>
<path d="M7.46503 11.563C7.53311 11.4919 7.6147 11.4349 7.70502 11.3956C7.79534 11.3563 7.89259 11.3354 7.99109 11.3341L15.9938 11.1815C16.19 11.1816 16.3782 11.2587 16.5182 11.3962C16.6581 11.5336 16.7386 11.7204 16.7424 11.9166C16.7461 12.1127 16.6728 12.3025 16.5382 12.4451C16.4036 12.5878 16.2184 12.672 16.0224 12.6797L8.01752 12.8311C7.81912 12.8335 7.62773 12.7577 7.48478 12.6201C7.34183 12.4825 7.25881 12.2942 7.25369 12.0958C7.25181 11.9974 7.26953 11.8997 7.30581 11.8082C7.3421 11.7167 7.39622 11.6334 7.46503 11.563Z" fill="#2F2F3D"/>
<path d="M15.0002 22.7504H9.0002C3.5702 22.7504 1.25 20.4302 1.25 15.0002V9.0002C1.25 3.5702 3.5702 1.25 9.0002 1.25H15.0002C20.4302 1.25 22.7504 3.5702 22.7504 9.0002V15.0002C22.7504 20.4302 20.4302 22.7504 15.0002 22.7504ZM9.0002 2.75C4.3898 2.75 2.75 4.3898 2.75 9.0002V15.0002C2.75 19.6106 4.3898 21.2504 9.0002 21.2504H15.0002C19.6106 21.2504 21.2504 19.6106 21.2504 15.0002V9.0002C21.2504 4.3898 19.61 2.75 15.0002 2.75H9.0002Z" fill="#2F2F3D"/>
</svg>
