<svg width="16" height="16" viewBox="0 0 16 16" fill="none" xmlns="http://www.w3.org/2000/svg">
    <g clip-path="url(#clip0_2999_59016)">
        <path d="M8.382 14.4938C8.27839 14.4938 8.17439 14.4938 8.07079 14.4878C6.41192 14.4065 4.83857 13.7274 3.64156 12.576C2.44454 11.4247 1.70479 9.87893 1.55903 8.22447C1.46162 6.81408 1.80921 5.40868 2.55281 4.2063C3.29642 3.00391 4.39856 2.06515 5.70393 1.5223C6.46715 1.2047 6.86996 1.4483 7.04076 1.62591C7.21157 1.79671 7.44957 2.19352 7.13237 2.91994C6.85179 3.5648 6.71031 4.26157 6.71715 4.96479C6.74655 6.29197 7.27952 7.55832 8.20801 8.50709C9.13651 9.45586 10.391 10.0161 11.7173 10.0741C12.1077 10.0907 12.4988 10.0639 12.8833 9.99412C13.6889 9.84771 14.0249 10.1713 14.1529 10.3785C14.2809 10.5857 14.4277 11.0317 13.9393 11.691C13.2998 12.5634 12.4629 13.2722 11.4971 13.7594C10.5312 14.2465 9.46375 14.4982 8.382 14.4938ZM2.46865 8.15767C2.57679 9.36154 3.04877 10.504 3.82184 11.4331C4.59492 12.3623 5.63248 13.0342 6.7966 13.3595C7.96073 13.6847 9.19628 13.648 10.339 13.2542C11.4818 12.8603 12.4776 12.128 13.1941 11.1545C13.2562 11.0719 13.3076 10.9817 13.3469 10.8861C13.2449 10.8759 13.1418 10.8821 13.0417 10.9045C12.5906 10.984 12.1322 11.0147 11.6745 10.9961C10.1136 10.9263 8.63763 10.2655 7.54576 9.1479C6.4539 8.03025 5.82779 6.5393 5.79433 4.97719C5.79047 4.14533 5.96093 3.32189 6.29474 2.55993C6.33618 2.47329 6.3632 2.38047 6.37475 2.28512C6.26673 2.29089 6.16094 2.31809 6.06354 2.36512C4.93498 2.83501 3.98163 3.6461 3.33701 4.6848C2.69238 5.7235 2.38875 6.93781 2.46865 8.15767Z" fill="#2F2F3D" />
    </g>
    <defs>
        <clipPath id="clip0_2999_59016">
            <rect width="16" height="16" fill="white" />
        </clipPath>
    </defs>
</svg>
    