<svg width="24" height="25" viewBox="0 0 24 25" fill="none" xmlns="http://www.w3.org/2000/svg">
    <path
        d="M12.0204 19.4783C9.77059 19.4806 7.53519 19.1193 5.40061 18.4085C5.01666 18.2878 4.66482 18.0822 4.37118 17.807C4.07754 17.5317 3.84965 17.1939 3.70441 16.8185C3.56891 16.4418 3.52213 16.0389 3.56771 15.6412C3.61329 15.2435 3.75 14.8616 3.96721 14.5253L5.07541 12.6845C5.33761 12.1864 5.48888 11.6374 5.51881 11.0753L5.80801 8.29071C5.80561 4.70571 8.43601 2.39331 12.0204 2.39331C15.6048 2.39331 18.2358 4.70571 18.2358 8.29071L18.525 11.0753C18.5573 11.6405 18.7084 12.1925 18.9684 12.6953L20.067 14.5259C20.2714 14.8681 20.3965 15.2516 20.4331 15.6485C20.4698 16.0453 20.417 16.4453 20.2788 16.8191C20.1424 17.1915 19.9232 17.5281 19.6378 17.8036C19.3524 18.079 19.0083 18.286 18.6312 18.4091C16.4999 19.1205 14.2673 19.4816 12.0204 19.4783Z"
        fill="#15C0AB" />
    <path
        d="M11.9929 20.1725C12.2789 20.1725 12.5584 20.2573 12.7962 20.4162C13.034 20.5751 13.2194 20.8009 13.3288 21.0651C13.4382 21.3293 13.4669 21.6201 13.4111 21.9006C13.3553 22.1811 13.2176 22.4387 13.0154 22.641C12.8131 22.8432 12.5555 22.9809 12.275 23.0367C11.9945 23.0925 11.7037 23.0639 11.4395 22.9544C11.1753 22.845 10.9495 22.6596 10.7906 22.4218C10.6317 22.184 10.5469 21.9045 10.5469 21.6185C10.5469 21.235 10.6992 20.8672 10.9704 20.596C11.2416 20.3248 11.6094 20.1725 11.9929 20.1725Z"
        fill="#15C0AB" />
</svg>
    