<svg width="16" height="16" viewBox="0 0 16 16" fill="none" xmlns="http://www.w3.org/2000/svg">
    <g clip-path="url(#clip0_2999_59777)">
        <path
            d="M11.0524 13.5733C10.4256 13.5608 9.80773 13.4229 9.23514 13.1676C8.55498 12.873 7.91023 12.5027 7.31278 12.064C7.10677 11.9092 6.9014 11.7552 6.70259 11.5924L5.76075 10.7523C5.72691 10.7312 5.69526 10.7065 5.6666 10.6787C5.6058 10.6175 5.54303 10.5627 5.48183 10.5019C4.91791 9.9347 4.39787 9.32557 3.92589 8.67982C3.49275 8.08855 3.12526 7.45184 2.83013 6.78094C2.58242 6.20469 2.44836 5.58594 2.43558 4.95883C2.43374 4.591 2.5016 4.22615 2.63559 3.88358C2.77909 3.53008 2.99886 3.21256 3.27899 2.95356C3.42738 2.79354 3.60599 2.66475 3.80479 2.57473C4.00399 2.48533 4.21898 2.43638 4.43725 2.43073C4.59372 2.429 4.74844 2.46321 4.88961 2.53073C5.04075 2.59846 5.17069 2.70619 5.26502 2.84232L6.55649 4.66282C6.64657 4.78292 6.72154 4.91381 6.77916 5.05244C6.82826 5.15972 6.85554 5.27574 6.85924 5.39367C6.85622 5.53332 6.81522 5.66956 6.74127 5.78807C6.65503 5.93246 6.55068 6.06502 6.43031 6.18248L6.00725 6.62254C5.97743 6.65162 5.9535 6.68606 5.93654 6.7241C5.92196 6.76308 5.91512 6.80453 5.91623 6.84613C5.91491 6.88906 5.92071 6.93192 5.93341 6.97295C5.94942 7.01975 5.96836 7.05294 5.97756 7.08574C6.12795 7.33915 6.30133 7.57819 6.49555 7.79979C6.74757 8.08781 7.01536 8.3838 7.30458 8.67982C7.34698 8.72262 7.39263 8.76502 7.43583 8.80702L8.52065 9.76146C8.64415 9.85322 8.77354 9.93662 8.90817 10.0111C8.94097 10.0235 8.97288 10.0407 9.01208 10.0567C9.05669 10.0727 9.10378 10.0802 9.15115 10.0787C9.19375 10.0804 9.23599 10.0723 9.27499 10.0551C9.31491 10.0401 9.35107 10.016 9.38007 9.98467L9.80431 9.56668C9.92193 9.44362 10.0567 9.3381 10.2043 9.25343C10.3232 9.17797 10.4612 9.13778 10.602 9.13746C10.7195 9.13869 10.8358 9.16314 10.9438 9.20943C11.0807 9.2677 11.2107 9.34069 11.3317 9.42707L13.1807 10.7359C13.3138 10.824 13.4194 10.9476 13.4857 11.0927C13.5443 11.2298 13.5746 11.3773 13.5752 11.5263C13.5756 11.6884 13.5464 11.8493 13.4889 12.0008C13.4759 12.0472 13.4576 12.0919 13.4342 12.134C13.3369 12.3414 13.2097 12.5334 13.0568 12.704C12.805 12.9883 12.493 13.2124 12.1431 13.36C12.1367 13.36 12.1304 13.3649 12.124 13.3649C11.7882 13.5014 11.4293 13.5716 11.0669 13.5717L11.0524 13.5733Z"
            fill="#EFF1F8" />
    </g>
    <defs>
        <clipPath id="clip0_2999_59777">
            <rect width="16" height="16" fill="white" />
        </clipPath>
    </defs>
</svg>
    