<svg width="24" height="25" viewBox="0 0 24 25" fill="none" xmlns="http://www.w3.org/2000/svg">
    <path
        d="M14.3622 23.0459C14.0088 23.0452 13.659 22.9757 13.3321 22.8413C13.1355 22.7599 12.9471 22.6594 12.7702 22.5413C12.5629 22.4029 12.3688 22.2458 12.1901 22.0721C11.9774 21.8647 11.7807 21.6412 11.6024 21.4036C11.3891 21.1176 11.1944 20.8184 11.0188 20.5079C10.8089 20.1341 10.6191 19.7492 10.4504 19.3551C10.2596 18.9159 10.0771 18.4318 9.90606 17.9152C9.86631 17.8191 9.84557 17.716 9.84571 17.6121C9.84564 17.5411 9.85505 17.4706 9.87384 17.4022C9.89171 17.3356 9.91805 17.2716 9.95235 17.2119L14.4525 12.7118C14.8049 12.3592 15.0033 11.8813 15.0033 11.3828C15.0033 10.8844 14.8049 10.4063 14.4525 10.0537C14.2784 9.87863 14.0712 9.73977 13.8431 9.64532C13.6149 9.55088 13.3704 9.50271 13.1235 9.50352C12.8766 9.50285 12.6321 9.55118 12.404 9.64562C12.1759 9.74006 11.9688 9.87873 11.7946 10.0537L7.19486 14.6535C7.06855 14.7313 6.92311 14.7728 6.77474 14.7734C6.67779 14.7735 6.58185 14.7561 6.49114 14.7219H6.48762C6.48344 14.7225 6.47891 14.7225 6.47473 14.7219C6.09612 14.5875 5.73203 14.4452 5.39482 14.2982C5.0018 14.1289 4.61804 13.9389 4.24518 13.7288C3.93489 13.5539 3.63612 13.3592 3.35102 13.1457C3.11396 12.9676 2.89147 12.7714 2.68479 12.5588C2.51134 12.3802 2.35434 12.1862 2.21603 11.9792C2.09739 11.8023 1.99688 11.614 1.91602 11.417C1.7814 11.0903 1.71182 10.7406 1.71094 10.3873C1.71205 10.0354 1.78163 9.68709 1.91602 9.36187C1.99697 9.1649 2.09747 8.97655 2.21603 8.79965C2.35411 8.59191 2.51112 8.3973 2.68479 8.21824C2.89134 8.0048 3.11383 7.80784 3.35102 7.62906C3.63595 7.41424 3.93474 7.2182 4.24518 7.04223C4.61789 6.83085 5.00166 6.63953 5.39482 6.46917C5.83403 6.27777 6.31617 6.09308 6.83099 5.92028L15.9021 2.89618C16.6931 2.61776 17.5241 2.46841 18.3625 2.45393C18.9085 2.4475 19.4513 2.53794 19.9657 2.72098C20.4381 2.89204 20.8677 3.16322 21.2255 3.51597C21.5158 3.80481 21.752 4.14339 21.9228 4.51561C22.0997 4.91032 22.2146 5.33013 22.2626 5.76002C22.315 6.24327 22.3079 6.73106 22.2415 7.2126C22.1655 7.76536 22.0365 8.3095 21.856 8.83744L18.8325 17.9103C18.6603 18.4263 18.4724 18.9117 18.284 19.3503C18.114 19.7454 17.9231 20.1311 17.7121 20.5059C17.537 20.8184 17.3412 21.1191 17.1268 21.406C16.9481 21.6438 16.7518 21.8677 16.539 22.0756C16.3598 22.2496 16.1654 22.4072 15.9578 22.5461C15.7808 22.6645 15.5922 22.765 15.3953 22.8461C15.0672 22.9794 14.7164 23.0473 14.3622 23.0459V23.0459Z"
        fill="#FBB03B" />
</svg>
    