<svg width="24" height="25" viewBox="0 0 24 25" fill="none" xmlns="http://www.w3.org/2000/svg">
    <path
        d="M14.8266 22.89H8.98749C3.69882 22.89 1.44141 20.6321 1.44141 15.3406V9.49588C1.44141 4.20435 3.69882 1.94647 8.98749 1.94647H14.8266C20.1153 1.94647 22.3727 4.20435 22.3727 9.49588V15.3406C22.3727 20.6327 20.1153 22.89 14.8266 22.89ZM6.31079 16.1176C6.79839 16.446 7.33157 16.7008 7.89349 16.8736C8.45435 17.0459 9.0377 17.1333 9.62443 17.1329C9.71504 17.1329 9.80466 17.1329 9.89046 17.1269C10.3412 17.1222 10.7906 17.0747 11.2323 16.9852C11.8187 16.8477 12.3846 16.6349 12.9164 16.3523C13.4496 16.0713 13.9433 15.7208 14.3842 15.31C14.7159 14.9914 15.0105 14.6363 15.2626 14.2516C15.514 13.8661 15.7217 13.4537 15.8814 13.0221C16.0553 12.5628 16.1821 12.0869 16.2599 11.6019C16.3383 11.1169 16.3668 10.6251 16.3455 10.1343C16.5782 9.94924 16.7931 9.74268 16.9871 9.51741C17.1808 9.29095 17.3532 9.04741 17.5028 8.78966C17.11 8.99985 16.6787 9.12729 16.2347 9.16408C16.4242 9.0123 16.5998 8.84375 16.7592 8.66061C16.8638 8.54018 16.9547 8.40833 17.0299 8.26758C17.0773 8.18454 17.1127 8.09533 17.1354 8.00243C17.1452 7.96318 17.1501 7.92293 17.1506 7.88246C16.7196 8.21436 16.1943 8.40071 15.6505 8.41465H15.6148C15.5068 8.3083 15.3893 8.21209 15.2638 8.12724C15.1368 8.04393 15.0018 7.9737 14.8606 7.91776C14.7277 7.86233 14.5891 7.82102 14.4475 7.79427C14.3059 7.76552 14.1619 7.75104 14.0174 7.75106H13.9952H13.977C13.8262 7.75489 13.6766 7.7734 13.5293 7.80629C13.3831 7.83997 13.2399 7.88748 13.1027 7.94838C12.9663 8.00934 12.8366 8.08377 12.7148 8.17046C12.591 8.2578 12.4757 8.35681 12.3709 8.46622C12.2676 8.57682 12.1755 8.69747 12.096 8.82628C12.0157 8.9523 11.948 9.08598 11.8939 9.22532C11.8404 9.36524 11.8001 9.50986 11.7738 9.65731C11.747 9.80655 11.7363 9.95814 11.7415 10.1097C11.7433 10.3035 11.77 10.4964 11.8212 10.6833C11.7612 10.6899 11.7011 10.6918 11.6507 10.6936H11.6466C11.6286 10.6925 11.6107 10.6925 11.5927 10.6936C10.4128 10.6593 9.27372 10.2552 8.33589 9.53851C7.84488 9.19419 7.39357 8.79631 6.99051 8.35225C6.88387 8.5351 6.80486 8.73264 6.75554 8.93849C6.70459 9.14406 6.68161 9.35551 6.68757 9.56722C6.69811 9.73756 6.72643 9.90638 6.77253 10.0707C6.81813 10.2354 6.88156 10.3947 6.96121 10.5459C7.04866 10.7147 7.15094 10.8754 7.26709 11.0259C7.38315 11.1749 7.51201 11.3133 7.65266 11.4393C7.61848 11.4448 7.5841 11.4482 7.54952 11.4496H7.54249C7.25267 11.4296 6.97412 11.3298 6.73737 11.1614C6.73337 11.3675 6.75422 11.5732 6.80007 11.7741C6.84964 11.9735 6.92214 12.1667 7.01571 12.3496C7.09133 12.4866 7.18099 12.6154 7.28291 12.7341C7.38593 12.8507 7.50055 12.9561 7.6257 13.0485C7.75855 13.146 7.90043 13.2307 8.04935 13.3012C8.19818 13.3712 8.35406 13.4257 8.51403 13.4638C8.37527 13.5234 8.22558 13.5542 8.07455 13.5543H8.03529H8.01302C7.86746 13.5538 7.72245 13.54 7.57941 13.513H7.57414C7.64178 13.7364 7.74536 13.9475 7.88001 14.1382C8.01231 14.3294 8.17425 14.4981 8.35992 14.6381C8.54483 14.7793 8.75154 14.889 8.97225 14.9627C9.19254 15.0392 9.42407 15.0797 9.65725 15.0826C9.31812 15.4388 8.90599 15.7179 8.44957 15.9011C8.03161 16.0707 7.58515 16.1579 7.13407 16.1579C7.09447 16.1579 7.05475 16.1579 7.01395 16.1579H6.91082C6.71018 16.1577 6.50976 16.1447 6.31079 16.1189V16.1176Z"
        fill="#00ACEE" />
</svg>
    