<svg width="24" height="25" viewBox="0 0 24 25" fill="none" xmlns="http://www.w3.org/2000/svg">
    <g clip-path="url(#clip0_2980_60080)">
        <path
            d="M16.6593 20.1862C16.6239 20.077 16.6647 19.9863 16.7601 19.8057C16.8753 19.5885 16.9902 19.3449 17.1006 19.0815C17.1228 19.0275 17.1452 18.9705 17.1674 18.9117C17.2232 18.7743 17.2792 18.6273 17.3338 18.4743C17.5323 17.8734 17.6426 17.2468 17.6613 16.6142V16.6059C17.6739 16.3058 17.6763 15.8366 17.6613 15.332C17.6681 15.1287 17.6268 14.9267 17.5412 14.7422C17.4794 14.5489 17.3524 14.3831 17.1814 14.2736C16.8876 14.0843 16.5571 13.9589 16.2117 13.9058C15.9483 13.8572 15.9494 13.8859 15.815 13.8145C15.7776 13.7963 15.7453 13.7691 15.7212 13.7353C15.6971 13.7014 15.6822 13.662 15.6773 13.6207C15.6755 13.5827 15.6832 13.5448 15.7001 13.5107C15.717 13.4766 15.7426 13.4474 15.774 13.4257C15.8736 13.3748 15.9864 13.3552 16.0974 13.3693C17.4846 13.3585 17.5901 13.3298 18.6527 13.3316C19.8108 13.3316 20.3104 13.3808 20.3104 13.3808C20.6689 13.4398 20.9936 13.628 21.2227 13.9099C21.3486 14.0801 21.4367 14.2751 21.4817 14.4819C21.5267 14.6888 21.5273 14.9028 21.4835 15.1099V15.1167C21.4607 15.6194 21.3661 16.1163 21.2022 16.5921C20.8068 17.6907 20.081 18.6399 19.1244 19.3094C18.81 19.5302 18.4742 19.7185 18.1219 19.8717L17.6654 20.0517L17.189 20.1843L16.9019 20.2407C16.9019 20.2407 16.6947 20.2935 16.6617 20.1843L16.6593 20.1862ZM13.8087 10.1377C13.7547 9.99787 13.8208 9.91141 13.9018 9.80881C14.001 9.68253 14.092 9.55012 14.1743 9.41227C14.332 9.1485 14.4623 8.86951 14.564 8.57948C14.7677 7.99993 14.8725 7.39009 14.8734 6.77578C14.8675 5.97527 14.6792 5.18662 14.3226 4.46991C14.2865 4.42108 14.2629 4.36414 14.254 4.30408C14.2451 4.24402 14.2512 4.1827 14.2716 4.12552C14.3232 3.98511 14.3788 3.96049 14.5288 3.90769C14.7816 3.82083 15.0431 3.76208 15.3087 3.73249C15.3087 3.73249 15.3086 3.73249 15.3128 3.73249C15.317 3.73249 15.3127 3.73249 15.3169 3.73249C15.448 3.71811 15.58 3.71097 15.7119 3.71095C16.1749 3.70953 16.634 3.79997 17.0619 3.97712C17.4897 4.15428 17.878 4.4146 18.2045 4.74296C18.5327 5.0696 18.7926 5.45804 18.9697 5.88586C19.1469 6.31368 19.2376 6.77242 19.2364 7.23546C19.2376 7.69832 19.1469 8.15684 18.9697 8.58446C18.7926 9.01209 18.5327 9.40025 18.2045 9.72663C17.995 9.93632 17.7601 10.1191 17.5055 10.2708C16.9646 10.5868 16.3494 10.7526 15.723 10.7509C15.165 10.7515 14.6144 10.6194 14.1175 10.3656C13.9603 10.2882 13.8627 10.2781 13.8087 10.1377Z"
            fill="#4B4DED" />
        <path
            d="M10.0209 23.119H9.759C8.30297 23.1209 6.88187 22.6721 5.69132 21.8338C4.49775 20.9993 3.59257 19.8153 3.09965 18.4448C2.89481 17.8515 2.77661 17.2317 2.74867 16.6046V16.595C2.69318 16.3364 2.69312 16.069 2.74867 15.8104C2.80421 15.5518 2.91357 15.3079 3.07035 15.0949C3.35713 14.7432 3.76282 14.5086 4.21062 14.435L5.19209 14.3821H14.5943L15.5757 14.435C16.0237 14.5081 16.429 14.7428 16.7154 15.0949C16.8724 15.3079 16.9828 15.5517 17.0389 15.8102C17.0949 16.0688 17.0953 16.3362 17.0406 16.595V16.6035C17.0121 17.2305 16.8941 17.8501 16.6902 18.4437C16.1968 19.8141 15.2918 20.9984 14.0986 21.8338C12.9051 22.6734 11.4801 23.1223 10.0209 23.119ZM9.83341 11.1673C9.25598 11.1689 8.68398 11.0558 8.15056 10.8346C7.61714 10.6135 7.13309 10.2887 6.72611 9.87909C6.3166 9.47204 5.99145 8.98776 5.77042 8.45435C5.54939 7.92094 5.4366 7.34903 5.43819 6.77164C5.43662 6.19399 5.54999 5.62175 5.77101 5.08805C5.99203 4.55435 6.3166 4.0697 6.72611 3.66228C7.13303 3.25262 7.61712 2.92793 8.15056 2.70689C8.684 2.48585 9.256 2.37287 9.83341 2.37465C10.4112 2.37291 10.9836 2.48586 11.5174 2.70689C12.0513 2.92792 12.5356 3.25263 12.9431 3.66228C13.3524 4.06981 13.6773 4.55451 13.8982 5.0882C14.1191 5.62188 14.2319 6.19404 14.2304 6.77164C14.232 7.34898 14.1191 7.9208 13.8982 8.4542C13.6772 8.9876 13.3524 9.47196 12.9431 9.87909C12.5355 10.2888 12.0508 10.6137 11.5169 10.8348C10.9829 11.0559 10.4107 11.1689 9.83283 11.1673H9.83341Z"
            fill="#3869FF" />
    </g>
    <defs>
        <clipPath id="clip0_2980_60080">
            <rect width="24" height="24" fill="white" transform="translate(0 0.747437)" />
        </clipPath>
    </defs>
</svg>
    