<svg width="18" height="18" viewBox="0 0 18 18" fill="none" xmlns="http://www.w3.org/2000/svg">
    <g clip-path="url(#clip0_996_63706)">
        <path d="M9.11652 16.7769H8.92009C7.82823 16.7783 6.76258 16.4416 5.86984 15.813C4.97474 15.1872 4.29544 14.2995 3.9257 13.2718C3.77242 12.8268 3.68392 12.362 3.66291 11.8917V11.8845C3.62106 11.6905 3.62124 11.4899 3.66291 11.2959C3.70457 11.102 3.78682 10.9191 3.90461 10.7595C4.11968 10.4957 4.42394 10.3196 4.75978 10.2644L5.49587 10.2249H12.5465L13.2817 10.2644C13.6176 10.3193 13.922 10.4954 14.1368 10.7595C14.2548 10.9191 14.3374 11.1019 14.3794 11.2958C14.4214 11.4898 14.4217 11.6904 14.3803 11.8845V11.8907C14.3589 12.361 14.2704 12.8258 14.1175 13.271C13.7476 14.2986 13.0685 15.1865 12.1738 15.813C11.2788 16.4426 10.2108 16.7794 9.11652 16.7769V16.7769ZM6.29831 11.2468L5.73053 11.2739C5.47848 11.3087 5.24611 11.4292 5.07223 11.615C4.98282 11.7206 4.91914 11.8457 4.88678 11.9803C4.85443 12.1148 4.85428 12.2551 4.88591 12.3898V12.3935C4.90194 12.7189 4.96996 13.0396 5.08805 13.3434C5.4224 14.0795 5.96634 14.7008 6.65163 15.1297C7.33692 15.5587 8.13342 15.7763 8.94162 15.7554H9.09455C9.90283 15.7767 10.6996 15.5593 11.385 15.1303C12.0703 14.7013 12.6141 14.0797 12.9481 13.3434C13.0658 13.0395 13.1336 12.7189 13.1498 12.3935V12.389C13.1814 12.2543 13.1811 12.1141 13.1485 11.9796C13.1159 11.8452 13.0519 11.7203 12.9622 11.615C12.7888 11.4286 12.5562 11.308 12.3039 11.2739L11.7361 11.2468H6.29831ZM8.97546 7.8147C8.54246 7.81583 8.11332 7.73094 7.71335 7.56509C7.31337 7.39925 6.95063 7.15575 6.64548 6.84856C6.33839 6.54336 6.09449 6.18022 5.92873 5.78025C5.76296 5.38028 5.6784 4.95143 5.67956 4.51847C5.67842 4.08532 5.76297 3.65622 5.92873 3.25604C6.09449 2.85585 6.33839 2.49244 6.64548 2.18696C6.95062 1.87981 7.31335 1.63634 7.71335 1.47065C8.11334 1.30495 8.5425 1.22031 8.97546 1.2217C9.40868 1.22032 9.83772 1.30496 10.238 1.47065C10.6383 1.63634 11.0017 1.87979 11.3072 2.18696C11.6141 2.49257 11.8574 2.85598 12.0231 3.25615C12.1887 3.65631 12.2737 4.08537 12.2727 4.51847C12.2737 4.95138 12.1887 5.3802 12.0231 5.78014C11.8574 6.18009 11.6141 6.54323 11.3072 6.84856C11.0017 7.15575 10.6383 7.39926 10.238 7.56509C9.83774 7.73093 9.40871 7.81579 8.97546 7.8147ZM8.97546 2.23464C8.37082 2.23547 7.791 2.47608 7.36354 2.9037C6.93609 3.33133 6.69573 3.91109 6.69513 4.51573C6.69585 5.12032 6.93655 5.69993 7.36398 6.12753C7.79141 6.55513 8.37086 6.79587 8.97546 6.79682C9.58025 6.7961 10.1601 6.55547 10.5878 6.12786C11.0155 5.70025 11.2558 5.12052 11.2567 4.51573C11.2552 3.91132 11.0146 3.33215 10.5869 2.90502C10.1593 2.4779 9.57986 2.23766 8.97546 2.23694V2.23464Z" fill="#9496B3" />
    </g>
    <defs>
        <clipPath id="clip0_996_63706">
            <rect width="18" height="18" fill="white" />
        </clipPath>
    </defs>
</svg>
    