<svg width="18" height="18" viewBox="0 0 18 18" fill="none" xmlns="http://www.w3.org/2000/svg">
    <g clip-path="url(#clip0_930_32648)">
        <path d="M7.15175 15.6095C3.81168 15.6095 2.38477 14.182 2.38477 10.842V7.15181C2.38477 3.81175 3.81168 2.38428 7.15175 2.38428H10.842C14.1821 2.38428 15.609 3.81175 15.609 7.15181V10.842C15.609 14.182 14.1821 15.6095 10.842 15.6095H7.15175ZM3.30722 7.15225V10.8424C3.30722 13.6776 4.31616 14.6869 7.15175 14.6869H10.842C13.6772 14.6869 14.687 13.678 14.687 10.8424V7.15225C14.687 4.31711 13.6781 3.30772 10.842 3.30772H7.15175C4.31616 3.30772 3.30722 4.31666 3.30722 7.15225ZM10.8737 13.3203C10.7879 13.2336 10.7395 13.1168 10.7387 12.9949V10.5967C10.7394 10.4748 10.7878 10.3579 10.8737 10.2713C10.9604 10.1853 11.0772 10.137 11.1993 10.1364C11.3212 10.1372 11.4378 10.1856 11.5245 10.2713C11.6107 10.3577 11.6596 10.4747 11.6599 10.5967V12.9949C11.6594 13.1168 11.6105 13.2338 11.5245 13.3203C11.4378 13.406 11.3212 13.4545 11.1993 13.4553C11.0772 13.4548 10.9604 13.4063 10.8737 13.3203ZM6.47013 13.3203C6.38439 13.2336 6.33602 13.1168 6.33521 12.9949V12.2042C6.09156 12.1479 5.85978 12.0481 5.65138 11.9099C5.31314 11.683 5.04956 11.3613 4.89329 10.9851C4.73745 10.6082 4.69612 10.1935 4.77507 9.79339C4.85491 9.39377 5.05167 9.02673 5.3398 8.73854C5.62813 8.45053 5.99524 8.25448 6.39498 8.17513C6.7948 8.09622 7.20881 8.13707 7.58551 8.29258C7.96192 8.44865 8.28401 8.71267 8.51061 9.05133C8.73687 9.39011 8.85739 9.78834 8.85735 10.1957C8.85758 10.4664 8.80454 10.7345 8.7009 10.9846C8.59726 11.2346 8.44516 11.4618 8.25352 11.6529C7.9802 11.9265 7.6354 12.1176 7.25854 12.2042V12.9949C7.25861 13.0556 7.24647 13.1158 7.22295 13.1717C7.2004 13.2278 7.16668 13.2787 7.12363 13.3212C7.0807 13.3641 7.02978 13.3981 6.97376 13.4215C6.91764 13.445 6.85709 13.457 6.79622 13.4566C6.67373 13.456 6.55662 13.407 6.47013 13.3203ZM6.16249 9.25075C5.97536 9.37551 5.82957 9.55286 5.74323 9.76054C5.6569 9.96873 5.6344 10.1979 5.67819 10.419C5.7228 10.6394 5.83081 10.8418 5.98934 11.0013C6.14876 11.16 6.35147 11.268 6.57208 11.3118C6.79293 11.3559 7.02186 11.3335 7.22998 11.2475C7.43771 11.1611 7.6156 11.0151 7.74065 10.828C7.86573 10.6407 7.93235 10.4205 7.93226 10.1953C7.93241 9.89373 7.81267 9.60453 7.59958 9.39116C7.3859 9.17793 7.09633 9.05817 6.79446 9.05815C6.57013 9.05843 6.35122 9.12547 6.16513 9.25075H6.16249ZM10.054 9.51124C9.71511 9.28463 9.45114 8.9627 9.29507 8.58604C9.13914 8.20959 9.09809 7.79533 9.17773 7.39572C9.25714 6.99614 9.45319 6.62906 9.74114 6.34087C10.0147 6.0674 10.3596 5.87633 10.7366 5.78955V4.99893C10.7374 4.87743 10.7863 4.76112 10.8719 4.67493C10.9586 4.58896 11.0755 4.54046 11.1976 4.5399C11.3195 4.54072 11.4361 4.58919 11.5228 4.67493C11.6087 4.76095 11.6575 4.87737 11.6581 4.99893V5.78955C11.77 5.81533 11.8794 5.85033 11.9855 5.89404C12.3619 6.05036 12.6836 6.3142 12.9106 6.65268C13.1368 6.99198 13.2576 7.39074 13.2574 7.7985C13.2574 8.34437 13.0409 8.8679 12.6553 9.25426C12.4639 9.44576 12.2365 9.59769 11.9864 9.70132C11.7363 9.80494 11.4683 9.85825 11.1976 9.85821C10.7906 9.85774 10.3929 9.73687 10.0545 9.51081L10.054 9.51124ZM10.566 6.85165C10.3795 6.97696 10.234 7.15426 10.1472 7.36155C10.0619 7.57 10.0397 7.79885 10.0831 8.01989C10.1269 8.24027 10.2345 8.44281 10.3929 8.60219C10.5529 8.76145 10.7564 8.86986 10.9778 8.91367C11.1985 8.95737 11.4271 8.93466 11.6348 8.84841C11.8434 8.76297 12.0218 8.61679 12.1464 8.42893C12.2708 8.24234 12.3372 8.0232 12.3376 7.79894C12.3377 7.64951 12.3081 7.50149 12.251 7.36342C12.1938 7.22535 12.1101 7.0999 12.0044 6.99426C11.7912 6.7808 11.5019 6.66072 11.2002 6.66037C10.9748 6.66019 10.7543 6.7266 10.5665 6.85121L10.566 6.85165ZM6.471 7.72335C6.38551 7.63651 6.33719 7.51978 6.33609 7.39792V4.99893C6.33702 4.87744 6.38539 4.76114 6.471 4.67493C6.55738 4.58902 6.67395 4.5405 6.79578 4.5399C6.91811 4.54065 7.03557 4.58911 7.12275 4.67493C7.20849 4.76106 7.25688 4.87741 7.25767 4.99893V7.39792C7.25777 7.4588 7.24564 7.51911 7.22207 7.57525C7.19955 7.63136 7.16583 7.68224 7.12275 7.72467C7.07972 7.76746 7.02883 7.8016 6.97289 7.82509C6.91649 7.84758 6.85606 7.85902 6.79534 7.85882C6.73482 7.85873 6.67495 7.84665 6.61911 7.82333C6.56327 7.80001 6.51272 7.76589 6.47013 7.72291L6.471 7.72335Z" fill="#EFF1F8" />
    </g>
    <defs>
        <clipPath id="clip0_930_32648">
            <rect width="18" height="18" fill="white" />
        </clipPath>
    </defs>
</svg>
    