<svg width="18" height="18" viewBox="0 0 18 18" fill="none" xmlns="http://www.w3.org/2000/svg">
    <g clip-path="url(#clip0_796_37338)">
        <g clip-path="url(#clip1_796_37338)">
            <path d="M7.15126 15.6095C3.8112 15.6095 2.38428 14.182 2.38428 10.842V7.15181C2.38428 3.81175 3.8112 2.38428 7.15126 2.38428H10.8415C14.1816 2.38428 15.6085 3.81175 15.6085 7.15181V10.842C15.6085 14.182 14.1816 15.6095 10.8415 15.6095H7.15126ZM3.30674 7.15225V10.8424C3.30674 13.6776 4.31567 14.6869 7.15126 14.6869H10.8415C13.6767 14.6869 14.6865 13.678 14.6865 10.8424V7.15225C14.6865 4.31711 13.6776 3.30772 10.8415 3.30772H7.15126C4.31567 3.30772 3.30674 4.31666 3.30674 7.15225ZM10.8732 13.3203C10.7874 13.2336 10.739 13.1168 10.7383 12.9949V10.5967C10.7389 10.4748 10.7873 10.3579 10.8732 10.2713C10.9599 10.1853 11.0767 10.137 11.1988 10.1364C11.3207 10.1372 11.4374 10.1856 11.524 10.2713C11.6102 10.3577 11.6591 10.4747 11.6594 10.5967V12.9949C11.6589 13.1168 11.61 13.2338 11.524 13.3203C11.4374 13.406 11.3207 13.4545 11.1988 13.4553C11.0767 13.4548 10.9599 13.4063 10.8732 13.3203ZM6.46964 13.3203C6.3839 13.2336 6.33554 13.1168 6.33472 12.9949V12.2042C6.09107 12.1479 5.85929 12.0481 5.6509 11.9099C5.31265 11.683 5.04908 11.3613 4.8928 10.9851C4.73696 10.6082 4.69563 10.1935 4.77458 9.79339C4.85442 9.39377 5.05118 9.02673 5.33931 8.73854C5.62764 8.45053 5.99475 8.25448 6.39449 8.17513C6.79432 8.09622 7.20832 8.13707 7.58503 8.29258C7.96143 8.44865 8.28352 8.71267 8.51012 9.05133C8.73638 9.39011 8.8569 9.78834 8.85687 10.1957C8.8571 10.4664 8.80405 10.7345 8.70041 10.9846C8.59677 11.2346 8.44467 11.4618 8.25303 11.6529C7.97971 11.9265 7.63491 12.1176 7.25806 12.2042V12.9949C7.25812 13.0556 7.24598 13.1158 7.22246 13.1717C7.19991 13.2278 7.16619 13.2787 7.12314 13.3212C7.08021 13.3641 7.0293 13.3981 6.97328 13.4215C6.91716 13.445 6.8566 13.457 6.79573 13.4566C6.67324 13.456 6.55613 13.407 6.46964 13.3203ZM6.16201 9.25075C5.97487 9.37551 5.82908 9.55286 5.74275 9.76054C5.65641 9.96873 5.63391 10.1979 5.6777 10.419C5.72231 10.6394 5.83032 10.8418 5.98885 11.0013C6.14827 11.16 6.35098 11.268 6.5716 11.3118C6.79244 11.3559 7.02137 11.3335 7.22949 11.2475C7.43722 11.1611 7.61512 11.0151 7.74016 10.828C7.86524 10.6407 7.93186 10.4205 7.93177 10.1953C7.93192 9.89373 7.81218 9.60453 7.59909 9.39116C7.38541 9.17793 7.09584 9.05817 6.79397 9.05815C6.56964 9.05843 6.35073 9.12547 6.16464 9.25075H6.16201ZM10.0536 9.51124C9.71462 9.28463 9.45065 8.9627 9.29458 8.58604C9.13865 8.20959 9.0976 7.79533 9.17724 7.39572C9.25665 6.99614 9.4527 6.62906 9.74065 6.34087C10.0142 6.0674 10.3591 5.87633 10.7361 5.78955V4.99893C10.7369 4.87743 10.7858 4.76112 10.8714 4.67493C10.9581 4.58896 11.075 4.54046 11.1971 4.5399C11.319 4.54072 11.4356 4.58919 11.5223 4.67493C11.6082 4.76095 11.657 4.87737 11.6576 4.99893V5.78955C11.7695 5.81533 11.8789 5.85033 11.9851 5.89404C12.3614 6.05036 12.6831 6.3142 12.9101 6.65268C13.1363 6.99198 13.2571 7.39074 13.2569 7.7985C13.2569 8.34437 13.0404 8.8679 12.6548 9.25426C12.4634 9.44576 12.236 9.59769 11.9859 9.70132C11.7358 9.80494 11.4678 9.85825 11.1971 9.85821C10.7901 9.85774 10.3924 9.73687 10.054 9.51081L10.0536 9.51124ZM10.5655 6.85165C10.379 6.97696 10.2335 7.15426 10.1467 7.36155C10.0614 7.57 10.0392 7.79885 10.0826 8.01989C10.1264 8.24027 10.234 8.44281 10.3924 8.60219C10.5524 8.76145 10.7559 8.86986 10.9773 8.91367C11.198 8.95737 11.4266 8.93466 11.6343 8.84841C11.8429 8.76297 12.0214 8.61679 12.1459 8.42893C12.2703 8.24234 12.3368 8.0232 12.3371 7.79894C12.3372 7.64951 12.3076 7.50149 12.2505 7.36342C12.1933 7.22535 12.1096 7.0999 12.0039 6.99426C11.7907 6.7808 11.5014 6.66072 11.1997 6.66037C10.9743 6.66019 10.7538 6.7266 10.566 6.85121L10.5655 6.85165ZM6.47052 7.72335C6.38502 7.63651 6.3367 7.51978 6.3356 7.39792V4.99893C6.33653 4.87744 6.3849 4.76114 6.47052 4.67493C6.5569 4.58902 6.67346 4.5405 6.79529 4.5399C6.91762 4.54065 7.03508 4.58911 7.12226 4.67493C7.208 4.76106 7.25639 4.87741 7.25718 4.99893V7.39792C7.25729 7.4588 7.24515 7.51911 7.22158 7.57525C7.19907 7.63136 7.16534 7.68224 7.12226 7.72467C7.07923 7.76746 7.02835 7.8016 6.9724 7.82509C6.916 7.84758 6.85557 7.85902 6.79485 7.85882C6.73433 7.85873 6.67446 7.84665 6.61862 7.82333C6.56278 7.80001 6.51224 7.76589 6.46964 7.72291L6.47052 7.72335Z" fill="#2F2F3D" />
        </g>
    </g>
    <defs>
        <clipPath id="clip0_796_37338">
            <rect width="18" height="18" fill="white" />
        </clipPath>
        <clipPath id="clip1_796_37338">
            <rect width="18" height="18" fill="white" />
        </clipPath>
    </defs>
</svg>
    