<svg width="18" height="19" viewBox="0 0 18 19" fill="none" xmlns="http://www.w3.org/2000/svg">
    <path d="M8.99884 17.2072C7.46472 17.2072 5.96505 16.7522 4.68948 15.8999C3.4139 15.0476 2.41971 13.8362 1.83263 12.4188C1.24555 11.0015 1.09194 9.4419 1.39123 7.93725C1.69052 6.43261 2.42927 5.05051 3.51406 3.96572C4.59885 2.88093 5.98095 2.14219 7.48559 1.84289C8.99024 1.5436 10.5498 1.69721 11.9672 2.28429C13.3845 2.87137 14.5959 3.86556 15.4483 5.14114C16.3006 6.41671 16.7555 7.91638 16.7555 9.4505C16.7537 11.5071 15.9359 13.479 14.4816 14.9333C13.0274 16.3876 11.0555 17.2054 8.99884 17.2072ZM8.99884 2.7761C7.67877 2.7761 6.38834 3.16755 5.29074 3.90094C4.19314 4.63433 3.33767 5.67673 2.8325 6.89632C2.32733 8.11591 2.19515 9.45791 2.45269 10.7526C2.71022 12.0473 3.3459 13.2366 4.27933 14.17C5.21276 15.1034 6.40202 15.7391 7.69673 15.9967C8.99144 16.2542 10.3334 16.122 11.553 15.6168C12.7726 15.1117 13.815 14.2562 14.5484 13.1586C15.2818 12.061 15.6732 10.7706 15.6732 9.4505C15.6711 7.681 14.9672 5.98458 13.716 4.73336C12.4648 3.48213 10.7683 2.77824 8.99884 2.7761Z" fill="#9496B3" />
    <path d="M9.00094 10.7138C8.85797 10.7125 8.72123 10.6551 8.62021 10.5539C8.5192 10.4527 8.46199 10.3159 8.46094 10.1729V6.56393C8.46223 6.42111 8.51954 6.28451 8.62053 6.18352C8.72152 6.08252 8.85812 6.02522 9.00094 6.02393C9.14375 6.02522 9.28036 6.08252 9.38135 6.18352C9.48234 6.28451 9.53965 6.42111 9.54094 6.56393V10.1729C9.53988 10.3159 9.48268 10.4527 9.38166 10.5539C9.28064 10.6551 9.14391 10.7125 9.00094 10.7138Z" fill="#9496B3" />
    <path d="M8.99734 13.0589C8.9031 13.0579 8.80999 13.0383 8.72329 13.0013C8.6359 12.9647 8.55539 12.9134 8.48524 12.8497C8.42017 12.7798 8.36915 12.6981 8.33494 12.6089C8.29851 12.5235 8.27895 12.4318 8.27734 12.3389C8.27813 12.2439 8.2977 12.15 8.33494 12.0626C8.37159 11.9752 8.42288 11.8947 8.48659 11.8246C8.55674 11.7609 8.63725 11.7096 8.72464 11.6729C8.90033 11.6006 9.09751 11.6006 9.27319 11.6729C9.36059 11.7096 9.44109 11.7609 9.51124 11.8246C9.57496 11.8947 9.62625 11.9752 9.66289 12.0626C9.69984 12.1493 9.71941 12.2425 9.72049 12.3367C9.71941 12.4309 9.69984 12.524 9.66289 12.6107C9.62798 12.699 9.57651 12.7798 9.51124 12.8488C9.44109 12.9125 9.36059 12.9638 9.27319 13.0004C9.186 13.0379 9.09225 13.0578 8.99734 13.0589Z" fill="#9496B3" />
</svg>
    