<svg width="18" height="19" viewBox="0 0 18 19" fill="none" xmlns="http://www.w3.org/2000/svg">
    <g clip-path="url(#clip0_930_33622)">
        <path d="M8.99956 12.5884C8.713 12.5891 8.42692 12.5649 8.14456 12.516C6.74831 12.2988 5.48567 11.5622 4.60952 10.4535C3.73338 9.34493 3.30842 7.94622 3.41978 6.53758C3.53114 5.12894 4.17058 3.81435 5.21003 2.85716C6.24949 1.89998 7.6122 1.37086 9.02522 1.37577C10.4382 1.38068 11.7972 1.91926 12.83 2.88364C13.8628 3.84802 14.4931 5.16699 14.5947 6.57636C14.6962 7.98574 14.2616 9.38148 13.3777 10.484C12.4939 11.5865 11.2262 12.3144 9.82846 12.5218C9.55431 12.5655 9.27717 12.5878 8.99956 12.5884ZM8.99956 2.47066C7.85887 2.46381 6.75799 2.88956 5.91883 3.66224C5.07967 4.43493 4.56463 5.4971 4.47754 6.63448C4.39044 7.77187 4.73776 8.89996 5.44949 9.7914C6.16121 10.6828 7.18442 11.2713 8.31286 11.4383C8.75726 11.5191 9.2126 11.5191 9.65701 11.4383C10.7852 11.2744 11.8094 10.6891 12.5233 9.8003C13.2372 8.9115 13.5877 7.78517 13.5044 6.64821C13.421 5.51126 12.9099 4.44819 12.074 3.67301C11.2381 2.89783 10.1396 2.46821 8.99956 2.47066Z" fill="#9496B3" />
        <path d="M5.00526 16.8064C4.90555 16.8063 4.80619 16.7948 4.70916 16.7718C4.48015 16.7191 4.27057 16.6031 4.10441 16.4369C3.93825 16.2708 3.82221 16.0611 3.76956 15.8321L3.51666 14.7683C3.50811 14.7355 3.49083 14.7057 3.46667 14.682C3.4425 14.6582 3.41235 14.6414 3.37941 14.6334L2.18691 14.3499C1.96751 14.3 1.76568 14.1918 1.6028 14.0366C1.43992 13.8814 1.32206 13.685 1.26171 13.4683C1.20111 13.2511 1.19924 13.0218 1.25631 12.8036C1.31422 12.5854 1.42808 12.3862 1.58661 12.2254L4.40496 9.40667C4.4615 9.35016 4.52969 9.30666 4.60477 9.27923C4.67985 9.25179 4.76001 9.24107 4.83966 9.2478C4.91916 9.25652 4.99588 9.28214 5.06466 9.32295C5.1333 9.36433 5.19174 9.4206 5.23566 9.48764C5.58624 10.0095 6.04174 10.4525 6.5731 10.7884C7.10446 11.1244 7.70001 11.3459 8.32176 11.4388C8.76641 11.5169 9.22126 11.5169 9.66591 11.4388C10.2902 11.3479 10.8886 11.1273 11.4226 10.7913C11.9566 10.4552 12.4143 10.0112 12.7664 9.48764C12.8103 9.42042 12.8689 9.36411 12.9379 9.32295C13.0067 9.28224 13.0834 9.25663 13.1629 9.2478C13.2424 9.24114 13.3224 9.2519 13.3973 9.27934C13.4722 9.30677 13.5403 9.35023 13.5967 9.40667L16.415 12.2254C16.5736 12.3862 16.6874 12.5854 16.7453 12.8036C16.8032 13.0216 16.8015 13.2512 16.7404 13.4683C16.6793 13.6854 16.561 13.8822 16.3979 14.0381C16.2345 14.1927 16.0324 14.3005 15.8129 14.3503L14.6204 14.6339C14.5875 14.6419 14.5573 14.6586 14.5332 14.6824C14.509 14.7062 14.4917 14.736 14.4832 14.7688L14.2366 15.8321C14.1835 16.0606 14.0675 16.2698 13.9018 16.4358C13.7361 16.6019 13.5272 16.7183 13.2988 16.7718C13.0705 16.8251 12.8319 16.8142 12.6095 16.7401C12.3871 16.6661 12.1895 16.5318 12.0388 16.3523L9.00351 12.8603L5.96826 16.3583C5.85147 16.4999 5.70463 16.6136 5.53837 16.6915C5.37212 16.7693 5.19063 16.8093 5.00706 16.8083L5.00526 16.8064ZM4.73076 10.6198L2.35296 12.9962C2.32889 13.0187 2.31183 13.0477 2.30384 13.0796C2.29586 13.1116 2.29729 13.1451 2.30796 13.1763C2.3148 13.2073 2.3309 13.2356 2.35412 13.2573C2.37734 13.279 2.40659 13.2931 2.43801 13.2978L3.63051 13.5813C3.86013 13.6326 4.0704 13.7482 4.23677 13.9146C4.40314 14.0809 4.51876 14.2913 4.57011 14.5209L4.82301 15.5815C4.83091 15.6154 4.84786 15.6465 4.87206 15.6715C4.89734 15.6953 4.92834 15.7122 4.96206 15.7205C4.9947 15.727 5.02838 15.7261 5.06061 15.7179C5.09195 15.7062 5.12014 15.6874 5.14296 15.6629L7.91091 12.4743C6.67268 12.2308 5.55246 11.5775 4.73076 10.6198ZM10.0934 12.4702L12.8614 15.6499C12.8822 15.6784 12.9115 15.6997 12.9451 15.7106C12.9786 15.7232 13.0153 15.7243 13.0495 15.7138C13.0841 15.7079 13.1158 15.6907 13.1395 15.6648C13.1637 15.6411 13.1807 15.6109 13.1885 15.5779L13.4414 14.5141C13.494 14.2851 13.61 14.0755 13.7762 13.9093C13.9424 13.7431 14.152 13.6271 14.381 13.5745L15.5735 13.2942C15.6045 13.2861 15.6329 13.2701 15.6559 13.2478C15.6788 13.2255 15.6956 13.1976 15.7045 13.1668C15.7128 13.1356 15.7128 13.1026 15.7045 13.0714C15.6964 13.0411 15.681 13.0133 15.6595 12.9904L13.2817 10.6113C12.4585 11.5717 11.3356 12.2266 10.0943 12.4702H10.0934Z" fill="#9496B3" />
        <path d="M10.367 9.7957C10.1258 9.78987 9.89073 9.718 9.68751 9.58784L9.00081 9.17421L8.31411 9.57927C8.14585 9.71181 7.93999 9.7877 7.72596 9.79614C7.51236 9.8048 7.30129 9.7473 7.12161 9.63146C6.95537 9.49673 6.83583 9.313 6.78001 9.10642C6.72418 8.89984 6.73491 8.68088 6.81066 8.48075L6.98031 7.73785L6.40207 7.20282C6.28445 7.11473 6.18923 7.00014 6.12414 6.8684C6.05905 6.73665 6.0259 6.59137 6.02739 6.44443C6.02888 6.29749 6.06496 6.15306 6.13272 6.02267C6.20047 5.89227 6.29798 5.77964 6.41736 5.69396C6.57298 5.57742 6.7579 5.50635 6.95151 5.48873L7.72461 5.35865L8.09676 4.54863C8.16738 4.36584 8.29188 4.20883 8.45377 4.09841C8.61566 3.98799 8.80728 3.92946 9.00324 3.93043C9.1992 3.93141 9.39023 3.99188 9.55101 4.10391C9.71179 4.21593 9.83473 4.37415 9.90351 4.55764L10.3301 5.41271L11.0456 5.4995C11.239 5.51692 11.4235 5.5891 11.5775 5.70747C11.7396 5.81683 11.8602 5.97746 11.9199 6.16362C11.9797 6.34979 11.9751 6.55068 11.9069 6.73392C11.85 6.91926 11.7417 7.08457 11.5946 7.21084L10.9948 7.81212L11.1829 8.48262C11.2586 8.68275 11.2693 8.9016 11.2135 9.10818C11.1577 9.31475 11.0382 9.49848 10.8719 9.63321C10.7271 9.74336 10.5489 9.80071 10.367 9.7957ZM7.27011 6.54353L7.76871 7.04352C7.88582 7.16707 7.9718 7.31672 8.01954 7.48011C8.06727 7.64351 8.07539 7.81591 8.04321 7.98307L7.90596 8.56139L8.48421 8.22026C8.64268 8.13281 8.82072 8.08689 9.00171 8.08689C9.18271 8.08689 9.36075 8.13281 9.51921 8.22026L10.0975 8.56139L9.96741 7.98307C9.93333 7.8165 9.93982 7.6442 9.98634 7.48066C10.0329 7.31713 10.1181 7.1672 10.2347 7.04352L10.7333 6.54353L10.1033 6.43641C9.94632 6.40545 9.79806 6.34039 9.66906 6.24569C9.54008 6.15041 9.43412 6.02736 9.35901 5.88567L8.99901 5.17738L8.63901 5.90006C8.56501 6.04085 8.46038 6.1632 8.33281 6.25821C8.20525 6.35323 8.058 6.41846 7.90191 6.44905L7.27011 6.54353Z" fill="#9496B3" />
    </g>
    <defs>
        <clipPath id="clip0_930_33622">
            <rect width="18" height="18" fill="white" transform="translate(0 0.0993652)" />
        </clipPath>
    </defs>
</svg>
    