<svg width="18" height="18" viewBox="0 0 18 18" fill="none" xmlns="http://www.w3.org/2000/svg">
    <path d="M12.6103 16.7888H5.38617C5.08016 16.789 4.77702 16.7278 4.49507 16.6089C4.3591 16.5517 4.2288 16.4816 4.1062 16.3996C3.98493 16.3181 3.87166 16.2253 3.76786 16.1225C3.66413 16.0196 3.57039 15.907 3.48797 15.7863C3.40553 15.6648 3.33525 15.5356 3.27793 15.4003C3.15864 15.121 3.09767 14.8203 3.09822 14.5166V14.0887L4.17035 13.5038V14.0478C4.17035 14.7303 4.28486 15.1231 4.55482 15.3616C4.82479 15.6 5.27051 15.7013 6.04307 15.7013H11.9556C12.7466 15.7013 13.1784 15.6081 13.4438 15.3796C13.717 15.1438 13.8292 14.7578 13.8292 14.0478V13.5929L14.8996 14.1188V14.5179C14.9006 14.8217 14.8396 15.1225 14.7199 15.4017C14.6629 15.5372 14.5919 15.6666 14.5085 15.7877C14.4266 15.9086 14.333 16.0212 14.2291 16.1238C14.1253 16.2267 14.012 16.3195 13.8907 16.401C13.7681 16.4833 13.6381 16.5534 13.5019 16.6102C13.2197 16.7289 12.9164 16.7896 12.6103 16.7888Z" fill="#EFF1F8" />
    <path d="M15.3583 14.3438L13.1741 13.2716C12.9994 13.186 12.8157 13.1208 12.6261 13.0773C12.4396 13.0344 12.249 13.0128 12.0576 13.0129C11.5304 13.0118 11.0159 13.1764 10.5873 13.4835C10.3814 13.6307 10.1537 13.7449 9.91242 13.8215C9.6746 13.8967 9.42674 13.9349 9.17731 13.9349C8.98837 13.9348 8.80005 13.9127 8.6162 13.8692C8.42895 13.825 8.2476 13.7585 8.07618 13.6712L6.93418 13.0863C6.62292 12.9289 6.27935 12.8468 5.93059 12.8465C5.56158 12.847 5.19826 12.9397 4.87428 13.1164L2.64258 14.3389V8.75325H15.3579L15.3583 14.3438ZM5.93103 11.8826C6.2798 11.8829 6.6234 11.965 6.93462 12.1224L8.07662 12.7074C8.24804 12.7947 8.42939 12.8612 8.61664 12.9053C8.80048 12.949 8.9888 12.971 9.17775 12.971C9.42718 12.9711 9.67504 12.9329 9.91286 12.8577C10.1541 12.781 10.3819 12.667 10.5878 12.5198C11.0163 12.2127 11.5308 12.048 12.058 12.0491C12.2494 12.049 12.4401 12.0708 12.6266 12.1139C12.8162 12.1573 13 12.2226 13.1745 12.3083L14.2814 12.8518V9.84845H3.72042V12.7862L4.87472 12.1535C5.19824 11.9769 5.56112 11.8839 5.92972 11.8831L5.93103 11.8826Z" fill="#EFF1F8" />
    <path d="M10.7773 8.76231H9.6929V6.05133C9.6929 5.96513 9.6589 5.88252 9.59799 5.82153C9.53708 5.76053 9.45438 5.72619 9.36818 5.72607H8.9345C8.84814 5.72607 8.76496 5.76033 8.70381 5.82131C8.64266 5.88229 8.60826 5.96497 8.60802 6.05133V8.76231H7.52447V5.46595C7.52425 5.35009 7.54738 5.23535 7.59214 5.12849C7.63581 5.02537 7.6991 4.9318 7.77844 4.85277C7.85714 4.77356 7.95067 4.7104 8.0535 4.6669C8.16031 4.62189 8.27506 4.59873 8.39096 4.5989H9.90952C10.0257 4.5986 10.1408 4.62176 10.2479 4.6669C10.3508 4.71049 10.444 4.77364 10.5229 4.85277C10.6021 4.93182 10.6653 5.02539 10.7088 5.12849C10.7537 5.23529 10.7769 5.35007 10.7765 5.46595V8.76231H10.7773Z" fill="#EFF1F8" />
    <path d="M9.12099 0.880615C9.67064 0.880615 10.1158 2.17084 10.1158 3.04354C10.1158 3.91625 9.67064 4.25775 9.12099 4.25775C8.57133 4.25775 8.12621 3.91625 8.12621 3.04354C8.12621 2.17084 8.57133 0.880615 9.12099 0.880615Z" fill="#EFF1F8" />
</svg>
    