<svg width="18" height="18" viewBox="0 0 18 18" fill="none" xmlns="http://www.w3.org/2000/svg">
    <g clip-path="url(#clip0_796_37420)">
        <path d="M12.6106 16.7889H5.38641C5.0804 16.789 4.77726 16.7279 4.49531 16.609C4.35934 16.5518 4.22905 16.4817 4.10644 16.3997C3.98517 16.3182 3.87191 16.2254 3.76811 16.1225C3.66438 16.0196 3.57063 15.9071 3.48821 15.7864C3.40577 15.6649 3.33549 15.5356 3.27818 15.4004C3.15888 15.1211 3.09791 14.8204 3.09846 14.5167V14.0888L4.1706 13.5038V14.0478C4.1706 14.7304 4.2851 15.1231 4.55507 15.3616C4.82504 15.6001 5.27076 15.7014 6.04331 15.7014H11.9559C12.7469 15.7014 13.1786 15.6082 13.4441 15.3796C13.7172 15.1439 13.8294 14.7578 13.8294 14.0478V13.5929L14.8998 14.1189V14.518C14.9008 14.8217 14.8398 15.1225 14.7201 15.4017C14.6632 15.5373 14.5921 15.6666 14.5088 15.7877C14.4268 15.9086 14.3332 16.0212 14.2293 16.1239C14.1255 16.2267 14.0122 16.3195 13.891 16.401C13.7684 16.4833 13.6384 16.5534 13.5021 16.6103C13.22 16.729 12.9166 16.7897 12.6106 16.7889Z" fill="#2F2F3D" />
        <path d="M15.3586 14.3439L13.1743 13.2716C12.9997 13.1861 12.8159 13.1209 12.6264 13.0773C12.4398 13.0345 12.2492 13.0129 12.0578 13.0129C11.5306 13.0119 11.0161 13.1765 10.5876 13.4835C10.3817 13.6308 10.1539 13.7449 9.91267 13.8216C9.67485 13.8968 9.42698 13.935 9.17755 13.9349C8.98861 13.9348 8.80029 13.9128 8.61644 13.8692C8.4292 13.825 8.24784 13.7586 8.07642 13.6713L6.93442 13.0863C6.62317 12.929 6.27959 12.8469 5.93084 12.8465C5.56183 12.847 5.19851 12.9398 4.87453 13.1164L2.64282 14.3389V8.75331H15.3581L15.3586 14.3439ZM5.93128 11.8827C6.28005 11.883 6.62364 11.9651 6.93486 12.1225L8.07686 12.7075C8.24828 12.7948 8.42964 12.8612 8.61688 12.9054C8.80072 12.949 8.98905 12.9711 9.17799 12.9711C9.42742 12.9712 9.67529 12.9329 9.91311 12.8577C10.1544 12.7811 10.3821 12.6671 10.588 12.5198C11.0166 12.2128 11.531 12.0481 12.0582 12.0491C12.2497 12.0491 12.4403 12.0709 12.6268 12.1139C12.8164 12.1573 13.0002 12.2226 13.1748 12.3084L14.2816 12.8519V9.84851H3.72067V12.7862L4.87497 12.1536C5.19848 11.977 5.56136 11.884 5.92996 11.8831L5.93128 11.8827Z" fill="#2F2F3D" />
        <path d="M10.7776 8.76237H9.69314V6.05139C9.69314 5.9652 9.65914 5.88258 9.59823 5.82159C9.53732 5.7606 9.45463 5.72625 9.36843 5.72613H8.93474C8.84838 5.72613 8.76521 5.76039 8.70406 5.82137C8.64291 5.88235 8.60851 5.96503 8.60827 6.05139V8.76237H7.52471V5.46601C7.5245 5.35015 7.54762 5.23541 7.59238 5.12855C7.63606 5.02543 7.69935 4.93186 7.77869 4.85283C7.85739 4.77362 7.95091 4.71047 8.05375 4.66696C8.16055 4.62195 8.27531 4.59879 8.39121 4.59896H9.90977C10.026 4.59866 10.141 4.62182 10.2481 4.66696C10.351 4.71056 10.4442 4.7737 10.5232 4.85283C10.6024 4.93188 10.6655 5.02545 10.709 5.12855C10.754 5.23535 10.7771 5.35013 10.7767 5.46601V8.76237H10.7776Z" fill="#2F2F3D" />
        <path d="M9.12123 0.880676C9.67089 0.880676 10.116 2.1709 10.116 3.0436C10.116 3.91631 9.67089 4.25781 9.12123 4.25781C8.57158 4.25781 8.12646 3.91631 8.12646 3.0436C8.12646 2.1709 8.57158 0.880676 9.12123 0.880676Z" fill="#2F2F3D" />
    </g>
    <defs>
        <clipPath id="clip0_796_37420">
            <rect width="18" height="18" fill="white" />
        </clipPath>
    </defs>
</svg>
    