<svg width="18" height="19" viewBox="0 0 18 19" fill="none" xmlns="http://www.w3.org/2000/svg">
    <path d="M8.99938 16.5552C8.78743 16.5573 8.57843 16.5056 8.39188 16.4049C6.76784 15.5815 5.02782 15.0104 3.23173 14.7111L3.02653 14.6828C2.55844 14.6115 2.13044 14.3775 1.81771 14.022C1.50498 13.6665 1.32753 13.2121 1.31653 12.7388V4.10552C1.31346 3.83361 1.36765 3.56409 1.47557 3.31449C1.58348 3.06489 1.74272 2.84079 1.94292 2.65676C2.14312 2.47274 2.3798 2.33289 2.63758 2.24633C2.89537 2.15977 3.16849 2.12842 3.43918 2.15432C5.30264 2.37256 7.10207 2.96833 8.72758 3.90527L8.89903 4.00517C8.96256 4.03241 9.03396 4.03498 9.09928 4.01237L9.21358 3.94082C10.8423 3.00021 12.6429 2.39521 14.5092 2.16152H14.5951C14.8602 2.13906 15.127 2.17266 15.3782 2.26011C15.6294 2.34756 15.8593 2.48692 16.0531 2.66912C16.2544 2.85293 16.4146 3.07719 16.5231 3.32721C16.6317 3.57723 16.6862 3.84737 16.6831 4.11992V12.746C16.6731 13.2205 16.4953 13.6761 16.1812 14.0319C15.8672 14.3878 15.4373 14.6209 14.9677 14.69L14.7319 14.7188C12.9423 15.0166 11.2089 15.5874 9.59248 16.4112C9.4109 16.5106 9.20631 16.5603 8.99938 16.5552ZM3.26773 3.21947C3.04556 3.21647 2.83058 3.29821 2.66653 3.44807C2.57695 3.53227 2.50591 3.63423 2.45794 3.74743C2.40998 3.86063 2.38615 3.98259 2.38798 4.10552V12.7388C2.3978 12.9521 2.47962 13.1559 2.6201 13.3168C2.76058 13.4777 2.95143 13.5863 3.16153 13.6248L3.37573 13.6536C5.29133 13.9687 7.14726 14.5758 8.87878 15.4536C8.93935 15.4806 9.00679 15.4881 9.07183 15.4752C10.8067 14.5828 12.6707 13.9678 14.596 13.6527L14.839 13.6239C15.0493 13.5862 15.2405 13.4778 15.3808 13.3167C15.5211 13.1555 15.6023 12.9514 15.6108 12.7379V4.11272C15.6126 3.98872 15.5889 3.86567 15.5409 3.7513C15.493 3.63692 15.4219 3.53369 15.3322 3.44807C15.2388 3.36622 15.13 3.30384 15.0122 3.26459C14.8943 3.22533 14.7698 3.20999 14.646 3.21947H14.56C12.882 3.44307 11.263 3.98904 9.79228 4.82732L9.67798 4.90607C9.47686 5.02477 9.24784 5.08798 9.0143 5.08924C8.78077 5.09051 8.55108 5.02978 8.34868 4.91327L8.17723 4.81337C6.68803 3.97376 5.0495 3.43238 3.35323 3.21947H3.26773Z" fill="#9496B3" />
    <path d="M9.00079 15.9531C8.85929 15.952 8.72385 15.8955 8.62362 15.7956C8.52339 15.6957 8.46637 15.5604 8.46484 15.4189V4.69904C8.4659 4.55722 8.52271 4.42151 8.62299 4.32123C8.72327 4.22095 8.85898 4.16415 9.00079 4.16309C9.14261 4.16415 9.27831 4.22095 9.3786 4.32123C9.47888 4.42151 9.53568 4.55722 9.53674 4.69904V15.4189C9.53662 15.4892 9.52267 15.5588 9.49567 15.6236C9.46867 15.6885 9.42916 15.7474 9.37939 15.797C9.32963 15.8466 9.27058 15.8859 9.20562 15.9127C9.14066 15.9395 9.07106 15.9532 9.00079 15.9531Z" fill="#9496B3" />
    <path d="M5.96411 7.37854H4.35626C4.21445 7.37748 4.07874 7.32067 3.97846 7.22039C3.87818 7.12011 3.82137 6.98441 3.82031 6.84259C3.82137 6.70078 3.87818 6.56507 3.97846 6.46479C4.07874 6.36451 4.21445 6.3077 4.35626 6.30664H5.96411C6.10601 6.30758 6.24183 6.36434 6.34221 6.46463C6.44258 6.56492 6.49945 6.7007 6.50051 6.84259C6.49945 6.98448 6.44258 7.12026 6.34221 7.22055C6.24183 7.32084 6.10601 7.3776 5.96411 7.37854Z" fill="#9496B3" />
    <path d="M6.50051 9.52307H4.35626C4.21445 9.52201 4.07874 9.46521 3.97846 9.36493C3.87818 9.26464 3.82137 9.12894 3.82031 8.98712C3.82137 8.84531 3.87818 8.7096 3.97846 8.60932C4.07874 8.50904 4.21445 8.45223 4.35626 8.45117H6.50051C6.64233 8.45223 6.77803 8.50904 6.87831 8.60932C6.9786 8.7096 7.0354 8.84531 7.03646 8.98712C7.0354 9.12894 6.9786 9.26464 6.87831 9.36493C6.77803 9.46521 6.64233 9.52201 6.50051 9.52307Z" fill="#9496B3" />
</svg>
    