<svg width="18" height="18" viewBox="0 0 18 18" fill="none" xmlns="http://www.w3.org/2000/svg">
    <g clip-path="url(#clip0_930_32656)">
        <path d="M8.27332 16.8264C8.01184 16.7998 7.75166 16.7602 7.49415 16.7076C6.98946 16.6041 6.49648 16.4509 6.02195 16.2504C5.5555 16.0528 5.10929 15.8107 4.68949 15.5272C4.27287 15.2456 3.88406 14.9247 3.52843 14.5691C3.17276 14.2135 2.85199 13.8248 2.57039 13.4081C2.28705 12.9883 2.04468 12.5419 1.84704 12.0756C1.64672 11.6009 1.49375 11.1078 1.38999 10.6031C1.33779 10.3466 1.29745 10.0843 1.2709 9.82419C1.24396 9.55773 1.23052 9.29009 1.23047 9.02228C1.23052 8.75446 1.24397 8.48682 1.2709 8.22037C1.29745 7.96026 1.33734 7.69837 1.38999 7.44142C1.49373 6.9368 1.64671 6.44362 1.84704 5.96899C2.04468 5.50261 2.28705 5.0563 2.57039 4.63643C2.85211 4.21983 3.17288 3.83114 3.52843 3.47547C3.88411 3.11994 4.27291 2.79907 4.68949 2.51733C5.10933 2.23393 5.55553 1.99177 6.02195 1.79419C6.4965 1.59366 6.98948 1.44057 7.49415 1.33704C7.74976 1.28484 8.01231 1.24472 8.27332 1.21817C8.53978 1.19117 8.80709 1.17773 9.0749 1.17773C9.34272 1.17773 9.61047 1.19117 9.87693 1.21817C10.1383 1.24476 10.3983 1.28448 10.6557 1.33704C11.1605 1.44051 11.6536 1.5936 12.1283 1.79419C12.5947 1.99177 13.0409 2.23392 13.4608 2.51733C13.8773 2.79909 14.2661 3.11997 14.6218 3.47547C14.9773 3.83118 15.2981 4.21987 15.5799 4.63643C15.8631 5.05637 16.1054 5.50267 16.3032 5.96899C16.5036 6.44361 16.6565 6.93679 16.7603 7.44142C16.8129 7.69891 16.8528 7.95888 16.8793 8.22037C16.9063 8.48683 16.9197 8.75446 16.9198 9.02228C16.9197 9.29009 16.9063 9.55773 16.8793 9.82419C16.8528 10.0857 16.8129 10.3456 16.7603 10.6031C16.6566 11.1078 16.5036 11.601 16.3032 12.0756C16.1055 12.5419 15.8631 12.9882 15.5799 13.4081C15.2982 13.8248 14.9774 14.2135 14.6218 14.5691C14.2662 14.9246 13.8774 15.2455 13.4608 15.5272C13.041 15.8107 12.5947 16.0528 12.1283 16.2504C11.6537 16.4511 11.1605 16.6043 10.6557 16.7076C10.3983 16.7603 10.1383 16.7999 9.87693 16.8264C9.61047 16.8533 9.34272 16.8669 9.0749 16.8669C8.80709 16.8669 8.53978 16.8533 8.27332 16.8264ZM3.49503 12.7849C3.7365 13.1422 4.01159 13.4756 4.31639 13.7807C4.62167 14.0856 4.95523 14.3607 5.31265 14.6024C5.67275 14.8456 6.05556 15.0535 6.4557 15.223C6.86293 15.3951 7.28604 15.5263 7.71916 15.6149C7.93921 15.6599 8.16394 15.6941 8.38714 15.7171C8.61577 15.7402 8.84511 15.7518 9.0749 15.7518C9.3047 15.7518 9.53448 15.7402 9.76311 15.7171C9.98811 15.6941 10.2133 15.6599 10.4311 15.6149C10.8642 15.5263 11.2873 15.3951 11.6946 15.223C12.0947 15.0535 12.4775 14.8456 12.8376 14.6024C13.195 14.3608 13.5284 14.0857 13.8334 13.7807C14.1385 13.4757 14.4137 13.1423 14.6552 12.7849C14.8912 12.4356 15.0938 12.065 15.2604 11.6778L11.3698 10.2616C11.3293 10.3363 11.2848 10.4097 11.2371 10.4799C11.1436 10.6183 11.037 10.7474 10.9189 10.8655C10.8008 10.9836 10.6714 11.0901 10.533 11.1837C10.3935 11.2779 10.2455 11.3583 10.0905 11.4239C9.93273 11.4906 9.76833 11.5415 9.6005 11.5757C9.51513 11.5932 9.42925 11.6064 9.34254 11.6152C9.25387 11.6242 9.16447 11.6287 9.07534 11.6287C8.98622 11.6287 8.89726 11.6242 8.80859 11.6152C8.72187 11.6064 8.63556 11.5932 8.55018 11.5757C8.38236 11.5415 8.2184 11.4906 8.06062 11.4239C7.90561 11.3583 7.75759 11.2779 7.61808 11.1837C7.4797 11.0901 7.35038 10.9836 7.23223 10.8655C7.11414 10.7474 7.00759 10.6183 6.91406 10.4799C6.86681 10.4097 6.82407 10.3372 6.78222 10.263L2.8912 11.6792C3.05748 12.0658 3.25958 12.436 3.49503 12.7849ZM8.38714 2.32704C8.16297 2.34991 7.93991 2.38402 7.71916 2.42922C7.28605 2.51788 6.86295 2.6491 6.4557 2.82111C6.05554 2.99056 5.67272 3.19846 5.31265 3.44174C4.95514 3.68331 4.62158 3.95844 4.31639 4.26343C4.01155 4.56849 3.73646 4.90191 3.49503 5.25926C3.25162 5.61926 3.04383 6.00208 2.8745 6.4023C2.70249 6.80944 2.57102 7.23261 2.48206 7.66554C2.43706 7.8856 2.40262 8.11054 2.37967 8.33375C2.35672 8.55695 2.34539 8.79278 2.34539 9.02184C2.34539 9.25089 2.35672 9.48267 2.37967 9.70993C2.40262 9.93719 2.43706 10.1599 2.48206 10.3781C2.50096 10.4681 2.52153 10.5593 2.54403 10.6514L6.47591 9.22026C6.47051 9.15456 6.468 9.08798 6.468 9.02228C6.468 8.93228 6.47264 8.84226 6.48119 8.75585C6.49001 8.66899 6.50318 8.58265 6.52074 8.49712C6.55509 8.32942 6.60599 8.1656 6.67279 8.008C6.73846 7.853 6.81902 7.70465 6.91318 7.56512C7.00677 7.42678 7.11332 7.29768 7.23135 7.1795C7.34952 7.06145 7.47885 6.95491 7.6172 6.86132C7.75668 6.76708 7.90471 6.68663 8.05974 6.62105C8.21754 6.55434 8.38149 6.50333 8.5493 6.46888C8.63469 6.45138 8.721 6.43821 8.80771 6.42933C8.89638 6.42038 8.98534 6.41586 9.07446 6.41582C9.16359 6.41586 9.25299 6.42038 9.34166 6.42933C9.42837 6.43821 9.51424 6.45138 9.59962 6.46888C9.76742 6.50339 9.93181 6.5544 10.0896 6.62105C10.2446 6.68672 10.3926 6.76717 10.5322 6.86132C10.6705 6.95497 10.7998 7.06151 10.918 7.1795C11.0361 7.29768 11.1426 7.42678 11.2362 7.56512C11.3303 7.70469 11.4108 7.85304 11.4766 8.008C11.5432 8.16567 11.5941 8.32947 11.6286 8.49712C11.6457 8.58217 11.6587 8.66945 11.6677 8.75585C11.6769 8.84436 11.6811 8.9333 11.6809 9.02228C11.6809 9.08753 11.6811 9.15369 11.6735 9.21894L15.6058 10.6499C15.6283 10.5599 15.6484 10.47 15.6673 10.38C15.7123 10.1608 15.7463 9.93579 15.7693 9.71169C15.7922 9.48758 15.804 9.2531 15.804 9.0236C15.804 8.79409 15.7922 8.56287 15.7693 8.33562C15.7463 8.10836 15.7123 7.88556 15.6673 7.6673C15.5783 7.23443 15.447 6.8114 15.2753 6.40417C15.1055 6.00408 14.8976 5.62128 14.6543 5.26112C14.4129 4.90369 14.1376 4.57014 13.8325 4.26519C13.5275 3.96015 13.1941 3.68502 12.8367 3.4435C12.4766 3.20022 12.0938 2.99243 11.6937 2.82298C11.2864 2.65092 10.8633 2.51958 10.4302 2.43098C10.2095 2.38575 9.9864 2.35163 9.76223 2.3288C9.53359 2.30577 9.30382 2.29424 9.07403 2.29419C8.84457 2.29369 8.61551 2.30465 8.38714 2.32704ZM8.91933 7.50624C8.86893 7.51164 8.81766 7.51929 8.76816 7.52964C8.67 7.55006 8.57424 7.58018 8.48207 7.61962C8.39152 7.65803 8.30478 7.70506 8.22322 7.76003C8.14251 7.81489 8.06717 7.8773 7.99822 7.94636C7.92913 8.01517 7.86685 8.09053 7.81232 8.17137C7.75704 8.25274 7.71022 8.3394 7.67213 8.4301C7.63256 8.52222 7.60232 8.61811 7.58204 8.7163C7.57142 8.76622 7.56371 8.81668 7.55875 8.86748C7.55341 8.91921 7.55046 8.97115 7.5504 9.02316C7.55046 9.07516 7.55342 9.12711 7.55875 9.17884C7.56371 9.22964 7.57142 9.2802 7.58204 9.33012C7.60234 9.42817 7.63258 9.52391 7.67213 9.61588C7.71034 9.70662 7.7573 9.79328 7.81276 9.87462C7.86734 9.95542 7.92962 10.0308 7.99866 10.0996C8.06759 10.1687 8.14293 10.2311 8.22366 10.286C8.30522 10.3409 8.39196 10.388 8.48251 10.4264C8.5747 10.4658 8.67046 10.4959 8.7686 10.5163C8.81857 10.5267 8.86901 10.5345 8.91977 10.5397C8.97152 10.5447 9.02402 10.5473 9.07622 10.5473C9.12842 10.5473 9.18003 10.5447 9.23223 10.5397C9.28443 10.5348 9.33346 10.5267 9.38341 10.5163C9.48155 10.4959 9.5773 10.4657 9.6695 10.4264C9.76002 10.3879 9.84676 10.3409 9.92834 10.286C10.0091 10.2311 10.0844 10.1687 10.1533 10.0996C10.2223 10.0307 10.2846 9.95537 10.3392 9.87462C10.3946 9.79319 10.4415 9.70654 10.4799 9.61588C10.5194 9.52391 10.5497 9.42817 10.57 9.33012C10.5804 9.28017 10.5881 9.22961 10.5933 9.17884C10.5986 9.12711 10.6015 9.07516 10.6016 9.02316C10.6015 8.97115 10.5986 8.91921 10.5933 8.86748C10.5881 8.8167 10.5804 8.76626 10.57 8.7163C10.5497 8.61811 10.5194 8.52222 10.4799 8.4301C10.4416 8.33947 10.3948 8.25282 10.3397 8.17137C10.285 8.09061 10.2228 8.01527 10.1538 7.94636C10.0849 7.8772 10.0096 7.81478 9.92878 7.76003C9.84722 7.70506 9.76048 7.65803 9.66994 7.61962C9.57774 7.58025 9.48199 7.55012 9.38385 7.52964C9.33435 7.51929 9.28307 7.51164 9.23267 7.50624C9.18227 7.50084 9.12886 7.49855 9.07666 7.49855C9.02446 7.49855 8.97109 7.4986 8.91933 7.5058V7.50624Z" fill="#EFF1F8" />
    </g>
    <defs>
        <clipPath id="clip0_930_32656">
            <rect width="18" height="18" fill="white" />
        </clipPath>
    </defs>
</svg>
    