<svg width="18" height="18" viewBox="0 0 18 18" fill="none" xmlns="http://www.w3.org/2000/svg">
    <g clip-path="url(#clip0_796_37020)">
        <path d="M9.00825 12.6072C8.40332 12.615 7.80846 12.452 7.29195 12.137L2.95035 9.302C2.55422 9.04404 2.22875 8.69123 2.00345 8.27566C1.77816 7.86008 1.66016 7.39486 1.66016 6.92214C1.66016 6.44943 1.77816 5.9842 2.00345 5.56863C2.22875 5.15305 2.55422 4.8003 2.95035 4.54234L7.29915 1.71545C7.81868 1.40663 8.41209 1.24409 9.01648 1.24512C9.62087 1.24615 10.2137 1.41068 10.7322 1.72127L15.0522 4.55629C15.4463 4.81406 15.7701 5.16598 15.9941 5.58022C16.2181 5.99446 16.3355 6.45795 16.3355 6.9289C16.3355 7.39985 16.2181 7.8634 15.9941 8.27764C15.7701 8.69187 15.4463 9.04373 15.0522 9.30151L10.7322 12.1365C10.2148 12.456 9.61621 12.6194 9.00825 12.6072ZM9.00825 2.32876C8.61475 2.31745 8.22644 2.42064 7.89045 2.62577L3.54885 5.45267C3.30379 5.61202 3.10242 5.83008 2.96302 6.08702C2.82362 6.34395 2.7506 6.63164 2.7506 6.92395C2.7506 7.21627 2.82362 7.50396 2.96302 7.76089C3.10242 8.01783 3.30379 8.23589 3.54885 8.39524L7.89045 11.2302C8.23403 11.4231 8.62143 11.5244 9.01545 11.5244C9.40947 11.5244 9.79687 11.4231 10.1405 11.2302L14.4618 8.39343C14.7057 8.2332 14.9059 8.01486 15.0445 7.75804C15.183 7.50122 15.2556 7.21396 15.2556 6.92214C15.2556 6.63033 15.183 6.34312 15.0445 6.0863C14.9059 5.82948 14.7057 5.61114 14.4618 5.45091L10.1418 2.61589C9.7969 2.42044 9.40598 2.32085 9.0096 2.32744L9.00825 2.32876Z" fill="#9496B3" />
        <path d="M8.99973 16.7529C8.69475 16.7572 8.39101 16.7133 8.09973 16.6228L5.79933 15.8578C5.24468 15.6517 4.76397 15.2851 4.41847 14.8047C4.07298 14.3243 3.87834 13.752 3.85938 13.1606L3.86658 9.77971C3.86718 9.63673 3.92447 9.49979 4.02588 9.39898C4.07542 9.34753 4.13482 9.30663 4.20055 9.27868C4.26627 9.25073 4.33696 9.23633 4.40838 9.23633C4.4798 9.23633 4.55048 9.25073 4.61621 9.27868C4.68193 9.30663 4.74134 9.34753 4.79088 9.39898C4.89229 9.49979 4.94957 9.63673 4.95018 9.77971L4.94298 13.1606C4.9663 13.5244 5.09162 13.8742 5.30459 14.1701C5.51757 14.466 5.80958 14.696 6.14718 14.8336L8.44758 15.5987C8.81166 15.6938 9.19409 15.6938 9.55818 15.5987L11.8586 14.8336C12.1956 14.6975 12.4875 14.4691 12.7005 14.1745C12.9135 13.88 13.0391 13.5313 13.0628 13.1686V9.82245C13.0628 9.67923 13.1197 9.54189 13.2209 9.44062C13.3222 9.33935 13.4596 9.28242 13.6028 9.28242C13.746 9.28242 13.8833 9.33935 13.9846 9.44062C14.0859 9.54189 14.1428 9.67923 14.1428 9.82245V13.1686C14.121 13.7593 13.9253 14.3304 13.5802 14.8103C13.2351 15.2902 12.7559 15.6574 12.2028 15.866L9.90243 16.631C9.60894 16.7147 9.30492 16.7558 8.99973 16.7529Z" fill="#9496B3" />
        <path d="M15.7792 11.7068C15.6359 11.7041 15.4992 11.6462 15.3976 11.5452C15.2962 11.4444 15.2389 11.3076 15.2383 11.1646V6.83733C15.2389 6.69434 15.2962 6.55746 15.3976 6.45665C15.4471 6.40521 15.5065 6.36431 15.5723 6.33635C15.638 6.3084 15.7087 6.29395 15.7801 6.29395C15.8515 6.29395 15.9222 6.3084 15.9879 6.33635C16.0536 6.36431 16.113 6.40521 16.1626 6.45665C16.264 6.55746 16.3213 6.69434 16.3219 6.83733V11.1646C16.3213 11.3076 16.264 11.4444 16.1626 11.5452C16.0605 11.6467 15.9231 11.7046 15.7792 11.7068Z" fill="#9496B3" />
    </g>
    <defs>
        <clipPath id="clip0_796_37020">
            <rect width="18" height="18" fill="white" />
        </clipPath>
    </defs>
</svg>
    