<svg width="18" height="18" viewBox="0 0 18 18" fill="none" xmlns="http://www.w3.org/2000/svg">
    <g clip-path="url(#clip0_796_37329)">
        <path d="M12.6155 15.6862H5.38712C2.74832 15.6862 1.23047 14.1679 1.23047 11.5296V6.46976C1.23047 3.83096 2.74832 2.31311 5.38712 2.31311H12.6155C15.2538 2.31311 16.7721 3.83096 16.7721 6.46976V11.5296C16.7721 14.1679 15.2538 15.6862 12.6155 15.6862ZM5.38712 3.39761C3.31937 3.39761 2.31497 4.40201 2.31497 6.46976V11.5296C2.31497 13.5969 3.31982 14.6017 5.38712 14.6017H12.6155C14.6828 14.6017 15.6876 13.5969 15.6876 11.5296V6.46976C15.6876 4.40246 14.6828 3.39761 12.6155 3.39761H5.38712Z" fill="#2F2F3D" />
        <path d="M7.40578 9.13351C7.35358 9.11326 7.30297 9.08482 4.03957 6.44197C3.92768 6.35105 3.85647 6.21951 3.84138 6.07613C3.82628 5.93275 3.86865 5.78923 3.95915 5.677C4.05 5.565 4.18135 5.49368 4.32477 5.47858C4.46819 5.46348 4.61205 5.50585 4.72424 5.59647L7.97795 8.21275C8.27295 8.42775 8.62849 8.54355 8.99352 8.54355C9.35856 8.54355 9.7141 8.42775 10.0091 8.21275L13.2707 5.59647C13.3829 5.50585 13.5268 5.46348 13.6702 5.47858C13.8136 5.49368 13.945 5.565 14.0358 5.677C14.1264 5.78918 14.1687 5.93271 14.1536 6.07613C14.1385 6.21955 14.0674 6.35112 13.9554 6.44197C10.6879 9.08752 10.6336 9.11766 10.5769 9.13791C10.1146 9.46357 9.56114 9.63525 8.99572 9.62845C8.42687 9.63403 7.87098 9.46095 7.40578 9.13351Z" fill="#2F2F3D" />
    </g>
    <defs>
        <clipPath id="clip0_796_37329">
            <rect width="18" height="18" fill="white" />
        </clipPath>
    </defs>
</svg>
    