<svg width="18" height="19" viewBox="0 0 18 19" fill="none" xmlns="http://www.w3.org/2000/svg">
    <path d="M8.02757 2.57941C8.02479 2.45021 8.04783 2.32176 8.09535 2.20159C8.14287 2.08141 8.2139 1.97193 8.30429 1.87958C8.39468 1.78722 8.5026 1.7139 8.62172 1.66381C8.74084 1.61371 8.86877 1.58789 8.99799 1.58789C9.12722 1.58789 9.25514 1.61371 9.37426 1.66381C9.49339 1.7139 9.60131 1.78722 9.69169 1.87958C9.78208 1.97193 9.85312 2.08141 9.90064 2.20159C9.94815 2.32176 9.9712 2.45021 9.96842 2.57941V16.1667C9.96295 16.4205 9.85831 16.662 9.67692 16.8396C9.49552 17.0171 9.25181 17.1165 8.99799 17.1165C8.74418 17.1165 8.50046 17.0171 8.31907 16.8396C8.13768 16.662 8.03303 16.4205 8.02757 16.1667V2.57941Z" fill="#9496B3" />
    <path d="M3.17601 10.3441C3.17322 10.2149 3.19627 10.0864 3.24379 9.96624C3.29131 9.84606 3.36234 9.73658 3.45273 9.64423C3.54312 9.55187 3.65104 9.47855 3.77016 9.42845C3.88928 9.37836 4.01721 9.35254 4.14643 9.35254C4.27566 9.35254 4.40358 9.37836 4.52271 9.42845C4.64183 9.47855 4.74975 9.55187 4.84014 9.64423C4.93052 9.73658 5.00156 9.84606 5.04908 9.96624C5.09659 10.0864 5.11964 10.2149 5.11686 10.3441V16.167C5.11964 16.2962 5.09659 16.4247 5.04908 16.5448C5.00156 16.665 4.93052 16.7745 4.84014 16.8669C4.74975 16.9592 4.64183 17.0326 4.52271 17.0827C4.40358 17.1328 4.27566 17.1587 4.14643 17.1587C4.01721 17.1587 3.88928 17.1328 3.77016 17.0827C3.65104 17.0326 3.54312 16.9592 3.45273 16.8669C3.36234 16.7745 3.29131 16.665 3.24379 16.5448C3.19627 16.4247 3.17322 16.2962 3.17601 16.167V10.3441Z" fill="#9496B3" />
    <path d="M13.8537 6.46191C13.5963 6.46191 13.3494 6.56421 13.1673 6.74624C12.9853 6.92827 12.883 7.17512 12.883 7.43256V16.1676C12.8803 16.2968 12.9033 16.4252 12.9508 16.5454C12.9983 16.6656 13.0694 16.7749 13.1598 16.8673C13.2501 16.9596 13.3581 17.0331 13.4772 17.0832C13.5963 17.1333 13.7242 17.1591 13.8535 17.1591C13.9827 17.1591 14.1106 17.1333 14.2297 17.0832C14.3489 17.0331 14.4568 16.9596 14.5472 16.8673C14.6376 16.7749 14.7086 16.6656 14.7561 16.5454C14.8036 16.4252 14.8267 16.2968 14.8239 16.1676V7.43256C14.8239 7.1752 14.7217 6.92837 14.5397 6.74635C14.3578 6.56433 14.111 6.46203 13.8537 6.46191Z" fill="#9496B3" />
</svg>
    