<svg width="18" height="19" viewBox="0 0 18 19" fill="none" xmlns="http://www.w3.org/2000/svg">
    <path d="M5.09874 16.4574H1.88486C1.76682 16.4575 1.65008 16.434 1.54119 16.3885C1.4324 16.3428 1.3333 16.2765 1.24982 16.1931C1.16658 16.1101 1.10044 16.0116 1.05469 15.9033C1.00896 15.7944 0.984992 15.6776 0.984375 15.5595V9.41313C0.985062 9.26411 0.999957 9.11548 1.0292 8.96937C1.05883 8.8247 1.10227 8.68321 1.15885 8.54681C1.21596 8.41065 1.28596 8.28029 1.36804 8.15755C1.45102 8.03417 1.54578 7.9192 1.65106 7.81421C1.75663 7.70831 1.87249 7.61288 1.99649 7.52932C2.11931 7.44699 2.24992 7.37673 2.3863 7.31958C2.5224 7.26227 2.66356 7.2184 2.8082 7.18861C2.95429 7.15924 3.10305 7.14424 3.25207 7.14368H5.09698C5.21521 7.14603 5.33176 7.17086 5.44065 7.21696C5.54928 7.26284 5.64822 7.32934 5.73158 7.41275C5.81509 7.49568 5.88139 7.59415 5.92715 7.70258C5.97272 7.81166 5.99654 7.92858 5.99703 8.0468V15.5473C5.99777 15.6663 5.97508 15.7843 5.92979 15.8943C5.88477 16.0048 5.81847 16.1056 5.7351 16.1909C5.65196 16.2763 5.55274 16.3441 5.44285 16.3902C5.33384 16.4352 5.21666 16.4581 5.09874 16.4574ZM3.37512 8.40464C3.22921 8.40534 3.0851 8.4348 2.95059 8.49133C2.81607 8.54785 2.69415 8.6303 2.59154 8.73403C2.38375 8.94193 2.26571 9.22313 2.26325 9.51706V14.7535C2.26398 14.8701 2.31075 14.9817 2.39333 15.064C2.43407 15.105 2.48236 15.1377 2.53572 15.1599C2.58909 15.1822 2.64666 15.1936 2.70448 15.1937H4.27956C4.33825 15.1941 4.39637 15.1827 4.45051 15.16C4.50466 15.1374 4.55335 15.1039 4.59422 15.0618C4.67654 14.9776 4.72265 14.8646 4.72255 14.7468V8.84697C4.72241 8.7892 4.71103 8.73205 4.68871 8.67876C4.66639 8.62547 4.63354 8.57712 4.59247 8.53648C4.50986 8.45382 4.3986 8.40655 4.28176 8.40464H3.37512Z" fill="#9496B3" />
    <path d="M10.5441 16.4618H7.33017C7.21193 16.4596 7.09536 16.4347 6.9865 16.3884C6.87777 16.3425 6.7787 16.2761 6.69513 16.1928C6.52633 16.025 6.43093 15.7971 6.42969 15.559V3.9625C6.43036 3.81349 6.44525 3.66486 6.47451 3.51874C6.50417 3.37408 6.54761 3.2326 6.60416 3.09619C6.66129 2.96003 6.7313 2.82968 6.81335 2.70692C6.89629 2.58338 6.99105 2.46815 7.09637 2.36303C7.20197 2.25717 7.31783 2.16186 7.4418 2.07825C7.56463 1.99593 7.69524 1.92567 7.83161 1.86851C7.96775 1.8113 8.10889 1.76744 8.25351 1.73755C8.39961 1.70824 8.54836 1.69312 8.69738 1.6925H9.18564C9.33465 1.6931 9.48296 1.70821 9.62907 1.73755C9.77383 1.76744 9.91555 1.8113 10.0518 1.86851C10.1881 1.92557 10.3186 1.99584 10.4412 2.07825C10.5654 2.16174 10.681 2.25706 10.7866 2.36303C10.8921 2.46806 10.9868 2.5833 11.0697 2.70692C11.1517 2.82959 11.2216 2.95996 11.2784 3.09619C11.3353 3.23251 11.3789 3.37401 11.4085 3.51874C11.4378 3.66486 11.4531 3.81349 11.4538 3.9625V15.559C11.4496 15.798 11.3513 16.0257 11.1804 16.1928C11.096 16.2762 10.9967 16.3425 10.8873 16.3884C10.7786 16.4343 10.662 16.4593 10.5441 16.4618ZM8.82439 2.97742C8.67894 2.97828 8.53489 3.00759 8.40073 3.06378C8.26605 3.11996 8.14381 3.20212 8.0408 3.30549C7.93783 3.40845 7.85621 3.53073 7.80085 3.66542C7.74476 3.79943 7.71538 3.94325 7.71471 4.08852V14.7594C7.71497 14.817 7.72667 14.8741 7.74899 14.9272C7.77131 14.9803 7.80383 15.0285 7.8448 15.069C7.88541 15.1097 7.93375 15.1421 7.98675 15.1644C8.03987 15.1871 8.09688 15.1993 8.15463 15.2004H9.72399C9.78202 15.1992 9.83929 15.187 9.89275 15.1644C9.9461 15.142 9.9944 15.1097 10.0356 15.069C10.1195 14.9875 10.1679 14.8763 10.1705 14.7594V4.08852C10.1698 3.94325 10.1409 3.79943 10.0848 3.66542C10.0294 3.53073 9.94782 3.40845 9.84485 3.30549C9.7418 3.20216 9.61957 3.12001 9.48492 3.06378C9.35092 3.00759 9.207 2.97828 9.0617 2.97742H8.82439Z" fill="#9496B3" />
    <path d="M16.0245 16.4625H12.8106C12.6924 16.4601 12.5759 16.4352 12.467 16.3891C12.3583 16.3431 12.2592 16.2767 12.1756 16.1934C12.0923 16.1102 12.0262 16.0116 11.9805 15.9031C11.9347 15.7942 11.9108 15.6773 11.9102 15.5592V10.0947C11.911 9.97706 11.935 9.86073 11.9805 9.75224C12.0257 9.64307 12.0919 9.54387 12.1756 9.46054C12.259 9.37711 12.3581 9.31084 12.467 9.2653C12.5759 9.21978 12.6926 9.19634 12.8106 9.19641H14.6556C14.8046 9.19708 14.9533 9.21219 15.0994 9.24146C15.244 9.27121 15.3851 9.31468 15.5213 9.37143C15.6574 9.42834 15.7879 9.49817 15.9107 9.57985C16.0346 9.6624 16.1504 9.75673 16.2561 9.86156C16.3615 9.96732 16.4562 10.0831 16.5391 10.2072C16.6211 10.3298 16.6911 10.4601 16.7483 10.596C16.805 10.7321 16.8486 10.8733 16.8784 11.0177C16.9077 11.1635 16.9226 11.3118 16.9232 11.4605V15.5557C16.9233 15.6743 16.9005 15.7916 16.8556 15.9013C16.8099 16.0106 16.7433 16.1101 16.66 16.1943C16.5763 16.277 16.4773 16.3423 16.3682 16.3864C16.2603 16.4355 16.143 16.4614 16.0245 16.4625ZM13.6298 10.4691C13.5719 10.4691 13.5142 10.4804 13.4606 10.5026C13.4071 10.5249 13.3586 10.5575 13.3178 10.5987C13.2358 10.6816 13.1891 10.7931 13.1877 10.9097V14.7479C13.1885 14.8646 13.2352 14.9764 13.3178 15.0589C13.4009 15.1414 13.5128 15.1886 13.6298 15.1907H15.2049C15.2632 15.1909 15.3208 15.1787 15.3741 15.1551C15.4275 15.1335 15.4759 15.1015 15.5169 15.0611C15.5579 15.0199 15.5904 14.9712 15.6127 14.9176C15.6349 14.8638 15.6463 14.8061 15.6461 14.7479V11.5811C15.6446 11.2866 15.5269 11.0046 15.3183 10.7966C15.11 10.5884 14.8279 10.4708 14.5334 10.4691H13.6298Z" fill="#9496B3" />
</svg>