<svg width="18" height="19" viewBox="0 0 18 19" fill="none" xmlns="http://www.w3.org/2000/svg">
    <path d="M12.1971 8.08971C10.8921 8.08971 10.2617 7.4535 10.2617 6.1548V3.5317C10.2617 2.2267 10.8984 1.59668 12.1971 1.59668H14.8206C16.1256 1.59668 16.7555 2.233 16.7555 3.5317V6.1548C16.7555 7.4535 16.1193 8.08971 14.8206 8.08971H12.1971ZM11.33 3.58575V6.09987C11.33 6.83427 11.5172 7.02096 12.252 7.02096H14.7661C15.5005 7.02096 15.6872 6.83427 15.6872 6.09987V3.58575C15.6872 2.85135 15.5005 2.66455 14.7661 2.66455H12.252C11.5176 2.66455 11.3305 2.85134 11.3305 3.58619L11.33 3.58575Z" fill="#9496B3" />
    <path d="M3.17754 17.1083C1.87254 17.1083 1.24219 16.4721 1.24219 15.1734V12.5503C1.24219 11.2453 1.87884 10.6152 3.17754 10.6152H5.80107C7.10607 10.6152 7.73599 11.2516 7.73599 12.5503V15.1734C7.73599 16.4721 7.09977 17.1083 5.80107 17.1083H3.17754ZM2.3105 12.6043V15.1184C2.3105 15.8528 2.49762 16.0395 3.23247 16.0395H5.74658C6.48098 16.0395 6.66768 15.8528 6.66768 15.1184V12.6043C6.66768 11.8699 6.48098 11.6831 5.74658 11.6831H3.23247C2.49807 11.6831 2.31094 11.8699 2.31094 12.6047L2.3105 12.6043Z" fill="#9496B3" />
    <path d="M6.31084 8.81055H3.39619C1.94584 8.81055 1.24609 8.1684 1.24609 6.8409V3.56535C1.24609 2.23785 1.95304 1.5957 3.39619 1.5957H6.31084C7.76119 1.5957 8.46095 2.23785 8.46095 3.56535V6.8337C8.46095 8.1684 7.75399 8.81055 6.31084 8.81055ZM3.39619 2.6757C2.42914 2.6757 2.32609 2.952 2.32609 3.56535V6.8337C2.32609 7.45425 2.42689 7.7211 3.39394 7.7211H6.30859C7.27519 7.7211 7.37644 7.44705 7.37644 6.8337V3.56535C7.37869 2.9457 7.27609 2.6757 6.31084 2.6757H3.39619Z" fill="#9496B3" />
    <path d="M12.8776 17.1092C12.7348 17.1086 12.598 17.0515 12.4972 16.9503C12.3964 16.8491 12.3398 16.712 12.3398 16.5692V9.86197C12.3404 9.71953 12.3973 9.5831 12.498 9.48238C12.5987 9.38166 12.7352 9.32481 12.8776 9.32422C13.02 9.32493 13.1563 9.38183 13.2569 9.48253C13.3575 9.58324 13.4143 9.71961 13.4149 9.86197V16.5692C13.4149 16.712 13.3584 16.8489 13.2577 16.9501C13.157 17.0513 13.0203 17.1085 12.8776 17.1092Z" fill="#9496B3" />
    <path d="M8.98453 13.2165C8.98513 13.0736 9.04228 12.9369 9.14349 12.8361C9.24469 12.7353 9.3817 12.6787 9.52453 12.6787H16.2318C16.3742 12.6793 16.5107 12.7361 16.6114 12.8369C16.7121 12.9376 16.7689 13.074 16.7695 13.2165C16.7688 13.3588 16.7119 13.4951 16.6112 13.5958C16.5105 13.6964 16.3741 13.7532 16.2318 13.7538H9.52453C9.38178 13.7538 9.24484 13.6972 9.14364 13.5966C9.04245 13.4959 8.98524 13.3592 8.98453 13.2165Z" fill="#9496B3" />
</svg>
    