<svg width="18" height="18" viewBox="0 0 18 18" fill="none" xmlns="http://www.w3.org/2000/svg">
    <path fill-rule="evenodd" clip-rule="evenodd" d="M10.8899 3.94625C10.8899 3.8472 10.9347 3.75219 11.0144 3.68215C11.094 3.6121 11.2021 3.57275 11.3148 3.57275H13.0751C13.1877 3.57275 13.2958 3.6121 13.3755 3.68215C13.4552 3.75219 13.4999 3.8472 13.4999 3.94625C13.4999 3.95814 13.4993 3.96997 13.498 3.98171C13.4993 3.99591 13.4999 4.01024 13.4999 4.02465V5.78492C13.4999 5.8976 13.4606 6.00567 13.3905 6.08535C13.3205 6.16502 13.2255 6.20979 13.1264 6.20979C13.0274 6.20979 12.9324 6.16502 12.8623 6.08535C12.7923 6.00567 12.7529 5.8976 12.7529 5.78492V4.81566L11.0325 6.53612C11.0663 6.58303 11.0992 6.63065 11.1312 6.67894C11.2837 6.91015 11.4131 7.15589 11.5172 7.41257C11.6195 7.66499 11.697 7.92673 11.7488 8.19411C11.8001 8.45954 11.826 8.72926 11.826 8.99961C11.826 9.26995 11.8001 9.53968 11.7488 9.80511C11.697 10.0725 11.6195 10.3342 11.5172 10.5866C11.413 10.8433 11.2837 11.089 11.1312 11.3203C10.9737 11.5584 10.7926 11.78 10.5908 11.9819C10.389 12.1838 10.1673 12.3649 9.92917 12.5223C9.69798 12.6748 9.4523 12.8041 9.19568 12.9083C8.94324 13.0105 8.68148 13.0881 8.41408 13.1399C8.2788 13.1661 8.14241 13.1856 8.0054 13.1985V14.6698H8.72131C8.83817 14.6698 8.95024 14.7091 9.03287 14.7791C9.11549 14.8492 9.16191 14.9442 9.16191 15.0433C9.16191 15.1423 9.11549 15.2373 9.03287 15.3074C8.95024 15.3774 8.83817 15.4168 8.72131 15.4168H8.0054V16.1326C8.0054 16.2495 7.96604 16.3616 7.896 16.4442C7.82595 16.5268 7.73095 16.5732 7.6319 16.5732C7.53284 16.5732 7.43784 16.5268 7.36779 16.4442C7.29775 16.3616 7.2584 16.2495 7.2584 16.1326V15.4168H6.54251C6.42566 15.4168 6.31359 15.3774 6.23096 15.3074C6.14833 15.2373 6.10191 15.1423 6.10191 15.0433C6.10191 14.9442 6.14833 14.8492 6.23096 14.7791C6.31359 14.7091 6.42566 14.6698 6.54251 14.6698H7.2584V13.2026C7.10569 13.1899 6.9537 13.169 6.80309 13.1399C6.53575 13.0881 6.27407 13.0106 6.02165 12.9084C5.76498 12.8042 5.51923 12.6749 5.28803 12.5223C5.04993 12.3649 4.82832 12.1838 4.62655 11.9819C4.42461 11.7801 4.24352 11.5584 4.08603 11.3203C3.93352 11.0891 3.80423 10.8434 3.70007 10.5868C3.5978 10.3343 3.52027 10.0726 3.46855 9.80514C3.41719 9.53971 3.39131 9.26999 3.39124 8.99963C3.39129 8.72929 3.41714 8.45956 3.46847 8.19414C3.52026 7.92675 3.59783 7.66502 3.7001 7.4126C3.80427 7.15594 3.93356 6.9102 4.08606 6.67897C4.24354 6.44086 4.42463 6.21923 4.62658 6.01745C4.82837 5.81552 5.04998 5.63443 5.28806 5.47692C5.51928 5.3244 5.76502 5.19511 6.02168 5.09094C6.27408 4.98868 6.5358 4.9111 6.80315 4.85928C6.9271 4.83527 7.05404 4.8166 7.18042 4.80379C7.25549 4.79735 7.44981 4.78239 7.63216 4.78239C7.81069 4.78239 7.97657 4.79692 8.03968 4.80316V4.80404C8.16491 4.81687 8.29092 4.83546 8.41419 4.85924C8.68155 4.91106 8.94327 4.98865 9.19568 5.09091C9.45234 5.195 9.69803 5.3243 9.92917 5.47689C10.1485 5.62185 10.3537 5.78685 10.5424 5.96973L12.1924 4.31975H11.3148C11.2021 4.31975 11.094 4.2804 11.0144 4.21036C10.9347 4.14031 10.8899 4.04531 10.8899 3.94625ZM5.41601 11.1975C5.85603 11.6375 6.41665 11.9371 7.02698 12.0586C7.63731 12.18 8.26994 12.1177 8.84486 11.8795C9.41977 11.6414 9.91117 11.2381 10.2569 10.7207C10.6026 10.2033 10.7872 9.59499 10.7872 8.9727C10.7872 8.35042 10.6027 7.7421 10.2569 7.22468C9.91123 6.70726 9.41985 6.30398 8.84494 6.06583C8.27003 5.82768 7.63741 5.76535 7.02707 5.88674C6.41674 6.00813 5.85611 6.30777 5.41607 6.74778C4.82687 7.3383 4.49596 8.13842 4.49595 8.97261C4.49594 9.8068 4.82682 10.6069 5.41601 11.1975Z" fill="#2F2F3D" />
</svg>
    