<svg width="18" height="18" viewBox="0 0 18 18" fill="none" xmlns="http://www.w3.org/2000/svg">
    <path fill-rule="evenodd" clip-rule="evenodd" d="M10.8893 3.94625C10.8893 3.8472 10.9341 3.75219 11.0138 3.68215C11.0934 3.6121 11.2015 3.57275 11.3142 3.57275H13.0745C13.1871 3.57275 13.2952 3.6121 13.3749 3.68215C13.4546 3.75219 13.4993 3.8472 13.4993 3.94625C13.4993 3.95814 13.4987 3.96997 13.4974 3.98171C13.4987 3.99591 13.4993 4.01024 13.4993 4.02465V5.78492C13.4993 5.8976 13.46 6.00567 13.3899 6.08535C13.3199 6.16502 13.2249 6.20979 13.1258 6.20979C13.0268 6.20979 12.9318 6.16502 12.8617 6.08535C12.7917 6.00567 12.7523 5.8976 12.7523 5.78492V4.81566L11.0319 6.53612C11.0657 6.58303 11.0986 6.63065 11.1306 6.67894C11.2831 6.91015 11.4125 7.15589 11.5166 7.41257C11.6189 7.66499 11.6964 7.92673 11.7481 8.19411C11.7995 8.45954 11.8254 8.72926 11.8254 8.99961C11.8253 9.26995 11.7995 9.53968 11.7481 9.80511C11.6964 10.0725 11.6188 10.3342 11.5166 10.5866C11.4124 10.8433 11.2831 11.089 11.1306 11.3203C10.9731 11.5584 10.792 11.78 10.5901 11.9819C10.3883 12.1838 10.1667 12.3649 9.92856 12.5223C9.69737 12.6748 9.45169 12.8041 9.19507 12.9083C8.94263 13.0105 8.68087 13.0881 8.41347 13.1399C8.27819 13.1661 8.1418 13.1856 8.00478 13.1985V14.6698H8.7207C8.83756 14.6698 8.94963 14.7091 9.03225 14.7791C9.11488 14.8492 9.1613 14.9442 9.1613 15.0433C9.1613 15.1423 9.11488 15.2373 9.03225 15.3074C8.94963 15.3774 8.83756 15.4168 8.7207 15.4168H8.00478V16.1326C8.00478 16.2495 7.96543 16.3616 7.89539 16.4442C7.82534 16.5268 7.73034 16.5732 7.63128 16.5732C7.53223 16.5732 7.43723 16.5268 7.36718 16.4442C7.29714 16.3616 7.25778 16.2495 7.25778 16.1326V15.4168H6.5419C6.42505 15.4168 6.31298 15.3774 6.23035 15.3074C6.14772 15.2373 6.1013 15.1423 6.1013 15.0433C6.1013 14.9442 6.14772 14.8492 6.23035 14.7791C6.31298 14.7091 6.42505 14.6698 6.5419 14.6698H7.25778V13.2026C7.10508 13.1899 6.95309 13.169 6.80248 13.1399C6.53514 13.0881 6.27346 13.0106 6.02104 12.9084C5.76437 12.8042 5.51862 12.6749 5.28742 12.5223C5.04932 12.3649 4.82771 12.1838 4.62594 11.9819C4.424 11.7801 4.24291 11.5584 4.08542 11.3203C3.93291 11.0891 3.80362 10.8434 3.69946 10.5868C3.59719 10.3343 3.51966 10.0726 3.46794 9.80514C3.41658 9.53971 3.3907 9.26999 3.39062 8.99963C3.39068 8.72929 3.41653 8.45956 3.46786 8.19414C3.51965 7.92675 3.59721 7.66502 3.69949 7.4126C3.80366 7.15594 3.93294 6.9102 4.08545 6.67897C4.24293 6.44086 4.42402 6.21923 4.62597 6.01745C4.82776 5.81552 5.04936 5.63443 5.28745 5.47692C5.51867 5.3244 5.76441 5.19511 6.02107 5.09094C6.27347 4.98868 6.53518 4.9111 6.80254 4.85928C6.92649 4.83527 7.05343 4.8166 7.17981 4.80379C7.25488 4.79735 7.4492 4.78239 7.63155 4.78239C7.81008 4.78239 7.97596 4.79692 8.03907 4.80316V4.80404C8.1643 4.81687 8.29031 4.83546 8.41358 4.85924C8.68094 4.91106 8.94266 4.98865 9.19507 5.09091C9.45173 5.195 9.69742 5.3243 9.92856 5.47689C10.1478 5.62185 10.3531 5.78685 10.5418 5.96973L12.1918 4.31975H11.3142C11.2015 4.31975 11.0934 4.2804 11.0138 4.21036C10.9341 4.14031 10.8893 4.04531 10.8893 3.94625ZM5.4154 11.1975C5.85542 11.6375 6.41604 11.9371 7.02637 12.0586C7.6367 12.18 8.26933 12.1177 8.84425 11.8795C9.41916 11.6414 9.91056 11.2381 10.2563 10.7207C10.602 10.2033 10.7866 9.59499 10.7866 8.9727C10.7866 8.35042 10.6021 7.7421 10.2563 7.22468C9.91062 6.70726 9.41924 6.30398 8.84433 6.06583C8.26942 5.82768 7.6368 5.76535 7.02646 5.88674C6.41613 6.00813 5.8555 6.30777 5.41546 6.74778C4.82626 7.3383 4.49535 8.13842 4.49534 8.97261C4.49532 9.8068 4.82621 10.6069 5.4154 11.1975Z" fill="#EFF1F8" />
</svg>
    