<svg width="18" height="19" viewBox="0 0 18 19" fill="none" xmlns="http://www.w3.org/2000/svg">
    <g clip-path="url(#clip0_930_33574)">
        <path d="M9.52158 17.1218H9.00171C8.93336 17.1219 8.86537 17.1086 8.8022 17.0825C8.73903 17.0563 8.68176 17.0181 8.63345 16.9697C8.58505 16.9215 8.54662 16.8641 8.52051 16.801C8.4944 16.7379 8.48119 16.6702 8.4814 16.6019V15.0572C8.48322 14.7829 8.37745 14.5187 8.18697 14.3214C8.09299 14.2243 7.98056 14.1473 7.85606 14.0948C7.73156 14.0424 7.59783 14.0158 7.46275 14.0164C7.32758 14.0158 7.19358 14.0424 7.069 14.0948C6.94441 14.1473 6.83168 14.2243 6.73765 14.3214C6.5472 14.5188 6.44144 14.783 6.44322 15.0572V16.6019C6.44331 16.6702 6.42985 16.7379 6.40366 16.801C6.37748 16.8641 6.33916 16.9216 6.29072 16.9697C6.24254 17.0181 6.18508 17.0563 6.12197 17.0825C6.05887 17.1086 5.9912 17.122 5.9229 17.1218H2.77862C2.5815 17.1221 2.38617 17.0825 2.20469 17.0055C2.02953 16.9318 1.87031 16.8249 1.73579 16.6907C1.60161 16.5561 1.49457 16.3969 1.4207 16.2218C1.34396 16.0402 1.30456 15.8452 1.30469 15.6481V12.4836C1.30453 12.4152 1.31806 12.3475 1.34424 12.2843C1.37042 12.2211 1.40869 12.1638 1.45718 12.1155C1.50543 12.0671 1.56275 12.0286 1.62593 12.0024C1.68911 11.9762 1.75705 11.9629 1.82544 11.963H2.64898L3.3688 11.9846C3.6447 11.9843 3.90931 11.8746 4.10445 11.6796C4.29958 11.4845 4.40951 11.2201 4.40987 10.9442C4.40963 10.6683 4.29993 10.4037 4.10489 10.2085C3.90984 10.0134 3.64514 9.90368 3.36924 9.90333L2.65205 9.92486H1.82544C1.75704 9.92504 1.68912 9.91171 1.62593 9.88553C1.56274 9.85934 1.5054 9.82088 1.45718 9.77237C1.40867 9.72415 1.37043 9.66681 1.34424 9.60362C1.31805 9.54043 1.30451 9.47272 1.30469 9.40433V6.27982C1.30443 6.08256 1.34383 5.88733 1.4207 5.70567C1.49467 5.53062 1.6017 5.37143 1.73579 5.23677C1.87013 5.10229 2.0294 4.99521 2.20469 4.92169C2.38615 4.84468 2.58149 4.80527 2.77862 4.80567H5.40259V3.70001C5.40205 3.42438 5.45687 3.15161 5.56431 2.89778C5.61597 2.77513 5.67952 2.65773 5.75415 2.54754C5.82813 2.43823 5.91262 2.33633 6.00596 2.243C6.09964 2.14973 6.20166 2.06534 6.31094 1.99097C6.42133 1.91668 6.53871 1.85314 6.66118 1.80113C6.91489 1.69388 7.18774 1.63876 7.46319 1.63941C7.73862 1.63885 8.01101 1.69396 8.26475 1.80113C8.38708 1.85315 8.50432 1.91668 8.61455 1.99097C8.72375 2.06528 8.82564 2.14967 8.91909 2.243C9.01277 2.33614 9.09741 2.43806 9.17134 2.54754C9.2458 2.65783 9.30934 2.77523 9.36118 2.89778C9.46857 3.15161 9.52325 3.4244 9.52246 3.70001V4.80567H12.1469C12.344 4.80527 12.5393 4.84468 12.7208 4.92169C12.896 4.99532 13.0553 5.10239 13.1897 5.23677C13.3241 5.3712 13.4311 5.53044 13.5048 5.70567C13.5818 5.88727 13.6213 6.08254 13.6208 6.27982V8.88402H14.7309C15.0063 8.88337 15.2792 8.93826 15.5329 9.04551C15.6553 9.09732 15.7726 9.16108 15.8827 9.23558C15.9922 9.3095 16.0942 9.39355 16.1876 9.48694C16.2812 9.58025 16.3653 9.68253 16.439 9.79214C16.5138 9.90235 16.5774 10.0195 16.6293 10.1422C16.7368 10.3958 16.7921 10.6687 16.7915 10.9442C16.7921 11.2197 16.7368 11.4923 16.6293 11.746C16.5775 11.8685 16.5138 11.9857 16.439 12.0958C16.3651 12.2053 16.2811 12.3073 16.1876 12.4007C16.0941 12.4941 15.9921 12.5783 15.8827 12.6523C15.7725 12.7266 15.6552 12.79 15.5329 12.8417C15.2792 12.9492 15.0063 13.0044 14.7309 13.0039H13.6208V15.6481C13.6211 15.8452 13.5817 16.0403 13.5048 16.2218C13.431 16.3969 13.324 16.5562 13.1897 16.6907C13.0552 16.825 12.896 16.9318 12.7208 17.0055C12.5393 17.0825 12.344 17.1221 12.1469 17.1218H9.52158ZM7.46187 12.9534C7.73734 12.9529 8.01016 13.008 8.26387 13.1153C8.38637 13.167 8.50364 13.2307 8.61367 13.3054C8.72312 13.3791 8.82504 13.4634 8.91822 13.5569C9.01177 13.6504 9.0964 13.7524 9.17046 13.8619C9.24498 13.972 9.30852 14.0891 9.3603 14.2115C9.46777 14.4653 9.52246 14.7383 9.52158 15.0139V16.1025H12.081C12.219 16.1024 12.3512 16.0474 12.4488 15.9498C12.5464 15.8521 12.6016 15.72 12.6017 15.5819L12.6193 12.871L12.6232 12.4831C12.6226 12.4163 12.6357 12.3502 12.6619 12.2887C12.6881 12.2272 12.7267 12.1717 12.7753 12.1259C12.8752 12.0333 13.0065 11.9826 13.1427 11.9841H14.6882C14.9641 11.9839 15.2284 11.8742 15.4234 11.6792C15.6185 11.4841 15.7282 11.2196 15.7284 10.9437C15.7282 10.6678 15.6185 10.4032 15.4234 10.2081C15.2284 10.013 14.9641 9.90324 14.6882 9.90289H13.1317C12.9978 9.90448 12.8687 9.85363 12.7718 9.76116C12.7244 9.71462 12.6867 9.65888 12.6615 9.59747C12.6363 9.53605 12.624 9.47027 12.625 9.40389L12.621 9.05452L12.6035 6.34376C12.6032 6.20579 12.5481 6.07367 12.4505 5.97615C12.3529 5.87864 12.2207 5.82378 12.0827 5.82366L9.41524 5.80608H9.00347C8.93513 5.80618 8.86712 5.79285 8.80396 5.76675C8.74079 5.74065 8.68355 5.70234 8.63521 5.65403C8.58676 5.6058 8.54838 5.54825 8.52227 5.48506C8.49616 5.42188 8.48289 5.35414 8.48316 5.28577V3.74197C8.48548 3.60646 8.46078 3.47173 8.41065 3.34581C8.36052 3.21989 8.28575 3.10514 8.19092 3.00831C8.0961 2.91147 7.98309 2.83453 7.85825 2.78177C7.73341 2.72901 7.5996 2.70165 7.46407 2.70113C7.32851 2.70165 7.1943 2.72901 7.06944 2.78177C6.94457 2.83452 6.83119 2.91148 6.73633 3.00831C6.64147 3.10513 6.56678 3.21988 6.5166 3.34581C6.46642 3.47173 6.44183 3.60644 6.44409 3.74197V5.28577C6.44423 5.35416 6.43073 5.42189 6.40454 5.48506C6.37836 5.54824 6.34007 5.60579 6.2916 5.65403C6.24339 5.70239 6.18595 5.74065 6.12285 5.76675C6.05975 5.79286 5.99207 5.80624 5.92378 5.80608H5.59815L2.84409 5.82366C2.70612 5.82378 2.57387 5.87864 2.47627 5.97615C2.37867 6.07367 2.32358 6.20579 2.32334 6.34376V8.88358H3.41187C3.68732 8.88284 3.96019 8.93774 4.21387 9.04507C4.33637 9.09674 4.45364 9.16051 4.56367 9.23514C4.67339 9.30895 4.77559 9.39301 4.86909 9.48651C4.96248 9.57995 5.04697 9.68222 5.1209 9.79171C5.19552 9.90198 5.2592 10.0192 5.31118 10.1417C5.41835 10.3955 5.47303 10.6683 5.47246 10.9437C5.47304 11.2192 5.41837 11.4918 5.31118 11.7455C5.25913 11.8679 5.19545 11.9852 5.1209 12.0953C5.0472 12.205 4.9627 12.307 4.86909 12.4003C4.77553 12.4937 4.67334 12.578 4.56367 12.6519C4.45367 12.7264 4.33639 12.7898 4.21387 12.8413C3.96023 12.9488 3.68736 13.0041 3.41187 13.0034H2.32334V15.5824C2.32358 15.7204 2.37868 15.8526 2.47627 15.9502C2.57386 16.0478 2.70608 16.1027 2.84409 16.1029H5.40347V15.0144C5.4029 14.7388 5.45772 14.4658 5.56519 14.2119C5.61702 14.0895 5.68056 13.9725 5.75503 13.8624C5.82917 13.753 5.91364 13.651 6.00684 13.5574C6.10046 13.4642 6.20249 13.3799 6.31182 13.3058C6.42191 13.231 6.53934 13.1674 6.66206 13.1159C6.91513 13.0086 7.18696 12.9532 7.46187 12.9534Z" fill="#9496B3" />
    </g>
    <defs>
        <clipPath id="clip0_930_33574">
            <rect width="18" height="18" fill="white" transform="translate(0 0.401123)" />
        </clipPath>
    </defs>
</svg>
    