<svg width="17" height="19" viewBox="0 0 17 19" fill="none" xmlns="http://www.w3.org/2000/svg">
    <g clip-path="url(#clip0_1587_71815)">
        <path d="M6.41915 17.3407C2.74161 17.3407 1.17041 15.6684 1.17041 11.7519V7.42621C1.17041 3.51101 2.74118 1.8374 6.41915 1.8374H10.4832C14.1607 1.8374 15.7327 3.51011 15.7327 7.42621V11.7519C15.7327 15.667 14.1607 17.3407 10.4832 17.3407H6.41915ZM2.1859 7.42621V11.7519C2.1859 15.0757 3.29662 16.2598 6.41915 16.2598H10.4832C13.6048 16.2598 14.716 15.0762 14.716 11.7519V7.42621C14.716 4.10234 13.6048 2.91884 10.4832 2.91884H6.41915C3.29831 2.91884 2.18755 4.10237 2.18755 7.42489L2.1859 7.42621ZM8.24826 13.7913C7.9047 13.6324 7.59561 13.3993 7.34093 13.1069C6.81775 12.5114 6.52682 11.7266 6.52689 10.9112C6.52743 10.0962 6.81829 9.31157 7.34093 8.71596L8.07819 7.88755C8.1237 7.83382 8.17899 7.79063 8.24083 7.76065C8.30182 7.73045 8.36768 7.71303 8.43485 7.70934C8.50251 7.70665 8.5703 7.7181 8.63382 7.74307C8.69667 7.769 8.75388 7.8078 8.80265 7.85733C8.85139 7.90685 8.89077 7.96599 8.91824 8.03147C8.94576 8.09705 8.95999 8.16807 8.96034 8.2399C8.96189 8.31224 8.94927 8.38413 8.92319 8.45095C8.89861 8.51817 8.86159 8.57935 8.81421 8.63092L8.0753 9.46482C7.72946 9.85712 7.53685 10.375 7.53701 10.913C7.53667 11.4516 7.72928 11.97 8.0753 12.3629C8.24013 12.5417 8.43676 12.6839 8.65363 12.7811C8.87046 12.878 9.10331 12.9278 9.33847 12.9278C9.57388 12.9277 9.80696 12.8778 10.0241 12.7811C10.2408 12.684 10.4367 12.5417 10.6012 12.3629L12.0848 10.7047C12.4306 10.3119 12.6227 9.79346 12.6223 9.25508C12.6229 8.71666 12.4308 8.19829 12.0848 7.80558C11.7969 7.4782 11.4068 7.27333 10.9876 7.2291C10.8538 7.21451 10.7309 7.14441 10.6454 7.03387C10.5608 6.92256 10.5206 6.78036 10.5331 6.63779C10.5389 6.56664 10.5584 6.49757 10.5905 6.43486C10.6217 6.37192 10.6648 6.31656 10.7172 6.27237C10.7687 6.22717 10.828 6.19325 10.8918 6.17249C10.9563 6.15254 11.0238 6.14682 11.0904 6.15579C11.7511 6.22654 12.3663 6.54736 12.8237 7.0599C13.3465 7.65557 13.6371 8.44045 13.6369 9.25563C13.6373 10.0709 13.3466 10.8557 12.8237 11.4512L11.3405 13.1092C11.0838 13.4016 10.7736 13.6346 10.4287 13.7937C10.0835 13.9521 9.7115 14.0338 9.33558 14.0335H9.3265C8.9559 14.0315 8.58962 13.9491 8.24992 13.7913H8.24826ZM5.81688 13.0263C5.1548 12.9566 4.53875 12.6334 4.08353 12.1168C3.56117 11.5211 3.27071 10.7366 3.27073 9.92166C3.27111 9.10666 3.56151 8.32203 4.08353 7.72593L5.56713 6.06812C5.82368 5.77677 6.13326 5.5444 6.47736 5.38539C6.82065 5.22702 7.19094 5.1454 7.56508 5.14555C7.93978 5.14525 8.31061 5.22688 8.65446 5.38539C8.99778 5.54492 9.30717 5.77724 9.56344 6.06812C10.0857 6.66405 10.3762 7.44868 10.3762 8.26374C10.3763 9.07868 10.0858 9.86324 9.56344 10.4589L8.82494 11.2888C8.77964 11.3422 8.72439 11.3855 8.66313 11.4161C8.602 11.4461 8.53596 11.4631 8.4687 11.4661C8.40075 11.4684 8.33314 11.4569 8.26932 11.4319C8.2067 11.4063 8.14912 11.3681 8.10007 11.3194C8.05098 11.2697 8.01197 11.21 7.9849 11.1438C7.95831 11.0779 7.94371 11.0072 7.94238 10.9355C7.94102 10.8636 7.95405 10.7922 7.97995 10.7258C8.00446 10.6583 8.04179 10.5971 8.08975 10.5458L8.82742 9.7173C9.17329 9.32441 9.3657 8.80627 9.36612 8.2678C9.36562 7.72935 9.17322 7.21124 8.82742 6.8183C8.66228 6.64019 8.46534 6.49893 8.24826 6.40289C8.03158 6.30601 7.79886 6.25616 7.56384 6.25621C7.32884 6.25625 7.09613 6.30609 6.87942 6.40289C6.66261 6.49922 6.46586 6.64045 6.30068 6.8183L4.81832 8.47655C4.4723 8.86934 4.27987 9.38766 4.27961 9.92616C4.27987 10.4647 4.4723 10.9829 4.81832 11.3757C5.10673 11.7036 5.49762 11.9087 5.9176 11.9526C5.98334 11.9601 6.04699 11.9814 6.10501 12.0151C6.16304 12.0488 6.21422 12.0944 6.25568 12.1492C6.34103 12.2596 6.3816 12.4016 6.36879 12.5439C6.35708 12.6767 6.29876 12.7999 6.20532 12.8887C6.11297 12.9785 5.99232 13.0279 5.86724 13.0272L5.81688 13.0263Z" fill="#9496B3" />
    </g>
    <defs>
        <clipPath id="clip0_1587_71815">
            <rect width="16.9074" height="18" fill="white" transform="translate(-0.000488281 0.589355)" />
        </clipPath>
    </defs>
</svg>
    