<svg width="18" height="18" viewBox="0 0 18 18" fill="none" xmlns="http://www.w3.org/2000/svg">
    <g clip-path="url(#clip0_796_37411)">
        <g clip-path="url(#clip1_796_37411)">
            <path d="M12.7857 15.5478L12.1735 15.3876C11.9575 15.3277 11.7727 15.1869 11.658 14.9943C11.5462 14.7998 11.5165 14.5688 11.5749 14.3521C11.6012 14.2863 11.6108 14.215 11.6035 14.1445C11.5962 14.074 11.5723 14.0062 11.5332 13.9471C11.4744 13.9072 11.4064 13.8822 11.3359 13.8744C11.2653 13.8665 11.1941 13.8761 11.128 13.9021C11.0211 13.9311 10.9095 13.9387 10.7997 13.9245C10.6899 13.9103 10.5841 13.8746 10.4881 13.8193C10.3922 13.7641 10.3081 13.6905 10.2407 13.6027C10.1732 13.5149 10.1238 13.4146 10.0952 13.3076L9.94799 12.7649C9.89183 12.548 9.92343 12.3177 10.0359 12.124C10.1483 11.9302 10.3326 11.7886 10.5488 11.7298C10.7288 11.6799 10.8479 11.5948 10.8744 11.4927C10.8812 11.4219 10.8699 11.3506 10.841 11.2856C10.8121 11.2207 10.7671 11.1642 10.71 11.1218C10.6321 11.0436 10.5707 10.9504 10.5299 10.8478C10.5433 11.0047 10.5282 11.1626 10.485 11.314C10.442 11.4858 10.3641 11.6469 10.2561 11.7872C10.1481 11.9276 10.012 12.0443 9.85702 12.1299L8.97719 12.634C8.78995 12.7385 8.57946 12.7936 8.365 12.7941C8.25619 12.7938 8.14744 12.781 8.04155 12.7559C7.72915 12.6705 7.462 12.468 7.29488 12.1906L7.23599 12.0889C6.93358 11.5714 6.52178 11.5714 6.22432 12.0889L6.16807 12.1862C6.08726 12.3257 5.97985 12.4478 5.85165 12.5456C5.72344 12.6434 5.57733 12.7149 5.4214 12.7559C5.31765 12.7842 5.21074 12.7993 5.10322 12.8009C4.88727 12.8002 4.67532 12.7416 4.48971 12.6312L3.61604 12.1272C3.46238 12.0389 3.32774 11.9213 3.21963 11.7809C3.11152 11.6405 3.03233 11.4801 2.98627 11.309C2.8951 10.9643 2.94225 10.5975 3.11767 10.287C3.18693 10.1975 3.23262 10.0919 3.25039 9.98007C3.26816 9.86824 3.25727 9.75375 3.21919 9.64711C3.14607 9.56085 3.05268 9.49434 2.94715 9.45369C2.84163 9.41304 2.72745 9.39956 2.61535 9.41447C2.25838 9.41351 1.91622 9.27122 1.66389 9.01872C1.41156 8.76622 1.26951 8.42406 1.2688 8.06709V7.17424C1.26951 6.81727 1.41156 6.47511 1.66389 6.22261C1.91622 5.97011 2.25838 5.82782 2.61535 5.82687C2.72768 5.84146 2.84205 5.82756 2.94759 5.78643C3.05313 5.7453 3.14636 5.67828 3.21919 5.59153C3.25855 5.48517 3.26996 5.37046 3.25215 5.25846C3.23434 5.14646 3.18809 5.04093 3.11767 4.95204C2.94244 4.64148 2.8953 4.27482 2.98627 3.93004C3.031 3.75836 3.10963 3.59745 3.21787 3.45689C3.32611 3.31633 3.46149 3.19901 3.61604 3.1119L4.49499 2.61013C4.77652 2.44768 5.11097 2.40285 5.42535 2.48543C5.73973 2.568 6.00885 2.77131 6.17422 3.05114L6.23311 3.15288C6.53417 3.67266 6.94503 3.67266 7.2461 3.15288L7.30059 3.0579C7.38154 2.9181 7.48904 2.7957 7.61746 2.69769C7.74587 2.59969 7.89238 2.52799 8.04858 2.4868C8.20478 2.44561 8.36801 2.4357 8.52805 2.45763C8.68809 2.47956 8.84223 2.53293 8.98159 2.61463L9.85702 3.1164C10.0109 3.20456 10.1456 3.3225 10.2534 3.46337C10.3612 3.60423 10.4402 3.76518 10.485 3.93679C10.5788 4.28035 10.5325 4.64706 10.3563 4.95654C10.2871 5.04658 10.2412 5.15244 10.2231 5.26456C10.205 5.37667 10.2151 5.4915 10.2525 5.59872C10.3265 5.68444 10.4207 5.7506 10.5263 5.79127C10.632 5.83193 10.7462 5.84588 10.8586 5.83186C11.2154 5.83305 11.557 5.97541 11.8092 6.22789C12.0613 6.48036 12.2031 6.82237 12.2038 7.17919V8.07203C12.2031 8.42885 12.0613 8.77091 11.8092 9.02339C11.557 9.27586 11.2154 9.41822 10.8586 9.41941C10.7462 9.40481 10.6317 9.41845 10.5259 9.45907C10.4201 9.49969 10.3262 9.566 10.2525 9.65206C10.2138 9.7587 10.2032 9.87351 10.2213 9.98551C10.2395 10.0975 10.2859 10.203 10.3563 10.292C10.4004 10.3698 10.4373 10.4517 10.4661 10.5364C10.4661 10.5319 10.4661 10.5269 10.4661 10.5224C10.4655 10.412 10.4868 10.3025 10.529 10.2004C10.5712 10.0983 10.6334 10.0057 10.7118 9.92794L11.1658 9.47792C11.3093 9.33389 11.5039 9.25259 11.7072 9.25175C11.9105 9.25091 12.1061 9.33058 12.2508 9.47341L12.308 9.52741C12.573 9.78977 12.8238 9.72409 12.9206 9.36272L12.9391 9.29476C12.9651 9.19693 13.01 9.10522 13.0718 9.02498C13.1335 8.94475 13.2106 8.87756 13.2986 8.82733C13.3865 8.7771 13.4833 8.74481 13.5838 8.73235C13.6842 8.71988 13.7864 8.72753 13.8839 8.75476L14.4966 8.91539C14.7131 8.97347 14.8977 9.11488 15.0103 9.30872C15.1235 9.50266 15.1559 9.73332 15.1004 9.9509C15.0712 10.0156 15.0596 10.0867 15.0666 10.1573C15.0735 10.2279 15.0987 10.2955 15.14 10.3532C15.1978 10.3943 15.2651 10.4199 15.3355 10.4278C15.406 10.4357 15.4771 10.4255 15.5425 10.3982C15.7593 10.3399 15.9904 10.37 16.185 10.4818C16.3796 10.5937 16.522 10.7783 16.5806 10.9949L16.7229 11.535C16.7519 11.6421 16.7597 11.7539 16.7454 11.864C16.731 11.974 16.6949 12.0801 16.6394 12.1763C16.584 12.2724 16.5104 12.3567 16.4223 12.4243C16.3343 12.4918 16.2338 12.5413 16.1266 12.57C15.9466 12.6218 15.827 12.7077 15.8 12.8099C15.7917 12.8808 15.803 12.9527 15.8321 13.0179C15.8613 13.0831 15.9073 13.1392 15.9657 13.1803C16.0439 13.259 16.1057 13.3526 16.1472 13.4555C16.1888 13.5585 16.2095 13.6687 16.2079 13.7797C16.2098 13.8908 16.1889 14.0011 16.1463 14.1037C16.1038 14.2064 16.0408 14.2992 15.9609 14.3764L15.5135 14.8264C15.4143 14.9192 15.2941 14.9867 15.1632 15.0231C15.0978 15.0414 15.0299 15.0505 14.962 15.0501C14.7605 15.0492 14.5674 14.9708 14.4223 14.8309L14.3656 14.7792C14.101 14.5146 13.8497 14.578 13.753 14.9398L13.7354 15.01C13.6826 15.2066 13.5539 15.3741 13.3777 15.4758C13.3182 15.5094 13.2551 15.536 13.1896 15.555C13.127 15.5704 13.0628 15.5779 12.9984 15.5775C12.9266 15.5773 12.8548 15.5673 12.7857 15.5478V15.5478ZM11.9722 13.5043C12.0673 13.613 12.1319 13.7449 12.1594 13.8866C12.1869 14.0284 12.1762 14.1748 12.1287 14.3112C12.1177 14.3541 12.1156 14.3989 12.1221 14.4428C12.1286 14.4867 12.1435 14.5288 12.1665 14.5668C12.2094 14.6439 12.2807 14.7015 12.3651 14.7274L12.9404 14.8786C13.0091 14.8962 13.0819 14.8882 13.1452 14.8562C13.2066 14.8164 13.2518 14.7566 13.2739 14.687L13.2915 14.6257C13.3181 14.4847 13.3811 14.3531 13.4743 14.2441C13.5676 14.135 13.6881 14.0523 13.8233 14.0042C13.9655 13.9749 14.1128 13.9845 14.25 14.032C14.3872 14.0796 14.5089 14.1632 14.6025 14.2742L14.6477 14.322C14.6994 14.3719 14.7684 14.3996 14.8402 14.3989C14.9103 14.3944 14.977 14.3674 15.0305 14.322L15.4458 13.8994C15.4776 13.8685 15.5031 13.8315 15.5205 13.7908C15.538 13.75 15.5473 13.7061 15.5478 13.6618C15.5476 13.5709 15.5129 13.4836 15.4507 13.4174C15.3405 13.3246 15.2569 13.2038 15.2094 13.0678C15.1619 12.9318 15.1519 12.7855 15.1804 12.6443C15.2264 12.5077 15.3082 12.386 15.4173 12.2918C15.5263 12.1976 15.6587 12.1344 15.8005 12.1088C15.8876 12.0847 15.962 12.0274 16.0075 11.9493C16.053 11.8712 16.066 11.7784 16.044 11.6907L15.909 11.1866C15.897 11.1435 15.8765 11.1031 15.8488 11.0678C15.8212 11.0325 15.7872 11.003 15.7482 10.981C15.7091 10.9589 15.6661 10.9448 15.6216 10.9394C15.5771 10.934 15.5321 10.9375 15.4889 10.9495C15.3527 10.996 15.2065 11.0061 15.0652 10.9787C14.924 10.9513 14.7927 10.8874 14.6838 10.7933C14.5886 10.6847 14.524 10.5525 14.4974 10.4106C14.4708 10.2687 14.4832 10.1222 14.5326 9.98644C14.5432 9.94346 14.545 9.89877 14.5383 9.85498C14.5317 9.8112 14.5164 9.76917 14.4935 9.73127C14.4502 9.65334 14.3782 9.59565 14.2926 9.57064L13.7204 9.41941C13.6858 9.40963 13.6498 9.40687 13.6141 9.41128C13.5784 9.41569 13.5438 9.42716 13.5126 9.44506C13.4814 9.46296 13.4544 9.4869 13.4326 9.51549C13.4108 9.54408 13.3946 9.57676 13.3856 9.61157L13.368 9.67502C13.3407 9.81673 13.2765 9.94871 13.1817 10.0575C13.0868 10.1662 12.965 10.2479 12.8283 10.2942C12.6875 10.3209 12.5421 10.31 12.4069 10.2626C12.2716 10.2152 12.1513 10.133 12.0579 10.0242L12.0126 9.97925C11.9786 9.9463 11.9364 9.92274 11.8905 9.91091C11.8446 9.89908 11.7965 9.89937 11.7507 9.91173C11.707 9.92691 11.6665 9.94978 11.6307 9.97925L11.2154 10.4C11.1825 10.4306 11.1562 10.4678 11.1385 10.5091C11.1209 10.5504 11.112 10.595 11.1126 10.6399C11.1127 10.7302 11.148 10.8169 11.211 10.8815C11.32 10.9758 11.4023 11.097 11.4497 11.2331C11.4971 11.3692 11.5082 11.5154 11.4813 11.6569C11.4346 11.793 11.3528 11.9142 11.244 12.0082C11.1352 12.1023 11.0034 12.1659 10.8621 12.1924C10.8186 12.2038 10.7775 12.2237 10.7417 12.2508C10.7059 12.278 10.676 12.312 10.6533 12.3509C10.6307 12.3897 10.6158 12.4327 10.6098 12.4772C10.6039 12.5218 10.607 12.5671 10.6186 12.6105L10.7536 13.1123C10.7771 13.199 10.8339 13.2729 10.9118 13.3178C10.9896 13.3626 11.082 13.3748 11.1689 13.3517C11.2624 13.3257 11.3588 13.3121 11.4558 13.3112C11.5503 13.3074 11.6446 13.3224 11.7331 13.3556C11.8216 13.3887 11.9027 13.4393 11.9713 13.5043H11.9722ZM4.87337 3.26357L3.99486 3.76985C3.92809 3.80854 3.86946 3.85999 3.82259 3.9213C3.77572 3.98261 3.74133 4.05255 3.72151 4.12714C3.70118 4.20071 3.69559 4.27759 3.70525 4.35331C3.71491 4.42902 3.73961 4.50204 3.77776 4.56815C3.9168 4.77243 3.99934 5.00981 4.01728 5.25626C4.03521 5.50272 3.98771 5.74952 3.87972 5.97178C3.74233 6.17755 3.55296 6.34298 3.33038 6.45103C3.10779 6.55908 2.86026 6.60589 2.61359 6.58655C2.45843 6.58655 2.30976 6.64818 2.20005 6.75789C2.09033 6.86761 2.02865 7.01639 2.02865 7.17155V8.0644C2.02865 8.21956 2.09033 8.36834 2.20005 8.47805C2.30976 8.58777 2.45843 8.64945 2.61359 8.64945C2.86043 8.63068 3.10783 8.67792 3.33038 8.78635C3.55292 8.89477 3.74236 9.06047 3.87972 9.26642C3.98774 9.48827 4.03522 9.73473 4.01728 9.98084C3.99934 10.2269 3.91682 10.4639 3.77776 10.6678C3.73962 10.7343 3.7149 10.8077 3.70525 10.8838C3.69559 10.9599 3.70119 11.0371 3.72151 11.1111C3.76167 11.2601 3.85841 11.3876 3.99135 11.4661L4.8703 11.9679C4.92177 12.0005 4.97963 12.0221 5.03993 12.0311C5.10024 12.0401 5.16179 12.0363 5.22056 12.0201C5.34248 11.9883 5.44663 11.9095 5.51061 11.8009L5.5673 11.706C5.67389 11.4836 5.8379 11.2934 6.04194 11.1548C6.24598 11.0162 6.48278 10.9342 6.72884 10.9171C6.97577 10.9324 7.21441 11.0137 7.41925 11.1525C7.6241 11.2912 7.7876 11.4824 7.89345 11.706L7.95058 11.8009C7.98051 11.8542 8.02113 11.9007 8.07012 11.9373C8.1191 11.9739 8.1753 11.9998 8.23492 12.0134C8.29267 12.0295 8.353 12.0338 8.41247 12.0261C8.47193 12.0184 8.52909 11.9987 8.58079 11.9684L9.45974 11.4621C9.59461 11.384 9.6933 11.2556 9.73397 11.1052C9.75454 11.0316 9.75997 10.9547 9.75023 10.879C9.74049 10.8032 9.71579 10.7301 9.67728 10.6642C9.53788 10.46 9.45475 10.2226 9.43688 9.97606C9.41902 9.72952 9.46681 9.48264 9.57532 9.26054C9.71254 9.0547 9.90213 8.88925 10.1247 8.78118C10.3472 8.67312 10.5948 8.62638 10.8414 8.64582C10.9184 8.64624 10.9944 8.6314 11.0656 8.60215C11.1367 8.5729 11.2015 8.52983 11.2559 8.47542C11.3103 8.42101 11.3536 8.35635 11.3829 8.28518C11.4121 8.21401 11.4268 8.13777 11.4264 8.06083V7.16523C11.4264 7.01007 11.3647 6.86129 11.255 6.75158C11.1453 6.64186 10.9966 6.58024 10.8414 6.58024C10.5949 6.5996 10.3475 6.55283 10.1251 6.44477C9.90265 6.33671 9.71294 6.17129 9.57576 5.96552C9.46721 5.74335 9.41946 5.49635 9.43732 5.24972C9.45519 5.0031 9.53828 4.76566 9.67772 4.56145C9.71619 4.49556 9.74093 4.42256 9.75067 4.34688C9.76041 4.2712 9.75494 4.19437 9.73441 4.12088C9.69412 3.97128 9.59705 3.84313 9.46413 3.76353L8.58474 3.26176C8.53177 3.23059 8.47334 3.21022 8.41247 3.20177C8.35159 3.19332 8.28955 3.19693 8.23008 3.21248C8.17062 3.22804 8.1151 3.25523 8.06616 3.29241C8.01722 3.32959 7.97579 3.37603 7.94486 3.42914L7.89125 3.52638C7.78426 3.7495 7.61963 3.94002 7.41442 4.0783C7.20921 4.21659 6.97097 4.29764 6.724 4.31304C6.47775 4.29774 6.24007 4.21666 6.03579 4.0783C5.8315 3.93995 5.66806 3.74937 5.56247 3.52638L5.50578 3.42244C5.46344 3.35464 5.40474 3.29874 5.33482 3.26C5.26491 3.22126 5.18622 3.20094 5.1063 3.201C5.02419 3.20016 4.94318 3.2218 4.87249 3.26357H4.87337ZM12.1779 12.4598C12.0956 12.1543 12.138 11.8286 12.2957 11.5544C12.4534 11.2801 12.7136 11.0797 13.019 10.9972C13.1707 10.9558 13.3289 10.9448 13.4849 10.9649C13.6408 10.9849 13.7911 11.0355 13.9274 11.1139C14.0637 11.1923 14.1833 11.2969 14.279 11.4215C14.3748 11.5462 14.445 11.6886 14.4856 11.8405C14.5259 11.9924 14.5359 12.1506 14.515 12.3063C14.4941 12.462 14.4427 12.6121 14.3638 12.7479C14.2849 12.8837 14.1802 13.0027 14.0553 13.0979C13.9304 13.1932 13.7879 13.2629 13.6361 13.3031C13.5365 13.3297 13.4337 13.3433 13.3306 13.3436C13.0678 13.3439 12.8124 13.2574 12.6037 13.0976C12.3951 12.9378 12.2452 12.7136 12.177 12.4598H12.1779ZM13.1544 11.5057C13.0701 11.5284 12.991 11.5676 12.9219 11.621C12.8528 11.6743 12.7951 11.7409 12.7518 11.8167C12.7085 11.8926 12.6805 11.9762 12.6697 12.0629C12.6588 12.1495 12.6653 12.2374 12.6886 12.3216C12.7346 12.4922 12.8463 12.6378 12.9993 12.7263C13.1522 12.8148 13.3342 12.8392 13.5051 12.7941C13.6748 12.7473 13.8188 12.6352 13.9059 12.4822C13.993 12.3293 14.0163 12.1481 13.9701 11.9783C13.934 11.8363 13.8512 11.7104 13.7354 11.6207C13.6196 11.531 13.4771 11.4827 13.3306 11.4832C13.2708 11.4828 13.2114 11.4903 13.1535 11.5057H13.1544ZM4.82415 7.61751C4.82409 7.36754 4.87312 7.12003 4.96874 6.88908C5.06436 6.65812 5.20468 6.44828 5.38141 6.2715C5.55814 6.09473 5.76794 5.95451 5.99887 5.85884C6.2298 5.76317 6.47712 5.71392 6.72708 5.71392C6.97721 5.71368 7.22501 5.76278 7.45617 5.85834C7.68733 5.9539 7.89755 6.09406 8.07451 6.27085C8.25147 6.44763 8.39184 6.65757 8.48762 6.88864C8.58339 7.11971 8.63264 7.36737 8.63264 7.61751C8.63282 7.86778 8.58375 8.11567 8.48806 8.34693C8.39236 8.57818 8.25192 8.7883 8.07495 8.96527C7.89798 9.14224 7.68786 9.28257 7.45661 9.37826C7.22535 9.47396 6.97735 9.52308 6.72708 9.52291C6.47683 9.52297 6.22917 9.47369 5.99799 9.37788C5.76681 9.28207 5.55694 9.14161 5.38009 8.96455C5.20324 8.7875 5.06295 8.57734 4.96742 8.34605C4.87189 8.11475 4.82292 7.86688 4.82327 7.61663L4.82415 7.61751ZM5.58488 7.61751C5.58512 7.92052 5.70567 8.21111 5.91976 8.42554C6.13386 8.63997 6.42407 8.76075 6.72708 8.76146C7.03037 8.7611 7.32126 8.64049 7.53571 8.42603C7.75017 8.21158 7.87068 7.92079 7.87103 7.61751C7.87079 7.31418 7.7502 7.02335 7.53571 6.80887C7.32123 6.59439 7.0304 6.47379 6.72708 6.47355C6.4243 6.47439 6.13417 6.59514 5.9202 6.80937C5.70623 7.02359 5.5858 7.31385 5.58532 7.61663L5.58488 7.61751Z" fill="#2F2F3D" />
        </g>
    </g>
    <defs>
        <clipPath id="clip0_796_37411">
            <rect width="18" height="18" fill="white" />
        </clipPath>
        <clipPath id="clip1_796_37411">
            <rect width="18" height="18" fill="white" />
        </clipPath>
    </defs>
</svg>
    