<svg width="18" height="18" viewBox="0 0 18 18" fill="none" xmlns="http://www.w3.org/2000/svg">
    <g clip-path="url(#clip0_930_32722)">
        <path d="M12.7864 15.5478L12.1742 15.3876C11.9582 15.3277 11.7734 15.1869 11.6587 14.9943C11.547 14.7998 11.5172 14.5688 11.5757 14.3521C11.6019 14.2863 11.6115 14.215 11.6042 14.1445C11.5969 14.0739 11.5731 14.0062 11.5339 13.9471C11.4752 13.9072 11.4072 13.8822 11.3366 13.8744C11.266 13.8665 11.1948 13.8761 11.1287 13.9021C11.0219 13.9311 10.9102 13.9387 10.8004 13.9245C10.6906 13.9103 10.5848 13.8746 10.4888 13.8193C10.3929 13.7641 10.3088 13.6905 10.2414 13.6027C10.174 13.5149 10.1245 13.4146 10.0959 13.3076L9.94872 12.7649C9.89256 12.548 9.92416 12.3177 10.0366 12.124C10.1491 11.9302 10.3333 11.7886 10.5495 11.7298C10.7295 11.6799 10.8486 11.5948 10.8751 11.4927C10.8819 11.4219 10.8706 11.3506 10.8417 11.2856C10.8129 11.2207 10.7678 11.1642 10.7108 11.1218C10.6328 11.0436 10.5714 10.9504 10.5306 10.8478C10.544 11.0047 10.529 11.1626 10.4858 11.314C10.4427 11.4858 10.3648 11.6469 10.2568 11.7872C10.1488 11.9276 10.0128 12.0443 9.85775 12.1299L8.97792 12.634C8.79068 12.7385 8.58019 12.7936 8.36574 12.7941C8.25692 12.7938 8.14817 12.781 8.04228 12.7559C7.72988 12.6705 7.46274 12.468 7.29561 12.1906L7.23672 12.0889C6.93431 11.5714 6.52252 11.5714 6.22505 12.0889L6.1688 12.1862C6.088 12.3257 5.98059 12.4478 5.85238 12.5456C5.72417 12.6434 5.57806 12.7149 5.42213 12.7559C5.31838 12.7842 5.21147 12.7993 5.10395 12.8009C4.888 12.8002 4.67605 12.7416 4.49044 12.6312L3.61677 12.1272C3.46311 12.0389 3.32847 11.9213 3.22036 11.7809C3.11225 11.6405 3.03306 11.4801 2.987 11.309C2.89583 10.9643 2.94299 10.5975 3.1184 10.287C3.18767 10.1975 3.23335 10.0919 3.25112 9.98007C3.2689 9.86824 3.258 9.75375 3.21992 9.64711C3.1468 9.56085 3.05341 9.49434 2.94789 9.45369C2.84236 9.41304 2.72818 9.39956 2.61608 9.41447C2.25911 9.41351 1.91695 9.27122 1.66462 9.01872C1.41229 8.76622 1.27024 8.42406 1.26953 8.06709V7.17424C1.27024 6.81727 1.41229 6.47511 1.66462 6.22261C1.91695 5.97011 2.25911 5.82782 2.61608 5.82687C2.72841 5.84146 2.84279 5.82756 2.94833 5.78643C3.05387 5.7453 3.14709 5.67828 3.21992 5.59153C3.25928 5.48517 3.27069 5.37046 3.25288 5.25846C3.23507 5.14646 3.18882 5.04093 3.1184 4.95204C2.94317 4.64148 2.89603 4.27482 2.987 3.93004C3.03173 3.75836 3.11036 3.59745 3.2186 3.45689C3.32684 3.31633 3.46222 3.19901 3.61677 3.1119L4.49572 2.61013C4.77726 2.44768 5.11171 2.40285 5.42609 2.48543C5.74047 2.568 6.00958 2.77131 6.17495 3.05114L6.23384 3.15288C6.53491 3.67266 6.94577 3.67266 7.24683 3.15288L7.30133 3.0579C7.38227 2.9181 7.48978 2.7957 7.61819 2.69769C7.7466 2.59969 7.89311 2.52799 8.04931 2.4868C8.20551 2.44561 8.36874 2.4357 8.52878 2.45763C8.68882 2.47956 8.84296 2.53293 8.98232 2.61463L9.85775 3.1164C10.0117 3.20456 10.1464 3.3225 10.2542 3.46337C10.362 3.60423 10.4409 3.76518 10.4858 3.93679C10.5795 4.28035 10.5332 4.64706 10.357 4.95654C10.2878 5.04658 10.2419 5.15244 10.2238 5.26456C10.2058 5.37667 10.2159 5.4915 10.2533 5.59872C10.3273 5.68444 10.4214 5.7506 10.5271 5.79127C10.6327 5.83193 10.747 5.84588 10.8593 5.83186C11.2161 5.83305 11.5578 5.97541 11.8099 6.22789C12.062 6.48036 12.2038 6.82237 12.2046 7.17919V8.07203C12.2038 8.42885 12.062 8.77091 11.8099 9.02339C11.5578 9.27586 11.2161 9.41822 10.8593 9.41941C10.747 9.40481 10.6324 9.41845 10.5266 9.45907C10.4209 9.49969 10.327 9.566 10.2533 9.65206C10.2146 9.7587 10.204 9.87351 10.2221 9.98551C10.2402 10.0975 10.2866 10.203 10.357 10.292C10.4012 10.3698 10.438 10.4517 10.4669 10.5364C10.4669 10.5319 10.4669 10.5269 10.4669 10.5224C10.4662 10.412 10.4875 10.3025 10.5297 10.2004C10.5719 10.0983 10.6341 10.0057 10.7125 9.92794L11.1665 9.47792C11.31 9.33389 11.5046 9.25259 11.7079 9.25175C11.9113 9.25091 12.1069 9.33058 12.2516 9.47341L12.3087 9.52741C12.5738 9.78977 12.8246 9.72409 12.9213 9.36272L12.9398 9.29476C12.9658 9.19693 13.0108 9.10522 13.0725 9.02498C13.1343 8.94475 13.2114 8.87756 13.2993 8.82733C13.3872 8.77709 13.484 8.74481 13.5845 8.73235C13.685 8.71988 13.7871 8.72753 13.8847 8.75476L14.4973 8.91539C14.7138 8.97347 14.8984 9.11488 15.011 9.30872C15.1242 9.50266 15.1566 9.73332 15.1011 9.9509C15.0719 10.0156 15.0603 10.0867 15.0673 10.1573C15.0742 10.228 15.0994 10.2955 15.1407 10.3532C15.1985 10.3943 15.2658 10.4199 15.3362 10.4278C15.4067 10.4357 15.4778 10.4255 15.5432 10.3982C15.76 10.3399 15.9912 10.37 16.1858 10.4818C16.3803 10.5937 16.5227 10.7783 16.5813 10.9949L16.7237 11.535C16.7526 11.6421 16.7604 11.7539 16.7461 11.864C16.7317 11.974 16.6956 12.0801 16.6402 12.1763C16.5847 12.2724 16.5111 12.3567 16.4231 12.4243C16.335 12.4918 16.2345 12.5413 16.1273 12.57C15.9473 12.6218 15.8278 12.7078 15.8008 12.8099C15.7925 12.8808 15.8037 12.9527 15.8329 13.0179C15.862 13.0831 15.9081 13.1392 15.9665 13.1803C16.0447 13.259 16.1064 13.3526 16.148 13.4555C16.1895 13.5585 16.2102 13.6687 16.2086 13.7797C16.2106 13.8908 16.1896 14.0011 16.1471 14.1037C16.1046 14.2064 16.0415 14.2992 15.9616 14.3764L15.5142 14.8264C15.4151 14.9192 15.2948 14.9867 15.164 15.0231C15.0985 15.0414 15.0307 15.0505 14.9627 15.0501C14.7612 15.0492 14.5681 14.9708 14.423 14.8309L14.3663 14.7792C14.1017 14.5146 13.8505 14.578 13.7537 14.9398L13.7361 15.01C13.6833 15.2066 13.5547 15.3741 13.3784 15.4758C13.319 15.5094 13.2558 15.536 13.1903 15.555C13.1277 15.5704 13.0636 15.5779 12.9991 15.5775C12.9273 15.5773 12.8555 15.5673 12.7864 15.5478ZM11.9729 13.5043C12.068 13.613 12.1327 13.7449 12.1602 13.8866C12.1877 14.0284 12.1769 14.1748 12.1294 14.3112C12.1185 14.3541 12.1163 14.3989 12.1228 14.4428C12.1293 14.4867 12.1443 14.5288 12.1672 14.5668C12.2102 14.6439 12.2814 14.7015 12.3658 14.7274L12.9411 14.8786C13.0098 14.8962 13.0826 14.8882 13.1459 14.8562C13.2073 14.8164 13.2526 14.7566 13.2747 14.687L13.2923 14.6257C13.3188 14.4847 13.3818 14.3531 13.4751 14.2441C13.5683 14.135 13.6888 14.0523 13.824 14.0042C13.9662 13.9749 14.1136 13.9845 14.2507 14.032C14.3879 14.0796 14.5096 14.1632 14.6032 14.2742L14.6485 14.322C14.7001 14.3719 14.7691 14.3996 14.841 14.3989C14.911 14.3944 14.9777 14.3674 15.0313 14.322L15.4466 13.8994C15.4783 13.8685 15.5038 13.8315 15.5213 13.7908C15.5387 13.75 15.5481 13.7061 15.5485 13.6618C15.5484 13.5709 15.5137 13.4836 15.4514 13.4174C15.3412 13.3246 15.2576 13.2038 15.2101 13.0678C15.1626 12.9318 15.1526 12.7855 15.1811 12.6443C15.2271 12.5077 15.3089 12.386 15.418 12.2918C15.5271 12.1976 15.6594 12.1344 15.8012 12.1088C15.8884 12.0847 15.9627 12.0274 16.0082 11.9493C16.0537 11.8712 16.0668 11.7783 16.0447 11.6907L15.9098 11.1866C15.8978 11.1435 15.8772 11.1031 15.8496 11.0678C15.8219 11.0325 15.788 11.003 15.7489 10.981C15.7099 10.9589 15.6668 10.9448 15.6223 10.9394C15.5779 10.934 15.5328 10.9375 15.4896 10.9495C15.3535 10.996 15.2072 11.0061 15.066 10.9787C14.9247 10.9513 14.7934 10.8874 14.6845 10.7933C14.5894 10.6847 14.5248 10.5525 14.4982 10.4106C14.4716 10.2687 14.484 10.1222 14.5333 9.98644C14.544 9.94346 14.5457 9.89877 14.539 9.85498C14.5324 9.8112 14.5171 9.76917 14.4942 9.73127C14.4509 9.65334 14.379 9.59565 14.2934 9.57064L13.7212 9.41941C13.6866 9.40963 13.6505 9.40687 13.6148 9.41128C13.5791 9.41569 13.5445 9.42716 13.5133 9.44506C13.4821 9.46296 13.4551 9.4869 13.4333 9.51549C13.4115 9.54408 13.3953 9.57676 13.3863 9.61157L13.3687 9.67502C13.3414 9.81673 13.2772 9.94871 13.1824 10.0575C13.0875 10.1662 12.9657 10.2479 12.829 10.2942C12.6882 10.3209 12.5428 10.31 12.4076 10.2626C12.2723 10.2152 12.152 10.133 12.0586 10.0242L12.0134 9.97925C11.9793 9.9463 11.9371 9.92274 11.8912 9.91091C11.8453 9.89908 11.7972 9.89937 11.7515 9.91173C11.7077 9.92691 11.6672 9.94978 11.6315 9.97925L11.2162 10.4C11.1833 10.4306 11.1569 10.4678 11.1393 10.5091C11.1216 10.5504 11.1127 10.595 11.1133 10.6399C11.1134 10.7302 11.1487 10.8169 11.2118 10.8815C11.3207 10.9758 11.403 11.097 11.4504 11.2331C11.4978 11.3692 11.5089 11.5154 11.4821 11.6569C11.4354 11.793 11.3535 11.9142 11.2447 12.0082C11.136 12.1023 11.0042 12.1659 10.8628 12.1924C10.8193 12.2038 10.7782 12.2237 10.7424 12.2508C10.7066 12.278 10.6767 12.312 10.6541 12.3509C10.6315 12.3897 10.6165 12.4327 10.6106 12.4772C10.6046 12.5218 10.6078 12.5671 10.6194 12.6105L10.7543 13.1123C10.7778 13.199 10.8347 13.2729 10.9125 13.3178C10.9903 13.3626 11.0828 13.3748 11.1696 13.3517C11.2631 13.3257 11.3595 13.3121 11.4566 13.3112C11.551 13.3074 11.6454 13.3224 11.7339 13.3556C11.8224 13.3887 11.9034 13.4393 11.9721 13.5043H11.9729ZM4.87411 3.26357L3.9956 3.76985C3.92882 3.80854 3.87019 3.85999 3.82332 3.9213C3.77645 3.98261 3.74206 4.05255 3.72224 4.12714C3.70191 4.20071 3.69632 4.27759 3.70598 4.35331C3.71564 4.42902 3.74034 4.50204 3.77849 4.56815C3.91753 4.77243 4.00007 5.00981 4.01801 5.25626C4.03595 5.50272 3.98844 5.74952 3.88045 5.97178C3.74306 6.17755 3.5537 6.34298 3.33111 6.45103C3.10852 6.55908 2.86099 6.60589 2.61433 6.58655C2.45917 6.58655 2.31049 6.64818 2.20078 6.75789C2.09106 6.86761 2.02938 7.01639 2.02938 7.17155V8.0644C2.02938 8.21956 2.09106 8.36834 2.20078 8.47805C2.31049 8.58777 2.45917 8.64945 2.61433 8.64945C2.86117 8.63068 3.10856 8.67792 3.33111 8.78635C3.55365 8.89477 3.74309 9.06047 3.88045 9.26642C3.98847 9.48827 4.03595 9.73474 4.01801 9.98084C4.00007 10.2269 3.91755 10.4639 3.77849 10.6678C3.74035 10.7343 3.71564 10.8077 3.70598 10.8838C3.69633 10.9599 3.70192 11.0371 3.72224 11.1111C3.7624 11.2601 3.85914 11.3876 3.99208 11.4661L4.87103 11.9679C4.92251 12.0005 4.98036 12.0221 5.04067 12.0311C5.10097 12.0401 5.16252 12.0363 5.22129 12.0201C5.34321 11.9883 5.44737 11.9095 5.51134 11.8009L5.56804 11.706C5.67462 11.4836 5.83863 11.2934 6.04267 11.1548C6.24671 11.0162 6.48351 10.9342 6.72957 10.9171C6.97651 10.9324 7.21514 11.0137 7.41999 11.1525C7.62483 11.2912 7.78833 11.4824 7.89418 11.706L7.95131 11.8009C7.98124 11.8542 8.02186 11.9007 8.07085 11.9373C8.11984 11.9739 8.17603 11.9998 8.23565 12.0134C8.2934 12.0295 8.35374 12.0338 8.4132 12.0261C8.47266 12.0184 8.52982 11.9987 8.58152 11.9684L9.46047 11.4621C9.59535 11.384 9.69403 11.2556 9.7347 11.1052C9.75527 11.0316 9.7607 10.9547 9.75096 10.879C9.74122 10.8032 9.71652 10.7301 9.67801 10.6642C9.53861 10.46 9.45548 10.2226 9.43762 9.97606C9.41975 9.72952 9.46754 9.48264 9.57605 9.26054C9.71327 9.0547 9.90286 8.88925 10.1254 8.78118C10.3479 8.67312 10.5956 8.62638 10.8422 8.64582C10.9191 8.64624 10.9951 8.6314 11.0663 8.60215C11.1375 8.5729 11.2022 8.52983 11.2566 8.47542C11.311 8.42101 11.3544 8.35635 11.3836 8.28518C11.4129 8.21401 11.4275 8.13777 11.4271 8.06083V7.16523C11.4271 7.01007 11.3654 6.86129 11.2557 6.75158C11.146 6.64186 10.9973 6.58024 10.8422 6.58024C10.5956 6.5996 10.3483 6.55283 10.1258 6.44477C9.90339 6.33671 9.71367 6.17129 9.57649 5.96552C9.46794 5.74335 9.42019 5.49635 9.43806 5.24972C9.45592 5.0031 9.53901 4.76566 9.67845 4.56145C9.71692 4.49556 9.74166 4.42256 9.7514 4.34688C9.76114 4.2712 9.75567 4.19437 9.73514 4.12088C9.69485 3.97128 9.59778 3.84313 9.46486 3.76353L8.58547 3.26176C8.5325 3.23059 8.47408 3.21022 8.4132 3.20177C8.35232 3.19332 8.29028 3.19693 8.23082 3.21248C8.17136 3.22804 8.11583 3.25523 8.06689 3.29241C8.01795 3.32959 7.97652 3.37603 7.9456 3.42914L7.89198 3.52638C7.78499 3.7495 7.62036 3.94002 7.41515 4.0783C7.20994 4.21659 6.97171 4.29764 6.72474 4.31304C6.47848 4.29774 6.2408 4.21666 6.03652 4.0783C5.83223 3.93995 5.66879 3.74937 5.5632 3.52638L5.50651 3.42244C5.46418 3.35464 5.40547 3.29874 5.33555 3.26C5.26564 3.22126 5.18696 3.20094 5.10703 3.201C5.02493 3.20016 4.94392 3.2218 4.87323 3.26357H4.87411ZM12.1786 12.4598C12.0963 12.1543 12.1387 11.8286 12.2964 11.5544C12.4541 11.2801 12.7144 11.0797 13.0198 10.9972C13.1715 10.9558 13.3297 10.9448 13.4856 10.9649C13.6416 10.9849 13.7919 11.0355 13.9282 11.1139C14.0645 11.1923 14.184 11.2969 14.2798 11.4215C14.3755 11.5462 14.4458 11.6886 14.4863 11.8405C14.5266 11.9924 14.5366 12.1506 14.5157 12.3063C14.4949 12.462 14.4435 12.6121 14.3646 12.7479C14.2857 12.8837 14.1809 13.0027 14.0561 13.0979C13.9312 13.1932 13.7886 13.2629 13.6368 13.3031C13.5373 13.3297 13.4344 13.3433 13.3314 13.3436C13.0686 13.3439 12.8131 13.2574 12.6045 13.0976C12.3958 12.9378 12.2459 12.7136 12.1777 12.4598H12.1786ZM13.1551 11.5057C13.0708 11.5284 12.9918 11.5676 12.9227 11.621C12.8535 11.6743 12.7959 11.7409 12.7526 11.8167C12.7093 11.8926 12.6812 11.9762 12.6704 12.0629C12.6596 12.1495 12.666 12.2374 12.6893 12.3216C12.7353 12.4922 12.847 12.6378 13 12.7263C13.153 12.8148 13.3349 12.8392 13.5058 12.7941C13.6755 12.7473 13.8195 12.6352 13.9066 12.4822C13.9938 12.3293 14.017 12.1481 13.9708 11.9783C13.9348 11.8363 13.8519 11.7104 13.7361 11.6207C13.6203 11.531 13.4778 11.4827 13.3314 11.4832C13.2715 11.4828 13.2121 11.4903 13.1543 11.5057H13.1551ZM4.82488 7.61751C4.82483 7.36754 4.87386 7.12003 4.96947 6.88908C5.06509 6.65812 5.20541 6.44828 5.38214 6.2715C5.55887 6.09473 5.76867 5.95451 5.9996 5.85884C6.23053 5.76317 6.47785 5.71392 6.72781 5.71392C6.97795 5.71368 7.22574 5.76278 7.4569 5.85834C7.68806 5.9539 7.89829 6.09406 8.07524 6.27085C8.2522 6.44763 8.39257 6.65757 8.48835 6.88864C8.58413 7.11971 8.63338 7.36737 8.63338 7.61751C8.63355 7.86778 8.58448 8.11567 8.48879 8.34693C8.3931 8.57818 8.25265 8.7883 8.07568 8.96527C7.89871 9.14223 7.68859 9.28257 7.45734 9.37826C7.22609 9.47396 6.97808 9.52308 6.72781 9.52291C6.47756 9.52297 6.22991 9.47369 5.99872 9.37788C5.76754 9.28207 5.55767 9.14161 5.38082 8.96455C5.20397 8.7875 5.06369 8.57734 4.96815 8.34605C4.87262 8.11475 4.82365 7.86688 4.82401 7.61663L4.82488 7.61751ZM5.58562 7.61751C5.58585 7.92052 5.7064 8.21111 5.9205 8.42554C6.13459 8.63997 6.4248 8.76075 6.72781 8.76146C7.0311 8.7611 7.32199 8.64049 7.53645 8.42603C7.7509 8.21158 7.87141 7.92079 7.87177 7.61751C7.87153 7.31418 7.75093 7.02335 7.53645 6.80887C7.32196 6.59439 7.03114 6.47379 6.72781 6.47355C6.42503 6.47439 6.13491 6.59514 5.92094 6.80937C5.70697 7.02359 5.58653 7.31385 5.58606 7.61663L5.58562 7.61751Z" fill="#EFF1F8" />
    </g>
    <defs>
        <clipPath id="clip0_930_32722">
            <rect width="18" height="18" fill="white" />
        </clipPath>
    </defs>
</svg>
    