<svg width="18" height="19" viewBox="0 0 18 19" fill="none" xmlns="http://www.w3.org/2000/svg">
    <g clip-path="url(#clip0_930_33442)">
        <path fill-rule="evenodd" clip-rule="evenodd" d="M5.8262 12.3537C5.38124 12.3544 4.94713 12.2173 4.58343 11.9609C4.21883 11.706 3.94214 11.3444 3.79109 10.9259C3.72833 10.7446 3.69212 10.5551 3.68387 10.3634V10.3602C3.66688 10.2812 3.6668 10.1995 3.68387 10.1205C3.70094 10.0415 3.73465 9.96705 3.78274 9.90211C3.86979 9.79467 3.99347 9.72294 4.12991 9.70051L4.42962 9.68436H7.30364L7.60291 9.70051C7.73934 9.72298 7.86257 9.79471 7.94964 9.90211C7.99788 9.96707 8.0318 10.0417 8.04895 10.1207C8.0661 10.1998 8.06639 10.2816 8.04939 10.3607V10.3634C8.04084 10.5551 8.00464 10.7445 7.94217 10.9259C7.79152 11.3445 7.51493 11.7061 7.15027 11.9609C6.78643 12.217 6.35197 12.3541 5.90706 12.3537H5.8262ZM4.91038 10.358C4.83705 10.3681 4.76954 10.4032 4.71922 10.4575C4.69305 10.488 4.67463 10.5244 4.66516 10.5635C4.6557 10.6026 4.65542 10.6433 4.66473 10.6825C4.66928 10.7774 4.68913 10.871 4.72361 10.9597C4.82121 11.1745 4.98011 11.3559 5.1802 11.481C5.3803 11.6061 5.61271 11.6694 5.84861 11.663H5.89388C6.12981 11.6695 6.36215 11.6063 6.56228 11.4812C6.76241 11.3561 6.92142 11.1746 7.01888 10.9597C7.05292 10.8709 7.07288 10.7774 7.0782 10.6825C7.08737 10.6433 7.0873 10.6025 7.07776 10.5634C7.06822 10.5243 7.04946 10.488 7.02327 10.4575C6.97285 10.4031 6.90518 10.3679 6.83167 10.358L6.66643 10.3499H5.07913L4.91038 10.358Z" fill="#9496B3" />
        <path d="M9.47454 11.3723C9.35347 11.3713 9.23772 11.3228 9.15198 11.2373C9.06607 11.1515 9.01719 11.0352 9.01663 10.9137V10.8085C9.01717 10.6872 9.06605 10.571 9.15198 10.4854C9.2375 10.3996 9.35339 10.351 9.47454 10.3504H12.4334C12.5546 10.3509 12.6705 10.3995 12.7559 10.4854C12.7987 10.5276 12.8325 10.5779 12.8557 10.6334C12.8789 10.6888 12.8908 10.7484 12.8908 10.8085V10.9137C12.8908 10.9739 12.8789 11.0335 12.8557 11.0891C12.8325 11.1446 12.7987 11.1949 12.7559 11.2373C12.6703 11.3229 12.5545 11.3714 12.4334 11.3723H9.47454Z" fill="#9496B3" />
        <path d="M9.47454 9.7973C9.35321 9.79686 9.23668 9.74829 9.1511 9.66228C9.06517 9.57665 9.01673 9.46048 9.01619 9.33917V9.23348C9.01671 9.11204 9.06515 8.99573 9.1511 8.90994C9.23676 8.82405 9.35324 8.7755 9.47454 8.77491H12.3543C12.4754 8.77591 12.5916 8.82441 12.6773 8.90994C12.7199 8.95235 12.7534 9.00273 12.7766 9.05825C12.7998 9.11377 12.8121 9.17333 12.8122 9.23348V9.33917C12.812 9.39926 12.7998 9.45874 12.7766 9.51418C12.7534 9.56963 12.7199 9.61995 12.6773 9.66228C12.5916 9.74793 12.4754 9.79645 12.3543 9.7973H9.47454Z" fill="#9496B3" />
        <path fill-rule="evenodd" clip-rule="evenodd" d="M4.89895 8.60254C4.7739 8.47814 4.67459 8.33014 4.60716 8.16715C4.53972 8.00416 4.50548 7.82949 4.50608 7.6531C4.50552 7.47665 4.53973 7.30178 4.60716 7.13872C4.67459 6.97566 4.77393 6.82762 4.89895 6.70311C5.02336 6.57804 5.17103 6.47893 5.33401 6.41142C5.49699 6.34392 5.67176 6.30933 5.84817 6.3098C6.02465 6.30932 6.19972 6.34381 6.36277 6.41131C6.52583 6.47882 6.67378 6.57803 6.79827 6.70311C6.92334 6.82762 7.02256 6.97567 7.09007 7.13872C7.15757 7.30177 7.19203 7.47663 7.19158 7.6531C7.19202 7.8295 7.15758 8.00417 7.09007 8.16715C7.02256 8.33013 6.92332 8.47812 6.79827 8.60254C6.67382 8.72771 6.52583 8.82697 6.36277 8.89456C6.19972 8.96214 6.02468 8.99671 5.84817 8.99629C5.67184 8.9968 5.49742 8.96245 5.33445 8.8951C5.17149 8.82775 5.02348 8.72881 4.89895 8.60397V8.60254ZM5.24349 7.6576C5.2436 7.8204 5.30815 7.97641 5.42322 8.09156C5.53829 8.20672 5.69461 8.27161 5.8574 8.27185C6.02024 8.27161 6.17644 8.20682 6.29158 8.09167C6.40672 7.97653 6.47152 7.82044 6.47176 7.6576C6.47164 7.49473 6.40675 7.33848 6.29158 7.22331C6.17641 7.10815 6.02027 7.04348 5.8574 7.04336C5.69476 7.0436 5.53871 7.10824 5.42366 7.2232C5.30862 7.33817 5.24384 7.49398 5.24349 7.65662V7.6576Z" fill="#9496B3" />
        <path d="M9.63846 8.16473C9.51715 8.16354 9.4012 8.11509 9.31502 8.02971C9.22956 7.94359 9.1812 7.82749 9.18011 7.70616V7.60037C9.18117 7.47917 9.22954 7.3633 9.31502 7.27737C9.40103 7.19174 9.51709 7.14325 9.63846 7.14235H13.8686C13.9898 7.1431 14.1056 7.19163 14.1912 7.27737C14.2338 7.3197 14.2678 7.37002 14.2909 7.42546C14.3141 7.48091 14.326 7.54028 14.3261 7.60037V7.70616C14.3258 7.82765 14.2773 7.94403 14.1912 8.02971C14.1055 8.1152 13.9897 8.16369 13.8686 8.16473H9.63846Z" fill="#9496B3" />
        <path fill-rule="evenodd" clip-rule="evenodd" d="M12.6003 3.69901H14.3287C14.496 3.699 14.6631 3.71581 14.827 3.74932C14.9861 3.78194 15.1411 3.8302 15.2907 3.89335C15.4377 3.95561 15.5786 4.03205 15.7108 4.12154C15.8422 4.21018 15.9645 4.31125 16.0764 4.42344C16.1885 4.53552 16.2895 4.65802 16.3783 4.78929C16.4677 4.9216 16.544 5.06224 16.6064 5.20919C16.6694 5.35875 16.7176 5.51415 16.7501 5.67314C16.7836 5.83707 16.8006 6.00394 16.8006 6.17126V12.1351C16.8006 12.3024 16.7836 12.4693 16.7501 12.6332C16.7178 12.7922 16.6695 12.9476 16.6064 13.0971C16.544 13.2441 16.4677 13.3847 16.3783 13.517C16.2896 13.6484 16.1886 13.7709 16.0764 13.8829C15.9643 13.9949 15.8421 14.096 15.7108 14.1848C15.5785 14.2741 15.4377 14.3504 15.2907 14.4125C15.1411 14.4757 14.9861 14.5239 14.827 14.5566C14.6631 14.59 14.496 14.6069 14.3287 14.607L3.65747 14.6119C3.49015 14.6119 3.32307 14.595 3.15913 14.5615C3.00012 14.5289 2.84505 14.4806 2.69551 14.4175C2.54852 14.3553 2.40765 14.2791 2.27539 14.1898C2.14412 14.1011 2.02184 13.9999 1.90977 13.8878C1.79771 13.7758 1.69664 13.6533 1.60786 13.522C1.51843 13.3897 1.44166 13.2492 1.37935 13.1022C1.31629 12.9526 1.26836 12.7972 1.23564 12.6383C1.20248 12.4743 1.1856 12.3073 1.18555 12.14V6.1762C1.1856 6.0089 1.20248 5.84206 1.23564 5.67808C1.26818 5.51905 1.31612 5.36364 1.37935 5.21413C1.44163 5.06713 1.5184 4.92647 1.60786 4.79423C1.69651 4.66285 1.79758 4.54034 1.90977 4.42839C2.02178 4.31627 2.14407 4.2152 2.27539 4.12648C2.4076 4.03698 2.54848 3.96054 2.69551 3.8983C2.84503 3.83511 3.00011 3.78685 3.15913 3.75427C3.32307 3.72077 3.49015 3.69902 3.65747 3.69901H5.40034H6.37949H12.6003ZM7.83485 4.66661H6.55967C6.55967 4.66661 4.20937 4.66703 4.13756 4.66661C4.06574 4.66619 3.92598 4.66661 3.92598 4.66661H3.87412C3.41995 4.66721 2.98458 4.88101 2.66343 5.20215C2.34228 5.5233 2.16173 5.95867 2.16113 6.41285V11.8997C2.16173 12.3539 2.34228 12.7893 2.66343 13.1104C2.98458 13.4316 3.41995 13.6123 3.87412 13.6128H14.1103C14.5646 13.6124 15.0002 13.4318 15.3214 13.1107C15.6427 12.7895 15.8236 12.354 15.8242 11.8997V6.41285C15.8236 5.9586 15.6427 5.52321 15.3214 5.20204C15.0002 4.88088 14.5646 4.66709 14.1103 4.66661H9.021H9.02468H7.83485Z" fill="#9496B3" />
    </g>
    <defs>
        <clipPath id="clip0_930_33442">
            <rect width="18" height="18" fill="white" transform="translate(0 0.098999)" />
        </clipPath>
    </defs>
</svg>
    