<svg width="18" height="19" viewBox="0 0 18 19" fill="none" xmlns="http://www.w3.org/2000/svg">
    <path d="M12.6019 8.24828H5.40191C5.25866 8.24555 5.12198 8.18762 5.02031 8.08667C4.94519 8.01111 4.89411 7.91501 4.87349 7.81047C4.85287 7.70594 4.86363 7.59766 4.90443 7.49923C4.94523 7.4008 5.01423 7.31661 5.10275 7.25731C5.19128 7.19801 5.29536 7.16629 5.40191 7.16602H12.6019C12.7085 7.16629 12.8125 7.19801 12.9011 7.25731C12.9896 7.31661 13.0586 7.4008 13.0994 7.49923C13.1402 7.59766 13.151 7.70594 13.1303 7.81047C13.1097 7.91501 13.0586 8.01111 12.9835 8.08667C12.8818 8.18762 12.7452 8.24555 12.6019 8.24828Z" fill="#9496B3" />
    <path d="M9.00229 8.24785C8.85903 8.24516 8.72233 8.18735 8.62069 8.08635C8.51911 7.98562 8.46166 7.84862 8.46094 7.70557V6.49334C8.46094 6.34982 8.51795 6.21216 8.61943 6.11068C8.72091 6.0092 8.85855 5.95215 9.00206 5.95215C9.14558 5.95215 9.28321 6.0092 9.38469 6.11068C9.48617 6.21216 9.54319 6.34982 9.54319 6.49334V7.70557C9.54246 7.84862 9.48501 7.98562 9.38344 8.08635C9.2819 8.18724 9.14539 8.24505 9.00229 8.24785Z" fill="#9496B3" />
    <path d="M5.39312 13.8439C5.25003 13.8448 5.11245 13.7887 5.01062 13.6881C4.93476 13.6123 4.88307 13.5158 4.86207 13.4106C4.84107 13.3055 4.8517 13.1963 4.89263 13.0972C4.93355 12.9981 5.00293 12.9134 5.09201 12.8536C5.18109 12.7939 5.28587 12.7619 5.39312 12.7617C6.71121 12.7344 7.96455 12.1849 8.87777 11.234C9.79099 10.2832 10.2894 9.00872 10.2635 7.6906C10.2635 7.54709 10.3205 7.40943 10.422 7.30795C10.5234 7.20647 10.6611 7.14941 10.8046 7.14941C10.9481 7.14941 11.0857 7.20647 11.1872 7.30795C11.2887 7.40943 11.3457 7.54709 11.3457 7.6906C11.3714 9.29566 10.7588 10.8452 9.64272 11.999C8.5266 13.1528 6.99815 13.8164 5.39312 13.8439Z" fill="#9496B3" />
    <path d="M12.6061 13.847C11.8737 13.8306 11.1557 13.6408 10.511 13.2931C9.86626 12.9454 9.31318 12.4497 8.89716 11.8468C8.85453 11.79 8.82352 11.7253 8.80592 11.6565C8.78831 11.5877 8.78445 11.5161 8.79456 11.4458C8.8044 11.3756 8.82814 11.308 8.86437 11.2471C8.90061 11.1861 8.94862 11.133 9.00561 11.0907C9.06231 11.0478 9.12693 11.0167 9.19575 10.9988C9.26458 10.9809 9.33625 10.9768 9.40666 10.9867C9.47707 10.9966 9.54483 11.0203 9.60605 11.0565C9.66727 11.0926 9.72075 11.1405 9.76341 11.1974C10.0826 11.6636 10.5068 12.0483 11.0019 12.3206C11.497 12.5928 12.0491 12.7449 12.6137 12.7647C12.7566 12.7657 12.8934 12.823 12.9945 12.924C13.0956 13.0251 13.1528 13.1619 13.1537 13.3048C13.1512 13.4484 13.0924 13.5853 12.9899 13.6859C12.8872 13.7866 12.7499 13.8442 12.6061 13.847Z" fill="#9496B3" />
    <path d="M10.3469 17.6562H6.01793C2.09978 17.6562 0.425781 15.9821 0.425781 12.0626V7.73323C0.425781 3.81823 2.09978 2.13965 6.01793 2.13965H10.3474C14.2655 2.13965 15.9395 3.81643 15.9395 7.73323V12.0626C15.9395 15.9826 14.2651 17.6562 10.3469 17.6562ZM6.01748 3.2251C2.69108 3.2251 1.50758 4.40548 1.50758 7.73323V12.0626C1.50758 15.3926 2.69108 16.5707 6.01748 16.5707H10.3469C13.6733 16.5707 14.8568 15.3904 14.8568 12.0626V7.73323C14.8568 4.40323 13.6733 3.2251 10.3469 3.2251H6.01748Z" fill="#9496B3" />
</svg>
    