<svg width="18" height="18" viewBox="0 0 18 18" fill="none" xmlns="http://www.w3.org/2000/svg">
    <g clip-path="url(#clip0_796_37355)">
        <path fill-rule="evenodd" clip-rule="evenodd" d="M11.319 5.86354C11.6255 6.32221 11.7891 6.86146 11.7891 7.4131C11.7891 7.77937 11.7169 8.14206 11.5768 8.48045C11.4366 8.81884 11.2312 9.12632 10.9722 9.38531C10.7132 9.64431 10.4057 9.84975 10.0673 9.98992C9.72892 10.1301 9.36623 10.2022 8.99996 10.2022C8.44832 10.2022 7.90907 10.0386 7.4504 9.73218C6.99173 9.4257 6.63424 8.9901 6.42313 8.48045C6.21203 7.9708 6.1568 7.41 6.26442 6.86896C6.37203 6.32792 6.63767 5.83095 7.02774 5.44088C7.41781 5.05081 7.91478 4.78518 8.45582 4.67756C8.99686 4.56994 9.55766 4.62517 10.0673 4.83627C10.577 5.04738 11.0126 5.40487 11.319 5.86354ZM7.60851 6.48336C7.42462 6.75856 7.32648 7.08211 7.32648 7.4131C7.32648 7.85693 7.50279 8.28259 7.81663 8.59642C7.97202 8.75182 8.15651 8.87509 8.35954 8.95919C8.56258 9.04329 8.78019 9.08658 8.99996 9.08658C9.33094 9.08658 9.65449 8.98843 9.92969 8.80454C10.2049 8.62066 10.4194 8.3593 10.546 8.05351C10.6727 7.74772 10.7059 7.41124 10.6413 7.08662C10.5767 6.76199 10.4173 6.46381 10.1833 6.22977C9.94924 5.99573 9.65106 5.83634 9.32644 5.77177C9.00181 5.7072 8.66533 5.74034 8.35954 5.867C8.05375 5.99366 7.79239 6.20816 7.60851 6.48336Z" fill="#2F2F3D" />
        <path fill-rule="evenodd" clip-rule="evenodd" d="M9.34584 16.7734C9.2477 16.8522 9.12581 16.8954 8.99998 16.8961C8.87416 16.8954 8.75228 16.8522 8.65414 16.7734C8.64459 16.7649 8.62412 16.7476 8.59375 16.7219C7.95047 16.1779 2.86389 11.8769 2.86389 7.41307C2.86389 4.02421 5.6111 1.27698 8.99998 1.27698C12.3889 1.27698 15.1361 4.02421 15.1361 7.41307C15.1361 11.8768 10.0498 16.1777 9.4063 16.7218C9.37589 16.7475 9.35541 16.7649 9.34584 16.7734ZM9.00003 2.39259C6.22727 2.39259 3.97954 4.64035 3.97954 7.41307C3.97954 10.9274 7.81181 14.5589 9.00003 15.6076C10.1882 14.5589 14.0205 10.9274 14.0205 7.41307C14.0205 4.64031 11.7728 2.39259 9.00003 2.39259Z" fill="#2F2F3D" />
    </g>
    <defs>
        <clipPath id="clip0_796_37355">
            <rect width="18" height="18" fill="white" />
        </clipPath>
    </defs>
</svg>
    