<svg width="18" height="18" viewBox="0 0 18 18" fill="none" xmlns="http://www.w3.org/2000/svg">
    <g clip-path="url(#clip0_930_32664)">
        <path fill-rule="evenodd" clip-rule="evenodd" d="M11.3184 5.86354C11.6249 6.32221 11.7885 6.86146 11.7885 7.4131C11.7885 7.77937 11.7163 8.14206 11.5762 8.48045C11.436 8.81884 11.2306 9.12632 10.9716 9.38531C10.7126 9.64431 10.4051 9.84975 10.0667 9.98992C9.72831 10.1301 9.36562 10.2022 8.99935 10.2022C8.44771 10.2022 7.90846 10.0386 7.44979 9.73218C6.99112 9.4257 6.63363 8.9901 6.42252 8.48045C6.21142 7.9708 6.15619 7.41 6.26381 6.86896C6.37142 6.32792 6.63706 5.83095 7.02713 5.44088C7.4172 5.05081 7.91417 4.78518 8.45521 4.67756C8.99625 4.56994 9.55705 4.62517 10.0667 4.83627C10.5763 5.04738 11.012 5.40487 11.3184 5.86354ZM7.6079 6.48336C7.42401 6.75856 7.32587 7.08211 7.32587 7.4131C7.32587 7.85693 7.50218 8.28259 7.81602 8.59642C7.97141 8.75182 8.1559 8.87509 8.35893 8.95919C8.56197 9.04329 8.77958 9.08658 8.99935 9.08658C9.33033 9.08658 9.65388 8.98843 9.92908 8.80454C10.2043 8.62066 10.4188 8.3593 10.5454 8.05351C10.6721 7.74772 10.7052 7.41124 10.6407 7.08662C10.5761 6.76199 10.4167 6.46381 10.1827 6.22977C9.94863 5.99573 9.65045 5.83634 9.32583 5.77177C9.0012 5.7072 8.66472 5.74034 8.35893 5.867C8.05314 5.99366 7.79178 6.20816 7.6079 6.48336Z" fill="#EFF1F8" />
        <path fill-rule="evenodd" clip-rule="evenodd" d="M9.34523 16.7734C9.24709 16.8522 9.1252 16.8954 8.99937 16.8961C8.87355 16.8954 8.75167 16.8522 8.65353 16.7734C8.64398 16.7649 8.62351 16.7476 8.59313 16.7219C7.94986 16.1779 2.86328 11.8769 2.86328 7.41307C2.86328 4.02421 5.61049 1.27698 8.99937 1.27698C12.3883 1.27698 15.1355 4.02421 15.1355 7.41307C15.1355 11.8768 10.0492 16.1777 9.40569 16.7218C9.37528 16.7475 9.3548 16.7649 9.34523 16.7734ZM8.99942 2.39259C6.22666 2.39259 3.97893 4.64035 3.97893 7.41307C3.97893 10.9274 7.8112 14.5589 8.99942 15.6076C10.1876 14.5589 14.0199 10.9274 14.0199 7.41307C14.0199 4.64031 11.7722 2.39259 8.99942 2.39259Z" fill="#EFF1F8" />
    </g>
    <defs>
        <clipPath id="clip0_930_32664">
            <rect width="18" height="18" fill="white" />
        </clipPath>
    </defs>
</svg>
    