<svg width="18" height="18" viewBox="0 0 18 18" fill="none" xmlns="http://www.w3.org/2000/svg">
    <g clip-path="url(#clip0_930_32690)">
        <path d="M8.9983 16.8403C7.18103 16.8428 5.41911 16.215 4.01295 15.0638C2.6068 13.9126 1.64345 12.3093 1.28717 10.5273C0.930878 8.74532 1.20373 6.8949 2.05916 5.29154C2.91458 3.68818 4.29962 2.43116 5.97818 1.73478C7.65674 1.03841 9.52486 0.945788 11.2641 1.47272C13.0033 1.99965 14.5059 3.11351 15.5157 4.62439C16.5255 6.13527 16.9801 7.94963 16.8018 9.75814C16.6235 11.5667 15.8235 13.2574 14.5381 14.542C13.811 15.2703 12.9475 15.8482 11.997 16.2425C11.0464 16.6369 10.0274 16.84 8.9983 16.8403ZM8.9983 2.25413C7.43566 2.25246 5.92081 2.79272 4.71188 3.78285C3.50296 4.77298 2.6748 6.1517 2.36855 7.68404C2.06229 9.21638 2.2969 10.8075 3.03238 12.1862C3.76785 13.565 4.9587 14.646 6.40194 15.2451C7.84518 15.8442 9.4515 15.9242 10.9472 15.4716C12.4428 15.019 13.7352 14.0617 14.6041 12.763C15.4731 11.4642 15.8648 9.90427 15.7124 8.34908C15.56 6.79388 14.873 5.33965 13.7685 4.23422C12.5034 2.96851 10.7879 2.2564 8.9983 2.25413Z" fill="#EFF1F8" />
        <path d="M6.81715 16.1108H6.0863C5.94157 16.1101 5.80298 16.052 5.70105 15.9493C5.64953 15.8992 5.60863 15.8392 5.5808 15.7729C5.55296 15.7067 5.53877 15.6355 5.53905 15.5636C5.53816 15.4927 5.55127 15.4222 5.57761 15.3563C5.60396 15.2905 5.64302 15.2304 5.69259 15.1796C5.74216 15.1288 5.80128 15.0883 5.86651 15.0604C5.93175 15.0325 6.00183 15.0177 6.07279 15.0168C4.92626 11.0876 4.92626 6.91252 6.07279 2.98325C5.92928 2.98082 5.79253 2.92197 5.69209 2.81944C5.64203 2.76916 5.60264 2.70927 5.57635 2.64337C5.55005 2.57748 5.53735 2.50695 5.53905 2.43602C5.5389 2.29151 5.59544 2.15271 5.69654 2.04945C5.80058 1.94748 5.94019 1.88988 6.08586 1.88879H6.81666C6.90189 1.88964 6.98576 1.91042 7.0615 1.94952C7.13931 1.98845 7.20684 2.04521 7.2586 2.11515C7.30983 2.18569 7.3429 2.26776 7.3549 2.35412C7.36736 2.44033 7.35983 2.52824 7.33287 2.61107C5.9632 6.76273 5.9632 11.2445 7.33287 15.3962C7.35988 15.479 7.3674 15.567 7.3549 15.6532C7.3429 15.7395 7.30983 15.8216 7.2586 15.8921C7.20631 15.9601 7.1388 16.0148 7.0615 16.0519C6.98538 16.0893 6.90195 16.1094 6.81715 16.1108Z" fill="#EFF1F8" />
        <path d="M11.1887 16.1106C11.129 16.1117 11.0697 16.1018 11.0137 16.0813C10.9456 16.0598 10.883 16.0239 10.83 15.976C10.7204 15.8806 10.6528 15.7457 10.6419 15.6007C10.6367 15.5287 10.6472 15.4564 10.6725 15.3888C12.0422 11.2371 12.0422 6.75526 10.6725 2.6036C10.6485 2.5359 10.6384 2.46405 10.6429 2.39235C10.6474 2.32065 10.6663 2.2506 10.6986 2.18643C10.7637 2.05695 10.8767 1.95798 11.0137 1.91057C11.0814 1.88745 11.153 1.87801 11.2243 1.8828C11.2957 1.88759 11.3655 1.90652 11.4295 1.93848C11.4943 1.96972 11.5521 2.01372 11.5995 2.06785C11.6469 2.12198 11.6829 2.18513 11.7054 2.2535C13.1581 6.62617 13.1581 11.3513 11.7054 15.724C11.6733 15.8354 11.6056 15.9332 11.5128 16.0026C11.419 16.0722 11.3054 16.11 11.1887 16.1106Z" fill="#EFF1F8" />
        <path d="M8.99957 12.7921C6.96315 12.7944 4.93692 12.5047 2.98277 11.9317C2.98227 12.0037 2.96727 12.0749 2.93866 12.141C2.91005 12.2071 2.86843 12.2668 2.81626 12.3164C2.73888 12.3921 2.64071 12.4431 2.53429 12.4629C2.42786 12.4827 2.31794 12.4703 2.21852 12.4275C2.11911 12.3847 2.03471 12.3133 1.97599 12.2223C1.91726 12.1314 1.88689 12.025 1.88875 11.9168V11.1878C1.88923 11.101 1.9102 11.0156 1.94995 10.9385C1.98953 10.8612 2.04653 10.7942 2.11646 10.7427C2.1865 10.6923 2.26746 10.6592 2.35273 10.646C2.43947 10.6333 2.52798 10.6413 2.61103 10.6694C6.76273 12.0407 11.2454 12.0407 15.3971 10.6694C15.5212 10.6263 15.6568 10.63 15.7784 10.6797C15.9 10.7294 15.9993 10.8217 16.0577 10.9394C16.0975 11.0168 16.1185 11.1025 16.1189 11.1896V11.9186C16.1153 12.0631 16.0575 12.2009 15.9569 12.3047C15.8551 12.4066 15.7174 12.4644 15.5734 12.4658C15.4294 12.4671 15.2906 12.4119 15.1869 12.3119C15.1363 12.2627 15.096 12.204 15.0682 12.1391C15.0404 12.0742 15.0256 12.0045 15.0249 11.9339C13.0677 12.5061 11.0387 12.795 8.99957 12.7921Z" fill="#EFF1F8" />
        <path d="M15.5646 7.35956C15.5049 7.36067 15.4456 7.35076 15.3895 7.3303C11.2377 5.95938 6.75524 5.95938 2.60347 7.3303C2.53596 7.35344 2.46453 7.36279 2.39334 7.35777C2.32187 7.35271 2.25203 7.33389 2.18767 7.3024C2.12275 7.2706 2.06476 7.22625 2.0171 7.1719C1.97103 7.11734 1.93534 7.05482 1.91179 6.9874C1.86888 6.8491 1.88139 6.69952 1.94673 6.57029C2.01206 6.44105 2.12512 6.34227 2.26194 6.29482C6.63422 4.84346 11.3584 4.84346 15.7306 6.29482C15.7996 6.31732 15.8635 6.35307 15.9187 6.4001C15.9719 6.44854 16.0164 6.50579 16.0501 6.56932C16.0807 6.63402 16.0986 6.704 16.1028 6.77544C16.1074 6.8471 16.0985 6.91899 16.0767 6.9874C16.0412 7.09599 15.9722 7.19052 15.8796 7.25741C15.7884 7.32448 15.6778 7.3603 15.5646 7.35956Z" fill="#EFF1F8" />
        <path d="M12.3595 4.73096C12.3956 4.9563 12.4798 5.17117 12.6065 5.36094C12.782 5.49466 12.988 5.58246 13.206 5.6165L12.1895 5.77943L12.3595 4.73096Z" fill="#EFF1F8" />
        <path d="M5.62812 4.73096C5.5923 4.95629 5.5078 5.17117 5.38113 5.36094C5.2055 5.49463 4.99933 5.58242 4.78125 5.6165L5.79776 5.77943L5.62812 4.73096Z" fill="#EFF1F8" />
        <path d="M5.62812 13.2445C5.5923 13.0192 5.5078 12.8043 5.38113 12.6145C5.2055 12.4808 4.99933 12.393 4.78125 12.3589L5.79776 12.196L5.62812 13.2445Z" fill="#EFF1F8" />
        <path d="M12.3595 13.2445C12.3956 13.0192 12.4798 12.8043 12.6065 12.6145C12.782 12.4808 12.988 12.3929 13.206 12.3589L12.1895 12.196L12.3595 13.2445Z" fill="#EFF1F8" />
        <path d="M11.2337 4.73486C11.2337 4.73486 11.3423 5.07634 11.2095 5.21675C11.0768 5.35715 10.6914 5.28794 10.6914 5.28794L11.4486 5.66908L11.6736 5.4656L11.2337 4.73486Z" fill="#EFF1F8" />
        <path d="M11.2337 13.2589C11.2337 13.2589 11.3423 12.9173 11.2095 12.7769C11.0768 12.6365 10.6914 12.7058 10.6914 12.7058L11.4486 12.3247L11.6736 12.5281L11.2337 13.2589Z" fill="#EFF1F8" />
        <path d="M13.2578 11.2361C13.2578 11.2361 12.9162 11.3446 12.7758 11.2118C12.6354 11.0791 12.7047 10.6938 12.7047 10.6938L12.3236 11.4508L12.527 11.6758L13.2578 11.2361Z" fill="#EFF1F8" />
        <path d="M4.72982 11.2586C4.72982 11.2586 5.07138 11.367 5.21179 11.2343C5.3522 11.1015 5.28289 10.7163 5.28289 10.7163L5.66406 11.4732L5.46065 11.6983L4.72982 11.2586Z" fill="#EFF1F8" />
        <path d="M6.74851 4.73096C6.74851 4.73096 6.64036 5.07254 6.77312 5.21295C6.90588 5.35336 7.29126 5.28404 7.29126 5.28404L6.53361 5.66528L6.30859 5.4618L6.74851 4.73096Z" fill="#EFF1F8" />
        <path d="M6.74851 13.2629C6.74851 13.2629 6.64036 12.9213 6.77312 12.7809C6.90588 12.6405 7.29126 12.7099 7.29126 12.7099L6.53361 12.3286L6.30859 12.5321L6.74851 13.2629Z" fill="#EFF1F8" />
        <path d="M4.72982 6.75112C4.72982 6.75112 5.07138 6.64266 5.21179 6.77542C5.3522 6.90818 5.28289 7.29385 5.28289 7.29385L5.66406 6.53556L5.46065 6.31055L4.72982 6.75112Z" fill="#EFF1F8" />
        <path d="M13.2598 6.75112C13.2598 6.75112 12.9182 6.64266 12.7778 6.77542C12.6374 6.90818 12.7067 7.2934 12.7067 7.2934L12.3255 6.53556L12.5289 6.31055L13.2598 6.75112Z" fill="#EFF1F8" />
        <path d="M10.516 11.6668C10.8211 11.6482 11.1168 11.5541 11.3764 11.3927C11.6536 11.1592 11.6667 10.4616 11.6667 10.4616L11.8917 11.895L10.516 11.6668ZM6.31095 10.4616C6.31095 10.4616 6.324 11.1596 6.60121 11.3927C6.8609 11.5539 7.15657 11.6481 7.46166 11.6668L6.08594 11.895L6.31095 10.4616ZM11.3764 6.59504C11.1168 6.4337 10.8211 6.33952 10.516 6.32097L11.8935 6.09326L11.6685 7.52658C11.6685 7.52658 11.6536 6.8286 11.3764 6.59504ZM6.08594 6.09326L7.46391 6.32097C7.15882 6.33965 6.86315 6.43382 6.60346 6.59504C6.32625 6.8286 6.31095 7.52658 6.31095 7.52658L6.08594 6.09326Z" fill="#EFF1F8" />
    </g>
    <defs>
        <clipPath id="clip0_930_32690">
            <rect width="18" height="18" fill="white" />
        </clipPath>
    </defs>
</svg>
    