<svg width="18" height="18" viewBox="0 0 18 18" fill="none" xmlns="http://www.w3.org/2000/svg">
    <g clip-path="url(#clip0_796_37379)">
        <g clip-path="url(#clip1_796_37379)">
            <path d="M8.99818 16.8403C7.1809 16.8428 5.41899 16.215 4.01283 15.0638C2.60668 13.9126 1.64333 12.3093 1.28704 10.5273C0.930756 8.74532 1.20361 6.8949 2.05904 5.29154C2.91446 3.68818 4.29949 2.43116 5.97806 1.73478C7.65662 1.03841 9.52474 0.945788 11.264 1.47272C13.0032 1.99965 14.5058 3.11351 15.5156 4.62439C16.5254 6.13527 16.9799 7.94963 16.8017 9.75814C16.6234 11.5667 15.8234 13.2574 14.538 14.542C13.8109 15.2703 12.9474 15.8482 11.9968 16.2425C11.0463 16.6369 10.0273 16.84 8.99818 16.8403ZM8.99818 2.25413C7.43554 2.25246 5.92069 2.79272 4.71176 3.78285C3.50284 4.77298 2.67468 6.1517 2.36843 7.68404C2.06217 9.21638 2.29678 10.8075 3.03225 12.1862C3.76773 13.565 4.95858 14.646 6.40182 15.2451C7.84506 15.8442 9.45138 15.9242 10.947 15.4716C12.4427 15.019 13.7351 14.0617 14.604 12.763C15.4729 11.4642 15.8646 9.90427 15.7123 8.34908C15.5599 6.79388 14.8729 5.33965 13.7684 4.23422C12.5033 2.96851 10.7877 2.2564 8.99818 2.25413Z" fill="#2F2F3D" />
            <path d="M6.81703 16.1108H6.08618C5.94144 16.1101 5.80286 16.052 5.70093 15.9493C5.64941 15.8992 5.60851 15.8392 5.58068 15.7729C5.55284 15.7067 5.53864 15.6355 5.53893 15.5636C5.53803 15.4927 5.55114 15.4222 5.57749 15.3563C5.60384 15.2905 5.6429 15.2304 5.69247 15.1796C5.74203 15.1288 5.80115 15.0883 5.86639 15.0604C5.93162 15.0325 6.00171 15.0177 6.07267 15.0168C4.92614 11.0876 4.92614 6.91252 6.07267 2.98325C5.92916 2.98082 5.79241 2.92197 5.69197 2.81944C5.64191 2.76916 5.60252 2.70927 5.57623 2.64337C5.54993 2.57748 5.53723 2.50695 5.53893 2.43602C5.53878 2.29151 5.59532 2.15271 5.69642 2.04945C5.80046 1.94748 5.94007 1.88988 6.08574 1.88879H6.81653C6.90176 1.88964 6.98564 1.91042 7.06138 1.94952C7.13919 1.98845 7.20672 2.04521 7.25848 2.11515C7.30971 2.18569 7.34278 2.26776 7.35478 2.35412C7.36723 2.44033 7.35971 2.52824 7.33275 2.61107C5.96308 6.76273 5.96308 11.2445 7.33275 15.3962C7.35976 15.479 7.36728 15.567 7.35478 15.6532C7.34278 15.7395 7.30971 15.8216 7.25848 15.8921C7.20619 15.9601 7.13868 16.0148 7.06138 16.0519C6.98526 16.0893 6.90183 16.1094 6.81703 16.1108Z" fill="#2F2F3D" />
            <path d="M11.1877 16.1106C11.1281 16.1117 11.0687 16.1018 11.0127 16.0813C10.9447 16.0598 10.882 16.0239 10.8291 15.976C10.7194 15.8806 10.6518 15.7457 10.641 15.6007C10.6357 15.5287 10.6462 15.4564 10.6716 15.3888C12.0413 11.2371 12.0413 6.75526 10.6716 2.6036C10.6475 2.5359 10.6374 2.46405 10.6419 2.39235C10.6464 2.32065 10.6654 2.2506 10.6976 2.18643C10.7627 2.05695 10.8758 1.95798 11.0127 1.91057C11.0804 1.88745 11.152 1.87801 11.2234 1.8828C11.2948 1.88759 11.3645 1.90652 11.4285 1.93848C11.4933 1.96972 11.5512 2.01372 11.5986 2.06785C11.646 2.12198 11.682 2.18513 11.7044 2.2535C13.1571 6.62617 13.1571 11.3513 11.7044 15.724C11.6723 15.8354 11.6047 15.9332 11.5118 16.0026C11.418 16.0722 11.3045 16.11 11.1877 16.1106Z" fill="#2F2F3D" />
            <path d="M8.99981 12.7921C6.96339 12.7944 4.93716 12.5047 2.98302 11.9317C2.98252 12.0037 2.96751 12.0749 2.9389 12.141C2.9103 12.2071 2.86867 12.2668 2.81651 12.3164C2.73912 12.3921 2.64096 12.4431 2.53453 12.4629C2.4281 12.4827 2.31818 12.4703 2.21877 12.4275C2.11935 12.3847 2.03496 12.3133 1.97623 12.2223C1.91751 12.1314 1.88714 12.025 1.889 11.9168V11.1878C1.88948 11.101 1.91044 11.0156 1.95019 10.9385C1.98978 10.8612 2.04678 10.7942 2.1167 10.7427C2.18674 10.6923 2.2677 10.6592 2.35297 10.646C2.43972 10.6333 2.52822 10.6413 2.61127 10.6694C6.76298 12.0407 11.2456 12.0407 15.3973 10.6694C15.5214 10.6263 15.657 10.63 15.7786 10.6797C15.9002 10.7294 15.9995 10.8217 16.058 10.9394C16.0977 11.0168 16.1187 11.1025 16.1191 11.1896V11.9186C16.1156 12.0631 16.0577 12.2009 15.9571 12.3047C15.8553 12.4066 15.7177 12.4644 15.5736 12.4658C15.4296 12.4671 15.2909 12.4119 15.1872 12.3119C15.1366 12.2627 15.0962 12.204 15.0684 12.1391C15.0406 12.0742 15.0259 12.0045 15.0251 11.9339C13.0679 12.5061 11.0389 12.795 8.99981 12.7921Z" fill="#2F2F3D" />
            <path d="M15.5636 7.35956C15.5039 7.36067 15.4446 7.35076 15.3885 7.3303C11.2368 5.95938 6.75426 5.95938 2.60249 7.3303C2.53498 7.35344 2.46355 7.36279 2.39237 7.35777C2.32089 7.35271 2.25105 7.33389 2.18669 7.3024C2.12177 7.2706 2.06379 7.22625 2.01612 7.1719C1.97005 7.11734 1.93436 7.05482 1.91081 6.9874C1.8679 6.8491 1.88042 6.69952 1.94575 6.57029C2.01108 6.44105 2.12415 6.34227 2.26096 6.29482C6.63324 4.84346 11.3574 4.84346 15.7297 6.29482C15.7986 6.31732 15.8625 6.35307 15.9178 6.4001C15.971 6.44854 16.0154 6.50579 16.0492 6.56932C16.0797 6.63402 16.0977 6.704 16.1018 6.77544C16.1064 6.8471 16.0976 6.91899 16.0758 6.9874C16.0403 7.09599 15.9713 7.19052 15.8786 7.25741C15.7874 7.32448 15.6769 7.3603 15.5636 7.35956Z" fill="#2F2F3D" />
            <path d="M12.3598 4.7309C12.3958 4.95624 12.48 5.17111 12.6068 5.36088C12.7822 5.4946 12.9882 5.5824 13.2062 5.61644L12.1897 5.77937L12.3598 4.7309Z" fill="#2F2F3D" />
            <path d="M5.62812 4.7309C5.5923 4.95623 5.5078 5.17111 5.38113 5.36088C5.2055 5.49457 4.99933 5.58236 4.78125 5.61644L5.79776 5.77937L5.62812 4.7309Z" fill="#2F2F3D" />
            <path d="M5.62812 13.2446C5.5923 13.0192 5.5078 12.8044 5.38113 12.6146C5.2055 12.4809 4.99933 12.393 4.78125 12.3589L5.79776 12.1961L5.62812 13.2446Z" fill="#2F2F3D" />
            <path d="M12.3598 13.2445C12.3958 13.0191 12.48 12.8042 12.6068 12.6145C12.7822 12.4808 12.9882 12.3929 13.2062 12.3588L12.1897 12.196L12.3598 13.2445Z" fill="#2F2F3D" />
            <path d="M11.2331 4.73492C11.2331 4.73492 11.3417 5.0764 11.2089 5.21681C11.0762 5.35722 10.6908 5.288 10.6908 5.288L11.448 5.66914L11.673 5.46566L11.2331 4.73492Z" fill="#2F2F3D" />
            <path d="M11.2331 13.2589C11.2331 13.2589 11.3417 12.9173 11.2089 12.7769C11.0762 12.6365 10.6908 12.7058 10.6908 12.7058L11.448 12.3246L11.673 12.528L11.2331 13.2589Z" fill="#2F2F3D" />
            <path d="M13.2572 11.2362C13.2572 11.2362 12.9156 11.3446 12.7752 11.2119C12.6348 11.0791 12.7041 10.6939 12.7041 10.6939L12.323 11.4508L12.5264 11.6759L13.2572 11.2362Z" fill="#2F2F3D" />
            <path d="M4.72921 11.2585C4.72921 11.2585 5.07077 11.367 5.21118 11.2342C5.35159 11.1015 5.28228 10.7162 5.28228 10.7162L5.66345 11.4732L5.46004 11.6982L4.72921 11.2585Z" fill="#2F2F3D" />
            <path d="M6.74888 4.7309C6.74888 4.7309 6.64073 5.07248 6.77349 5.21289C6.90624 5.3533 7.29163 5.28398 7.29163 5.28398L6.53397 5.66522L6.30896 5.46174L6.74888 4.7309Z" fill="#2F2F3D" />
            <path d="M6.74888 13.263C6.74888 13.263 6.64073 12.9214 6.77349 12.781C6.90624 12.6406 7.29163 12.7099 7.29163 12.7099L6.53397 12.3287L6.30896 12.5322L6.74888 13.263Z" fill="#2F2F3D" />
            <path d="M4.72921 6.75112C4.72921 6.75112 5.07077 6.64266 5.21118 6.77542C5.35159 6.90818 5.28228 7.29385 5.28228 7.29385L5.66345 6.53556L5.46004 6.31055L4.72921 6.75112Z" fill="#2F2F3D" />
            <path d="M13.2604 6.75112C13.2604 6.75112 12.9188 6.64266 12.7784 6.77542C12.638 6.90818 12.7073 7.2934 12.7073 7.2934L12.3261 6.53556L12.5295 6.31055L13.2604 6.75112Z" fill="#2F2F3D" />
            <path d="M10.5153 11.6667C10.8205 11.6482 11.1162 11.554 11.3758 11.3927C11.653 11.1591 11.6661 10.4616 11.6661 10.4616L11.8911 11.8949L10.5153 11.6667ZM6.31034 10.4616C6.31034 10.4616 6.32339 11.1596 6.6006 11.3927C6.86029 11.5539 7.15596 11.6481 7.46105 11.6667L6.08533 11.8949L6.31034 10.4616ZM11.3758 6.59498C11.1162 6.43364 10.8205 6.33946 10.5153 6.32091L11.8929 6.0932L11.6679 7.52652C11.6679 7.52652 11.653 6.82854 11.3758 6.59498ZM6.08533 6.0932L7.4633 6.32091C7.15821 6.33959 6.86254 6.43376 6.60285 6.59498C6.32564 6.82854 6.31034 7.52652 6.31034 7.52652L6.08533 6.0932Z" fill="#2F2F3D" />
        </g>
    </g>
    <defs>
        <clipPath id="clip0_796_37379">
            <rect width="18" height="18" fill="white" />
        </clipPath>
        <clipPath id="clip1_796_37379">
            <rect width="18" height="18" fill="white" />
        </clipPath>
    </defs>
</svg>
    