<svg width="18" height="18" viewBox="0 0 18 18" fill="none" xmlns="http://www.w3.org/2000/svg">
    <g clip-path="url(#clip0_930_32629)">
        <path d="M10.1227 14.8666C9.37523 14.5405 8.66593 14.133 8.00766 13.6516C7.30817 13.1364 6.64644 12.5718 6.02755 11.9622C5.41622 11.3442 4.85082 10.6824 4.3359 9.98209C3.862 9.32838 3.4595 8.62578 3.13526 7.88633C2.84582 7.22268 2.6897 6.5086 2.67578 5.78472C2.6752 5.33962 2.75793 4.89836 2.91969 4.4837C3.09286 4.04868 3.36208 3.6584 3.70723 3.342C3.9039 3.13393 4.14028 2.96735 4.40237 2.85211C4.66447 2.73687 4.94697 2.6753 5.23325 2.67102C5.46257 2.67134 5.68906 2.72155 5.89703 2.81818C6.12617 2.92147 6.32191 3.08668 6.46225 3.2952L7.82901 5.21995C7.94274 5.37479 8.03758 5.54263 8.1116 5.71992C8.18538 5.88504 8.22504 6.06337 8.22817 6.2442C8.22526 6.47299 8.16057 6.69673 8.04095 6.89178C7.93136 7.07504 7.79837 7.24326 7.64537 7.39221L7.24621 7.80982C7.25042 7.82426 7.25629 7.83816 7.26374 7.85122C7.4042 8.08289 7.56504 8.30157 7.74436 8.50465C8.03372 8.83407 8.30599 9.13469 8.5742 9.411C8.92387 9.75257 9.21012 10.0235 9.48193 10.2471C9.69075 10.4342 9.91937 10.598 10.1637 10.7354L10.1772 10.7413L10.1948 10.7237L10.584 10.3408C10.7387 10.1793 10.9173 10.0426 11.1137 9.93572C11.2851 9.83255 11.4792 9.77307 11.6789 9.76247C11.879 9.75112 12.079 9.78816 12.2617 9.87047C12.4359 9.94536 12.6017 10.0381 12.7567 10.1472L14.7098 11.5365C14.9179 11.6726 15.0813 11.867 15.1797 12.0954C15.2634 12.2971 15.3076 12.5129 15.3101 12.7313C15.3086 13.0182 15.2447 13.3013 15.1229 13.5611C15.0031 13.8199 14.8433 14.0583 14.6495 14.2676C14.3419 14.62 13.9568 14.8962 13.5244 15.0745C13.1051 15.2247 12.6621 15.2976 12.2167 15.2896C12.165 15.2896 12.1051 15.2896 12.0489 15.2896C11.9119 15.2883 11.7751 15.2786 11.6393 15.2604C11.1196 15.1918 10.6102 15.0596 10.1227 14.8666ZM5.231 3.558C5.05786 3.56365 4.88762 3.60409 4.73044 3.67692C4.57326 3.74975 4.43237 3.85349 4.31612 3.98193C4.06455 4.21196 3.86782 4.49555 3.74052 4.81177C3.61633 5.12255 3.55398 5.45456 3.55693 5.78922C3.57024 6.39408 3.70236 6.99042 3.94576 7.54431C4.24182 8.22385 4.6138 8.86774 5.05461 9.46366C5.53849 10.1263 6.071 10.7521 6.6477 11.3358C7.23379 11.9149 7.86174 12.4501 8.52652 12.9369C9.12611 13.3817 9.77555 13.755 10.4616 14.0494C10.8793 14.2642 11.3358 14.393 11.8041 14.4284C12.2724 14.4639 12.7431 14.405 13.1883 14.2555C13.4986 14.1259 13.7743 13.9256 13.9934 13.6705C14.1297 13.5241 14.2418 13.357 14.3255 13.1754C14.3923 13.0335 14.4284 12.8791 14.4312 12.7223C14.4303 12.6205 14.4075 12.5201 14.3642 12.428C14.3284 12.3546 14.2719 12.2933 14.2017 12.2516L12.2451 10.8619C12.145 10.7901 12.0372 10.7298 11.9238 10.6819C11.8667 10.6417 11.7979 10.6216 11.7281 10.6248C11.6584 10.628 11.5917 10.6542 11.5385 10.6994C11.4119 10.7688 11.2975 10.8583 11.1997 10.9645L10.7497 11.4059C10.6369 11.5107 10.4975 11.5825 10.3468 11.6136C10.196 11.6447 10.0396 11.6339 9.8946 11.5824L9.73573 11.5117C9.43854 11.342 9.15928 11.1427 8.90227 10.9168C8.61965 10.6756 8.31234 10.393 7.94152 10.028C7.6517 9.73322 7.36592 9.42135 7.06576 9.07438C6.83687 8.81977 6.63564 8.5416 6.46543 8.24454L6.39479 8.06813C6.36428 7.97275 6.34761 7.87348 6.34529 7.77337C6.34459 7.6719 6.36384 7.57129 6.40198 7.47726C6.4405 7.38269 6.49826 7.29716 6.57162 7.22614L7.01307 6.76712C7.11399 6.66804 7.203 6.55749 7.27819 6.43771C7.31678 6.37779 7.33868 6.30865 7.34164 6.23744C7.33737 6.17265 7.32211 6.10904 7.29659 6.04933C7.24396 5.93905 7.18004 5.83454 7.1058 5.73747L5.74359 3.80732C5.68779 3.72829 5.61219 3.66528 5.52441 3.62461C5.43222 3.58247 5.33235 3.5598 5.231 3.558Z" fill="#EFF1F8" />
    </g>
    <defs>
        <clipPath id="clip0_930_32629">
            <rect width="18" height="18" fill="white" />
        </clipPath>
    </defs>
</svg>
    