<svg width="18" height="18" viewBox="0 0 18 18" fill="none" xmlns="http://www.w3.org/2000/svg">
    <g clip-path="url(#clip0_796_37319)">
        <g clip-path="url(#clip1_796_37319)">
            <path d="M10.122 14.8666C9.37449 14.5405 8.6652 14.133 8.00693 13.6516C7.30744 13.1364 6.6457 12.5718 6.02682 11.9622C5.41548 11.3442 4.85009 10.6824 4.33517 9.98209C3.86127 9.32838 3.45877 8.62578 3.13452 7.88633C2.84509 7.22268 2.68897 6.5086 2.67505 5.78472C2.67447 5.33962 2.7572 4.89836 2.91896 4.4837C3.09213 4.04868 3.36135 3.6584 3.7065 3.342C3.90317 3.13393 4.13954 2.96735 4.40164 2.85211C4.66374 2.73687 4.94624 2.6753 5.23252 2.67102C5.46184 2.67134 5.68833 2.72155 5.89629 2.81818C6.12543 2.92147 6.32118 3.08668 6.46151 3.2952L7.82828 5.21995C7.94201 5.37479 8.03685 5.54263 8.11086 5.71992C8.18465 5.88504 8.22431 6.06337 8.22743 6.2442C8.22453 6.47299 8.15984 6.69673 8.04022 6.89178C7.93063 7.07504 7.79764 7.24326 7.64464 7.39221L7.24548 7.80982C7.24969 7.82426 7.25556 7.83816 7.26301 7.85122C7.40347 8.08289 7.56431 8.30157 7.74363 8.50465C8.03299 8.83407 8.30525 9.13469 8.57347 9.411C8.92313 9.75257 9.20939 10.0235 9.4812 10.2471C9.69001 10.4342 9.91864 10.598 10.163 10.7354L10.1765 10.7413L10.194 10.7237L10.5833 10.3408C10.7379 10.1793 10.9166 10.0426 11.113 9.93572C11.2844 9.83255 11.4784 9.77307 11.6782 9.76247C11.8783 9.75112 12.0782 9.78816 12.261 9.87047C12.4351 9.94536 12.601 10.0381 12.756 10.1472L14.7091 11.5365C14.9172 11.6726 15.0806 11.867 15.1789 12.0954C15.2626 12.2971 15.3069 12.5129 15.3094 12.7313C15.3079 13.0182 15.244 13.3013 15.1222 13.5611C15.0023 13.8199 14.8426 14.0583 14.6488 14.2676C14.3412 14.62 13.9561 14.8962 13.5237 15.0745C13.1044 15.2247 12.6613 15.2976 12.216 15.2896C12.1642 15.2896 12.1044 15.2896 12.0481 15.2896C11.9111 15.2883 11.7744 15.2786 11.6386 15.2604C11.1188 15.1918 10.6095 15.0596 10.122 14.8666ZM5.23027 3.558C5.05713 3.56365 4.88689 3.60409 4.72971 3.67692C4.57253 3.74975 4.43164 3.85349 4.31539 3.98193C4.06381 4.21196 3.86709 4.49555 3.73979 4.81177C3.6156 5.12255 3.55325 5.45456 3.5562 5.78922C3.56951 6.39408 3.70163 6.99042 3.94502 7.54431C4.24108 8.22385 4.61306 8.86774 5.05388 9.46366C5.53775 10.1263 6.07027 10.7521 6.64697 11.3358C7.23306 11.9149 7.86101 12.4501 8.52578 12.9369C9.12538 13.3817 9.77482 13.755 10.4609 14.0494C10.8786 14.2642 11.3351 14.393 11.8034 14.4284C12.2717 14.4639 12.7424 14.405 13.1876 14.2555C13.4979 14.1259 13.7736 13.9256 13.9927 13.6705C14.129 13.5241 14.2411 13.357 14.3248 13.1754C14.3916 13.0335 14.4276 12.8791 14.4305 12.7223C14.4296 12.6205 14.4067 12.5201 14.3635 12.428C14.3276 12.3546 14.2712 12.2933 14.201 12.2516L12.2443 10.8619C12.1443 10.7901 12.0365 10.7298 11.923 10.6819C11.866 10.6417 11.7971 10.6216 11.7274 10.6248C11.6577 10.628 11.591 10.6542 11.5378 10.6994C11.4112 10.7688 11.2968 10.8583 11.1989 10.9645L10.7489 11.4059C10.6361 11.5107 10.4968 11.5825 10.346 11.6136C10.1953 11.6447 10.0389 11.6339 9.89387 11.5824L9.735 11.5117C9.43781 11.342 9.15855 11.1427 8.90153 10.9168C8.61892 10.6756 8.31161 10.393 7.94079 10.028C7.65097 9.73322 7.36519 9.42135 7.06502 9.07438C6.83613 8.81977 6.63491 8.5416 6.4647 8.24454L6.39405 8.06813C6.36354 7.97275 6.34688 7.87348 6.34456 7.77337C6.34386 7.6719 6.36311 7.57129 6.40125 7.47726C6.43977 7.38269 6.49752 7.29716 6.57089 7.22614L7.01234 6.76712C7.11326 6.66804 7.20227 6.55749 7.27745 6.43771C7.31605 6.37779 7.33795 6.30865 7.3409 6.23744C7.33664 6.17265 7.32138 6.10904 7.29586 6.04933C7.24323 5.93905 7.1793 5.83454 7.10507 5.73747L5.74286 3.80732C5.68706 3.72829 5.61146 3.66528 5.52367 3.62461C5.43149 3.58247 5.33161 3.5598 5.23027 3.558Z" fill="#2F2F3D" />
        </g>
    </g>
    <defs>
        <clipPath id="clip0_796_37319">
            <rect width="18" height="18" fill="white" />
        </clipPath>
        <clipPath id="clip1_796_37319">
            <rect width="18" height="18" fill="white" />
        </clipPath>
    </defs>
</svg>