<svg width="18" height="18" viewBox="0 0 18 18" fill="none" xmlns="http://www.w3.org/2000/svg">
    <path d="M9.00103 13.8964C8.85708 13.8953 8.71933 13.8376 8.61754 13.7359C8.51575 13.6341 8.45809 13.4963 8.45703 13.3524V10.0924C8.45821 9.94856 8.51591 9.81093 8.61769 9.70923C8.71947 9.60754 8.85716 9.54995 9.00103 9.54889C9.14498 9.54995 9.28273 9.6076 9.38452 9.70939C9.48631 9.81118 9.54396 9.94894 9.54502 10.0929V13.3528C9.54385 13.4967 9.48614 13.6343 9.38436 13.736C9.28259 13.8377 9.1449 13.8953 9.00103 13.8964Z" fill="#EFF1F8" />
    <path d="M13.0613 16.6591H4.9401C4.2867 16.6482 3.6571 16.412 3.15767 15.9906C2.65825 15.5691 2.31961 14.9882 2.19897 14.3459L1.23427 8.5667C1.17313 8.08048 1.2326 7.58668 1.40743 7.12888C1.58226 6.67108 1.86709 6.26335 2.23677 5.94166L7.26052 1.91816C7.7615 1.53815 8.37335 1.33306 9.00216 1.33436C9.63096 1.33566 10.242 1.54328 10.7414 1.92536L15.7665 5.94256C16.1318 6.26758 16.4135 6.67582 16.5877 7.13275C16.7619 7.58968 16.8234 8.08184 16.7672 8.5676L15.8025 14.3369C15.6758 14.9771 15.3357 15.5553 14.8378 15.9771C14.3399 16.3989 13.7136 16.6394 13.0613 16.6591ZM8.99329 2.42436C8.6147 2.41811 8.24477 2.53793 7.94175 2.76498L2.91665 6.79702C2.70011 6.99887 2.53263 7.2476 2.42703 7.52415C2.32143 7.80071 2.28051 8.09776 2.30741 8.39257L3.27167 14.1646C3.35362 14.5512 3.56214 14.8995 3.86423 15.1543C4.16632 15.4091 4.54474 15.556 4.93965 15.5716H13.0613C13.4573 15.5557 13.8367 15.4078 14.1389 15.1515C14.4412 14.8951 14.649 14.545 14.7293 14.1569L15.6936 8.38492C15.7171 8.09039 15.6746 7.79434 15.5692 7.51831C15.4638 7.24229 15.2982 6.99326 15.0843 6.78938L10.0592 2.77308C9.75271 2.5413 9.37754 2.41857 8.99329 2.42436Z" fill="#EFF1F8" />
</svg>
    