<svg width="18" height="18" viewBox="0 0 18 18" fill="none" xmlns="http://www.w3.org/2000/svg">
    <path d="M9.00066 13.8964C8.85671 13.8953 8.71896 13.8376 8.61717 13.7359C8.51538 13.6341 8.45772 13.4963 8.45667 13.3524V10.0924C8.45784 9.94856 8.51555 9.81093 8.61733 9.70923C8.7191 9.60754 8.85679 9.54995 9.00066 9.54889C9.14461 9.54995 9.28236 9.6076 9.38415 9.70939C9.48594 9.81118 9.5436 9.94894 9.54466 10.0929V13.3528C9.54348 13.4967 9.48577 13.6343 9.384 13.736C9.28222 13.8377 9.14453 13.8953 9.00066 13.8964Z" fill="#2F2F3D" />
    <path d="M13.0617 16.6591H4.94046C4.28706 16.6482 3.65746 16.412 3.15804 15.9906C2.65861 15.5691 2.31998 14.9882 2.19934 14.3459L1.23464 8.5667C1.17349 8.08048 1.23296 7.58668 1.4078 7.12888C1.58263 6.67108 1.86745 6.26335 2.23714 5.94166L7.26088 1.91816C7.76187 1.53815 8.37372 1.33306 9.00252 1.33436C9.63133 1.33566 10.2423 1.54328 10.7417 1.92536L15.7668 5.94256C16.1322 6.26758 16.4139 6.67582 16.5881 7.13275C16.7623 7.58968 16.8238 8.08184 16.7675 8.5676L15.8028 14.3369C15.6761 14.9771 15.336 15.5553 14.8381 15.9771C14.3402 16.3989 13.714 16.6394 13.0617 16.6591ZM8.99366 2.42436C8.61506 2.41811 8.24514 2.53793 7.94211 2.76498L2.91702 6.79702C2.70048 6.99887 2.53299 7.2476 2.42739 7.52415C2.32179 7.80071 2.28088 8.09776 2.30778 8.39257L3.27203 14.1646C3.35399 14.5512 3.5625 14.8995 3.86459 15.1543C4.16668 15.4091 4.54511 15.556 4.94002 15.5716H13.0617C13.4577 15.5557 13.837 15.4078 14.1393 15.1515C14.4415 14.8951 14.6494 14.545 14.7297 14.1569L15.6939 8.38492C15.7175 8.09039 15.675 7.79434 15.5696 7.51831C15.4642 7.24229 15.2985 6.99326 15.0847 6.78938L10.0596 2.77308C9.75308 2.5413 9.37791 2.41857 8.99366 2.42436Z" fill="#2F2F3D" />
</svg>
    