<svg width="18" height="19" viewBox="0 0 18 19" fill="none" xmlns="http://www.w3.org/2000/svg">
    <g clip-path="url(#clip0_930_33460)">
        <path d="M8.99933 14.1452C8.19952 14.1471 7.4238 13.8716 6.80443 13.3655C6.18506 12.8595 5.7604 12.1544 5.60286 11.3702C5.44532 10.5861 5.56465 9.7715 5.94051 9.0655C6.31637 8.35951 6.92548 7.80577 7.66398 7.49866C8.40248 7.19156 9.22464 7.15013 9.99027 7.38143C10.7559 7.61274 11.4176 8.10247 11.8625 8.7671C12.3075 9.43173 12.5081 10.2301 12.4302 11.0261C12.3523 11.8221 12.0007 12.5664 11.4353 13.1322C11.1159 13.453 10.7363 13.7078 10.3183 13.8816C9.90028 14.0554 9.45205 14.145 8.99933 14.1452ZM8.99933 8.33993C8.45271 8.33891 7.92267 8.52747 7.49958 8.87356C7.07649 9.21966 6.78655 9.70183 6.67919 10.2378C6.57184 10.7738 6.65373 11.3304 6.91089 11.8128C7.16806 12.2951 7.58457 12.6733 8.08941 12.8829C8.59425 13.0925 9.15616 13.1204 9.67932 12.962C10.2025 12.8036 10.6545 12.4686 10.9583 12.0142C11.2621 11.5597 11.3988 11.014 11.3453 10.4701C11.2917 9.92608 11.051 9.41752 10.6644 9.03111C10.2228 8.58914 9.62413 8.34006 8.99933 8.33817V8.33993Z" fill="#9496B3" />
        <path d="M8.59284 11.8805C8.47413 11.8806 8.3566 11.8569 8.24723 11.8107C8.1379 11.7665 8.03824 11.7014 7.95381 11.6191L7.48219 11.1457C7.41164 11.0686 7.36485 10.9727 7.34743 10.8697C7.33002 10.7666 7.34272 10.6608 7.38402 10.5648C7.42532 10.4688 7.49345 10.3867 7.58024 10.3285C7.66702 10.2702 7.76877 10.2384 7.87326 10.2366C7.94268 10.2341 8.0119 10.2454 8.07694 10.2698C8.14198 10.2942 8.20153 10.3312 8.25218 10.3788L8.6005 10.7271L9.77055 9.65243C9.84942 9.57931 9.94817 9.53118 10.0544 9.51411C10.1605 9.49703 10.2694 9.5118 10.3672 9.55652C10.465 9.60123 10.5474 9.6739 10.604 9.76538C10.6605 9.85685 10.6887 9.963 10.685 10.0705C10.6797 10.2152 10.6172 10.3519 10.5113 10.4507L9.21928 11.6415C9.0464 11.7946 8.82374 11.8795 8.59284 11.8805Z" fill="#9496B3" />
        <path d="M11.9038 16.9042H6.09441C2.74084 16.9042 2.11666 15.3422 1.9569 13.8265L1.41418 8.0091C1.32524 7.53378 1.33747 7.04504 1.45006 6.57476C1.56264 6.10449 1.77307 5.66314 2.06761 5.27963C2.72104 4.55375 3.80245 4.20544 5.36897 4.20544H12.6278C14.2029 4.20544 15.283 4.5623 15.9305 5.27963C16.2257 5.66448 16.4365 6.1073 16.549 6.57905C16.6616 7.0508 16.6735 7.5409 16.584 8.01756L16.0395 13.8161C15.8828 15.3421 15.2587 16.9042 11.9038 16.9042ZM5.37077 5.28952C4.14401 5.28952 3.30067 5.52758 2.8736 6.00685C2.67976 6.278 2.54584 6.58737 2.48075 6.91426C2.41565 7.24115 2.42086 7.57814 2.49603 7.90286L3.04056 13.7158C3.16386 14.8629 3.47618 15.8152 6.09666 15.8152H11.9019C14.5152 15.8152 14.8347 14.8629 14.9581 13.71L15.5026 7.90824C15.5778 7.58258 15.583 7.24463 15.518 6.91679C15.4529 6.58894 15.3189 6.27864 15.125 6.00641C14.6966 5.52714 13.8546 5.28908 12.6278 5.28908L5.37077 5.28952Z" fill="#9496B3" />
        <path d="M11.905 5.29002C11.7608 5.28734 11.6233 5.22911 11.5211 5.12752C11.4189 5.02605 11.3611 4.88823 11.3604 4.74419V4.1632C11.3604 2.87119 11.3604 2.38608 9.58194 2.38608H8.42223C6.64374 2.38608 6.64374 2.87119 6.64374 4.1632V4.74419C6.6431 4.88823 6.58532 5.02605 6.48309 5.12752C6.43324 5.17894 6.37358 5.2198 6.30764 5.24772C6.2417 5.27564 6.17082 5.29002 6.09922 5.29002C6.02761 5.29002 5.95673 5.27564 5.89079 5.24772C5.82485 5.2198 5.76519 5.17894 5.71535 5.12752C5.61311 5.02605 5.55533 4.88823 5.55469 4.74419V4.1632C5.55469 2.88559 5.55469 1.29431 8.42223 1.29431H9.58374C12.4513 1.29431 12.4513 2.88559 12.4513 4.1632V4.74419C12.4506 4.88823 12.3929 5.02605 12.2906 5.12752C12.1879 5.22954 12.0497 5.28781 11.905 5.29002Z" fill="#9496B3" />
        <path d="M11.9117 10.8336C11.7793 10.8332 11.6516 10.7853 11.5516 10.6985C11.4521 10.6103 11.388 10.4889 11.3714 10.3569C11.3549 10.2248 11.3869 10.0913 11.4616 9.98121C11.5357 9.87128 11.648 9.79272 11.7766 9.76071C13.1835 9.40656 14.5093 8.78556 15.6819 7.93139C15.7399 7.88869 15.8059 7.85799 15.8759 7.8413C15.9455 7.82389 16.0179 7.82093 16.0888 7.8324C16.1956 7.85 16.2947 7.89877 16.3738 7.9727C16.4528 8.04663 16.5082 8.14233 16.5329 8.2477C16.5495 8.31716 16.5521 8.38918 16.5406 8.45964C16.529 8.53056 16.5038 8.5986 16.4663 8.65993C16.4282 8.72073 16.3791 8.77392 16.3214 8.8166C15.0346 9.75134 13.5808 10.4313 12.0386 10.8201C11.9966 10.8275 11.9542 10.8321 11.9117 10.8336Z" fill="#9496B3" />
        <path d="M6.0974 10.8549C6.05353 10.8545 6.00981 10.8497 5.9669 10.8405C4.5054 10.4825 3.12083 9.86275 1.88024 9.01122C1.81955 8.97151 1.76739 8.92014 1.72679 8.86004C1.6856 8.80086 1.65724 8.73372 1.64353 8.66294C1.62924 8.59194 1.62924 8.5188 1.64353 8.44781C1.65814 8.37724 1.68626 8.31017 1.72634 8.25027C1.76654 8.19022 1.81849 8.13886 1.87905 8.09942C1.93961 8.05997 2.00752 8.03325 2.0787 8.02075C2.1497 8.00708 2.22273 8.00793 2.29336 8.02339C2.36349 8.04045 2.42995 8.07007 2.48957 8.11073C3.6217 8.88901 4.88601 9.45474 6.22071 9.7803C6.29047 9.79698 6.35614 9.82757 6.41377 9.87028C6.47114 9.91289 6.51987 9.9661 6.55733 10.027C6.59453 10.0887 6.6192 10.1571 6.62994 10.2283C6.64067 10.2996 6.63725 10.3723 6.61988 10.4423C6.59279 10.5604 6.52648 10.6659 6.43177 10.7415C6.337 10.8173 6.21869 10.8574 6.0974 10.8549Z" fill="#9496B3" />
    </g>
    <defs>
        <clipPath id="clip0_930_33460">
            <rect width="18" height="18" fill="white" transform="translate(0 0.098999)" />
        </clipPath>
    </defs>
</svg>
    