<svg width="18" height="19" viewBox="0 0 18 19" fill="none" xmlns="http://www.w3.org/2000/svg">
    <path d="M14.0562 7.20226C13.5205 7.20226 12.9968 7.0434 12.5514 6.74578C12.106 6.44817 11.7588 6.02515 11.5538 5.53022C11.3488 5.0353 11.2952 4.4907 11.3997 3.9653C11.5042 3.43989 11.7622 2.95727 12.141 2.57847C12.5198 2.19968 13.0024 1.94171 13.5278 1.8372C14.0532 1.73269 14.5978 1.78633 15.0927 1.99133C15.5876 2.19634 16.0107 2.5435 16.3083 2.98892C16.6059 3.43434 16.7648 3.95801 16.7648 4.49371C16.7645 5.21199 16.4791 5.90078 15.9712 6.40868C15.4633 6.91658 14.7745 7.20202 14.0562 7.20226ZM14.0562 2.86876C13.7348 2.86876 13.4207 2.96406 13.1534 3.14261C12.8862 3.32116 12.6779 3.57495 12.555 3.87187C12.432 4.16879 12.3998 4.49551 12.4625 4.81072C12.5252 5.12593 12.6799 5.41547 12.9072 5.64272C13.1344 5.86997 13.424 6.02474 13.7392 6.08743C14.0544 6.15013 14.3811 6.11795 14.6781 5.99497C14.975 5.87198 15.2288 5.6637 15.4073 5.39648C15.5859 5.12926 15.6812 4.81509 15.6812 4.49371C15.6804 4.06296 15.509 3.65007 15.2044 3.34548C14.8999 3.0409 14.487 2.86947 14.0562 2.86876Z" fill="#9496B3" />
    <path d="M9.00071 7.74376H5.38766C5.24429 7.74222 5.10729 7.68434 5.00625 7.58263C4.90521 7.48091 4.84824 7.34353 4.84766 7.20016C4.84918 7.05741 4.90656 6.92094 5.0075 6.82C5.10844 6.71906 5.24491 6.66168 5.38766 6.66016H9.00071C9.14345 6.66168 9.27992 6.71906 9.38086 6.82C9.4818 6.92094 9.53918 7.05741 9.54071 7.20016C9.54012 7.34353 9.48316 7.48091 9.38211 7.58263C9.28107 7.68434 9.14407 7.74222 9.00071 7.74376Z" fill="#9496B3" />
    <path d="M11.8897 13.7027H5.38766C5.24429 13.7012 5.10729 13.6433 5.00625 13.5416C4.90521 13.4399 4.84824 13.3025 4.84766 13.1591C4.84918 13.0164 4.90656 12.8799 5.0075 12.779C5.10844 12.678 5.24491 12.6207 5.38766 12.6191H11.8897C12.0325 12.6207 12.1689 12.678 12.2699 12.779C12.3708 12.8799 12.4282 13.0164 12.4297 13.1591C12.4291 13.3025 12.3722 13.4399 12.2711 13.5416C12.1701 13.6433 12.0331 13.7012 11.8897 13.7027Z" fill="#9496B3" />
    <path d="M11.8897 10.7623H5.38766C5.24429 10.7608 5.10729 10.7029 5.00625 10.6012C4.90521 10.4995 4.84824 10.3621 4.84766 10.2187C4.84918 10.076 4.90656 9.9395 5.0075 9.83856C5.10844 9.73761 5.24491 9.68023 5.38766 9.67871H11.8897C12.0325 9.68023 12.1689 9.73761 12.2699 9.83856C12.3708 9.9395 12.4282 10.076 12.4297 10.2187C12.4291 10.3621 12.3722 10.4995 12.2711 10.6012C12.1701 10.7029 12.0331 10.7608 11.8897 10.7623Z" fill="#9496B3" />
    <path d="M11.1654 17.3138H6.83192C2.91017 17.3138 1.23438 15.638 1.23438 11.7162V7.38271C1.23438 3.46096 2.91017 1.78516 6.83192 1.78516H10.4432C10.5859 1.78668 10.7224 1.84406 10.8233 1.945C10.9243 2.04594 10.9817 2.18241 10.9832 2.32516C10.9817 2.4679 10.9243 2.60437 10.8233 2.70531C10.7224 2.80625 10.5859 2.86363 10.4432 2.86516H6.83192C3.50192 2.86516 2.31797 4.04956 2.31797 7.37911V11.7126C2.31797 15.0426 3.50237 16.2266 6.83192 16.2266H11.1654C14.4954 16.2266 15.6794 15.0422 15.6794 11.7126V8.10496C15.6794 7.96126 15.7365 7.82345 15.8381 7.72185C15.9397 7.62024 16.0775 7.56316 16.2212 7.56316C16.3649 7.56316 16.5027 7.62024 16.6043 7.72185C16.7059 7.82345 16.763 7.96126 16.763 8.10496V11.7162C16.763 15.638 15.0872 17.3138 11.1654 17.3138Z" fill="#9496B3" />
</svg>
    