<svg width="18" height="19" viewBox="0 0 18 19" fill="none" xmlns="http://www.w3.org/2000/svg">
    <g clip-path="url(#clip0_930_33523)">
        <path d="M9.35775 11.3232H7.56675C7.427 11.3191 7.29433 11.2608 7.19691 11.1605C7.09949 11.0602 7.04499 10.9259 7.04499 10.7861C7.04499 10.6463 7.09949 10.512 7.19691 10.4117C7.29433 10.3114 7.427 10.2531 7.56675 10.249H9.3573C10.2596 10.249 11.1249 9.89059 11.7629 9.25259C12.4009 8.6146 12.7593 7.74928 12.7593 6.84702C12.7593 5.94475 12.4009 5.07944 11.7629 4.44144C11.1249 3.80344 10.2596 3.44502 9.3573 3.44502H5.7762C5.13139 3.44466 4.4998 3.62777 3.95518 3.97297C3.41056 4.31817 2.97541 4.81121 2.70054 5.39449C2.42567 5.97777 2.32244 6.62722 2.40291 7.26699C2.48337 7.90675 2.7442 8.51041 3.15495 9.00747C3.23698 9.11851 3.27337 9.25677 3.25663 9.39381C3.23989 9.53086 3.1713 9.65629 3.06494 9.74432C2.95858 9.83236 2.82255 9.87631 2.68479 9.86715C2.54703 9.85799 2.41801 9.79641 2.32425 9.69507C1.7815 9.04147 1.43621 8.24676 1.32883 7.404C1.22145 6.56125 1.35641 5.70534 1.71792 4.93653C2.07942 4.16771 2.65251 3.51781 3.37005 3.06295C4.08759 2.60808 4.91988 2.36708 5.76945 2.36817H9.35055C10.5381 2.36721 11.6773 2.83803 12.5177 3.67705C13.358 4.51607 13.8307 5.65456 13.8316 6.84207C13.8326 8.02957 13.3618 9.16882 12.5228 10.0092C11.6837 10.8496 10.5453 11.3222 9.35775 11.3232Z" fill="#9496B3" />
        <path d="M12.2227 16.337H8.64156C7.45406 16.337 6.31519 15.8652 5.47549 15.0255C4.6358 14.1858 4.16406 13.047 4.16406 11.8595C4.16406 10.672 4.6358 9.53308 5.47549 8.69339C6.31519 7.85369 7.45406 7.38196 8.64156 7.38196H10.4321C10.5743 7.38279 10.7105 7.43967 10.811 7.54027C10.9115 7.64087 10.9683 7.77705 10.969 7.91926C10.9683 8.06154 10.9114 8.19779 10.8108 8.2984C10.7102 8.39901 10.5739 8.45585 10.4317 8.45656H8.64156C7.7393 8.45656 6.87398 8.81498 6.23598 9.45298C5.59799 10.091 5.23956 10.9563 5.23956 11.8586C5.23956 12.7608 5.59799 13.6261 6.23598 14.2641C6.87398 14.9021 7.7393 15.2606 8.64156 15.2606H12.2227C12.868 15.2613 13.5001 15.0784 14.0452 14.733C14.5903 14.3877 15.0259 13.8943 15.3008 13.3105C15.5758 12.7267 15.6788 12.0767 15.5979 11.4365C15.517 10.7963 15.2555 10.1924 14.8439 9.69541C14.7537 9.58483 14.7107 9.44322 14.7241 9.30117C14.7375 9.15911 14.8062 9.02804 14.9155 8.93626C14.9699 8.89076 15.0327 8.8565 15.1004 8.83545C15.1682 8.81441 15.2394 8.807 15.31 8.81365C15.3806 8.82031 15.4491 8.84089 15.5117 8.87422C15.5743 8.90754 15.6297 8.95295 15.6746 9.00781C16.2184 9.6618 16.5644 10.4574 16.6719 11.3011C16.7794 12.1448 16.644 13.0017 16.2816 13.7712C15.9192 14.5407 15.3448 15.1908 14.6258 15.6453C13.9069 16.0997 13.0732 16.3397 12.2227 16.337Z" fill="#9496B3" />
    </g>
    <defs>
        <clipPath id="clip0_930_33523">
            <rect width="18" height="18" fill="white" transform="translate(0 0.351562)" />
        </clipPath>
    </defs>
</svg>
    