<svg width="18" height="19" viewBox="0 0 18 19" fill="none" xmlns="http://www.w3.org/2000/svg">
    <g clip-path="url(#clip0_796_37371)">
        <path fill-rule="evenodd" clip-rule="evenodd" d="M6.64115 10.4242C7.03018 10.6841 7.48756 10.8228 7.95544 10.8228C8.5827 10.8224 9.18414 10.573 9.62768 10.1294C10.0712 9.68588 10.3206 9.08445 10.3211 8.45719C10.3211 7.98931 10.1823 7.53193 9.92241 7.1429C9.66246 6.75387 9.293 6.45066 8.86073 6.27161C8.42847 6.09256 7.95281 6.04571 7.49392 6.13699C7.03503 6.22827 6.61351 6.45358 6.28267 6.78442C5.95183 7.11526 5.72652 7.53678 5.63524 7.99567C5.54397 8.45456 5.59081 8.93022 5.76986 9.36248C5.94891 9.79475 6.25213 10.1642 6.64115 10.4242ZM7.22267 7.36052C7.43957 7.21559 7.69458 7.13824 7.95544 7.13824C8.30499 7.13907 8.63999 7.2783 8.88716 7.52547C9.13433 7.77264 9.27356 8.10763 9.27439 8.45719C9.27439 8.71805 9.19703 8.97306 9.05211 9.18996C8.90718 9.40686 8.70119 9.57591 8.46018 9.67574C8.21917 9.77557 7.95398 9.80168 7.69812 9.75079C7.44227 9.6999 7.20726 9.57428 7.0228 9.38982C6.83834 9.20537 6.71272 8.97035 6.66183 8.7145C6.61094 8.45865 6.63706 8.19345 6.73689 7.95245C6.83672 7.71144 7.00577 7.50545 7.22267 7.36052Z" fill="#2F2F3D" />
        <path d="M3.96541 10.5163C3.8269 10.5154 3.69433 10.4599 3.59639 10.362C3.49845 10.2641 3.443 10.1315 3.44206 9.99297V6.92262C3.443 6.78411 3.49845 6.65155 3.59639 6.5536C3.69433 6.45566 3.8269 6.40022 3.96541 6.39927C4.10392 6.40022 4.23649 6.45566 4.33443 6.5536C4.43238 6.65155 4.48782 6.78411 4.48876 6.92262V9.99297C4.48888 10.0617 4.47542 10.1298 4.44916 10.1934C4.42291 10.2569 4.38436 10.3147 4.33574 10.3633C4.28712 10.4119 4.22938 10.4505 4.16583 10.4767C4.10228 10.503 4.03417 10.5164 3.96541 10.5163Z" fill="#2F2F3D" />
        <path d="M11.5705 10.362C11.6684 10.4599 11.801 10.5154 11.9395 10.5163C12.0082 10.5164 12.0764 10.503 12.1399 10.4767C12.2035 10.4505 12.2612 10.4119 12.3098 10.3633C12.3584 10.3147 12.397 10.2569 12.4232 10.1934C12.4495 10.1298 12.463 10.0617 12.4628 9.99297V6.92262C12.4619 6.78411 12.4065 6.65155 12.3085 6.5536C12.2106 6.45566 12.078 6.40022 11.9395 6.39927C11.801 6.40022 11.6684 6.45566 11.5705 6.5536C11.4725 6.65155 11.4171 6.78411 11.4161 6.92262V9.99297C11.4171 10.1315 11.4725 10.2641 11.5705 10.362Z" fill="#2F2F3D" />
        <path fill-rule="evenodd" clip-rule="evenodd" d="M3.31614 13.587C3.39196 13.6173 3.46911 13.644 3.54732 13.667C3.65787 14.0684 3.85141 14.4436 4.11683 14.7677C4.45557 15.1813 4.899 15.4965 5.40094 15.6805C5.90684 15.8621 6.44173 15.9493 6.97909 15.9379H13.113C15.4017 15.9379 16.7067 14.6329 16.7063 12.3442V8.75053C16.7063 6.9701 15.9076 5.77065 14.4454 5.33783C14.0234 3.86295 12.8203 3.05701 11.0188 3.05701H4.88484C2.60289 3.05701 1.29114 4.36876 1.29114 6.65071V10.2444C1.29114 12.3797 2.38689 13.2378 3.31614 13.587ZM11.0188 13.8453H4.88484C4.84335 13.8456 4.80187 13.8454 4.76041 13.8446C4.98024 14.2483 5.34379 14.5546 5.77894 14.7027C6.16699 14.8368 6.57583 14.9006 6.98629 14.8912H13.1198C14.8365 14.8912 15.6668 14.061 15.6668 12.3442V8.75053C15.6668 7.64803 15.3248 6.91543 14.6201 6.53158V10.2508C14.6201 12.1974 13.6656 13.438 11.9685 13.7606C11.6741 13.8167 11.3572 13.8453 11.0188 13.8453ZM13.4969 5.87053C13.4927 5.84944 13.4898 5.82819 13.4881 5.80687C13.2335 4.66773 12.4279 4.11766 11.0278 4.11766H4.89114C3.17439 4.11766 2.34414 4.94791 2.34414 6.66466V10.257C2.34414 11.5062 2.78379 12.2735 3.68379 12.6155C3.79231 12.6542 3.90346 12.6852 4.01636 12.708C4.04552 12.7101 4.07456 12.7147 4.10314 12.7218C4.36028 12.7747 4.62227 12.8005 4.88479 12.7987H11.0196C12.7364 12.7987 13.5666 11.9685 13.5666 10.2517V6.65668C13.57 6.39294 13.5467 6.12954 13.4969 5.87053Z" fill="#2F2F3D" />
    </g>
    <defs>
        <clipPath id="clip0_796_37371">
            <rect width="18" height="18" fill="white" transform="translate(0 0.5)" />
        </clipPath>
    </defs>
</svg>
    