<svg width="18" height="18" viewBox="0 0 18 18" fill="none" xmlns="http://www.w3.org/2000/svg">
    <g clip-path="url(#clip0_930_32681)">
        <path fill-rule="evenodd" clip-rule="evenodd" d="M6.64103 9.92415C7.03006 10.1841 7.48744 10.3228 7.95532 10.3228C8.58258 10.3224 9.18402 10.073 9.62756 9.62943C10.0711 9.18588 10.3205 8.58445 10.321 7.95719C10.321 7.48931 10.1822 7.03193 9.92228 6.6429C9.66234 6.25387 9.29288 5.95066 8.86061 5.77161C8.42835 5.59256 7.95269 5.54571 7.4938 5.63699C7.03491 5.72827 6.61339 5.95358 6.28255 6.28442C5.95171 6.61526 5.7264 7.03678 5.63512 7.49567C5.54384 7.95456 5.59069 8.43022 5.76974 8.86248C5.94879 9.29475 6.252 9.66421 6.64103 9.92415ZM7.22255 6.86052C7.43945 6.71559 7.69445 6.63824 7.95532 6.63824C8.30487 6.63907 8.63987 6.7783 8.88704 7.02547C9.13421 7.27264 9.27344 7.60763 9.27427 7.95719C9.27427 8.21805 9.19691 8.47306 9.05198 8.68996C8.90706 8.90686 8.70106 9.07591 8.46006 9.17574C8.21905 9.27557 7.95385 9.30168 7.698 9.25079C7.44215 9.1999 7.20714 9.07428 7.02268 8.88982C6.83822 8.70537 6.7126 8.47035 6.66171 8.2145C6.61082 7.95865 6.63694 7.69345 6.73677 7.45245C6.83659 7.21144 7.00565 7.00545 7.22255 6.86052Z" fill="#EFF1F8" />
        <path d="M3.96529 10.0163C3.82678 10.0154 3.69421 9.95994 3.59627 9.862C3.49832 9.76405 3.44288 9.63148 3.44194 9.49297V6.42262C3.44288 6.28411 3.49832 6.15155 3.59627 6.0536C3.69421 5.95566 3.82678 5.90022 3.96529 5.89927C4.1038 5.90022 4.23637 5.95566 4.33431 6.0536C4.43225 6.15155 4.4877 6.28411 4.48864 6.42262V9.49297C4.48876 9.56173 4.4753 9.62984 4.44904 9.69339C4.42278 9.75694 4.38424 9.81468 4.33562 9.8633C4.287 9.91192 4.22926 9.95047 4.16571 9.97673C4.10216 10.003 4.03405 10.0164 3.96529 10.0163Z" fill="#EFF1F8" />
        <path d="M11.5703 9.862C11.6683 9.95994 11.8009 10.0154 11.9394 10.0163C12.0081 10.0164 12.0762 10.003 12.1398 9.97673C12.2033 9.95047 12.2611 9.91192 12.3097 9.8633C12.3583 9.81468 12.3969 9.75694 12.4231 9.69339C12.4494 9.62984 12.4628 9.56173 12.4627 9.49297V6.42262C12.4618 6.28411 12.4063 6.15155 12.3084 6.0536C12.2104 5.95566 12.0779 5.90022 11.9394 5.89927C11.8009 5.90022 11.6683 5.95566 11.5703 6.0536C11.4724 6.15155 11.417 6.28411 11.416 6.42262V9.49297C11.417 9.63148 11.4724 9.76405 11.5703 9.862Z" fill="#EFF1F8" />
        <path fill-rule="evenodd" clip-rule="evenodd" d="M3.31602 13.087C3.39184 13.1173 3.46899 13.144 3.5472 13.167C3.65775 13.5684 3.85129 13.9436 4.11671 14.2677C4.45545 14.6813 4.89888 14.9965 5.40082 15.1805C5.90672 15.3621 6.44161 15.4493 6.97897 15.4379H13.1129C15.4016 15.4379 16.7066 14.1329 16.7062 11.8442V8.25053C16.7062 6.4701 15.9075 5.27065 14.4452 4.83783C14.0233 3.36295 12.8202 2.55701 11.0187 2.55701H4.88471C2.60277 2.55701 1.29102 3.86876 1.29102 6.15071V9.74441C1.29102 11.8797 2.38677 12.7378 3.31602 13.087ZM11.0187 13.3453H4.88471C4.84323 13.3456 4.80175 13.3454 4.76029 13.3446C4.98012 13.7483 5.34367 14.0546 5.77882 14.2027C6.16686 14.3368 6.57571 14.4006 6.98617 14.3912H13.1197C14.8364 14.3912 15.6667 13.561 15.6667 11.8442V8.25053C15.6667 7.14803 15.3247 6.41543 14.62 6.03158V9.75083C14.62 11.6974 13.6654 12.938 11.9684 13.2606C11.674 13.3167 11.3571 13.3453 11.0187 13.3453ZM13.4968 5.37053C13.4926 5.34944 13.4896 5.32819 13.488 5.30687C13.2334 4.16773 12.4278 3.61766 11.0277 3.61766H4.89101C3.17427 3.61766 2.34402 4.44791 2.34402 6.16466V9.75701C2.34402 11.0062 2.78367 11.7735 3.68366 12.1155C3.79219 12.1542 3.90333 12.1852 4.01624 12.208C4.0454 12.2101 4.07444 12.2147 4.10302 12.2218C4.36016 12.2747 4.62215 12.3005 4.88467 12.2987H11.0195C12.7363 12.2987 13.5665 11.4685 13.5665 9.75173V6.15668C13.5699 5.89294 13.5465 5.62954 13.4968 5.37053Z" fill="#EFF1F8" />
    </g>
    <defs>
        <clipPath id="clip0_930_32681">
            <rect width="18" height="18" fill="white" />
        </clipPath>
    </defs>
</svg>
    