<svg width="18" height="19" viewBox="0 0 18 19" fill="none" xmlns="http://www.w3.org/2000/svg">
    <path d="M11.9101 17.246H6.09024C2.72919 17.246 2.10368 15.6805 1.94348 14.1617L1.39941 8.33287C1.30957 7.85651 1.32148 7.36654 1.43431 6.89509C1.54715 6.42365 1.75839 5.9814 2.05416 5.59733C2.70891 4.86968 3.7916 4.52051 5.363 4.52051H12.6381C14.2154 4.52051 15.3008 4.88048 15.947 5.59733C16.2432 5.98304 16.4546 6.4269 16.5674 6.89993C16.6802 7.37295 16.6919 7.86446 16.6017 8.34232L16.0577 14.1537C15.8966 15.6805 15.2707 17.246 11.9101 17.246ZM5.36256 5.60634C4.13181 5.60634 3.28762 5.84483 2.86012 6.32633C2.66445 6.59742 2.52936 6.90745 2.46406 7.23534C2.39876 7.56323 2.40478 7.90132 2.48167 8.22669L3.02571 14.0524C3.15081 15.2017 3.46219 16.1561 6.08974 16.1561H11.9096C14.5286 16.1561 14.8486 15.2017 14.9696 14.0465L15.5168 8.23257C15.5915 7.9061 15.5963 7.5675 15.5311 7.23902C15.4659 6.91054 15.332 6.59953 15.1384 6.32633C14.7077 5.84618 13.8639 5.60634 12.6359 5.60634H5.36256Z" fill="#9496B3" />
    <path d="M11.9105 5.60662C11.7661 5.60419 11.6283 5.54579 11.5262 5.44369C11.4241 5.34159 11.3657 5.20381 11.3633 5.05944V4.47761C11.3633 3.18296 11.3632 2.6965 9.58215 2.6965H8.41804C6.63694 2.6965 6.63693 3.18251 6.63693 4.47761V5.05944C6.63285 5.20179 6.57339 5.33692 6.47126 5.43616C6.36913 5.53541 6.23233 5.59096 6.08992 5.59096C5.94751 5.59096 5.81072 5.53541 5.70859 5.43616C5.60646 5.33692 5.54705 5.20179 5.54297 5.05944V4.47761C5.54297 3.19736 5.54299 1.60254 8.41804 1.60254H9.58215C12.4572 1.60254 12.4572 3.19736 12.4572 4.47761V5.05944C12.4548 5.20381 12.3963 5.34159 12.2942 5.44369C12.1921 5.54579 12.0544 5.60419 11.91 5.60662H11.9105Z" fill="#9496B3" />
    <path d="M8.99813 12.8812C6.99608 12.8812 6.99609 11.6415 6.99609 10.9012V10.1533C6.99609 9.12912 7.24631 8.87891 8.27051 8.87891H9.72532C10.7495 8.87891 10.9997 9.12912 10.9997 10.1533V10.8809C11.0002 11.6356 11.0002 12.8812 8.99813 12.8812ZM8.0905 9.97106V10.8994C8.0905 11.65 8.09048 11.7868 8.99813 11.7868C9.90578 11.7868 9.90626 11.6734 9.90626 10.8935V9.97106H8.0905Z" fill="#9496B3" />
    <path d="M10.4546 11.4408C10.3215 11.4402 10.1933 11.3911 10.0939 11.3027C9.99453 11.2143 9.93078 11.0927 9.91458 10.9607C9.90544 10.8894 9.9105 10.817 9.92941 10.7476C9.94832 10.6783 9.9807 10.6134 10.0248 10.5566C10.0688 10.4998 10.1237 10.4523 10.1862 10.4168C10.2487 10.3813 10.3175 10.3584 10.3889 10.3496C12.3065 10.1075 14.1326 9.38695 15.6989 8.25435C15.7552 8.21 15.8209 8.17922 15.891 8.16438C15.9615 8.14678 16.0349 8.14371 16.1066 8.15537C16.1781 8.16613 16.2465 8.19188 16.3073 8.23095C16.3681 8.26845 16.4205 8.3179 16.4616 8.3763C16.5459 8.49416 16.5803 8.64049 16.5575 8.78357C16.5342 8.92736 16.456 9.05649 16.3392 9.14359C14.6217 10.3839 12.6209 11.1743 10.5194 11.4426L10.4546 11.4408Z" fill="#9496B3" />
    <path d="M7.54356 11.4464H7.47968C5.46389 11.214 3.53562 10.4918 1.86322 9.3427C1.80471 9.30265 1.7547 9.25138 1.71609 9.19191C1.67747 9.13244 1.651 9.06594 1.63822 8.99619C1.61183 8.85594 1.64205 8.71093 1.72224 8.59288C1.80243 8.47483 1.92606 8.39333 2.06616 8.36618C2.20659 8.33829 2.35237 8.36534 2.47343 8.44177C3.99965 9.48766 5.75727 10.1468 7.59487 10.3624C7.73813 10.38 7.86871 10.4532 7.95846 10.5662C8.04794 10.6798 8.08975 10.8238 8.07503 10.9676C8.06283 11.0999 8.00129 11.2228 7.90265 11.3117C7.80401 11.4007 7.67551 11.4493 7.54269 11.4478L7.54356 11.4464Z" fill="#9496B3" />
</svg>
    