<svg width="17" height="19" viewBox="0 0 17 19" fill="none" xmlns="http://www.w3.org/2000/svg">
    <path d="M10.4847 17.6954H6.42059C2.74323 17.6954 1.17041 16.0214 1.17041 12.1059V7.77873C1.17041 3.86374 2.74323 2.18933 6.42059 2.18933H10.4843C14.1617 2.18933 15.7345 3.86329 15.7345 7.77873V12.105C15.7349 16.0214 14.1625 17.6954 10.4847 17.6954ZM6.421 3.27203C3.2999 3.27203 2.18657 4.45725 2.18657 7.78005V12.1064C2.18657 15.4292 3.2999 16.6145 6.421 16.6145H10.4847C13.6058 16.6145 14.7192 15.4292 14.7192 12.1064V7.77873C14.7192 4.45639 13.6058 3.27061 10.4847 3.27061L6.421 3.27203Z" fill="#9496B3" />
    <path d="M7.61292 13.0926C7.33806 13.0971 7.06712 13.0225 6.8288 12.8767C6.5428 12.6756 6.31279 12.3964 6.16267 12.0684C6.01256 11.7404 5.94789 11.3755 5.97543 11.0118V8.87434C5.95066 8.51066 6.01658 8.1465 6.16649 7.81866C6.28257 7.57753 6.44638 7.36611 6.64666 7.19892C6.84693 7.03173 7.07891 6.91271 7.32655 6.85021C7.5742 6.78771 7.8316 6.78313 8.08106 6.83681C8.33052 6.8905 8.56609 7.00124 8.77149 7.16124L10.5146 8.22548C10.8207 8.38543 11.0827 8.62672 11.2755 8.92608C11.4888 9.21636 11.6046 9.57431 11.6046 9.94287C11.6046 10.3114 11.4888 10.6694 11.2755 10.9597C11.0827 11.259 10.8206 11.5003 10.5146 11.6602L8.77149 12.7245C8.42339 12.9558 8.02317 13.0831 7.61292 13.0926ZM7.62092 7.87535C7.52404 7.87074 7.42803 7.89627 7.34451 7.94874C7.21782 8.06008 7.11967 8.20378 7.05928 8.36644C6.99889 8.5291 6.97822 8.70536 6.99917 8.87884V11.0118C6.97505 11.1843 6.99476 11.3605 7.05624 11.5222C7.10726 11.6383 7.18298 11.7403 7.27743 11.8199C7.37189 11.8995 7.48245 11.9545 7.60038 11.9807C7.71831 12.0069 7.84034 12.0036 7.95682 11.9708C8.07329 11.9381 8.18104 11.8768 8.27146 11.7921L10.0108 10.7233C10.3849 10.4938 10.5958 10.2126 10.5958 9.9444C10.5958 9.6762 10.3845 9.39091 10.0108 9.16591L8.27146 8.09716C8.07582 7.96564 7.85193 7.88932 7.62092 7.87535Z" fill="#9496B3" />
</svg>
    