<svg width="18" height="18" viewBox="0 0 18 18" fill="none" xmlns="http://www.w3.org/2000/svg">
    <g clip-path="url(#clip0_930_32670)">
        <path d="M9.3597 10.9717H7.5687C7.42895 10.9676 7.29628 10.9093 7.19886 10.809C7.10144 10.7087 7.04695 10.5744 7.04695 10.4346C7.04695 10.2948 7.10144 10.1605 7.19886 10.0602C7.29628 9.95992 7.42895 9.90156 7.5687 9.89752H9.35925C10.2615 9.89752 11.1268 9.53909 11.7648 8.90109C12.4028 8.26309 12.7612 7.39778 12.7612 6.49552C12.7612 5.59325 12.4028 4.72794 11.7648 4.08994C11.1268 3.45194 10.2615 3.09352 9.35925 3.09352H5.77815C5.13335 3.09316 4.50175 3.27627 3.95713 3.62147C3.41252 3.96667 2.97736 4.4597 2.70249 5.04299C2.42763 5.62627 2.3244 6.27572 2.40486 6.91549C2.48532 7.55525 2.74616 8.15891 3.1569 8.65597C3.23894 8.76701 3.27533 8.90527 3.25859 9.04231C3.24185 9.17936 3.17325 9.30478 3.06689 9.39282C2.96054 9.48085 2.8245 9.52481 2.68674 9.51565C2.54898 9.50649 2.41996 9.44491 2.3262 9.34357C1.78345 8.68997 1.43816 7.89526 1.33078 7.0525C1.2234 6.20975 1.35836 5.35384 1.71987 4.58503C2.08138 3.81621 2.65446 3.16631 3.372 2.71145C4.08954 2.25658 4.92183 2.01558 5.7714 2.01667H9.3525C10.54 2.01571 11.6793 2.48653 12.5196 3.32555C13.36 4.16457 13.8326 5.30306 13.8336 6.49057C13.8346 7.67807 13.3637 8.81732 12.5247 9.65769C11.6857 10.4981 10.5472 10.9707 9.3597 10.9717Z" fill="#EFF1F8" />
        <path d="M12.2227 15.9854H8.64156C7.45406 15.9854 6.31519 15.5137 5.47549 14.674C4.6358 13.8343 4.16406 12.6954 4.16406 11.5079C4.16406 10.3204 4.6358 9.18152 5.47549 8.34182C6.31519 7.50213 7.45406 7.0304 8.64156 7.0304H10.4321C10.5743 7.03122 10.7105 7.08811 10.811 7.18871C10.9115 7.28931 10.9683 7.42549 10.969 7.5677C10.9683 7.70998 10.9114 7.84623 10.8108 7.94684C10.7102 8.04745 10.5739 8.10429 10.4317 8.105H8.64156C7.7393 8.105 6.87398 8.46342 6.23599 9.10142C5.59799 9.73942 5.23956 10.6047 5.23956 11.507C5.23956 12.4093 5.59799 13.2746 6.23599 13.9126C6.87398 14.5506 7.7393 14.909 8.64156 14.909H12.2227C12.868 14.9098 13.5001 14.7268 14.0452 14.3815C14.5903 14.0361 15.0259 13.5427 15.3008 12.959C15.5758 12.3752 15.6788 11.7252 15.5979 11.085C15.517 10.4448 15.2555 9.84085 14.8439 9.34385C14.7537 9.23327 14.7107 9.09166 14.7241 8.9496C14.7375 8.80755 14.8062 8.67647 14.9155 8.5847C14.9699 8.5392 15.0327 8.50494 15.1004 8.48389C15.1682 8.46285 15.2394 8.45544 15.31 8.46209C15.3806 8.46874 15.4491 8.48933 15.5117 8.52265C15.5743 8.55598 15.6297 8.60139 15.6746 8.65625C16.2184 9.31024 16.5644 10.1058 16.6719 10.9495C16.7794 11.7933 16.644 12.6502 16.2816 13.4196C15.9192 14.1891 15.3448 14.8392 14.6258 15.2937C13.9069 15.7482 13.0732 15.9881 12.2227 15.9854Z" fill="#EFF1F8" />
    </g>
    <defs>
        <clipPath id="clip0_930_32670">
            <rect width="18" height="18" fill="white" />
        </clipPath>
    </defs>
</svg>
    