<svg width="18" height="18" viewBox="0 0 18 18" fill="none" xmlns="http://www.w3.org/2000/svg">
    <g clip-path="url(#clip0_796_37360)">
        <g clip-path="url(#clip1_796_37360)">
            <path d="M9.35921 10.9717H7.56821C7.42846 10.9677 7.29579 10.9093 7.19837 10.809C7.10095 10.7088 7.04646 10.5745 7.04646 10.4347C7.04646 10.2948 7.10095 10.1605 7.19837 10.0603C7.29579 9.95998 7.42846 9.90162 7.56821 9.89758H9.35876C10.261 9.89758 11.1263 9.53915 11.7643 8.90115C12.4023 8.26316 12.7608 7.39784 12.7608 6.49558C12.7608 5.59331 12.4023 4.728 11.7643 4.09C11.1263 3.452 10.261 3.09358 9.35876 3.09358H5.77766C5.13286 3.09322 4.50126 3.27633 3.95664 3.62153C3.41203 3.96673 2.97687 4.45977 2.70201 5.04305C2.42714 5.62633 2.32391 6.27578 2.40437 6.91555C2.48484 7.55531 2.74567 8.15897 3.15641 8.65603C3.23845 8.76707 3.27484 8.90533 3.2581 9.04237C3.24136 9.17942 3.17276 9.30485 3.06641 9.39288C2.96005 9.48092 2.82401 9.52487 2.68625 9.51571C2.54849 9.50655 2.41947 9.44497 2.32571 9.34363C1.78296 8.69003 1.43768 7.89532 1.33029 7.05256C1.22291 6.20981 1.35788 5.3539 1.71938 4.58509C2.08089 3.81627 2.65397 3.16637 3.37151 2.71151C4.08905 2.25664 4.92134 2.01564 5.77091 2.01673H9.35201C10.5395 2.01577 11.6788 2.48659 12.5191 3.32561C13.3595 4.16463 13.8322 5.30312 13.8331 6.49063C13.8341 7.67813 13.3632 8.81738 12.5242 9.65775C11.6852 10.4981 10.5467 10.9708 9.35921 10.9717Z" fill="#2F2F3D" />
            <path d="M12.2229 15.9854H8.64181C7.4543 15.9854 6.31543 15.5137 5.47574 14.674C4.63604 13.8343 4.16431 12.6954 4.16431 11.5079C4.16431 10.3204 4.63604 9.18152 5.47574 8.34182C6.31543 7.50213 7.4543 7.0304 8.64181 7.0304H10.4324C10.5746 7.03122 10.7107 7.08811 10.8112 7.18871C10.9117 7.28931 10.9685 7.42549 10.9692 7.5677C10.9685 7.70998 10.9117 7.84623 10.8111 7.94684C10.7104 8.04745 10.5742 8.10429 10.4319 8.105H8.64181C7.73954 8.105 6.87423 8.46342 6.23623 9.10142C5.59823 9.73942 5.23981 10.6047 5.23981 11.507C5.23981 12.4093 5.59823 13.2746 6.23623 13.9126C6.87423 14.5506 7.73954 14.909 8.64181 14.909H12.2229C12.8682 14.9098 13.5004 14.7268 14.0455 14.3815C14.5906 14.0361 15.0261 13.5427 15.3011 12.959C15.576 12.3752 15.6791 11.7252 15.5982 11.085C15.5173 10.4448 15.2557 9.84085 14.8442 9.34385C14.754 9.23327 14.7109 9.09166 14.7243 8.9496C14.7377 8.80755 14.8065 8.67647 14.9157 8.5847C14.9701 8.5392 15.033 8.50494 15.1007 8.48389C15.1684 8.46285 15.2396 8.45544 15.3102 8.46209C15.3808 8.46874 15.4494 8.48933 15.512 8.52265C15.5746 8.55598 15.6299 8.60139 15.6749 8.65625C16.2187 9.31024 16.5646 10.1058 16.6722 10.9495C16.7797 11.7933 16.6443 12.6502 16.2819 13.4196C15.9194 14.1891 15.345 14.8392 14.6261 15.2937C13.9071 15.7482 13.0735 15.9881 12.2229 15.9854Z" fill="#2F2F3D" />
        </g>
    </g>
    <defs>
        <clipPath id="clip0_796_37360">
            <rect width="18" height="18" fill="white" />
        </clipPath>
        <clipPath id="clip1_796_37360">
            <rect width="18" height="18" fill="white" />
        </clipPath>
    </defs>
</svg>
    