<svg width="18" height="19" viewBox="0 0 18 19" fill="none" xmlns="http://www.w3.org/2000/svg">
    <g clip-path="url(#clip0_840_8161)">
        <path fill-rule="evenodd" clip-rule="evenodd" d="M7.50572 11.6168C7.94789 11.9122 8.46775 12.0699 8.99955 12.0699C9.71259 12.0697 10.3964 11.7863 10.9006 11.2821C11.4048 10.7779 11.6881 10.0941 11.6884 9.3811C11.6884 8.8493 11.5307 8.32944 11.2352 7.88727C10.9398 7.4451 10.5198 7.10046 10.0285 6.89695C9.53719 6.69344 8.99656 6.6402 8.47498 6.74394C7.9534 6.84769 7.4743 7.10378 7.09827 7.47982C6.72223 7.85585 6.46614 8.33495 6.36239 8.85653C6.25864 9.37811 6.31189 9.91875 6.5154 10.4101C6.71891 10.9014 7.06355 11.3213 7.50572 11.6168ZM8.10325 8.03969C8.36855 7.86242 8.68047 7.76781 8.99955 7.76781C9.42723 7.7684 9.83724 7.93856 10.1397 8.24099C10.4421 8.54341 10.6122 8.95341 10.6128 9.3811C10.6128 9.70017 10.5182 10.0121 10.3409 10.2774C10.1637 10.5427 9.91172 10.7495 9.61693 10.8716C9.32213 10.9937 8.99776 11.0256 8.68481 10.9634C8.37186 10.9011 8.0844 10.7475 7.85878 10.5219C7.63315 10.2962 7.4795 10.0088 7.41725 9.69583C7.35501 9.38289 7.38695 9.05851 7.50906 8.76372C7.63117 8.46893 7.83795 8.21697 8.10325 8.03969Z" fill="#2F2F3D" />
        <path fill-rule="evenodd" clip-rule="evenodd" d="M10.8516 16.6304C10.9989 16.6669 11.1499 16.686 11.3016 16.6875C11.6059 16.6851 11.9046 16.6048 12.1692 16.4544L13.4094 15.7447C13.6281 15.6226 13.8196 15.4572 13.9725 15.2588C14.1253 15.0604 14.2363 14.833 14.2987 14.5905C14.3649 14.3501 14.3825 14.0989 14.3505 13.8517C14.3185 13.6044 14.2375 13.366 14.1124 13.1504C14.0135 13.0245 13.9484 12.8754 13.9232 12.7173C13.8981 12.5591 13.9138 12.3972 13.9688 12.2468C14.0723 12.1246 14.2048 12.0304 14.3542 11.9727C14.5036 11.9151 14.6651 11.8959 14.8238 11.9169C15.3274 11.916 15.8101 11.7155 16.1662 11.3594C16.5223 11.0033 16.7228 10.5206 16.7238 10.017V8.75696C16.7228 8.25336 16.5223 7.77065 16.1662 7.41455C15.8101 7.05845 15.3274 6.85797 14.8238 6.85702C14.6651 6.87806 14.5036 6.85888 14.3542 6.80124C14.2048 6.74361 14.0723 6.64936 13.9688 6.52716C13.9156 6.3765 13.9009 6.21493 13.9259 6.05713C13.951 5.89933 14.0151 5.75029 14.1124 5.62354C14.3632 5.18613 14.4301 4.66702 14.2984 4.1803C14.1667 3.69358 13.8471 3.27907 13.4099 3.02787L12.1764 2.3182C11.9797 2.20284 11.7621 2.12749 11.5362 2.09648C11.3102 2.06547 11.0804 2.0794 10.8598 2.13749C10.6393 2.19557 10.4324 2.29666 10.251 2.43494C10.0697 2.57322 9.91744 2.74597 9.80306 2.94327L9.7243 3.07827C9.30129 3.80954 8.72033 3.80954 8.29732 3.07827L8.21137 2.93472C7.97904 2.53961 7.59997 2.25234 7.15675 2.1355C6.71354 2.01867 6.24211 2.08176 5.84521 2.311L4.60453 3.02112C4.38583 3.1435 4.19428 3.30904 4.0415 3.5077C3.88873 3.70635 3.7779 3.93397 3.71575 4.17675C3.58569 4.66256 3.65265 5.18007 3.90206 5.61679C4.00154 5.74276 4.06709 5.89212 4.09245 6.05062C4.11782 6.20912 4.10216 6.37148 4.04696 6.52221C3.94348 6.64441 3.81096 6.73866 3.66156 6.79629C3.51216 6.85393 3.35068 6.87311 3.19194 6.85207C2.68833 6.85302 2.20563 7.0535 1.84952 7.4096C1.49342 7.7657 1.29294 8.24841 1.29199 8.75201V10.012C1.2927 10.5156 1.49289 10.9983 1.84873 11.3546C2.20457 11.7108 2.68706 11.9116 3.19059 11.9129C3.34933 11.8919 3.51081 11.911 3.66021 11.9687C3.80961 12.0263 3.94213 12.1205 4.04561 12.2427C4.09882 12.3934 4.11356 12.555 4.08849 12.7128C4.06342 12.8706 3.99934 13.0196 3.90206 13.1464C3.65149 13.5837 3.58474 14.1026 3.71645 14.5891C3.84816 15.0756 4.16756 15.4899 4.60453 15.7411L5.83936 16.449C6.03444 16.5664 6.25137 16.643 6.47697 16.6739C6.70256 16.7049 6.93209 16.6896 7.15159 16.629C7.37167 16.5715 7.57815 16.4709 7.75906 16.333C7.93998 16.1951 8.09173 16.0227 8.20552 15.8257L8.28427 15.6907C8.70728 14.9595 9.28824 14.9595 9.71125 15.6907L9.7972 15.8343C10.032 16.2264 10.4101 16.5119 10.8516 16.6304ZM9.97235 14.3644C9.68359 14.1689 9.34779 14.0543 8.99979 14.0324V14.0342C8.65236 14.058 8.31746 14.1736 8.02929 14.3691C7.74112 14.5646 7.50999 14.8331 7.35949 15.1471L7.28074 15.2821C7.18989 15.4342 7.04329 15.5448 6.87213 15.5904C6.78908 15.6126 6.70237 15.6178 6.61727 15.6055C6.53217 15.5932 6.45047 15.5637 6.37712 15.5188L5.13689 14.8087C4.94997 14.6971 4.81377 14.5172 4.75708 14.307C4.6997 14.0981 4.72736 13.8749 4.83403 13.6864C5.03122 13.3986 5.14842 13.0637 5.17365 12.7158C5.19887 12.3679 5.13121 12.0195 4.97758 11.7063C4.78478 11.4149 4.51754 11.1804 4.20356 11.027C3.88959 10.8737 3.54031 10.8071 3.19194 10.8342C2.97333 10.8341 2.7637 10.7472 2.60912 10.5926C2.45453 10.438 2.36764 10.2284 2.36752 10.0098V8.74976C2.36704 8.64141 2.38805 8.53403 2.42932 8.43384C2.47059 8.33366 2.53132 8.24264 2.60798 8.16606C2.68464 8.08949 2.77572 8.02886 2.87595 7.9877C2.97619 7.94653 3.08358 7.92565 3.19194 7.92624C3.54018 7.95415 3.88954 7.88842 4.20383 7.73587C4.51811 7.58332 4.78588 7.34949 4.97938 7.05862C5.13301 6.74545 5.20067 6.39709 5.17545 6.04918C5.15022 5.70127 5.03302 5.36631 4.83583 5.07857C4.78229 4.98491 4.74778 4.8816 4.73426 4.77457C4.72075 4.66753 4.7285 4.55889 4.75708 4.45486C4.81415 4.24328 4.95264 4.06289 5.14229 3.95309L6.38252 3.23488C6.53143 3.14976 6.70768 3.12612 6.87375 3.16899C7.03983 3.21185 7.18262 3.31783 7.27174 3.46438L7.35049 3.60794C7.50009 3.9229 7.73127 4.19208 8.02002 4.38754C8.30878 4.58299 8.64458 4.6976 8.99258 4.71946C9.34059 4.6976 9.67639 4.58299 9.96515 4.38754C10.2539 4.19208 10.4851 3.9229 10.6347 3.60794L10.7134 3.47293C10.7571 3.39798 10.8152 3.33238 10.8843 3.27991C10.9534 3.22743 11.0322 3.1891 11.1161 3.16711C11.2001 3.14512 11.2875 3.13991 11.3735 3.15177C11.4594 3.16363 11.5422 3.19233 11.6171 3.23623L12.8573 3.94589C13.0437 4.05699 13.1799 4.23603 13.2371 4.44541C13.2657 4.54944 13.2734 4.65808 13.2599 4.76512C13.2464 4.87215 13.2119 4.97546 13.1583 5.06912C12.9611 5.35686 12.8439 5.69182 12.8187 6.03973C12.7935 6.38764 12.8612 6.736 13.0148 7.04917C13.2081 7.33969 13.4755 7.57329 13.7894 7.72583C14.1032 7.87836 14.4521 7.94429 14.8 7.91679C15.0186 7.91691 15.2282 8.00381 15.3828 8.15839C15.5374 8.31297 15.6243 8.5226 15.6244 8.74121V10.0012C15.625 10.1097 15.6041 10.2171 15.5629 10.3174C15.5216 10.4177 15.4609 10.5089 15.3843 10.5855C15.3076 10.6622 15.2165 10.7229 15.1162 10.7641C15.0159 10.8053 14.9084 10.8263 14.8 10.8257C14.4521 10.7982 14.1032 10.8641 13.7894 11.0166C13.4755 11.1692 13.2081 11.4028 13.0148 11.6933C12.8612 12.0065 12.7935 12.3548 12.8187 12.7027C12.8439 13.0506 12.9611 13.3856 13.1583 13.6733C13.2119 13.767 13.2464 13.8703 13.2599 13.9773C13.2734 14.0844 13.2657 14.193 13.2371 14.2971C13.1796 14.5089 13.0404 14.6894 12.8501 14.7988L11.6098 15.5157C11.4601 15.6004 11.2832 15.6231 11.1169 15.5788C10.9507 15.5346 10.8084 15.4269 10.7206 15.279L10.6419 15.144C10.4923 14.829 10.2611 14.5598 9.97235 14.3644Z" fill="#2F2F3D" />
    </g>
    <defs>
        <clipPath id="clip0_840_8161">
            <rect width="18" height="18" fill="white" transform="translate(0 0.382812)" />
        </clipPath>
    </defs>
</svg>
    