<svg width="18" height="19" viewBox="0 0 18 19" fill="none" xmlns="http://www.w3.org/2000/svg">
    <g clip-path="url(#clip0_864_9307)">
        <path d="M5.8361 16.9502L4.60516 16.2401C4.38789 16.116 4.19725 15.9499 4.0444 15.7518C3.89156 15.5537 3.7793 15.3272 3.71437 15.0856C3.58343 14.5997 3.65077 14.0821 3.90158 13.6459C3.99841 13.5188 4.06229 13.3692 4.08703 13.2113C4.11178 13.0534 4.09682 12.8917 4.04353 12.7411C3.94019 12.6195 3.80788 12.526 3.65899 12.4686C3.51011 12.4112 3.34917 12.392 3.19097 12.4128C2.68716 12.4117 2.20465 12.2109 1.8484 11.8547C1.49216 11.4984 1.29135 11.0159 1.29028 10.5121V9.24908C1.29135 8.74548 1.49209 8.26284 1.8484 7.90695C2.20471 7.55106 2.68736 7.35107 3.19097 7.35059C3.34938 7.37156 3.51046 7.35215 3.65943 7.29434C3.80841 7.23653 3.94072 7.14201 4.04353 7.01967C4.09871 6.86958 4.11448 6.70786 4.08967 6.54989C4.06486 6.39191 4.00011 6.24297 3.90158 6.11701C3.65116 5.67984 3.58386 5.16131 3.71437 4.67469C3.77694 4.43209 3.88824 4.20461 4.04133 4.00627C4.19441 3.80793 4.38632 3.6431 4.60516 3.5211L5.84577 2.81049C6.24254 2.58172 6.71343 2.51868 7.15625 2.63558C7.59907 2.75248 7.97793 3.03973 8.21008 3.43453L8.29666 3.57867C8.71877 4.31039 9.30148 4.31039 9.72404 3.57867L9.80314 3.44375C9.91752 3.24662 10.0697 3.07388 10.251 2.93573C10.4322 2.79759 10.6392 2.69665 10.8596 2.63866C11.08 2.58066 11.3097 2.56676 11.5355 2.59779C11.7613 2.62882 11.9783 2.70397 12.1749 2.81928L13.4085 3.52945C13.6256 3.65378 13.8161 3.81961 13.9688 4.01769C14.1216 4.21578 14.2338 4.4424 14.2989 4.68392C14.4297 5.16973 14.3625 5.68768 14.1121 6.12405C14.0149 6.25066 13.9508 6.39927 13.9258 6.55692C13.9007 6.71456 13.9153 6.87618 13.9684 7.02671C14.072 7.14874 14.2044 7.24258 14.3538 7.30005C14.5032 7.35753 14.6649 7.37657 14.8236 7.35542C15.3274 7.35649 15.8103 7.5573 16.1666 7.91354C16.5228 8.26979 16.7232 8.75274 16.7243 9.25655V10.5165C16.7232 11.0203 16.5228 11.5032 16.1666 11.8595C15.8103 12.2157 15.3274 12.4161 14.8236 12.4172C14.6649 12.396 14.5032 12.4151 14.3538 12.4725C14.2044 12.53 14.072 12.6243 13.9684 12.7463C13.9137 12.8969 13.898 13.0588 13.9231 13.217C13.9482 13.3752 14.0135 13.5245 14.1121 13.6507C14.2378 13.8662 14.3191 14.1044 14.3512 14.3517C14.3832 14.599 14.3654 14.8505 14.2989 15.0909C14.2367 15.3336 14.1254 15.5613 13.9723 15.7597C13.8193 15.9582 13.6275 16.123 13.4085 16.2449L12.1697 16.9551C11.9045 17.1046 11.6057 17.1838 11.3013 17.1854C11.1495 17.1839 10.9985 17.1646 10.8513 17.1278C10.4097 17.0093 10.0317 16.7237 9.79743 16.331L9.71129 16.1873C9.28693 15.4574 8.70829 15.4574 8.28347 16.1873L8.20437 16.3223C8.09073 16.5194 7.93881 16.6923 7.75788 16.8303C7.57695 16.9682 7.37027 17.0686 7.1501 17.126C7.0033 17.1652 6.85203 17.1851 6.70009 17.1854C6.39595 17.1876 6.0971 17.1064 5.8361 16.9502V16.9502ZM7.38609 9.88015C7.38645 10.3079 7.55647 10.7177 7.85895 11.0201C8.16144 11.3225 8.57164 11.4927 8.99936 11.493C9.42704 11.4927 9.83736 11.3225 10.1398 11.0201C10.4422 10.7177 10.612 10.3078 10.6122 9.88015C10.6117 9.4525 10.4417 9.04261 10.1393 8.74018C9.83698 8.43774 9.42701 8.26747 8.99936 8.26687C8.57179 8.26735 8.16181 8.43748 7.85939 8.73974C7.55697 9.04199 7.3868 9.4517 7.38609 9.87927V9.88015Z" fill="#2F2F3D" />
    </g>
    <defs>
        <clipPath id="clip0_864_9307">
            <rect width="18" height="18" fill="white" transform="translate(0 0.882812)" />
        </clipPath>
    </defs>
</svg>
    