<svg width="18" height="19" viewBox="0 0 18 19" fill="none" xmlns="http://www.w3.org/2000/svg">
    <g clip-path="url(#clip0_499_9284)">
        <path d="M9.11676 17.2769H8.92033C7.82848 17.2783 6.76283 16.9416 5.87009 16.313C4.97498 15.6872 4.29568 14.7995 3.92594 13.7718C3.77267 13.3268 3.68417 12.862 3.66315 12.3917V12.3845C3.62131 12.1905 3.62149 11.9899 3.66315 11.7959C3.70482 11.602 3.78706 11.4191 3.90485 11.2595C4.11992 10.9957 4.42419 10.8196 4.76003 10.7644L5.49611 10.7249H12.5467L13.2819 10.7644C13.6179 10.8193 13.9223 10.9954 14.1371 11.2595C14.255 11.4191 14.3377 11.6019 14.3797 11.7958C14.4216 11.9898 14.422 12.1904 14.3805 12.3845V12.3907C14.3592 12.861 14.2707 13.3258 14.1177 13.771C13.7478 14.7986 13.0688 15.6865 12.174 16.313C11.2791 16.9426 10.211 17.2794 9.11676 17.2769ZM6.29855 11.7468L5.73078 11.7739C5.47872 11.8087 5.24635 11.9292 5.07248 12.115C4.98306 12.2206 4.91938 12.3457 4.88703 12.4803C4.85468 12.6148 4.85453 12.7551 4.88615 12.8898V12.8935C4.90218 13.2189 4.9702 13.5396 5.0883 13.8434C5.42264 14.5795 5.96658 15.2008 6.65187 15.6297C7.33716 16.0587 8.13366 16.2763 8.94186 16.2554H9.09479C9.90308 16.2767 10.6999 16.0593 11.3852 15.6303C12.0706 15.2013 12.6143 14.5797 12.9484 13.8434C13.066 13.5395 13.1339 13.2189 13.1501 12.8935V12.889C13.1816 12.7543 13.1813 12.6141 13.1487 12.4796C13.1162 12.3452 13.0521 12.2203 12.9624 12.115C12.789 11.9286 12.5564 11.808 12.3041 11.7739L11.7363 11.7468H6.29855ZM8.9757 8.3147C8.54271 8.31583 8.11357 8.23094 7.71359 8.06509C7.31362 7.89925 6.95088 7.65575 6.64572 7.34856C6.33863 7.04336 6.09474 6.68022 5.92897 6.28025C5.76321 5.88028 5.67864 5.45143 5.6798 5.01847C5.67866 4.58532 5.76321 4.15622 5.92897 3.75604C6.09473 3.35585 6.33863 2.99244 6.64572 2.68696C6.95086 2.37981 7.3136 2.13634 7.71359 1.97065C8.11358 1.80495 8.54275 1.72031 8.9757 1.7217C9.40892 1.72032 9.83797 1.80496 10.2382 1.97065C10.6385 2.13634 11.0019 2.37979 11.3074 2.68696C11.6143 2.99257 11.8576 3.35598 12.0233 3.75615C12.189 4.15631 12.274 4.58537 12.2729 5.01847C12.274 5.45138 12.189 5.8802 12.0233 6.28014C11.8576 6.68009 11.6143 7.04323 11.3074 7.34856C11.0019 7.65575 10.6385 7.89926 10.2382 8.06509C9.83799 8.23093 9.40896 8.31579 8.9757 8.3147ZM8.9757 2.73464C8.37107 2.73547 7.79124 2.97608 7.36379 3.4037C6.93633 3.83133 6.69597 4.41109 6.69538 5.01573C6.69609 5.62032 6.93679 6.19993 7.36423 6.62753C7.79166 7.05513 8.3711 7.29587 8.9757 7.29682C9.58049 7.2961 10.1604 7.05547 10.5881 6.62786C11.0158 6.20025 11.2561 5.62052 11.2569 5.01573C11.2555 4.41132 11.0148 3.83215 10.5872 3.40502C10.1595 2.9779 9.58011 2.73766 8.9757 2.73694V2.73464Z" fill="#2F2F3D" />
    </g>
    <defs>
        <clipPath id="clip0_499_9284">
            <rect width="18" height="18" fill="white" transform="translate(0 0.5)" />
        </clipPath>
    </defs>
</svg>
    