<svg width="18" height="19" viewBox="0 0 18 19" fill="none" xmlns="http://www.w3.org/2000/svg">
    <g clip-path="url(#clip0_499_9453)">
        <path d="M9.09727 17.2553H8.9004C7.81174 17.2567 6.74943 16.921 5.85938 16.2941C4.96666 15.6702 4.28952 14.785 3.92096 13.7602C3.76851 13.3163 3.68017 12.8529 3.6586 12.384V12.3769C3.61709 12.1836 3.61702 11.9837 3.6586 11.7904C3.70018 11.5972 3.78209 11.4149 3.89942 11.2558C4.11319 10.9928 4.41589 10.8168 4.7502 10.7609L5.48409 10.7217H12.5136L13.2475 10.7609C13.582 10.8162 13.8845 10.9923 14.0978 11.2558C14.2154 11.415 14.2981 11.5974 14.34 11.7908C14.3818 11.9842 14.382 12.1842 14.3408 12.3778V12.384C14.3195 12.8529 14.2313 13.3163 14.0789 13.7602C13.7096 14.7847 13.0327 15.6699 12.1405 16.2945C11.2496 16.9214 10.1866 17.257 9.09727 17.2553ZM8.95665 8.31876C8.52507 8.32006 8.09756 8.23554 7.69893 8.07014C7.30031 7.90474 6.93846 7.66171 6.63458 7.35526C6.32798 7.05116 6.08513 6.68919 5.91959 6.29035C5.75404 5.89151 5.66928 5.46381 5.67042 5.03198C5.6693 4.59995 5.75405 4.172 5.91959 3.77295C6.08513 3.37389 6.32798 3.01165 6.63458 2.70727C6.93846 2.40088 7.3003 2.15797 7.69893 1.99272C8.09757 1.82747 8.52512 1.74311 8.95665 1.74465C9.38855 1.74335 9.81664 1.82782 10.2157 1.99305C10.6147 2.15828 10.9768 2.40104 11.2814 2.70727C11.5873 3.01204 11.8298 3.37439 11.995 3.77339C12.1602 4.17238 12.2447 4.60013 12.2438 5.03198C12.2447 5.46362 12.1602 5.89114 11.995 6.28991C11.8298 6.68869 11.5873 7.05075 11.2814 7.35526C10.977 7.66136 10.6153 7.90415 10.2166 8.06959C9.81786 8.23503 9.39007 8.31989 8.95841 8.3192L8.95665 8.31876Z" fill="#2F2F3D" />
    </g>
    <defs>
        <clipPath id="clip0_499_9453">
            <rect width="18" height="18" fill="white" transform="translate(0 0.5)" />
        </clipPath>
    </defs>
</svg>
    