<svg width="16" height="16" viewBox="0 0 16 16" fill="none" xmlns="http://www.w3.org/2000/svg">
    <g clip-path="url(#clip0_30415_5211)">
        <path d="M7.99632 14.8936H7.92071C7.306 14.871 6.71672 14.6425 6.24743 14.2448C5.75941 13.8244 5.31562 13.3553 4.92298 12.8447C4.90338 12.8211 4.88296 12.7951 4.86216 12.7719L4.81616 12.7147C4.79776 12.6939 4.77937 12.6703 4.76057 12.6495L4.73696 12.6207C4.67455 12.5531 4.60294 12.4799 4.52374 12.3991C3.80021 11.6888 3.17224 10.8874 2.65565 10.015C2.15425 9.16807 1.88518 8.20382 1.87561 7.21964C1.86427 6.42089 2.01178 5.62783 2.30957 4.88657C2.60735 4.14531 3.04947 3.47063 3.61024 2.9017C4.17102 2.33278 4.83927 1.88094 5.57616 1.57249C6.31305 1.26404 7.10388 1.10512 7.90272 1.10493H8.10072C8.88805 1.10497 9.6678 1.25896 10.3961 1.55818C11.5076 2.01654 12.4568 2.79674 13.1216 3.79858C13.7864 4.80041 14.1365 5.97811 14.127 7.18043V7.22043C14.117 8.20437 13.8484 9.16839 13.3482 10.0158C12.8309 10.8876 12.2019 11.6882 11.4773 12.3971C11.3973 12.4803 11.3313 12.5507 11.2689 12.6187C11.2065 12.6867 11.1489 12.7595 11.0917 12.8299L11.0813 12.8455C10.6872 13.3554 10.243 13.8245 9.7552 14.2456C9.28674 14.6437 8.69721 14.8715 8.08273 14.8916H8.00712L7.99632 14.8936ZM8.07191 14.0156C8.59967 13.9965 9.10515 13.798 9.5048 13.4528C9.92219 13.0832 10.3018 12.673 10.6381 12.2283C10.6981 12.1555 10.75 12.0903 10.7981 12.0283C10.8461 11.9663 10.9101 11.9083 10.9777 11.8383C11.5993 11.2175 12.1372 10.5182 12.5778 9.75815C13.0083 9.01641 13.2391 8.17565 13.2474 7.31804V7.28405C13.2562 5.87277 12.7075 4.51509 11.7205 3.50628C11.2473 3.02205 10.6819 2.63745 10.0576 2.37521C9.43341 2.11298 8.763 1.97841 8.08593 1.97939H7.91671C7.23625 1.97783 6.56246 2.11337 5.93553 2.3779C5.3086 2.64243 4.7414 3.03053 4.26774 3.51907C3.7783 4.02208 3.39272 4.61657 3.13307 5.26862C2.87342 5.92066 2.74477 6.61748 2.75446 7.31926C2.76315 8.17661 2.99327 9.01715 3.42249 9.75937C3.86345 10.5192 4.40131 11.2184 5.02257 11.8395C5.07737 11.8967 5.14258 11.9647 5.20458 12.0351C5.25779 12.0975 5.311 12.1627 5.3646 12.2279C5.70018 12.6726 6.08 13.082 6.49825 13.4499C6.89745 13.7962 7.40301 13.9957 7.93111 14.0152H8.07191V14.0156ZM6.10101 8.91934C5.71363 8.53123 5.44973 8.03717 5.34253 7.49939C5.23533 6.96162 5.28963 6.40415 5.49859 5.89717C5.78048 5.21681 6.32085 4.67616 7.00106 4.39392C7.50813 4.18378 8.06609 4.12862 8.60448 4.23541C9.14288 4.34221 9.63755 4.60618 10.026 4.99395C10.2827 5.25255 10.4865 5.55864 10.626 5.89516C10.8002 6.31668 10.8678 6.77463 10.8228 7.22848C10.7778 7.68233 10.6217 8.1181 10.3682 8.49725C10.1148 8.8764 9.77178 9.18723 9.36959 9.40227C8.9674 9.61732 8.51839 9.72995 8.06232 9.73017C7.69745 9.7321 7.33589 9.66119 6.99876 9.52162C6.66164 9.38204 6.35576 9.17661 6.09904 8.91734L6.10101 8.91934ZM6.14103 6.95923C6.1402 7.40441 6.29379 7.83608 6.57562 8.18068C6.85746 8.52528 7.2501 8.76147 7.68659 8.84897C8.12308 8.93648 8.57641 8.86992 8.9693 8.66059C9.36219 8.45125 9.67031 8.11211 9.84114 7.70102C10.012 7.28992 10.035 6.83231 9.90614 6.40618C9.77732 5.98004 9.50469 5.6118 9.13474 5.36418C8.76478 5.11656 8.32041 5.00488 7.87735 5.04825C7.43429 5.09161 7.01997 5.28734 6.70505 5.60199C6.34487 5.96197 6.14207 6.45 6.14103 6.95923Z" fill="#6E7191" />
    </g>
    <defs>
        <clipPath id="clip0_30415_5211">
            <rect width="16" height="16" fill="white" />
        </clipPath>
    </defs>
</svg>