<svg width="18" height="18" viewBox="0 0 18 18" fill="none" xmlns="http://www.w3.org/2000/svg">
    <path d="M7.44246 12.7681C7.31602 12.7167 7.20134 12.6401 7.10538 12.5431L4.23561 9.66296C4.20546 9.63308 4.17712 9.60124 4.15123 9.5676L4.15475 9.56441C4.07148 9.46628 4.02637 9.34164 4.02686 9.21294C4.0268 9.14112 4.04071 9.07001 4.06817 9.00364C4.09563 8.93728 4.13604 8.87699 4.18683 8.8262C4.23761 8.77542 4.29801 8.73511 4.36438 8.70766C4.43074 8.6802 4.50175 8.66607 4.57357 8.66613C4.66236 8.66635 4.7496 8.68832 4.82802 8.72996C4.90644 8.7716 4.97367 8.83166 5.02359 8.90509L7.82041 11.7011L15.7024 3.8185C15.7521 3.74269 15.8203 3.68052 15.9002 3.63754C15.98 3.59456 16.0692 3.57219 16.1599 3.57239C16.2317 3.57239 16.3028 3.58655 16.3691 3.61403C16.4354 3.64151 16.4954 3.6818 16.5462 3.73258C16.5969 3.78336 16.6374 3.84357 16.6648 3.90991C16.6923 3.97624 16.7062 4.04731 16.7062 4.1191C16.7063 4.20656 16.6852 4.29279 16.6451 4.37048C16.6049 4.44817 16.5469 4.51513 16.4754 4.5656L8.5328 12.5431C8.43719 12.6401 8.32278 12.7167 8.1966 12.7681C8.07653 12.8162 7.94842 12.8408 7.81909 12.8406C7.69004 12.8409 7.56219 12.8162 7.44246 12.7681Z" fill="#2F2F3D" />
    <path d="M9.40297 15.3842H5.90299C5.53148 15.3858 5.15992 15.3642 4.79112 15.3194C4.61966 15.2973 4.45378 15.2699 4.29627 15.2371C4.13876 15.2042 3.98665 15.165 3.84624 15.1209C3.70596 15.0781 3.56807 15.0277 3.43314 14.9702C3.30518 14.9156 3.18056 14.8533 3.06002 14.7839C2.94406 14.7168 2.83232 14.6426 2.72558 14.5616C2.62112 14.482 2.52196 14.3955 2.42894 14.3027C2.33648 14.2095 2.2504 14.1105 2.17053 14.0062C2.08979 13.8995 2.01575 13.7879 1.94903 13.6719C1.8799 13.5512 1.8178 13.4266 1.76313 13.2988C1.70546 13.1639 1.65488 13.0262 1.61151 12.8861C1.56651 12.743 1.52879 12.5909 1.49549 12.4334C1.46219 12.2759 1.43535 12.1098 1.41375 11.9384C1.36877 11.5694 1.34719 11.1981 1.34871 10.8264V7.30004C1.3472 6.92837 1.36878 6.55689 1.41375 6.18795C1.43535 6.01784 1.46264 5.85185 1.49549 5.69299C1.52834 5.53413 1.56741 5.38378 1.61151 5.24022C1.65481 5.1001 1.70539 4.96236 1.76313 4.82755C1.81763 4.69962 1.87973 4.5751 1.94903 4.45455C2.01571 4.33853 2.08975 4.22678 2.17053 4.12011C2.25041 4.01601 2.33649 3.91713 2.42894 3.82401C2.52194 3.73127 2.6211 3.64485 2.72558 3.56527C2.83221 3.48415 2.94397 3.40984 3.06002 3.3429C3.18064 3.2737 3.30525 3.21171 3.43314 3.15711C3.56807 3.09956 3.70596 3.04925 3.84624 3.00637C3.98845 2.96137 4.14101 2.92309 4.29627 2.89024C4.45152 2.85738 4.61831 2.82944 4.79112 2.80783C5.15992 2.7631 5.53148 2.74155 5.90299 2.74312H9.42978C9.73534 2.74312 10.0264 2.75572 10.296 2.78092C10.5544 2.80413 10.8112 2.84254 11.0651 2.89606C11.2937 2.94446 11.5185 3.00978 11.7375 3.09141C11.9386 3.16648 12.1326 3.25938 12.3171 3.36904C12.4919 3.4733 12.6559 3.59462 12.8067 3.73128C12.9554 3.86706 13.0895 4.01787 13.2071 4.1813C13.2687 4.26569 13.3256 4.35342 13.3776 4.44411C13.4534 4.54151 13.4944 4.66141 13.4945 4.78481C13.4945 4.93269 13.436 5.07457 13.3314 5.17913C13.2269 5.2837 13.0851 5.3424 12.9372 5.3424C12.8164 5.34244 12.6985 5.30321 12.6019 5.23055C12.5053 5.1579 12.435 5.05576 12.4015 4.93962C12.2515 4.69234 12.0514 4.4793 11.8139 4.31414C11.2712 3.93432 10.4912 3.75743 9.36166 3.75743H5.97199C5.416 3.74402 4.86082 3.80744 4.3222 3.94597C3.91058 4.0504 3.53402 4.26189 3.23054 4.55892C2.93682 4.86992 2.72895 5.2518 2.62714 5.66728C2.49065 6.21479 2.42824 6.77823 2.44168 7.34234V10.7828C2.42828 11.3467 2.49069 11.9099 2.62714 12.4573C2.72897 12.8728 2.93683 13.2546 3.23054 13.5656C3.53409 13.8627 3.91061 14.0743 4.3222 14.179C4.86083 14.3175 5.416 14.3809 5.97199 14.3676H9.36166C9.91794 14.381 10.4734 14.3176 11.0123 14.179C11.4238 14.074 11.8002 13.8624 12.104 13.5656C12.3979 13.2546 12.6064 12.8728 12.7087 12.4573C12.8444 11.9098 12.906 11.3467 12.8928 10.7828V9.04739C12.8952 8.90415 12.9541 8.76762 13.0563 8.66725C13.1586 8.56687 13.2958 8.51076 13.4391 8.51101C13.5109 8.51095 13.5824 8.52508 13.6487 8.55254C13.7151 8.58001 13.7751 8.6203 13.8258 8.67109C13.8766 8.72188 13.9171 8.78217 13.9445 8.84853C13.9719 8.91489 13.9859 8.98603 13.9858 9.05783C13.9867 9.07132 13.9867 9.08477 13.9858 9.09826V10.8259C13.9873 11.1976 13.9657 11.5689 13.9217 11.9379C13.8987 12.1089 13.8723 12.275 13.8386 12.433C13.8048 12.591 13.7676 12.7421 13.723 12.8857C13.68 13.0258 13.6295 13.1636 13.5718 13.2983C13.5176 13.4264 13.4555 13.551 13.3859 13.6714C13.3191 13.7873 13.245 13.899 13.1644 14.0058C13.0846 14.1103 12.9978 14.2094 12.9047 14.3023C12.8121 14.3952 12.7132 14.4817 12.6089 14.5612C12.5025 14.6425 12.3907 14.7167 12.2745 14.7834C12.1542 14.8527 12.0303 14.915 11.9027 14.9698C11.7677 15.0271 11.6294 15.0774 11.4892 15.1205C11.346 15.1655 11.1936 15.2038 11.0365 15.2366C10.8794 15.2695 10.714 15.2969 10.5416 15.3189C10.1728 15.3637 9.80172 15.3854 9.43022 15.3837L9.40297 15.3842Z" fill="#2F2F3D" />
</svg>
    