<svg width="14" height="15" viewBox="0 0 14 15" fill="none" xmlns="http://www.w3.org/2000/svg">
    <g clip-path="url(#clip0_786_40781)">
        <path d="M3.08404 6.71589C3.49986 5.99546 4.33741 5.5972 5.43849 5.5972L6.47655 5.5972L6.47655 2.07349C6.47412 2.05289 6.4729 2.03215 6.4729 2.01141C6.47275 1.94299 6.48609 1.87523 6.51216 1.81198C6.53824 1.74873 6.57654 1.69123 6.62486 1.64281C6.67319 1.59438 6.7306 1.55598 6.79379 1.52978C6.85699 1.50357 6.92473 1.49009 6.99314 1.49011C7.28131 1.49011 7.52177 1.72407 7.52177 2.01216C7.52177 2.02643 7.52121 2.04052 7.52008 2.05443L7.52008 5.5972L8.5661 5.5972C9.66717 5.5972 10.5047 5.99546 10.9206 6.71589C11.3365 7.44215 11.2603 8.36171 10.7097 9.31635L9.1459 12.0281C8.5954 12.9828 7.83399 13.5099 7.00236 13.5099C6.17073 13.5099 5.40923 12.9828 4.85281 12.0281L3.28906 9.31634C2.97278 8.77171 2.81463 8.23281 2.81463 7.74082C2.8146 7.37184 2.90245 7.02635 3.08404 6.71589ZM10.0173 7.26283C9.77676 6.84322 9.23415 6.61392 8.49573 6.61392L5.50851 6.61392C4.77017 6.61392 4.2275 6.84322 3.98695 7.26283C3.74641 7.68244 3.81917 8.26416 4.18838 8.90751L5.68198 11.4975C6.0511 12.1407 6.52104 12.4932 7.0021 12.4932C7.48316 12.4932 7.95309 12.1407 8.3223 11.4975L9.81589 8.90751C10.0453 8.51593 10.1571 8.14679 10.1571 7.82219C10.16 7.62672 10.1118 7.43389 10.0173 7.26278L10.0173 7.26283Z" fill="#2F2F3D" />
    </g>
    <defs>
        <clipPath id="clip0_786_40781">
            <rect width="14" height="14" fill="white" transform="translate(14 0.5) rotate(90)" />
        </clipPath>
    </defs>
</svg>
    