<svg width="18" height="18" viewBox="0 0 18 18" fill="none" xmlns="http://www.w3.org/2000/svg">
    <g clip-path="url(#clip0_510_15087)">
        <path d="M7.99229 14.0349C7.06603 13.5003 6.55397 12.4234 6.55397 11.0077V9.67308H2.02349C1.99701 9.6762 1.97034 9.67777 1.94367 9.67777C1.85571 9.67797 1.76859 9.66081 1.68727 9.62729C1.60594 9.59376 1.53202 9.54452 1.46976 9.48239C1.4075 9.42026 1.35813 9.34645 1.32444 9.2652C1.29074 9.18394 1.27341 9.09684 1.27344 9.00888C1.27344 8.63839 1.57424 8.32922 1.94465 8.32922C1.96299 8.32922 1.98111 8.32995 1.99899 8.33139H6.55397V6.98651C6.55397 5.57085 7.06603 4.49398 7.99229 3.95936C8.92606 3.42463 10.1084 3.52255 11.3357 4.23044L14.8223 6.24106C16.0498 6.94885 16.7274 7.9278 16.7274 8.99704C16.7274 10.0663 16.0497 11.0453 14.8223 11.7607L11.3357 13.7713C10.6355 14.1779 9.94262 14.3813 9.31006 14.3813C8.83566 14.3813 8.39146 14.2684 7.99229 14.0349ZM8.6955 5.1207C8.156 5.42995 7.8612 6.12759 7.8612 7.07699V10.9177C7.8612 11.867 8.156 12.5647 8.6955 12.874C9.235 13.1833 9.98293 13.0897 10.8101 12.615L14.1401 10.6947C14.9671 10.2201 15.4203 9.61587 15.4203 8.99737C15.4203 8.37886 14.9671 7.77467 14.1401 7.29997L10.8101 5.37964C10.3066 5.0847 9.83202 4.9409 9.41468 4.9409C9.16337 4.93716 8.91543 4.99913 8.69544 5.12068L8.6955 5.1207Z" fill="#2F2F3D" />
    </g>
    <defs>
        <clipPath id="clip0_510_15087">
            <rect width="18" height="18" fill="white" />
        </clipPath>
    </defs>
</svg>
    