<svg width="14" height="14" viewBox="0 0 14 14" fill="none" xmlns="http://www.w3.org/2000/svg">
<path d="M6.21601 10.916C5.49558 10.5001 5.09732 9.66259 5.09732 8.56151V7.52345L1.57361 7.52345C1.55301 7.52588 1.53227 7.5271 1.51153 7.5271C1.44311 7.52726 1.37535 7.51391 1.3121 7.48784C1.24885 7.46176 1.19136 7.42346 1.14293 7.37514C1.09451 7.32681 1.0561 7.2694 1.0299 7.20621C1.00369 7.14301 0.990216 7.07527 0.990234 7.00686C0.990234 6.71869 1.22419 6.47823 1.51229 6.47823C1.52656 6.47823 1.54064 6.47879 1.55455 6.47992H5.09732L5.09732 5.4339C5.09732 4.33283 5.49558 3.49526 6.21601 3.07945C6.94227 2.66355 7.86184 2.7397 8.81647 3.29029L11.5282 4.8541C12.4829 5.4046 13.01 6.16601 13.01 6.99764C13.01 7.82927 12.4829 8.59077 11.5282 9.14719L8.81647 10.7109C8.27183 11.0272 7.73293 11.1854 7.24094 11.1854C6.87196 11.1854 6.52647 11.0976 6.21601 10.916ZM6.76295 3.98271C6.34334 4.22324 6.11405 4.76585 6.11405 5.50427L6.11405 8.49149C6.11405 9.22983 6.34334 9.7725 6.76295 10.013C7.18256 10.2536 7.76429 10.1808 8.40763 9.81162L10.9977 8.31802C11.6409 7.9489 11.9934 7.47896 11.9934 6.9979C11.9934 6.51684 11.6408 6.04691 10.9977 5.6777L8.40763 4.18411C8.01605 3.95471 7.64691 3.84287 7.32231 3.84287C7.12685 3.83996 6.93401 3.88816 6.7629 3.9827L6.76295 3.98271Z" fill="#6E7191"/>
</svg>
