<svg width="24" height="24" viewBox="0 0 24 24" fill="none" xmlns="http://www.w3.org/2000/svg">
<path d="M10.6577 18.7131C9.42267 18.0003 8.73993 16.5645 8.73993 14.6769L8.73993 12.8974L2.69929 12.8974C2.66398 12.9016 2.62843 12.9037 2.59287 12.9036C2.47559 12.9039 2.35942 12.881 2.25099 12.8363C2.14256 12.7916 2.044 12.726 1.96098 12.6431C1.87797 12.5603 1.81214 12.4619 1.76722 12.3536C1.72229 12.2452 1.69919 12.1291 1.69922 12.0118C1.69922 11.5178 2.10029 11.1056 2.59416 11.1056C2.61863 11.1056 2.64278 11.1066 2.66662 11.1085H8.73993V9.31531C8.73993 7.42776 9.42267 5.99193 10.6577 5.2791C11.9027 4.56613 13.4791 4.69669 15.1156 5.64055L19.7644 8.32137C21.401 9.26509 22.3045 10.5704 22.3045 11.996C22.3045 13.4217 21.4009 14.7271 19.7644 15.681L15.1156 18.3617C14.182 18.9039 13.2581 19.175 12.4147 19.175C11.7822 19.175 11.1899 19.0244 10.6577 18.7131ZM11.5953 6.82756C10.876 7.2399 10.4829 8.17008 10.4829 9.43595L10.4829 14.5569C10.4829 15.8226 10.876 16.7529 11.5953 17.1653C12.3146 17.5776 13.3119 17.4529 14.4148 16.82L18.8548 14.2595C19.9574 13.6267 20.5617 12.8211 20.5617 11.9965C20.5617 11.1718 19.9574 10.3662 18.8548 9.73326L14.4148 7.17281C13.7435 6.77956 13.1107 6.58782 12.5542 6.58782C12.2191 6.58284 11.8885 6.66547 11.5952 6.82753L11.5953 6.82756Z" fill="#6E7191"/>
</svg>
