<svg width="16" height="16" viewBox="0 0 16 16" fill="none" xmlns="http://www.w3.org/2000/svg">
    <g clip-path="url(#clip0_2249_94956)">
        <path d="M8.89585 3.52434C9.7192 3.99956 10.1744 4.95676 10.1744 6.21514V7.40149L14.2014 7.40149C14.225 7.39871 14.2487 7.39732 14.2724 7.39733C14.3506 7.39715 14.428 7.41239 14.5003 7.44219C14.5726 7.472 14.6383 7.51576 14.6937 7.57099C14.749 7.62622 14.7929 7.69183 14.8228 7.76405C14.8528 7.83628 14.8682 7.9137 14.8682 7.99189C14.8682 8.32122 14.6008 8.59603 14.2715 8.59603C14.2552 8.59603 14.2391 8.59539 14.2232 8.5941H10.1744V9.78955C10.1744 11.0479 9.7192 12.0051 8.89585 12.4804C8.06584 12.9557 7.01491 12.8686 5.9239 12.2394L2.82474 10.4522C1.73366 9.82303 1.13129 8.95285 1.13129 8.00242C1.13129 7.05198 1.7337 6.1817 2.82474 5.54579L5.9239 3.75865C6.54634 3.39719 7.16223 3.21644 7.7245 3.21644C8.14619 3.21641 8.54104 3.3168 8.89585 3.52434ZM8.27077 11.448C8.75033 11.1732 9.01238 10.553 9.01238 9.70912V6.29516C9.01238 5.45135 8.75033 4.83115 8.27077 4.55624C7.79122 4.28133 7.12639 4.36449 6.39114 4.78644L3.43111 6.49341C2.69601 6.91527 2.29317 7.45234 2.29317 8.00212C2.29317 8.5519 2.69605 9.08896 3.43111 9.51092L6.39114 11.2179C6.83866 11.48 7.26054 11.6079 7.6315 11.6079C7.85489 11.6112 8.07528 11.5561 8.27083 11.4481L8.27077 11.448Z" fill="#9496B3" />
    </g>
    <defs>
        <clipPath id="clip0_2249_94956">
            <rect width="16" height="16" fill="white" transform="translate(16 16) rotate(180)" />
        </clipPath>
    </defs>
</svg>