<svg width="20" height="20" viewBox="0 0 20 20" fill="none" xmlns="http://www.w3.org/2000/svg">
    <path d="M4.40493 8.87994C4.99896 7.85076 6.19546 7.28181 7.76844 7.28181L9.25137 7.28181L9.25137 2.24795C9.2479 2.21852 9.24616 2.18889 9.24617 2.15926C9.24594 2.06152 9.265 1.96472 9.30225 1.87436C9.33951 1.784 9.39421 1.70187 9.46325 1.63269C9.53229 1.56351 9.6143 1.50865 9.70458 1.47121C9.79486 1.43378 9.89164 1.41452 9.98937 1.41455C10.401 1.41455 10.7445 1.74877 10.7445 2.16034C10.7445 2.18072 10.7437 2.20085 10.7421 2.22072L10.7421 7.28181L12.2364 7.28181C13.8094 7.28181 15.0059 7.85076 15.6 8.87994C16.1941 9.91746 16.0853 11.2311 15.2987 12.5949L13.0647 16.4688C12.2783 17.8327 11.1906 18.5856 10.0025 18.5856C8.81448 18.5856 7.72663 17.8326 6.93174 16.4688L4.69783 12.5949C4.246 11.8168 4.02006 11.047 4.02006 10.3441C4.02002 9.81702 4.14551 9.32346 4.40493 8.87994ZM14.3096 9.66129C13.966 9.06184 13.1908 8.73428 12.1359 8.73428L7.86846 8.73428C6.81369 8.73428 6.03845 9.06184 5.69481 9.66129C5.35117 10.2607 5.45512 11.0918 5.98257 12.0108L8.11627 15.7109C8.64359 16.6297 9.31494 17.1333 10.0022 17.1333C10.6894 17.1333 11.3607 16.6297 11.8882 15.7109L14.0219 12.0108C14.3496 11.4514 14.5094 10.9241 14.5094 10.4604C14.5135 10.1811 14.4446 9.90566 14.3096 9.66122L14.3096 9.66129Z" fill="#C6C2DE" />
</svg>