<svg width="16" height="16" viewBox="0 0 16 16" fill="none" xmlns="http://www.w3.org/2000/svg">
    <g clip-path="url(#clip0_2247_94659)">
        <path d="M3.52483 7.10332C4.00003 6.28012 4.95715 5.82324 6.21555 5.82324L7.40197 5.82324L7.40197 1.79629C7.39925 1.77266 7.39791 1.74899 7.39797 1.7252C7.39781 1.64704 7.41309 1.56972 7.44289 1.49746C7.47269 1.42521 7.51649 1.35943 7.5717 1.3041C7.62691 1.24878 7.69248 1.20514 7.76467 1.1752C7.83686 1.14525 7.91424 1.12949 7.9924 1.12949C8.15142 1.12927 8.3041 1.19195 8.41721 1.30371C8.53032 1.41548 8.59472 1.56736 8.59641 1.72637C8.59641 1.74237 8.59641 1.75842 8.59641 1.77442L8.59641 5.82324L9.79162 5.82324C11.05 5.82324 12.0071 6.27852 12.4823 7.10332C12.9575 7.93332 12.8704 8.9832 12.2424 10.0752L10.4552 13.1744C9.826 14.2652 8.95599 14.8678 8.00559 14.8678C7.05519 14.8678 6.18474 14.2648 5.54914 13.1744L3.76203 10.0752C3.42653 9.53316 3.23952 8.91237 3.21994 8.2752C3.21442 7.86424 3.31979 7.45952 3.52483 7.10332Z" fill="#2F2F3D" />
    </g>
    <defs>
        <clipPath id="clip0_2247_94659">
            <rect width="16" height="16" fill="white" transform="translate(16) rotate(90)" />
        </clipPath>
    </defs>
</svg>
    