<svg width="14" height="14" viewBox="0 0 10 14" fill="none" xmlns="http://www.w3.org/2000/svg">
    <path d="M1.08404 7.78424C1.49986 8.50466 2.33741 8.90293 3.43849 8.90293L4.47655 8.90293L4.47655 12.4266C4.47412 12.4472 4.4729 12.468 4.4729 12.4887C4.47274 12.5571 4.48609 12.6249 4.51216 12.6881C4.53824 12.7514 4.57654 12.8089 4.62486 12.8573C4.67319 12.9057 4.7306 12.9441 4.79379 12.9703C4.85699 12.9965 4.92473 13.01 4.99314 13.01C5.28131 13.01 5.52177 12.7761 5.52177 12.488C5.52177 12.4737 5.52121 12.4596 5.52008 12.4457L5.52008 8.90293L6.5661 8.90293C7.66717 8.90293 8.50474 8.50466 8.92055 7.78424C9.33645 7.05797 9.2603 6.13841 8.70971 5.18378L7.1459 2.47202C6.59539 1.51732 5.83399 0.990247 5.00236 0.990247C4.17073 0.990247 3.40923 1.51735 2.85281 2.47202L1.28906 5.18378C0.972783 5.72841 0.814631 6.26731 0.814631 6.75931C0.814597 7.12828 0.902446 7.47377 1.08404 7.78424ZM8.01729 7.23729C7.77676 7.65691 7.23415 7.8862 6.49573 7.8862L3.50851 7.8862C2.77017 7.8862 2.2275 7.65691 1.98695 7.23729C1.74641 6.81768 1.81917 6.23596 2.18838 5.59262L3.68197 3.00258C4.0511 2.35938 4.52104 2.00689 5.0021 2.00689C5.48316 2.00689 5.95309 2.35941 6.3223 3.00258L7.81589 5.59262C8.04529 5.98419 8.15713 6.35333 8.15713 6.67793C8.16004 6.8734 8.11184 7.06623 8.0173 7.23734L8.01729 7.23729Z" fill="#2F2F3D" />
</svg>