<svg width="22" height="16" viewBox="0 0 22 16" fill="none" xmlns="http://www.w3.org/2000/svg">
    <path d="M9.65378 14.7125C8.41876 13.9997 7.73603 12.5639 7.73603 10.6763L7.73603 8.89679L1.69539 8.89679C1.66007 8.90095 1.62452 8.90304 1.58896 8.90304C1.47168 8.90331 1.35551 8.88043 1.24708 8.83573C1.13865 8.79103 1.04009 8.72538 0.957079 8.64254C0.874064 8.55969 0.808232 8.46128 0.76331 8.35294C0.718387 8.24461 0.695282 8.12847 0.695313 8.01119C0.695313 7.5172 1.09638 7.10498 1.59026 7.10498C1.61472 7.10498 1.63887 7.10594 1.66272 7.10787L7.73603 7.10787V5.3147C7.73603 3.42715 8.41876 1.99132 9.65378 1.27849C10.8988 0.565522 12.4752 0.696076 14.1117 1.63994L18.7604 4.32076C20.3971 5.26448 21.3006 6.56975 21.3006 7.9954C21.3006 9.42105 20.397 10.7265 18.7604 11.6803L14.1117 14.361C13.1781 14.9032 12.2542 15.1744 11.4108 15.1744C10.7783 15.1744 10.186 15.0238 9.65378 14.7125ZM10.5914 2.82695C9.87206 3.23929 9.47899 4.16947 9.47899 5.43534L9.47899 10.5563C9.47899 11.822 9.87206 12.7523 10.5914 13.1647C11.3107 13.577 12.308 13.4523 13.4108 12.8194L17.8509 10.2589C18.9535 9.62612 19.5578 8.82051 19.5578 7.99584C19.5578 7.17117 18.9535 6.36558 17.8509 5.73265L13.4108 3.1722C12.7396 2.77895 12.1068 2.58721 11.5503 2.58721C11.2152 2.58223 10.8846 2.66486 10.5913 2.82692L10.5914 2.82695Z" fill="#6E7191" />
</svg>