<svg width="76" height="75" viewBox="0 0 76 75" fill="none" xmlns="http://www.w3.org/2000/svg">
    <path d="M53.6043 46.628H53.4028C50.3401 52.1446 44.5973 55.8645 37.9984 55.8645C28.1783 55.8645 20.2169 47.642 20.2169 37.5C20.2169 27.358 28.1783 19.1356 37.9984 19.1356C46.6609 19.1356 53.8678 25.5363 55.4491 34.0043H26.3456V40.3837H55.0546H55.5404H61.9085C62.0153 39.4373 62.079 38.4767 62.079 37.5C62.079 23.7663 51.2979 12.6316 38.0001 12.6316C24.7023 12.6316 13.9211 23.7663 13.9211 37.5C13.9211 51.2338 24.7023 62.3684 38.0001 62.3684C46.9657 62.3684 54.7756 57.3019 58.92 49.7963L53.6043 46.628Z" fill="#3D3C56" />
    <path d="M64.2216 10.7023C64.5345 9.95733 64.707 9.14118 64.707 8.28414C64.707 4.8293 61.9065 2.02881 58.4516 2.02881C56.8194 2.02881 55.3382 2.66003 54.2233 3.68421C49.3158 1.3229 43.8126 0 38 0C17.2888 0 0.5 16.7888 0.5 37.5C0.5 58.2112 17.2888 75 38 75C58.7112 75 75.5 58.2112 75.5 37.5C75.5 26.9986 71.1775 17.5089 64.2216 10.7023ZM58.345 4.16074C60.6743 4.16074 62.5626 6.04908 62.5626 8.37838C62.5626 10.7077 60.6743 12.596 58.345 12.596C56.0157 12.596 54.1273 10.7077 54.1273 8.37838C54.1273 6.04908 56.0157 4.16074 58.345 4.16074ZM38 70.1102C19.9897 70.1102 5.38976 55.5103 5.38976 37.5C5.38976 19.4897 19.9897 4.88976 38 4.88976C43.0925 4.88976 47.9111 6.05797 52.2052 8.14011C52.2034 8.18812 52.1981 8.23435 52.1981 8.28236C52.1981 11.7372 54.9986 14.5377 58.4534 14.5377C59.2518 14.5377 60.011 14.383 60.7134 14.111C66.8158 20.0373 70.612 28.3233 70.612 37.5018C70.6102 55.5103 56.0103 70.1102 38 70.1102Z" fill="#6ACCE5" />
</svg>
    