<svg width="24" height="24" viewBox="0 0 24 24" fill="none" xmlns="http://www.w3.org/2000/svg">
    <g clip-path="url(#clip0_32908_39923)">
        <path d="M11.9985 22.3426C9.95296 22.3426 7.9534 21.736 6.25264 20.5996C4.55187 19.4632 3.22628 17.848 2.44351 15.9582C1.66073 14.0684 1.45592 11.9889 1.85498 9.98274C2.25403 7.97655 3.23903 6.13375 4.68541 4.68737C6.1318 3.24099 7.9746 2.25599 9.98079 1.85693C11.987 1.45787 14.0665 1.66268 15.9562 2.44546C17.846 3.22824 19.4613 4.55382 20.5977 6.25459C21.7341 7.95535 22.3407 9.95491 22.3407 12.0004C22.3383 14.7426 21.2479 17.3718 19.3089 19.3108C17.3698 21.2498 14.7406 22.3402 11.9985 22.3426ZM11.9985 3.10121C10.2384 3.10121 8.51779 3.62314 7.05432 4.60099C5.59086 5.57885 4.45023 6.96871 3.77667 8.59483C3.10311 10.2209 2.92687 12.0103 3.27025 13.7366C3.61363 15.4628 4.46119 17.0485 5.70577 18.2931C6.95035 19.5377 8.53603 20.3852 10.2623 20.7286C11.9886 21.072 13.7779 20.8958 15.404 20.2222C17.0301 19.5486 18.42 18.408 19.3979 16.9445C20.3757 15.4811 20.8977 13.7605 20.8977 12.0004C20.8948 9.64107 19.9563 7.37918 18.288 5.71088C16.6197 4.04257 14.3578 3.10407 11.9985 3.10121Z" fill="#6E7191" />
        <path d="M12.0013 13.6841C11.8106 13.6824 11.6283 13.6058 11.4936 13.4709C11.3589 13.336 11.2827 13.1535 11.2812 12.9629V8.15091C11.283 7.96049 11.3594 7.77835 11.494 7.64369C11.6287 7.50904 11.8108 7.43263 12.0013 7.43091C12.1917 7.43263 12.3738 7.50904 12.5085 7.64369C12.6431 7.77835 12.7195 7.96049 12.7213 8.15091V12.9629C12.7198 13.1535 12.6436 13.336 12.5089 13.4709C12.3742 13.6058 12.1919 13.6824 12.0013 13.6841Z" fill="#6E7191" />
        <path d="M11.9991 16.8108C11.8734 16.8093 11.7493 16.7832 11.6337 16.734C11.5171 16.6851 11.4098 16.6167 11.3163 16.5318C11.2295 16.4386 11.1615 16.3296 11.1159 16.2108C11.0673 16.0968 11.0412 15.9746 11.0391 15.8508C11.0401 15.7241 11.0662 15.5989 11.1159 15.4824C11.1647 15.3658 11.2331 15.2585 11.3181 15.165C11.4116 15.08 11.5189 15.0116 11.6355 14.9628C11.8697 14.8663 12.1326 14.8663 12.3669 14.9628C12.4834 15.0116 12.5907 15.08 12.6843 15.165C12.7692 15.2585 12.8376 15.3658 12.8865 15.4824C12.9357 15.598 12.9618 15.7221 12.9633 15.8478C12.9618 15.9734 12.9357 16.0976 12.8865 16.2132C12.8399 16.3309 12.7713 16.4386 12.6843 16.5306C12.5907 16.6155 12.4834 16.6839 12.3669 16.7328C12.2506 16.7828 12.1256 16.8093 11.9991 16.8108Z" fill="#6E7191" />
    </g>
    <defs>
        <clipPath id="clip0_32908_39923">
            <rect width="24" height="24" fill="white" />
        </clipPath>
    </defs>
</svg>
    