<svg width="17" height="16" viewBox="0 0 17 16" fill="none" xmlns="http://www.w3.org/2000/svg">
    <g clip-path="url(#clip0_486_9576)">
        <path fill-rule="evenodd" clip-rule="evenodd" d="M3.22162 4.0387C3.20377 4.09861 3.19822 4.16176 3.20485 4.22392C3.21584 4.34238 3.27051 4.45249 3.35844 4.53262C3.44637 4.61275 3.56113 4.65688 3.68009 4.65686C3.69531 4.65686 3.71227 4.65605 5.02235 4.52804C8.34185 4.19165 10.3341 4.31856 13.6902 4.65495H13.7406C13.8588 4.65526 13.9728 4.61107 14.0599 4.53109C14.1471 4.45111 14.201 4.34141 14.2108 4.22354C14.2229 4.09824 14.185 3.97304 14.1053 3.87559C14.0256 3.77814 13.9107 3.71634 13.7855 3.70333C12.9195 3.61825 12.1404 3.54645 11.4047 3.49182C11.4044 3.48768 11.4037 3.48346 11.4029 3.47924C11.4019 3.47348 11.4009 3.46771 11.4009 3.46209L11.2615 2.63737L11.2612 2.63608C11.166 2.05226 11.0234 1.17773 9.54152 1.17773H7.87875C6.40158 1.17773 6.26118 2.02125 6.15972 2.63076L6.15957 2.63166L6.02009 3.46247C6.01938 3.46799 6.01841 3.47346 6.01704 3.47886C5.66815 3.50539 5.3049 3.53778 4.92441 3.5768L3.63017 3.70371C3.56793 3.70956 3.50736 3.72767 3.45219 3.75707C3.39702 3.78646 3.34846 3.82644 3.30889 3.87483C3.26932 3.92322 3.23947 3.9788 3.22162 4.0387ZM10.3308 2.7963L10.4375 3.42893C9.8088 3.39498 9.19932 3.37786 8.57998 3.37786C8.06602 3.37786 7.54322 3.38942 6.99687 3.41674L7.10739 2.7902L7.10824 2.78506C7.20191 2.22496 7.21675 2.13622 7.88789 2.13622H9.55028C10.2227 2.13622 10.2414 2.24448 10.3308 2.7963Z" fill="#2F2F3D" />
        <path fill-rule="evenodd" clip-rule="evenodd" d="M4.30285 12.6066C4.3731 13.5962 4.46133 14.8212 6.67563 14.8212H10.7497C12.9647 14.8212 13.0529 13.5962 13.1232 12.6066L13.5355 6.21616C13.5397 6.15365 13.5316 6.09067 13.5115 6.03132C13.4915 5.97198 13.4598 5.91723 13.4185 5.87011C13.3773 5.82299 13.3273 5.78463 13.2711 5.75692C13.2149 5.72921 13.1537 5.71259 13.0912 5.70852C11.6276 5.45047 10.1457 5.30854 8.65967 5.28397C7.20851 5.3049 5.76164 5.44689 4.3341 5.70852C4.20822 5.71774 4.09106 5.77632 4.00788 5.87126C3.9247 5.96619 3.88232 6.09016 3.88973 6.21616L4.30285 12.6066ZM5.25435 12.5464L5.2541 12.5429L4.87413 6.65977C6.11907 6.39508 7.38702 6.25303 8.65967 6.23559C9.967 6.25739 11.2694 6.39936 12.5508 6.65977L12.1712 12.5429C12.1076 13.5076 12.0828 13.8695 10.7497 13.8695H6.67563C5.35073 13.8695 5.3244 13.5081 5.25435 12.5464Z" fill="#2F2F3D" />
    </g>
    <defs>
        <clipPath id="clip0_486_9576">
            <rect width="16" height="16" fill="white" transform="translate(0.709717)" />
        </clipPath>
    </defs>
</svg>
    