<svg width="18" height="18" viewBox="0 0 18 18" fill="none" xmlns="http://www.w3.org/2000/svg">
    <g clip-path="url(#clip0_33369_65044)">
        <path d="M3.51184 16.8027C2.89562 16.8097 2.30075 16.5756 1.85462 16.1505C1.59854 15.8951 1.4094 15.5805 1.30353 15.2347C1.19346 14.872 1.16846 14.4887 1.23058 14.1149L1.61027 11.4271C1.66418 11.1012 1.76826 10.7854 1.91834 10.4911C2.06151 10.1918 2.25107 9.91728 2.47997 9.67719L9.52458 2.63258C10.4755 1.68171 11.4572 1.19861 12.4404 1.19861C13.0088 1.206 13.5666 1.35534 14.0629 1.63236C14.5461 1.90031 14.9871 2.23717 15.373 2.63258C15.8496 3.0904 16.2361 3.63351 16.5121 4.23399C16.7429 4.74855 16.8369 5.31429 16.7845 5.87582C16.7396 6.33775 16.5983 6.78509 16.3697 7.18894C16.0988 7.66418 15.763 8.09958 15.3725 8.48273L8.32924 15.5265C7.83986 15.9795 7.23242 16.2853 6.5771 16.4089L3.88934 16.7886C3.82588 16.7886 3.75662 16.792 3.70037 16.7956C3.64411 16.7992 3.57529 16.8027 3.51184 16.8027ZM12.4088 2.3065C11.9949 2.33072 11.5903 2.43735 11.2183 2.62027C10.8462 2.8032 10.5146 3.05836 10.2427 3.37132L3.05831 10.5144C2.72108 10.8757 2.49628 11.3278 2.41186 11.8147L2.12972 13.8117C2.08167 14.0823 2.09887 14.3606 2.17938 14.6234C2.25989 14.8862 2.40153 15.1261 2.59292 15.3234C2.92455 15.6384 3.36561 15.8119 3.82298 15.8068C3.86798 15.8068 3.92174 15.8038 3.96404 15.8011H3.96844C4.01344 15.8011 4.0615 15.7958 4.10335 15.7958L6.09984 15.5146C6.58635 15.4222 7.03696 15.195 7.40065 14.8589L14.5872 7.71586C15.1547 7.21541 15.5256 6.5297 15.6345 5.7809C15.7164 4.96008 15.3648 4.14937 14.5872 3.3722C14.3136 3.05837 13.9798 2.80247 13.6059 2.6194C13.2319 2.43632 12.8249 2.33014 12.4092 2.3065H12.4088Z" fill="#2F2F3D" />
        <path d="M13.6509 9.78351C13.5594 9.78399 13.4685 9.7704 13.3811 9.74308C12.163 9.39641 11.0536 8.74449 10.1581 7.84899C9.26257 6.95348 8.61066 5.84402 8.26399 4.62596C8.19486 4.37658 8.22207 4.11051 8.34089 3.88063C8.45972 3.65074 8.6613 3.47405 8.90473 3.38623C8.88749 3.52106 8.89705 3.65777 8.93329 3.78878C9.27991 5.00682 9.93187 6.11637 10.8274 7.01181C11.7229 7.90725 12.8323 8.55895 14.0504 8.90546C14.1377 8.9333 14.2291 8.94762 14.3207 8.94721C14.4354 8.94728 14.5493 8.9271 14.6573 8.88832C14.6509 8.93839 14.6411 8.98803 14.6283 9.03686C14.5695 9.2511 14.4423 9.44035 14.2657 9.5752C14.0892 9.71006 13.8731 9.78316 13.6509 9.78351Z" fill="#2F2F3D" />
    </g>
    <defs>
        <clipPath id="clip0_33369_65044">
            <rect width="18" height="18" fill="white" />
        </clipPath>
    </defs>
</svg>