<svg width="18" height="18" viewBox="0 0 18 18" fill="none" xmlns="http://www.w3.org/2000/svg">
    <path d="M12.2423 1.27148H5.76662C2.95405 1.27148 1.27686 2.94954 1.27686 5.76391V12.2315C1.27686 15.0504 2.9536 16.7284 5.76662 16.7284H12.2342C15.0463 16.7284 16.7235 15.0504 16.7235 12.236V5.76391C16.7311 2.94954 15.054 1.27148 12.2423 1.27148ZM4.75499 9.44046H6.8957C7.04657 9.44467 7.18984 9.50761 7.29507 9.61581C7.40029 9.72401 7.45917 9.86897 7.45917 10.0199C7.45917 10.1708 7.40029 10.3158 7.29507 10.424C7.18984 10.5322 7.04657 10.5951 6.8957 10.5993H4.75409C4.60323 10.5951 4.45995 10.5322 4.35472 10.424C4.2495 10.3158 4.19063 10.1708 4.19063 10.0199C4.19063 9.86897 4.2495 9.72401 4.35472 9.61581C4.45995 9.50761 4.60323 9.44467 4.75409 9.44046H4.75499ZM9.75462 13.5064H4.75409C4.60059 13.5057 4.45357 13.4443 4.34503 13.3358C4.23648 13.2272 4.17519 13.0802 4.17448 12.9267C4.17512 12.7723 4.23599 12.6243 4.34414 12.5141C4.45365 12.4069 4.60085 12.3469 4.75409 12.3471H9.75372C9.90681 12.347 10.0538 12.407 10.1632 12.5141C10.2717 12.6241 10.3328 12.7722 10.3333 12.9267C10.3319 13.08 10.2704 13.2266 10.162 13.335C10.0536 13.4434 9.90701 13.505 9.75372 13.5064H9.75462ZM13.2548 13.5064H11.8251C11.6716 13.5057 11.5246 13.4443 11.4161 13.3358C11.3075 13.2272 11.2462 13.0802 11.2455 12.9267C11.2461 12.7723 11.307 12.6243 11.4152 12.5141C11.5247 12.4069 11.6719 12.3469 11.8251 12.3471H13.2548C13.4079 12.347 13.5549 12.407 13.6643 12.5141C13.7728 12.6241 13.8339 12.7722 13.8344 12.9267C13.833 13.08 13.7715 13.2266 13.6631 13.335C13.5547 13.4434 13.4081 13.505 13.2548 13.5064ZM13.2548 10.5993H8.9797C8.82883 10.5951 8.68555 10.5322 8.58033 10.424C8.47511 10.3158 8.41624 10.1708 8.41624 10.0199C8.41624 9.86897 8.47511 9.72401 8.58033 9.61581C8.68555 9.50761 8.82883 9.44467 8.9797 9.44046H13.2548C13.4057 9.44467 13.549 9.50761 13.6542 9.61581C13.7594 9.72401 13.8183 9.86897 13.8183 10.0199C13.8183 10.1708 13.7594 10.3158 13.6542 10.424C13.549 10.5322 13.4057 10.5951 13.2548 10.5993Z" fill="#2F2F3D" />
</svg>
    