<svg width="18" height="19" viewBox="0 0 18 19" fill="none" xmlns="http://www.w3.org/2000/svg">
    <g clip-path="url(#clip0_840_8173)">
        <path d="M12.9491 13.5713H11.6206C11.4786 13.5678 11.3432 13.511 11.2413 13.412C11.1408 13.3112 11.0838 13.175 11.0824 13.0327C11.0834 12.8904 11.1405 12.7542 11.2413 12.6537C11.2906 12.6031 11.3496 12.563 11.4148 12.5356C11.48 12.5083 11.5499 12.4942 11.6206 12.4944H12.9491C13.0197 12.4943 13.0897 12.5083 13.1549 12.5356C13.2201 12.563 13.2791 12.6032 13.3284 12.6537C13.4292 12.7542 13.4863 12.8904 13.4873 13.0327C13.4856 13.175 13.4287 13.311 13.3284 13.412C13.2265 13.5109 13.091 13.5678 12.9491 13.5713Z" fill="#2F2F3D" />
        <path d="M5.05152 13.5713H9.69564L9.69384 13.5727C9.83706 13.5727 9.97441 13.5158 10.0757 13.4146C10.177 13.3133 10.2338 13.1759 10.2338 13.0327C10.2333 12.8891 10.1766 12.7515 10.0759 12.6492C9.97425 12.5499 9.83775 12.4944 9.69564 12.4944H5.05152C4.98084 12.4942 4.91084 12.5083 4.84567 12.5356C4.7805 12.563 4.7215 12.6031 4.67217 12.6537C4.57136 12.7542 4.51427 12.8904 4.51331 13.0327C4.51473 13.175 4.57174 13.3112 4.67217 13.412C4.77409 13.511 4.90953 13.5678 5.05152 13.5713Z" fill="#2F2F3D" />
        <path d="M12.9495 10.87H8.98038C8.83786 10.8684 8.70158 10.8112 8.60058 10.7107C8.55038 10.6611 8.51054 10.602 8.48334 10.537C8.45614 10.4719 8.44212 10.402 8.44212 10.3315C8.44212 10.261 8.45614 10.1911 8.48334 10.1261C8.51054 10.061 8.55038 10.0019 8.60058 9.95236C8.64999 9.90173 8.70907 9.86162 8.77432 9.83425C8.83956 9.80689 8.90963 9.79282 8.98038 9.79305H12.9513C13.022 9.79288 13.0919 9.80689 13.1571 9.83425C13.2223 9.86162 13.2813 9.90178 13.3306 9.95236C13.381 10.0018 13.421 10.0609 13.4483 10.1259C13.4756 10.191 13.4897 10.2609 13.4897 10.3315C13.4897 10.4021 13.4756 10.472 13.4483 10.5371C13.421 10.6022 13.381 10.6612 13.3306 10.7107C13.2293 10.8116 13.0925 10.8688 12.9495 10.87Z" fill="#2F2F3D" />
        <path d="M5.05082 10.87H7.03988C7.18228 10.8684 7.31842 10.8112 7.41923 10.7107C7.46959 10.6612 7.50958 10.6022 7.53688 10.5371C7.56419 10.472 7.57826 10.4021 7.57826 10.3315C7.57826 10.2609 7.56419 10.191 7.53688 10.1259C7.50958 10.0609 7.46959 10.0018 7.41923 9.95236C7.3699 9.90174 7.31089 9.86162 7.24572 9.83425C7.18055 9.80689 7.11056 9.79283 7.03988 9.79305H5.05082C4.98014 9.79283 4.91014 9.80689 4.84497 9.83425C4.7798 9.86162 4.7208 9.90174 4.67147 9.95236C4.62111 10.0018 4.5811 10.0609 4.5538 10.1259C4.5265 10.191 4.51243 10.2609 4.51243 10.3315C4.51243 10.4021 4.5265 10.472 4.5538 10.5371C4.5811 10.6022 4.62111 10.6612 4.67147 10.7107C4.7723 10.8112 4.90843 10.8684 5.05082 10.87Z" fill="#2F2F3D" />
        <path fill-rule="evenodd" clip-rule="evenodd" d="M11.1543 17.1039H6.84633C2.94743 17.1039 1.28149 15.4389 1.28149 11.5382V7.2302C1.28149 3.33131 2.94653 1.66406 6.84633 1.66406H11.1543C15.0532 1.66406 16.7191 3.32906 16.7191 7.2302V11.5382C16.7187 15.4371 15.0527 17.1039 11.1543 17.1039ZM6.84633 2.74086C3.5365 2.74086 2.35881 3.92128 2.35881 7.22977V11.5377C2.35881 14.8462 3.5365 16.0266 6.84633 16.0266H11.1543C14.4641 16.0266 15.6418 14.8462 15.6418 11.5377V7.22977C15.6418 3.92128 14.4641 2.74086 11.1543 2.74086H6.84633Z" fill="#2F2F3D" />
    </g>
    <defs>
        <clipPath id="clip0_840_8173">
            <rect width="18" height="18" fill="white" transform="translate(0 0.382812)" />
        </clipPath>
    </defs>
</svg>
    