<svg width="14" height="14" viewBox="0 0 14 14" fill="none" xmlns="http://www.w3.org/2000/svg">
<g clip-path="url(#clip0_30534_20842)">
<path d="M3.9522 13.0655C3.73837 13.0657 3.52669 13.0237 3.3291 12.9419C3.13151 12.8602 2.95189 12.7403 2.80068 12.5891C2.64949 12.4379 2.52974 12.2583 2.44795 12.0608C2.36616 11.8632 2.32415 11.6515 2.32422 11.4377V2.55847C2.32415 2.34463 2.36616 2.13287 2.44795 1.93529C2.52974 1.73771 2.64949 1.55818 2.80068 1.40696C2.95195 1.25575 3.1318 1.13588 3.32944 1.05414C3.52709 0.972402 3.73866 0.930466 3.95254 0.930665H6.98257C7.84531 0.932422 8.67213 1.27585 9.28218 1.8859C9.89223 2.49595 10.2357 3.32286 10.2375 4.1856C10.2374 4.65002 10.1378 5.10905 9.94526 5.53168C9.75272 5.95431 9.47187 6.33072 9.12153 6.6356C9.83851 6.80223 10.4781 7.20636 10.9365 7.78233C11.3948 8.35829 11.645 9.07233 11.6464 9.80841C11.6447 10.6712 11.3011 11.4981 10.6911 12.1082C10.081 12.7183 9.25422 13.0617 8.39145 13.0633L3.9522 13.0655ZM3.89819 11.0551C3.9015 11.2126 3.96714 11.3623 4.08071 11.4715C4.19429 11.5807 4.34634 11.6404 4.50386 11.6375H8.13818C8.38784 11.6424 8.63606 11.5982 8.8686 11.5072C9.10115 11.4163 9.31372 11.2804 9.49375 11.1073C9.67377 10.9343 9.81783 10.7275 9.91792 10.4988C10.018 10.27 10.0719 10.0237 10.0769 9.77406C10.0668 9.26989 9.85697 8.79033 9.49341 8.44088C9.12985 8.09144 8.64235 7.90073 8.13818 7.91067H3.89819V11.0551ZM6.84687 6.38891C7.36004 6.3797 7.84843 6.16701 8.20483 5.79768C8.56123 5.42835 8.75635 4.93264 8.74726 4.41947C8.75186 4.16533 8.70631 3.91278 8.61328 3.67623C8.52025 3.43969 8.38166 3.22375 8.20518 3.04083C8.02869 2.85791 7.81787 2.71152 7.58481 2.61008C7.35175 2.50864 7.10101 2.45412 6.84687 2.44961H4.41465C4.33513 2.45089 4.25655 2.46787 4.18359 2.49951C4.11063 2.53116 4.04472 2.57682 3.98945 2.63401C3.93419 2.69119 3.89076 2.75877 3.86162 2.83276C3.83248 2.90676 3.81814 2.98576 3.81958 3.06527V6.39027L6.84687 6.38891Z" fill="#6E7191"/>
</g>
<defs>
<clipPath id="clip0_30534_20842">
<rect width="14" height="14" fill="white"/>
</clipPath>
</defs>
</svg>
