<svg width="14" height="14" viewBox="0 0 14 14" fill="none" xmlns="http://www.w3.org/2000/svg">
    <path d="M6.21576 10.916C5.49534 10.5001 5.09707 9.66259 5.09707 8.56151V7.52345H1.57337C1.55277 7.52588 1.53203 7.5271 1.51128 7.5271C1.44287 7.52725 1.37511 7.51391 1.31186 7.48784C1.24861 7.46176 1.19111 7.42346 1.14269 7.37514C1.09426 7.32681 1.05586 7.2694 1.02966 7.20621C1.00345 7.14301 0.989972 7.07527 0.98999 7.00686C0.98999 6.71869 1.22395 6.47823 1.51204 6.47823C1.52631 6.47823 1.5404 6.47879 1.55431 6.47992H5.09707V5.4339C5.09707 4.33283 5.49534 3.49526 6.21576 3.07945C6.94203 2.66355 7.86159 2.7397 8.81622 3.29029L11.528 4.8541C12.4827 5.4046 13.0098 6.16601 13.0098 6.99764C13.0098 7.82927 12.4826 8.59077 11.528 9.14719L8.81622 10.7109C8.27159 11.0272 7.73269 11.1854 7.24069 11.1854C6.87172 11.1854 6.52623 11.0976 6.21576 10.916ZM6.76271 3.98271C6.34309 4.22324 6.1138 4.76585 6.1138 5.50427V8.49149C6.1138 9.22983 6.34309 9.7725 6.76271 10.013C7.18232 10.2536 7.76404 10.1808 8.40738 9.81162L10.9974 8.31802C11.6406 7.9489 11.9931 7.47896 11.9931 6.9979C11.9931 6.51684 11.6406 6.04691 10.9974 5.6777L8.40738 4.18411C8.01581 3.95471 7.64667 3.84287 7.32207 3.84287C7.1266 3.83996 6.93377 3.88816 6.76266 3.9827L6.76271 3.98271Z" fill="#C6C2DE" />
</svg>