<svg width="19" height="19" viewBox="0 0 19 19" fill="none" xmlns="http://www.w3.org/2000/svg">
    <g clip-path="url(#clip0_456_16298)">
        <path fill-rule="evenodd" clip-rule="evenodd" d="M8.7928 12.2233H10.7382C11.7972 12.1177 12.443 11.6704 12.6755 10.8814C12.8237 10.1224 12.6716 9.60471 12.2192 9.3284C12.5423 9.0383 12.7553 8.6455 12.8222 8.21643C12.8423 7.3293 12.3761 6.86939 11.4236 6.83669H9.19961C8.7992 6.81965 8.40614 6.94805 8.09299 7.19817C7.77984 7.44829 7.56775 7.80325 7.49587 8.19752C7.47371 8.40026 7.49486 8.60539 7.55793 8.79934C7.62101 8.99329 7.72455 9.17163 7.86173 9.32255C7.59944 9.48303 7.38866 9.71533 7.25435 9.99193C7.12004 10.2685 7.06783 10.5778 7.10391 10.8832C7.18461 11.6734 7.74757 12.1201 8.7928 12.2233ZM10.7305 10.9565H8.81935C8.54304 10.8686 8.41434 10.7203 8.43324 10.5115C8.44472 10.4069 8.489 10.3087 8.55973 10.2308C8.63046 10.153 8.72402 10.0995 8.827 10.0781H10.844C11.2055 10.1384 11.3555 10.2949 11.294 10.5475C11.2634 10.6712 11.1901 10.7801 11.087 10.8549C10.9839 10.9298 10.8576 10.9658 10.7305 10.9565ZM10.8701 8.86444H9.15101C8.8921 8.77024 8.7841 8.61258 8.827 8.39148C8.84468 8.2861 8.89896 8.19034 8.98028 8.12103C9.06161 8.05173 9.16476 8.01332 9.27161 8.01257H11.0172C11.3235 8.07017 11.4467 8.22153 11.3867 8.46663C11.3608 8.58297 11.2949 8.68652 11.2005 8.75923C11.1061 8.83194 10.9891 8.86918 10.8701 8.86444Z" fill="#2F2F3D" />
        <path fill-rule="evenodd" clip-rule="evenodd" d="M6.54347 2.84771V2.30906C6.54429 2.16609 6.60145 2.02922 6.70255 1.92812C6.80364 1.82703 6.94051 1.76987 7.08348 1.76904C7.22644 1.76987 7.36332 1.82703 7.46441 1.92812C7.56551 2.02922 7.62267 2.16609 7.62349 2.30906V2.84771H12.2969V2.30906C12.2978 2.16609 12.3549 2.02922 12.456 1.92812C12.5571 1.82703 12.694 1.76987 12.8369 1.76904C12.9799 1.76987 13.1168 1.82703 13.2179 1.92812C13.319 2.02922 13.3761 2.16609 13.377 2.30906V2.84771H13.5139C16.4727 3.01331 17.6225 4.40115 17.6225 7.80998V12.2471C17.6225 15.3256 16.8098 17.2314 12.7682 17.2314H7.15208C3.11008 17.2314 2.29736 15.3256 2.29736 12.2475V7.81043C2.29736 4.40115 3.44804 3.01331 6.40372 2.84771H6.54347ZM7.08348 5.00552C6.94059 5.0047 6.80378 4.9476 6.7027 4.8466C6.60162 4.74561 6.54441 4.60885 6.54347 4.46596V3.92773H6.43252C4.41872 4.04294 3.37604 4.67565 3.37604 7.81133V12.2484C3.37604 12.5373 3.38182 12.8086 3.39591 13.0627C3.47752 13.0149 3.57093 12.9889 3.66708 12.9883H16.2521C16.3483 12.9889 16.4418 13.015 16.5235 13.0628C16.5376 12.8087 16.5434 12.5374 16.5434 12.2484V7.81133C16.5434 4.68285 15.5083 4.04294 13.4725 3.92773H13.377V4.46596C13.376 4.60885 13.3188 4.74561 13.2177 4.8466C13.1166 4.9476 12.9798 5.0047 12.8369 5.00552C12.6941 5.0047 12.5572 4.9476 12.4562 4.8466C12.3551 4.74561 12.2979 4.60885 12.2969 4.46596V3.92773H7.62349V4.46596C7.62255 4.60885 7.56534 4.74561 7.46425 4.8466C7.36317 4.9476 7.22637 5.0047 7.08348 5.00552ZM7.15163 16.1536C4.72737 16.1536 3.81907 15.5136 3.51395 14.0454C3.56321 14.0602 3.61474 14.0681 3.66708 14.0684H16.2521C16.3046 14.0681 16.3562 14.0602 16.4055 14.0453C16.1006 15.5135 15.1924 16.1536 12.7678 16.1536H7.15163Z" fill="#2F2F3D" />
    </g>
    <defs>
        <clipPath id="clip0_456_16298">
            <rect width="18" height="18" fill="white" transform="translate(0.959473 0.5)" />
        </clipPath>
    </defs>
</svg>
    