<svg width="18" height="18" viewBox="0 0 18 18" fill="none" xmlns="http://www.w3.org/2000/svg">
    <path d="M6.87685 11.6847C6.80297 11.6849 6.72978 11.6704 6.66156 11.6421C6.59334 11.6137 6.53145 11.5721 6.47951 11.5195C6.375 11.4136 6.31641 11.2708 6.31641 11.122C6.31641 10.9732 6.375 10.8303 6.47951 10.7244L10.7261 6.48011C10.8315 6.37467 10.9745 6.31543 11.1236 6.31543C11.2727 6.31543 11.4157 6.37467 11.5212 6.48011C11.6266 6.58555 11.6859 6.72856 11.6859 6.87767C11.6859 7.02679 11.6266 7.1698 11.5212 7.27524L7.27419 11.52C7.22263 11.573 7.1608 11.6149 7.09249 11.6433C7.02417 11.6716 6.9508 11.6857 6.87685 11.6847Z" fill="#C6C2DE" />
    <path d="M11.1231 11.6846C11.0492 11.6848 10.976 11.6703 10.9078 11.642C10.8395 11.6136 10.7777 11.572 10.7257 11.5194L6.48097 7.27468C6.37905 7.16859 6.32278 7.02677 6.32425 6.87966C6.32572 6.73255 6.38481 6.59189 6.48884 6.48786C6.59286 6.38383 6.73353 6.32474 6.88064 6.32327C7.02775 6.3218 7.16957 6.37807 7.27565 6.48L11.5208 10.7265C11.6254 10.8325 11.6839 10.9753 11.6839 11.1241C11.6839 11.2729 11.6254 11.4157 11.5208 11.5217C11.4687 11.5739 11.4066 11.6151 11.3383 11.6431C11.27 11.6711 11.1969 11.6852 11.1231 11.6846Z" fill="#C6C2DE" />
    <path d="M11.2499 17.0624H6.75C2.67761 17.0624 0.9375 15.3223 0.9375 11.2499V6.75C0.9375 2.67761 2.67761 0.9375 6.75 0.9375H11.2499C15.3223 0.9375 17.0624 2.67761 17.0624 6.75V11.2499C17.0624 15.3223 15.3223 17.0624 11.2499 17.0624ZM6.75 2.06247C3.29229 2.06247 2.06247 3.29229 2.06247 6.75V11.2499C2.06247 14.7076 3.29229 15.9374 6.75 15.9374H11.2499C14.7076 15.9374 15.9374 14.7076 15.9374 11.2499V6.75C15.9374 3.29229 14.7072 2.06247 11.2499 2.06247H6.75Z" fill="#C6C2DE" />
</svg>
    