<svg width="24" height="24" viewBox="0 0 24 24" fill="none" xmlns="http://www.w3.org/2000/svg">
    <g clip-path="url(#clip0_32101_885)">
        <path d="M16.6593 19.4388C16.6239 19.3296 16.6647 19.2389 16.7601 19.0583C16.8753 18.8411 16.9902 18.5975 17.1006 18.3341C17.1228 18.2801 17.1452 18.2231 17.1674 18.1643C17.2232 18.0269 17.2792 17.8799 17.3338 17.7269C17.5323 17.126 17.6426 16.4994 17.6613 15.8668V15.8585C17.6739 15.5584 17.6763 15.0892 17.6613 14.5846C17.6681 14.3813 17.6268 14.1793 17.5412 13.9948C17.4795 13.8015 17.3524 13.6357 17.1814 13.5262C16.8876 13.3369 16.5571 13.2115 16.2117 13.1584C15.9483 13.1098 15.9494 13.1385 15.815 13.0671C15.7776 13.0489 15.7453 13.0217 15.7212 12.9879C15.6971 12.954 15.6822 12.9146 15.6773 12.8733C15.6755 12.8353 15.6832 12.7974 15.7001 12.7633C15.717 12.7292 15.7426 12.7 15.774 12.6783C15.8736 12.6274 15.9864 12.6078 16.0974 12.6219C17.4846 12.6111 17.5901 12.5823 18.6527 12.5842C19.8108 12.5842 20.3104 12.6334 20.3104 12.6334C20.6689 12.6924 20.9936 12.8806 21.2227 13.1625C21.3486 13.3327 21.4367 13.5277 21.4817 13.7345C21.5267 13.9414 21.5273 14.1554 21.4835 14.3625V14.3693C21.4607 14.872 21.3661 15.3689 21.2022 15.8447C20.8068 16.9433 20.081 17.8925 19.1244 18.562C18.81 18.7828 18.4742 18.9711 18.1219 19.1243L17.6654 19.3043L17.189 19.4369L16.9019 19.4933C16.9019 19.4933 16.6947 19.5461 16.6617 19.4369L16.6593 19.4388ZM18.985 14.7706V14.7772V14.7886C18.9629 15.5892 18.8681 16.3862 18.7014 17.1695C18.6666 17.3231 18.6285 17.4778 18.5883 17.6291C19.1974 17.2 19.6725 16.6072 19.9582 15.9191C20.0842 15.5945 20.1572 15.2516 20.1739 14.9038V14.899C20.2075 14.7549 20.2066 14.605 20.1715 14.4612C20.1365 14.3175 20.0684 14.184 19.9723 14.0716C19.7872 13.8724 19.5381 13.7437 19.2686 13.7074L18.9727 13.6929C19.0011 14.0514 19.005 14.4115 18.985 14.7706ZM13.8087 9.39027C13.7547 9.25047 13.8208 9.16401 13.9018 9.06141C14.001 8.93512 14.092 8.80272 14.1743 8.66486C14.332 8.4011 14.4623 8.12211 14.564 7.83208C14.7677 7.25253 14.8725 6.64269 14.8734 6.02837C14.8675 5.22786 14.6792 4.43922 14.3226 3.7225C14.2865 3.67368 14.2629 3.61674 14.254 3.55668C14.2451 3.49662 14.2512 3.4353 14.2716 3.37811C14.3232 3.23771 14.3788 3.21308 14.5288 3.16028C14.7816 3.07342 15.0431 3.01467 15.3087 2.98508C15.3087 2.98508 15.3086 2.98508 15.3128 2.98508C15.317 2.98508 15.3127 2.98508 15.3169 2.98508C15.448 2.9707 15.58 2.96356 15.7119 2.96355C16.1749 2.96213 16.634 3.05256 17.0619 3.22972C17.4897 3.40687 17.878 3.6672 18.2045 3.99556C18.5327 4.3222 18.7926 4.71064 18.9697 5.13846C19.1469 5.56627 19.2376 6.02501 19.2364 6.48805C19.2376 6.95092 19.1469 7.40943 18.9697 7.83706C18.7926 8.26469 18.5327 8.65285 18.2045 8.97923C17.995 9.18892 17.7601 9.37171 17.5055 9.52343C16.9646 9.83944 16.3494 10.0052 15.723 10.0035C15.165 10.0041 14.6144 9.87204 14.1175 9.61821C13.9603 9.54081 13.8627 9.53068 13.8087 9.39027ZM15.6878 4.0502C15.8564 4.70644 15.9404 5.38145 15.938 6.05899C15.9388 6.55892 15.8937 7.05778 15.8027 7.54936C15.718 8.01443 15.5864 8.46984 15.4101 8.90847C15.5096 8.92059 15.6098 8.92662 15.7101 8.92649C16.3567 8.92586 16.9767 8.66877 17.434 8.21163C17.8912 7.75448 18.1486 7.13463 18.1494 6.48805C18.1486 5.84147 17.8912 5.22162 17.434 4.76447C16.9767 4.30733 16.3567 4.0501 15.7101 4.04946L15.6878 4.0502Z" fill="#6E7191" />
        <path d="M10.0209 22.3716H9.759C8.30297 22.3735 6.88187 21.9246 5.69132 21.0864C4.49775 20.2519 3.59257 19.0678 3.09965 17.6974C2.89481 17.1041 2.77661 16.4843 2.74867 15.8572V15.8476C2.69318 15.589 2.69312 15.3216 2.74867 15.063C2.80421 14.8044 2.91357 14.5605 3.07035 14.3475C3.35713 13.9958 3.76282 13.7612 4.21062 13.6876L5.19209 13.6347H14.5943L15.5757 13.6876C16.0237 13.7606 16.429 13.9954 16.7154 14.3475C16.8724 14.5605 16.9828 14.8043 17.0389 15.0628C17.0949 15.3214 17.0953 15.5887 17.0406 15.8476V15.8561C17.0121 16.483 16.8941 17.1027 16.6902 17.6963C16.1968 19.0667 15.2918 20.251 14.0986 21.0864C12.9051 21.926 11.4801 22.3749 10.0209 22.3716ZM6.26262 14.9974L5.50498 15.0334C5.16916 15.0802 4.85959 15.2408 4.62781 15.4882C4.50834 15.6289 4.42369 15.7957 4.38054 15.9752C4.33739 16.1546 4.33692 16.3418 4.37937 16.5214V16.5263C4.40076 16.9602 4.49204 17.388 4.64949 17.7929C5.09548 18.7746 5.82037 19.6031 6.73431 20.1751C7.64825 20.7472 8.71044 21.0374 9.78829 21.0095H9.99221C11.07 21.0378 12.1323 20.7478 13.0462 20.1757C13.96 19.6036 14.6851 18.7748 15.1304 17.7929C15.2876 17.3879 15.3787 16.9602 15.4 16.5263V16.5202C15.442 16.3406 15.4407 16.1536 15.397 15.9743C15.3534 15.795 15.2685 15.6285 15.1486 15.4882C14.9176 15.2397 14.607 15.079 14.2708 15.0334L13.5138 14.9974H6.26262ZM9.83283 10.4199C9.25539 10.4214 8.68339 10.3084 8.14997 10.0872C7.61655 9.86609 7.1325 9.54133 6.72552 9.13168C6.31602 8.72464 5.99086 8.24035 5.76983 7.70694C5.54881 7.17353 5.43601 6.60162 5.4376 6.02423C5.43604 5.44658 5.5494 4.87435 5.77042 4.34065C5.99144 3.80695 6.31602 3.3223 6.72552 2.91488C7.13245 2.50521 7.61653 2.18052 8.14997 1.95948C8.68341 1.73844 9.25541 1.62546 9.83283 1.62725C10.4106 1.62551 10.983 1.73846 11.5169 1.95948C12.0507 2.18051 12.535 2.50522 12.9425 2.91488C13.3518 3.32241 13.6767 3.80711 13.8976 4.34079C14.1185 4.87448 14.2314 5.44664 14.2298 6.02423C14.2314 6.60157 14.1185 7.1734 13.8976 7.7068C13.6767 8.2402 13.3518 8.72455 12.9425 9.13168C12.535 9.54132 12.0507 9.8661 11.5169 10.0872C10.9831 10.3083 10.4106 10.4214 9.83283 10.4199ZM9.83283 2.97977C9.02668 2.98104 8.25406 3.30188 7.68414 3.87203C7.11422 4.44218 6.79327 5.21501 6.79232 6.02116C6.79312 6.82741 7.11362 7.60045 7.68355 8.17072C8.25349 8.741 9.02657 9.062 9.83283 9.06327C10.6394 9.06232 11.4129 8.74159 11.9833 8.17131C12.5537 7.60103 12.8746 6.82773 12.8757 6.02116C12.8741 5.21495 12.5525 4.44226 11.9821 3.87247C11.4117 3.30268 10.639 2.98232 9.83283 2.98153V2.97977Z" fill="#6E7191" />
    </g>
    <defs>
        <clipPath id="clip0_32101_885">
            <rect width="24" height="24" fill="white" />
        </clipPath>
    </defs>
</svg>