<svg width="24" height="24" viewBox="0 0 24 24" fill="none" xmlns="http://www.w3.org/2000/svg">
    <g clip-path="url(#clip0_796_43113)">
        <path d="M7.1972 10.7972H5.27715C2.95329 10.7972 1.67706 9.5198 1.67706 7.19714V5.27709C1.67706 2.95443 2.95449 1.677 5.27715 1.677H7.1972C9.52106 1.677 10.7973 2.95443 10.7973 5.27709V7.19714C10.7973 9.5222 9.52226 10.7972 7.1972 10.7972Z" fill="#9496B3" />
        <path d="M18.7205 10.7972H16.8004C14.4766 10.7972 13.2004 9.5198 13.2004 7.19714V5.27709C13.2004 2.95443 14.4778 1.677 16.8004 1.677H18.7205C21.0443 1.677 22.3206 2.95443 22.3206 5.27709V7.19714C22.3206 9.5222 21.0455 10.7972 18.7205 10.7972Z" fill="#9496B3" />
        <path d="M18.7205 22.3205H16.8004C14.4766 22.3205 13.2004 21.0431 13.2004 18.7204V16.8004C13.2004 14.4777 14.4778 13.2003 16.8004 13.2003H18.7205C21.0443 13.2003 22.3206 14.4777 22.3206 16.8004V18.7204C22.3206 21.0455 21.0455 22.3205 18.7205 22.3205Z" fill="#9496B3" />
        <path d="M7.1972 22.3205H5.27715C2.95329 22.3205 1.67706 21.0431 1.67706 18.7204V16.8004C1.67706 14.4777 2.95449 13.2003 5.27715 13.2003H7.1972C9.52106 13.2003 10.7973 14.4777 10.7973 16.8004V18.7204C10.7973 21.0455 9.52226 22.3205 7.1972 22.3205Z" fill="#9496B3" />
    </g>
    <defs>
        <clipPath id="clip0_796_43113">
            <rect width="24" height="24" fill="white" />
        </clipPath>
    </defs>
</svg>
    