<svg width="24" height="24" viewBox="0 0 24 24" fill="none" xmlns="http://www.w3.org/2000/svg">
    <path d="M9.17056 15.5799C9.07206 15.5802 8.97448 15.5609 8.88351 15.5231C8.79255 15.4853 8.71003 15.4297 8.64078 15.3597C8.50143 15.2184 8.42331 15.028 8.42331 14.8296C8.42331 14.6312 8.50143 14.4407 8.64078 14.2995L10.941 12.0005L8.64044 9.69992C8.50454 9.55847 8.42951 9.36938 8.43147 9.17323C8.43343 8.97709 8.51222 8.78953 8.65093 8.65083C8.78963 8.51213 8.97718 8.43334 9.17333 8.43138C9.36947 8.42942 9.55857 8.50444 9.70002 8.64034L12.0005 10.9416L14.3028 8.64043C14.4434 8.49985 14.6341 8.42087 14.8329 8.42087C15.0317 8.42087 15.2224 8.49985 15.363 8.64043C15.5036 8.78102 15.5826 8.9717 15.5826 9.17052C15.5826 9.36934 15.5036 9.56002 15.363 9.70061L13.0605 12.0019L15.3603 14.3024C15.4996 14.4436 15.5777 14.6341 15.5777 14.8325C15.5777 15.0309 15.4996 15.2213 15.3603 15.3626C15.2907 15.4322 15.208 15.4872 15.1169 15.5245C15.0259 15.5618 14.9283 15.5806 14.8299 15.5798C14.7314 15.5801 14.6338 15.5608 14.5428 15.523C14.4519 15.4852 14.3694 15.4296 14.3001 15.3596L12.0012 13.0607L9.70035 15.3603C9.63161 15.431 9.54917 15.4869 9.45808 15.5246C9.36699 15.5624 9.26916 15.5812 9.17056 15.5799Z" fill="#9496B3" />
    <path fill-rule="evenodd" clip-rule="evenodd" d="M8.99927 22.7496H14.9991C20.429 22.7496 22.7491 20.4295 22.7491 14.9996V8.99976C22.7491 3.5699 20.429 1.24976 14.9991 1.24976H8.99927C3.56941 1.24976 1.24927 3.5699 1.24927 8.99976V14.9996C1.24927 20.4295 3.56941 22.7496 8.99927 22.7496ZM2.74923 8.99976C2.74923 4.38948 4.38899 2.74972 8.99927 2.74972H14.9991C19.6088 2.74972 21.2492 4.38948 21.2492 8.99976V14.9996C21.2492 19.6099 19.6094 21.2497 14.9991 21.2497H8.99927C4.38899 21.2497 2.74923 19.6099 2.74923 14.9996V8.99976Z" fill="#9496B3" />
</svg>
    