<svg width="14" height="9" viewBox="0 0 14 9" fill="none" xmlns="http://www.w3.org/2000/svg">
    <path d="M7.78595 0.4649C8.50637 0.880715 8.90464 1.71827 8.90463 2.81935L8.90463 3.85741L12.4283 3.85741C12.4489 3.85498 12.4697 3.85376 12.4904 3.85376C12.5588 3.85361 12.6266 3.86695 12.6899 3.89302C12.7531 3.9191 12.8106 3.9574 12.859 4.00572C12.9074 4.05405 12.9458 4.11145 12.9721 4.17465C12.9983 4.23785 13.0117 4.30559 13.0117 4.374C13.0117 4.66217 12.7778 4.90263 12.4897 4.90263C12.4754 4.90263 12.4613 4.90207 12.4474 4.90094L8.90463 4.90094L8.90463 5.94696C8.90463 7.04803 8.50637 7.8856 7.78594 8.30141C7.05968 8.71731 6.14012 8.64116 5.18549 8.09057L2.47372 6.52676C1.51903 5.97625 0.991956 5.21485 0.991956 4.38322C0.991956 3.55158 1.51906 2.79009 2.47372 2.23367L5.18549 0.669924C5.73012 0.353643 6.26902 0.195491 6.76102 0.195491C7.12999 0.195457 7.47548 0.283306 7.78595 0.4649ZM7.239 7.39815C7.65862 7.15762 7.88791 6.61501 7.88791 5.87659L7.88791 2.88937C7.88791 2.15103 7.65862 1.60836 7.239 1.36781C6.81939 1.12727 6.23767 1.20003 5.59433 1.56924L3.00429 3.06283C2.36109 3.43196 2.0086 3.9019 2.0086 4.38296C2.0086 4.86402 2.36112 5.33395 3.00429 5.70316L5.59432 7.19675C5.9859 7.42615 6.35504 7.53799 6.67964 7.53799C6.87511 7.5409 7.06794 7.4927 7.23905 7.39816L7.239 7.39815Z" fill="#9496B3" />
</svg>
    