<svg width="24" height="24" viewBox="0 0 24 24" fill="none" xmlns="http://www.w3.org/2000/svg">
    <path d="M9.17109 15.5798C9.07258 15.5802 8.975 15.5608 8.88404 15.523C8.79307 15.4852 8.71056 15.4297 8.6413 15.3596C8.50195 15.2184 8.42383 15.028 8.42383 14.8296C8.42383 14.6311 8.50195 14.4407 8.6413 14.2995L14.3034 8.64041C14.4439 8.49982 14.6346 8.42084 14.8334 8.42084C15.0323 8.42084 15.2229 8.49982 15.3635 8.64041C15.5041 8.78099 15.5831 8.97167 15.5831 9.17049C15.5831 9.36931 15.5041 9.55999 15.3635 9.70058L9.70087 15.3602C9.63213 15.4309 9.54969 15.4869 9.4586 15.5246C9.36751 15.5624 9.26968 15.5812 9.17109 15.5798Z" fill="#C6C2DE" />
    <path d="M14.8301 15.5798C14.7316 15.5802 14.634 15.5608 14.543 15.523C14.4521 15.4852 14.3696 15.4297 14.3003 15.3596L8.64065 9.69998C8.50474 9.55853 8.42972 9.36943 8.43168 9.17329C8.43364 8.97714 8.51243 8.78959 8.65113 8.65089C8.78983 8.51218 8.97739 8.43339 9.17353 8.43143C9.36968 8.42947 9.55877 8.5045 9.70022 8.6404L15.3605 14.3025C15.4998 14.4437 15.5779 14.6341 15.5779 14.8325C15.5779 15.031 15.4998 15.2214 15.3605 15.3626C15.2909 15.4322 15.2082 15.4873 15.1171 15.5245C15.0261 15.5618 14.9285 15.5806 14.8301 15.5798Z" fill="#C6C2DE" />
    <path d="M14.9999 22.7496H9.00001C3.57014 22.7496 1.25 20.4295 1.25 14.9996V8.99976C1.25 3.5699 3.57014 1.24976 9.00001 1.24976H14.9999C20.4297 1.24976 22.7499 3.5699 22.7499 8.99976V14.9996C22.7499 20.4295 20.4297 22.7496 14.9999 22.7496ZM9.00001 2.74972C4.38972 2.74972 2.74996 4.38948 2.74996 8.99976V14.9996C2.74996 19.6099 4.38972 21.2497 9.00001 21.2497H14.9999C19.6101 21.2497 21.2499 19.6099 21.2499 14.9996V8.99976C21.2499 4.38948 19.6095 2.74972 14.9999 2.74972H9.00001Z" fill="#C6C2DE" />
</svg>