<svg width="26" height="26" viewBox="0 0 26 26" fill="none" xmlns="http://www.w3.org/2000/svg">
<path d="M9.93453 16.8786C9.82781 16.879 9.7221 16.8581 9.62356 16.8171C9.52502 16.7761 9.43562 16.716 9.36059 16.6401C9.20964 16.4871 9.125 16.2808 9.125 16.0658C9.125 15.8509 9.20964 15.6446 9.36059 15.4916L15.4945 9.36091C15.6468 9.20861 15.8534 9.12305 16.0688 9.12305C16.2841 9.12305 16.4907 9.20861 16.643 9.36091C16.7953 9.51322 16.8809 9.71978 16.8809 9.93517C16.8809 10.1506 16.7953 10.3571 16.643 10.5094L10.5085 16.6407C10.434 16.7173 10.3447 16.7779 10.246 16.8188C10.1473 16.8597 10.0413 16.8801 9.93453 16.8786Z" fill="#C6C2DE"/>
<path d="M16.0645 16.8779C15.9578 16.8783 15.852 16.8574 15.7535 16.8164C15.655 16.7754 15.5656 16.7153 15.4905 16.6394L9.35923 10.5081C9.21201 10.3548 9.13073 10.15 9.13285 9.93751C9.13498 9.72502 9.22033 9.52183 9.37059 9.37157C9.52085 9.22131 9.72404 9.13595 9.93653 9.13383C10.149 9.13171 10.3539 9.21298 10.5071 9.36021L16.6391 15.4941C16.79 15.6471 16.8746 15.8534 16.8746 16.0684C16.8746 16.2833 16.79 16.4896 16.6391 16.6426C16.5637 16.718 16.4741 16.7776 16.3754 16.818C16.2768 16.8584 16.1711 16.8788 16.0645 16.8779Z" fill="#C6C2DE"/>
<path d="M16.2472 24.645H9.7474C3.86505 24.645 1.35156 22.1315 1.35156 16.2492V9.74936C1.35156 3.867 3.86505 1.35352 9.7474 1.35352H16.2472C22.1296 1.35352 24.6431 3.867 24.6431 9.74936V16.2492C24.6431 22.1315 22.1296 24.645 16.2472 24.645ZM9.7474 2.97848C4.75293 2.97848 2.97652 4.75488 2.97652 9.74936V16.2492C2.97652 21.2437 4.75293 23.0201 9.7474 23.0201H16.2472C21.2417 23.0201 23.0181 21.2437 23.0181 16.2492V9.74936C23.0181 4.75488 21.2411 2.97848 16.2472 2.97848H9.7474Z" fill="#C6C2DE"/>
</svg>
