<svg width="40" height="41" viewBox="0 0 40 41" fill="none" xmlns="http://www.w3.org/2000/svg">
    <g clip-path="url(#clip0_2893_8170)">
        <path d="M9.56584 27.5636C8.71283 27.5625 7.50575 27.3322 6.7162 27.0267C6.33255 26.8782 5.96297 26.6957 5.61191 26.4812C5.26339 26.268 4.93438 26.0243 4.62876 25.753C4.32312 25.4817 4.04215 25.1838 3.78915 24.8628C3.53468 24.5396 3.30969 24.1943 3.11681 23.831C2.71956 23.0821 2.46482 22.2659 2.36563 21.424C2.16636 19.7503 2.58867 18.0616 3.55233 16.6787C4.51599 15.2958 5.95395 14.3149 7.59313 13.9223C7.76305 12.6091 8.14909 11.3332 8.73559 10.1461C9.30735 8.98839 10.0619 7.93042 10.9703 7.01281C11.8777 6.09424 12.9273 5.32796 14.0787 4.74346C15.2592 4.14378 16.5308 3.7435 17.842 3.55883C18.4023 3.4796 18.9674 3.43971 19.5333 3.43945C20.7014 3.43941 21.8632 3.60998 22.9821 3.94577C24.0849 4.27668 25.1346 4.76386 26.0993 5.39247C27.0682 6.02342 27.941 6.79083 28.6908 7.67098C29.4595 8.57384 30.0905 9.58542 30.5632 10.6729C31.4644 10.9448 32.3147 11.3632 33.0799 11.9115C33.8262 12.4459 34.4821 13.0967 35.0224 13.8388C35.5635 14.5805 35.982 15.4042 36.2621 16.2784C36.5494 17.1748 36.6872 18.1123 36.6699 19.0534C36.654 19.9945 36.4832 20.9266 36.1644 21.8122C35.8534 22.676 35.406 23.4843 34.8391 24.2064C34.273 24.9291 33.5946 25.5563 32.8298 26.064C32.102 26.5473 31.3047 26.9166 30.4653 27.1589C30.4081 27.1796 30.3493 27.196 30.2896 27.2077L30.2709 27.2126C30.2683 27.2132 30.2657 27.2132 30.2631 27.2126C30.1944 27.2245 30.1249 27.2305 30.0552 27.2304C29.7356 27.2304 29.4292 27.1035 29.2032 26.8776C28.9773 26.6516 28.8503 26.3452 28.8503 26.0256C28.8503 25.8064 28.91 25.5913 29.0232 25.4035C29.1363 25.2157 29.2986 25.0624 29.4924 24.96C29.4985 24.9513 29.507 24.9445 29.5168 24.9407C29.5473 24.9294 29.5774 24.9181 29.6076 24.9065C29.6166 24.9029 29.6257 24.8994 29.6347 24.896C32.3244 23.8518 34.1943 21.4369 34.2468 18.6097C34.3003 15.715 32.4858 13.654 28.9996 12.6495C27.1721 8.64881 23.1448 5.85469 19.2059 5.85469C18.8277 5.8547 18.4499 5.87992 18.075 5.93021C13.4368 6.55531 9.92174 11.66 9.32473 16.031C7.62811 16.4181 6.54963 16.8639 5.8277 17.4768C4.95816 18.215 4.61611 19.2202 4.78256 20.55C5.1122 23.1865 7.00215 24.9334 9.69343 25.1584C10.0088 25.1647 10.3091 25.2943 10.5299 25.5195C10.7507 25.7447 10.8744 26.0475 10.8744 26.3629C10.8744 26.6825 10.7475 26.9889 10.5216 27.2149C10.2956 27.4408 9.98915 27.5677 9.66961 27.5677C9.63438 27.5679 9.59986 27.5666 9.56584 27.5636Z" fill="#4B4DED" />
        <path d="M16.3133 20.9914L13.9974 25.0078C13.5289 25.8145 13.2946 26.6126 13.2946 27.3413C13.2888 27.874 13.4267 28.3984 13.6937 28.8594C14.3096 29.9262 15.55 30.5161 17.1808 30.5161H18.2954V36.6956H18.2993C18.3235 36.9975 18.4606 37.2792 18.6831 37.4846C18.9057 37.69 19.1975 37.804 19.5004 37.804C19.8033 37.804 20.095 37.69 20.3176 37.4846C20.5402 37.2792 20.6773 36.9975 20.7015 36.6956H20.7053V30.5161H21.813C23.4438 30.5161 24.6843 29.9262 25.3002 28.8594C25.9161 27.7837 25.8034 26.4217 24.988 25.0078L22.6718 20.9914C21.8565 19.5774 20.7288 18.7969 19.4969 18.7969C18.2651 18.7969 17.1374 19.5774 16.3133 20.9914ZM16.0686 27.5498C15.7951 27.0462 15.8778 26.3479 16.2976 25.5757L17.9954 22.4673C18.415 21.6953 18.9491 21.2721 19.4962 21.2721C20.0433 21.2721 20.5773 21.6953 20.9971 22.4673L22.6949 25.5757C22.9555 26.0456 23.0829 26.4889 23.0829 26.8783C23.0864 27.1119 23.0317 27.3427 22.9238 27.5499C22.6505 28.0533 22.0336 28.3287 21.1943 28.3287H17.7983C16.9588 28.3287 16.3419 28.0532 16.0686 27.5498Z" fill="#4B4DED" />
    </g>
    <defs>
        <clipPath id="clip0_2893_8170">
            <rect width="40" height="40" fill="white" transform="translate(0 0.5)" />
        </clipPath>
    </defs>
</svg>
    