<svg width="20" height="20" viewBox="0 0 9 8" fill="none" xmlns="http://www.w3.org/2000/svg">
    <g clip-path="url(#clip0_519_11743)">
        <path d="M4.32314 5.51039C4.29984 5.48725 4.28139 5.4597 4.26887 5.42935C4.25634 5.399 4.24998 5.36645 4.25017 5.33362V4.25232L3.16839 4.26333C3.13553 4.26413 3.10285 4.25823 3.07235 4.24597C3.04185 4.23372 3.01417 4.21538 2.991 4.19207C2.96747 4.16917 2.94873 4.14181 2.93589 4.11159C2.92304 4.08138 2.91634 4.0489 2.91619 4.01607C2.91595 3.94993 2.94175 3.88636 2.98803 3.83911C3.0343 3.79185 3.09732 3.76472 3.16345 3.76359L4.25017 3.75253V2.66563C4.25147 2.60026 4.27836 2.538 4.32505 2.49223C4.37175 2.44646 4.43453 2.42083 4.49991 2.42083C4.5653 2.42083 4.62807 2.44646 4.67477 2.49223C4.72146 2.538 4.74835 2.60026 4.74965 2.66563L4.74948 3.74745L5.83173 3.73643C5.898 3.73574 5.96183 3.7614 6.00918 3.80777C6.05653 3.85414 6.08351 3.91742 6.08421 3.98369C6.0849 4.04996 6.05924 4.11379 6.01287 4.16114C5.9665 4.20849 5.90321 4.23548 5.83694 4.23618L4.7494 4.24724L4.74923 5.33433C4.74878 5.40046 4.72231 5.46376 4.67555 5.51053C4.62878 5.55729 4.56548 5.58376 4.49934 5.58421C4.46655 5.58421 4.43407 5.57768 4.40382 5.56501C4.37357 5.55234 4.34614 5.53377 4.32314 5.51039Z" fill="#2F2F3D" />
        <path fill-rule="evenodd" clip-rule="evenodd" d="M3.49935 7.58325H5.4993C7.30926 7.58325 8.08264 6.80987 8.08264 4.99991V2.99996C8.08264 1.19001 7.30926 0.416626 5.4993 0.416626H3.49935C1.6894 0.416626 0.916016 1.19001 0.916016 2.99996V4.99991C0.916016 6.80987 1.6894 7.58325 3.49935 7.58325ZM1.416 2.99996C1.416 1.4632 1.96259 0.916613 3.49935 0.916613H5.4993C7.03586 0.916613 7.58265 1.4632 7.58265 2.99996V4.99991C7.58265 6.53667 7.03606 7.08326 5.4993 7.08326H3.49935C1.96259 7.08326 1.416 6.53667 1.416 4.99991V2.99996Z" fill="#2F2F3D" />
    </g>
    <defs>
        <clipPath id="clip0_519_11743">
            <rect width="8" height="8" fill="white" transform="translate(0.5)" />
        </clipPath>
    </defs>
</svg>