<svg width="18" height="18" viewBox="0 0 18 18" fill="none" xmlns="http://www.w3.org/2000/svg">
<path d="M3.51677 14.3839C3.39816 14.3517 3.29097 14.2864 3.20831 14.1954C3.12656 14.1037 3.07283 13.9905 3.0532 13.8692C3.03187 13.7365 3.03859 13.6008 3.07298 13.4709C3.11123 13.3219 3.173 13.18 3.25577 13.0503C3.3475 12.9042 3.4594 12.7717 3.58795 12.6566C3.71406 12.5004 3.79374 12.3119 3.8182 12.1127C3.80325 12.0067 3.79846 11.8995 3.80414 11.7927C3.80962 11.6857 3.82566 11.5795 3.85159 11.4755C3.87767 11.371 3.91335 11.2691 3.9588 11.1714C4.05348 10.9692 4.18779 10.7882 4.35382 10.639L8.9886 6.46716L8.71837 6.16936C8.56811 6.00372 8.45302 5.80931 8.38003 5.59792C8.34521 5.49554 8.3202 5.38999 8.30533 5.28287C8.29032 5.17679 8.28554 5.06954 8.29127 4.96255C8.29652 4.85626 8.31255 4.75077 8.33873 4.64761C8.36436 4.54281 8.40035 4.44079 8.44594 4.343C8.54074 4.14085 8.6752 3.95978 8.8414 3.81067L9.14722 3.53484C9.31312 3.38514 9.50768 3.27038 9.71888 3.19738C9.82116 3.16213 9.9263 3.13697 10.0335 3.12224C10.1394 3.10745 10.2465 3.10278 10.3534 3.10829C10.4596 3.11418 10.5652 3.13024 10.6684 3.15608C10.773 3.18208 10.8748 3.2181 10.9725 3.26362C11.175 3.3582 11.3566 3.49269 11.5059 3.65908L11.7757 3.95688L12.2516 3.52902C12.4173 3.37937 12.6113 3.26461 12.8223 3.19156C12.9247 3.15653 13.0302 3.13137 13.1374 3.11642C13.2437 3.10184 13.351 3.09731 13.4582 3.10291C13.5643 3.1079 13.6699 3.12301 13.7732 3.14795C13.8779 3.1742 13.9798 3.21035 14.0777 3.25593C14.2801 3.35051 14.4611 3.485 14.6103 3.65139L14.8858 3.95743C15.0357 4.12314 15.1505 4.31743 15.2232 4.52876C15.2585 4.63108 15.2838 4.73664 15.2988 4.84381C15.3134 4.94978 15.318 5.05686 15.3124 5.16369C15.3073 5.26985 15.2924 5.37528 15.2676 5.47863C15.2416 5.58337 15.2055 5.68538 15.1599 5.78324C15.0651 5.98527 14.9308 6.1663 14.7649 6.31557L14.2886 6.74343L14.5588 7.04178C14.7087 7.20724 14.8235 7.40123 14.8963 7.61223C14.9315 7.71453 14.9567 7.8201 14.9714 7.92728C14.9862 8.03339 14.9907 8.1406 14.9855 8.2476C14.9796 8.35383 14.964 8.45925 14.9385 8.56254C14.9125 8.66735 14.8762 8.76937 14.8304 8.86715C14.7357 9.06927 14.6014 9.25033 14.4354 9.39949L14.1291 9.67532C13.9633 9.82496 13.7689 9.93972 13.5579 10.0128C13.4556 10.048 13.3505 10.0732 13.2433 10.0879C13.1373 10.1028 13.0298 10.1075 12.923 10.1019C12.816 10.0961 12.7101 10.0801 12.6062 10.0541C12.5015 10.0282 12.3992 9.99203 12.3017 9.9461C12.0993 9.85165 11.9183 9.71731 11.7691 9.55108L11.4993 9.25317L6.86454 13.4251C6.69903 13.5749 6.50516 13.6897 6.29421 13.7626C6.19189 13.7977 6.08632 13.8229 5.97916 13.8377C5.87322 13.8527 5.76611 13.8574 5.65928 13.8517C5.55233 13.8471 5.44605 13.8319 5.34203 13.8066C5.14144 13.8101 4.94588 13.8697 4.7774 13.9786C4.64943 14.0946 4.50574 14.1921 4.35075 14.2683C4.21316 14.337 4.06568 14.3833 3.91355 14.4055C3.86271 14.4126 3.81153 14.4162 3.7602 14.4163C3.67794 14.4169 3.596 14.406 3.51677 14.3839ZM5.23306 11.3072C5.05983 11.4634 4.55822 12.0663 5.02347 12.5828C5.48871 13.0994 6.11922 12.64 6.29245 12.4834L10.773 8.44918L9.7136 7.27258L5.23306 11.3072ZM12.4348 8.67459C12.5754 8.83033 12.7723 8.92397 12.9818 8.93493C13.1914 8.9459 13.3965 8.87335 13.5526 8.73314C13.7085 8.59253 13.8021 8.3958 13.8132 8.1862C13.8242 7.9766 13.7517 7.77119 13.6115 7.61498L13.5535 7.55061L13.1361 7.08671L13.1181 7.06738C13.0695 7.01355 13.0323 6.95057 13.0086 6.88206C12.9859 6.81586 12.9764 6.74589 12.9801 6.67599C12.9834 6.60617 13.0001 6.53769 13.0297 6.47441C13.0604 6.40875 13.1041 6.34997 13.158 6.30162L13.1721 6.28899L13.6168 5.88814L13.8831 5.64867C14.0389 5.50807 14.1326 5.31137 14.1436 5.10173C14.1546 4.8921 14.0818 4.68673 13.9415 4.53062C13.8008 4.37499 13.6039 4.28146 13.3944 4.2705C13.185 4.25954 12.9798 4.33197 12.8237 4.47207L12.5016 4.7623L12.1105 5.11414L12.1 5.12458C12.0461 5.17302 11.983 5.21016 11.9145 5.23388C11.8485 5.25669 11.7787 5.26646 11.7089 5.26266C11.639 5.25898 11.5703 5.24185 11.5068 5.21224C11.4412 5.18143 11.3826 5.13787 11.3341 5.08405L11.3258 5.07504L10.8995 4.60082L10.8411 4.53645C10.7005 4.38071 10.504 4.28707 10.2945 4.2761C10.085 4.26514 9.87979 4.33779 9.72371 4.47801C9.56783 4.61861 9.47411 4.81531 9.46315 5.02495C9.45218 5.23458 9.52492 5.43995 9.66527 5.59605L9.72371 5.66087L12.3781 8.61022L12.4348 8.67459Z" fill="#C6C2DE"/>
</svg>
