<svg width="24" height="24" viewBox="0 0 24 24" fill="none" xmlns="http://www.w3.org/2000/svg">
    <g clip-path="url(#clip0_811_40733)">
        <path d="M12.0036 20.993H2.33129C2.13957 20.993 1.9557 20.9168 1.82013 20.7813C1.68456 20.6457 1.6084 20.4618 1.6084 20.2701C1.6084 20.0784 1.68456 19.8945 1.82013 19.7589C1.9557 19.6234 2.13957 19.5472 2.33129 19.5472H3.02849V5.91347C3.02852 5.74703 3.08593 5.58569 3.19108 5.45666C3.29623 5.32764 3.44268 5.23883 3.6057 5.20522C3.63696 5.19195 3.66912 5.18087 3.70193 5.17208L11.7738 3.00919C11.9202 2.96971 12.0754 2.9775 12.2171 3.03142C12.3646 3.07711 12.4937 3.16881 12.5853 3.29311C12.6769 3.4174 12.7263 3.56777 12.7264 3.72219V5.403C12.7264 5.59472 12.6502 5.77859 12.5146 5.91416C12.3791 6.04973 12.1952 6.12589 12.0035 6.12589C11.8117 6.12589 11.6279 6.04973 11.4923 5.91416C11.3567 5.77859 11.2806 5.59472 11.2806 5.403V4.63809L4.47418 6.46177V19.547H11.2806V8.24101C11.2709 8.19342 11.2661 8.14499 11.2661 8.09643C11.2661 7.96589 11.3014 7.83777 11.3683 7.72569C11.4352 7.6136 11.5313 7.52174 11.6462 7.45986C11.755 7.39786 11.8782 7.36536 12.0034 7.36556C12.0396 7.36556 12.0757 7.36825 12.1115 7.3736H20.1476C20.1833 7.36825 20.2194 7.36556 20.2556 7.36556C20.3999 7.36554 20.5409 7.40871 20.6605 7.4895C20.78 7.57029 20.8727 7.68501 20.9265 7.8189C20.963 7.90687 20.9818 8.00122 20.9817 8.09649C20.9817 8.11986 20.9806 8.14299 20.9784 8.16589V18.1591C20.9784 18.3509 20.9022 18.5347 20.7667 18.6703C20.6311 18.8059 20.4472 18.882 20.2555 18.882C20.0638 18.882 19.8799 18.8059 19.7443 18.6703C19.6088 18.5347 19.5326 18.3509 19.5326 18.1591V8.81939H12.7265V19.5471H21.6759C21.8676 19.5471 22.0515 19.6233 22.187 19.7588C22.3226 19.8944 22.3988 20.0783 22.3988 20.27C22.3988 20.4617 22.3226 20.6456 22.187 20.7811C22.0515 20.9167 21.8676 20.9929 21.6759 20.9929L12.0036 20.993ZM15.3368 17.9673C15.1451 17.9673 14.9612 17.8912 14.8257 17.7556C14.6901 17.62 14.6139 17.4361 14.6139 17.2444C14.6139 17.0527 14.6901 16.8688 14.8257 16.7333C14.9612 16.5977 15.1451 16.5215 15.3368 16.5215H17.0175C17.2092 16.5215 17.3931 16.5977 17.5286 16.7333C17.6642 16.8688 17.7404 17.0527 17.7404 17.2444C17.7404 17.4361 17.6642 17.62 17.5286 17.7556C17.3931 17.8912 17.2092 17.9673 17.0175 17.9673H15.3368ZM7.08456 17.9673C6.89283 17.9673 6.70896 17.8912 6.57339 17.7556C6.43782 17.62 6.36167 17.4361 6.36167 17.2444C6.36167 17.0527 6.43782 16.8688 6.57339 16.7333C6.70896 16.5977 6.89283 16.5215 7.08456 16.5215H8.76536C8.95709 16.5215 9.14096 16.5977 9.27653 16.7333C9.4121 16.8688 9.48826 17.0527 9.48826 17.2444C9.48826 17.4361 9.4121 17.62 9.27653 17.7556C9.14096 17.8912 8.95709 17.9673 8.76536 17.9673H7.08456ZM15.3368 14.9023C15.1451 14.9023 14.9612 14.8261 14.8257 14.6905C14.6901 14.555 14.6139 14.3711 14.6139 14.1794C14.6139 13.9876 14.6901 13.8038 14.8257 13.6682C14.9612 13.5326 15.1451 13.4565 15.3368 13.4565H17.0175C17.2092 13.4565 17.3931 13.5326 17.5286 13.6682C17.6642 13.8038 17.7404 13.9876 17.7404 14.1794C17.7404 14.3711 17.6642 14.555 17.5286 14.6905C17.3931 14.8261 17.2092 14.9023 17.0175 14.9023H15.3368ZM7.08456 14.9023C6.89283 14.9023 6.70896 14.8261 6.57339 14.6905C6.43782 14.555 6.36167 14.3711 6.36167 14.1794C6.36167 13.9876 6.43782 13.8038 6.57339 13.6682C6.70896 13.5326 6.89283 13.4565 7.08456 13.4565H8.76536C8.95709 13.4565 9.14096 13.5326 9.27653 13.6682C9.4121 13.8038 9.48826 13.9876 9.48826 14.1794C9.48826 14.3711 9.4121 14.555 9.27653 14.6905C9.14096 14.8261 8.95709 14.9023 8.76536 14.9023H7.08456ZM15.3368 11.8766C15.1451 11.8766 14.9612 11.8004 14.8257 11.6648C14.6901 11.5293 14.6139 11.3454 14.6139 11.1537C14.6139 10.962 14.6901 10.7781 14.8257 10.6425C14.9612 10.507 15.1451 10.4308 15.3368 10.4308H17.0175C17.2092 10.4308 17.3931 10.507 17.5286 10.6425C17.6642 10.7781 17.7404 10.962 17.7404 11.1537C17.7404 11.3454 17.6642 11.5293 17.5286 11.6648C17.3931 11.8004 17.2092 11.8766 17.0175 11.8766H15.3368ZM7.08456 11.8766C6.89283 11.8766 6.70896 11.8004 6.57339 11.6648C6.43782 11.5293 6.36167 11.3454 6.36167 11.1537C6.36167 10.962 6.43782 10.7781 6.57339 10.6425C6.70896 10.507 6.89283 10.4308 7.08456 10.4308H8.76536C8.95709 10.4308 9.14096 10.507 9.27653 10.6425C9.4121 10.7781 9.48826 10.962 9.48826 11.1537C9.48826 11.3454 9.4121 11.5293 9.27653 11.6648C9.14096 11.8004 8.95709 11.8766 8.76536 11.8766H7.08456ZM7.08456 8.81152C6.89283 8.81152 6.70896 8.73535 6.57339 8.59979C6.43782 8.46422 6.36167 8.28035 6.36167 8.08863C6.36167 7.89691 6.43782 7.71303 6.57339 7.57747C6.70896 7.4419 6.89283 7.36574 7.08456 7.36574H8.76536C8.95709 7.36574 9.14096 7.4419 9.27653 7.57747C9.4121 7.71303 9.48826 7.89691 9.48826 8.08863C9.48826 8.28035 9.4121 8.46422 9.27653 8.59979C9.14096 8.73535 8.95709 8.81152 8.76536 8.81152H7.08456Z" fill="white" />
    </g>
    <defs>
        <clipPath id="clip0_811_40733">
            <rect width="24" height="24" fill="white" />
        </clipPath>
    </defs>
</svg>
    