<svg width="18" height="19" viewBox="0 0 18 19" fill="none" xmlns="http://www.w3.org/2000/svg">
    <g clip-path="url(#clip0_1370_16705)">
        <path d="M16.2574 16.626H1.74894C1.67645 16.6262 1.60469 16.6117 1.53794 16.5834C1.4735 16.5562 1.41496 16.5168 1.36557 16.4673C1.31604 16.4179 1.27656 16.3594 1.24934 16.2949C1.22108 16.2282 1.20659 16.1564 1.20673 16.0839C1.20659 16.0114 1.22108 15.9396 1.24934 15.8728C1.27656 15.8084 1.31604 15.7499 1.36557 15.7005C1.41496 15.651 1.4735 15.6115 1.53794 15.5843C1.60469 15.5561 1.67645 15.5416 1.74894 15.5417H2.27183V5.31643C2.27175 5.25281 2.28288 5.18968 2.30472 5.12993C2.32582 5.07232 2.35657 5.01873 2.39564 4.97144C2.47444 4.87595 2.58348 4.81021 2.70472 4.78511C2.72817 4.77516 2.75229 4.76686 2.7769 4.76028L8.83083 3.13824C8.8767 3.12591 8.92401 3.11966 8.97151 3.11963C9.03706 3.11961 9.10205 3.13155 9.16331 3.15487C9.21799 3.17176 9.26965 3.19726 9.31632 3.23039C9.3625 3.26312 9.4033 3.30286 9.43723 3.34817C9.50765 3.44178 9.54555 3.55584 9.5452 3.67299V6.41152H15.1112C15.1381 6.40756 15.1651 6.40557 15.1922 6.40556C15.3019 6.40536 15.409 6.43858 15.4993 6.50081C15.5874 6.56125 15.6556 6.64641 15.6954 6.74557C15.7229 6.81153 15.737 6.8823 15.7368 6.95376C15.7368 6.97161 15.736 6.98909 15.7344 7.00581V15.7152H14.6501V7.49593H9.54524V15.5417H16.2574C16.3299 15.5416 16.4017 15.5561 16.4684 15.5843C16.5329 15.6115 16.5914 15.651 16.6407 15.7005C16.6902 15.7499 16.7297 15.8084 16.7569 15.8728C16.7852 15.9396 16.7997 16.0114 16.7995 16.0839C16.7997 16.1564 16.7852 16.2281 16.7569 16.2949C16.7297 16.3593 16.6902 16.4179 16.6407 16.4672C16.5914 16.5167 16.5329 16.5562 16.4684 16.5834C16.4017 16.6117 16.3299 16.6262 16.2574 16.626ZM5.28388 13.1995C5.14014 13.1997 5.00234 13.2569 4.9007 13.3585C4.79905 13.4601 4.74187 13.5979 4.74171 13.7417C4.74187 13.8854 4.79905 14.0232 4.9007 14.1249C5.00234 14.2265 5.14014 14.2837 5.28388 14.2839H6.5634C6.70714 14.2837 6.84496 14.2265 6.9466 14.1249C7.04824 14.0232 7.1054 13.8854 7.10556 13.7417C7.1054 13.5979 7.04824 13.4601 6.9466 13.3585C6.84496 13.2569 6.70714 13.1997 6.5634 13.1995H5.28388ZM5.28388 10.9224C5.14014 10.9226 5.00234 10.9797 4.9007 11.0814C4.79905 11.183 4.74187 11.3208 4.74171 11.4646C4.74188 11.6083 4.79906 11.7461 4.9007 11.8478C5.00234 11.9494 5.14014 12.0066 5.28388 12.0068H6.5634C6.70714 12.0066 6.84494 11.9494 6.94658 11.8478C7.04822 11.7461 7.10539 11.6083 7.10556 11.4646C7.1054 11.3208 7.04824 11.183 6.9466 11.0814C6.84496 10.9797 6.70714 10.9226 6.5634 10.9224H5.28388ZM5.28388 8.64531C5.14014 8.64547 5.00234 8.70264 4.9007 8.80428C4.79905 8.90592 4.74187 9.04373 4.74171 9.18748C4.74187 9.33122 4.79905 9.46903 4.9007 9.57067C5.00234 9.67231 5.14014 9.72948 5.28388 9.72964H6.5634C6.70714 9.72948 6.84496 9.67231 6.9466 9.57067C7.04824 9.46903 7.1054 9.33122 7.10556 9.18748C7.1054 9.04373 7.04824 8.90592 6.9466 8.80428C6.84496 8.70264 6.70714 8.64547 6.5634 8.64531H5.28388ZM5.28388 6.3682C5.14014 6.36836 5.00234 6.42553 4.9007 6.52717C4.79905 6.62881 4.74187 6.76662 4.74171 6.91037C4.74188 7.05411 4.79906 7.19191 4.9007 7.29354C5.00234 7.39518 5.14014 7.45236 5.28388 7.45254H6.5634C6.70714 7.45236 6.84494 7.39518 6.94658 7.29354C7.04822 7.19191 7.10539 7.05411 7.10556 6.91037C7.1054 6.76662 7.04824 6.62881 6.9466 6.52717C6.84496 6.42553 6.70714 6.36836 6.5634 6.3682H5.28388ZM12.7636 14.3568H11.5032C11.4307 14.357 11.3589 14.3425 11.2921 14.3142C11.2277 14.287 11.1692 14.2475 11.1198 14.198C11.0703 14.1486 11.0308 14.0901 11.0036 14.0256C10.9753 13.9589 10.9608 13.8871 10.961 13.8146C10.9608 13.7421 10.9753 13.6703 11.0036 13.6035C11.0308 13.5391 11.0703 13.4806 11.1198 13.4312C11.1692 13.3817 11.2277 13.3422 11.2921 13.315C11.3589 13.2867 11.4307 13.2723 11.5032 13.2724H12.7636C12.8361 13.2723 12.9079 13.2867 12.9746 13.315C13.0391 13.3422 13.0976 13.3817 13.147 13.4312C13.1966 13.4806 13.236 13.5391 13.2632 13.6035C13.2915 13.6703 13.306 13.7421 13.3059 13.8146C13.306 13.8871 13.2915 13.9589 13.2632 14.0256C13.236 14.0901 13.1966 14.1486 13.147 14.198C13.0976 14.2475 13.0391 14.287 12.9746 14.3142C12.9079 14.3425 12.8361 14.357 12.7635 14.3568H12.7636ZM12.7636 12.058H11.5032C11.4307 12.0582 11.3589 12.0437 11.2921 12.0154C11.2277 11.9882 11.1692 11.9487 11.1198 11.8992C11.0703 11.8498 11.0308 11.7913 11.0036 11.7269C10.9753 11.6601 10.9608 11.5883 10.961 11.5159C10.9608 11.4434 10.9753 11.3716 11.0036 11.3048C11.0308 11.2404 11.0703 11.1819 11.1198 11.1325C11.1692 11.083 11.2277 11.0435 11.2921 11.0163C11.3589 10.988 11.4307 10.9735 11.5032 10.9737H12.7636C12.8361 10.9735 12.9079 10.988 12.9746 11.0163C13.0391 11.0435 13.0976 11.083 13.147 11.1325C13.1966 11.1819 13.236 11.2404 13.2632 11.3048C13.2915 11.3716 13.306 11.4434 13.3059 11.5159C13.306 11.5883 13.2915 11.6601 13.2632 11.7269C13.236 11.7913 13.1966 11.8498 13.147 11.8992C13.0976 11.9487 13.0391 11.9882 12.9746 12.0154C12.9079 12.0437 12.836 12.0582 12.7635 12.058L12.7636 12.058ZM12.7636 9.78872H11.5032C11.4307 9.78886 11.3589 9.77437 11.2921 9.74613C11.2277 9.71892 11.1692 9.67946 11.1198 9.62995C11.0703 9.58056 11.0308 9.52204 11.0036 9.45762C10.9753 9.39085 10.9608 9.31907 10.961 9.24657C10.9608 9.17408 10.9753 9.10231 11.0036 9.03556C11.0308 8.97115 11.0703 8.91263 11.1198 8.86325C11.1692 8.81374 11.2277 8.77429 11.2921 8.74708C11.3589 8.71884 11.4307 8.70435 11.5032 8.70449H12.7636C12.8361 8.70435 12.9079 8.71883 12.9746 8.74708C13.0391 8.77429 13.0976 8.81374 13.147 8.86325C13.1966 8.91263 13.236 8.97115 13.2632 9.03556C13.2915 9.1023 13.306 9.17408 13.3059 9.24657C13.306 9.31907 13.2915 9.39086 13.2632 9.45762C13.236 9.52204 13.1966 9.58056 13.147 9.62995C13.0976 9.67945 13.0391 9.71891 12.9746 9.74613C12.9078 9.77438 12.836 9.78886 12.7635 9.78869L12.7636 9.78872Z" fill="#2F2F3D" />
    </g>
    <defs>
        <clipPath id="clip0_1370_16705">
            <rect width="18" height="18" fill="white" transform="translate(0 0.882324)" />
        </clipPath>
    </defs>
</svg>
    