<svg width="18" height="19" viewBox="0 0 18 19" fill="none" xmlns="http://www.w3.org/2000/svg">
    <g clip-path="url(#clip0_840_8119)">
        <path d="M9.00268 16.1276H1.74847C1.60468 16.1276 1.46677 16.0704 1.36509 15.9688C1.26342 15.8671 1.2063 15.7292 1.2063 15.5854C1.2063 15.4416 1.26342 15.3037 1.36509 15.202C1.46677 15.1003 1.60468 15.0432 1.74847 15.0432H2.27136V4.81792C2.27139 4.69308 2.31445 4.57208 2.39331 4.47531C2.47217 4.37854 2.58201 4.31194 2.70427 4.28673C2.72772 4.27677 2.75184 4.26847 2.77645 4.26187L8.83038 2.6397C8.94019 2.6101 9.05654 2.61593 9.16284 2.65638C9.27347 2.69064 9.37024 2.75942 9.43896 2.85264C9.50768 2.94586 9.54476 3.05864 9.54477 3.17445V4.43506C9.54477 4.57885 9.48765 4.71676 9.38597 4.81843C9.2843 4.92011 9.14639 4.97723 9.0026 4.97723C8.85881 4.97723 8.7209 4.92011 8.61923 4.81843C8.51755 4.71676 8.46043 4.57885 8.46043 4.43506V3.86138L3.35564 5.22914V15.0431H8.46043V6.56357C8.4532 6.52788 8.44957 6.49155 8.44959 6.45514C8.44955 6.35723 8.47604 6.26114 8.52623 6.17708C8.57643 6.09301 8.64844 6.02412 8.73465 5.9777C8.81628 5.93121 8.90864 5.90683 9.00258 5.90698C9.02971 5.90698 9.0568 5.909 9.08363 5.91301H15.1107C15.1375 5.909 15.1646 5.90698 15.1917 5.90698C15.2999 5.90697 15.4057 5.93934 15.4953 5.99994C15.585 6.06053 15.6545 6.14657 15.6948 6.24699C15.7223 6.31296 15.7364 6.38373 15.7362 6.45518C15.7362 6.47271 15.7354 6.49005 15.7338 6.50723V14.0022C15.7338 14.146 15.6767 14.2839 15.575 14.3855C15.4733 14.4872 15.3354 14.5443 15.1916 14.5443C15.0478 14.5443 14.9099 14.4872 14.8083 14.3855C14.7066 14.2839 14.6495 14.146 14.6495 14.0022V6.99735H9.54485V15.0431H16.2569C16.4007 15.0431 16.5386 15.1003 16.6403 15.2019C16.742 15.3036 16.7991 15.4415 16.7991 15.5853C16.7991 15.7291 16.742 15.867 16.6403 15.9687C16.5386 16.0703 16.4007 16.1275 16.2569 16.1275L9.00268 16.1276ZM11.5026 13.8583C11.3588 13.8583 11.2209 13.8012 11.1192 13.6995C11.0176 13.5978 10.9604 13.4599 10.9604 13.3161C10.9604 13.1723 11.0176 13.0344 11.1192 12.9328C11.2209 12.8311 11.3588 12.774 11.5026 12.774H12.7631C12.9069 12.774 13.0448 12.8311 13.1465 12.9328C13.2481 13.0344 13.3053 13.1723 13.3053 13.3161C13.3053 13.4599 13.2481 13.5978 13.1465 13.6995C13.0448 13.8012 12.9069 13.8583 12.7631 13.8583H11.5026ZM5.31342 13.8583C5.16963 13.8583 5.03172 13.8012 4.93004 13.6995C4.82837 13.5978 4.77125 13.4599 4.77125 13.3161C4.77125 13.1723 4.82837 13.0344 4.93004 12.9328C5.03172 12.8311 5.16963 12.774 5.31342 12.774H6.57402C6.71781 12.774 6.85572 12.8311 6.9574 12.9328C7.05907 13.0344 7.11619 13.1723 7.11619 13.3161C7.11619 13.4599 7.05907 13.5978 6.9574 13.6995C6.85572 13.8012 6.71781 13.8583 6.57402 13.8583H5.31342ZM11.5026 11.5595C11.3588 11.5595 11.2209 11.5024 11.1192 11.4007C11.0176 11.299 10.9604 11.1611 10.9604 11.0173C10.9604 10.8735 11.0176 10.7356 11.1192 10.634C11.2209 10.5323 11.3588 10.4752 11.5026 10.4752H12.7631C12.9069 10.4752 13.0448 10.5323 13.1465 10.634C13.2481 10.7356 13.3053 10.8735 13.3053 11.0173C13.3053 11.1611 13.2481 11.299 13.1465 11.4007C13.0448 11.5024 12.9069 11.5595 12.7631 11.5595H11.5026ZM5.31342 11.5595C5.16963 11.5595 5.03172 11.5024 4.93004 11.4007C4.82837 11.299 4.77125 11.1611 4.77125 11.0173C4.77125 10.8735 4.82837 10.7356 4.93004 10.634C5.03172 10.5323 5.16963 10.4752 5.31342 10.4752H6.57402C6.71781 10.4752 6.85572 10.5323 6.9574 10.634C7.05907 10.7356 7.11619 10.8735 7.11619 11.0173C7.11619 11.1611 7.05907 11.299 6.9574 11.4007C6.85572 11.5024 6.71781 11.5595 6.57402 11.5595H5.31342ZM11.5026 9.29025C11.3588 9.29025 11.2209 9.23312 11.1192 9.13145C11.0176 9.02977 10.9604 8.89187 10.9604 8.74808C10.9604 8.60429 11.0176 8.46638 11.1192 8.36471C11.2209 8.26303 11.3588 8.20591 11.5026 8.20591H12.7631C12.9069 8.20591 13.0448 8.26303 13.1465 8.36471C13.2481 8.46638 13.3053 8.60429 13.3053 8.74808C13.3053 8.89187 13.2481 9.02977 13.1465 9.13145C13.0448 9.23312 12.9069 9.29025 12.7631 9.29025H11.5026ZM5.31342 9.29025C5.16963 9.29025 5.03172 9.23312 4.93004 9.13145C4.82837 9.02977 4.77125 8.89187 4.77125 8.74808C4.77125 8.60429 4.82837 8.46638 4.93004 8.36471C5.03172 8.26303 5.16963 8.20591 5.31342 8.20591H6.57402C6.71781 8.20591 6.85572 8.26303 6.9574 8.36471C7.05907 8.46638 7.11619 8.60429 7.11619 8.74808C7.11619 8.89187 7.05907 9.02977 6.9574 9.13145C6.85572 9.23312 6.71781 9.29025 6.57402 9.29025H5.31342ZM5.31342 6.99145C5.16963 6.99145 5.03172 6.93433 4.93004 6.83265C4.82837 6.73098 4.77125 6.59308 4.77125 6.44928C4.77125 6.30549 4.82837 6.16759 4.93004 6.06591C5.03172 5.96424 5.16963 5.90712 5.31342 5.90712H6.57402C6.71781 5.90712 6.85572 5.96424 6.9574 6.06591C7.05907 6.16759 7.11619 6.30549 7.11619 6.44928C7.11619 6.59308 7.05907 6.73098 6.9574 6.83265C6.85572 6.93433 6.71781 6.99145 6.57402 6.99145H5.31342Z" fill="#2F2F3D" />
    </g>
    <defs>
        <clipPath id="clip0_840_8119">
            <rect width="18" height="18" fill="white" transform="translate(0 0.382812)" />
        </clipPath>
    </defs>
</svg>
    