<svg width="24" height="24" viewBox="0 0 40 40" fill="none" xmlns="http://www.w3.org/2000/svg">
    <g clip-path="url(#clip0_31371_31400)">
        <path fill-rule="evenodd" clip-rule="evenodd" d="M31.087 37.3032H23.198V31.1431C23.1975 30.8311 23.0733 30.5321 22.8527 30.3115C22.6321 30.0909 22.333 29.9666 22.021 29.9661H18.49C18.178 29.9666 17.8789 30.0909 17.6583 30.3115C17.4377 30.5321 17.3135 30.8311 17.313 31.1431V37.3032H9.469C8.88035 37.2986 8.31715 37.0626 7.901 36.6462C7.69486 36.4403 7.53142 36.1955 7.42005 35.9263C7.30867 35.657 7.25158 35.3685 7.25202 35.0772V25.103C7.25175 24.8117 7.30894 24.5233 7.42032 24.2542C7.53171 23.985 7.6951 23.7404 7.90113 23.5344C8.10715 23.3285 8.35176 23.1652 8.62097 23.054C8.89019 22.9427 9.17871 22.8858 9.47 22.8862H31.089C31.3802 22.8861 31.6686 22.9433 31.9377 23.0547C32.2068 23.166 32.4513 23.3293 32.6573 23.5352C32.8633 23.741 33.0267 23.9854 33.1382 24.2544C33.2496 24.5234 33.307 24.8118 33.307 25.103V35.0791C33.3054 35.6676 33.0715 36.2318 32.6561 36.6487C32.2407 37.0656 31.6775 37.3015 31.089 37.3052L31.087 37.3032Z" fill="#6E7191" />
        <path fill-rule="evenodd" clip-rule="evenodd" d="M6.06299 20.666C5.62214 20.6673 5.19089 20.5374 4.82401 20.293C4.54993 20.1086 4.32047 19.8654 4.15241 19.5811C3.98434 19.2967 3.8819 18.9784 3.85257 18.6494C3.82325 18.3204 3.86776 17.989 3.98288 17.6794C4.09801 17.3699 4.28085 17.09 4.51801 16.8601L18.456 3.323C18.8694 2.92051 19.4235 2.69531 20.0005 2.69531C20.5774 2.69531 21.1316 2.92051 21.545 3.323L35.483 16.8601C35.8004 17.1682 36.0184 17.5641 36.109 17.9971C36.1979 18.4295 36.1569 18.8786 35.9912 19.2878C35.8256 19.6971 35.5426 20.048 35.178 20.2969C34.8115 20.5413 34.3805 20.6712 33.94 20.6699L6.06299 20.666Z" fill="#6E7191" />
    </g>
    <defs>
        <clipPath id="clip0_31371_31400">
            <rect width="39.999" height="39.999" fill="white" />
        </clipPath>
    </defs>
</svg>