<svg width="24" height="24" viewBox="0 0 24 24" fill="none" xmlns="http://www.w3.org/2000/svg">
    <g clip-path="url(#clip0_31104_23208)">
        <path d="M5.68093 22.3817C5.50569 22.3812 5.3322 22.3461 5.17055 22.2785C5.0089 22.2108 4.86207 22.112 4.73869 21.9875C4.48943 21.7383 4.34969 21.4002 4.34961 21.0478V15.0608C4.3526 14.7078 4.49336 14.3696 4.74162 14.1186C4.9922 13.8716 5.32911 13.7325 5.68093 13.731H18.6519C19.0035 13.7334 19.3407 13.8724 19.5918 14.1186C19.84 14.3696 19.9802 14.7078 19.9832 15.0608V21.0478C19.9817 21.4004 19.8413 21.7383 19.5918 21.9875C19.4691 22.1122 19.3224 22.2112 19.1611 22.2789C18.9998 22.3466 18.8268 22.3816 18.6519 22.3817H5.68093Z" fill="#6E7191" />
        <path fill-rule="evenodd" clip-rule="evenodd" d="M3.63787 12.4001C3.37334 12.4008 3.11458 12.3229 2.89444 12.1762C2.73007 12.0655 2.59248 11.9195 2.4917 11.7489C2.39092 11.5783 2.32949 11.3874 2.3119 11.19C2.2943 10.9927 2.321 10.7938 2.39001 10.608C2.45903 10.4223 2.56863 10.2544 2.71083 10.1164L11.074 1.99431C11.3221 1.7528 11.6546 1.61768 12.0008 1.61768C12.347 1.61768 12.6795 1.7528 12.9275 1.99431L21.2908 10.1164C21.4812 10.3015 21.612 10.5392 21.6664 10.7992C21.7197 11.0587 21.6951 11.3281 21.5957 11.5737C21.4963 11.8192 21.3265 12.03 21.1077 12.1793C20.8878 12.3259 20.6292 12.4037 20.3649 12.403L3.63787 12.4001Z" fill="#6E7191" />
    </g>
    <defs>
        <clipPath id="clip0_31104_23208">
            <rect width="24" height="24" fill="white" />
        </clipPath>
    </defs>
</svg>