<svg width="18" height="19" viewBox="0 0 18 19" fill="none" xmlns="http://www.w3.org/2000/svg">
    <g clip-path="url(#clip0_898_61261)">
        <path d="M5.96264 7.52751H4.35479C4.21297 7.52646 4.07726 7.46965 3.97698 7.36937C3.8767 7.26909 3.8199 7.13338 3.81884 6.99157C3.8199 6.84975 3.8767 6.71404 3.97698 6.61376C4.07726 6.51348 4.21297 6.45667 4.35479 6.45562H5.96264C6.10453 6.45656 6.24035 6.51331 6.34073 6.61361C6.44111 6.7139 6.49797 6.84967 6.49904 6.99157C6.49797 7.13346 6.44111 7.26923 6.34073 7.36952C6.24035 7.46982 6.10453 7.52657 5.96264 7.52751Z" fill="#2F2F3D" />
        <path d="M4.35479 9.67161H6.49904C6.64085 9.67055 6.77656 9.61374 6.87684 9.51346C6.97712 9.41318 7.03393 9.27747 7.03499 9.13566C7.03393 8.99384 6.97712 8.85814 6.87684 8.75785C6.77656 8.65757 6.64085 8.60077 6.49904 8.59971H4.35479C4.21297 8.60077 4.07726 8.65757 3.97698 8.75785C3.8767 8.85814 3.8199 8.99384 3.81884 9.13566C3.8199 9.27747 3.8767 9.41318 3.97698 9.51346C4.07726 9.61374 4.21297 9.67055 4.35479 9.67161Z" fill="#2F2F3D" />
        <path fill-rule="evenodd" clip-rule="evenodd" d="M8.39206 16.5538C8.57861 16.6545 8.78762 16.7062 8.99956 16.7041C9.20649 16.7092 9.41108 16.6595 9.59266 16.5601C11.2091 15.7363 12.9424 15.1655 14.7321 14.8677L14.9679 14.8389C15.4375 14.7699 15.8674 14.5367 16.1814 14.1809C16.4954 13.825 16.6733 13.3694 16.6833 12.8949V4.26885C16.6864 3.99629 16.6319 3.72616 16.5233 3.47614C16.4148 3.22612 16.2546 3.00186 16.0533 2.81805C15.8595 2.63585 15.6295 2.49649 15.3784 2.40904C15.1272 2.32158 14.8604 2.28799 14.5953 2.31045H14.5094C12.6431 2.54414 10.8425 3.14913 9.21376 4.08975L9.09946 4.1613C9.03414 4.18391 8.96274 4.18134 8.89921 4.1541L8.72776 4.0542C7.10226 3.11726 5.30283 2.52148 3.43936 2.30325C3.16867 2.27734 2.89555 2.30869 2.63777 2.39526C2.37998 2.48182 2.1433 2.62166 1.9431 2.80569C1.7429 2.98972 1.58367 3.21382 1.47575 3.46342C1.36783 3.71302 1.31365 3.98253 1.31671 4.25445V12.8877C1.32771 13.3611 1.50517 13.8154 1.81789 14.1709C2.13062 14.5264 2.55862 14.7604 3.02671 14.8317L3.23191 14.86C5.02801 15.1593 6.76802 15.7304 8.39206 16.5538ZM2.66671 3.597C2.83076 3.44714 3.04574 3.3654 3.26791 3.3684H3.35341C5.04968 3.5813 6.68821 4.12269 8.17741 4.9623L8.34886 5.0622C8.38631 5.08375 8.42469 5.1034 8.46386 5.1211V15.3984C6.85211 14.6301 5.13929 14.0926 3.37591 13.8025L3.16171 13.7737C2.95161 13.7352 2.76076 13.6266 2.62028 13.4657C2.47981 13.3048 2.39798 13.1011 2.38816 12.8877V4.25445C2.38634 4.13152 2.41017 4.00956 2.45813 3.89636C2.50609 3.78315 2.57713 3.6812 2.66671 3.597ZM14.5962 13.8016C12.8413 14.0889 11.1374 14.6252 9.53576 15.3937V5.12779C9.5845 5.10649 9.63206 5.0822 9.67816 5.055L9.79246 4.97625C11.2632 4.13796 12.8822 3.59199 14.5602 3.3684H14.6462C14.77 3.35892 14.8945 3.37426 15.0123 3.41351C15.1302 3.45277 15.239 3.51515 15.3324 3.597C15.4221 3.68261 15.4932 3.78585 15.5411 3.90022C15.5891 4.0146 15.6128 4.13765 15.611 4.26165V12.8868C15.6024 13.1003 15.5213 13.3045 15.381 13.4656C15.2406 13.6267 15.0495 13.7351 14.8392 13.7728L14.5962 13.8016Z" fill="#2F2F3D" />
    </g>
    <defs>
        <clipPath id="clip0_898_61261">
            <rect width="18" height="18" fill="white" transform="translate(0 0.5)" />
        </clipPath>
    </defs>
</svg>
    