<svg width="18" height="18" viewBox="0 0 18 18" fill="none" xmlns="http://www.w3.org/2000/svg">
    <g clip-path="url(#clip0_468_22350)">
        <path d="M6.8333 16.763H11.1668C15.0885 16.763 16.7643 15.0872 16.7643 11.1654V7.55417C16.7643 7.41048 16.7073 7.27267 16.6057 7.17106C16.5041 7.06946 16.3662 7.01237 16.2225 7.01237C16.0789 7.01237 15.941 7.06946 15.8394 7.17106C15.7378 7.27267 15.6807 7.41048 15.6807 7.55417V11.1618C15.6807 14.4914 14.4968 15.6758 11.1668 15.6758H6.8333C3.50375 15.6758 2.31935 14.4918 2.31935 11.1618V6.82832C2.31935 3.49877 3.5033 2.31437 6.8333 2.31437H10.4445C10.5873 2.31285 10.7238 2.25547 10.8247 2.15453C10.9256 2.05359 10.983 1.91712 10.9845 1.77437C10.983 1.63163 10.9256 1.49516 10.8247 1.39422C10.7238 1.29328 10.5873 1.2359 10.4445 1.23438H6.8333C2.91155 1.23438 1.23575 2.91017 1.23575 6.83192V11.1654C1.23575 15.0872 2.91155 16.763 6.8333 16.763Z" fill="white" />
        <path fill-rule="evenodd" clip-rule="evenodd" d="M14.0561 6.65148C13.5204 6.65148 12.9967 6.49262 12.5513 6.195C12.1059 5.89738 11.7587 5.47437 11.5537 4.97944C11.3487 4.48452 11.2951 3.93992 11.3996 3.41451C11.5041 2.88911 11.7621 2.40649 12.1409 2.02769C12.5197 1.64889 13.0023 1.39093 13.5277 1.28642C14.0531 1.18191 14.5977 1.23555 15.0926 1.44055C15.5876 1.64556 16.0106 1.99272 16.3082 2.43814C16.6058 2.88356 16.7647 3.40723 16.7647 3.94293C16.7644 4.6612 16.479 5.35 15.9711 5.8579C15.4632 6.3658 14.7744 6.65124 14.0561 6.65148ZM14.0561 2.31798C13.7347 2.31798 13.4206 2.41328 13.1533 2.59183C12.8861 2.77038 12.6778 3.02416 12.5549 3.32108C12.4319 3.61801 12.3997 3.94473 12.4624 4.25994C12.5251 4.57515 12.6798 4.86469 12.9071 5.09194C13.1344 5.31919 13.4239 5.47395 13.7391 5.53665C14.0543 5.59935 14.381 5.56717 14.678 5.44418C14.9749 5.3212 15.2287 5.11292 15.4072 4.8457C15.5858 4.57848 15.6811 4.26431 15.6811 3.94293C15.6804 3.51218 15.5089 3.09928 15.2043 2.7947C14.8998 2.49012 14.4869 2.31869 14.0561 2.31798Z" fill="white" />
        <path d="M9.00022 7.19283H5.38717C5.24381 7.19129 5.10681 7.13341 5.00576 7.0317C4.90472 6.92998 4.84776 6.7926 4.84717 6.64923C4.8487 6.50648 4.90608 6.37001 5.00702 6.26907C5.10796 6.16813 5.24443 6.11075 5.38717 6.10923H9.00022C9.14297 6.11075 9.27944 6.16813 9.38038 6.26907C9.48132 6.37001 9.5387 6.50648 9.54022 6.64923C9.53964 6.7926 9.48267 6.92998 9.38163 7.0317C9.28059 7.13341 9.14359 7.19129 9.00022 7.19283Z" fill="white" />
        <path d="M5.38717 13.1518H11.8892C12.0326 13.1503 12.1696 13.0924 12.2706 12.9907C12.3717 12.889 12.4286 12.7516 12.4292 12.6082C12.4277 12.4655 12.3703 12.329 12.2694 12.2281C12.1684 12.1271 12.032 12.0697 11.8892 12.0682H5.38717C5.24443 12.0697 5.10796 12.1271 5.00702 12.2281C4.90608 12.329 4.8487 12.4655 4.84717 12.6082C4.84776 12.7516 4.90472 12.889 5.00576 12.9907C5.10681 13.0924 5.24381 13.1503 5.38717 13.1518Z" fill="white" />
        <path d="M11.8892 10.2114H5.38717C5.24381 10.2099 5.10681 10.152 5.00576 10.0503C4.90472 9.94859 4.84776 9.8112 4.84717 9.66783C4.8487 9.52509 4.90608 9.38862 5.00702 9.28768C5.10796 9.18673 5.24443 9.12935 5.38717 9.12783H11.8892C12.032 9.12935 12.1684 9.18673 12.2694 9.28768C12.3703 9.38862 12.4277 9.52509 12.4292 9.66783C12.4286 9.8112 12.3717 9.94859 12.2706 10.0503C12.1696 10.152 12.0326 10.2099 11.8892 10.2114Z" fill="white" />
    </g>
    <defs>
        <clipPath id="clip0_468_22350">
            <rect width="18" height="18" fill="white" />
        </clipPath>
    </defs>
</svg>
    