<svg width="16" height="16" viewBox="0 0 16 16" fill="none" xmlns="http://www.w3.org/2000/svg">
    <path d="M13.1817 14.3714C13.0396 14.3714 12.9027 14.3175 12.7987 14.2207C12.7473 14.1709 12.7063 14.1114 12.678 14.0457C12.6498 13.9799 12.6349 13.9092 12.6342 13.8377C12.6336 13.7661 12.6471 13.6951 12.6741 13.6288C12.7011 13.5626 12.741 13.5023 12.7915 13.4516C13.5626 12.6656 14.1286 11.702 14.4395 10.6458C14.7504 9.58947 14.7967 8.47293 14.5743 7.39454C14.3519 6.31615 13.8676 5.30902 13.1642 4.46192C12.4607 3.61482 11.5597 2.95376 10.5406 2.537C9.5214 2.12025 8.41537 1.96059 7.31994 2.07211C6.22452 2.18362 5.17334 2.56288 4.25906 3.17647C3.34478 3.79005 2.59547 4.61911 2.07718 5.59059C1.55888 6.56206 1.28751 7.64611 1.28698 8.74719C1.2818 10.5001 1.96748 12.1845 3.19548 13.4354C3.29391 13.5389 3.34769 13.677 3.34521 13.8198C3.34272 13.9626 3.28418 14.0987 3.1822 14.1987C3.08023 14.2988 2.94302 14.3547 2.80018 14.3544C2.65735 14.3541 2.52035 14.2977 2.41876 14.1973C1.52513 13.2822 0.870201 12.1614 0.51165 10.9336C0.153099 9.70587 0.101923 8.40878 0.362627 7.15658C0.623332 5.90438 1.18792 4.73548 2.00668 3.75283C2.82543 2.77017 3.87324 2.0039 5.05782 1.52148C6.24241 1.03907 7.52744 0.855309 8.79976 0.986391C10.0721 1.11747 11.2927 1.55937 12.354 2.27318C13.4153 2.98698 14.2849 3.95079 14.8861 5.07974C15.4873 6.20869 15.8017 7.46814 15.8016 8.74719C15.8073 10.7924 15.0038 12.7568 13.5664 14.2117C13.5165 14.2631 13.4567 14.3038 13.3905 14.3312C13.3244 14.3587 13.2533 14.3724 13.1817 14.3714Z" fill="#2F2F3D" />
    <path d="M8.00015 15.8206C7.4081 15.8214 6.82913 15.6465 6.33646 15.3181C5.84379 14.9898 5.45955 14.5228 5.23232 13.976C5.00509 13.4293 4.94509 12.8275 5.05989 12.2467C5.1747 11.6659 5.45916 11.1322 5.8773 10.713C6.29544 10.2939 6.82848 10.0081 7.40902 9.89192C7.98956 9.77572 8.59152 9.83427 9.13878 10.0602C9.68603 10.2861 10.154 10.6692 10.4835 11.1611C10.8131 11.653 10.9893 12.2315 10.99 12.8236C10.9905 13.6173 10.6759 14.3788 10.1153 14.9408C9.55467 15.5028 8.79392 15.8192 8.00015 15.8206ZM8.00015 10.9218C7.62422 10.9219 7.25676 11.0334 6.9442 11.2423C6.63164 11.4512 6.38802 11.748 6.24412 12.0953C6.10021 12.4426 6.06249 12.8248 6.13573 13.1935C6.20896 13.5622 6.38985 13.901 6.65554 14.1669C6.92124 14.4328 7.25981 14.6141 7.62846 14.6876C7.99712 14.7612 8.37931 14.7239 8.72674 14.5803C9.07417 14.4367 9.37124 14.1934 9.58041 13.881C9.78958 13.5687 9.90145 13.2013 9.9019 12.8254C9.90142 12.3212 9.70089 11.8378 9.34433 11.4813C8.98778 11.1248 8.50434 10.9244 8.00015 10.9241V10.9218Z" fill="#2F2F3D" />
    <path d="M13.305 6.60494C13.4148 6.697 13.4834 6.82887 13.4959 6.97155C13.5084 7.11422 13.4637 7.25601 13.3716 7.36573L11.448 9.65817C11.3556 9.76834 11.2232 9.83728 11.0799 9.84981C10.9366 9.86235 10.7942 9.81745 10.6841 9.72501C10.5739 9.63257 10.505 9.50014 10.4924 9.35687C10.4799 9.2136 10.5248 9.07122 10.6172 8.96105L12.5408 6.66861C12.5866 6.61399 12.6428 6.56899 12.7061 6.5362C12.7694 6.50341 12.8386 6.48348 12.9097 6.47756C12.9807 6.47164 13.0522 6.47985 13.1201 6.50171C13.188 6.52357 13.2508 6.55866 13.305 6.60494Z" fill="#2F2F3D" />
</svg>
    