<svg width="16" height="16" viewBox="0 0 16 16" fill="none" xmlns="http://www.w3.org/2000/svg">
    <g clip-path="url(#clip0_1931_86522)">
        <path d="M12.6057 13.322C12.4794 13.322 12.3578 13.2741 12.2653 13.188C12.2196 13.1438 12.1831 13.0909 12.158 13.0325C12.1329 12.974 12.1197 12.9112 12.1191 12.8476C12.1185 12.7839 12.1306 12.7209 12.1546 12.6619C12.1786 12.603 12.214 12.5495 12.2589 12.5044C12.9444 11.8058 13.4474 10.9492 13.7238 10.0103C14.0001 9.0714 14.0413 8.07891 13.8436 7.12034C13.6459 6.16177 13.2154 5.26655 12.5902 4.51357C11.9649 3.76059 11.164 3.17298 10.2581 2.80253C9.35214 2.43208 8.369 2.29016 7.39529 2.38929C6.42157 2.48841 5.4872 2.82554 4.6745 3.37094C3.86181 3.91635 3.19576 4.6533 2.73505 5.51683C2.27434 6.38036 2.03312 7.34396 2.03265 8.3227C2.02805 9.88085 2.63755 11.3781 3.7291 12.49C3.81659 12.582 3.8644 12.7047 3.86219 12.8317C3.85998 12.9586 3.80794 13.0796 3.7173 13.1685C3.62666 13.2574 3.50469 13.3071 3.37772 13.3069C3.25076 13.3066 3.12898 13.2565 3.03868 13.1672C2.24434 12.3538 1.66218 11.3576 1.34347 10.2662C1.02476 9.17486 0.97927 8.02189 1.21101 6.90882C1.44274 5.79575 1.9446 4.75674 2.67238 3.88326C3.40017 3.00979 4.33155 2.32866 5.38452 1.89985C6.43748 1.47103 7.57973 1.30769 8.71068 1.42421C9.84163 1.54073 10.9266 1.93353 11.87 2.56802C12.8134 3.20251 13.5864 4.05923 14.1208 5.06274C14.6552 6.06625 14.9346 7.18577 14.9346 8.3227C14.9396 10.1406 14.2254 11.8868 12.9477 13.18C12.9034 13.2257 12.8502 13.2619 12.7914 13.2863C12.7326 13.3107 12.6694 13.3229 12.6057 13.322Z" fill="#2F2F3D" />
        <path d="M7.99991 14.6102C7.47364 14.6108 6.95901 14.4554 6.52108 14.1636C6.08315 13.8717 5.7416 13.4565 5.53962 12.9706C5.33764 12.4846 5.28431 11.9497 5.38636 11.4334C5.4884 10.9171 5.74126 10.4427 6.11294 10.0701C6.48462 9.69752 6.95843 9.44352 7.47447 9.34023C7.9905 9.23694 8.52558 9.28899 9.01203 9.4898C9.49848 9.69061 9.91446 10.0312 10.2074 10.4684C10.5003 10.9056 10.6569 11.4199 10.6576 11.9461C10.658 12.6517 10.3783 13.3286 9.88003 13.8281C9.38171 14.3276 8.70549 14.6089 7.99991 14.6102ZM7.99991 10.2557C7.66576 10.2558 7.33912 10.3549 7.06129 10.5406C6.78346 10.7262 6.56691 10.9901 6.439 11.2988C6.31108 11.6075 6.27756 11.9472 6.34265 12.275C6.40774 12.6027 6.56854 12.9038 6.80471 13.1402C7.04088 13.3766 7.34183 13.5377 7.66953 13.6031C7.99722 13.6685 8.33695 13.6353 8.64577 13.5077C8.9546 13.3801 9.21866 13.1637 9.40459 12.8861C9.59052 12.6084 9.68996 12.2819 9.69036 11.9477C9.68993 11.4996 9.51168 11.0699 9.19475 10.753C8.87781 10.4362 8.44808 10.258 7.99991 10.2577V10.2557Z" fill="#2F2F3D" />
        <path d="M12.7154 6.41847C12.8129 6.50031 12.8739 6.61753 12.885 6.74435C12.8961 6.87117 12.8564 6.99721 12.7745 7.09473L11.0647 9.13246C10.9825 9.23039 10.8648 9.29166 10.7375 9.30281C10.6101 9.31395 10.4835 9.27404 10.3856 9.19187C10.2877 9.1097 10.2264 8.99199 10.2153 8.86464C10.2041 8.73729 10.244 8.61073 10.3262 8.5128L12.0361 6.47507C12.0768 6.42652 12.1267 6.38652 12.183 6.35737C12.2393 6.32822 12.3008 6.31051 12.3639 6.30525C12.4271 6.29998 12.4907 6.30728 12.551 6.32671C12.6113 6.34615 12.6672 6.37734 12.7154 6.41847Z" fill="#2F2F3D" />
    </g>
    <defs>
        <clipPath id="clip0_1931_86522">
            <rect width="16" height="16" fill="white" />
        </clipPath>
    </defs>
</svg>
    