<svg width="16" height="16" viewBox="0 0 18 18" fill="none" xmlns="http://www.w3.org/2000/svg">
    <g clip-path="url(#clip0_30621_23023)">
        <path d="M2.80724 4.75216C2.79978 4.68223 2.80602 4.61118 2.82611 4.54379C2.84619 4.47639 2.87977 4.41387 2.92429 4.35943C2.96881 4.30498 3.02343 4.26001 3.0855 4.22694C3.14756 4.19388 3.21571 4.1735 3.28572 4.16692L4.74174 4.02415C5.1698 3.98024 5.57845 3.94381 5.97095 3.91396C5.9725 3.90789 5.97359 3.90174 5.97438 3.89552L6.1313 2.96086C6.24545 2.27509 6.40275 1.3252 8.06537 1.3252H9.93599C11.6043 1.3252 11.7638 2.31049 11.8709 2.96729L12.0278 3.89509C12.0278 3.90607 12.0312 3.91756 12.0321 3.92854C12.8597 3.99 13.7363 4.07078 14.7105 4.16649C14.8514 4.18113 14.9806 4.25065 15.0702 4.36028C15.1599 4.46991 15.2026 4.61077 15.189 4.75173C15.1779 4.88433 15.1172 5.00775 15.0192 5.09772C14.9212 5.1877 14.793 5.23741 14.6599 5.23707H14.6033C10.8276 4.85862 8.58636 4.71585 4.85193 5.09429C3.37809 5.2383 3.35901 5.23921 3.34189 5.23921C3.20805 5.23924 3.07894 5.18959 2.98003 5.09944C2.88111 5.00929 2.81961 4.88542 2.80724 4.75216ZM10.944 3.85779L10.8239 3.14608C10.7234 2.52528 10.7023 2.40349 9.94585 2.40349H8.07566C7.31833 2.40349 7.30384 2.50393 7.19759 3.13922L7.07326 3.84407C7.6879 3.81334 8.27605 3.80034 8.85426 3.80034C9.55101 3.80034 10.2367 3.8196 10.944 3.85779Z" fill="#2F2F3D" />
        <path d="M6.71197 16.6737C4.22088 16.6737 4.12163 15.2956 4.0426 14.1822L3.57784 6.99305C3.5695 6.8513 3.61718 6.71183 3.71075 6.60503C3.80433 6.49823 3.93614 6.43233 4.07776 6.42196C5.68373 6.12762 7.31146 5.96789 8.94401 5.94434C10.6158 5.97197 12.2829 6.13165 13.9295 6.42196C13.9998 6.42653 14.0686 6.44524 14.1318 6.47641C14.195 6.50758 14.2513 6.55073 14.2978 6.60375C14.3442 6.65676 14.3798 6.71834 14.4024 6.78511C14.425 6.85187 14.4341 6.92272 14.4294 6.99305L13.9655 14.1822C13.8865 15.2956 13.7872 16.6737 11.2953 16.6737H6.71197ZM5.11275 14.1106C5.19177 15.1955 5.21969 15.6031 6.71197 15.6031H11.2953C12.795 15.6031 12.8229 15.1959 12.8945 14.1106L13.3215 7.49211C11.88 7.19915 10.4148 7.03944 8.94401 7.01491C7.51229 7.03453 6.08584 7.19433 4.68529 7.49211L5.11275 14.1106Z" fill="#2F2F3D" />
    </g>
    <defs>
        <clipPath id="clip0_30621_23023">
            <rect width="18" height="18" fill="white" />
        </clipPath>
    </defs>
</svg>