<svg width="16" height="16" viewBox="0 0 12 12" fill="none" xmlns="http://www.w3.org/2000/svg">
    <g clip-path="url(#clip0_30428_4105)">
        <path d="M1.87117 3.16788C1.8662 3.12126 1.87036 3.0739 1.88375 3.02897C1.89713 2.98404 1.91952 2.94235 1.9492 2.90606C1.97888 2.86977 2.0153 2.83978 2.05667 2.81774C2.09805 2.79569 2.14348 2.78211 2.19016 2.77772L3.16083 2.68254C3.44621 2.65327 3.71864 2.62899 3.98031 2.60908C3.98134 2.60504 3.98207 2.60093 3.9826 2.59679L4.08721 1.97368C4.16331 1.5165 4.26817 0.88324 5.37659 0.88324H6.62367C7.73589 0.88324 7.8422 1.5401 7.91362 1.97797L8.01823 2.59651C8.01823 2.60382 8.02051 2.61148 8.02109 2.6188C8.57281 2.65978 9.15719 2.71363 9.80667 2.77744C9.90058 2.7872 9.98672 2.83354 10.0465 2.90663C10.1062 2.97972 10.1347 3.07362 10.1257 3.16759C10.1183 3.256 10.0778 3.33827 10.0125 3.39826C9.94711 3.45824 9.86165 3.49139 9.77294 3.49115H9.73521C7.21808 3.23886 5.72391 3.14367 3.23429 3.39597C2.25173 3.49198 2.23901 3.49258 2.2276 3.49258C2.13838 3.4926 2.0523 3.4595 1.98636 3.3994C1.92041 3.3393 1.87941 3.25672 1.87117 3.16788ZM7.29565 2.57164L7.21562 2.09716C7.1486 1.6833 7.13455 1.6021 6.63024 1.6021H5.38345C4.87856 1.6021 4.8689 1.66906 4.79807 2.09259L4.71518 2.56249C5.12494 2.542 5.51704 2.53334 5.90252 2.53334C6.36702 2.53334 6.82413 2.54617 7.29565 2.57164Z" fill="#6E7191" />
        <path d="M4.47481 11.1158C2.81408 11.1158 2.74791 10.1971 2.69523 9.45487L2.38539 4.66208C2.37983 4.56758 2.41161 4.4746 2.474 4.4034C2.53638 4.3322 2.62426 4.28826 2.71867 4.28135C3.78932 4.08512 4.87447 3.97864 5.96284 3.96294C7.07733 3.98136 8.18876 4.08781 9.28647 4.28135C9.33336 4.2844 9.37924 4.29687 9.42138 4.31765C9.46353 4.33843 9.50104 4.3672 9.532 4.40254C9.56297 4.43788 9.58668 4.47894 9.60174 4.52345C9.61681 4.56796 9.62289 4.61519 9.61975 4.66208L9.31048 9.45487C9.2578 10.1971 9.19164 11.1158 7.53033 11.1158H4.47481ZM3.40866 9.40714C3.46135 10.1304 3.47995 10.4021 4.47481 10.4021H7.53033C8.53016 10.4021 8.54877 10.1307 8.59648 9.40714L8.88117 4.99478C7.92017 4.79948 6.94334 4.693 5.96284 4.67665C5.00836 4.68973 4.05739 4.79627 3.12369 4.99478L3.40866 9.40714Z" fill="#6E7191" />
    </g>
    <defs>
        <clipPath id="clip0_30428_4105">
            <rect width="16" height="16" fill="white" />
        </clipPath>
    </defs>
</svg>