<svg width="32" height="32" viewBox="0 0 32 32" fill="none" xmlns="http://www.w3.org/2000/svg">
    <g clip-path="url(#clip0_811_41053)">
        <path d="M18.1615 7.60151C18.1615 8.79451 17.1944 9.76162 16.0014 9.76162C14.8084 9.76162 13.8413 8.79451 13.8413 7.60151C13.8413 6.40852 14.8084 5.44141 16.0014 5.44141C17.1944 5.44141 18.1615 6.40852 18.1615 7.60151Z" fill="white" />
        <path d="M18.1615 24.4024C18.1615 25.5954 17.1944 26.5625 16.0014 26.5625C14.8084 26.5625 13.8413 25.5954 13.8413 24.4024C13.8413 23.2094 14.8084 22.2422 16.0014 22.2422C17.1944 22.2422 18.1615 23.2094 18.1615 24.4024Z" fill="white" />
        <path d="M18.1615 15.6019C18.1615 16.7949 17.1944 17.762 16.0014 17.762C14.8084 17.762 13.8413 16.7949 13.8413 15.6019C13.8413 14.4089 14.8084 13.4418 16.0014 13.4418C17.1944 13.4418 18.1615 14.4089 18.1615 15.6019Z" fill="white" />
    </g>
    <defs>
        <clipPath id="clip0_811_41053">
            <rect width="32" height="32" fill="white" />
        </clipPath>
    </defs>
</svg>