<svg width="24" height="24" viewBox="0 0 24 24" fill="none" xmlns="http://www.w3.org/2000/svg">
    <path d="M13.621 5.70077C13.621 6.59552 12.8957 7.32085 12.0009 7.32085C11.1062 7.32085 10.3809 6.59552 10.3809 5.70077C10.3809 4.80602 11.1062 4.08069 12.0009 4.08069C12.8957 4.08069 13.621 4.80602 13.621 5.70077Z" fill="#2F2F3D" />
    <path d="M13.621 18.3014C13.621 19.1961 12.8957 19.9215 12.0009 19.9215C11.1062 19.9215 10.3809 19.1961 10.3809 18.3014C10.3809 17.4067 11.1062 16.6813 12.0009 16.6813C12.8957 16.6813 13.621 17.4067 13.621 18.3014Z" fill="#2F2F3D" />
    <path d="M13.621 11.7011C13.621 12.5958 12.8957 13.3212 12.0009 13.3212C11.1062 13.3212 10.3809 12.5958 10.3809 11.7011C10.3809 10.8063 11.1062 10.081 12.0009 10.081C12.8957 10.081 13.621 10.8063 13.621 11.7011Z" fill="#2F2F3D" />
</svg>
    