<svg width="24" height="24" viewBox="0 0 24 24" fill="none" xmlns="http://www.w3.org/2000/svg">
    <g clip-path="url(#clip0_30526_18184)">
        <path d="M9.60462 17.4033C9.47983 17.4037 9.3573 17.3708 9.24953 17.3079C9.18308 17.2704 9.12362 17.2217 9.07374 17.1639L7.22794 15.3175C7.09676 15.185 7.02344 15.0061 7.02344 14.8196C7.02344 14.6331 7.09676 14.4541 7.22794 14.3215C7.36037 14.1906 7.53917 14.1172 7.72543 14.1172C7.91168 14.1172 8.09048 14.1906 8.22291 14.3215L8.90029 14.9977V11.0603C8.90155 10.8739 8.97647 10.6954 9.10831 10.5636C9.24014 10.4317 9.41818 10.3571 9.60462 10.3559C9.79117 10.3571 9.97008 10.4318 10.1021 10.5636C10.2341 10.6954 10.3091 10.8738 10.3107 11.0603V14.9977L10.9869 14.3215C11.1196 14.1906 11.2986 14.1172 11.485 14.1172C11.6714 14.1172 11.8503 14.1906 11.9831 14.3215C12.1137 14.4544 12.1864 14.6333 12.1864 14.8196C12.1864 15.0059 12.1137 15.1847 11.9831 15.3175L10.1027 17.1969C10.0379 17.2624 9.96101 17.3144 9.87592 17.3498C9.79084 17.3852 9.69972 17.4034 9.60755 17.4033H9.60462Z" fill="#6E7191" />
        <path d="M14.3004 22.1014H9.60271C4.50245 22.1014 2.32031 19.9215 2.32031 14.8195V9.17926C2.32031 4.079 4.50065 1.89671 9.60271 1.89671H15.2426C20.3429 1.89671 22.525 4.0766 22.525 9.17926V14.8195C22.525 19.9197 20.3447 22.1014 15.2426 22.1014H14.3004ZM9.60271 20.692H15.2426C19.5743 20.692 21.1152 19.1511 21.1152 14.8195V9.17926C21.1152 4.84764 19.5743 3.30611 15.2426 3.30611H9.60271C5.27109 3.30611 3.73015 4.84704 3.73015 9.17926V14.8195C3.72955 19.1505 5.27109 20.692 9.60271 20.692Z" fill="#6E7191" />
    </g>
    <defs>
        <clipPath id="clip0_30526_18184">
            <rect width="24" height="24" fill="white" />
        </clipPath>
    </defs>
</svg>