<svg width="18" height="18" viewBox="0 0 18 18" fill="none" xmlns="http://www.w3.org/2000/svg">
    <path d="M2.52839 5.00413C2.43401 5.25601 2.36891 5.53791 2.33281 5.85011H2.32859C2.33597 5.88646 2.33984 5.92408 2.33984 5.96261C2.33984 6.27327 2.088 6.52511 1.77734 6.52511C1.46668 6.52511 1.21484 6.27327 1.21484 5.96261C1.21484 5.88811 1.22933 5.81699 1.25563 5.75192C1.26416 5.67916 1.27402 5.60655 1.28521 5.53411C1.32888 5.25282 1.39851 4.97617 1.49322 4.70772C1.58137 4.45896 1.69571 4.22027 1.83427 3.99565C1.96752 3.78067 2.12498 3.58168 2.30359 3.40259C2.48268 3.22398 2.68167 3.0665 2.89665 2.93324C3.12126 2.79465 3.35998 2.68032 3.60876 2.5922C3.87719 2.49746 4.15384 2.42783 4.43514 2.38421C4.7445 2.33636 5.05712 2.3128 5.37015 2.31375H12.6152C12.9282 2.3128 13.2408 2.33636 13.5502 2.38421C13.8315 2.42783 14.1082 2.49746 14.3766 2.5922C14.6254 2.68032 14.8641 2.79465 15.0887 2.93324C15.3037 3.0665 15.5027 3.22398 15.6818 3.40259C15.8604 3.58168 16.0178 3.78067 16.1511 3.99565C16.2896 4.22027 16.404 4.45896 16.4921 4.70772C16.5868 4.97617 16.6565 5.25282 16.7001 5.53411C16.748 5.84383 16.7715 6.15682 16.7704 6.47021V11.5303C16.7715 11.8437 16.748 12.1568 16.7001 12.4665C16.6565 12.7478 16.5868 13.0244 16.4921 13.2929C16.404 13.5416 16.2896 13.7803 16.1511 14.005C16.0178 14.2199 15.8603 14.4189 15.6818 14.598C15.5027 14.7766 15.3037 14.9341 15.0887 15.0674C14.8641 15.206 14.6254 15.3203 14.3766 15.4084C14.1082 15.5031 13.8315 15.5728 13.5502 15.6164C13.2405 15.6643 12.9275 15.6878 12.6141 15.6867H10.3571C10.3183 15.6951 10.2786 15.6994 10.2388 15.6994C10.1661 15.6994 10.094 15.685 10.0268 15.6572C9.95962 15.6293 9.89857 15.5885 9.84713 15.5371C9.7957 15.4857 9.7549 15.4246 9.72707 15.3574C9.69923 15.2902 9.68491 15.2181 9.68492 15.1454C9.68492 14.9985 9.74327 14.8576 9.84715 14.7537C9.95103 14.6498 10.0919 14.5915 10.2388 14.5915C10.2756 14.5915 10.3123 14.5951 10.3483 14.6023H12.6141C14.6813 14.6023 15.6863 13.5974 15.6863 11.5302V6.47015C15.6863 5.90148 15.6102 5.41321 15.457 5.00413C15.44 4.97761 15.4253 4.94954 15.4132 4.92021L15.4103 4.92147C14.9886 3.89646 14.0694 3.39809 12.5999 3.39809H5.38543C3.91598 3.39809 2.99673 3.89646 2.57501 4.92147L2.57216 4.92021C2.56 4.94954 2.54533 4.97761 2.52839 5.00413Z" fill="white" />
    <path fill-rule="evenodd" clip-rule="evenodd" d="M4.60079 6.20862C4.59979 6.19562 4.59919 6.18251 4.59919 6.16926C4.59919 5.90085 4.86586 5.68293 5.13429 5.68293C5.40272 5.68293 5.66149 5.90007 5.66149 6.1685C5.66152 6.18782 5.6604 6.20713 5.65814 6.22632V8.32292H6.58245C7.60825 8.32292 8.38841 8.69398 8.77572 9.36506C8.9437 9.65494 9.03043 9.98474 9.02677 10.3198C9.02677 10.7781 8.87943 11.2801 8.58475 11.7875L7.12812 14.3135C6.60981 15.2028 5.90047 15.6939 5.12574 15.6939C4.35102 15.6939 3.64175 15.2028 3.129 14.3135L1.67218 11.7875C1.15935 10.8982 1.08837 10.0415 1.47585 9.36506C1.86315 8.69395 2.64332 8.32292 3.66909 8.32292H4.60079V6.20862ZM2.6632 11.4429L3.97049 13.7099C4.29361 14.2729 4.705 14.5813 5.12603 14.5813C5.54707 14.5813 5.95837 14.2729 6.28151 13.7098L7.58878 11.4429C7.91192 10.8798 7.97561 10.3707 7.76508 10.0034C7.55455 9.63613 7.07952 9.43542 6.43328 9.43542H3.81872C3.17246 9.43542 2.69747 9.63613 2.48694 10.0034C2.40419 10.1531 2.36198 10.3219 2.3645 10.4929C2.3645 10.777 2.46249 11.1002 2.6632 11.4429Z" fill="white" />
</svg>
    