<svg width="18" height="18" viewBox="0 0 18 18" fill="none" xmlns="http://www.w3.org/2000/svg">
    <path d="M6.09692 16.8693C6.0905 16.8702 6.084 16.8702 6.07758 16.8693C5.84629 16.8558 5.62203 16.8355 5.41009 16.8085C5.19815 16.7815 4.98886 16.7469 4.79357 16.7059C4.59828 16.665 4.40755 16.6159 4.22846 16.561C4.05337 16.5073 3.88102 16.4444 3.71257 16.3725C3.55292 16.3043 3.39734 16.2267 3.24677 16.1403C3.10182 16.0567 2.96246 15.964 2.82931 15.8626C2.69902 15.7632 2.57533 15.6553 2.45931 15.5395C2.34344 15.4233 2.23548 15.2996 2.13589 15.1692C2.03483 15.036 1.94215 14.8965 1.85861 14.7516C1.77217 14.6009 1.69468 14.4451 1.62615 14.2854C1.55454 14.1171 1.49177 13.9451 1.43807 13.7702C1.38317 13.5902 1.33446 13.4013 1.29306 13.2051C1.25166 13.0089 1.21812 12.8 1.19067 12.5885C1.16322 12.3771 1.1431 12.1512 1.12915 11.9204C1.1152 11.6896 1.10938 11.4483 1.10938 11.2004V6.79608C1.10938 6.54724 1.1161 6.30466 1.12915 6.07607C1.1422 5.84748 1.16367 5.62019 1.19067 5.4078C1.21767 5.19542 1.25211 4.98668 1.29306 4.79139C1.33401 4.5961 1.38317 4.40482 1.43807 4.22617C1.49177 4.05128 1.55454 3.8793 1.62615 3.71094C1.6947 3.55122 1.77219 3.39562 1.85861 3.24482C1.94215 3.09995 2.03483 2.96049 2.13589 2.82725C2.23545 2.6968 2.34342 2.57309 2.45931 2.45692C2.57535 2.34105 2.69903 2.23297 2.82931 2.13338C2.96248 2.03223 3.10184 1.93966 3.24677 1.85621C3.39737 1.76983 3.55294 1.69225 3.71257 1.62397C3.88101 1.5522 4.05336 1.48943 4.22846 1.4359C4.40845 1.381 4.59693 1.33194 4.79357 1.29099C4.99021 1.25005 5.1986 1.21584 5.41009 1.18839C5.62158 1.16094 5.84675 1.14114 6.07758 1.12764C6.30842 1.11414 6.54987 1.10742 6.79781 1.10742H8.64254C10.2724 1.10742 11.4982 1.39176 12.39 1.97673C12.5017 2.05005 12.6094 2.1291 12.713 2.21347C12.8151 2.29711 12.9127 2.3862 13.0052 2.48031C13.0978 2.5747 13.1852 2.67393 13.2671 2.7777C13.3501 2.88297 13.4274 2.99246 13.4991 3.10574C13.6336 3.32033 13.7495 3.54616 13.845 3.7807C13.9044 3.87131 13.9353 3.97744 13.9346 4.08578C13.9346 4.23245 13.8766 4.37316 13.7729 4.47687C13.6692 4.58058 13.5285 4.6388 13.3818 4.6388C13.2639 4.63873 13.149 4.60109 13.054 4.53125C12.959 4.46141 12.8889 4.36298 12.8536 4.25045C12.2889 2.81952 11.0284 2.20853 8.64122 2.20853H6.79649C6.07401 2.19147 5.35228 2.27256 4.65163 2.44966C4.11874 2.58285 3.63022 2.85316 3.23402 3.23361C2.85367 3.62998 2.58351 4.11887 2.45052 4.65187C2.2732 5.35248 2.192 6.07402 2.20927 6.79652V11.2008C2.20927 12.8297 2.49379 13.9173 3.10351 14.6233C3.70198 15.3163 4.64721 15.6813 6.07319 15.7682C6.09573 15.7654 6.11859 15.7641 6.1413 15.7641C6.28797 15.7641 6.42868 15.8223 6.53239 15.926C6.63611 16.0297 6.69411 16.1705 6.69411 16.3171C6.69411 16.4638 6.63611 16.6044 6.53239 16.7081C6.42868 16.8118 6.28797 16.8701 6.1413 16.8701C6.12645 16.871 6.11132 16.8706 6.09692 16.8693Z" fill="#6E7191" />
    <path d="M4.91016 10.9263C4.91159 9.28519 5.56412 7.71175 6.72457 6.55139C7.88502 5.39102 9.45848 4.73862 11.0995 4.7373C12.7405 4.73873 14.3137 5.39125 15.4741 6.55161C16.6344 7.71196 17.2871 9.28527 17.2885 10.9263C17.2871 12.5672 16.6344 14.1407 15.4741 15.301C14.3137 16.4614 12.7405 17.1138 11.0995 17.1152C9.45848 17.1139 7.88502 16.4615 6.72457 15.3011C5.56412 14.1408 4.91159 12.5673 4.91016 10.9263ZM5.98325 10.9263C5.9848 12.2827 6.52432 13.5832 7.48346 14.5423C8.44261 15.5015 9.74311 16.041 11.0995 16.0426C12.4559 16.0409 13.7561 15.5012 14.7152 14.5421C15.6742 13.583 16.2139 12.2826 16.2154 10.9263C16.2139 9.56989 15.6742 8.26953 14.7152 7.31039C13.7561 6.35126 12.4559 5.81173 11.0995 5.81007C9.74311 5.81161 8.44261 6.35114 7.48346 7.31028C6.52432 8.26943 5.9848 9.56982 5.98325 10.9263ZM13.0581 13.1496C13.0436 13.1426 13.0297 13.1346 13.0163 13.1257L11.2318 12.0606C11.0037 11.9125 10.8146 11.7117 10.6803 11.4752C10.546 11.2387 10.4706 10.9735 10.4602 10.7017V8.21112C10.46 8.12665 10.4816 8.0435 10.523 7.96987C10.5644 7.89624 10.6239 7.83458 10.6961 7.7908C10.7811 7.73058 10.8829 7.69817 10.987 7.69808C11.1206 7.69844 11.2486 7.75136 11.3434 7.84529C11.4448 7.94159 11.5071 8.07178 11.5188 8.21112V10.5716C11.5296 10.6935 11.5667 10.8117 11.6273 10.918C11.6879 11.0243 11.7705 11.1163 11.8699 11.1877L13.574 12.2047C13.6745 12.245 13.7607 12.3145 13.8214 12.4043C13.8821 12.494 13.9145 12.5998 13.9145 12.7081C13.9145 12.7792 13.9005 12.8497 13.8732 12.9153C13.846 12.981 13.8058 13.0406 13.7555 13.0908C13.7051 13.141 13.6455 13.1807 13.5797 13.2077C13.5139 13.2347 13.4434 13.2484 13.3723 13.2481C13.2598 13.2486 13.1499 13.214 13.0581 13.1491V13.1496Z" fill="#6E7191" />
</svg>
    