<svg width="24" height="24" viewBox="0 0 24 24" fill="none" xmlns="http://www.w3.org/2000/svg">
    <g clip-path="url(#clip0_31558_28531)">
        <path d="M10.8845 20.5717H8.49198C4.9914 20.5717 3.42981 19.0116 3.42981 15.5092V12.4791C3.42981 8.97909 4.98959 7.41602 8.49256 7.41602H11.5226C15.0232 7.41602 16.5853 8.97609 16.5853 12.4791V15.5092C16.5853 19.0092 15.0256 20.5723 11.5226 20.5723L10.8845 20.5717ZM8.49198 19.3757H11.522C14.377 19.3757 15.3882 18.3635 15.3882 15.5085V12.4785C15.3882 9.62413 14.3764 8.61124 11.522 8.61124H8.49198C5.63763 8.61124 4.62577 9.62413 4.62577 12.4785V15.5085C4.62517 18.3629 5.63763 19.3746 8.49198 19.3746V19.3757Z" fill="#2F2F3D" />
        <path d="M18.6637 15.4015C18.5773 15.3355 18.6008 15.2558 18.5822 15.1364V14.5363C18.5901 14.4251 18.6176 14.3163 18.6637 14.2148C18.7148 14.1217 18.7849 14.0399 18.8688 13.9747C19.1855 13.641 19.3619 13.1987 19.3627 12.7386V6.39815C19.3546 6.35866 19.3507 6.31849 19.3504 6.27817C19.3502 5.94857 19.2511 5.62661 19.0657 5.3541C18.8802 5.08159 18.6169 4.87104 18.3103 4.74982C18.1286 4.68265 17.9363 4.64835 17.7425 4.64845C17.7022 4.64826 17.6625 4.64404 17.623 4.63585H11.2852C10.8248 4.63666 10.3826 4.81378 10.0488 5.13085C9.98329 5.21426 9.90143 5.28369 9.80856 5.33491C9.70686 5.38116 9.5977 5.40897 9.48628 5.41709H8.88625C8.76624 5.39849 8.68739 5.42192 8.62139 5.33491C8.59558 5.29572 8.58154 5.24985 8.58154 5.20292C8.58154 5.156 8.59558 5.11012 8.62139 5.07093C8.70216 4.91328 8.79655 4.76305 8.90382 4.62208C9.08608 4.38217 9.30367 4.1712 9.54897 3.99627C9.79595 3.81896 10.0686 3.68067 10.3576 3.58639C10.6573 3.48867 10.9705 3.43913 11.2858 3.43946H17.7461C18.125 3.43893 18.5001 3.51494 18.8489 3.66315C19.0168 3.7351 19.1774 3.82291 19.3288 3.92537C19.4795 4.0275 19.6203 4.1439 19.7489 4.27285C19.765 4.28835 19.7766 4.30779 19.7829 4.32925C19.8898 4.44253 19.9875 4.5643 20.0747 4.69342C20.1776 4.84458 20.2653 5.00537 20.3372 5.17348C20.4851 5.52231 20.5611 5.89751 20.5605 6.27641V12.7363C20.5608 13.0513 20.5113 13.3643 20.414 13.6638C20.3195 13.953 20.1816 14.2261 20.0044 14.4734C19.8295 14.7184 19.6188 14.9356 19.3792 15.1178C19.238 15.2251 19.0876 15.3196 18.9297 15.4004C18.8852 15.4251 18.8353 15.4392 18.7844 15.4412C18.7409 15.4419 18.6983 15.4279 18.6637 15.4015V15.4015Z" fill="#2F2F3D" />
    </g>
    <defs>
        <clipPath id="clip0_31558_28531">
            <rect width="24" height="24" fill="white" />
        </clipPath>
    </defs>
</svg>