<svg width="16" height="16" viewBox="0 0 12 12" fill="none" xmlns="http://www.w3.org/2000/svg">
    <g clip-path="url(#clip0_30440_12653)">
        <path d="M5.44218 10.2857H4.24593C2.49564 10.2857 1.71484 9.5057 1.71484 7.75452V6.23942C1.71484 4.48944 2.49473 3.7079 4.24622 3.7079H5.76124C7.51153 3.7079 8.29261 4.48794 8.29261 6.23942V7.75452C8.29261 9.5045 7.51273 10.286 5.76124 10.286L5.44218 10.2857ZM4.24593 9.68777H5.76094C7.18842 9.68777 7.69405 9.18162 7.69405 7.75415V6.23913C7.69405 4.81196 7.18812 4.30551 5.76094 4.30551H4.24593C2.81876 4.30551 2.31282 4.81196 2.31282 6.23913V7.75415C2.31252 9.18132 2.81876 9.68718 4.24593 9.68718V9.68777Z" fill="#6E7191" />
        <path d="M9.33209 7.70075C9.28889 7.66775 9.30066 7.62788 9.29136 7.56817V7.26816C9.2953 7.21256 9.30904 7.15814 9.33209 7.10738C9.35766 7.06083 9.39272 7.01995 9.43463 6.98733C9.59299 6.82048 9.68122 6.59932 9.68162 6.36929V3.19906C9.67756 3.17931 9.67559 3.15923 9.67547 3.13907C9.67535 2.97427 9.62578 2.81329 9.53308 2.67704C9.44037 2.54078 9.30867 2.4355 9.15542 2.3749C9.06457 2.34131 8.96838 2.32416 8.87152 2.32421C8.85136 2.32411 8.83149 2.322 8.81175 2.31791H5.64284C5.41266 2.31831 5.19152 2.40687 5.02465 2.56541C4.99189 2.60711 4.95096 2.64183 4.90452 2.66744C4.85367 2.69056 4.79909 2.70447 4.74338 2.70853H4.44337C4.38336 2.69923 4.34394 2.71094 4.31094 2.66744C4.29803 2.64785 4.29102 2.62491 4.29102 2.60145C4.29102 2.57798 4.29803 2.55505 4.31094 2.53545C4.35132 2.45662 4.39852 2.38151 4.45216 2.31103C4.54329 2.19107 4.65208 2.08558 4.77473 1.99812C4.89822 1.90946 5.03452 1.84032 5.17905 1.79318C5.3289 1.74432 5.48552 1.71955 5.64313 1.71971H8.87328C9.06275 1.71945 9.25029 1.75746 9.42467 1.83156C9.50866 1.86754 9.58897 1.91144 9.66463 1.96267C9.74001 2.01374 9.8104 2.07193 9.87469 2.13641C9.88275 2.14416 9.88854 2.15388 9.89169 2.16461C9.94516 2.22125 9.99402 2.28213 10.0376 2.3467C10.089 2.42227 10.1329 2.50267 10.1688 2.58672C10.2428 2.76114 10.2808 2.94874 10.2805 3.13819V6.36811C10.2807 6.52561 10.2559 6.68212 10.2072 6.83191C10.16 6.97649 10.091 7.11302 10.0024 7.23666C9.91501 7.35917 9.80963 7.46779 9.68982 7.55887C9.61924 7.61252 9.54404 7.65979 9.4651 7.70016C9.44284 7.71256 9.41791 7.71958 9.39244 7.7206C9.37069 7.72095 9.3494 7.71393 9.33209 7.70075Z" fill="#6E7191" />
    </g>
    <defs>
        <clipPath id="clip0_30440_12653">
            <rect width="16" height="16" fill="white" />
        </clipPath>
    </defs>
</svg>