<svg width="16" height="16" viewBox="0 0 18 18" fill="none" xmlns="http://www.w3.org/2000/svg">
    <g clip-path="url(#clip0_30621_23019)">
        <path d="M3.51184 16.8023C2.89562 16.8094 2.30075 16.5753 1.85462 16.1501C1.59854 15.8947 1.4094 15.5801 1.30353 15.2343C1.19346 14.8716 1.16846 14.4884 1.23058 14.1145L1.61027 11.4268C1.66418 11.1008 1.76826 10.7851 1.91834 10.4907C2.06151 10.1915 2.25107 9.91692 2.47997 9.67682L9.52458 2.63221C10.4755 1.68134 11.4572 1.19824 12.4404 1.19824C13.0088 1.20564 13.5666 1.35497 14.0629 1.63199C14.5461 1.89995 14.9871 2.2368 15.373 2.63221C15.8496 3.09004 16.2361 3.63314 16.5121 4.23362C16.7429 4.74818 16.8369 5.31392 16.7845 5.87546C16.7396 6.33738 16.5983 6.78472 16.3697 7.18858C16.0988 7.66381 15.763 8.09922 15.3725 8.48236L8.32924 15.5261C7.83986 15.9791 7.23242 16.2849 6.5771 16.4085L3.88934 16.7882C3.82588 16.7882 3.75662 16.7917 3.70037 16.7953C3.64411 16.7989 3.57529 16.8023 3.51184 16.8023ZM12.4088 2.30613C11.9949 2.33035 11.5903 2.43699 11.2183 2.61991C10.8462 2.80283 10.5146 3.058 10.2427 3.37095L3.05831 10.514C2.72108 10.8753 2.49628 11.3274 2.41186 11.8144L2.12972 13.8113C2.08167 14.0819 2.09887 14.3602 2.17938 14.623C2.25989 14.8858 2.40153 15.1258 2.59292 15.3231C2.92455 15.6381 3.36561 15.8115 3.82298 15.8065C3.86798 15.8065 3.92174 15.8035 3.96404 15.8008H3.96844C4.01344 15.8008 4.0615 15.7955 4.10335 15.7955L6.09984 15.5142C6.58635 15.4218 7.03696 15.1946 7.40065 14.8585L14.5872 7.7155C15.1547 7.21504 15.5256 6.52933 15.6345 5.78053C15.7164 4.95971 15.3648 4.149 14.5872 3.37183C14.3136 3.058 13.9798 2.80211 13.6059 2.61903C13.2319 2.43595 12.8249 2.32977 12.4092 2.30613H12.4088Z" fill="#2F2F3D" />
        <path d="M13.6502 9.784C13.5587 9.78448 13.4678 9.77089 13.3804 9.74357C12.1623 9.3969 11.0528 8.74498 10.1573 7.84948C9.26184 6.95397 8.60993 5.84451 8.26326 4.62645C8.19412 4.37707 8.22134 4.111 8.34016 3.88112C8.45899 3.65123 8.66057 3.47454 8.90399 3.38672C8.88676 3.52155 8.89632 3.65826 8.93256 3.78927C9.27918 5.00731 9.93113 6.11686 10.8266 7.0123C11.7222 7.90774 12.8316 8.55944 14.0497 8.90595C14.137 8.93379 14.2283 8.94811 14.3199 8.9477C14.4347 8.94777 14.5486 8.92759 14.6566 8.88881C14.6502 8.93888 14.6404 8.98852 14.6276 9.03735C14.5688 9.25159 14.4416 9.44084 14.265 9.57569C14.0885 9.71055 13.8724 9.78365 13.6502 9.784Z" fill="#2F2F3D" />
    </g>
    <defs>
        <clipPath id="clip0_30621_23019">
            <rect width="18" height="18" fill="white" />
        </clipPath>
    </defs>
</svg>