<svg width="18" height="19" viewBox="0 0 18 19" fill="none" xmlns="http://www.w3.org/2000/svg">
    <g clip-path="url(#clip0_516_9172)">
        <path fill-rule="evenodd" clip-rule="evenodd" d="M2.95328 9.802L3.86993 10.4006L3.86299 13.6604C3.88195 14.2518 4.07659 14.8241 4.42209 15.3045C4.76758 15.7849 5.24829 16.1515 5.80294 16.3576L8.10334 17.1226C8.39462 17.2131 8.69836 17.257 9.00334 17.2527C9.30853 17.2556 9.61256 17.2145 9.90604 17.1308L12.2064 16.3658C12.7595 16.1572 13.2387 15.79 13.5838 15.3101C13.9289 14.8302 14.1247 14.2591 14.1464 13.6684V10.3979L15.0551 9.80151C15.1194 9.75947 15.1818 9.71494 15.2422 9.66804V11.6646C15.2428 11.8076 15.3001 11.9445 15.4015 12.0453C15.5031 12.1463 15.6398 12.2042 15.7831 12.2068C15.927 12.2046 16.0644 12.1467 16.1665 12.0453C16.2679 11.9445 16.3252 11.8076 16.3258 11.6646V7.69599C16.3342 7.60742 16.3384 7.51829 16.3384 7.4289C16.3384 6.95795 16.2211 6.49446 15.997 6.08022C15.773 5.66598 15.4493 5.31406 15.0551 5.05629L10.7351 2.22127C10.2167 1.91068 9.6238 1.74615 9.01941 1.74512C8.41502 1.74409 7.82161 1.90663 7.30208 2.21545L2.95328 5.04234C2.55715 5.3003 2.23168 5.65305 2.00638 6.06863C1.78108 6.4842 1.66309 6.94943 1.66309 7.42214C1.66309 7.89486 1.78108 8.36008 2.00638 8.77566C2.23168 9.19123 2.55715 9.54404 2.95328 9.802ZM9.01118 13.1072C8.40625 13.115 7.81139 12.952 7.29488 12.637L4.95203 11.1071L4.94659 13.6604C4.96991 14.0242 5.09523 14.374 5.30821 14.6699C5.52118 14.9658 5.81319 15.1958 6.15079 15.3334L8.45119 16.0985C8.81528 16.1936 9.1977 16.1936 9.56179 16.0985L11.8622 15.3334C12.1992 15.1973 12.4911 14.9689 12.7041 14.6743C12.9171 14.3798 13.0427 14.0311 13.0664 13.6684V11.1066L10.7351 12.6365C10.2177 12.956 9.61914 13.1194 9.01118 13.1072Z" fill="#2F2F3D" />
    </g>
    <defs>
        <clipPath id="clip0_516_9172">
            <rect width="18" height="18" fill="white" transform="translate(0 0.5)" />
        </clipPath>
    </defs>
</svg>
    