<svg width="16" height="16" viewBox="0 0 16 16" fill="none" xmlns="http://www.w3.org/2000/svg">
    <g opacity="0.8" clip-path="url(#clip0_30429_12706)">
        <path d="M8.01015 11.2065C7.47244 11.2134 6.94368 11.0685 6.48455 10.7885L2.62535 8.26851C2.27324 8.03921 1.98393 7.7256 1.78367 7.3562C1.5834 6.9868 1.47852 6.57327 1.47852 6.15308C1.47852 5.73289 1.5834 5.31935 1.78367 4.94995C1.98393 4.58055 2.27324 4.267 2.62535 4.0377L6.49095 1.52491C6.95276 1.2504 7.48024 1.10592 8.01747 1.10684C8.55471 1.10775 9.08168 1.254 9.54255 1.53008L13.3826 4.0501C13.7329 4.27923 14.0206 4.59204 14.2198 4.96026C14.419 5.32847 14.5232 5.74046 14.5232 6.15908C14.5232 6.5777 14.419 6.98975 14.2198 7.35796C14.0206 7.72617 13.7329 8.03894 13.3826 8.26807L9.54255 10.7881C9.08263 11.072 8.55056 11.2173 8.01015 11.2065ZM8.01015 2.07007C7.66038 2.06002 7.31521 2.15175 7.01655 2.33408L3.15735 4.84688C2.93952 4.98853 2.76053 5.18236 2.63662 5.41074C2.5127 5.63913 2.4478 5.89485 2.4478 6.15469C2.4478 6.41453 2.5127 6.67025 2.63662 6.89863C2.76053 7.12702 2.93952 7.32085 3.15735 7.4625L7.01655 9.98247C7.32196 10.1539 7.66632 10.244 8.01655 10.244C8.36679 10.244 8.71115 10.1539 9.01655 9.98247L12.8578 7.46089C13.0745 7.31846 13.2525 7.12438 13.3757 6.8961C13.4989 6.66781 13.5633 6.41247 13.5633 6.15308C13.5633 5.89369 13.4989 5.6384 13.3757 5.41011C13.2525 5.18182 13.0745 4.98774 12.8578 4.84531L9.01776 2.3253C8.71117 2.15157 8.36369 2.06304 8.01135 2.0689L8.01015 2.07007Z" fill="#6E7191" />
        <path d="M8.00279 14.8913C7.7317 14.8951 7.46171 14.8561 7.20279 14.7757L5.15799 14.0957C4.66497 13.9125 4.23768 13.5866 3.93057 13.1596C3.62346 12.7326 3.45045 12.2238 3.43359 11.6981L3.43999 8.69291C3.44053 8.56581 3.49145 8.44408 3.58159 8.35448C3.62563 8.30875 3.67844 8.27239 3.73686 8.24755C3.79528 8.2227 3.85811 8.2099 3.92159 8.2099C3.98508 8.2099 4.04791 8.2227 4.10633 8.24755C4.16475 8.27239 4.21756 8.30875 4.2616 8.35448C4.35174 8.44408 4.40266 8.56581 4.4032 8.69291L4.39679 11.6981C4.41752 12.0215 4.52892 12.3325 4.71823 12.5955C4.90754 12.8585 5.16711 13.0629 5.4672 13.1852L7.512 13.8653C7.83563 13.9499 8.17556 13.9499 8.4992 13.8653L10.544 13.1852C10.8436 13.0643 11.103 12.8612 11.2923 12.5994C11.4817 12.3376 11.5933 12.0277 11.6144 11.7053V8.7309C11.6144 8.60359 11.665 8.48151 11.755 8.39149C11.845 8.30147 11.9671 8.25087 12.0944 8.25087C12.2217 8.25087 12.3438 8.30147 12.4338 8.39149C12.5238 8.48151 12.5744 8.60359 12.5744 8.7309V11.7053C12.5551 12.2303 12.3811 12.738 12.0743 13.1645C11.7675 13.5911 11.3416 13.9176 10.85 14.1029L8.8052 14.7829C8.54432 14.8574 8.27408 14.8939 8.00279 14.8913Z" fill="#6E7191" />
        <path d="M14.0296 10.4061C13.9023 10.4037 13.7808 10.3523 13.6904 10.2625C13.6003 10.1729 13.5494 10.0512 13.5488 9.9241V6.07767C13.5494 5.95057 13.6003 5.82889 13.6904 5.73929C13.7345 5.69356 13.7873 5.6572 13.8457 5.63235C13.9041 5.60751 13.9669 5.59466 14.0304 5.59466C14.0939 5.59466 14.1567 5.60751 14.2152 5.63235C14.2736 5.6572 14.3264 5.69356 14.3704 5.73929C14.4606 5.82889 14.5115 5.95057 14.512 6.07767V9.9241C14.5115 10.0512 14.4606 10.1729 14.3704 10.2625C14.2797 10.3526 14.1575 10.4041 14.0296 10.4061Z" fill="#6E7191" />
    </g>
    <defs>
        <clipPath id="clip0_30429_12706">
            <rect width="16" height="16" fill="white" />
        </clipPath>
    </defs>
</svg>