<svg width="18" height="19" viewBox="0 0 18 19" fill="none" xmlns="http://www.w3.org/2000/svg">
    <g clip-path="url(#clip0_840_8181)">
        <path d="M4.0403 6.82401C7.3037 9.46686 7.35431 9.4953 7.40651 9.51555C7.87171 9.84298 8.4276 10.0161 8.99645 10.0105C9.56187 10.0173 10.1153 9.8456 10.5776 9.51994C10.6343 9.49969 10.6887 9.46956 13.9561 6.82401C14.0681 6.73315 14.1392 6.60158 14.1543 6.45816C14.1694 6.31474 14.1272 6.17121 14.0365 6.05903C13.9457 5.94703 13.8143 5.87572 13.6709 5.86061C13.5275 5.84551 13.3836 5.88788 13.2715 5.9785L10.0098 8.59478C9.71483 8.80978 9.35929 8.92558 8.99426 8.92558C8.62922 8.92558 8.27368 8.80978 7.97868 8.59478L4.72497 5.9785C4.61278 5.88788 4.46893 5.84551 4.32551 5.86061C4.18209 5.87572 4.05073 5.94703 3.95988 6.05903C3.86938 6.17126 3.82701 6.31478 3.84211 6.45816C3.8572 6.60154 3.92841 6.73308 4.0403 6.82401Z" fill="#2F2F3D" />
        <path fill-rule="evenodd" clip-rule="evenodd" d="M5.38541 16.0684H12.6138C15.2521 16.0684 16.7704 14.5501 16.7704 11.9118V6.85196C16.7704 4.21316 15.2521 2.69531 12.6138 2.69531H5.38541C2.74661 2.69531 1.22876 4.21316 1.22876 6.85196V11.9118C1.22876 14.5501 2.74661 16.0684 5.38541 16.0684ZM2.31326 6.85196C2.31326 4.78421 3.31766 3.77981 5.38541 3.77981H12.6138C14.6811 3.77981 15.6859 4.78466 15.6859 6.85196V11.9118C15.6859 13.9791 14.6811 14.9839 12.6138 14.9839H5.38541C3.31811 14.9839 2.31326 13.9791 2.31326 11.9118V6.85196Z" fill="#2F2F3D" />
    </g>
    <defs>
        <clipPath id="clip0_840_8181">
            <rect width="18" height="18" fill="white" transform="translate(0 0.382812)" />
        </clipPath>
    </defs>
</svg>
    