<svg width="75" height="75" fill="none" xmlns="http://www.w3.org/2000/svg">
    <path d="M53.104 46.628h-.201c-3.063 5.517-8.806 9.236-15.405 9.236-9.82 0-17.781-8.222-17.781-18.364 0-10.142 7.961-18.364 17.781-18.364 8.663 0 15.87 6.4 17.451 14.868H25.846v6.38h35.562c.107-.947.17-1.907.17-2.884 0-13.734-10.78-24.868-24.078-24.868S13.421 23.766 13.421 37.5c0 13.734 10.781 24.868 24.079 24.868 8.966 0 16.776-5.066 20.92-12.572l-5.316-3.168Z" fill="#3D3C56" />
    <path d="M63.722 10.702a6.255 6.255 0 0 0-5.77-8.673 6.23 6.23 0 0 0-4.229 1.655A37.316 37.316 0 0 0 37.5 0C16.789 0 0 16.789 0 37.5S16.789 75 37.5 75 75 58.211 75 37.5c0-10.501-4.323-19.991-11.278-26.798Zm-5.877-6.541a4.218 4.218 0 1 1 0 8.435 4.218 4.218 0 0 1 0-8.435ZM37.5 70.11c-18.01 0-32.61-14.6-32.61-32.611 0-18.01 14.6-32.61 32.61-32.61 5.093 0 9.911 1.168 14.205 3.25-.002.048-.007.094-.007.142 0 3.455 2.8 6.256 6.255 6.256.799 0 1.558-.155 2.26-.427 6.103 5.926 9.899 14.212 9.899 23.39C70.11 55.51 55.51 70.11 37.5 70.11Z" fill="#67CCE5" />
</svg>