<svg width="74" height="30" viewBox="0 0 74 30" fill="none" xmlns="http://www.w3.org/2000/svg">
    <path d="M38.5978 9.13672V20.6546H36.2594L30.5466 11.4873H30.4874L30.517 11.9868C30.6058 12.927 30.6354 13.8085 30.6354 14.6606V20.6546H28.9186V9.13672H31.2274L36.9106 18.2746H36.9698C36.881 16.7761 36.881 15.7477 36.881 15.1895V9.13672H38.5978Z" fill="#333366" />
    <path d="M45.8498 16.2766L48.277 9.13672H50.2602L46.1754 20.6546H44.1922L40.137 9.13672H42.0906L44.5178 16.306C44.6362 16.6292 44.7546 17.0406 44.9026 17.5695C45.0506 18.069 45.1394 18.5097 45.1986 18.8329C45.2874 18.4215 45.3762 17.9514 45.5242 17.4225C45.6722 16.8643 45.761 16.5117 45.8498 16.2766Z" fill="#333366" />
    <path d="M53.6641 20.6546H51.7697V9.13672H53.6641V20.6546Z" fill="#333366" />
    <path d="M58.6373 16.071V20.684H56.7429V9.13672H59.9989C61.5085 9.13672 62.6037 9.40116 63.3141 9.95942C64.0541 10.5177 64.4093 11.3698 64.4093 12.4863C64.4093 13.926 63.6693 14.9544 62.1597 15.5421L65.4157 20.6546H63.2549L60.4725 16.0416L58.6373 16.071ZM58.6373 10.7527V14.5137H59.9693C60.8277 14.5137 61.4789 14.3374 61.8933 14.0436C62.3077 13.7204 62.4853 13.2502 62.4853 12.6038C62.4853 11.9574 62.2781 11.4873 61.8637 11.1935C61.4493 10.8997 60.7981 10.7527 59.9101 10.7527H58.6373V10.7527Z" fill="#333366" />
    <path d="M73.6736 19.068V20.6546H67.1024V9.13672H73.6736V10.7234H69.0264V13.8673H73.4072V15.4245H69.0264V19.0386L73.6736 19.068Z" fill="#333366" />
    <path d="M19.4174 17.865H19.3582C18.2334 19.8043 16.1318 21.1265 13.7046 21.1265C10.0638 21.1265 7.13339 18.2176 7.13339 14.633C7.13339 11.0483 10.0638 8.13948 13.675 8.13948C16.8422 8.13948 19.5062 10.4019 20.0982 13.3989H9.38299V15.6614H19.9502H20.1278H22.4662C22.4958 15.3382 22.5254 14.9856 22.5254 14.633C22.5254 9.78489 18.559 5.84766 13.675 5.84766C8.79099 5.84766 4.82458 9.78489 4.82458 14.633C4.82458 19.4811 8.79099 23.4183 13.675 23.4183C16.9606 23.4183 19.8614 21.626 21.371 18.9816L19.4174 17.865Z" fill="#333366" />
    <path d="M22.9984 5.13985C23.1168 4.87541 23.176 4.58158 23.176 4.28776C23.176 3.0537 22.1696 2.08408 20.956 2.08408C20.364 2.08408 19.8608 2.28976 19.4464 2.67173C17.7 1.81964 15.7464 1.37891 13.6448 1.37891C6.27443 1.37891 0.324829 7.31414 0.324829 14.6303C0.324829 21.9466 6.30403 27.8818 13.6744 27.8818C21.0744 27.8818 27.024 21.9466 27.024 14.6303C27.024 10.8988 25.4848 7.5492 22.9984 5.13985ZM20.9264 2.81864C21.7552 2.81864 22.436 3.49444 22.436 4.31714C22.436 5.13985 21.7552 5.81564 20.9264 5.81564C20.0976 5.81564 19.4168 5.13985 19.4168 4.31714C19.4168 3.49444 20.0976 2.81864 20.9264 2.81864ZM13.6744 26.1482C7.25123 26.1482 2.07123 21.0063 2.07123 14.6303C2.07123 8.25438 7.28083 3.11247 13.6744 3.11247C15.48 3.11247 17.1968 3.52382 18.736 4.25838C18.736 4.28776 18.736 4.28776 18.736 4.31714C18.736 5.5512 19.7424 6.52082 20.956 6.52082C21.2224 6.52082 21.5184 6.46205 21.7552 6.37391C23.916 8.46005 25.2776 11.3983 25.2776 14.6597C25.2776 21.0063 20.0976 26.1482 13.6744 26.1482Z" fill="#6ACCE5" />
</svg>
    