<?xml version="1.0" encoding="utf-8"?>
<!-- Generator: Adobe Illustrator 26.0.2, SVG Export Plug-In . SVG Version: 6.00 Build 0)  -->
<svg version="1.1" width="64" height="64" id="Layer_1" xmlns="http://www.w3.org/2000/svg" xmlns:xlink="http://www.w3.org/1999/xlink" x="0px" y="0px"
	 viewBox="0 0 64 64" style="enable-background:new 0 0 64 64;" xml:space="preserve">
<style type="text/css">
	.st0{fill:#FFFFFF;stroke:#FFFFFF;stroke-miterlimit:10;}
	.st1{fill:#67CCE5;}
</style>
<path className="st0" d="M45.7,39.8h-0.2c-2.7,4.7-7.8,7.9-13.6,7.9c-8.7,0-15.7-7-15.7-15.7s7-15.7,15.7-15.7c7.6,0,14,5.5,15.4,12.7
	H21.7v5.4H47h0.4h5.6c0.1-0.8,0.2-1.6,0.2-2.5c0-11.7-9.5-21.2-21.2-21.2S10.8,20.3,10.8,32S20.3,53.2,32,53.2
	c7.9,0,14.8-4.3,18.4-10.7L45.7,39.8z"/>
<path className="st1" d="M54.4,9.1c0.3-0.6,0.4-1.3,0.4-2.1c0-2.9-2.4-5.3-5.3-5.3c-1.4,0-2.7,0.5-3.6,1.4C41.7,1.1,37,0,32,0
	C14.3,0,0,14.3,0,32s14.3,32,32,32s32-14.3,32-32C64,23,60.3,14.9,54.4,9.1z M49.4,3.5c2,0,3.6,1.6,3.6,3.6s-1.6,3.6-3.6,3.6
	c-2,0-3.6-1.6-3.6-3.6S47.4,3.5,49.4,3.5z M32,59.8C16.6,59.8,4.2,47.4,4.2,32S16.6,4.2,32,4.2c4.3,0,8.5,1,12.1,2.8
	c0,0,0,0.1,0,0.1c0,2.9,2.4,5.3,5.3,5.3c0.7,0,1.3-0.1,1.9-0.4c5.2,5.1,8.4,12.1,8.4,20C59.8,47.4,47.4,59.8,32,59.8z"/>
</svg>
