<svg width="16" height="16" viewBox="0 0 14 14" fill="none" xmlns="http://www.w3.org/2000/svg">
    <g clip-path="url(#clip0_31485_57)">
        <path d="M6.99975 13.0329C5.80654 13.0329 4.64014 12.6791 3.64802 12.0162C2.65591 11.3533 1.88265 10.4111 1.42603 9.3087C0.969411 8.20633 0.849938 6.9933 1.08272 5.82302C1.3155 4.65275 1.89009 3.57778 2.73381 2.73405C3.57753 1.89033 4.6525 1.31575 5.82278 1.08297C6.99306 0.850182 8.20608 0.969655 9.30846 1.42627C10.4108 1.88289 11.3531 2.65615 12.016 3.64827C12.6789 4.64038 13.0327 5.80679 13.0327 6.99999C13.0313 8.59961 12.3953 10.1333 11.2642 11.2644C10.1331 12.3955 8.59936 13.0316 6.99975 13.0329V13.0329ZM6.99975 1.80879C5.97303 1.80879 4.96936 2.11325 4.11567 2.68367C3.26199 3.25409 2.59662 4.06484 2.20371 5.01341C1.8108 5.96198 1.70799 7.00575 1.9083 8.01275C2.1086 9.01974 2.60301 9.94472 3.32902 10.6707C4.05502 11.3967 4.98 11.8911 5.987 12.0914C6.99399 12.2918 8.03777 12.1889 8.98634 11.796C9.9349 11.4031 10.7457 10.7378 11.3161 9.88407C11.8865 9.03038 12.191 8.02672 12.191 6.99999C12.1893 5.62371 11.6418 4.30428 10.6686 3.3311C9.69546 2.35792 8.37603 1.81046 6.99975 1.80879V1.80879Z" fill="#f37070" />
        <path d="M7.00008 7.98217C6.88888 7.98116 6.78253 7.9365 6.70396 7.8578C6.62539 7.7791 6.5809 7.67267 6.58008 7.56147V4.75447C6.58108 4.64339 6.62566 4.53715 6.7042 4.4586C6.78275 4.38005 6.889 4.33548 7.00008 4.33447C7.11116 4.33548 7.2174 4.38005 7.29595 4.4586C7.3745 4.53715 7.41907 4.64339 7.42008 4.75447V7.56147C7.41926 7.67267 7.37476 7.7791 7.2962 7.8578C7.21763 7.9365 7.11128 7.98116 7.00008 7.98217Z" fill="#f37070" />
        <path d="M6.99945 9.80626C6.92616 9.80542 6.85374 9.7902 6.7863 9.76146C6.71833 9.73296 6.65571 9.69307 6.60115 9.64351C6.55054 9.58916 6.51086 9.52559 6.48425 9.45626C6.45591 9.3898 6.4407 9.31849 6.43945 9.24626C6.44006 9.17237 6.45529 9.09934 6.48425 9.03136C6.51276 8.96339 6.55265 8.90077 6.6022 8.84621C6.65676 8.79665 6.71938 8.75676 6.78735 8.72826C6.924 8.67196 7.07736 8.67196 7.214 8.72826C7.28198 8.75676 7.34459 8.79665 7.39915 8.84621C7.44871 8.90077 7.4886 8.96339 7.5171 9.03136C7.54584 9.09879 7.56106 9.17121 7.5619 9.24451C7.56106 9.31781 7.54584 9.39023 7.5171 9.45766C7.48995 9.52633 7.44991 9.58918 7.39915 9.64281C7.34459 9.69237 7.28198 9.73226 7.214 9.76076C7.14618 9.78992 7.07327 9.80538 6.99945 9.80626Z" fill="#f37070" />
    </g>
    <defs>
        <clipPath id="clip0_31485_57">
            <rect width="14" height="14" fill="white" />
        </clipPath>
    </defs>
</svg>