<svg width="18" height="19" viewBox="0 0 18 19" fill="none" xmlns="http://www.w3.org/2000/svg">
    <g clip-path="url(#clip0_898_60699)">
        <path d="M16.1269 15.7236H12.9108C12.835 15.7239 12.7597 15.709 12.6898 15.6797C12.6198 15.6504 12.5564 15.6073 12.5034 15.553C12.45 15.5 12.4076 15.437 12.3786 15.3674C12.3497 15.2979 12.3347 15.2233 12.3347 15.148V11.0592C12.3347 10.9828 12.3502 10.9071 12.38 10.8368C12.4092 10.7669 12.4512 10.7032 12.5043 10.6491C12.5582 10.5961 12.6215 10.5537 12.6911 10.5241C12.7608 10.4944 12.8359 10.479 12.9117 10.479H15.3895C15.562 10.4801 15.7328 10.5145 15.8922 10.5803C16.0527 10.645 16.1981 10.7424 16.319 10.8661C16.4409 10.9874 16.5378 11.1314 16.6042 11.29C16.6697 11.4495 16.7033 11.6202 16.7035 11.7926V15.1489C16.7034 15.2242 16.6885 15.2988 16.6596 15.3683C16.6306 15.4378 16.5882 15.5009 16.5347 15.554C16.4816 15.6082 16.4181 15.6511 16.348 15.6802C16.2779 15.7094 16.2028 15.7242 16.1269 15.7236ZM10.6058 15.7236H7.39015C7.3143 15.7239 7.23905 15.709 7.16909 15.6797C7.09913 15.6504 7.03577 15.6073 6.98276 15.553C6.92941 15.4999 6.88727 15.4368 6.85838 15.3673C6.8295 15.2978 6.81444 15.2233 6.81444 15.148V4.5914C6.8141 4.41907 6.84777 4.24839 6.91376 4.08919C6.97977 3.92899 7.07646 3.78322 7.19854 3.66026C7.32077 3.53946 7.4657 3.44389 7.62483 3.379C7.78375 3.31084 7.95511 3.27629 8.12803 3.27737H9.87978C10.0526 3.27625 10.2238 3.3108 10.3825 3.379C10.5419 3.44373 10.687 3.53931 10.8093 3.66026C10.9312 3.78331 11.0279 3.92905 11.094 4.08919C11.16 4.24841 11.1941 4.41907 11.1938 4.5914V15.1498H11.1824C11.1823 15.2251 11.1674 15.2997 11.1384 15.3692C11.1095 15.4387 11.067 15.5018 11.0136 15.5549C10.9604 15.609 10.897 15.6518 10.8268 15.6808C10.7567 15.7098 10.6812 15.7243 10.6053 15.7236H10.6058ZM5.09697 15.7236H1.88133C1.80548 15.7239 1.73023 15.709 1.66027 15.6797C1.59031 15.6504 1.52695 15.6073 1.47394 15.553C1.42053 15.4999 1.37808 15.4368 1.34912 15.3673C1.32016 15.2978 1.30526 15.2233 1.30518 15.148V9.82335C1.30493 9.65084 1.33874 9.48001 1.40494 9.3207C1.47096 9.1605 1.56809 9.01474 1.69016 8.89177C1.81225 8.7708 1.95677 8.6752 2.11601 8.61051C2.2748 8.54248 2.44602 8.50807 2.61877 8.50932H5.09697C5.17283 8.50897 5.24805 8.52386 5.31802 8.55316C5.38799 8.58246 5.4514 8.62553 5.50436 8.67984C5.55779 8.7329 5.60021 8.79601 5.62917 8.86552C5.65813 8.93502 5.67306 9.00962 5.67312 9.08492V15.1498C5.67303 15.2251 5.65813 15.2997 5.62917 15.3692C5.60021 15.4387 5.55777 15.5018 5.50436 15.5549C5.45116 15.6089 5.38762 15.6516 5.31758 15.6806C5.24755 15.7096 5.17233 15.7242 5.09653 15.7236H5.09697Z" fill="#2F2F3D" />
    </g>
    <defs>
        <clipPath id="clip0_898_60699">
            <rect width="18" height="18" fill="white" transform="translate(0 0.5)" />
        </clipPath>
    </defs>
</svg>
    