<svg width="18" height="19" viewBox="0 0 18 19" fill="none" xmlns="http://www.w3.org/2000/svg">
    <g clip-path="url(#clip0_516_9175)">
        <path d="M5.09728 16.8806H1.88339C1.76535 16.8807 1.64862 16.8573 1.53973 16.8117C1.43093 16.7661 1.33184 16.6997 1.24835 16.6163C1.16512 16.5333 1.09897 16.4348 1.05323 16.3265C1.00749 16.2176 0.983527 16.1008 0.98291 15.9827V9.83634C0.983597 9.68733 0.998492 9.5387 1.02774 9.39258C1.05736 9.24792 1.1008 9.10643 1.15738 8.97003C1.21449 8.83386 1.2845 8.70351 1.36657 8.58076C1.44956 8.45739 1.54432 8.34242 1.64959 8.23742C1.75517 8.13153 1.87102 8.0361 1.99502 7.95253C2.11785 7.87021 2.24846 7.79995 2.38484 7.74279C2.52094 7.68548 2.66209 7.64161 2.80673 7.61183C2.95283 7.58246 3.10158 7.56745 3.2506 7.56689H5.09552C5.21375 7.56925 5.33029 7.59407 5.43919 7.64018C5.54782 7.68606 5.64676 7.75256 5.73012 7.83596C5.81362 7.9189 5.87993 8.01737 5.92569 8.1258C5.97125 8.23488 5.99508 8.3518 5.99556 8.47002V15.9705C5.9963 16.0895 5.97362 16.2075 5.92832 16.3175C5.88331 16.428 5.81701 16.5288 5.73364 16.6141C5.65049 16.6996 5.55128 16.7673 5.44138 16.8135C5.33238 16.8584 5.2152 16.8813 5.09728 16.8806V16.8806ZM3.37365 8.82786C3.22775 8.82856 3.08364 8.85802 2.94912 8.91454C2.81461 8.97107 2.69268 9.05352 2.59007 9.15725C2.38228 9.36515 2.26425 9.64635 2.26178 9.94028V15.1767C2.26252 15.2933 2.30929 15.4049 2.39187 15.4872C2.43261 15.5283 2.48089 15.5609 2.53426 15.5831C2.58762 15.6054 2.6452 15.6168 2.70302 15.6169H4.27809C4.33679 15.6173 4.39491 15.6059 4.44905 15.5833C4.50319 15.5606 4.55189 15.5272 4.59276 15.485C4.67507 15.4008 4.72119 15.2878 4.72108 15.17V9.27019C4.72094 9.21242 4.70957 9.15527 4.68725 9.10198C4.66493 9.04869 4.63207 9.00033 4.591 8.9597C4.5084 8.87704 4.39713 8.82977 4.28029 8.82786H3.37365Z" fill="#2F2F3D" />
        <path d="M10.545 16.8851H7.33115C7.21291 16.8828 7.09634 16.8579 6.98748 16.8117C6.87875 16.7657 6.77968 16.6993 6.69611 16.616C6.5273 16.4482 6.43191 16.2203 6.43066 15.9823V4.38572C6.43133 4.23671 6.44623 4.08807 6.47549 3.94196C6.50515 3.7973 6.54859 3.65582 6.60514 3.51941C6.66227 3.38325 6.73227 3.2529 6.81433 3.13014C6.89726 3.00659 6.99203 2.89137 7.09735 2.78625C7.20295 2.68039 7.3188 2.58507 7.44278 2.50147C7.5656 2.41914 7.69621 2.34888 7.83259 2.29173C7.96873 2.23452 8.10987 2.19066 8.25449 2.16077C8.40059 2.13145 8.54934 2.11634 8.69836 2.11572H9.18661C9.33563 2.11632 9.48394 2.13143 9.63004 2.16077C9.7748 2.19065 9.91653 2.23452 10.0528 2.29173C10.1891 2.34879 10.3196 2.41906 10.4422 2.50147C10.5664 2.58495 10.682 2.68028 10.7876 2.78625C10.893 2.89128 10.9878 3.00651 11.0706 3.13014C11.1527 3.25281 11.2226 3.38318 11.2794 3.51941C11.3363 3.65573 11.3799 3.79723 11.4095 3.94196C11.4387 4.08807 11.4541 4.23671 11.4547 4.38572V15.9823C11.4506 16.2212 11.3523 16.4489 11.1814 16.616C11.097 16.6994 10.9977 16.7658 10.8883 16.8117C10.7796 16.8575 10.6629 16.8825 10.545 16.8851ZM8.82536 3.40064C8.67992 3.4015 8.53587 3.43081 8.40171 3.48699C8.26703 3.54318 8.14479 3.62534 8.04178 3.72871C7.93881 3.83167 7.85719 3.95395 7.80183 4.08864C7.74574 4.22265 7.71635 4.36646 7.71569 4.51174V15.1826C7.71595 15.2403 7.72765 15.2973 7.74997 15.3504C7.77228 15.4035 7.80481 15.4517 7.84577 15.4922C7.88638 15.5329 7.93473 15.5653 7.98772 15.5876C8.04085 15.6103 8.09786 15.6225 8.1556 15.6236H9.72497C9.783 15.6225 9.84027 15.6102 9.89373 15.5876C9.94708 15.5652 9.99538 15.5329 10.0366 15.4922C10.1205 15.4108 10.1689 15.2996 10.1715 15.1826V4.51174C10.1708 4.36646 10.1419 4.22265 10.0858 4.08864C10.0304 3.95395 9.9488 3.83167 9.84582 3.72871C9.74278 3.62538 9.62055 3.54323 9.48589 3.48699C9.35189 3.43081 9.20798 3.4015 9.06268 3.40064H8.82536Z" fill="#2F2F3D" />
        <path d="M16.0235 16.8847H12.8097C12.6914 16.8824 12.5749 16.8574 12.466 16.8113C12.3573 16.7654 12.2582 16.699 12.1746 16.6156C12.0914 16.5324 12.0252 16.4338 11.9795 16.3254C11.9338 16.2165 11.9098 16.0996 11.9092 15.9815V10.5169C11.9101 10.3993 11.934 10.283 11.9795 10.1745C12.0247 10.0653 12.0909 9.96611 12.1746 9.88278C12.258 9.79935 12.3572 9.73308 12.466 9.68754C12.5749 9.64202 12.6916 9.61858 12.8097 9.61865H14.6546C14.8036 9.61932 14.9523 9.63443 15.0985 9.6637C15.243 9.69345 15.3841 9.73692 15.5203 9.79367C15.6564 9.85059 15.7869 9.92042 15.9097 10.0021C16.0336 10.0846 16.1495 10.179 16.2551 10.2838C16.3605 10.3896 16.4552 10.5053 16.5382 10.6294C16.6202 10.7521 16.6902 10.8823 16.7474 11.0183C16.804 11.1544 16.8476 11.2956 16.8774 11.4399C16.9067 11.5858 16.9216 11.734 16.9223 11.8827V15.978C16.9223 16.0965 16.8995 16.2138 16.8546 16.3235C16.8089 16.4328 16.7424 16.5323 16.659 16.6165C16.5753 16.6992 16.4763 16.7645 16.3672 16.8087C16.2593 16.8577 16.1421 16.8836 16.0235 16.8847V16.8847ZM13.6288 10.8914C13.5709 10.8913 13.5132 10.9026 13.4596 10.9249C13.4061 10.9471 13.3577 10.9798 13.3168 11.0209C13.2348 11.1038 13.1882 11.2154 13.1867 11.3319V15.1701C13.1875 15.2868 13.2343 15.3986 13.3168 15.4811C13.3999 15.5637 13.5118 15.6109 13.6288 15.613H15.2039C15.2622 15.6131 15.3198 15.601 15.3731 15.5774C15.4265 15.5557 15.4749 15.5238 15.516 15.4833C15.5569 15.4422 15.5895 15.3935 15.6118 15.3398C15.6339 15.286 15.6454 15.2283 15.6452 15.1701V12.0034C15.6436 11.7088 15.5259 11.4268 15.3173 11.2189C15.109 11.0107 14.8269 10.8931 14.5324 10.8914H13.6288Z" fill="#2F2F3D" />
    </g>
    <defs>
        <clipPath id="clip0_516_9175">
            <rect width="18" height="18" fill="white" transform="translate(0 0.5)" />
        </clipPath>
    </defs>
</svg>
    