<svg width="16" height="17" viewBox="0 0 16 17" fill="none" xmlns="http://www.w3.org/2000/svg">
    <g clip-path="url(#clip0_1983_91350)">
        <path fill-rule="evenodd" clip-rule="evenodd" d="M7.51388 11.4444C7.69961 11.4823 7.88872 11.5013 8.07826 11.5013C8.26767 11.5013 8.45667 11.4823 8.64226 11.4444C8.82223 11.4074 8.99792 11.3528 9.16719 11.2813C9.33353 11.2108 9.49284 11.1244 9.64252 11.0233C9.7912 10.9229 9.92961 10.8085 10.0565 10.6817C10.1832 10.5547 10.2978 10.4159 10.3983 10.2673C10.4994 10.1175 10.5856 9.95826 10.6561 9.7918C10.7277 9.62244 10.7824 9.44642 10.8193 9.26628C10.8572 9.08068 10.8765 8.8918 10.8767 8.70238C10.8765 8.51297 10.8572 8.32399 10.8193 8.13839C10.7824 7.95839 10.7277 7.78249 10.6561 7.61326C10.5856 7.44681 10.4994 7.28756 10.3983 7.13774C10.2977 6.98916 10.1832 6.85048 10.0565 6.72343C9.92959 6.59667 9.79118 6.48229 9.64252 6.38187C9.49289 6.28067 9.33357 6.19427 9.16719 6.1239C8.99796 6.0523 8.82226 5.99766 8.64226 5.96074C8.45667 5.92288 8.26767 5.90382 8.07826 5.90391C7.88872 5.90384 7.69961 5.9229 7.51388 5.96074C7.33387 5.9976 7.15777 6.05225 6.98856 6.1239C6.82224 6.19439 6.66332 6.28079 6.51362 6.38187C6.36505 6.48242 6.22626 6.59679 6.09921 6.72343C5.97258 6.8505 5.85802 6.98918 5.75746 7.13774C5.65622 7.28749 5.57001 7.44674 5.49968 7.61326C5.42805 7.78248 5.37331 7.95838 5.33642 8.13839C5.29853 8.32397 5.27966 8.51297 5.27979 8.70238C5.27965 8.8918 5.29852 9.0807 5.33642 9.26628C5.37327 9.44643 5.42802 9.62246 5.49968 9.7918C5.57003 9.95831 5.65624 10.1176 5.75746 10.2673C5.85802 10.4159 5.97258 10.5547 6.09921 10.6817C6.22627 10.8084 6.36505 10.9227 6.51362 11.0233C6.66329 11.1244 6.82222 11.2108 6.98856 11.2813C7.15782 11.3528 7.33391 11.4074 7.51388 11.4444ZM6.87373 7.49804C7.19316 7.17861 7.62652 6.99902 8.07826 6.99859C8.52997 6.99912 8.963 7.17873 9.28241 7.49814C9.60182 7.81755 9.78143 8.25067 9.78196 8.70238C9.78143 9.15409 9.60182 9.58712 9.28241 9.90653C8.963 10.2259 8.52997 10.4056 8.07826 10.4062C7.62652 10.4058 7.19316 10.2261 6.87373 9.90663C6.5543 9.5872 6.3746 9.15413 6.37418 8.70238C6.3746 8.25064 6.5543 7.81747 6.87373 7.49804Z" fill="#2F2F3D" />
        <path fill-rule="evenodd" clip-rule="evenodd" d="M8.09278 13.9756H8.28338C8.53995 13.9694 8.79599 13.9496 9.05048 13.9165C9.29485 13.8841 9.53717 13.8393 9.77695 13.7821C10.0065 13.7273 10.2376 13.6597 10.4624 13.5821C10.6788 13.5077 10.8949 13.4213 11.1061 13.3257C11.3085 13.2345 11.5112 13.1321 11.7083 13.0217C11.8959 12.9166 12.0849 12.8014 12.2684 12.679C12.6174 12.4458 12.9506 12.1897 13.2656 11.9123C13.8145 11.427 14.3145 10.8892 14.7587 10.3066C15.0599 9.91556 15.3359 9.50566 15.5848 9.07947C15.6532 8.96508 15.7848 8.73313 15.7848 8.73313C15.7848 8.73313 15.6512 8.44034 15.5848 8.32595C15.1085 7.50765 12.5076 3.42578 8.08536 3.42578C8.01377 3.42578 7.94136 3.427 7.86976 3.429C7.61292 3.43547 7.35663 3.45546 7.10189 3.48896C6.85765 3.52127 6.61506 3.5661 6.37542 3.62332C6.14585 3.67811 5.91552 3.7457 5.69035 3.82329C5.47478 3.89768 5.25824 3.98412 5.04746 4.0797C4.84749 4.17089 4.64471 4.27328 4.44754 4.38367C4.25996 4.48926 4.07103 4.60441 3.88745 4.72679C3.53877 4.95991 3.20587 5.21591 2.89109 5.4931C2.34264 5.97893 1.84274 6.51676 1.39792 7.09895C1.22474 7.32533 1.0575 7.55967 0.900715 7.79564C0.783129 7.97322 0.671503 8.15156 0.569116 8.32634C0.501124 8.44193 0.369141 8.68196 0.369141 8.68196C0.369141 8.68196 0.502724 8.96547 0.569116 9.07986C0.796151 9.46485 1.04594 9.83602 1.31707 10.1913C1.76729 10.7872 2.27419 11.3381 2.83055 11.8363C3.15863 12.1286 3.50588 12.3984 3.87027 12.6439C4.06384 12.7734 4.26207 12.8954 4.45964 13.0062C4.66842 13.1222 4.88272 13.2301 5.09589 13.3261C5.31787 13.4265 5.54712 13.5169 5.7755 13.5941C6.01415 13.6749 6.257 13.7433 6.50275 13.7989C6.75774 13.8566 7.01555 13.9002 7.27531 13.9296C7.54673 13.9603 7.81964 13.9757 8.09278 13.9756ZM7.89906 4.48766H8.04084C9.65864 4.48766 11.0152 5.26794 11.8939 5.85106C12.2415 6.1016 12.5714 6.37622 12.8805 6.67293C13.164 6.9385 13.4623 7.24493 13.7671 7.57848C14.0025 7.83547 14.1958 8.08462 14.3455 8.27752C14.4097 8.36021 14.4659 8.43257 14.5139 8.49077C14.5412 8.52411 14.5603 8.5441 14.5738 8.55827C14.6045 8.5905 14.6064 8.59259 14.6123 8.65315C14.6194 8.72711 14.6104 8.74094 14.5707 8.802C14.5635 8.81293 14.5554 8.82538 14.5463 8.83995C13.7808 10.09 12.7311 11.1416 11.4826 11.9095C11.0142 12.1854 10.5195 12.4145 10.0062 12.5935C9.73088 12.6876 9.44952 12.7622 9.16374 12.817C8.86281 12.8742 8.55759 12.9068 8.25136 12.9142H8.08732C6.88292 12.8753 5.71019 12.5189 4.68774 11.8812C4.24728 11.6221 3.83319 11.3207 3.45118 10.9813C3.09894 10.6712 2.76508 10.3407 2.4513 9.99176C2.16116 9.6316 1.89159 9.25513 1.64437 8.86426C1.60352 8.81019 1.57779 8.74638 1.56938 8.67913C1.57484 8.61997 1.60119 8.56479 1.64398 8.52358C1.85877 8.19753 2.10359 7.89223 2.37514 7.61168C2.6651 7.30772 2.95147 7.0153 3.22503 6.74773C3.56659 6.41297 3.88991 6.11349 4.18507 5.85712C5.24168 5.00978 6.54529 4.52909 7.89906 4.48766Z" fill="#2F2F3D" />
    </g>
    <defs>
        <clipPath id="clip0_1983_91350">
            <rect width="16" height="16" fill="white" transform="translate(0 0.5)" />
        </clipPath>
    </defs>
</svg>
    