<svg width="18" height="19" viewBox="0 0 18 19" fill="none" xmlns="http://www.w3.org/2000/svg">
    <path fill-rule="evenodd" clip-rule="evenodd" d="M8.45263 12.3913C8.66157 12.4339 8.87433 12.4553 9.08756 12.4553C9.30064 12.4554 9.51327 12.4339 9.72205 12.3913C9.92452 12.3497 10.1222 12.2882 10.3126 12.2078C10.4997 12.1285 10.679 12.0313 10.8473 11.9176C11.0146 11.8046 11.1703 11.6759 11.3131 11.5333C11.4556 11.3904 11.5845 11.2343 11.6976 11.0671C11.8113 10.8985 11.9083 10.7194 11.9876 10.5321C12.0682 10.3416 12.1297 10.1436 12.1713 9.94092C12.2138 9.73212 12.2356 9.51963 12.2358 9.30654C12.2356 9.09345 12.2138 8.88085 12.1713 8.67205C12.1297 8.46955 12.0681 8.27166 11.9876 8.08128C11.9083 7.89401 11.8113 7.71487 11.6976 7.54631C11.5845 7.37917 11.4556 7.22314 11.3131 7.08022C11.1703 6.93761 11.0146 6.80894 10.8473 6.69597C10.679 6.58211 10.4998 6.48491 10.3126 6.40574C10.1222 6.3252 9.92455 6.26373 9.72205 6.22218C9.51327 6.1796 9.30064 6.15815 9.08756 6.15825C8.87433 6.15817 8.66157 6.17962 8.45263 6.22218C8.25011 6.26366 8.052 6.32514 7.86164 6.40574C7.67453 6.48505 7.49575 6.58224 7.32733 6.69597C7.16019 6.80908 7.00406 6.93774 6.86113 7.08022C6.71867 7.22317 6.58979 7.37919 6.47666 7.54631C6.36276 7.71478 6.26577 7.89394 6.18665 8.08128C6.10607 8.27165 6.04448 8.46954 6.00298 8.67205C5.96035 8.88083 5.93913 9.09345 5.93927 9.30654C5.93912 9.51963 5.96035 9.73214 6.00298 9.94092C6.04444 10.1436 6.10603 10.3416 6.18665 10.5321C6.26579 10.7195 6.36278 10.8986 6.47666 11.0671C6.58979 11.2342 6.71866 11.3904 6.86113 11.5333C7.00406 11.6758 7.1602 11.8044 7.32733 11.9176C7.49572 12.0313 7.67451 12.1285 7.86164 12.2078C8.05206 12.2882 8.25016 12.3497 8.45263 12.3913ZM7.73246 7.95166C8.09181 7.5923 8.57935 7.39025 9.08756 7.38978C9.59573 7.39037 10.0829 7.59243 10.4422 7.95177C10.8016 8.3111 11.0036 8.79837 11.0042 9.30654C11.0036 9.81471 10.8016 10.3019 10.4422 10.6612C10.0829 11.0205 9.59573 11.2227 9.08756 11.2233C8.57935 11.2228 8.09181 11.0207 7.73246 10.6613C7.3731 10.302 7.17094 9.81475 7.17046 9.30654C7.17094 8.79833 7.3731 8.31102 7.73246 7.95166Z" fill="#2F2F3D" />
    <path fill-rule="evenodd" clip-rule="evenodd" d="M9.10389 15.2389H9.31832C9.60695 15.2319 9.895 15.2097 10.1813 15.1724C10.4562 15.136 10.7288 15.0856 10.9986 15.0212C11.2568 14.9596 11.5169 14.8835 11.7697 14.7963C12.0131 14.7126 12.2563 14.6153 12.4939 14.5078C12.7215 14.4052 12.9496 14.29 13.1714 14.1658C13.3824 14.0475 13.595 13.9179 13.8015 13.7803C14.1941 13.5179 14.5689 13.2298 14.9233 12.9177C15.5409 12.3717 16.1033 11.7667 16.6031 11.1112C16.9419 10.6714 17.2525 10.2102 17.5324 9.73076C17.6094 9.60208 17.7574 9.34112 17.7574 9.34112C17.7574 9.34112 17.6071 9.01173 17.5324 8.88305C16.9965 7.96247 14.0706 3.37036 9.09555 3.37036C9.01501 3.37036 8.93354 3.37174 8.853 3.37399C8.56405 3.38127 8.27572 3.40375 7.98914 3.44143C7.71436 3.47779 7.44145 3.52822 7.17186 3.59259C6.91359 3.65423 6.65447 3.73027 6.40116 3.81756C6.15864 3.90125 5.91503 3.99849 5.67791 4.10602C5.45293 4.20861 5.22481 4.3238 5.00299 4.44799C4.79197 4.56677 4.57942 4.69631 4.37289 4.834C3.98063 5.09625 3.60611 5.38426 3.25199 5.6961C2.63498 6.24265 2.0726 6.84771 1.57217 7.50268C1.37734 7.75735 1.18919 8.02099 1.01282 8.28646C0.880532 8.48623 0.754952 8.68686 0.639767 8.88349C0.563276 9.01352 0.414795 9.28356 0.414795 9.28356C0.414795 9.28356 0.565076 9.60252 0.639767 9.7312C0.895182 10.1643 1.1762 10.5819 1.48121 10.9816C1.98771 11.652 2.55798 12.2718 3.18388 12.8323C3.55297 13.161 3.94363 13.4645 4.35356 13.7407C4.57133 13.8865 4.79434 14.0237 5.01661 14.1484C5.25148 14.2788 5.49257 14.4002 5.73239 14.5082C5.98211 14.6212 6.24003 14.7229 6.49694 14.8098C6.76544 14.9007 7.03863 14.9775 7.3151 15.0401C7.60196 15.105 7.892 15.1541 8.18423 15.1872C8.48958 15.2217 8.7966 15.239 9.10389 15.2389ZM8.88595 4.56498H9.04545C10.8655 4.56498 12.3916 5.44279 13.3801 6.0988C13.7712 6.38066 14.1423 6.6896 14.49 7.02341C14.809 7.32217 15.1446 7.6669 15.4875 8.04215C15.7523 8.33126 15.9698 8.61156 16.1382 8.82857C16.2104 8.9216 16.2736 9.003 16.3276 9.06848C16.3584 9.10599 16.3798 9.12848 16.395 9.14441C16.4295 9.18067 16.4318 9.18302 16.4383 9.25116C16.4463 9.33435 16.4362 9.34991 16.3915 9.41861C16.3835 9.43091 16.3744 9.44491 16.3641 9.4613C15.503 10.8676 14.322 12.0507 12.9174 12.9145C12.3905 13.2249 11.834 13.4827 11.2565 13.684C10.9468 13.7899 10.6302 13.8739 10.3087 13.9355C9.97017 13.9998 9.62681 14.0365 9.28229 14.0449H9.09774C7.7428 14.001 6.42347 13.6001 5.27322 12.8827C4.7777 12.5912 4.31185 12.2521 3.88209 11.8703C3.48581 11.5214 3.11022 11.1497 2.75723 10.7571C2.43082 10.3519 2.12755 9.92838 1.84943 9.48865C1.80347 9.42782 1.77452 9.35603 1.76507 9.28038C1.7712 9.21383 1.80085 9.15174 1.84899 9.10539C2.09063 8.73858 2.36605 8.39511 2.67154 8.0795C2.99775 7.73754 3.31991 7.40857 3.62767 7.10755C4.01193 6.73095 4.37566 6.39403 4.70772 6.10562C5.8964 5.15236 7.36296 4.61159 8.88595 4.56498Z" fill="#2F2F3D" />
</svg>
    