<svg width="18" height="18" viewBox="0 0 18 18" fill="none" xmlns="http://www.w3.org/2000/svg">
    <g clip-path="url(#clip0_1461_69957)">
        <path fill-rule="evenodd" clip-rule="evenodd" d="M11.3347 6.85859C11.3396 6.85371 11.3444 6.84874 11.3491 6.84369L16.8136 1.3787C16.9143 1.27511 16.9702 1.13603 16.9692 0.991543C16.9682 0.847054 16.9104 0.70877 16.8082 0.606599C16.706 0.504427 16.5677 0.44658 16.4233 0.44557C16.2788 0.44456 16.1397 0.500467 16.0361 0.6012L13.1598 3.47749C11.9239 2.77942 10.5262 2.40242 9.09555 2.38964H9.09035C9.01447 2.38964 8.93394 2.38964 8.85564 2.39404C8.56607 2.40044 8.27716 2.42287 7.99002 2.46083C7.7214 2.49637 7.44766 2.5472 7.17274 2.61154C6.91267 2.67678 6.65535 2.75237 6.40204 2.83651C6.16222 2.9211 5.91861 3.01856 5.67879 3.12519C5.42322 3.24533 5.2032 3.3586 5.00387 3.46749C4.77125 3.60067 4.56455 3.72684 4.37377 3.85328C3.98247 4.1169 3.60791 4.40469 3.25243 4.71494C2.63794 5.264 2.07586 5.86951 1.57393 6.52306C1.38045 6.77593 1.19186 7.0397 1.01414 7.30607C0.878703 7.51259 0.752212 7.71467 0.641526 7.90365C0.565935 8.03323 0.427979 8.3035 0.427979 8.3035C0.427979 8.3035 0.565935 8.62081 0.641526 8.74949C0.897101 9.18298 1.17796 9.60119 1.48253 10.0018C1.98945 10.6711 2.55923 11.2906 3.18388 11.8516C3.46785 12.1047 3.76463 12.3426 4.07316 12.5646L1.36435 15.2734C1.26213 15.377 1.20482 15.5167 1.20482 15.6622C1.20482 15.8077 1.26213 15.9474 1.36435 16.0509C1.41517 16.1023 1.47572 16.1431 1.54247 16.1708C1.60922 16.1986 1.68082 16.2127 1.7531 16.2125C1.82535 16.2128 1.89694 16.1987 1.96368 16.171C2.03043 16.1434 2.091 16.1027 2.14185 16.0514L7.60159 10.5912C7.60893 10.5845 7.6161 10.5777 7.62308 10.5706L11.3347 6.85859ZM10.3043 5.37714C10.5208 5.46908 10.7259 5.58459 10.9161 5.72121L12.2256 4.41174C11.2425 3.90788 10.157 3.62362 9.04458 3.58437H8.88464C7.36206 3.6314 5.89598 4.17219 4.70772 5.12534C4.39276 5.39845 4.03721 5.72716 3.62416 6.12716C3.2957 6.45382 2.97391 6.77965 2.67155 7.09911C2.37351 7.40657 2.10379 7.74064 1.86569 8.09655C1.85983 8.10674 1.85308 8.11614 1.84548 8.12511C1.7977 8.17191 1.76769 8.23387 1.76111 8.30043C1.77092 8.37613 1.79982 8.44841 1.84548 8.50958C1.84711 8.50958 1.84801 8.51129 1.84946 8.51403C1.85042 8.51583 1.8516 8.51807 1.85339 8.52057C1.85507 8.52292 1.85663 8.52537 1.85837 8.52811C1.86129 8.53272 1.86473 8.53812 1.87008 8.54517C2.13485 8.97709 2.43172 9.38867 2.75679 9.77724C3.10969 10.1698 3.48528 10.5416 3.88165 10.8902C4.21371 11.186 4.56768 11.4557 4.94052 11.6973L6.48546 10.1523C6.34875 9.96211 6.23317 9.75688 6.14118 9.54022C5.97701 9.15356 5.8912 8.73817 5.88873 8.31812C5.88626 7.89806 5.96717 7.48169 6.12678 7.09313C6.28639 6.70457 6.52153 6.35154 6.81856 6.05451C7.11559 5.75748 7.46861 5.52235 7.85717 5.36274C8.24573 5.20313 8.6621 5.12222 9.08216 5.12469C9.50222 5.12716 9.91761 5.21297 10.3043 5.37714ZM9.0899 6.24981C8.72633 6.2497 8.36911 6.34505 8.05396 6.52632C7.73881 6.70759 7.47677 6.96842 7.29406 7.28274C7.11135 7.59705 7.01436 7.95383 7.0128 8.31739C7.01124 8.68095 7.10516 9.03855 7.28517 9.35442L10.1171 6.52113C9.80422 6.34268 9.4501 6.24914 9.0899 6.24981Z" fill="#2F2F3D" />
        <path d="M9.10785 14.2587C8.80069 14.2603 8.49373 14.2437 8.18863 14.2081C7.89539 14.1749 7.60395 14.1259 7.31598 14.0614L7.13583 14.0161C6.99008 13.9963 6.85724 13.9244 6.76058 13.8136C6.66393 13.7027 6.61006 13.5604 6.61031 13.4133C6.61013 13.3335 6.62561 13.2546 6.65601 13.1808C6.6864 13.1071 6.73149 13.04 6.78783 12.9835C6.84416 12.927 6.911 12.8819 6.98468 12.8513C7.05836 12.8207 7.13777 12.8052 7.21756 12.8051C7.25225 12.8052 7.2862 12.808 7.32038 12.8139C7.34005 12.8142 7.35954 12.8175 7.37838 12.8232C7.93702 12.9845 8.51583 13.066 9.0973 13.0653H9.28185C9.62761 13.0581 9.97218 13.0216 10.3118 12.9563C10.6339 12.8974 10.951 12.8132 11.26 12.705C11.838 12.5055 12.3946 12.2481 12.9209 11.9369C14.3268 11.0747 15.5074 9.89051 16.3649 8.4819L16.3693 8.47531C16.3757 8.46637 16.3805 8.4589 16.385 8.45172C16.3885 8.44627 16.3918 8.44095 16.3957 8.43532C16.4156 8.41386 16.4301 8.38792 16.4379 8.35975C16.4457 8.33157 16.4465 8.30182 16.4405 8.27318C16.4315 8.20659 16.4294 8.20196 16.3983 8.16641C16.3737 8.14348 16.3512 8.11817 16.3316 8.09083C16.2807 8.03099 16.2225 7.95599 16.1514 7.86015L16.1147 7.81316C15.9458 7.59686 15.742 7.33591 15.4897 7.06308C15.2085 6.75397 14.9263 6.46261 14.6478 6.19219C14.5987 6.15714 14.5548 6.115 14.5177 6.06741L14.4922 6.04368C14.4739 6.02671 14.4623 6.00389 14.4597 5.97909C14.4114 5.88821 14.386 5.78675 14.3859 5.68381C14.3858 5.60182 14.402 5.52055 14.4334 5.44478C14.4647 5.36901 14.5107 5.30019 14.5687 5.24222C14.6267 5.18424 14.6959 5.1382 14.7717 5.10688C14.8475 5.07556 14.9279 5.05975 15.0098 5.05987C15.1691 5.05974 15.3223 5.12075 15.4378 5.23035C15.4504 5.24019 15.4624 5.25041 15.4738 5.26155C16.2718 6.05022 16.9657 6.93755 17.539 7.90189C17.6142 8.04834 17.682 8.19852 17.742 8.35184C17.742 8.35184 17.6146 8.62172 17.539 8.74905C17.2587 9.22918 16.948 9.69061 16.6075 10.1301C16.1088 10.7859 15.5465 11.3917 14.9299 11.9382C14.5741 12.2497 14.1984 12.5371 13.805 12.7994C13.6142 12.9304 13.4075 13.057 13.1749 13.1857C12.9684 13.3013 12.7399 13.4164 12.4956 13.5275C12.2513 13.6386 12.0077 13.7365 11.7724 13.8166C11.5217 13.903 11.2617 13.9786 11.0017 14.0416C10.733 14.1066 10.4603 14.1569 10.1861 14.1923C9.89809 14.2303 9.60834 14.2523 9.31788 14.2587H9.10785Z" fill="#2F2F3D" />
        <path d="M9.18188 11.3371C9.28082 11.4182 9.40472 11.4628 9.53269 11.4632C9.56679 11.4596 9.60118 11.4596 9.63529 11.4632C10.2568 11.3453 10.8284 11.0432 11.2759 10.5961C11.7234 10.149 12.026 9.57765 12.1445 8.95628C12.1582 8.88497 12.1577 8.81163 12.143 8.74051C12.1283 8.66938 12.0997 8.60186 12.0588 8.54184C12.0179 8.48183 11.9655 8.43049 11.9047 8.39079C11.8439 8.35109 11.7758 8.32382 11.7044 8.31053C11.5605 8.28437 11.4121 8.31587 11.2913 8.39822C11.1705 8.48057 11.0869 8.60716 11.0586 8.75063C10.9791 9.15294 10.7818 9.52255 10.4919 9.81258C10.2019 10.1026 9.83237 10.3 9.43009 10.3796C9.35875 10.3916 9.29055 10.4177 9.22951 10.4565C9.16847 10.4953 9.11584 10.5459 9.07475 10.6054C9.03366 10.665 9.00495 10.7321 8.99031 10.8029C8.97567 10.8738 8.97541 10.9468 8.98954 11.0177C9.015 11.1431 9.08294 11.2559 9.18188 11.3371Z" fill="#2F2F3D" />
    </g>
    <defs>
        <clipPath id="clip0_1461_69957">
            <rect width="18" height="18" fill="white" />
        </clipPath>
    </defs>
</svg>
    