<svg width="16" height="16" viewBox="0 0 12 12" fill="none" xmlns="http://www.w3.org/2000/svg">
<g clip-path="url(#clip0_30602_5081)">
<path d="M4.76217 7.6046C4.71398 7.60477 4.66623 7.59533 4.62173 7.57684C4.57722 7.55835 4.53685 7.53117 4.50296 7.4969C4.3026 7.30119 4.14306 7.06767 4.0336 6.80986C3.92413 6.55205 3.86692 6.27508 3.86527 5.995C3.86362 5.71492 3.91757 5.4373 4.024 5.17822C4.13042 4.91914 4.2872 4.68375 4.48525 4.4857C4.6833 4.28765 4.91868 4.13088 5.17776 4.02445C5.43684 3.91803 5.71446 3.86408 5.99454 3.86573C6.27462 3.86738 6.55159 3.92459 6.8094 4.03405C7.06721 4.14352 7.30073 4.30305 7.49644 4.50342C7.53055 4.53742 7.55761 4.57782 7.57607 4.6223C7.59454 4.66678 7.60404 4.71447 7.60404 4.76263C7.60404 4.81079 7.59454 4.85847 7.57607 4.90295C7.55761 4.94743 7.53055 4.98783 7.49644 5.02183L5.02168 7.4969C4.98776 7.53121 4.94734 7.5584 4.90278 7.5769C4.85822 7.59539 4.81041 7.60481 4.76217 7.6046ZM5.9997 4.61592C5.75729 4.61585 5.51911 4.67943 5.30897 4.80029C5.09884 4.92115 4.92412 5.09507 4.8023 5.30465C4.68047 5.51422 4.6158 5.75211 4.61476 5.99452C4.61372 6.23693 4.67635 6.47536 4.79637 6.68598L6.68462 4.79683C6.47599 4.67784 6.23987 4.61548 5.9997 4.61592Z" fill="#6E7191"/>
<path d="M2.8692 9.18443C2.78133 9.18437 2.69631 9.15323 2.62919 9.09652C2.08527 8.62729 1.61571 8.07823 1.23656 7.46808C0.981689 7.02099 0.847656 6.51523 0.847656 6.0006C0.847656 5.48596 0.981689 4.9802 1.23656 4.53311C2.42909 2.66406 4.16553 1.58794 5.99978 1.58794C7.11162 1.60077 8.18874 1.97702 9.06675 2.65926C9.14322 2.71813 9.19342 2.80474 9.20648 2.90035C9.21954 2.99596 9.1944 3.09287 9.13653 3.17008C9.07864 3.24729 8.99268 3.2986 8.89724 3.31288C8.80181 3.32716 8.70459 3.30327 8.62664 3.24638C7.87591 2.65881 6.95303 2.33396 5.99978 2.32175C4.41994 2.32175 2.9097 3.27068 1.85187 4.92882C1.6714 5.257 1.57678 5.62547 1.57678 6C1.57678 6.37453 1.6714 6.74299 1.85187 7.07117C2.1965 7.618 2.61826 8.11221 3.1041 8.53851C3.17749 8.60242 3.22273 8.69267 3.23003 8.78971C3.23733 8.88675 3.2061 8.98275 3.1431 9.05692C3.10963 9.097 3.06773 9.12921 3.02038 9.15125C2.97304 9.17329 2.92142 9.18462 2.8692 9.18443Z" fill="#6E7191"/>
<path d="M6.00098 10.4121C5.34851 10.4116 4.70291 10.2789 4.10313 10.022C4.01362 9.98441 3.94272 9.91276 3.90604 9.82285C3.88787 9.77834 3.87866 9.73068 3.87891 9.6826C3.87917 9.63452 3.88889 9.58696 3.90752 9.54264C3.92616 9.49831 3.95334 9.4581 3.98752 9.42428C4.0217 9.39046 4.0622 9.36371 4.10672 9.34555C4.19663 9.30886 4.29742 9.3094 4.38694 9.34703C4.89544 9.5648 5.44271 9.67757 5.99588 9.67854C7.57572 9.67854 9.08595 8.72962 10.1438 7.07148C10.3242 6.74329 10.4189 6.37483 10.4189 6.0003C10.4189 5.62577 10.3242 5.25731 10.1438 4.92912C9.99308 4.69103 9.82807 4.46231 9.64967 4.2442C9.58872 4.16799 9.56021 4.07084 9.57032 3.97378C9.58042 3.87671 9.62832 3.78752 9.70367 3.72549C9.74116 3.69481 9.78436 3.67185 9.83076 3.65794C9.87717 3.64403 9.92587 3.63943 9.97406 3.64443C10.0222 3.64942 10.069 3.6639 10.1115 3.68702C10.1541 3.71015 10.1917 3.74148 10.2221 3.77919C10.4179 4.01925 10.5993 4.27081 10.7651 4.53251C11.02 4.9796 11.154 5.48536 11.154 6C11.154 6.51463 11.02 7.02039 10.7651 7.46748C9.57167 9.33593 7.83522 10.4121 6.00098 10.4121Z" fill="#6E7191"/>
<path d="M6.33757 8.0888C6.2521 8.08837 6.1694 8.05842 6.10347 8.00403C6.03754 7.94963 5.99243 7.87413 5.97576 7.7903C5.9663 7.74303 5.96641 7.69435 5.97612 7.64713C5.98582 7.59991 6.0049 7.55512 6.03224 7.51542C6.05957 7.47572 6.0946 7.44191 6.13525 7.416C6.1759 7.39009 6.22134 7.3726 6.26887 7.36459C6.53702 7.31166 6.78341 7.18031 6.97681 6.98717C7.17021 6.79404 7.30191 6.54783 7.3552 6.27976C7.37383 6.18394 7.42947 6.09933 7.51005 6.04424C7.59063 5.98915 7.68967 5.96803 7.78571 5.98545C7.83332 5.99431 7.8787 6.01249 7.91925 6.03896C7.9598 6.06542 7.99471 6.09965 8.02198 6.13966C8.04925 6.17967 8.06834 6.22469 8.07815 6.27211C8.08795 6.31952 8.08828 6.36841 8.07912 6.41596C8.0004 6.83049 7.79875 7.21173 7.5004 7.51008C7.20204 7.80844 6.8208 8.01009 6.40627 8.0888C6.38344 8.08634 6.36041 8.08634 6.33757 8.0888Z" fill="#6E7191"/>
<path d="M1.10776 11.2584C1.05957 11.2586 1.01182 11.2491 0.967319 11.2306C0.922814 11.2121 0.88244 11.185 0.848557 11.1507C0.780402 11.0816 0.742187 10.9885 0.742188 10.8915C0.742188 10.7944 0.780402 10.7013 0.848557 10.6323L4.50235 6.97847C4.57142 6.91131 4.66415 6.87403 4.76049 6.8747C4.85683 6.87538 4.94904 6.91395 5.01716 6.98207C5.08529 7.0502 5.12386 7.1424 5.12453 7.23874C5.1252 7.33508 5.08793 7.42782 5.02076 7.49689L1.36697 11.151C1.33306 11.1852 1.29268 11.2123 1.24817 11.2308C1.20367 11.2492 1.15594 11.2586 1.10776 11.2584Z" fill="#6E7191"/>
<path d="M7.23862 5.12923C7.19043 5.1294 7.14268 5.11996 7.09818 5.10147C7.05367 5.08297 7.0133 5.0558 6.97942 5.02152C6.91126 4.95247 6.87305 4.85934 6.87305 4.76232C6.87305 4.66529 6.91126 4.57217 6.97942 4.50311L10.6332 0.849322C10.7023 0.782157 10.795 0.74488 10.8914 0.745553C10.9877 0.746227 11.0799 0.784797 11.148 0.852922C11.2161 0.921046 11.2547 1.01325 11.2554 1.10959C11.2561 1.20593 11.2188 1.29866 11.1516 1.36773L7.49783 5.02182C7.46392 5.05604 7.42354 5.08316 7.37903 5.1016C7.33453 5.12005 7.2868 5.12944 7.23862 5.12923Z" fill="#6E7191"/>
</g>
<defs>
<clipPath id="clip0_30602_5081">
<rect width="16" height="16" fill="white"/>
</clipPath>
</defs>
</svg>
