<svg width="100%" height="100%" viewBox="0 0 32 32" fill="none" xmlns="http://www.w3.org/2000/svg">
    <path d="M31.439 22.4668C31.439 28.0927 28.0928 31.4389 22.4669 31.4389H19.0892V20.2168H19.8443L22.5605 20.17C22.6694 20.1619 22.9205 20.17 22.9205 20.17C22.9205 20.17 22.9907 19.8901 23.0105 19.7812L23.5505 16.8319C23.5658 16.7698 23.6234 16.2919 23.6234 16.2919H23.0915L19.7993 16.3387H19.0136C19.0136 16.3387 19.0217 15.7861 19.0136 15.5764L18.9515 11.7964C18.9518 11.6745 18.9992 11.5574 19.0838 11.4697C19.1746 11.3847 19.2943 11.3375 19.4186 11.3374L23.123 11.2752H23.582V10.8082L23.5198 7.10381V6.6448H23.0609L18.8903 6.70687C18.2816 6.71265 17.6804 6.84245 17.1236 7.08843C16.5651 7.32881 16.06 7.67787 15.6377 8.11532C15.2154 8.55257 14.8825 9.06803 14.6576 9.63275C14.432 10.1991 14.3233 10.8053 14.3381 11.4147L14.4083 15.6556C14.4164 15.7564 14.4083 16.4493 14.4083 16.4493C14.4083 16.4493 13.7549 16.4412 13.6532 16.4493L11.8009 16.4727H11.3419V16.9399L11.3887 19.8739V20.3409H11.8477L13.7 20.3104C13.9106 20.3023 14.4938 20.3104 14.4938 20.3104C14.4938 20.3104 14.4857 20.863 14.4938 21.0655L14.6261 29.8666C14.6342 30.0691 14.6261 31.4389 14.6261 31.4389H9.53655C3.91065 31.4389 0.564453 28.0927 0.564453 22.4506V9.53288C0.564453 3.90699 3.91065 0.560791 9.53655 0.560791H22.4695C28.0954 0.560791 31.4416 3.90699 31.4416 9.53288L31.439 22.4668Z" fill="#1877F2" />
</svg>