<svg width="16" height="16" viewBox="0 0 16 16" fill="none" xmlns="http://www.w3.org/2000/svg">
    <g clip-path="url(#clip0_30415_5189)">
        <path d="M14.8622 10.874C14.8622 13.3744 13.375 14.8616 10.8746 14.8616H10.0582C9.87658 14.8616 9.7024 14.7894 9.57397 14.661C9.44555 14.5326 9.37339 14.3584 9.37339 14.1768V10.2168C9.3735 10.1267 9.40817 10.0401 9.47021 9.97475C9.53386 9.91102 9.62013 9.87506 9.7102 9.87475L10.9174 9.85395C10.9643 9.84982 11.0089 9.83171 11.0454 9.80195C11.0827 9.77151 11.1085 9.72916 11.1182 9.68198L11.3582 8.37119C11.3639 8.34131 11.3626 8.31049 11.3546 8.28115C11.3468 8.25325 11.3332 8.22736 11.3146 8.20517C11.2943 8.18201 11.2696 8.1632 11.2418 8.14995C11.2148 8.13735 11.1852 8.13146 11.1554 8.13276L9.69219 8.15356C9.60211 8.15345 9.5155 8.11883 9.45019 8.05679C9.38469 7.99289 9.34632 7.90624 9.34302 7.81479L9.31538 6.13476C9.31552 6.08059 9.33662 6.02855 9.37422 5.98955C9.41457 5.9518 9.46774 5.93079 9.523 5.93076L11.1694 5.90317C11.1966 5.90357 11.2236 5.8982 11.2486 5.88745C11.2737 5.8767 11.2961 5.8608 11.3146 5.84077C11.3335 5.82165 11.3485 5.79899 11.3585 5.77407C11.3686 5.74915 11.3737 5.72244 11.3734 5.69556L11.3458 4.04917C11.3463 4.02185 11.3415 3.99472 11.3318 3.96919C11.3201 3.94528 11.305 3.92317 11.287 3.90356C11.2683 3.88443 11.246 3.86923 11.2214 3.85879C11.1959 3.84907 11.1687 3.8443 11.1414 3.84477L9.28779 3.87236C9.01725 3.87493 8.75007 3.93267 8.50259 4.04199C8.25437 4.14883 8.02988 4.30397 7.84219 4.49839C7.65451 4.69272 7.50655 4.92176 7.40659 5.17275C7.30631 5.42447 7.25801 5.69392 7.2646 5.96479L7.2958 7.84956C7.29763 7.89424 7.29056 7.93884 7.275 7.98076C7.25907 8.0236 7.23426 8.06259 7.2022 8.09516C7.17143 8.12849 7.13357 8.15449 7.09141 8.17119C7.05013 8.19005 7.00555 8.20065 6.9602 8.20239L6.13701 8.21279C6.08241 8.21426 6.03044 8.2366 5.9918 8.27519C5.97291 8.29433 5.95799 8.31697 5.9479 8.34189C5.93781 8.36681 5.93276 8.39348 5.93301 8.42036L5.95381 9.72436C5.95356 9.75125 5.95861 9.77791 5.9687 9.80283C5.97879 9.82775 5.99371 9.85044 6.0126 9.86958C6.05085 9.90874 6.10307 9.93118 6.15781 9.93198L6.98101 9.91836C7.02633 9.91726 7.07144 9.92527 7.11362 9.94189C7.15581 9.95852 7.19422 9.98345 7.22661 10.0152C7.29238 10.0781 7.33085 10.1642 7.33379 10.2552L7.39258 14.1668C7.39506 14.2577 7.37974 14.3482 7.34741 14.4332C7.31276 14.518 7.26223 14.5956 7.19858 14.6616C7.13429 14.7264 7.05791 14.7781 6.97378 14.8136C6.88931 14.8484 6.79879 14.8661 6.70742 14.8656H5.13018C2.62978 14.8656 1.14258 13.3784 1.14258 10.8708V5.12959C1.14258 2.62919 2.62978 1.14199 5.13018 1.14199H10.8782C13.3786 1.14199 14.8658 2.62919 14.8658 5.12959L14.8622 10.874Z" fill="#6E7191" />
    </g>
    <defs>
        <clipPath id="clip0_30415_5189">
            <rect width="16" height="16" fill="white" />
        </clipPath>
    </defs>
</svg>