<svg width="36" height="36" viewBox="0 0 36 36" fill="none" xmlns="http://www.w3.org/2000/svg">
    <g opacity="0.8" clip-path="url(#clip0_30361_14171)">
        <path d="M33.439 24.4667C33.439 30.0926 30.0928 33.4388 24.4669 33.4388H21.0892V22.2167H21.8443L24.5605 22.1699C24.6694 22.1618 24.9205 22.1699 24.9205 22.1699C24.9205 22.1699 24.9907 21.89 25.0105 21.7811L25.5505 18.8318C25.5658 18.7697 25.6234 18.2918 25.6234 18.2918H25.0915L21.7993 18.3386H21.0136C21.0136 18.3386 21.0217 17.786 21.0136 17.5763L20.9515 13.7963C20.9518 13.6744 20.9992 13.5573 21.0838 13.4696C21.1746 13.3846 21.2943 13.3374 21.4186 13.3373L25.123 13.2751H25.582V12.8081L25.5198 9.10372V8.64471H25.0609L20.8903 8.70678C20.2816 8.71256 19.6804 8.84236 19.1236 9.08834C18.5651 9.32872 18.06 9.67778 17.6377 10.1152C17.2154 10.5525 16.8825 11.0679 16.6576 11.6327C16.432 12.199 16.3233 12.8052 16.3381 13.4146L16.4083 17.6555C16.4164 17.7563 16.4083 18.4492 16.4083 18.4492C16.4083 18.4492 15.7549 18.4411 15.6532 18.4492L13.8009 18.4726H13.3419V18.9398L13.3887 21.8738V22.3408H13.8477L15.7 22.3103C15.9106 22.3022 16.4938 22.3103 16.4938 22.3103C16.4938 22.3103 16.4857 22.8629 16.4938 23.0654L16.6261 31.8665C16.6342 32.069 16.6261 33.4388 16.6261 33.4388H11.5365C5.91065 33.4388 2.56445 30.0926 2.56445 24.4505V11.5328C2.56445 5.90689 5.91065 2.5607 11.5365 2.5607H24.4695C30.0954 2.5607 33.4416 5.90689 33.4416 11.5328L33.439 24.4667Z" fill="#6E7191" />
    </g>
    <defs>
        <clipPath id="clip0_30361_14171">
            <rect width="36" height="36" fill="white" />
        </clipPath>
    </defs>
</svg>