<svg width="18" height="18" viewBox="0 0 18 18" fill="none" xmlns="http://www.w3.org/2000/svg">
    <g clip-path="url(#clip0_31358_2700)">
        <path d="M8.99938 15.9161C8.7901 15.92 8.58166 15.8885 8.38288 15.8229C5.64553 14.8838 1.29493 11.5511 1.29493 6.62853C1.29254 5.42629 1.76753 4.27227 2.61554 3.42005C3.46354 2.56782 4.61519 2.08711 5.81743 2.08353C6.40888 2.08112 6.99489 2.19651 7.54128 2.42296C8.08766 2.64941 8.58349 2.98239 8.99983 3.40248C9.41612 2.98245 9.91187 2.64949 10.4582 2.42305C11.0045 2.1966 11.5904 2.08118 12.1818 2.08353C13.3836 2.08842 14.5345 2.56955 15.3822 3.42149C16.2299 4.27343 16.7054 5.42669 16.7043 6.62853C16.7043 11.5596 12.3537 14.8851 9.61588 15.8238C9.41705 15.8891 9.20861 15.9203 8.99938 15.9161ZM5.81743 3.15858C4.90064 3.16323 4.02306 3.53101 3.3769 4.1814C2.73073 4.83178 2.36866 5.71173 2.36998 6.62853C2.36998 11.5236 7.07878 14.247 8.73433 14.8136C8.911 14.8566 9.09541 14.8566 9.27208 14.8136C10.9204 14.2461 15.6364 11.5299 15.6364 6.62853C15.6375 5.71189 15.2753 4.83216 14.6292 4.18198C13.9831 3.53179 13.1056 3.16413 12.189 3.15948C11.6532 3.15839 11.1247 3.28374 10.6465 3.52535C10.1682 3.76697 9.75378 4.11803 9.43678 4.54998C9.38475 4.61378 9.31917 4.6652 9.2448 4.70051C9.17043 4.73583 9.08913 4.75415 9.00681 4.75415C8.92448 4.75415 8.84318 4.73583 8.76881 4.70051C8.69444 4.6652 8.62886 4.61378 8.57683 4.54998C8.25838 4.11775 7.84264 3.76656 7.36325 3.52483C6.88387 3.28311 6.35431 3.15764 5.81743 3.15858Z" fill="#2F2F3D" />
    </g>
    <defs>
        <clipPath id="clip0_31358_2700">
            <rect width="18" height="18" fill="white" />
        </clipPath>
    </defs>
</svg>