<svg width="14" height="14" viewBox="0 0 14 14" fill="none" xmlns="http://www.w3.org/2000/svg">
    <path d="M5.43757 12.6007C2.60863 12.6007 1.40007 11.3918 1.40007 8.56304V5.43781C1.40007 2.60908 2.60863 1.40015 5.43757 1.40015H8.56313C11.3921 1.40015 12.6006 2.60908 12.6006 5.43781V8.56304C12.6006 11.3918 11.3921 12.6007 8.56313 12.6007H5.43757ZM2.18137 5.43818V8.56341C2.18137 10.9645 3.03591 11.8194 5.43757 11.8194H8.56313C10.9644 11.8194 11.8197 10.9649 11.8197 8.56341V5.43818C11.8197 3.03708 10.9652 2.18222 8.56313 2.18222H5.43757C3.03591 2.18222 2.18137 3.0367 2.18137 5.43818ZM8.58993 10.6619C8.51728 10.5886 8.47631 10.4896 8.47566 10.3863V8.35536C8.47618 8.25207 8.51717 8.15306 8.58993 8.07975C8.66337 8.00694 8.76233 7.96595 8.86575 7.96548C8.96901 7.96617 9.06777 8.00713 9.14119 8.07975C9.21416 8.15293 9.25555 8.25202 9.25584 8.35536V10.3863C9.25539 10.4896 9.21402 10.5887 9.14119 10.6619C9.06777 10.7346 8.96901 10.7756 8.86575 10.7763C8.76233 10.7758 8.66337 10.7348 8.58993 10.6619ZM4.86025 10.6619C4.78764 10.5885 4.74667 10.4896 4.74598 10.3863V9.71675C4.53962 9.66901 4.34331 9.58456 4.1668 9.46747C3.88032 9.27527 3.65708 9.00285 3.52472 8.68428C3.39273 8.36506 3.35772 8.01388 3.42459 7.67498C3.49221 7.33654 3.65886 7.02569 3.9029 6.78162C4.1471 6.5377 4.45804 6.37167 4.7966 6.30447C5.13525 6.23764 5.4859 6.27223 5.80496 6.40394C6.12376 6.53611 6.39656 6.75972 6.58849 7.04653C6.78012 7.33344 6.8822 7.67071 6.88217 8.01573C6.88236 8.24498 6.83744 8.47204 6.74966 8.68382C6.66188 8.8956 6.53305 9.08794 6.37074 9.24983C6.13925 9.48151 5.84721 9.64335 5.52802 9.71675V10.3863C5.52807 10.4378 5.5178 10.4887 5.49787 10.5361C5.47877 10.5837 5.45021 10.6267 5.41375 10.6627C5.37739 10.699 5.33427 10.7279 5.28682 10.7476C5.23929 10.7676 5.188 10.7778 5.13644 10.7774C5.0327 10.7769 4.93351 10.7354 4.86025 10.6619ZM4.5997 7.21542C4.4412 7.32108 4.31772 7.47128 4.2446 7.64716C4.17147 7.82348 4.15242 8.01756 4.18951 8.2048C4.22729 8.39146 4.31877 8.56291 4.45304 8.69796C4.58806 8.83234 4.75976 8.92381 4.94661 8.96092C5.13366 8.99826 5.32756 8.97936 5.50383 8.90648C5.67977 8.83327 5.83044 8.70964 5.93635 8.55122C6.04229 8.39259 6.09871 8.20611 6.09864 8.01536C6.09877 7.75997 5.99735 7.51503 5.81687 7.33433C5.63588 7.15375 5.39063 7.05232 5.13495 7.0523C4.94496 7.05255 4.75954 7.10932 4.60193 7.21542H4.5997ZM7.89573 7.43603C7.60866 7.24411 7.38509 6.97147 7.2529 6.65247C7.12084 6.33365 7.08606 5.98281 7.15352 5.64438C7.22078 5.30597 7.38682 4.99509 7.63071 4.75102C7.8624 4.51941 8.15453 4.35759 8.47379 4.2841V3.61452C8.47454 3.51162 8.51589 3.41311 8.58844 3.34012C8.66188 3.26731 8.76084 3.22623 8.86426 3.22576C8.96752 3.22646 9.06629 3.26751 9.1397 3.34012C9.21246 3.41297 9.25384 3.51157 9.25435 3.61452V4.2841C9.3491 4.30594 9.44173 4.33558 9.53165 4.37259C9.85043 4.50498 10.1229 4.72843 10.3152 5.01509C10.5067 5.30245 10.6091 5.64016 10.6089 5.9855C10.6089 6.4478 10.4255 6.89118 10.0989 7.21839C9.93684 7.38058 9.74423 7.50925 9.5324 7.59701C9.32056 7.68477 9.09355 7.72992 8.86426 7.72988C8.51958 7.72948 8.18271 7.62712 7.8961 7.43566L7.89573 7.43603ZM8.32937 5.1836C8.17138 5.28973 8.04813 5.43989 7.97464 5.61544C7.90235 5.79198 7.88356 5.9858 7.9203 6.17299C7.95742 6.35963 8.04857 6.53117 8.18272 6.66615C8.31824 6.80103 8.49057 6.89284 8.67814 6.92994C8.86502 6.96696 9.05867 6.94772 9.23462 6.87467C9.41127 6.80231 9.5624 6.67851 9.66789 6.51941C9.77326 6.36139 9.82954 6.1758 9.8298 5.98587C9.82991 5.85932 9.80487 5.73396 9.75647 5.61702C9.70808 5.50009 9.63717 5.39384 9.54766 5.30438C9.36706 5.1236 9.12204 5.0219 8.86649 5.0216C8.67559 5.02145 8.48882 5.07769 8.32974 5.18323L8.32937 5.1836ZM4.861 5.92185C4.78859 5.8483 4.74766 5.74945 4.74673 5.64624V3.61452C4.74751 3.51162 4.78848 3.41313 4.861 3.34012C4.93416 3.26736 5.03288 3.22627 5.13607 3.22576C5.23968 3.2264 5.33917 3.26744 5.41301 3.34012C5.48562 3.41306 5.52661 3.5116 5.52728 3.61452V5.64624C5.52737 5.6978 5.51709 5.74888 5.49713 5.79642C5.47806 5.84395 5.44949 5.88704 5.41301 5.92297C5.37656 5.95921 5.33346 5.98812 5.28608 6.00801C5.23831 6.02707 5.18713 6.03675 5.1357 6.03658C5.08445 6.03651 5.03373 6.02628 4.98644 6.00653C4.93914 5.98677 4.89633 5.95788 4.86025 5.92148L4.861 5.92185Z" fill="#191A24" />
</svg>
    