<svg width="16" height="16" viewBox="0 0 16 16" fill="none" xmlns="http://www.w3.org/2000/svg">
<g clip-path="url(#clip0_30415_5185)">
<path d="M9.91462 14.8613H6.08499C5.86875 14.8613 5.65789 14.8554 5.45834 14.8438C5.25754 14.8322 5.06211 14.8143 4.87746 14.7909C4.69185 14.7673 4.51155 14.7373 4.34162 14.7018C4.17096 14.6661 4.00558 14.6237 3.85011 14.5758C3.69802 14.5291 3.54848 14.4745 3.40214 14.4121C3.26324 14.3527 3.12798 14.2852 2.99703 14.21C2.87098 14.1374 2.74969 14.0568 2.63393 13.9687C2.5206 13.8823 2.41316 13.7883 2.31232 13.6876C2.21154 13.5867 2.11762 13.4792 2.03116 13.3658C1.9431 13.2501 1.86253 13.1288 1.78994 13.0027C1.71469 12.8718 1.64721 12.7365 1.58787 12.5976C1.52545 12.4512 1.47081 12.3017 1.42417 12.1496C1.37624 11.994 1.33384 11.8286 1.29815 11.658C1.26258 11.4881 1.23268 11.3078 1.20905 11.1222C1.18561 10.9377 1.16781 10.7423 1.15612 10.5413C1.14457 10.3416 1.13867 10.1308 1.13867 9.91462V6.0857C1.13867 5.86955 1.14455 5.65869 1.15612 5.45899C1.16781 5.25797 1.18561 5.06251 1.20905 4.87805C1.23262 4.69241 1.26258 4.51215 1.29815 4.34215C1.33384 4.17154 1.37624 4.00613 1.42417 3.85055C1.47081 3.69843 1.52545 3.54888 1.58787 3.40253C1.64721 3.26361 1.71469 3.12831 1.78994 2.99732C1.86254 2.87128 1.94311 2.75 2.03116 2.63422C2.11762 2.52084 2.21155 2.41335 2.31232 2.31247C2.41316 2.21171 2.5206 2.11778 2.63393 2.03131C2.74969 1.94323 2.87098 1.86265 2.99703 1.79005C3.12798 1.71477 3.26324 1.64728 3.40214 1.58793C3.54848 1.52552 3.69802 1.47088 3.85011 1.42424C4.00562 1.37631 4.171 1.3339 4.34162 1.2982C4.51155 1.26263 4.69185 1.23272 4.87746 1.20907C5.06216 1.18561 5.25759 1.1678 5.45834 1.15613C5.65793 1.14458 5.86878 1.13864 6.08499 1.13864H9.91462C10.1309 1.13864 10.3418 1.14452 10.5414 1.15613C10.7422 1.1678 10.9376 1.18561 11.1223 1.20907C11.3079 1.23264 11.4882 1.26263 11.6582 1.2982C11.8288 1.3339 11.9942 1.37631 12.1497 1.42424C12.3019 1.47088 12.4514 1.52552 12.5977 1.58793C12.7366 1.64727 12.8719 1.71476 13.0029 1.79005C13.1289 1.86265 13.2502 1.94323 13.366 2.03131C13.4793 2.11778 13.5868 2.21171 13.6877 2.31247C13.7884 2.41335 13.8823 2.52084 13.9688 2.63422C14.0568 2.74999 14.1374 2.87128 14.21 2.99732C14.2852 3.12831 14.3527 3.26361 14.412 3.40253C14.4744 3.54889 14.5291 3.69843 14.5757 3.85055C14.6236 4.00602 14.666 4.1714 14.7017 4.34215C14.7373 4.5121 14.7672 4.69239 14.7908 4.87805C14.8143 5.06293 14.8321 5.25832 14.8437 5.45899C14.8553 5.65871 14.8612 5.86957 14.8612 6.0857V9.91462C14.8612 10.1307 14.8554 10.3416 14.8437 10.5413C14.8321 10.742 14.8143 10.9374 14.7908 11.1222C14.7672 11.3078 14.7373 11.4881 14.7017 11.658C14.666 11.8288 14.6236 11.9942 14.5757 12.1496C14.5291 12.3017 14.4744 12.4512 14.412 12.5976C14.3527 12.7365 14.2852 12.8718 14.21 13.0027C14.1374 13.1288 14.0568 13.2501 13.9688 13.3658C13.8823 13.4792 13.7884 13.5867 13.6877 13.6876C13.5868 13.7883 13.4794 13.8823 13.366 13.9687C13.2502 14.0568 13.1289 14.1374 13.0029 14.21C12.8719 14.2852 12.7366 14.3527 12.5977 14.4121C12.4514 14.4745 12.3019 14.5291 12.1497 14.5758C11.9943 14.6237 11.8289 14.6661 11.6582 14.7018C11.4882 14.7373 11.3079 14.7673 11.1223 14.7909C10.9377 14.8144 10.7422 14.8322 10.5414 14.8438C10.3418 14.8554 10.131 14.8613 9.91462 14.8613ZM8.08526 3.73288C8.05676 3.73218 8.02823 3.7336 7.99994 3.73716C7.22371 3.75013 6.46593 3.97581 5.80908 4.38963C5.15223 4.80345 4.62151 5.38954 4.27469 6.0841C3.97453 6.67816 3.81814 7.33442 3.8181 8C3.81815 8.66559 3.97454 9.32187 4.27469 9.91595H4.27896C4.62516 10.6101 5.15515 11.196 5.81125 11.6098C6.46734 12.0236 7.22438 12.2495 7.99996 12.2629C8.02825 12.2664 8.05678 12.2679 8.08528 12.2672C9.20477 12.2672 10.1816 11.9101 10.9101 11.2345C11.3189 10.8546 11.6391 10.3895 11.8484 9.87222C12.0696 9.33299 12.1818 8.73473 12.1818 8.09386C12.1826 7.92994 12.1741 7.76611 12.1562 7.60317C12.1458 7.49859 12.0967 7.40165 12.0186 7.33139C11.9404 7.26112 11.8388 7.22261 11.7337 7.2234H8.51202C8.39889 7.22353 8.29042 7.26853 8.21042 7.34852C8.13042 7.42851 8.08543 7.53697 8.0853 7.6501V8.37982C8.08543 8.49295 8.13042 8.60141 8.21042 8.6814C8.29042 8.7614 8.39889 8.80639 8.51202 8.80652H10.4365C10.4103 9.02577 10.325 9.27064 10.1965 9.49617C10.1222 9.62647 10.0345 9.74869 9.93484 9.86082C9.82509 9.98422 9.7013 10.0944 9.566 10.1891C9.37054 10.324 9.15533 10.4278 8.92804 10.4968C8.79908 10.536 8.66731 10.5654 8.53388 10.5845C8.38529 10.6056 8.23538 10.6161 8.0853 10.6158C8.0568 10.6165 8.02827 10.615 7.99998 10.6115C7.73426 10.6033 7.47156 10.5529 7.2217 10.4621C6.97872 10.3737 6.75066 10.2487 6.5454 10.0914C6.34077 9.9349 6.16057 9.74878 6.01073 9.53919C5.8587 9.32683 5.73955 9.09277 5.65728 8.8449C5.61218 8.71013 5.57741 8.57211 5.55328 8.43205C5.52889 8.28932 5.51658 8.14478 5.51647 7.99998C5.51763 7.71296 5.56372 7.42788 5.65306 7.15511C5.67868 7.07831 5.7089 7.00078 5.74264 6.92465C5.83995 6.70561 5.9667 6.50087 6.11937 6.3161C6.27048 6.13314 6.44596 5.97176 6.64092 5.83646C6.83699 5.70034 7.05136 5.59271 7.27765 5.51678C7.51083 5.43879 7.75422 5.39553 7.99999 5.38839C8.02828 5.38474 8.05681 5.38331 8.08532 5.38411C8.22907 5.38392 8.3726 5.39555 8.51445 5.41891C8.64111 5.43996 8.76587 5.47113 8.88755 5.51212C9.09524 5.58242 9.29201 5.68153 9.47214 5.80656C9.54037 5.85391 9.62148 5.87923 9.70453 5.8791C9.75944 5.87907 9.81381 5.86836 9.86463 5.84756C9.9171 5.8262 9.96495 5.79488 10.0055 5.75535L10.5987 5.17501C10.6438 5.13104 10.6786 5.07773 10.7009 5.01881C10.7231 4.9599 10.7322 4.89682 10.7274 4.83403C10.723 4.77334 10.7054 4.71433 10.6758 4.66118C10.6462 4.60802 10.6053 4.56201 10.556 4.52638C9.8403 3.99989 9.00903 3.73288 8.08526 3.73288V3.73288Z" fill="#6E7191"/>
</g>
<defs>
<clipPath id="clip0_30415_5185">
<rect width="16" height="16" fill="white"/>
</clipPath>
</defs>
</svg>
