<svg width="36" height="36" viewBox="0 0 36 36" fill="none" xmlns="http://www.w3.org/2000/svg">
    <g opacity="0.8" clip-path="url(#clip0_30361_14254)">
        <path d="M3.37149 28.7388C3.16559 28.3032 2.99096 27.8535 2.84925 27.393C2.69767 26.8923 2.57574 26.3831 2.4828 25.8683C2.38144 25.3037 2.30862 24.7345 2.26506 24.1626C2.21792 23.5689 2.19336 22.9316 2.19336 22.27V13.5207C2.19336 12.8645 2.21613 12.2318 2.26417 11.6418C2.31221 11.0517 2.38415 10.477 2.47661 9.94672C2.56868 9.43511 2.68919 8.92902 2.83863 8.43113C2.97865 7.97291 3.15072 7.52497 3.3529 7.09058L11.5281 13.0874C11.3451 13.3236 11.1755 13.5696 11.0192 13.8243C10.7704 14.2327 10.5579 14.6622 10.3845 15.1078C10.028 16.0278 9.84599 17.006 9.84722 17.9927C9.84561 18.9814 10.0283 19.9616 10.3863 20.8832C10.5583 21.3299 10.7709 21.7601 11.0209 22.1684C11.1415 22.3687 11.2743 22.5665 11.4157 22.7559L3.37149 28.7388ZM13.8516 20.944C13.829 20.9132 13.807 20.8814 13.7861 20.8533C13.2032 20.0141 12.8913 19.0163 12.893 17.9945C12.8914 16.9761 13.2021 15.9817 13.7826 15.145C13.8451 15.0543 13.9102 14.969 13.9773 14.8847L18.0154 17.8478L13.8516 20.9458V20.944Z" fill="#6E7191" />
        <path d="M17.8801 17.8776L13.9341 14.9373C14.1667 14.6332 14.4334 14.3569 14.7289 14.1135C15.0256 13.8685 15.3483 13.6574 15.692 13.4844C16.0419 13.3088 16.4115 13.1742 16.7922 13.0829C17.1859 12.9889 17.5886 12.9414 17.9934 12.9415C19.2418 12.9401 20.4479 13.3948 21.3843 14.2204L23.4875 12.0296C21.9812 10.6695 20.022 9.91889 17.9925 9.92407C16.8343 9.924 15.6897 10.1696 14.6333 10.6446C13.577 11.1195 12.6332 11.8131 11.8646 12.6795C11.7386 12.8227 11.6159 12.9723 11.5017 13.1245L3.36719 7.0635C3.55956 6.65557 3.78582 6.26442 4.04344 5.89422C4.29144 5.53741 4.57102 5.20385 4.87902 4.89733C5.18736 4.58954 5.52297 4.30976 5.881 4.06153C6.25149 3.80488 6.64261 3.57942 7.05028 3.38727C7.48507 3.18282 7.93348 3.00982 8.39305 2.86968C8.89132 2.71825 9.39815 2.59704 9.91108 2.50699C10.444 2.41091 11.015 2.33839 11.6114 2.29035C12.2078 2.24231 12.837 2.21887 13.4959 2.21887H22.2491C22.9153 2.21887 23.5558 2.24339 24.1522 2.29234C24.7486 2.34128 25.331 2.41551 25.8703 2.5134C26.388 2.60672 26.899 2.73153 27.4016 2.88694C27.864 3.03078 28.3156 3.20796 28.7523 3.41714C29.1635 3.6147 29.5575 3.84596 29.9304 4.10866C30.288 4.36343 30.6222 4.65018 30.928 4.96526C31.2367 5.28077 31.5158 5.62378 31.7618 5.99026C32.0222 6.39204 32.2506 6.81369 32.4451 7.25115L19.5238 16.6731L18.3315 16.6866V17.5496L17.8783 17.8822L17.8801 17.8776Z" fill="#6E7191" />
        <path d="M22.2472 33.5736H13.4966C8.14889 33.5736 4.92352 32.0255 3.35547 28.7017L11.3899 22.7195C11.5395 22.9252 11.7002 23.1257 11.8679 23.3161C12.6356 24.1824 13.5784 24.876 14.634 25.351C15.6896 25.826 16.8347 26.0714 17.9923 26.0713C19.6744 26.0753 21.316 25.5584 22.6924 24.5913C23.4045 24.0923 24.0319 23.4823 24.5512 22.7847L32.4458 28.5858C32.2571 29.0051 32.0346 29.4079 31.7793 29.7902C31.5336 30.1584 31.2548 30.5035 30.9464 30.821C30.6389 31.1374 30.3029 31.4253 29.9435 31.6811C29.5728 31.9454 29.1805 32.1778 28.7707 32.3762C28.3311 32.5867 27.8767 32.7649 27.4111 32.9093C26.9084 33.066 26.3962 33.1917 25.878 33.2855C25.3387 33.3834 24.761 33.4585 24.1564 33.5074C23.5519 33.5564 22.9161 33.5736 22.2472 33.5736ZM17.9869 23.0523C17.5668 23.0525 17.1482 23.0009 16.7407 22.8989C16.3457 22.8 15.9642 22.6539 15.6041 22.4639C15.2497 22.277 14.9185 22.0491 14.6172 21.785C14.3174 21.5217 14.0493 21.2247 13.8179 20.8996L17.8763 17.8777L18.3295 18.2103V19.473H20.0511L22.1038 20.983C21.8023 21.3901 21.4424 21.7502 21.0354 22.0516L21.2947 22.4486L21.0354 22.0525C20.6051 22.3698 20.1285 22.6181 19.6218 22.7885C19.0961 22.9639 18.5456 23.053 17.9914 23.0523H17.9869Z" fill="#6E7191" />
        <path d="M32.4132 28.6492L24.5416 22.7929C25.5843 21.4087 26.1463 19.7222 26.1428 17.9892C26.1433 17.5336 26.1048 17.0787 26.0278 16.6296H22.9094L19.491 16.6686L32.4318 7.17758C32.6266 7.60841 32.7916 8.05214 32.9257 8.50552C33.0715 8.99738 33.1881 9.49745 33.2754 10.003C33.366 10.5269 33.4363 11.0907 33.4825 11.6735C33.5287 12.2563 33.5515 12.8752 33.5515 13.5214V22.2709C33.5515 22.9217 33.5269 23.5471 33.4816 24.1317C33.4363 24.7163 33.3643 25.2864 33.2718 25.813C33.1828 26.321 33.0648 26.8235 32.9178 27.3178C32.7802 27.7731 32.6112 28.2185 32.4132 28.651V28.6492ZM22.1092 20.9821L20.0805 19.4729H22.8731C22.7057 20.0156 22.4476 20.526 22.1092 20.9821ZM18.3359 18.1722L17.8906 17.8405L18.3359 17.5132V18.1722Z" fill="#6E7191" />
    </g>
    <defs>
        <clipPath id="clip0_30361_14254">
            <rect width="36" height="36" fill="white" />
        </clipPath>
    </defs>
</svg>