<svg width="100%" height="100%" viewBox="0 0 32 32" fill="none" xmlns="http://www.w3.org/2000/svg">
    <path d="M1.37149 26.7391C1.16559 26.3034 0.990964 25.8537 0.849253 25.3932C0.697673 24.8925 0.575744 24.3834 0.482802 23.8685C0.381436 23.304 0.308619 22.7348 0.265056 22.1629C0.217924 21.5692 0.193359 20.9319 0.193359 20.2702V11.521C0.193359 10.8647 0.216132 10.2321 0.264171 9.64202C0.31221 9.05196 0.384154 8.47721 0.476606 7.94697C0.568678 7.43535 0.689193 6.92927 0.838631 6.43137C0.978651 5.97315 1.15072 5.52521 1.3529 5.09082L9.52812 11.0877C9.34507 11.3239 9.17545 11.5699 9.01916 11.8246C8.77042 12.2329 8.55793 12.6624 8.38451 13.108C8.02804 14.0281 7.84599 15.0063 7.84722 15.9929C7.84561 16.9816 8.02826 17.9618 8.38628 18.8834C8.55831 19.3302 8.77086 19.7604 9.02093 20.1686C9.14148 20.3689 9.27431 20.5667 9.4157 20.7561L1.37149 26.7391ZM11.8516 18.9442C11.829 18.9134 11.807 18.8816 11.7861 18.8535C11.2032 18.0143 10.8913 17.0165 10.893 15.9947C10.8914 14.9763 11.2021 13.982 11.7826 13.1452C11.8451 13.0546 11.9102 12.9693 11.9773 12.885L16.0154 15.848L11.8516 18.946V18.9442Z" fill="#FABC05" />
    <path d="M15.8801 15.8777L11.9341 12.9374C12.1667 12.6334 12.4334 12.357 12.7289 12.1136C13.0256 11.8686 13.3483 11.6575 13.692 11.4845C14.0419 11.3089 14.4115 11.1743 14.7922 11.0831C15.1859 10.989 15.5886 10.9415 15.9934 10.9417C17.2418 10.9402 18.4479 11.3949 19.3843 12.2205L21.4875 10.0297C19.9812 8.66961 18.022 7.91901 15.9925 7.92419C14.8343 7.92412 13.6897 8.16974 12.6333 8.6447C11.577 9.11967 10.6332 9.81322 9.86459 10.6797C9.73861 10.8229 9.61589 10.9724 9.50168 11.1247L1.36719 5.06362C1.55956 4.65569 1.78582 4.26454 2.04344 3.89434C2.29144 3.53753 2.57102 3.20397 2.87902 2.89745C3.18736 2.58966 3.52297 2.30988 3.881 2.06165C4.25149 1.80501 4.64261 1.57955 5.05028 1.38739C5.48507 1.18294 5.93348 1.00994 6.39305 0.869798C6.89132 0.718368 7.39815 0.597161 7.91108 0.507109C8.44403 0.411032 9.01504 0.338508 9.61144 0.29047C10.2078 0.242431 10.837 0.218994 11.4959 0.218994H20.2491C20.9153 0.218994 21.5558 0.243516 22.1522 0.292461C22.7486 0.341406 23.331 0.415637 23.8703 0.513527C24.388 0.606844 24.899 0.731651 25.4016 0.887058C25.864 1.0309 26.3156 1.20808 26.7523 1.41726C27.1635 1.61482 27.5575 1.84608 27.9304 2.10878C28.288 2.36356 28.6222 2.65031 28.928 2.96538C29.2367 3.28089 29.5158 3.62391 29.7618 3.99038C30.0222 4.39216 30.2506 4.81381 30.4451 5.25127L17.5238 14.6732L16.3315 14.6867V15.5497L15.8783 15.8823L15.8801 15.8777Z" fill="#EA4235" />
    <path d="M20.2472 31.5738H11.4966C6.14889 31.5738 2.92352 30.0257 1.35547 26.7019L9.38994 20.7197C9.5395 20.9254 9.70024 21.1259 9.86792 21.3163C10.6356 22.1826 11.5784 22.8762 12.634 23.3512C13.6896 23.8262 14.8347 24.0716 15.9923 24.0715C17.6744 24.0755 19.316 23.5586 20.6924 22.5915C21.4045 22.0925 22.0319 21.4825 22.5512 20.785L30.4458 26.586C30.2571 27.0053 30.0346 27.4081 29.7793 27.7905C29.5336 28.1586 29.2548 28.5038 28.9464 28.8212C28.6389 29.1376 28.3029 29.4255 27.9435 29.6813C27.5728 29.9456 27.1805 30.178 26.7707 30.3764C26.3311 30.5869 25.8767 30.7652 25.4111 30.9095C24.9084 31.0662 24.3962 31.1919 23.878 31.2857C23.3387 31.3836 22.761 31.4587 22.1564 31.5076C21.5519 31.5566 20.9161 31.5738 20.2472 31.5738ZM15.9869 21.0525C15.5668 21.0527 15.1482 21.0011 14.7407 20.8991C14.3457 20.8002 13.9642 20.6541 13.6041 20.4641C13.2497 20.2772 12.9185 20.0494 12.6172 19.7852C12.3174 19.5219 12.0493 19.2249 11.8179 18.8998L15.8763 15.8779L16.3295 16.2105V17.4732H18.0511L20.1038 18.9832C19.8023 19.3903 19.4424 19.7504 19.0354 20.0518L19.2947 20.4488L19.0354 20.0527C18.6051 20.37 18.1285 20.6183 17.6218 20.7887C17.0961 20.9641 16.5456 21.0532 15.9914 21.0525H15.9869Z" fill="#34A853" />
    <path d="M30.4132 26.6494L22.5416 20.793C23.5843 19.4089 24.1463 17.7223 24.1428 15.9894C24.1433 15.5337 24.1048 15.0789 24.0278 14.6298H20.9094L17.491 14.6687L30.4318 5.17773C30.6266 5.60856 30.7916 6.0523 30.9257 6.50568C31.0715 6.99754 31.1881 7.4976 31.2754 8.00312C31.366 8.52702 31.4363 9.09081 31.4825 9.67361C31.5287 10.2564 31.5515 10.8753 31.5515 11.5216V20.271C31.5515 20.9218 31.5269 21.5472 31.4816 22.1318C31.4363 22.7165 31.3643 23.2866 31.2718 23.8132C31.1828 24.3211 31.0648 24.8236 30.9178 25.3179C30.7802 25.7733 30.6112 26.2187 30.4132 26.6512V26.6494ZM20.1092 18.9823L18.0805 17.4731H20.8731C20.7057 18.0158 20.4476 18.5261 20.1092 18.9823ZM16.3359 16.1724L15.8906 15.8407L16.3359 15.5134V16.1724Z" fill="#4286F5" />
</svg>