<svg width="14" height="14" viewBox="0 0 14 14" fill="none" xmlns="http://www.w3.org/2000/svg">
    <path d="M6.4554 0.609591C6.74574 0.284602 7.25426 0.284602 7.5446 0.60959C7.77574 0.868318 8.15702 0.928705 8.4568 0.754068C8.83336 0.534706 9.31699 0.691847 9.49269 1.09065C9.63257 1.40814 9.97652 1.58339 10.3156 1.50994C10.7415 1.41768 11.1529 1.71658 11.1968 2.15016C11.2317 2.49534 11.5047 2.7683 11.8498 2.80322C12.2834 2.84709 12.5823 3.25849 12.4901 3.6844C12.4166 4.02348 12.5919 4.36743 12.9094 4.50731C13.3082 4.68301 13.4653 5.16664 13.2459 5.5432C13.0713 5.84298 13.1317 6.22426 13.3904 6.4554C13.7154 6.74574 13.7154 7.25426 13.3904 7.5446C13.1317 7.77574 13.0713 8.15702 13.2459 8.4568C13.4653 8.83336 13.3082 9.31699 12.9093 9.49269C12.5919 9.63257 12.4166 9.97652 12.4901 10.3156C12.5823 10.7415 12.2834 11.1529 11.8498 11.1968C11.5047 11.2317 11.2317 11.5047 11.1968 11.8498C11.1529 12.2834 10.7415 12.5823 10.3156 12.4901C9.97652 12.4166 9.63257 12.5919 9.49269 12.9094C9.31699 13.3082 8.83336 13.4653 8.4568 13.2459C8.15702 13.0713 7.77574 13.1317 7.5446 13.3904C7.25426 13.7154 6.74574 13.7154 6.4554 13.3904C6.22426 13.1317 5.84298 13.0713 5.5432 13.2459C5.16664 13.4653 4.68301 13.3082 4.50731 12.9093C4.36743 12.5919 4.02348 12.4166 3.6844 12.4901C3.25849 12.5823 2.84709 12.2834 2.80322 11.8498C2.7683 11.5047 2.49534 11.2317 2.15016 11.1968C1.71658 11.1529 1.41768 10.7415 1.50994 10.3156C1.58339 9.97652 1.40814 9.63257 1.09065 9.49269C0.691847 9.31699 0.534706 8.83336 0.754068 8.4568C0.928705 8.15702 0.868318 7.77574 0.609591 7.5446C0.284602 7.25426 0.284602 6.74574 0.60959 6.4554C0.868318 6.22426 0.928705 5.84298 0.754068 5.5432C0.534706 5.16664 0.691847 4.68301 1.09065 4.50731C1.40814 4.36743 1.58339 4.02348 1.50994 3.6844C1.41768 3.25849 1.71658 2.84709 2.15016 2.80322C2.49534 2.7683 2.7683 2.49534 2.80322 2.15016C2.84709 1.71658 3.25849 1.41768 3.6844 1.50994C4.02348 1.58339 4.36743 1.40814 4.50731 1.09065C4.68301 0.691847 5.16664 0.534706 5.5432 0.754068C5.84298 0.928705 6.22426 0.868318 6.4554 0.609591Z" fill="#15c0ab" />
    <path d="M5.2329 9.85742L3.13715 8.10301C3.09371 8.06681 3.05919 8.02346 3.03563 7.97556C3.01207 7.92767 2.99995 7.87623 3 7.82423C3.0013 7.71849 3.05139 7.61752 3.13929 7.5435C3.22718 7.46948 3.34569 7.42846 3.46876 7.42946C3.59358 7.42946 3.71331 7.47181 3.80198 7.5473L5.56826 9.02593L10.239 5.08799L10.2406 5.08919C10.33 5.02681 10.4433 4.99523 10.5583 5.00059C10.6732 5.00594 10.7818 5.04782 10.8628 5.11814C10.945 5.18806 10.9937 5.28193 10.9994 5.3812C11.0052 5.48048 10.9676 5.57799 10.8939 5.65457L10.8888 5.65883C10.8814 5.66613 10.8737 5.67317 10.8658 5.67977C10.8558 5.6886 10.8452 5.69693 10.8342 5.70474L5.89318 9.86214C5.80648 9.94079 5.68949 9.98977 5.56397 10C5.43767 9.98702 5.32059 9.9366 5.2329 9.85742Z" fill="white" />
</svg>