<svg width="24" height="24" viewBox="0 0 24 24" fill="none" xmlns="http://www.w3.org/2000/svg">
    <g clip-path="url(#clip0_811_40709)">
        <path d="M18.7412 8.87124C18.0269 8.87124 17.3287 8.65943 16.7348 8.26261C16.1409 7.86578 15.678 7.30176 15.4047 6.64186C15.1313 5.98196 15.0598 5.25583 15.1992 4.55529C15.3385 3.85475 15.6825 3.21126 16.1875 2.70619C16.6926 2.20113 17.3361 1.85718 18.0366 1.71783C18.7372 1.57848 19.4633 1.65 20.1232 1.92334C20.7831 2.19668 21.3471 2.65956 21.7439 3.25345C22.1408 3.84734 22.3526 4.54557 22.3526 5.25984C22.3522 6.21754 21.9717 7.13593 21.2945 7.81313C20.6173 8.49033 19.6989 8.87092 18.7412 8.87124ZM18.7412 3.09324C18.3126 3.09324 17.8938 3.22031 17.5375 3.45838C17.1812 3.69645 16.9035 4.03482 16.7395 4.43072C16.5755 4.82661 16.5326 5.26224 16.6162 5.68252C16.6998 6.1028 16.9061 6.48885 17.2091 6.79186C17.5121 7.09486 17.8982 7.30121 18.3185 7.38481C18.7388 7.46841 19.1744 7.4255 19.5703 7.26152C19.9662 7.09753 20.3046 6.81983 20.5426 6.46354C20.7807 6.10724 20.9078 5.68835 20.9078 5.25984C20.9068 4.68551 20.6782 4.13498 20.2721 3.72887C19.866 3.32276 19.3155 3.09419 18.7412 3.09324Z" fill="white" />
        <path d="M11.9999 9.59324H7.18246C6.99131 9.59119 6.80864 9.51402 6.67392 9.3784C6.5392 9.24278 6.46324 9.0596 6.46246 8.86844C6.46449 8.67811 6.541 8.49615 6.67559 8.36156C6.81018 8.22697 6.99214 8.15047 7.18246 8.14844H11.9999C12.1902 8.15047 12.3721 8.22697 12.5067 8.36156C12.6413 8.49615 12.7178 8.67811 12.7199 8.86844C12.7191 9.0596 12.6431 9.24278 12.5084 9.3784C12.3737 9.51402 12.191 9.59119 11.9999 9.59324Z" fill="white" />
        <path d="M15.8519 17.5386H7.18246C6.99131 17.5365 6.80864 17.4593 6.67392 17.3237C6.5392 17.1881 6.46324 17.0049 6.46246 16.8138C6.46449 16.6234 6.541 16.4415 6.67559 16.3069C6.81018 16.1723 6.99214 16.0958 7.18246 16.0938H15.8519C16.0422 16.0958 16.2241 16.1723 16.3587 16.3069C16.4933 16.4415 16.5698 16.6234 16.5719 16.8138C16.5711 17.0049 16.4951 17.1881 16.3604 17.3237C16.2257 17.4593 16.043 17.5365 15.8519 17.5386Z" fill="white" />
        <path d="M15.852 13.6167H7.18259C6.99143 13.6146 6.80876 13.5375 6.67404 13.4018C6.53932 13.2662 6.46336 13.083 6.46259 12.8919C6.46461 12.7015 6.54112 12.5196 6.67571 12.385C6.8103 12.2504 6.99226 12.1739 7.18259 12.1719H15.852C16.0423 12.1739 16.2243 12.2504 16.3589 12.385C16.4934 12.5196 16.57 12.7015 16.572 12.8919C16.5712 13.083 16.4953 13.2662 16.3605 13.4018C16.2258 13.5375 16.0431 13.6146 15.852 13.6167Z" fill="white" />
        <path d="M14.8892 22.3532H9.11117C3.88217 22.3532 1.64777 20.1188 1.64777 14.8898V9.11184C1.64777 3.88284 3.88217 1.64844 9.11117 1.64844H13.9262C14.1165 1.65047 14.2985 1.72697 14.433 1.86156C14.5676 1.99615 14.6441 2.17811 14.6462 2.36844C14.6441 2.55876 14.5676 2.74072 14.433 2.87531C14.2985 3.0099 14.1165 3.08641 13.9262 3.08844H9.11117C4.67117 3.08844 3.09257 4.66764 3.09257 9.10704V14.885C3.09257 19.325 4.67177 20.9036 9.11117 20.9036H14.8892C19.3292 20.9036 20.9078 19.3244 20.9078 14.885V10.0748C20.9078 9.88325 20.9839 9.6995 21.1194 9.56402C21.2548 9.42855 21.4386 9.35244 21.6302 9.35244C21.8218 9.35244 22.0055 9.42855 22.141 9.56402C22.2765 9.6995 22.3526 9.88325 22.3526 10.0748V14.8898C22.3526 20.1188 20.1182 22.3532 14.8892 22.3532Z" fill="white" />
    </g>
    <defs>
        <clipPath id="clip0_811_40709">
            <rect width="24" height="24" fill="white" />
        </clipPath>
    </defs>
</svg>
    