<svg width="18" height="19" viewBox="0 0 18 19" fill="none" xmlns="http://www.w3.org/2000/svg">
    <g clip-path="url(#clip0_898_60840)">
        <path d="M9.52012 17.2207H9.00025C8.93189 17.2208 8.8639 17.2074 8.80073 17.1813C8.73756 17.1552 8.6803 17.117 8.63198 17.0686C8.58359 17.0204 8.54515 16.963 8.51904 16.8999C8.49294 16.8368 8.47973 16.7691 8.47993 16.7008V15.1561C8.48176 14.8818 8.37598 14.6176 8.1855 14.4202C8.09152 14.3232 7.97909 14.2461 7.85459 14.1937C7.73009 14.1413 7.59637 14.1147 7.46128 14.1153C7.32612 14.1146 7.19211 14.1413 7.06753 14.1937C6.94295 14.2461 6.83021 14.3231 6.73618 14.4202C6.54574 14.6176 6.43997 14.8818 6.44175 15.1561V16.7008C6.44185 16.7691 6.42838 16.8368 6.4022 16.8999C6.37602 16.963 6.3377 17.0204 6.28926 17.0686C6.24107 17.117 6.18362 17.1552 6.12051 17.1813C6.0574 17.2074 5.98973 17.2209 5.92144 17.2207H2.77715C2.58003 17.221 2.38471 17.1814 2.20322 17.1044C2.02806 17.0307 1.86884 16.9238 1.73433 16.7896C1.60015 16.655 1.4931 16.4958 1.41924 16.3207C1.34249 16.1391 1.3031 15.9441 1.30322 15.747V12.5825C1.30307 12.5141 1.31659 12.4463 1.34278 12.3832C1.36896 12.32 1.40722 12.2626 1.45571 12.2144C1.50396 12.1659 1.56129 12.1274 1.62446 12.1013C1.68764 12.0751 1.75559 12.0618 1.82398 12.0619H2.64751L3.36734 12.0835C3.64324 12.0832 3.90785 11.9735 4.10298 11.7785C4.29811 11.5834 4.40804 11.3189 4.4084 11.043C4.40816 10.7671 4.29847 10.5025 4.10342 10.3074C3.90837 10.1123 3.64367 10.0026 3.36778 10.0022L2.65059 10.0237H1.82398C1.75558 10.0239 1.68765 10.0106 1.62446 9.98441C1.56128 9.95822 1.50393 9.91976 1.45571 9.87125C1.4072 9.82303 1.36896 9.76568 1.34278 9.7025C1.31659 9.63931 1.30304 9.5716 1.30322 9.5032V6.37869C1.30296 6.18144 1.34236 5.98621 1.41924 5.80455C1.4932 5.62949 1.60023 5.47031 1.73433 5.33565C1.86866 5.20117 2.02793 5.09408 2.20322 5.02056C2.38468 4.94356 2.58003 4.90415 2.77715 4.90455H5.40112V3.79888C5.40058 3.52326 5.4554 3.25048 5.56284 2.99666C5.6145 2.87401 5.67805 2.7566 5.75269 2.64642C5.82667 2.53711 5.91115 2.4352 6.00449 2.34188C6.09817 2.24861 6.20019 2.16422 6.30947 2.08985C6.41986 2.01555 6.53724 1.95202 6.65972 1.90001C6.91343 1.79275 7.18627 1.73764 7.46172 1.73829C7.73716 1.73772 8.00955 1.79284 8.26328 1.90001C8.38562 1.95202 8.50285 2.01556 8.61309 2.08985C8.72228 2.16415 8.82417 2.24855 8.91763 2.34188C9.0113 2.43502 9.09594 2.53694 9.16987 2.64642C9.24433 2.75671 9.30787 2.8741 9.35972 2.99666C9.4671 3.25049 9.52178 3.52328 9.521 3.79888V4.90455H12.1454C12.3425 4.90415 12.5379 4.94356 12.7193 5.02056C12.8946 5.09419 13.0538 5.20127 13.1882 5.33565C13.3226 5.47008 13.4297 5.62932 13.5033 5.80455C13.5804 5.98615 13.6198 6.18142 13.6193 6.37869V8.98289H14.7294C15.0048 8.98224 15.2777 9.03714 15.5314 9.14439C15.6538 9.1962 15.7711 9.25996 15.8812 9.33445C15.9907 9.40838 16.0927 9.49243 16.1862 9.58582C16.2797 9.67912 16.3638 9.7814 16.4375 9.89102C16.5123 10.0012 16.576 10.1184 16.6278 10.241C16.7353 10.4947 16.7906 10.7676 16.79 11.043C16.7906 11.3185 16.7354 11.5912 16.6278 11.8448C16.576 11.9673 16.5123 12.0846 16.4375 12.1946C16.3637 12.3042 16.2796 12.4062 16.1862 12.4996C16.0927 12.5929 15.9906 12.6772 15.8812 12.7512C15.771 12.8255 15.6538 12.8889 15.5314 12.9406C15.2777 13.048 15.0049 13.1033 14.7294 13.1028H13.6193V15.747C13.6196 15.9441 13.5802 16.1392 13.5033 16.3207C13.4296 16.4958 13.3225 16.6551 13.1882 16.7896C13.0537 16.9239 12.8945 17.0307 12.7193 17.1044C12.5379 17.1814 12.3425 17.221 12.1454 17.2207H9.52012Z" fill="#2F2F3D" />
    </g>
    <defs>
        <clipPath id="clip0_898_60840">
            <rect width="18" height="18" fill="white" transform="translate(0 0.5)" />
        </clipPath>
    </defs>
</svg>
    