<svg width="18" height="19" viewBox="0 0 18 19" fill="none" xmlns="http://www.w3.org/2000/svg">
    <g clip-path="url(#clip0_898_61064)">
        <path fill-rule="evenodd" clip-rule="evenodd" d="M9.68595 9.98833C9.88917 10.1185 10.1242 10.1904 10.3655 10.1962C10.5474 10.2012 10.7255 10.1438 10.8704 10.0337C11.0366 9.89897 11.1561 9.71524 11.212 9.50867C11.2678 9.30209 11.2571 9.08324 11.1813 8.88311L10.9932 8.21261L11.5931 7.61133C11.7402 7.48506 11.8485 7.31974 11.9054 7.13441C11.9735 6.95117 11.9781 6.75028 11.9184 6.56411C11.8586 6.37795 11.738 6.21732 11.576 6.10796C11.422 5.98959 11.2375 5.91741 11.0441 5.89999L10.3286 5.8132L9.90195 4.95813C9.83316 4.77464 9.71023 4.61642 9.54945 4.50439C9.38867 4.39237 9.19764 4.3319 9.00168 4.33092C8.80572 4.32994 8.6141 4.38848 8.45221 4.4989C8.29032 4.60932 8.16582 4.76633 8.0952 4.94912L7.72305 5.75914L6.94995 5.88922C6.75634 5.90684 6.57142 5.97791 6.4158 6.09445C6.29642 6.18013 6.19891 6.29276 6.13115 6.42316C6.0634 6.55355 6.02732 6.69798 6.02583 6.84492C6.02434 6.99186 6.05748 7.13714 6.12258 7.26888C6.18767 7.40063 6.28288 7.51522 6.4005 7.60331L6.97875 8.13834L6.8091 8.88124C6.73335 9.08137 6.72262 9.30033 6.77844 9.50691C6.83427 9.71349 6.95381 9.89721 7.12005 10.0319C7.29973 10.1478 7.5108 10.2053 7.7244 10.1966C7.93842 10.1882 8.14429 10.1123 8.31255 9.97976L8.99925 9.5747L9.68595 9.98833ZM7.76715 7.44401L7.26855 6.94402L7.90035 6.84954C8.05644 6.81895 8.20369 6.75371 8.33125 6.6587C8.45881 6.56369 8.56345 6.44134 8.63745 6.30055L8.99745 5.57787L9.35745 6.28616C9.43256 6.42785 9.53851 6.55089 9.6675 6.64618C9.7965 6.74087 9.94475 6.80594 10.1018 6.8369L10.7318 6.94402L10.2332 7.44401C10.1165 7.56769 10.0313 7.71762 9.98478 7.88115C9.93826 8.04469 9.93176 8.21698 9.96585 8.38356L10.0959 8.96188L9.51765 8.62075C9.35919 8.5333 9.18115 8.48738 9.00015 8.48738C8.81916 8.48738 8.64112 8.5333 8.48265 8.62075L7.9044 8.96188L8.04165 8.38356C8.07383 8.2164 8.06571 8.044 8.01797 7.8806C7.97024 7.7172 7.88426 7.56755 7.76715 7.44401Z" fill="#2F2F3D" />
        <path fill-rule="evenodd" clip-rule="evenodd" d="M14.5954 6.977C14.6745 8.07409 14.4286 9.16292 13.8989 10.1116L16.4131 12.6261C16.5716 12.7868 16.6854 12.9861 16.7434 13.2043C16.8012 13.4223 16.7995 13.6519 16.7384 13.869C16.6773 14.0861 16.559 14.2829 16.396 14.4387C16.2325 14.5934 16.0304 14.7012 15.811 14.751L14.6185 15.0345C14.5855 15.0425 14.5554 15.0593 14.5312 15.0831C14.507 15.1069 14.4898 15.1366 14.4812 15.1694L14.2346 16.2328C14.1815 16.4613 14.0656 16.6705 13.8998 16.8365C13.7341 17.0026 13.5252 17.1189 13.2968 17.1725C13.0685 17.2258 12.83 17.2149 12.6075 17.1408C12.3851 17.0668 12.1876 16.9325 12.0368 16.753L9.00156 13.261L5.96631 16.759C5.84952 16.9006 5.70267 17.0143 5.53642 17.0922C5.37017 17.17 5.18868 17.21 5.00511 17.209L5.00331 17.2071C4.9036 17.207 4.80424 17.1954 4.70721 17.1725C4.47819 17.1198 4.26862 17.0038 4.10246 16.8376C3.9363 16.6714 3.82026 16.4618 3.76761 16.2328L3.51471 15.169C3.50616 15.1362 3.48888 15.1064 3.46472 15.0827C3.44055 15.0589 3.4104 15.0421 3.37746 15.0341L2.18496 14.7505C1.96556 14.7007 1.76373 14.5925 1.60084 14.4373C1.43796 14.2821 1.3201 14.0857 1.25976 13.869C1.19916 13.6518 1.19729 13.4224 1.25436 13.2043C1.31227 12.9861 1.42612 12.7868 1.58466 12.6261L4.10865 10.1018C3.57623 9.14372 3.33315 8.04403 3.42056 6.93822C3.53192 5.52958 4.17136 4.21498 5.21082 3.2578C6.25027 2.30062 7.61298 1.77149 9.026 1.7764C10.439 1.78131 11.798 2.31989 12.8308 3.28427C13.8636 4.24866 14.4939 5.56762 14.5954 6.977ZM12.8594 16.0506L10.0961 12.8762C10.9081 12.7153 11.6695 12.3774 12.3285 11.8923C12.6762 11.6381 12.9958 11.3432 13.2797 11.012L15.6575 13.3911C15.679 13.4139 15.6945 13.4417 15.7025 13.4721C15.7108 13.5033 15.7108 13.5363 15.7025 13.5675C15.6936 13.5983 15.6769 13.6262 15.6539 13.6485C15.6309 13.6708 15.6026 13.6868 15.5716 13.6949L14.3791 13.9752C14.15 14.0278 13.9404 14.1438 13.7743 14.31C13.6081 14.4762 13.4921 14.6857 13.4395 14.9148L13.1866 15.9786C13.1787 16.0116 13.1617 16.0417 13.1375 16.0655C13.1138 16.0914 13.0821 16.1086 13.0475 16.1145C13.0133 16.125 12.9766 16.1239 12.9431 16.1113C12.9095 16.1003 12.8802 16.0791 12.8594 16.0506ZM9.65779 11.8389C9.57404 11.8541 9.48989 11.8665 9.40551 11.876C9.04412 11.9147 8.67864 11.9025 8.31981 11.8395C7.69806 11.7466 7.1025 11.5251 6.57114 11.1891C6.03978 10.8531 5.58429 10.4102 5.23371 9.88832C5.22025 9.86777 5.20542 9.84823 5.18935 9.82983C4.65496 9.00471 4.40264 8.02342 4.47832 7.03512C4.56542 5.89773 5.08045 4.83556 5.91961 4.06288C6.75877 3.29019 7.85965 2.86445 9.00034 2.8713C10.1403 2.86885 11.2389 3.29846 12.0748 4.07364C12.9107 4.84882 13.4218 5.91189 13.5052 7.04885C13.5885 8.18581 13.2379 9.31214 12.524 10.2009C11.8101 11.0897 10.786 11.6751 9.65779 11.8389ZM4.72881 11.0205L2.35101 13.3969C2.32693 13.4194 2.30988 13.4484 2.30189 13.4803C2.29391 13.5122 2.29534 13.5458 2.30601 13.577C2.31285 13.608 2.32894 13.6363 2.35216 13.6579C2.37538 13.6796 2.40463 13.6938 2.43606 13.6985L3.62856 13.9819C3.85817 14.0333 4.06844 14.1489 4.23482 14.3153C4.40119 14.4816 4.5168 14.692 4.56816 14.9216L4.82106 15.9822C4.82896 16.0161 4.84591 16.0472 4.87011 16.0722C4.89538 16.096 4.92638 16.1129 4.96011 16.1212C4.99275 16.1277 5.02643 16.1268 5.05866 16.1186C5.09 16.1069 5.11819 16.0881 5.14101 16.0636L7.90896 12.875C6.67072 12.6315 5.55051 11.9782 4.72881 11.0205Z" fill="#2F2F3D" />
    </g>
    <defs>
        <clipPath id="clip0_898_61064">
            <rect width="18" height="18" fill="white" transform="translate(0 0.5)" />
        </clipPath>
    </defs>
</svg>
    