<svg width="16" height="17" viewBox="0 0 16 17" fill="none" xmlns="http://www.w3.org/2000/svg">
    <g clip-path="url(#clip0_1199_3015)">
        <path d="M11.3639 14.3202L10.8197 14.1778C10.6277 14.1246 10.4634 13.9994 10.3615 13.8282C10.2621 13.6553 10.2357 13.4499 10.2877 13.2574C10.311 13.1988 10.3195 13.1355 10.313 13.0728C10.3066 13.0101 10.2853 12.9499 10.2505 12.8974C10.1983 12.8619 10.1379 12.8397 10.0751 12.8327C10.0124 12.8257 9.9491 12.8342 9.89037 12.8574C9.79539 12.8831 9.69616 12.8899 9.59856 12.8772C9.50096 12.8646 9.40688 12.8329 9.32159 12.7838C9.2363 12.7347 9.1616 12.6692 9.10166 12.5912C9.04172 12.5131 8.99777 12.424 8.97235 12.3289L8.84149 11.8465C8.79156 11.6537 8.81965 11.449 8.91962 11.2768C9.01958 11.1046 9.18335 10.9787 9.3755 10.9265C9.53551 10.8821 9.64136 10.8065 9.66497 10.7157C9.67102 10.6528 9.66093 10.5894 9.63528 10.5316C9.60963 10.4739 9.56959 10.4237 9.51886 10.386C9.44957 10.3165 9.39497 10.2336 9.3587 10.1424C9.37065 10.2819 9.35725 10.4222 9.31885 10.5568C9.28058 10.7095 9.21133 10.8527 9.11533 10.9775C9.01933 11.1023 8.89842 11.206 8.76062 11.2821L7.97855 11.7301C7.81211 11.823 7.62501 11.872 7.43439 11.8725C7.33766 11.8722 7.24099 11.8608 7.14687 11.8385C6.86918 11.7626 6.63172 11.5826 6.48317 11.336L6.43082 11.2457C6.16201 10.7856 5.79597 10.7856 5.53156 11.2457L5.48155 11.3321C5.40973 11.4561 5.31425 11.5647 5.20029 11.6516C5.08633 11.7385 4.95646 11.8021 4.81785 11.8385C4.72563 11.8637 4.6306 11.8771 4.53502 11.8785C4.34306 11.8779 4.15467 11.8258 3.98968 11.7277L3.21308 11.2796C3.0765 11.2012 2.95682 11.0966 2.86072 10.9718C2.76462 10.847 2.69423 10.7045 2.65329 10.5524C2.57225 10.246 2.61416 9.91996 2.77009 9.64397C2.83166 9.56435 2.87227 9.47051 2.88806 9.3711C2.90386 9.2717 2.89418 9.16993 2.86033 9.07514C2.79533 8.99846 2.71232 8.93935 2.61852 8.90321C2.52472 8.86707 2.42322 8.85509 2.32358 8.86835C2.00628 8.8675 1.70213 8.74101 1.47784 8.51657C1.25354 8.29213 1.12728 7.98798 1.12665 7.67068V6.87704C1.12728 6.55973 1.25354 6.25559 1.47784 6.03114C1.70213 5.8067 2.00628 5.68021 2.32358 5.67937C2.42343 5.69234 2.5251 5.67999 2.61891 5.64343C2.71272 5.60687 2.79559 5.54729 2.86033 5.47018C2.89532 5.37564 2.90546 5.27367 2.88963 5.17412C2.87379 5.07456 2.83268 4.98076 2.77009 4.90174C2.61433 4.6257 2.57242 4.29977 2.65329 3.9933C2.69305 3.8407 2.76294 3.69766 2.85916 3.57272C2.95537 3.44778 3.0757 3.34349 3.21308 3.26606L3.99437 2.82005C4.24463 2.67565 4.54191 2.6358 4.82136 2.7092C5.10081 2.7826 5.34003 2.96332 5.48702 3.21206L5.53937 3.30249C5.80698 3.76451 6.17219 3.76451 6.4398 3.30249L6.48824 3.21806C6.56019 3.0938 6.65575 2.985 6.7699 2.89788C6.88404 2.81077 7.01428 2.74704 7.15312 2.71042C7.29196 2.6738 7.43705 2.665 7.57931 2.68449C7.72157 2.70399 7.85859 2.75143 7.98246 2.82405L8.76062 3.27007C8.89744 3.34843 9.01717 3.45327 9.11298 3.57848C9.2088 3.70369 9.27898 3.84676 9.31885 3.9993C9.40221 4.30468 9.36102 4.63065 9.2044 4.90575C9.14288 4.98578 9.10209 5.07988 9.08603 5.17954C9.06997 5.27919 9.07895 5.38127 9.1122 5.47657C9.17795 5.55277 9.26165 5.61158 9.35557 5.64773C9.4495 5.68387 9.55103 5.69627 9.6509 5.68381C9.96807 5.68487 10.2717 5.81141 10.4959 6.03583C10.72 6.26025 10.846 6.56426 10.8467 6.88143V7.67507C10.846 7.99224 10.72 8.2963 10.4959 8.52072C10.2717 8.74514 9.96807 8.87168 9.6509 8.87274C9.55104 8.85976 9.44919 8.87189 9.35518 8.908C9.26118 8.9441 9.1777 9.00304 9.1122 9.07954C9.07779 9.17433 9.06837 9.27638 9.08447 9.37594C9.10057 9.4755 9.14185 9.56925 9.2044 9.64836C9.24365 9.71756 9.27639 9.79031 9.30206 9.86561C9.30206 9.86161 9.30206 9.85721 9.30206 9.85321C9.30151 9.75503 9.32042 9.6577 9.35792 9.56696C9.39542 9.47623 9.45072 9.3939 9.52043 9.32476L9.92396 8.92475C10.0515 8.79673 10.2245 8.72446 10.4052 8.72371C10.586 8.72296 10.7598 8.79378 10.8885 8.92074L10.9392 8.96874C11.1749 9.20195 11.3978 9.14356 11.4838 8.82235L11.5002 8.76194C11.5234 8.67498 11.5633 8.59346 11.6182 8.52214C11.6731 8.45082 11.7416 8.3911 11.8198 8.34644C11.8979 8.30179 11.984 8.2731 12.0733 8.26202C12.1626 8.25094 12.2534 8.25773 12.3401 8.28194L12.8847 8.42472C13.0771 8.47635 13.2412 8.60205 13.3413 8.77435C13.4419 8.94674 13.4707 9.15178 13.4214 9.34518C13.3954 9.40265 13.3851 9.46592 13.3913 9.52868C13.3975 9.59144 13.4199 9.65151 13.4566 9.70281C13.5079 9.73929 13.5678 9.76208 13.6304 9.76907C13.693 9.77607 13.7562 9.76704 13.8144 9.7428C14.0071 9.69093 14.2126 9.71767 14.3855 9.81712C14.5585 9.91658 14.685 10.0806 14.7371 10.2732L14.8637 10.7533C14.8894 10.8485 14.8963 10.9479 14.8836 11.0457C14.8708 11.1435 14.8387 11.2378 14.7894 11.3233C14.7402 11.4088 14.6747 11.4837 14.5965 11.5437C14.5182 11.6038 14.4289 11.6478 14.3336 11.6733C14.1736 11.7193 14.0673 11.7957 14.0433 11.8865C14.0359 11.9496 14.0459 12.0134 14.0718 12.0714C14.0977 12.1293 14.1387 12.1792 14.1906 12.2157C14.2601 12.2857 14.315 12.3689 14.3519 12.4604C14.3889 12.5519 14.4072 12.6499 14.4058 12.7485C14.4076 12.8473 14.3889 12.9453 14.3511 13.0366C14.3134 13.1278 14.2573 13.2103 14.1863 13.279L13.7886 13.679C13.7005 13.7615 13.5936 13.8214 13.4773 13.8538C13.4191 13.8701 13.3588 13.8781 13.2984 13.8778C13.1192 13.877 12.9476 13.8073 12.8186 13.683L12.7682 13.637C12.533 13.4018 12.3097 13.4582 12.2237 13.7798L12.2081 13.8422C12.1611 14.0169 12.0468 14.1658 11.8901 14.2562C11.8373 14.2861 11.7812 14.3097 11.7229 14.3266C11.6673 14.3403 11.6102 14.347 11.553 14.3466C11.4891 14.3464 11.4253 14.3375 11.3639 14.3202ZM10.6408 12.5037C10.7253 12.6003 10.7828 12.7176 10.8072 12.8436C10.8317 12.9696 10.8221 13.0998 10.7799 13.221C10.7701 13.2592 10.7682 13.2989 10.774 13.338C10.7798 13.377 10.7931 13.4144 10.8135 13.4482C10.8517 13.5167 10.915 13.5679 10.99 13.591L11.5014 13.7254C11.5625 13.741 11.6272 13.7339 11.6834 13.7054C11.738 13.6701 11.7782 13.6169 11.7979 13.555L11.8135 13.5006C11.8371 13.3752 11.8931 13.2583 11.976 13.1613C12.0589 13.0644 12.166 12.9909 12.2862 12.9481C12.4126 12.9221 12.5436 12.9306 12.6655 12.9728C12.7875 13.0151 12.8956 13.0895 12.9788 13.1881L13.019 13.2306C13.0649 13.275 13.1263 13.2995 13.1901 13.299C13.2524 13.295 13.3117 13.271 13.3593 13.2306L13.7284 12.855C13.7567 12.8275 13.7793 12.7946 13.7949 12.7584C13.8104 12.7221 13.8187 12.6832 13.8191 12.6437C13.8189 12.563 13.7881 12.4853 13.7327 12.4265C13.6348 12.344 13.5605 12.2367 13.5183 12.1158C13.4761 11.9949 13.4672 11.8648 13.4925 11.7393C13.5334 11.6179 13.6061 11.5097 13.7031 11.4259C13.8 11.3422 13.9176 11.2861 14.0437 11.2633C14.1212 11.2419 14.1872 11.191 14.2277 11.1215C14.2681 11.0521 14.2797 10.9696 14.2601 10.8916L14.1402 10.4436C14.1295 10.4052 14.1112 10.3693 14.0867 10.3379C14.0621 10.3066 14.0319 10.2804 13.9972 10.2608C13.9625 10.2412 13.9243 10.2287 13.8847 10.2239C13.8452 10.2191 13.8051 10.2221 13.7667 10.2328C13.6457 10.2742 13.5157 10.2831 13.3902 10.2587C13.2646 10.2344 13.1479 10.1776 13.0511 10.094C12.9665 9.99743 12.9091 9.87996 12.8854 9.75379C12.8618 9.62762 12.8728 9.4974 12.9167 9.37677C12.9262 9.33856 12.9277 9.29884 12.9218 9.25992C12.9159 9.221 12.9023 9.18364 12.8819 9.14995C12.8434 9.08068 12.7795 9.0294 12.7034 9.00717L12.1948 8.87274C12.164 8.86405 12.132 8.8616 12.1002 8.86551C12.0685 8.86943 12.0377 8.87963 12.01 8.89554C11.9823 8.91145 11.9583 8.93273 11.9389 8.95815C11.9195 8.98356 11.9051 9.01261 11.8971 9.04355L11.8815 9.09995C11.8572 9.22591 11.8002 9.34323 11.7158 9.43991C11.6315 9.53659 11.5233 9.60917 11.4018 9.65037C11.2766 9.67407 11.1474 9.66438 11.0271 9.62224C10.9069 9.5801 10.8 9.50703 10.717 9.41036L10.6767 9.37037C10.6464 9.34109 10.6089 9.32014 10.5681 9.30963C10.5273 9.29911 10.4846 9.29937 10.4439 9.31036C10.405 9.32385 10.369 9.34418 10.3373 9.37037L9.96811 9.74441C9.93886 9.77162 9.91545 9.80462 9.89974 9.84134C9.88403 9.87806 9.87617 9.91767 9.87669 9.95761C9.87679 10.0379 9.90812 10.115 9.9642 10.1724C10.0611 10.2562 10.1342 10.364 10.1763 10.4849C10.2184 10.6059 10.2283 10.7358 10.2044 10.8617C10.163 10.9826 10.0902 11.0903 9.9935 11.1739C9.89681 11.2575 9.77966 11.314 9.65403 11.3377C9.61536 11.3477 9.57882 11.3654 9.54699 11.3896C9.51516 11.4137 9.48858 11.4439 9.46847 11.4785C9.44836 11.513 9.43511 11.5512 9.4298 11.5908C9.42449 11.6304 9.4273 11.6707 9.43761 11.7093L9.55754 12.1553C9.57844 12.2324 9.62898 12.2981 9.69817 12.338C9.76736 12.3778 9.84952 12.3887 9.9267 12.3681C10.0098 12.345 10.0955 12.3329 10.1818 12.3321C10.2657 12.3287 10.3496 12.3421 10.4283 12.3715C10.507 12.401 10.579 12.446 10.64 12.5037H10.6408ZM4.33071 3.40089L3.54982 3.85091C3.49046 3.8853 3.43835 3.93103 3.39668 3.98553C3.35502 4.04003 3.32445 4.1022 3.30684 4.1685C3.28876 4.2339 3.2838 4.30224 3.29238 4.36954C3.30097 4.43684 3.32293 4.50175 3.35684 4.56051C3.48042 4.7421 3.5538 4.9531 3.56974 5.17216C3.58568 5.39123 3.54346 5.61062 3.44747 5.80818C3.32534 5.99109 3.15702 6.13814 2.95916 6.23418C2.76131 6.33023 2.54128 6.37183 2.32202 6.35465C2.1841 6.35465 2.05195 6.40942 1.95442 6.50695C1.8569 6.60447 1.80207 6.73672 1.80207 6.87464V7.66829C1.80207 7.80621 1.8569 7.93846 1.95442 8.03598C2.05195 8.1335 2.1841 8.18833 2.32202 8.18833C2.54143 8.17165 2.76134 8.21364 2.95916 8.31002C3.15698 8.40639 3.32537 8.55368 3.44747 8.73675C3.54349 8.93395 3.58569 9.15303 3.56974 9.37179C3.55379 9.59055 3.48044 9.80122 3.35684 9.98241C3.32293 10.0415 3.30096 10.1068 3.29238 10.1744C3.2838 10.242 3.28877 10.3107 3.30684 10.3764C3.34253 10.509 3.42852 10.6222 3.54669 10.692L4.32798 11.138C4.37374 11.1671 4.42517 11.1863 4.47877 11.1942C4.53237 11.2022 4.58709 11.1989 4.63932 11.1845C4.7477 11.1562 4.84028 11.0861 4.89715 10.9896L4.94754 10.9053C5.04228 10.7075 5.18807 10.5385 5.36944 10.4153C5.55081 10.2921 5.76129 10.2192 5.98002 10.204C6.19951 10.2176 6.41164 10.2899 6.59372 10.4132C6.7758 10.5366 6.92114 10.7065 7.01522 10.9053L7.06601 10.9896C7.09261 11.037 7.12872 11.0783 7.17226 11.1108C7.21581 11.1434 7.26576 11.1664 7.31875 11.1785C7.37008 11.1928 7.42372 11.1967 7.47657 11.1898C7.52943 11.1829 7.58024 11.1655 7.62619 11.1385L8.40748 10.6885C8.52737 10.619 8.61509 10.505 8.65124 10.3712C8.66953 10.3058 8.67436 10.2375 8.6657 10.1701C8.65704 10.1028 8.63508 10.0378 8.60085 9.97919C8.47694 9.79774 8.40305 9.58669 8.38717 9.36754C8.37129 9.14839 8.41377 8.92895 8.51022 8.73152C8.6322 8.54856 8.80072 8.40148 8.99853 8.30543C9.19633 8.20937 9.41645 8.16783 9.63567 8.18511C9.70406 8.18548 9.77164 8.17229 9.8349 8.14629C9.89816 8.12029 9.95568 8.082 10.004 8.03364C10.0524 7.98527 10.0909 7.9278 10.1169 7.86454C10.1429 7.80128 10.156 7.73351 10.1556 7.66511V6.86903C10.1556 6.73111 10.1008 6.59886 10.0033 6.50133C9.90574 6.40381 9.77359 6.34903 9.63567 6.34903C9.41652 6.36624 9.19665 6.32467 8.99892 6.22861C8.80119 6.13256 8.63255 5.98552 8.51061 5.80262C8.41412 5.60513 8.37168 5.38558 8.38756 5.16635C8.40344 4.94713 8.4773 4.73607 8.60124 4.55456C8.63544 4.49598 8.65743 4.4311 8.66609 4.36382C8.67475 4.29655 8.66989 4.22826 8.65163 4.16293C8.61582 4.02995 8.52954 3.91605 8.41139 3.84529L7.62971 3.39927C7.58262 3.37157 7.53069 3.35346 7.47657 3.34595C7.42246 3.33844 7.36731 3.34165 7.31446 3.35547C7.2616 3.3693 7.21225 3.39347 7.16875 3.42652C7.12524 3.45957 7.08842 3.50085 7.06093 3.54806L7.01327 3.63449C6.91817 3.83282 6.77183 4.00217 6.58942 4.12509C6.40701 4.24801 6.19525 4.32006 5.97572 4.33374C5.75683 4.32015 5.54556 4.24807 5.36397 4.12509C5.18238 4.00211 5.0371 3.83271 4.94324 3.63449L4.89285 3.5421C4.85522 3.48184 4.80304 3.43214 4.74089 3.39771C4.67874 3.36328 4.6088 3.34522 4.53776 3.34527C4.46478 3.34451 4.39277 3.36376 4.32993 3.40089H4.33071ZM10.8236 11.5753C10.7505 11.3037 10.7881 11.0143 10.9283 10.7705C11.0685 10.5267 11.2998 10.3486 11.5713 10.2752C11.7061 10.2384 11.8468 10.2287 11.9854 10.2465C12.124 10.2643 12.2576 10.3093 12.3788 10.379C12.4999 10.4486 12.6062 10.5416 12.6913 10.6524C12.7764 10.7633 12.8389 10.8898 12.8749 11.0248C12.9107 11.1598 12.9196 11.3005 12.9011 11.4389C12.8825 11.5773 12.8368 11.7107 12.7667 11.8314C12.6965 11.9521 12.6035 12.0578 12.4925 12.1425C12.3814 12.2272 12.2547 12.2892 12.1198 12.3249C12.0313 12.3485 11.9399 12.3606 11.8483 12.3609C11.6147 12.3611 11.3876 12.2843 11.2022 12.1422C11.0167 12.0002 10.8834 11.8009 10.8228 11.5753H10.8236ZM11.6916 10.7272C11.6167 10.7474 11.5464 10.7822 11.485 10.8297C11.4235 10.8771 11.3723 10.9363 11.3338 11.0037C11.2953 11.0711 11.2704 11.1454 11.2607 11.2225C11.2511 11.2995 11.2568 11.3777 11.2775 11.4525C11.3184 11.6042 11.4178 11.7335 11.5537 11.8122C11.6897 11.8909 11.8515 11.9126 12.0034 11.8725C12.1542 11.8309 12.2822 11.7312 12.3596 11.5952C12.4371 11.4593 12.4578 11.2982 12.4167 11.1473C12.3846 11.0211 12.311 10.9092 12.2081 10.8295C12.1051 10.7497 11.9785 10.7067 11.8483 10.7073C11.7951 10.7069 11.7423 10.7136 11.6908 10.7272H11.6916ZM4.28696 7.27105C4.28691 7.04886 4.33049 6.82885 4.41548 6.62356C4.50048 6.41827 4.62521 6.23173 4.7823 6.0746C4.93939 5.91747 5.12588 5.79283 5.33116 5.70779C5.53643 5.62275 5.75626 5.57897 5.97845 5.57897C6.2008 5.57876 6.42105 5.62241 6.62653 5.70735C6.83201 5.79229 7.01888 5.91687 7.17617 6.07402C7.33346 6.23116 7.45824 6.41777 7.54338 6.62317C7.62851 6.82856 7.67229 7.04871 7.67229 7.27105C7.67245 7.49351 7.62883 7.71386 7.54377 7.91942C7.45871 8.12498 7.33386 8.31175 7.17656 8.46906C7.01926 8.62636 6.83248 8.75111 6.62692 8.83617C6.42136 8.92123 6.20092 8.96489 5.97845 8.96474C5.75601 8.96479 5.53587 8.92099 5.33037 8.83582C5.12488 8.75066 4.93833 8.62581 4.78113 8.46842C4.62393 8.31104 4.49923 8.12424 4.41431 7.91864C4.32939 7.71304 4.28587 7.49271 4.28618 7.27027L4.28696 7.27105ZM4.96317 7.27105C4.96338 7.54039 5.07053 7.79869 5.26084 7.9893C5.45114 8.1799 5.70911 8.28726 5.97845 8.2879C6.24804 8.28758 6.50661 8.18037 6.69724 7.98974C6.88787 7.79911 6.99498 7.54064 6.9953 7.27105C6.99509 7.00143 6.88789 6.74291 6.69724 6.55226C6.50659 6.36161 6.24807 6.25441 5.97845 6.2542C5.70932 6.25494 5.45143 6.36228 5.26123 6.5527C5.07103 6.74312 4.96398 7.00113 4.96356 7.27027L4.96317 7.27105Z" fill="#555777" />
    </g>
    <defs>
        <clipPath id="clip0_1199_3015">
            <rect width="16" height="16" fill="white" transform="translate(0 0.500244)" />
        </clipPath>
    </defs>
</svg>
    