<svg width="20" height="20" viewBox="0 0 20 20" fill="none" xmlns="http://www.w3.org/2000/svg">
<path d="M6.8512 17.6764H6.65688C5.58049 17.6782 4.53016 17.3464 3.65019 16.7265C2.76753 16.1098 2.0977 15.2347 1.73281 14.2216C1.58234 13.7827 1.4955 13.3247 1.47452 12.8612V12.8536C1.43321 12.6625 1.43291 12.4648 1.47403 12.2737C1.51515 12.0826 1.59654 11.9024 1.71279 11.7452C1.92423 11.4854 2.22312 11.3119 2.55357 11.2573L3.27863 11.2182H10.2285L10.9526 11.2573C11.2833 11.3116 11.5829 11.4851 11.7943 11.7452C11.9105 11.9025 11.9918 12.0828 12.0331 12.2739C12.0744 12.4651 12.0745 12.6629 12.0336 12.8541V12.8607C12.013 13.3243 11.9258 13.7825 11.7743 14.2211C11.4098 15.2342 10.7405 16.1096 9.85838 16.727C8.97802 17.3464 7.92764 17.678 6.8512 17.6764ZM4.07253 12.2267L3.51299 12.2532C3.26413 12.2871 3.03467 12.4057 2.86312 12.5891C2.77495 12.6932 2.71246 12.8165 2.68051 12.9491C2.64856 13.0817 2.64795 13.2198 2.67905 13.3526V13.3562C2.69535 13.677 2.76306 13.993 2.87923 14.2925C3.20899 15.0183 3.74538 15.6309 4.42115 16.0538C5.09692 16.4767 5.88193 16.6912 6.67885 16.6705H6.82923C7.62623 16.6916 8.41156 16.4773 9.08742 16.0544C9.76327 15.6315 10.2995 15.0186 10.6288 14.2925C10.745 13.993 10.8127 13.677 10.829 13.3562V13.3517C10.8603 13.2189 10.8597 13.0807 10.8276 12.9481C10.7954 12.8156 10.7326 12.6923 10.644 12.5886C10.473 12.4045 10.2427 12.2857 9.99362 12.2527L9.43457 12.2262L4.07253 12.2267ZM6.71205 8.84333C6.28538 8.84486 5.86274 8.76166 5.46846 8.59859C5.07418 8.43552 4.71623 8.19589 4.41529 7.89343C4.11227 7.59275 3.87188 7.2348 3.70829 6.8405C3.5447 6.44621 3.46105 6.02343 3.46221 5.59654C3.46081 5.16918 3.54421 4.74582 3.7078 4.351C3.87139 3.95619 4.11204 3.59774 4.41529 3.29661C4.71623 2.99415 5.07418 2.75451 5.46846 2.59145C5.86274 2.42838 6.28538 2.34518 6.71205 2.34671C7.1392 2.34494 7.5623 2.42801 7.9571 2.59108C8.3519 2.75415 8.71034 2.99393 9.01174 3.29661C9.31411 3.59824 9.55373 3.95674 9.71678 4.35149C9.87983 4.74624 9.96326 5.16945 9.96189 5.59654C9.96309 6.02316 9.87983 6.44578 9.71678 6.84001C9.55373 7.23425 9.31393 7.59228 9.01174 7.89343C8.71044 8.19575 8.35212 8.43521 7.95759 8.5981C7.56307 8.76099 7.14034 8.84405 6.71351 8.84235L6.71205 8.84333ZM6.71205 3.34361C6.11534 3.34361 5.54324 3.58069 5.12131 4.00263C4.69937 4.42457 4.46216 4.99679 4.46216 5.59349C4.46216 6.1902 4.69937 6.76254 5.12131 7.18448C5.54324 7.60641 6.11534 7.84338 6.71205 7.84338C7.30876 7.84338 7.88085 7.60641 8.30279 7.18448C8.72473 6.76254 8.96194 6.1902 8.96194 5.59349C8.9622 4.99687 8.72541 4.42462 8.30377 4.00251C7.88213 3.5804 7.31013 3.34303 6.71351 3.34263L6.71205 3.34361Z" fill="#F2F2F8"/>
<path d="M13.2782 9.5166H18.1915C18.3071 9.53281 18.412 9.59336 18.4838 9.68544C18.5556 9.77753 18.5889 9.89394 18.5764 10.0101C18.5889 10.1262 18.5556 10.2426 18.4838 10.3347C18.412 10.4268 18.3071 10.4873 18.1915 10.5036H13.2782C13.1625 10.4873 13.0575 10.4267 12.9857 10.3345C12.9138 10.2423 12.8807 10.1258 12.8932 10.0096C12.8809 9.89352 12.9142 9.77724 12.9861 9.68526C13.0579 9.59328 13.1626 9.53281 13.2782 9.5166Z" fill="#F2F2F8"/>
<path d="M16.2266 7.55257V12.4673C16.2104 12.583 16.1498 12.6878 16.0577 12.7597C15.9656 12.8315 15.8492 12.8647 15.7331 12.8523C15.617 12.8647 15.5005 12.8315 15.4085 12.7597C15.3164 12.6878 15.2558 12.583 15.2396 12.4673V7.55257C15.2558 7.43691 15.3164 7.33208 15.4085 7.26023C15.5005 7.18839 15.617 7.15517 15.7331 7.16759C15.8492 7.15517 15.9656 7.18839 16.0577 7.26023C16.1498 7.33208 16.2104 7.43691 16.2266 7.55257V7.55257Z" fill="#F2F2F8"/>
</svg>
