<svg width="14" height="14" viewBox="0 0 14 14" fill="none" xmlns="http://www.w3.org/2000/svg">
    <g clip-path="url(#clip0_30534_20846)">
        <path d="M11.2165 1.94293H5.54096C5.41972 1.94219 5.30373 1.89339 5.21842 1.80723C5.13312 1.72108 5.08548 1.6046 5.08594 1.48336C5.08677 1.36164 5.13549 1.24513 5.22156 1.15906C5.30764 1.07298 5.42414 1.02426 5.54586 1.02344H11.2161C11.3379 1.02426 11.4544 1.07298 11.5404 1.15906C11.6265 1.24513 11.6752 1.36164 11.6761 1.48336C11.6752 1.60496 11.6264 1.72133 11.5405 1.80732C11.4545 1.8933 11.3381 1.94202 11.2165 1.94293Z" fill="#6E7191" />
        <path d="M8.46073 12.9776H2.78414C2.66248 12.9768 2.54603 12.9281 2.45996 12.8421C2.3739 12.7561 2.32514 12.6397 2.32422 12.518C2.32504 12.3963 2.37377 12.2798 2.45984 12.1937C2.54591 12.1077 2.66242 12.0589 2.78414 12.0581H8.45443C8.57615 12.0589 8.69265 12.1077 8.77873 12.1937C8.8648 12.2798 8.91352 12.3963 8.91435 12.518C8.91482 12.639 8.86736 12.7553 8.78236 12.8414C8.69736 12.9275 8.58172 12.9765 8.46073 12.9776Z" fill="#6E7191" />
        <path d="M5.62109 12.9776C5.58383 12.9766 5.54671 12.9725 5.51013 12.9653C5.3918 12.9355 5.29003 12.8601 5.22693 12.7556C5.16382 12.6512 5.14446 12.526 5.17306 12.4074L7.93225 1.37205C7.94601 1.31251 7.97147 1.25629 8.00715 1.20667C8.04283 1.15706 8.08802 1.11503 8.14009 1.08304C8.19216 1.05104 8.25008 1.02973 8.31046 1.02032C8.37085 1.01092 8.43251 1.01362 8.49184 1.02826C8.55118 1.0429 8.60701 1.06919 8.65609 1.10561C8.70517 1.14203 8.74651 1.18784 8.77772 1.24039C8.80894 1.29293 8.82939 1.35116 8.83789 1.41168C8.84639 1.4722 8.84277 1.53381 8.82725 1.59292L6.07016 12.6283C6.04468 12.7281 5.98673 12.8166 5.90542 12.8798C5.82412 12.943 5.72409 12.9774 5.62109 12.9776Z" fill="#6E7191" />
    </g>
    <defs>
        <clipPath id="clip0_30534_20846">
            <rect width="14" height="14" fill="white" />
        </clipPath>
    </defs>
</svg>