<svg width="24" height="24" viewBox="0 0 24 24" fill="none" xmlns="http://www.w3.org/2000/svg">
    <path d="M15.8788 22.4293H8.11901C3.63762 22.4293 2.8036 20.3419 2.59 18.3169L1.86457 10.5451C1.74479 9.90992 1.76067 9.25662 1.91112 8.62803C2.06157 7.99944 2.34321 7.40977 2.73758 6.89768C3.61058 5.92748 5.05416 5.46191 7.14936 5.46191H16.8496C18.9526 5.46191 20.3998 5.94188 21.2614 6.89768C21.6563 7.41195 21.9381 8.00377 22.0886 8.63447C22.239 9.26517 22.2546 9.92052 22.1343 10.5577L21.409 18.3061C21.1942 20.3419 20.3596 22.4293 15.8788 22.4293ZM7.14878 6.90969C5.50778 6.90969 4.38219 7.22768 3.81219 7.86968C3.55129 8.23113 3.37118 8.6445 3.28412 9.08169C3.19705 9.51888 3.20507 9.96967 3.30759 10.4035L4.03298 18.1711C4.19978 19.7035 4.61496 20.9761 8.11836 20.9761H15.8781C19.3701 20.9761 19.7968 19.7035 19.9582 18.1633L20.6878 10.4113C20.7873 9.97603 20.7938 9.52457 20.7069 9.0866C20.6199 8.64862 20.4414 8.23394 20.1832 7.86968C19.609 7.22948 18.484 6.90969 16.8466 6.90969H7.14878Z" fill="#6E7191" />
    <path d="M15.8806 6.90957C15.6881 6.90633 15.5044 6.82846 15.3683 6.69233C15.2322 6.5562 15.1542 6.37249 15.151 6.18V5.40422C15.151 3.67802 15.151 3.02942 12.7762 3.02942H11.224C8.84925 3.02942 8.84924 3.67742 8.84924 5.40422V6.18C8.8438 6.36981 8.76452 6.54997 8.62834 6.6823C8.49217 6.81463 8.30978 6.8887 8.1199 6.8887C7.93002 6.8887 7.74763 6.81463 7.61145 6.6823C7.47527 6.54997 7.39607 6.36981 7.39062 6.18V5.40422C7.39062 3.69722 7.39065 1.5708 11.224 1.5708H12.7762C16.6096 1.5708 16.6096 3.69722 16.6096 5.40422V6.18C16.6064 6.37249 16.5284 6.5562 16.3923 6.69233C16.2562 6.82846 16.0725 6.90633 15.88 6.90957H15.8806Z" fill="#6E7191" />
    <path d="M11.9975 16.6091C9.32811 16.6091 9.32812 14.9561 9.32812 13.9691V12.9719C9.32812 11.6063 9.66174 11.2727 11.0273 11.2727H12.9671C14.3327 11.2727 14.6663 11.6063 14.6663 12.9719V13.9421C14.6669 14.9483 14.6669 16.6091 11.9975 16.6091ZM10.7873 12.7289V13.9667C10.7873 14.9675 10.7873 15.1499 11.9975 15.1499C13.2077 15.1499 13.2083 14.9987 13.2083 13.9589V12.7289H10.7873Z" fill="#6E7191" />
    <path d="M13.9407 14.6892C13.7634 14.6883 13.5924 14.6228 13.4599 14.505C13.3273 14.3871 13.2423 14.225 13.2207 14.049C13.2086 13.9539 13.2153 13.8574 13.2405 13.7649C13.2657 13.6725 13.3089 13.5859 13.3677 13.5102C13.4264 13.4345 13.4996 13.3712 13.5829 13.3238C13.6662 13.2764 13.758 13.2459 13.8531 13.2341C16.41 12.9113 18.8447 11.9507 20.9331 10.4405C21.0082 10.3814 21.0959 10.3404 21.1893 10.3206C21.2833 10.2971 21.3811 10.293 21.4767 10.3086C21.5721 10.3229 21.6633 10.3572 21.7444 10.4093C21.8254 10.4593 21.8953 10.5253 21.9501 10.6031C22.0625 10.7603 22.1084 10.9554 22.0779 11.1462C22.0469 11.3379 21.9426 11.5101 21.7869 11.6262C19.4969 13.28 16.8291 14.3338 14.0271 14.6916L13.9407 14.6892Z" fill="#6E7191" />
    <path d="M10.0581 14.6965H9.97291C7.28519 14.3866 4.71417 13.4236 2.48429 11.8915C2.40628 11.8381 2.3396 11.7697 2.28811 11.6905C2.23662 11.6112 2.20134 11.5225 2.18429 11.4295C2.1491 11.2425 2.1894 11.0491 2.29632 10.8917C2.40324 10.7343 2.56808 10.6257 2.75489 10.5895C2.94212 10.5523 3.13649 10.5884 3.2979 10.6903C5.33286 12.0848 7.67636 12.9637 10.1265 13.2511C10.3175 13.2746 10.4916 13.3722 10.6113 13.5229C10.7306 13.6744 10.7863 13.8663 10.7667 14.0581C10.7504 14.2344 10.6684 14.3983 10.5369 14.5169C10.4054 14.6355 10.234 14.7002 10.0569 14.6983L10.0581 14.6965Z" fill="#6E7191" />
</svg>
    