<svg width="13" height="14" viewBox="0 0 13 14" fill="none" xmlns="http://www.w3.org/2000/svg">
    <g clip-path="url(#clip0_33555_60107)">
        <path d="M6.44342 13.364C4.72563 13.364 3.1152 12.7276 1.88054 11.5079C-0.64247 9.01551 -0.64247 4.9852 1.88054 2.49278C3.1152 1.27308 4.72563 0.636719 6.44342 0.636719C8.16121 0.636719 9.77164 1.27308 11.0063 2.49278C13.5293 4.9852 13.5293 9.01551 11.0063 11.5079C9.77164 12.7276 8.16121 13.364 6.44342 13.364ZM6.44342 1.69732C4.99403 1.69732 3.65201 2.22763 2.63207 3.2352C0.538511 5.30339 0.538511 8.69732 2.63207 10.7655C3.65201 11.7731 4.99403 12.3034 6.44342 12.3034C7.89281 12.3034 9.23483 11.7731 10.2548 10.7655C12.3483 8.69732 12.3483 5.35642 10.2548 3.28823C9.23483 2.22763 7.89281 1.69732 6.44342 1.69732V1.69732Z" fill="#F2F2F8" />
        <path d="M6.44306 10.182C6.12097 10.182 5.90625 9.96987 5.90625 9.65169V4.34866C5.90625 4.03048 6.12097 3.81836 6.44306 3.81836C6.76515 3.81836 6.97987 4.03048 6.97987 4.34866V9.65169C6.97987 9.96987 6.76515 10.182 6.44306 10.182Z" fill="#F2F2F8" />
        <path d="M9.12756 7.53131H3.75947C3.43738 7.53131 3.22266 7.31919 3.22266 7.00101C3.22266 6.68282 3.43738 6.4707 3.75947 6.4707H9.12756C9.44965 6.4707 9.66437 6.68282 9.66437 7.00101C9.66437 7.31919 9.44965 7.53131 9.12756 7.53131Z" fill="#F2F2F8" />
    </g>
    <defs>
        <clipPath id="clip0_33555_60107">
            <rect width="12.8834" height="12.7273" fill="white" transform="translate(0 0.636719)" />
        </clipPath>
    </defs>
</svg>
    