<svg width="18" height="19" viewBox="0 0 18 19" fill="none" xmlns="http://www.w3.org/2000/svg">
    <g clip-path="url(#clip0_898_61077)">
        <path d="M12.2743 1.69336H5.7331C2.8918 1.69336 1.198 3.38897 1.198 6.23027V12.7634C1.198 15.611 2.8918 17.3083 5.7331 17.3083H12.268C15.1093 17.3083 16.8031 15.6127 16.8031 12.7714V6.23346C16.8098 3.38991 15.1156 1.69336 12.2743 1.69336ZM12.9065 13.7673C12.2276 13.7579 11.5582 13.6066 10.9412 13.3232C10.3241 13.0398 9.77319 12.6306 9.32365 12.1217C8.17046 13.1775 6.66439 13.7645 5.10085 13.7673C4.9461 13.768 4.7974 13.7073 4.6873 13.5986C4.60428 13.517 4.5475 13.4124 4.52423 13.2983C4.50096 13.1843 4.51225 13.0658 4.55666 12.9582C4.60106 12.8506 4.67657 12.7588 4.77352 12.6943C4.87046 12.6298 4.98443 12.5957 5.10085 12.5964C6.42352 12.5701 7.68984 12.056 8.65657 11.1529C9.62329 10.2498 10.2223 9.02137 10.3384 7.70354H5.10895C4.95413 7.70324 4.80574 7.64165 4.6963 7.53215C4.58643 7.42174 4.52437 7.27252 4.5235 7.11676C4.52534 6.96287 4.58775 6.81593 4.6972 6.70774C4.80742 6.6003 4.95503 6.53981 5.10895 6.53899H8.4187V5.81444C8.4187 5.73762 8.43383 5.66151 8.46323 5.59054C8.49263 5.51956 8.53572 5.45513 8.59004 5.40081C8.64436 5.34648 8.70885 5.30342 8.77983 5.27402C8.8508 5.24462 8.92687 5.22942 9.0037 5.22942C9.08052 5.22942 9.15659 5.24462 9.22757 5.27402C9.29854 5.30342 9.36303 5.34648 9.41735 5.40081C9.47168 5.45513 9.51477 5.51956 9.54417 5.59054C9.57357 5.66151 9.5887 5.73762 9.5887 5.81444V6.53899H10.9081C10.9238 6.53899 10.9391 6.53262 10.9531 6.53262C10.967 6.53262 10.9841 6.53899 10.9981 6.53899H12.898C13.0531 6.53899 13.2019 6.60056 13.3117 6.71027C13.4214 6.81997 13.483 6.96886 13.483 7.12401C13.483 7.27916 13.4214 7.42794 13.3117 7.53765C13.2019 7.64736 13.0531 7.70892 12.898 7.70892H11.5084C11.3959 9.0027 10.9167 10.2376 10.1269 11.2685C10.4682 11.6762 10.8927 12.0063 11.3719 12.2368C11.8511 12.4673 12.374 12.5929 12.9056 12.605C13.0605 12.6054 13.2089 12.6671 13.3183 12.7768C13.3731 12.8306 13.4166 12.8948 13.4464 12.9656C13.4761 13.0363 13.4914 13.1122 13.4914 13.189C13.4914 13.2658 13.4761 13.3418 13.4464 13.4126C13.4166 13.4834 13.3731 13.5475 13.3183 13.6012C13.2641 13.6548 13.1998 13.6972 13.1291 13.7258C13.0584 13.7545 12.9828 13.7689 12.9065 13.7682V13.7673Z" fill="#2F2F3D" />
    </g>
    <defs>
        <clipPath id="clip0_898_61077">
            <rect width="18" height="18" fill="white" transform="translate(0 0.5)" />
        </clipPath>
    </defs>
</svg>
    