<svg width="14" height="14" viewBox="0 0 14 14" fill="none" xmlns="http://www.w3.org/2000/svg">
    <g clip-path="url(#clip0_33524_72389)">
        <path d="M9.80019 5.71676H4.20018C4.08877 5.71463 3.98246 5.66958 3.90338 5.59106C3.84496 5.53229 3.80523 5.45755 3.78919 5.37625C3.77315 5.29494 3.78153 5.21072 3.81326 5.13417C3.84499 5.05761 3.89865 4.99213 3.96751 4.94601C4.03636 4.89989 4.11731 4.87521 4.20018 4.875H9.80019C9.88306 4.87521 9.96401 4.89989 10.0329 4.94601C10.1017 4.99213 10.1554 5.05761 10.1871 5.13417C10.2188 5.21072 10.2272 5.29494 10.2112 5.37625C10.1951 5.45755 10.1554 5.53229 10.097 5.59106C10.0179 5.66958 9.9116 5.71463 9.80019 5.71676Z" fill="#6E7191" />
        <path d="M6.99917 5.71621C6.88775 5.71412 6.78143 5.66915 6.70237 5.5906C6.62337 5.51225 6.57869 5.4057 6.57812 5.29443V4.35159C6.57813 4.23996 6.62247 4.1329 6.7014 4.05397C6.78033 3.97504 6.88738 3.93066 6.999 3.93066C7.11062 3.93066 7.21767 3.97504 7.2966 4.05397C7.37553 4.1329 7.41988 4.23996 7.41988 4.35159V5.29443C7.41931 5.4057 7.37463 5.51225 7.29563 5.5906C7.21666 5.66907 7.11048 5.71403 6.99917 5.71621Z" fill="#6E7191" />
        <path d="M4.19465 10.0692C4.08335 10.0698 3.97635 10.0262 3.89715 9.94799C3.83815 9.88902 3.79794 9.81394 3.78161 9.73214C3.76527 9.65034 3.77355 9.56546 3.80538 9.48836C3.83721 9.41125 3.89117 9.34537 3.96045 9.29891C4.02974 9.25246 4.11123 9.22757 4.19465 9.22739C5.21983 9.20616 6.19465 8.77878 6.90493 8.03922C7.61522 7.29967 8.00286 6.30843 7.9827 5.28323C7.9827 5.1716 8.02704 5.06454 8.10597 4.98561C8.1849 4.90668 8.29195 4.8623 8.40358 4.8623C8.5152 4.8623 8.62225 4.90668 8.70118 4.98561C8.78011 5.06454 8.82445 5.1716 8.82445 5.28323C8.84439 6.53161 8.36799 7.73684 7.49989 8.6342C6.6318 9.53157 5.443 10.0477 4.19465 10.0692Z" fill="#6E7191" />
        <path d="M9.80471 10.0706C9.23512 10.0578 8.67667 9.91016 8.17522 9.63972C7.67376 9.36928 7.24359 8.9838 6.92001 8.51487C6.88686 8.47069 6.86274 8.42038 6.84905 8.36687C6.83536 8.31336 6.83235 8.25765 6.84021 8.20298C6.84787 8.14836 6.86633 8.09581 6.89451 8.0484C6.9227 8.00099 6.96004 7.95964 7.00436 7.92681C7.04846 7.89344 7.09872 7.86918 7.15225 7.85529C7.20578 7.84139 7.26153 7.83818 7.31629 7.84589C7.37105 7.85359 7.42376 7.87202 7.47137 7.90015C7.51899 7.92827 7.56058 7.96554 7.59376 8.00978C7.84201 8.37238 8.17196 8.67158 8.55702 8.88333C8.94208 9.09507 9.37149 9.21339 9.81066 9.2288C9.92183 9.22953 10.0282 9.27409 10.1068 9.3527C10.1854 9.43131 10.2299 9.5377 10.2307 9.64887C10.2287 9.76057 10.183 9.86702 10.1033 9.94529C10.0233 10.0236 9.91656 10.0684 9.80471 10.0706Z" fill="#6E7191" />
        <path d="M8.6852 13.0333H5.3182C2.27075 13.0333 0.96875 11.7312 0.96875 8.6827V5.3154C0.96875 2.27041 2.27075 0.964844 5.3182 0.964844H8.68555C11.733 0.964844 13.035 2.269 13.035 5.3154V8.6827C13.035 11.7316 11.7326 13.0333 8.6852 13.0333ZM5.31785 1.80908C2.73065 1.80908 1.81015 2.72716 1.81015 5.3154V8.6827C1.81015 11.2727 2.73065 12.189 5.31785 12.189H8.6852C11.2724 12.189 12.1929 11.271 12.1929 8.6827V5.3154C12.1929 2.72541 11.2724 1.80908 8.6852 1.80908H5.31785Z" fill="#6E7191" />
    </g>
    <defs>
        <clipPath id="clip0_33524_72389">
            <rect width="14" height="14" fill="white" />
        </clipPath>
    </defs>
</svg>