<svg width="24" height="24" viewBox="0 0 24 24" fill="none" xmlns="http://www.w3.org/2000/svg">
    <g clip-path="url(#clip0_34170_9060)">
        <path d="M16.8006 9.79946H7.20059C7.00959 9.79582 6.82735 9.71859 6.69179 9.58398C6.59164 9.48323 6.52353 9.3551 6.49603 9.21572C6.46854 9.07634 6.48289 8.93197 6.53729 8.80073C6.59168 8.66949 6.68369 8.55724 6.80172 8.47817C6.91975 8.39911 7.05853 8.35681 7.20059 8.35645H16.8006C16.9427 8.35681 17.0814 8.39911 17.1995 8.47817C17.3175 8.55724 17.4095 8.66949 17.4639 8.80073C17.5183 8.93197 17.5326 9.07634 17.5052 9.21572C17.4777 9.3551 17.4096 9.48323 17.3094 9.58398C17.1738 9.71859 16.9916 9.79582 16.8006 9.79946Z" fill="#6E7191" />
        <path d="M12.0011 9.79824C11.8101 9.79466 11.6278 9.71757 11.4923 9.58291C11.3569 9.4486 11.2803 9.26593 11.2793 9.0752V7.45889C11.2793 7.26753 11.3553 7.08399 11.4906 6.94868C11.6259 6.81337 11.8094 6.7373 12.0008 6.7373C12.1922 6.7373 12.3757 6.81337 12.511 6.94868C12.6463 7.08399 12.7223 7.26753 12.7223 7.45889V9.0752C12.7213 9.26593 12.6447 9.4486 12.5093 9.58291C12.3739 9.71743 12.1919 9.79451 12.0011 9.79824Z" fill="#6E7191" />
        <path d="M7.19083 17.261C7.00003 17.2621 6.81661 17.1873 6.68083 17.0533C6.57968 16.9522 6.51076 16.8235 6.48276 16.6833C6.45476 16.543 6.46894 16.3975 6.5235 16.2653C6.57807 16.1332 6.67058 16.0202 6.78935 15.9406C6.90812 15.8609 7.04782 15.8183 7.19083 15.818C8.94828 15.7816 10.6194 15.0489 11.837 13.7811C13.0547 12.5133 13.7192 10.814 13.6846 9.05654C13.6846 8.86519 13.7606 8.68165 13.8959 8.54634C14.0313 8.41103 14.2148 8.33496 14.4061 8.33496C14.5975 8.33496 14.781 8.41103 14.9163 8.54634C15.0516 8.68165 15.1276 8.86519 15.1276 9.05654C15.1618 11.1966 14.3451 13.2627 12.857 14.8011C11.3688 16.3394 9.33086 17.2242 7.19083 17.261Z" fill="#6E7191" />
        <path d="M16.81 17.2641C15.8336 17.2422 14.8762 16.9891 14.0166 16.5255C13.157 16.0619 12.4195 15.4011 11.8648 14.5972C11.808 14.5215 11.7667 14.4352 11.7432 14.3435C11.7197 14.2518 11.7146 14.1563 11.728 14.0625C11.7412 13.9689 11.7728 13.8788 11.8211 13.7975C11.8694 13.7163 11.9334 13.6454 12.0094 13.5891C12.085 13.5319 12.1712 13.4903 12.263 13.4665C12.3547 13.4427 12.4503 13.4372 12.5442 13.4504C12.638 13.4636 12.7284 13.4952 12.81 13.5434C12.8916 13.5916 12.9629 13.6555 13.0198 13.7313C13.4454 14.3529 14.011 14.8659 14.6711 15.2288C15.3312 15.5918 16.0674 15.7947 16.8202 15.8211C17.0108 15.8223 17.1932 15.8987 17.328 16.0335C17.4627 16.1682 17.539 16.3506 17.5402 16.5412C17.537 16.7327 17.4585 16.9152 17.3218 17.0493C17.1848 17.1836 17.0018 17.2603 16.81 17.2641Z" fill="#6E7191" />
        <path d="M14.8864 22.343H9.1144C3.8902 22.343 1.6582 20.1109 1.6582 14.8849V9.1124C1.6582 3.8924 3.8902 1.6543 9.1144 1.6543H14.887C20.1112 1.6543 22.3432 3.89 22.3432 9.1124V14.8849C22.3432 20.1115 20.1106 22.343 14.8864 22.343ZM9.1138 3.10156C4.6786 3.10156 3.1006 4.6754 3.1006 9.1124V14.8849C3.1006 19.3249 4.6786 20.8958 9.1138 20.8958H14.8864C19.3216 20.8958 20.8996 19.3219 20.8996 14.8849V9.1124C20.8996 4.6724 19.3216 3.10156 14.8864 3.10156H9.1138Z" fill="#6E7191" />
    </g>
    <defs>
        <clipPath id="clip0_34170_9060">
            <rect width="24" height="24" fill="white" />
        </clipPath>
    </defs>
</svg>