<svg width="16" height="16" viewBox="0 0 16 16" fill="none" xmlns="http://www.w3.org/2000/svg">
    <g clip-path="url(#clip0_1199_3139)">
        <path d="M7.51953 4.97312V5.57117H4.80066C4.70595 5.57141 4.61343 5.59961 4.53474 5.65232C4.45605 5.70503 4.39471 5.77987 4.35845 5.86736C4.32219 5.95485 4.31262 6.0511 4.33095 6.14402C4.34928 6.23694 4.39469 6.32236 4.46146 6.38953C4.55183 6.47926 4.67332 6.53075 4.80066 6.53318H9.10507C9.01867 7.46512 8.63816 8.34889 8.01458 9.05398L8.00655 9.05992C7.95628 9.09715 7.91387 9.14397 7.88175 9.19763C7.07083 10.0367 5.96091 10.5214 4.79388 10.5456C4.69855 10.5458 4.60541 10.5742 4.52623 10.6273C4.44705 10.6804 4.38538 10.7557 4.349 10.8438C4.31262 10.9319 4.30317 11.0289 4.32184 11.1224C4.34051 11.2159 4.38645 11.3017 4.45388 11.3691C4.5444 11.4585 4.66669 11.5083 4.79388 11.5076C6.07504 11.4856 7.3013 11.0077 8.25657 10.1678C8.56796 10.5093 8.93556 10.7969 9.34467 11.0175C9.91776 11.3266 10.556 11.4953 11.2069 11.5099C11.3348 11.5074 11.4568 11.4562 11.5481 11.3668C11.6393 11.2773 11.6916 11.1557 11.6937 11.028C11.6929 10.9009 11.6421 10.7793 11.5522 10.6895C11.4624 10.5997 11.3408 10.5488 11.2137 10.5479C10.7118 10.5303 10.2211 10.3951 9.78102 10.1531C9.45671 9.97475 9.16661 9.74213 8.92287 9.46623C9.58883 8.62514 9.98867 7.60346 10.0702 6.53318H11.2007C11.328 6.53075 11.4495 6.47926 11.5399 6.38953C11.6066 6.32236 11.652 6.23694 11.6704 6.14402C11.6887 6.0511 11.6791 5.95485 11.6429 5.86736C11.6066 5.77987 11.5453 5.70503 11.4666 5.65232C11.3879 5.59961 11.2954 5.57141 11.2007 5.57117H9.7203C9.6826 5.56177 9.64359 5.55691 9.60408 5.55691C9.56458 5.55691 9.52557 5.56177 9.48787 5.57117H8.48153V4.97312C8.48153 4.84555 8.43085 4.72319 8.34065 4.63298C8.25044 4.54278 8.1281 4.49207 8.00053 4.49207C7.87296 4.49207 7.75062 4.54278 7.66041 4.63298C7.57021 4.72319 7.51953 4.84555 7.51953 4.97312Z" fill="#555777" />
        <path fill-rule="evenodd" clip-rule="evenodd" d="M6.07627 14.8959H9.92427C13.4071 14.8959 14.8955 13.4082 14.8955 9.9238V6.07546C14.8955 2.59386 13.4075 1.10339 9.92467 1.10339H6.07627C2.59347 1.10339 1.10547 2.59546 1.10547 6.07546V9.9238C1.10547 13.4078 2.59347 14.8959 6.07627 14.8959ZM2.06707 6.07546C2.06707 3.11746 3.11907 2.06824 6.07587 2.06824H9.92427C12.8811 2.06824 13.9331 3.11546 13.9331 6.07546V9.9238C13.9331 12.8818 12.8811 13.931 9.92427 13.931H6.07587C3.11907 13.931 2.06707 12.8838 2.06707 9.9238V6.07546Z" fill="#555777" />
    </g>
    <defs>
        <clipPath id="clip0_1199_3139">
            <rect width="16" height="16" fill="white" transform="translate(0 0.000244141)" />
        </clipPath>
    </defs>
</svg>
    