<svg width="18" height="19" viewBox="0 0 18 19" fill="none" xmlns="http://www.w3.org/2000/svg">
    <g clip-path="url(#clip0_898_60905)">
        <path d="M8.45947 6.09465V6.76746H5.40074C5.29419 6.76773 5.1901 6.79945 5.10158 6.85875C5.01306 6.91805 4.94405 7.00224 4.90326 7.10067C4.86246 7.1991 4.8517 7.30738 4.87232 7.41191C4.89294 7.51645 4.94402 7.61255 5.01914 7.68811C5.12081 7.78906 5.25749 7.84699 5.40074 7.84972H10.2432C10.146 8.89816 9.71793 9.89239 9.0164 10.6856L9.00736 10.6923C8.95082 10.7342 8.90311 10.7869 8.86697 10.8472C7.95468 11.7912 6.70602 12.3365 5.39312 12.3637C5.28587 12.3639 5.18109 12.3959 5.09201 12.4556C5.00293 12.5154 4.93355 12.6001 4.89263 12.6992C4.8517 12.7983 4.84107 12.9075 4.86207 13.0126C4.88307 13.1178 4.93476 13.2143 5.01062 13.2901C5.11245 13.3907 5.25003 13.4468 5.39312 13.4459C6.83442 13.4212 8.21397 12.8835 9.28864 11.9386C9.63896 12.3228 10.0525 12.6464 10.5128 12.8946C11.1575 13.2423 11.8755 13.4321 12.6078 13.4486C12.7516 13.4457 12.8889 13.3882 12.9917 13.2875C13.0942 13.1869 13.153 13.05 13.1555 12.9064C13.1545 12.7635 13.0973 12.6267 12.9963 12.5256C12.8952 12.4245 12.7584 12.3672 12.6155 12.3663C12.0508 12.3465 11.4987 12.1944 11.0036 11.9221C10.6388 11.7215 10.3124 11.4598 10.0382 11.1494C10.7874 10.2032 11.2373 9.05379 11.329 7.84972H12.6007C12.744 7.84699 12.8807 7.78906 12.9823 7.68811C13.0575 7.61255 13.1085 7.51645 13.1292 7.41191C13.1498 7.30738 13.139 7.1991 13.0982 7.10067C13.0574 7.00224 12.9884 6.91805 12.8999 6.85875C12.8114 6.79945 12.7073 6.76773 12.6007 6.76746H10.9353C10.8929 6.75689 10.849 6.75142 10.8046 6.75142C10.7602 6.75142 10.7163 6.75689 10.6739 6.76746H9.54172V6.09465C9.54172 5.95114 9.48471 5.81348 9.38323 5.712C9.28175 5.61052 9.14411 5.55347 9.0006 5.55347C8.85708 5.55347 8.71945 5.61052 8.61796 5.712C8.51648 5.81348 8.45947 5.95114 8.45947 6.09465Z" fill="#2F2F3D" />
        <path fill-rule="evenodd" clip-rule="evenodd" d="M6.8358 17.2578H11.1648C15.083 17.2578 16.7574 15.5841 16.7574 11.6642V7.33479C16.7574 3.41799 15.0834 1.74121 11.1653 1.74121H6.8358C2.91765 1.74121 1.24365 3.41979 1.24365 7.33479V11.6642C1.24365 15.5837 2.91765 17.2578 6.8358 17.2578ZM2.32545 7.33479C2.32545 4.00704 3.50895 2.82666 6.83535 2.82666H11.1648C14.4912 2.82666 15.6747 4.00479 15.6747 7.33479V11.6642C15.6747 14.9919 14.4912 16.1723 11.1648 16.1723H6.83535C3.50895 16.1723 2.32545 14.9942 2.32545 11.6642V7.33479Z" fill="#2F2F3D" />
    </g>
    <defs>
        <clipPath id="clip0_898_60905">
            <rect width="18" height="18" fill="white" transform="translate(0 0.5)" />
        </clipPath>
    </defs>
</svg>
    