<svg width="40" height="40" viewBox="0 0 40 40" fill="none" xmlns="http://www.w3.org/2000/svg">
    <g clip-path="url(#clip0_33320_65123)">
        <path d="M27.1055 17.1946C24.2055 17.1946 22.8047 15.7805 22.8047 12.8945V7.06567C22.8047 4.16567 24.2195 2.76562 27.1055 2.76562H32.9355C35.8355 2.76562 37.2353 4.17967 37.2353 7.06567V12.8945C37.2353 15.7805 35.8205 17.1946 32.9355 17.1946H27.1055Z" fill="#3869FF" />
        <path d="M7.0625 37.2356C4.1625 37.2356 2.76172 35.8215 2.76172 32.9355V27.1067C2.76172 24.2067 4.1765 22.8066 7.0625 22.8066H12.8926C15.7926 22.8066 17.1924 24.2207 17.1924 27.1067V32.9355C17.1924 35.8215 15.7776 37.2356 12.8926 37.2356H7.0625Z" fill="#3869FF" />
        <path d="M14.0206 18.7986H7.54362C4.32062 18.7986 2.76562 17.3716 2.76562 14.4216V7.14262C2.76562 4.19262 4.33662 2.76562 7.54362 2.76562H14.0206C17.2436 2.76562 18.7986 4.19262 18.7986 7.14262V14.4056C18.7986 17.3716 17.2276 18.7986 14.0206 18.7986Z" fill="#3869FF" />
        <path d="M28.6169 37.2395C28.2995 37.2381 27.9955 37.1111 27.7716 36.8862C27.5476 36.6613 27.4219 36.3569 27.4219 36.0395V21.1345C27.4232 20.8179 27.5495 20.5147 27.7733 20.2909C27.9972 20.0671 28.3003 19.9408 28.6169 19.9395C28.9332 19.941 29.2362 20.0675 29.4598 20.2913C29.6834 20.5151 29.8096 20.8181 29.8109 21.1345V36.0395C29.8109 36.3567 29.6853 36.661 29.4615 36.8859C29.2378 37.1107 28.9341 37.2379 28.6169 37.2395Z" fill="#3869FF" />
        <path d="M19.9656 28.5876C19.9669 28.2702 20.094 27.9662 20.3189 27.7423C20.5438 27.5183 20.8482 27.3926 21.1656 27.3926H36.0706C36.3872 27.3939 36.6903 27.5202 36.9142 27.744C37.138 27.9679 37.2643 28.2711 37.2656 28.5876C37.264 28.9039 37.1376 29.2069 36.9138 29.4305C36.69 29.6541 36.387 29.7803 36.0706 29.7816H21.1656C20.8484 29.7816 20.5441 29.656 20.3192 29.4322C20.0943 29.2085 19.9672 28.9048 19.9656 28.5876Z" fill="#3869FF" />
    </g>
    <defs>
        <clipPath id="clip0_33320_65123">
            <rect width="40" height="40" fill="white" />
        </clipPath>
    </defs>
</svg>
    