<svg width="14" height="14" viewBox="0 0 14 14" fill="none" xmlns="http://www.w3.org/2000/svg">
    <path d="M7.78594 3.08404C8.50637 3.49986 8.90463 4.33741 8.90463 5.43849V6.47655L12.4283 6.47655C12.4489 6.47412 12.4697 6.4729 12.4904 6.4729C12.5588 6.47274 12.6266 6.48609 12.6899 6.51216C12.7531 6.53824 12.8106 6.57654 12.859 6.62486C12.9074 6.67319 12.9458 6.7306 12.9721 6.79379C12.9983 6.85699 13.0117 6.92473 13.0117 6.99314C13.0117 7.28131 12.7778 7.52177 12.4897 7.52177C12.4754 7.52177 12.4613 7.52121 12.4474 7.52008L8.90463 7.52008V8.5661C8.90463 9.66717 8.50637 10.5047 7.78594 10.9206C7.05968 11.3365 6.14012 11.2603 5.18548 10.7097L2.47372 9.1459C1.51902 8.5954 0.991954 7.83399 0.991954 7.00236C0.991954 6.17073 1.51906 5.40923 2.47372 4.85281L5.18548 3.28906C5.73012 2.97278 6.26902 2.81463 6.76101 2.81463C7.12999 2.8146 7.47548 2.90245 7.78594 3.08404ZM7.239 10.0173C7.65862 9.77676 7.88791 9.23415 7.88791 8.49573L7.88791 5.50851C7.88791 4.77017 7.65862 4.2275 7.239 3.98695C6.81939 3.74641 6.23767 3.81917 5.59432 4.18838L3.00429 5.68198C2.36108 6.0511 2.0086 6.52104 2.0086 7.0021C2.0086 7.48316 2.36112 7.95309 3.00429 8.3223L5.59432 9.81589C5.9859 10.0453 6.35504 10.1571 6.67964 10.1571C6.87511 10.16 7.06794 10.1118 7.23905 10.0173L7.239 10.0173Z" fill="#C6C2DE" />
</svg>
    