<svg width="16" height="14" viewBox="0 0 16 14" fill="none" xmlns="http://www.w3.org/2000/svg">
    <path d="M8.00137 13.9156C7.79221 13.9196 7.58389 13.8881 7.38523 13.8226C4.6473 12.8832 0.296882 9.5505 0.296882 4.62713C0.294753 3.42509 0.769825 2.27135 1.61775 1.41934C2.46567 0.567325 3.61711 0.0867061 4.81914 0.0830508C5.41057 0.080453 5.99658 0.195725 6.54296 0.422134C7.08934 0.648544 7.58513 0.981552 8.00137 1.40171C8.41762 0.981552 8.91341 0.648544 9.45978 0.422134C10.0062 0.195725 10.5922 0.080453 11.1836 0.0830508C12.3852 0.0879984 13.5359 0.56903 14.3836 1.42076C15.2312 2.2725 15.7067 3.42548 15.7059 4.62713C15.7059 9.55807 11.3554 12.8837 8.61752 13.8226C8.41885 13.8881 8.21053 13.9196 8.00137 13.9156Z" fill="#f37070" />
</svg>
    