<svg width="16" height="16" viewBox="0 0 16 16" fill="none" xmlns="http://www.w3.org/2000/svg">
<g clip-path="url(#clip0_30415_5217)">
<path d="M9.93286 14.9103H6.0815C5.87229 14.9103 5.66021 14.9043 5.451 14.8927C5.24179 14.8811 5.04298 14.8611 4.86738 14.8387C4.66296 14.8127 4.48633 14.7836 4.32672 14.7496C4.13831 14.7096 3.97696 14.6695 3.83295 14.6235C3.67534 14.5735 3.52451 14.5179 3.38371 14.4579C3.2436 14.3988 3.10701 14.3312 2.97509 14.2555C2.84875 14.1815 2.72688 14.1 2.61023 14.0115C2.49581 13.9253 2.38783 13.831 2.28678 13.7295C2.18518 13.6284 2.09079 13.5202 2.00434 13.4058C1.91615 13.289 1.83466 13.1673 1.76058 13.0411C1.68491 12.9093 1.61737 12.773 1.55823 12.633C1.49702 12.4894 1.441 12.3382 1.39259 12.1834C1.34419 12.0286 1.30734 11.881 1.27774 11.7374C1.16047 11.3086 1.10358 10.8655 1.10859 10.4209V10.2009C1.10859 10.1153 1.10547 10.0237 1.10547 9.9333V9.5117C1.10547 9.5461 1.10539 9.5809 1.10859 9.6161V8.18478C1.10539 8.06477 1.10539 7.93884 1.10859 7.81523V6.41516C1.10859 6.46236 1.10586 6.50713 1.10586 6.55433V6.0835C1.10586 5.9899 1.10578 5.89428 1.10898 5.81747V5.59588C1.10395 5.15133 1.16084 4.70824 1.27813 4.27941C1.31294 4.1218 1.35178 3.97217 1.39298 3.83456C1.44299 3.67456 1.49901 3.52494 1.55862 3.38493C1.61784 3.24499 1.68537 3.10872 1.76097 2.9769C1.83423 2.85018 1.91575 2.72837 2.00473 2.61214C2.09121 2.49781 2.1856 2.38964 2.28717 2.28849C2.38865 2.1869 2.4966 2.09216 2.61062 2.00488C2.72729 1.91689 2.84916 1.83596 2.97548 1.76249C3.10742 1.68686 3.24401 1.61922 3.3841 1.56004C3.53078 1.49674 3.68075 1.44141 3.83334 1.39411C3.99335 1.34491 4.15991 1.30243 4.32711 1.26803C4.49432 1.23363 4.67856 1.2013 4.86777 1.1773C5.07738 1.1521 5.26778 1.13487 5.45139 1.12447C5.6602 1.11287 5.87228 1.10689 6.08189 1.10689H9.93325C10.1429 1.10689 10.3553 1.11287 10.5641 1.12447C10.7478 1.13447 10.9393 1.1521 11.1489 1.1773C11.3361 1.2013 11.5176 1.23163 11.688 1.26803C11.8584 1.30443 12.0194 1.34451 12.1818 1.39411C12.3345 1.44137 12.4846 1.4967 12.6314 1.56004C12.7715 1.6191 12.9079 1.68674 13.0397 1.76249C13.1667 1.83507 13.2887 1.91603 13.4049 2.00488C13.5189 2.09224 13.6268 2.18698 13.7284 2.28849C13.8299 2.38998 13.9247 2.49812 14.012 2.61214C14.1002 2.72856 14.1812 2.85035 14.2542 2.9769C14.3299 3.1087 14.3976 3.24497 14.4569 3.38493C14.5207 3.5315 14.576 3.68163 14.6225 3.83456C14.6666 3.98377 14.7024 4.11456 14.7292 4.23937C14.8547 4.68039 14.9154 5.13739 14.9093 5.59588V10.4221C14.9155 10.8811 14.8548 11.3386 14.7292 11.7802C14.6952 11.9298 14.6606 12.0622 14.6225 12.185C14.5761 12.3379 14.5207 12.4881 14.4569 12.6346C14.3975 12.7745 14.3298 12.9108 14.2542 13.0426C14.1803 13.1687 14.0994 13.2905 14.012 13.4075C13.9246 13.5215 13.8299 13.6295 13.7284 13.7311C13.6273 13.8326 13.5193 13.9268 13.4049 14.0131C13.2888 14.1025 13.1667 14.1841 13.0397 14.2572C12.9078 14.3327 12.7714 14.4003 12.6314 14.4595C12.4902 14.5199 12.339 14.5755 12.1818 14.6251C12.037 14.6695 11.8752 14.7107 11.688 14.7511C11.528 14.7851 11.3513 14.8143 11.1489 14.8403C10.9745 14.8627 10.7782 14.8803 10.5641 14.8943C10.3501 14.9083 10.1421 14.9103 9.93286 14.9103ZM6.84365 6.81674C6.85925 7.17676 6.84925 10.1565 6.84365 11.4206C6.84365 11.4778 6.84365 11.5105 6.84365 11.5141H8.40388V8.88921C8.39719 8.76136 8.41402 8.63344 8.45349 8.51165C8.51357 8.34534 8.62134 8.20056 8.76366 8.09562C8.90796 7.99321 9.08089 7.93859 9.25783 7.93955C9.77425 7.93955 10.0469 8.30603 10.0469 8.99966V11.5101H11.6072V8.82124C11.6072 7.49797 10.9354 6.70795 9.81098 6.70795C9.78858 6.70795 9.76545 6.70795 9.74145 6.70795C9.48103 6.70801 9.22473 6.77378 8.99649 6.89917C8.74993 7.03859 8.54506 7.24088 8.40232 7.48553V6.81909L6.84365 6.81674ZM4.41462 6.81674V11.509H5.97798V6.81674H4.41462ZM5.20645 4.52942C4.98044 4.52284 4.76117 4.60598 4.59627 4.76068C4.43137 4.91539 4.33416 5.12907 4.32633 5.35505C4.33396 5.58124 4.43098 5.79519 4.59588 5.9502C4.76078 6.1052 4.98023 6.1887 5.20645 6.18234C5.43265 6.1886 5.65216 6.10508 5.81703 5.9501C5.98191 5.79511 6.07885 5.5812 6.08658 5.35505C6.07905 5.12883 5.98195 4.91483 5.81703 4.7598C5.65211 4.60478 5.43271 4.52139 5.20645 4.52786V4.52942Z" fill="#6E7191"/>
</g>
<defs>
<clipPath id="clip0_30415_5217">
<rect width="16" height="16" fill="white"/>
</clipPath>
</defs>
</svg>
