<svg width="100%" height="100%" viewBox="0 0 32 32" fill="none" xmlns="http://www.w3.org/2000/svg">
<path d="M20.3499 31.5482H11.6843C11.2136 31.5482 10.7364 31.5347 10.2657 31.5086C9.795 31.4825 9.34769 31.4375 8.95257 31.3871C8.49265 31.3286 8.09522 31.263 7.7361 31.1865C7.31218 31.0965 6.94913 31.0063 6.62511 30.9028C6.27049 30.7903 5.93113 30.6654 5.61432 30.5304C5.29907 30.3973 4.99175 30.2451 4.69494 30.0748C4.41066 29.9083 4.13646 29.7251 3.874 29.5259C3.61656 29.3319 3.3736 29.1198 3.14623 28.8913C2.91764 28.6638 2.70526 28.4204 2.51075 28.1631C2.31232 27.9003 2.12897 27.6264 1.96228 27.3424C1.79203 27.0459 1.64007 26.7393 1.50698 26.4243C1.36928 26.1012 1.24322 25.761 1.13431 25.4127C1.0254 25.0644 0.942502 24.7322 0.875899 24.4091C0.612029 23.4443 0.484024 22.4473 0.495313 21.4471V20.952C0.495313 20.7594 0.488282 20.5533 0.488282 20.3499V19.4013C0.488282 19.4787 0.488113 19.557 0.495313 19.6362V16.4157C0.488113 16.1457 0.488113 15.8624 0.495313 15.5843V12.4341C0.495313 12.5403 0.489161 12.641 0.489161 12.7472V11.6879C0.489161 11.4773 0.488992 11.2621 0.496192 11.0893V10.5907C0.484868 9.59047 0.612873 8.59352 0.876778 7.62865C0.955081 7.27403 1.04248 6.93736 1.13519 6.62775C1.24769 6.26773 1.37376 5.93109 1.50786 5.61608C1.64111 5.3012 1.79307 4.99461 1.96316 4.69801C2.12799 4.41288 2.31142 4.13881 2.51162 3.87729C2.7062 3.62006 2.91858 3.37668 3.14711 3.14908C3.37544 2.9205 3.61832 2.70734 3.87488 2.51097C4.13739 2.31298 4.41159 2.13088 4.69582 1.96558C4.99268 1.79541 5.29999 1.64323 5.6152 1.51006C5.94522 1.36765 6.28266 1.24315 6.62599 1.13673C6.98601 1.02602 7.36076 0.930449 7.73698 0.853045C8.1132 0.775642 8.52773 0.702912 8.95345 0.648909C9.42507 0.592206 9.85348 0.553432 10.2666 0.530031C10.7364 0.50393 11.2136 0.490479 11.6852 0.490479H20.3508C20.8224 0.490479 21.3005 0.50393 21.7703 0.530031C22.1834 0.552532 22.6145 0.592206 23.0861 0.648909C23.5073 0.702912 23.9156 0.771141 24.299 0.853045C24.6825 0.93495 25.0446 1.02512 25.41 1.13673C25.7537 1.24306 26.0914 1.36756 26.4217 1.51006C26.7367 1.64296 27.0438 1.79515 27.3402 1.96558C27.626 2.12888 27.9006 2.31106 28.162 2.51097C28.4184 2.70752 28.6613 2.92068 28.8898 3.14908C29.1184 3.37744 29.3315 3.62076 29.5279 3.87729C29.7264 4.13923 29.9087 4.41326 30.0729 4.69801C30.2433 4.99457 30.3955 5.30116 30.529 5.61608C30.6726 5.94586 30.797 6.28366 30.9017 6.62775C31.0007 6.96346 31.0814 7.25775 31.1417 7.53856C31.4241 8.53087 31.5607 9.5591 31.5469 10.5907V21.4497C31.5608 22.4825 31.4242 23.5119 31.1417 24.5054C31.0652 24.842 30.9872 25.1399 30.9017 25.4162C30.7971 25.7603 30.6727 26.0981 30.529 26.4279C30.3954 26.7427 30.2431 27.0493 30.0729 27.3459C29.9068 27.6294 29.7245 27.9036 29.5279 28.1669C29.3314 28.4233 29.1182 28.6664 28.8898 28.8949C28.6623 29.1232 28.4194 29.3353 28.162 29.5295C27.9007 29.7307 27.6261 29.9142 27.3402 30.0786C27.0436 30.2487 26.7366 30.4006 26.4217 30.5339C26.104 30.6698 25.7638 30.7949 25.41 30.9065C25.0842 31.0065 24.7203 31.0991 24.299 31.19C23.939 31.2665 23.5415 31.3321 23.0861 31.3906C22.6937 31.441 22.2518 31.4806 21.7703 31.5121C21.2888 31.5436 20.8206 31.5482 20.3499 31.5482ZM13.3992 13.3377C13.4343 14.1477 13.4118 20.8522 13.3992 23.6963C13.3992 23.825 13.3992 23.8987 13.3992 23.9068H16.9097V18.0007C16.8947 17.713 16.9325 17.4252 17.0213 17.1512C17.1565 16.777 17.399 16.4512 17.7192 16.2151C18.0439 15.9847 18.433 15.8618 18.8311 15.864C19.9931 15.864 20.6066 16.6885 20.6066 18.2492V23.8978H24.1171V17.8478C24.1171 14.8704 22.6057 13.0929 20.0757 13.0929C20.0253 13.0929 19.9732 13.0929 19.9192 13.0929C19.3333 13.093 18.7566 13.241 18.2431 13.5231C17.6883 13.8368 17.2274 14.292 16.9062 14.8424V13.3429L13.3992 13.3377ZM7.93387 13.3377V23.8952H11.4514V13.3377H7.93387ZM9.7155 8.19118C9.20696 8.17637 8.71361 8.36343 8.34258 8.71152C7.97155 9.05961 7.75285 9.5404 7.73523 10.0488C7.75239 10.5578 7.97068 11.0392 8.3417 11.3879C8.71272 11.7367 9.20649 11.9246 9.7155 11.9102C10.2244 11.9243 10.7183 11.7364 11.0893 11.3877C11.4603 11.039 11.6784 10.5577 11.6958 10.0488C11.6788 9.53984 11.4604 9.05835 11.0893 8.70954C10.7182 8.36073 10.2246 8.1731 9.7155 8.18766V8.19118Z" fill="#0077B5"/>
</svg>
