<svg width="36" height="36" viewBox="0 0 36 36" fill="none" xmlns="http://www.w3.org/2000/svg">
<g opacity="0.8" clip-path="url(#clip0_30361_14187)">
<path d="M22.3499 33.5482H13.6843C13.2136 33.5482 12.7364 33.5348 12.2657 33.5087C11.795 33.4826 11.3477 33.4375 10.9526 33.3871C10.4926 33.3286 10.0952 33.263 9.7361 33.1865C9.31218 33.0965 8.94913 33.0063 8.62511 32.9028C8.27049 32.7903 7.93113 32.6654 7.61432 32.5304C7.29907 32.3973 6.99175 32.2451 6.69494 32.0749C6.41066 31.9083 6.13646 31.7251 5.874 31.526C5.61656 31.332 5.3736 31.1199 5.14623 30.8914C4.91764 30.6638 4.70526 30.4204 4.51075 30.1632C4.31232 29.9004 4.12897 29.6264 3.96228 29.3424C3.79203 29.0459 3.64007 28.7393 3.50698 28.4244C3.36928 28.1013 3.24322 27.761 3.13431 27.4127C3.0254 27.0644 2.9425 26.7323 2.8759 26.4092C2.61203 25.4443 2.48402 24.4473 2.49531 23.4471V22.952C2.49531 22.7594 2.48828 22.5534 2.48828 22.3499V21.4013C2.48828 21.4787 2.48811 21.557 2.49531 21.6362V18.4158C2.48811 18.1458 2.48811 17.8624 2.49531 17.5843V14.4341C2.49531 14.5403 2.48916 14.641 2.48916 14.7472V13.6879C2.48916 13.4773 2.48899 13.2621 2.49619 13.0893V12.5907C2.48487 11.5905 2.61287 10.5935 2.87678 9.62868C2.95508 9.27407 3.04248 8.93739 3.13519 8.62778C3.24769 8.26776 3.37376 7.93112 3.50786 7.61611C3.64111 7.30123 3.79307 6.99464 3.96316 6.69804C4.12799 6.41291 4.31142 6.13884 4.51163 5.87732C4.7062 5.62009 4.91858 5.37671 5.14711 5.14911C5.37544 4.92053 5.61832 4.70737 5.87488 4.511C6.13739 4.31301 6.41159 4.13091 6.69582 3.96561C6.99268 3.79544 7.29999 3.64326 7.6152 3.51009C7.94522 3.36768 8.28266 3.24318 8.62599 3.13676C8.98601 3.02605 9.36076 2.93048 9.73698 2.85308C10.1132 2.77567 10.5277 2.70294 10.9535 2.64894C11.4251 2.59224 11.8535 2.55346 12.2666 2.53006C12.7364 2.50396 13.2136 2.49051 13.6852 2.49051H22.3508C22.8224 2.49051 23.3005 2.50396 23.7703 2.53006C24.1834 2.55256 24.6145 2.59224 25.0861 2.64894C25.5073 2.70294 25.9156 2.77117 26.299 2.85308C26.6825 2.93498 27.0446 3.02515 27.41 3.13676C27.7537 3.24309 28.0914 3.36759 28.4217 3.51009C28.7367 3.64299 29.0438 3.79518 29.3402 3.96561C29.626 4.12891 29.9006 4.31109 30.162 4.511C30.4184 4.70755 30.6613 4.92071 30.8898 5.14911C31.1184 5.37747 31.3315 5.62079 31.5279 5.87732C31.7264 6.13926 31.9087 6.41329 32.0729 6.69804C32.2433 6.9946 32.3955 7.30119 32.529 7.61611C32.6726 7.94589 32.797 8.28369 32.9017 8.62778C33.0007 8.9635 33.0814 9.25778 33.1417 9.53859C33.4241 10.5309 33.5607 11.5591 33.5469 12.5907V23.4497C33.5608 24.4825 33.4242 25.5119 33.1417 26.5054C33.0652 26.842 32.9872 27.1399 32.9017 27.4162C32.7971 27.7603 32.6727 28.0981 32.529 28.4279C32.3954 28.7427 32.2431 29.0493 32.0729 29.346C31.9068 29.6295 31.7245 29.9036 31.5279 30.1669C31.3314 30.4233 31.1182 30.6664 30.8898 30.8949C30.6623 31.1233 30.4194 31.3354 30.162 31.5295C29.9007 31.7307 29.6261 31.9142 29.3402 32.0786C29.0436 32.2487 28.7366 32.4006 28.4217 32.5339C28.104 32.6698 27.7638 32.795 27.41 32.9066C27.0842 33.0065 26.7203 33.0991 26.299 33.19C25.939 33.2665 25.5415 33.3322 25.0861 33.3907C24.6937 33.4411 24.2518 33.4807 23.7703 33.5122C23.2888 33.5437 22.8206 33.5482 22.3499 33.5482ZM15.3992 15.3377C15.4343 16.1477 15.4118 22.8522 15.3992 25.6963C15.3992 25.825 15.3992 25.8987 15.3992 25.9068H18.9097V20.0007C18.8947 19.7131 18.9325 19.4252 19.0213 19.1512C19.1565 18.777 19.399 18.4513 19.7192 18.2151C20.0439 17.9847 20.433 17.8618 20.8311 17.864C21.993 17.864 22.6066 18.6886 22.6066 20.2493V25.8978H26.1171V19.8478C26.1171 16.8704 24.6057 15.0929 22.0757 15.0929C22.0253 15.0929 21.9732 15.0929 21.9192 15.0929C21.3333 15.093 20.7566 15.241 20.2431 15.5231C19.6883 15.8368 19.2274 16.292 18.9062 16.8424V15.343L15.3992 15.3377ZM9.93387 15.3377V25.8952H13.4514V15.3377H9.93387ZM11.7155 10.1912C11.207 10.1764 10.7136 10.3635 10.3426 10.7115C9.97155 11.0596 9.75285 11.5404 9.73523 12.0489C9.75239 12.5578 9.97068 13.0392 10.3417 13.388C10.7127 13.7367 11.2065 13.9246 11.7155 13.9103C12.2244 13.9244 12.7183 13.7364 13.0893 13.3877C13.4603 13.039 13.6784 12.5577 13.6958 12.0489C13.6788 11.5399 13.4604 11.0584 13.0893 10.7096C12.7182 10.3608 12.2246 10.1731 11.7155 10.1877V10.1912Z" fill="#6E7191"/>
</g>
<defs>
<clipPath id="clip0_30361_14187">
<rect width="36" height="36" fill="white"/>
</clipPath>
</defs>
</svg>
