<?xml version="1.0" encoding="utf-8"?>
<!-- Generator: Adobe Illustrator 26.0.2, SVG Export Plug-In . SVG Version: 6.00 Build 0)  -->
<svg version="1.1" width="64" height="64" id="Layer_1" xmlns="http://www.w3.org/2000/svg" xmlns:xlink="http://www.w3.org/1999/xlink" x="0px" y="0px"
	 viewBox="0 0 64 64" style="enable-background:new 0 0 64 64;" xml:space="preserve">
<style type="text/css">
	.st0{fill:#333366;}
	.st1{fill:#6ACCE5;}
</style>
<path className="st0" d="M45.8,39.7h-0.1c-2.7,4.7-7.7,7.9-13.6,7.9c-8.7,0-15.8-7-15.8-15.6s7-15.6,15.7-15.6c7.6,0,14,5.5,15.4,12.7
	H21.7v5.5H47h0.4h5.6c0.1-0.8,0.1-1.6,0.1-2.5c0-11.7-9.5-21.2-21.2-21.2s-21.2,9.5-21.2,21.2S20.3,53.1,32,53.1
	c7.9,0,14.8-4.3,18.4-10.7L45.8,39.7z"/>
<path className="st1" d="M54.4,9.1c0.3-0.6,0.4-1.3,0.4-2.1c0-3-2.4-5.3-5.3-5.3c-1.4,0-2.6,0.5-3.6,1.4C41.6,1.1,37,0,31.9,0
	C14.3,0,0,14.3,0,31.9s14.3,31.9,32,31.9c17.7,0,32-14.3,32-31.9C64,22.9,60.3,14.9,54.4,9.1z M49.4,3.5c2,0,3.6,1.6,3.6,3.6
	s-1.6,3.6-3.6,3.6c-2,0-3.6-1.6-3.6-3.6S47.4,3.5,49.4,3.5z M32,59.7c-15.4,0-27.8-12.4-27.8-27.7S16.7,4.2,32,4.2
	c4.3,0,8.4,1,12.1,2.8c0,0.1,0,0.1,0,0.1c0,3,2.4,5.3,5.3,5.3c0.6,0,1.3-0.1,1.9-0.4c5.2,5,8.4,12.1,8.4,20
	C59.8,47.3,47.4,59.7,32,59.7z"/>
</svg>
