<svg width="14" height="14" viewBox="0 0 14 14" fill="none" xmlns="http://www.w3.org/2000/svg">
    <g clip-path="url(#clip0_33524_72408)">
        <path d="M6.99678 13.0319H6.93062C6.39275 13.0121 5.87713 12.8122 5.4665 12.4642C5.03948 12.0964 4.65117 11.6859 4.3076 11.2391C4.29045 11.2185 4.27259 11.1957 4.25439 11.1754L4.21414 11.1254C4.19804 11.1072 4.18195 11.0865 4.1655 11.0683L4.14484 11.0431C4.09023 10.9839 4.02757 10.9199 3.95827 10.8492C3.32518 10.2277 2.77571 9.52647 2.3237 8.7631C1.88497 8.02204 1.64953 7.17832 1.64116 6.31717C1.63123 5.61825 1.76031 4.92433 2.02087 4.27573C2.28143 3.62712 2.66828 3.03678 3.15896 2.53897C3.64964 2.04116 4.23436 1.6458 4.87914 1.37591C5.52392 1.10601 6.21589 0.966958 6.91488 0.966797H7.08813C7.77705 0.96683 8.45932 1.10157 9.09655 1.36339C10.0692 1.76446 10.8997 2.44713 11.4814 3.32373C12.0631 4.20034 12.3695 5.23083 12.3611 6.28286V6.31785C12.3523 7.1788 12.1173 8.02232 11.6797 8.76379C11.227 9.52666 10.6767 10.2271 10.0426 10.8474C9.97262 10.9202 9.91487 10.9818 9.86027 11.0413C9.80566 11.1008 9.75526 11.1646 9.70521 11.2262L9.69611 11.2398C9.35132 11.686 8.9626 12.0964 8.5358 12.4649C8.12589 12.8133 7.61006 13.0125 7.07239 13.0301H7.00623L6.99678 13.0319ZM7.06292 12.2636C7.52471 12.2469 7.96701 12.0732 8.3167 11.7712C8.68191 11.4478 9.01408 11.0888 9.3083 10.6997C9.3608 10.636 9.40629 10.579 9.44829 10.5247C9.4903 10.4705 9.54631 10.4197 9.60546 10.3585C10.1494 9.81533 10.6201 9.20343 11.0055 8.53836C11.3823 7.88934 11.5842 7.15367 11.5915 6.40326V6.37352C11.5992 5.13865 11.119 3.95069 10.2554 3.06797C9.84136 2.64428 9.34663 2.30775 8.80043 2.07829C8.25423 1.84883 7.66762 1.73109 7.07519 1.73195H6.92712C6.33172 1.73058 5.74215 1.84918 5.19359 2.08064C4.64502 2.31211 4.14873 2.6517 3.73428 3.07916C3.30601 3.5193 2.96863 4.03948 2.74143 4.61002C2.51424 5.18056 2.40167 5.79028 2.41015 6.40433C2.41776 7.15451 2.61911 7.88999 2.99468 8.53943C3.38052 9.20424 3.85115 9.81604 4.39475 10.3595C4.4427 10.4096 4.49976 10.4691 4.55401 10.5307C4.60056 10.5853 4.64712 10.6423 4.69403 10.6994C4.98766 11.0885 5.32 11.4467 5.68597 11.7687C6.03527 12.0717 6.47763 12.2462 6.93972 12.2633H7.06292V12.2636ZM5.33839 7.8044C4.99942 7.46481 4.76851 7.0325 4.67471 6.56195C4.58091 6.0914 4.62843 5.60361 4.81127 5.16C5.05792 4.56469 5.53075 4.09162 6.12593 3.84466C6.56961 3.66079 7.05783 3.61252 7.52892 3.70597C8.00002 3.79941 8.43286 4.03038 8.77276 4.36968C8.99732 4.59596 9.17565 4.86379 9.29779 5.15825C9.45016 5.52708 9.50928 5.92778 9.46994 6.3249C9.43059 6.72202 9.29398 7.10331 9.07219 7.43507C8.85041 7.76683 8.5503 8.03881 8.19839 8.22697C7.84647 8.41513 7.45359 8.51368 7.05453 8.51388C6.73527 8.51556 6.4189 8.45352 6.12392 8.33139C5.82894 8.20926 5.56129 8.02951 5.33666 7.80265L5.33839 7.8044ZM5.3734 6.08931C5.37268 6.47883 5.50706 6.85655 5.75367 7.15807C6.00028 7.4596 6.34384 7.66626 6.72577 7.74283C7.1077 7.8194 7.50436 7.76116 7.84814 7.57799C8.19191 7.39483 8.46152 7.09807 8.611 6.73837C8.76048 6.37866 8.78058 5.97825 8.66787 5.60538C8.55516 5.23252 8.3166 4.9103 7.99289 4.69364C7.66918 4.47697 7.28036 4.37925 6.89268 4.4172C6.505 4.45514 6.14248 4.6264 5.86692 4.90172C5.55177 5.2167 5.37431 5.64373 5.3734 6.08931Z" fill="#6E7191" />
    </g>
    <defs>
        <clipPath id="clip0_33524_72408">
            <rect width="14" height="14" fill="white" />
        </clipPath>
    </defs>
</svg>
    