<svg width="18" height="19" viewBox="0 0 18 19" fill="none" xmlns="http://www.w3.org/2000/svg">
    <g clip-path="url(#clip0_898_38928)">
        <path fill-rule="evenodd" clip-rule="evenodd" d="M3.93362 8.18446V7.03772C3.93362 4.95912 4.43487 2.19702 8.77388 2.19702C13.1129 2.19702 13.6146 4.95912 13.6146 7.03772V8.18362C15.0829 8.63957 15.5851 9.7765 15.5851 12.0582V14.3913C15.5851 17.5517 14.6212 18.5143 11.4603 18.5143H6.08964C2.93011 18.5143 1.96658 17.5508 1.96658 14.3913V12.0582C1.96658 9.77788 2.46802 8.64096 3.93362 8.18446ZM11.9705 7.94262V6.8215C11.9705 4.90445 11.4271 3.6266 8.7752 3.6266C6.12328 3.6266 5.5803 4.9049 5.5803 6.8215V7.94259C5.74336 7.93636 5.91307 7.93335 6.08964 7.93335H11.4603C11.6372 7.93335 11.8072 7.93637 11.9705 7.94262ZM8.22235 12.0794C8.22235 11.7811 8.46413 11.5394 8.76237 11.5394C9.06061 11.5394 9.30238 11.7811 9.30238 12.0794V14.1494C9.30238 14.4477 9.06061 14.6894 8.76237 14.6894C8.46413 14.6894 8.22235 14.4477 8.22235 14.1494V12.0794Z" fill="#2F2F3D" />
    </g>
    <defs>
        <clipPath id="clip0_898_38928">
            <rect width="18" height="18" fill="white" transform="translate(0 0.859253)" />
        </clipPath>
    </defs>
</svg>
    