<svg width="18" height="19" viewBox="0 0 18 19" fill="none" xmlns="http://www.w3.org/2000/svg">
    <g clip-path="url(#clip0_898_38578)">
        <path d="M9.11099 11.647C8.81274 11.647 8.57097 11.8888 8.57097 12.1871V14.2571C8.57097 14.5554 8.81274 14.7971 9.11099 14.7971C9.40923 14.7971 9.651 14.5554 9.651 14.2571V12.1871C9.651 11.8888 9.40923 11.647 9.11099 11.647Z" fill="#2F2F3D" />
        <path fill-rule="evenodd" clip-rule="evenodd" d="M4.15469 6.99071V8.13847C2.69061 8.59467 2.19116 9.73032 2.19116 12.0106V14.3448C2.19116 17.507 3.15194 18.4678 6.31462 18.4678H11.6864C14.8477 18.4678 15.8085 17.507 15.8099 14.3448V12.0106C15.8099 9.72705 15.3087 8.59141 13.8398 8.13652V6.99071C13.8398 4.91121 13.3381 2.15039 8.99951 2.15039C4.66095 2.15039 4.15919 4.91121 4.15469 6.99071ZM12.7621 6.99071V7.93369C12.4357 7.90188 12.0779 7.88715 11.6864 7.88715H6.31462C5.92141 7.88715 5.56224 7.90201 5.23471 7.93409V6.99071C5.23471 4.7321 5.87058 3.22592 8.99726 3.22592C12.1239 3.22592 12.7621 4.73165 12.7621 6.99071ZM6.31462 8.96268C3.74955 8.96268 3.26714 9.45049 3.26714 12.0102V14.3448C3.26714 16.9049 3.74775 17.3923 6.31462 17.3923H11.6864C14.2515 17.3923 14.7339 16.9045 14.7339 14.3448V12.0106C14.733 9.45049 14.2515 8.96268 11.6864 8.96268H6.31462Z" fill="#2F2F3D" />
    </g>
    <defs>
        <clipPath id="clip0_898_38578">
            <rect width="18" height="18" fill="white" transform="translate(0 0.859253)" />
        </clipPath>
    </defs>
</svg>
    