<svg width="74" height="30" viewBox="0 0 74 30" fill="none" xmlns="http://www.w3.org/2000/svg">
    <path d="M38.5978 9.44727V20.9652H36.2594L30.5466 11.7979H30.4874L30.517 12.2974C30.6058 13.2376 30.6354 14.1191 30.6354 14.9711V20.9652H28.9186V9.44727H31.2274L36.9106 18.5852H36.9698C36.881 17.0867 36.881 16.0583 36.881 15.5V9.44727H38.5978Z" fill="#333366" />
    <path d="M45.8498 16.5872L48.277 9.44727H50.2602L46.1754 20.9652H44.1922L40.137 9.44727H42.0906L44.5178 16.6166C44.6362 16.9398 44.7546 17.3511 44.9026 17.88C45.0506 18.3795 45.1394 18.8202 45.1986 19.1434C45.2874 18.7321 45.3762 18.262 45.5242 17.7331C45.6722 17.1748 45.761 16.8222 45.8498 16.5872Z" fill="#333366" />
    <path d="M53.6641 20.9652H51.7697V9.44727H53.6641V20.9652Z" fill="#333366" />
    <path d="M58.6374 16.3815V20.9945H56.743V9.44727H59.999C61.5086 9.44727 62.6038 9.71171 63.3142 10.27C64.0542 10.8282 64.4094 11.6803 64.4094 12.7969C64.4094 14.2366 63.6694 15.265 62.1598 15.8526L65.4158 20.9651H63.255L60.4726 16.3521L58.6374 16.3815ZM58.6374 11.0633V14.8242H59.9694C60.8278 14.8242 61.479 14.6479 61.8934 14.3541C62.3078 14.0309 62.4854 13.5608 62.4854 12.9144C62.4854 12.268 62.2782 11.7979 61.8638 11.504C61.4494 11.2102 60.7982 11.0633 59.9102 11.0633H58.6374V11.0633Z" fill="#333366" />
    <path d="M73.6737 19.3785V20.9652H67.1025V9.44727H73.6737V11.0339H69.0265V14.1778H73.4073V15.7351H69.0265V19.3491L73.6737 19.3785Z" fill="#333366" />
    <path d="M19.4174 18.1736H19.3582C18.2334 20.1129 16.1318 21.4351 13.7046 21.4351C10.0638 21.4351 7.13339 18.5262 7.13339 14.9416C7.13339 11.3569 10.0638 8.44807 13.675 8.44807C16.8422 8.44807 19.5062 10.7105 20.0982 13.7075H9.38299V15.97H19.9502H20.1278H22.4662C22.4958 15.6467 22.5254 15.2942 22.5254 14.9416C22.5254 10.0935 18.559 6.15625 13.675 6.15625C8.79099 6.15625 4.82458 10.0935 4.82458 14.9416C4.82458 19.7897 8.79099 23.7269 13.675 23.7269C16.9606 23.7269 19.8614 21.9346 21.371 19.2902L19.4174 18.1736Z" fill="#333366" />
    <path d="M22.9984 5.45039C23.1168 5.18595 23.176 4.89213 23.176 4.59831C23.176 3.36425 22.1696 2.39463 20.956 2.39463C20.364 2.39463 19.8608 2.60031 19.4464 2.98228C17.7 2.13019 15.7464 1.68945 13.6448 1.68945C6.27443 1.68945 0.324829 7.62469 0.324829 14.9409C0.324829 22.2571 6.30403 28.1923 13.6744 28.1923C21.0744 28.1923 27.024 22.2571 27.024 14.9409C27.024 11.2093 25.4848 7.85975 22.9984 5.45039ZM20.9264 3.12919C21.7552 3.12919 22.436 3.80498 22.436 4.62769C22.436 5.45039 21.7552 6.12619 20.9264 6.12619C20.0976 6.12619 19.4168 5.45039 19.4168 4.62769C19.4168 3.80498 20.0976 3.12919 20.9264 3.12919ZM13.6744 26.4588C7.25123 26.4588 2.07123 21.3169 2.07123 14.9409C2.07123 8.56492 7.28083 3.42301 13.6744 3.42301C15.48 3.42301 17.1968 3.83436 18.736 4.56892C18.736 4.59831 18.736 4.59831 18.736 4.62769C18.736 5.86175 19.7424 6.83136 20.956 6.83136C21.2224 6.83136 21.5184 6.7726 21.7552 6.68445C23.916 8.7706 25.2776 11.7088 25.2776 14.9703C25.2776 21.3169 20.0976 26.4588 13.6744 26.4588Z" fill="#6ACCE5" />
</svg>
    