<svg width="18" height="19" viewBox="0 0 24 24" fill="none" xmlns="http://www.w3.org/2000/svg">
    <path d="M9.24166 22.4048H9.22797C9.03895 22.4016 8.85876 22.3243 8.72623 22.1895C8.59371 22.0547 8.51947 21.8732 8.51953 21.6841C8.51929 21.4914 8.59511 21.3063 8.73055 21.1692C8.866 21.032 9.0501 20.9539 9.24285 20.9517C9.25738 20.9517 9.27184 20.9521 9.28622 20.953H14.8601C16.0031 20.953 16.9281 20.8489 17.6877 20.6347C18.4714 20.4139 19.0831 20.0754 19.5581 19.5999C20.0331 19.1243 20.3715 18.5124 20.592 17.7287C20.8059 16.9694 20.9098 16.0447 20.9098 14.9016V9.09413C20.9098 7.95095 20.8059 7.02611 20.592 6.26687C20.3714 5.48288 20.0331 4.87085 19.5581 4.39586C19.0832 3.92042 18.4714 3.58188 17.6877 3.36067C16.9281 3.1465 16.0031 3.0424 14.8601 3.0424H9.28224C9.26892 3.04311 9.25549 3.04348 9.242 3.0435C9.14721 3.04372 9.05332 3.02523 8.96569 2.9891C8.87806 2.95297 8.79841 2.89991 8.73132 2.83295C8.66422 2.76599 8.61101 2.68646 8.57471 2.5989C8.5384 2.51134 8.51973 2.41748 8.51976 2.32269C8.51956 2.13252 8.59338 1.94974 8.72561 1.81307C8.85785 1.6764 9.03812 1.59658 9.22819 1.59052H9.23068C9.23476 1.59052 9.23885 1.59052 9.24296 1.59052C9.24709 1.59052 9.25117 1.59052 9.25527 1.59052H14.8601C15.1868 1.59052 15.5066 1.59951 15.8105 1.61712C16.113 1.63461 16.4094 1.66168 16.6914 1.69733C16.9726 1.73313 17.246 1.77864 17.504 1.8326C17.7635 1.88687 18.0142 1.95115 18.2493 2.0239C18.48 2.09463 18.7068 2.17752 18.9288 2.27223C19.1394 2.36229 19.3446 2.46464 19.5432 2.57874C19.7343 2.68895 19.9182 2.81116 20.0939 2.94464C20.2657 3.07588 20.4287 3.2184 20.5817 3.37126C20.7345 3.52425 20.877 3.68729 21.0081 3.85929C21.1416 4.03492 21.2637 4.21887 21.3738 4.41002C21.488 4.60866 21.5904 4.81386 21.6803 5.02457C21.7749 5.24657 21.8578 5.47339 21.9287 5.70408C22.0017 5.94148 22.0659 6.19233 22.1197 6.44976C22.1732 6.70489 22.2186 6.97839 22.2549 7.26264C22.2903 7.54086 22.3172 7.83725 22.3353 8.14358C22.3526 8.44861 22.3616 8.76842 22.3616 9.09404V14.9016C22.3616 15.2272 22.3527 15.547 22.3353 15.852C22.3172 16.1583 22.2903 16.4547 22.2549 16.733C22.2188 17.0163 22.1733 17.2896 22.1197 17.5457C22.0656 17.8042 22.0013 18.0551 21.9287 18.2913C21.8579 18.522 21.775 18.7489 21.6803 18.9709C21.5904 19.1816 21.488 19.3868 21.3738 19.5855C21.2636 19.7766 21.1415 19.9606 21.0081 20.1363C20.8768 20.3082 20.7344 20.4712 20.5817 20.6243C20.4287 20.7771 20.2657 20.9195 20.0939 21.0506C19.9183 21.1843 19.7344 21.3066 19.5432 21.4167C19.3446 21.5309 19.1395 21.6332 18.9288 21.7232C18.7068 21.818 18.48 21.9009 18.2493 21.9716C18.0122 22.0447 17.7613 22.109 17.504 22.1629C17.245 22.2171 16.9716 22.2625 16.6914 22.2981C16.4106 22.3337 16.1142 22.3608 15.8105 22.3784C15.5091 22.3959 15.1893 22.4048 14.8601 22.4048L9.24166 22.4048Z" fill="#f37070" />
    <path d="M11.0799 17.4233C12.078 16.8472 12.6297 15.6867 12.6297 14.1611V12.7229H17.512C17.5406 12.7262 17.5693 12.7279 17.598 12.7279C17.6928 12.7281 17.7867 12.7096 17.8744 12.6735C17.962 12.6374 18.0417 12.5843 18.1088 12.5174C18.1758 12.4504 18.2291 12.3709 18.2654 12.2833C18.3017 12.1957 18.3203 12.1019 18.3203 12.0071C18.3206 11.8143 18.2447 11.6293 18.1093 11.4921C17.9738 11.355 17.7897 11.2768 17.597 11.2746C17.5772 11.2746 17.5577 11.2754 17.5384 11.277H12.6298V9.82765C12.6298 8.30206 12.078 7.14159 11.0799 6.56544C10.0736 5.98921 8.79951 6.09469 7.47684 6.85748L3.71961 9.02423C2.39692 9.78697 1.6666 10.8419 1.6666 11.9942C1.6666 13.1465 2.39695 14.2015 3.71961 14.9725L7.47682 17.1391C8.23152 17.5774 8.97812 17.7965 9.65978 17.7965C10.1581 17.802 10.6487 17.6731 11.0799 17.4233ZM10.322 7.817C10.9034 8.15025 11.2211 8.90206 11.2211 9.92518V14.0641C11.2211 15.0871 10.9035 15.839 10.322 16.1722C9.74064 16.5055 8.93465 16.4047 8.04327 15.8932L4.45485 13.8237C3.56363 13.3123 3.07525 12.6612 3.07525 11.9946C3.07525 11.3281 3.56363 10.677 4.45485 10.1654L8.04327 8.09597C8.58582 7.77825 9.09736 7.62318 9.54689 7.62318C9.81774 7.61917 10.085 7.68598 10.322 7.817Z" fill="#f37070" />
</svg>