<svg width="26" height="26" viewBox="0 0 38 38" fill="none" xmlns="http://www.w3.org/2000/svg">
    <path d="M26.6104 23.0987H26.5268C24.9381 25.8579 21.9699 27.7391 18.5418 27.7391C13.3997 27.7391 9.26087 23.6003 9.26087 18.5C9.26087 13.3997 13.3997 9.26087 18.5 9.26087C22.9732 9.26087 26.7358 12.4799 27.5719 16.7441H12.4381V19.9632H27.3629H27.6137H30.9164C30.9582 19.5033 31 19.0017 31 18.5C31 11.602 25.398 6 18.5 6C11.602 6 6 11.602 6 18.5C6 25.398 11.602 31 18.5 31C23.1405 31 27.2375 28.4498 29.3696 24.6873L26.6104 23.0987Z" fill="#333366" />
    <path d="M32.2705 5.39246C32.439 5.0133 32.5233 4.59202 32.5233 4.17073C32.5233 2.40133 31.0909 1.01109 29.3636 1.01109C28.5211 1.01109 27.8049 1.30599 27.2151 1.85366C24.7295 0.631929 21.949 0 18.9579 0C8.46785 0 0 8.50998 0 19C0 29.49 8.50998 38 19 38C29.5322 38 38 29.49 38 19C38 13.6497 35.8093 8.84701 32.2705 5.39246ZM29.3215 2.0643C30.5011 2.0643 31.4701 3.03326 31.4701 4.21286C31.4701 5.39246 30.5011 6.36142 29.3215 6.36142C28.1419 6.36142 27.1729 5.39246 27.1729 4.21286C27.1729 3.03326 28.1419 2.0643 29.3215 2.0643ZM19 35.5144C9.85809 35.5144 2.48559 28.1419 2.48559 19C2.48559 9.85809 9.90022 2.48559 19 2.48559C21.5698 2.48559 24.0133 3.07539 26.204 4.1286C26.204 4.17073 26.204 4.17073 26.204 4.21286C26.204 5.98226 27.6364 7.37251 29.3636 7.37251C29.7428 7.37251 30.1641 7.28825 30.5011 7.16186C33.5765 10.153 35.5144 14.3659 35.5144 19.0421C35.5144 28.1419 28.1419 35.5144 19 35.5144Z" fill="#6ACCE5" />
</svg>