<svg width="24" height="24" viewBox="0 0 24 24" fill="none" xmlns="http://www.w3.org/2000/svg">
<g clip-path="url(#clip0_30440_13154)">
<path d="M12.4975 20.7046H6.53443C3.04646 20.7046 1.80859 18.2583 1.80859 15.9788V8.0212C1.80859 4.62143 3.13466 3.29536 6.53443 3.29536H12.4981C15.8973 3.29536 17.224 4.62143 17.224 8.0212V15.9788C17.2234 19.3762 15.8967 20.7046 12.4975 20.7046ZM6.53443 4.78884C3.9687 4.78884 3.30207 5.45547 3.30207 8.0212V15.9788C3.30207 17.1873 3.72209 19.2112 6.53443 19.2112H12.4981C15.0621 19.2112 15.7305 18.5433 15.7305 15.9788V8.0212C15.7305 5.45727 15.0627 4.78884 12.4981 4.78884H6.53443Z" fill="#6E7191"/>
<path d="M20.2577 18.0027C19.6842 17.9807 19.1317 17.7816 18.676 17.4327L16.0527 15.596C15.9551 15.5273 15.8755 15.4361 15.8208 15.33C15.766 15.224 15.7377 15.1063 15.7383 14.9869V9.01364C15.7376 8.8942 15.7659 8.77638 15.8206 8.67022C15.8754 8.56407 15.955 8.47273 16.0527 8.40401L18.6784 6.56732C19.8449 5.75188 20.6999 5.98769 21.1026 6.1935C21.5052 6.41011 22.1928 6.96994 22.1928 8.39561V15.596C22.1928 17.0204 21.5052 17.5905 21.1026 17.7969C20.8433 17.9368 20.5523 18.0077 20.2577 18.0027V18.0027ZM17.2216 14.5939L19.5305 16.205C19.9727 16.5098 20.2871 16.5392 20.4149 16.4702C20.5523 16.4012 20.6999 16.1264 20.6999 15.596V8.40401C20.6999 7.86399 20.5427 7.59817 20.4149 7.52977C20.2871 7.46137 19.9727 7.49077 19.5305 7.79558L17.2216 9.40666V14.5939Z" fill="#6E7191"/>
<path d="M11.1402 11.754C10.703 11.754 10.2756 11.6244 9.9121 11.3815C9.54859 11.1386 9.26526 10.7933 9.09795 10.3894C8.93065 9.9855 8.88687 9.54104 8.97216 9.11224C9.05746 8.68344 9.26799 8.28957 9.57713 7.98042C9.88628 7.67128 10.2802 7.46075 10.7089 7.37545C11.1377 7.29016 11.5822 7.33394 11.9861 7.50124C12.39 7.66855 12.7353 7.95188 12.9782 8.3154C13.2211 8.67891 13.3507 9.10629 13.3507 9.54349C13.3498 10.1295 13.1166 10.6912 12.7022 11.1055C12.2879 11.5198 11.7262 11.753 11.1402 11.754V11.754ZM11.1402 8.80665C10.9945 8.80665 10.852 8.84987 10.7308 8.93083C10.6097 9.0118 10.5152 9.12687 10.4595 9.26151C10.4037 9.39615 10.3891 9.54431 10.4175 9.68724C10.446 9.83017 10.5161 9.96146 10.6192 10.0645C10.7222 10.1676 10.8535 10.2377 10.9964 10.2662C11.1394 10.2946 11.2875 10.28 11.4222 10.2242C11.5568 10.1685 11.6719 10.074 11.7529 9.95285C11.8338 9.83168 11.877 9.68922 11.877 9.54349C11.8756 9.3485 11.7975 9.16191 11.6597 9.02403C11.5218 8.88615 11.3352 8.80807 11.1402 8.80665V8.80665Z" fill="#6E7191"/>
</g>
<defs>
<clipPath id="clip0_30440_13154">
<rect width="24" height="24" fill="white"/>
</clipPath>
</defs>
</svg>
