<svg width="24" height="24" viewBox="0 0 24 24" fill="none" xmlns="http://www.w3.org/2000/svg">
    <g clip-path="url(#clip0_34041_62591)">
        <path d="M11.5287 21.1856C9.61867 21.1857 7.75151 20.6194 6.16333 19.5583C4.57515 18.4973 3.3373 16.989 2.60631 15.2244C1.87532 13.4598 1.68403 11.5181 2.05663 9.64475C2.42922 7.77142 3.34898 6.05065 4.69957 4.70006C6.05016 3.34946 7.77093 2.42971 9.64426 2.05711C11.5176 1.68452 13.4593 1.87581 15.2239 2.6068C16.9886 3.33779 18.4968 4.57564 19.5578 6.16382C20.6189 7.752 21.1852 9.61916 21.1851 11.5292C21.1814 14.0891 20.1629 16.5431 18.3528 18.3533C16.5426 20.1634 14.0886 21.1819 11.5287 21.1856ZM11.5287 3.28519C9.89833 3.28519 8.30458 3.76864 6.94897 4.67441C5.59337 5.58018 4.53679 6.86759 3.91285 8.37383C3.28891 9.88008 3.12562 11.5375 3.44365 13.1366C3.76167 14.7356 4.54672 16.2045 5.69952 17.3573C6.85232 18.5102 8.3211 19.2954 9.92012 19.6135C11.5191 19.9317 13.1766 19.7685 14.6829 19.1447C16.1892 18.5208 17.4767 17.4644 18.3825 16.1088C19.2884 14.7533 19.772 13.1595 19.7721 11.5292C19.7699 9.34353 18.9007 7.24802 17.3552 5.70247C15.8098 4.15691 13.7144 3.28757 11.5287 3.28519Z" fill="#C6C2DE" />
        <path d="M21.4214 22.1282C21.3286 22.1285 21.2367 22.1104 21.1509 22.0749C21.0652 22.0393 20.9875 21.9871 20.9222 21.9212L19.0382 20.0366C18.9112 19.9031 18.8415 19.7252 18.8438 19.541C18.8461 19.3568 18.9203 19.1808 19.0506 19.0506C19.1808 18.9203 19.3568 18.8461 19.541 18.8438C19.7252 18.8415 19.9031 18.9112 20.0366 19.0382L21.9206 20.9222C22.0517 21.0552 22.1253 21.2345 22.1253 21.4214C22.1253 21.6082 22.0517 21.7875 21.9206 21.9206C21.8553 21.9866 21.7775 22.0389 21.6918 22.0746C21.6061 22.1102 21.5142 22.1284 21.4214 22.1282Z" fill="#C6C2DE" />
    </g>
    <defs>
        <clipPath id="clip0_34041_62591">
            <rect width="24" height="24" fill="white" />
        </clipPath>
    </defs>
</svg>