<svg width="24" height="24" viewBox="0 0 24 24" fill="none" xmlns="http://www.w3.org/2000/svg">
    <g clip-path="url(#clip0_538_23367)">
        <path d="M13.2009 7.22881C13.2009 7.90665 12.6636 8.45615 12.0008 8.45615C11.338 8.45615 10.8007 7.90665 10.8007 7.22881C10.8007 6.55098 11.338 6.00148 12.0008 6.00148C12.6636 6.00148 13.2009 6.55098 13.2009 7.22881Z" fill="#2F2F3D" />
        <path d="M13.2009 16.7747C13.2009 17.4526 12.6636 18.0021 12.0008 18.0021C11.338 18.0021 10.8007 17.4526 10.8007 16.7747C10.8007 16.0969 11.338 15.5474 12.0008 15.5474C12.6636 15.5474 13.2009 16.0969 13.2009 16.7747Z" fill="#2F2F3D" />
        <path d="M12.0008 13.0018C12.6636 13.0018 13.2009 12.4523 13.2009 11.7745C13.2009 11.0967 12.6636 10.5472 12.0008 10.5472C11.338 10.5472 10.8007 11.0967 10.8007 11.7745C10.8007 12.4523 11.338 13.0018 12.0008 13.0018Z" fill="#2F2F3D" />
        <path fill-rule="evenodd" clip-rule="evenodd" d="M9.08269 22.006H14.7226C19.8247 22.006 22.005 19.8243 22.005 14.724V9.08381C22.005 3.98116 19.8229 1.80127 14.7226 1.80127H9.08269C3.98063 1.80127 1.80029 3.98356 1.80029 9.08381V14.724C1.80029 19.8261 3.98243 22.006 9.08269 22.006ZM14.7226 20.5966H9.08269C4.75107 20.5966 3.20953 19.0551 3.21013 14.724V9.08381C3.21013 4.7516 4.75107 3.21067 9.08269 3.21067H14.7226C19.0542 3.21067 20.5952 4.75219 20.5952 9.08381V14.724C20.5952 19.0557 19.0542 20.5966 14.7226 20.5966Z" fill="#2F2F3D" />
    </g>
    <defs>
        <clipPath id="clip0_538_23367">
            <rect width="24" height="24" fill="white" />
        </clipPath>
    </defs>
</svg>