<svg width="24" height="24" viewBox="0 0 24 24" fill="none" xmlns="http://www.w3.org/2000/svg">
    <g clip-path="url(#clip0_1012_12999)">
        <path d="M22.3877 12.0001C22.3885 11.8809 22.3656 11.7627 22.3203 11.6524C22.2751 11.5421 22.2084 11.4419 22.1241 11.3576C22.0398 11.2733 21.9396 11.2066 21.8293 11.1614C21.719 11.1161 21.6008 11.0932 21.4816 11.094H2.63047C2.39009 11.094 2.15956 11.1895 1.98958 11.3595C1.81961 11.5295 1.72412 11.76 1.72412 12.0004C1.72412 12.2407 1.81961 12.4713 1.98958 12.6413C2.15956 12.8112 2.39009 12.9067 2.63047 12.9067H21.4816C21.7218 12.9059 21.9519 12.8101 22.1216 12.6403C22.2914 12.4704 22.387 12.2402 22.3877 12.0001Z" fill="#2F2F3D" />
        <path d="M1.86833 18.5554C1.86753 18.6746 1.89042 18.7928 1.93567 18.9031C1.98092 19.0134 2.04763 19.1136 2.13192 19.1978C2.21622 19.2821 2.31642 19.3488 2.4267 19.3941C2.53699 19.4393 2.65517 19.4622 2.77437 19.4614H21.3369C21.5772 19.4614 21.8077 19.366 21.9776 19.1961C22.1475 19.0262 22.2429 18.7957 22.2429 18.5554C22.2429 18.3151 22.1475 18.0846 21.9776 17.9147C21.8077 17.7448 21.5772 17.6494 21.3369 17.6494H2.77497C2.53534 17.6517 2.30619 17.7479 2.13668 17.9173C1.96717 18.0867 1.87083 18.3158 1.86833 18.5554Z" fill="#2F2F3D" />
        <path d="M1.93567 5.79241C1.89042 5.68212 1.86753 5.56395 1.86833 5.44474C1.86912 5.20458 1.96491 4.9745 2.13479 4.80473C2.30466 4.63497 2.53481 4.53933 2.77497 4.5387H21.3369C21.5772 4.5387 21.8077 4.63415 21.9776 4.80407C22.1475 4.97399 22.2429 5.20444 22.2429 5.44474C22.2429 5.68504 22.1475 5.9155 21.9776 6.08541C21.8077 6.25533 21.5772 6.35079 21.3369 6.35079H2.77437C2.65517 6.35158 2.53699 6.32869 2.4267 6.28344C2.31642 6.23819 2.21622 6.17148 2.13192 6.08719C2.04763 6.0029 1.98092 5.9027 1.93567 5.79241Z" fill="#2F2F3D" />
    </g>
    <defs>
        <clipPath id="clip0_1012_12999">
            <rect width="24" height="24" fill="white" />
        </clipPath>
    </defs>
</svg>
    