<svg width="18" height="18" viewBox="0 0 18 18" fill="none" xmlns="http://www.w3.org/2000/svg">
    <g clip-path="url(#clip0_30429_4728)">
        <path d="M9.45032 15.6798C9.20398 15.6791 8.96066 15.6257 8.73671 15.5231C8.51277 15.4204 8.31342 15.271 8.15207 15.0849L7.07207 13.8456C7.02901 13.8146 6.97971 13.7934 6.92762 13.7835H6.56762C3.55802 13.7839 1.69727 13.0837 1.69727 9.6012V6.50295C1.69727 3.76425 3.37757 2.32065 6.56537 2.32065H12.3348C15.5226 2.32065 17.2029 3.76425 17.2029 6.50295V9.6012C17.2029 12.3399 15.5226 13.7835 12.3348 13.7835H11.9748C11.9478 13.7836 11.9211 13.7891 11.8962 13.7998C11.8714 13.8104 11.849 13.826 11.8304 13.8456L10.7504 15.0849C10.5888 15.2713 10.3892 15.4208 10.1649 15.5234C9.94063 15.6261 9.69695 15.6794 9.45032 15.6798ZM6.56537 3.2499C3.98327 3.2499 2.77727 4.2849 2.77727 6.50295V9.6012C2.77727 12.402 3.89507 12.8542 6.56357 12.8542H6.92357C7.30428 12.8597 7.66735 13.0156 7.93337 13.288L9.01337 14.5273C9.06424 14.5938 9.12973 14.6476 9.20477 14.6847C9.2798 14.7217 9.36236 14.741 9.44604 14.741C9.52972 14.741 9.61228 14.7217 9.68731 14.6847C9.76235 14.6476 9.82784 14.5938 9.87872 14.5273L10.9587 13.288C11.0869 13.1486 11.2432 13.0379 11.4172 12.9631C11.5913 12.8884 11.7791 12.8513 11.9685 12.8542H12.3285C14.9106 12.8542 16.1148 11.8192 16.1148 9.6012V6.50295C16.1148 4.2849 14.9106 3.2499 12.3285 3.2499H6.56537Z" fill="#6E7191" />
        <path d="M9.45089 8.8758C9.34242 8.8758 9.23638 8.84364 9.14618 8.78339C9.05598 8.72313 8.98567 8.63748 8.94414 8.53728C8.90261 8.43707 8.89172 8.3268 8.91285 8.2204C8.93398 8.114 8.98618 8.01626 9.06285 7.93953C9.13952 7.86279 9.23722 7.81051 9.3436 7.7893C9.44998 7.76808 9.56026 7.77888 9.6605 7.82033C9.76074 7.86178 9.84645 7.93202 9.90678 8.02217C9.96711 8.11232 9.99935 8.21833 9.99944 8.3268C9.99974 8.39894 9.98576 8.47043 9.9583 8.53714C9.93085 8.60385 9.89046 8.66447 9.83947 8.71551C9.78848 8.76654 9.72789 8.80698 9.6612 8.83449C9.59451 8.862 9.52303 8.87604 9.45089 8.8758Z" fill="#6E7191" />
        <path d="M12.8806 8.8758C12.7721 8.8758 12.6661 8.84364 12.5759 8.78339C12.4857 8.72313 12.4154 8.63748 12.3738 8.53728C12.3323 8.43707 12.3214 8.3268 12.3425 8.2204C12.3637 8.114 12.4159 8.01626 12.4925 7.93953C12.5692 7.86279 12.6669 7.81051 12.7733 7.7893C12.8797 7.76808 12.9899 7.77888 13.0902 7.82033C13.1904 7.86178 13.2761 7.93202 13.3365 8.02217C13.3968 8.11232 13.429 8.21833 13.4291 8.3268C13.4294 8.39894 13.4154 8.47043 13.388 8.53714C13.3605 8.60385 13.3201 8.66447 13.2692 8.71551C13.2182 8.76654 13.1576 8.80698 13.0909 8.83449C13.0242 8.862 12.9527 8.87604 12.8806 8.8758Z" fill="#6E7191" />
        <path d="M6.01925 8.8758C5.91078 8.8758 5.80474 8.84364 5.71454 8.78339C5.62434 8.72313 5.55403 8.63748 5.5125 8.53728C5.47097 8.43707 5.46008 8.3268 5.48121 8.2204C5.50234 8.114 5.55454 8.01626 5.63121 7.93953C5.70788 7.86279 5.80558 7.81051 5.91196 7.7893C6.01834 7.76808 6.12862 7.77888 6.22886 7.82033C6.3291 7.86178 6.41481 7.93202 6.47514 8.02217C6.53547 8.11232 6.56771 8.21833 6.5678 8.3268C6.5681 8.39894 6.55412 8.47043 6.52666 8.53714C6.49921 8.60385 6.45882 8.66447 6.40783 8.71551C6.35684 8.76654 6.29625 8.80698 6.22956 8.83449C6.16287 8.862 6.09139 8.87604 6.01925 8.8758Z" fill="#6E7191" />
    </g>
    <defs>
        <clipPath id="clip0_30429_4728">
            <rect width="18" height="18" fill="white" />
        </clipPath>
    </defs>
</svg>