<svg width="18" height="18" viewBox="0 0 18 18" fill="none" xmlns="http://www.w3.org/2000/svg">
    <path d="M12.6134 15.6866H5.38442C2.74337 15.6866 1.22852 14.1715 1.22852 11.5291V6.4697C1.22852 3.82865 2.74337 2.31445 5.38442 2.31445H12.6134C15.2558 2.31445 16.7707 3.8291 16.7707 6.4697V11.5291C16.7729 14.1715 15.2563 15.6866 12.6134 15.6866ZM4.38335 5.4717C4.302 5.47135 4.22164 5.48937 4.14824 5.52444C4.07484 5.5595 4.01012 5.61057 3.95928 5.67407C3.91416 5.72966 3.88027 5.79372 3.85996 5.86238C3.83965 5.93103 3.83345 6.003 3.84106 6.07419C3.84835 6.14542 3.86968 6.21456 3.90391 6.27744C3.93813 6.34033 3.98428 6.39569 4.04014 6.44048C7.32514 9.10088 7.35416 9.11212 7.40591 9.13147C7.87162 9.45958 8.42883 9.63281 8.99849 9.62651C9.56377 9.63433 10.1168 9.46244 10.5783 9.13586C10.6364 9.11606 10.6682 9.10536 13.9586 6.44136C14.0698 6.3499 14.1406 6.21827 14.1555 6.07507C14.1703 5.93188 14.1282 5.78856 14.0381 5.67627C13.9873 5.61289 13.9225 5.56176 13.8492 5.52664C13.7759 5.49151 13.6958 5.47342 13.6145 5.47346C13.4897 5.47367 13.3688 5.51655 13.2717 5.59497L10.0105 8.21213C9.71925 8.43352 9.36164 8.54974 8.99585 8.54194C8.62966 8.54962 8.27126 8.43343 7.97939 8.21213L4.72612 5.59497C4.62925 5.51619 4.50821 5.4734 4.38335 5.4739V5.4717Z" fill="#2F2F3D" />
</svg>
    