<svg width="16" height="16" viewBox="0 0 16 16" fill="none" xmlns="http://www.w3.org/2000/svg">
    <path d="M8.38224 14.4941C8.27864 14.4941 8.17464 14.4941 8.07103 14.4881C6.41216 14.4067 4.83882 13.7276 3.6418 12.5763C2.44479 11.4249 1.70503 9.87917 1.55927 8.22472C1.46186 6.81433 1.80945 5.40893 2.55306 4.20654C3.29666 3.00415 4.3988 2.0654 5.70417 1.52255C6.46739 1.20494 6.8702 1.44855 7.04101 1.62615C7.21181 1.79695 7.44982 2.19376 7.13261 2.92018C6.85203 3.56504 6.71055 4.26181 6.7174 4.96503C6.74679 6.29222 7.27976 7.55856 8.20826 8.50733C9.13675 9.45611 10.3913 10.0163 11.7175 10.0744C12.108 10.0909 12.499 10.0641 12.8836 9.99436C13.6892 9.84796 14.0252 10.1716 14.1532 10.3788C14.2812 10.586 14.428 11.032 13.9396 11.6912C13.3001 12.5637 12.4632 13.2725 11.4973 13.7596C10.5314 14.2467 9.46399 14.4984 8.38224 14.4941ZM2.46889 8.15791C2.57703 9.36178 3.04901 10.5042 3.82209 11.4334C4.59516 12.3626 5.63272 13.0344 6.79685 13.3597C7.96097 13.685 9.19653 13.6483 10.3393 13.2544C11.482 12.8606 12.4778 12.1282 13.1944 11.1548C13.2565 11.0722 13.3078 10.982 13.3472 10.8864C13.2451 10.8762 13.1421 10.8824 13.042 10.9048C12.5908 10.9842 12.1324 11.015 11.6747 10.9964C10.1138 10.9265 8.63787 10.2658 7.54601 9.14814C6.45414 8.0305 5.82803 6.53954 5.79457 4.97743C5.79071 4.14557 5.96118 3.32213 6.29499 2.56017C6.33643 2.47353 6.36345 2.38071 6.37499 2.28537C6.26697 2.29113 6.16119 2.31833 6.06378 2.36537C4.93522 2.83526 3.98188 3.64634 3.33725 4.68504C2.69262 5.72375 2.389 6.93805 2.46889 8.15791V8.15791Z" fill="#2F2F3D" />
</svg>
    