<svg width="24" height="24" viewBox="0 0 24 24" fill="none" xmlns="http://www.w3.org/2000/svg">
<path d="M10.6557 5.28651C9.42072 5.99934 8.73798 7.43514 8.73798 9.32271V11.1022L2.69734 11.1022C2.66202 11.0981 2.62647 11.096 2.59091 11.096C2.47363 11.0957 2.35746 11.1186 2.24904 11.1633C2.14061 11.208 2.04205 11.2736 1.95903 11.3565C1.87602 11.4393 1.81019 11.5377 1.76526 11.6461C1.72034 11.7544 1.69723 11.8706 1.69727 11.9878C1.69727 12.4818 2.09833 12.894 2.59221 12.894C2.61667 12.894 2.64082 12.8931 2.66467 12.8912H8.73798V14.6843C8.73798 16.5719 9.42072 18.0077 10.6557 18.7205C11.9008 19.4335 13.4772 19.3029 15.1137 18.3591L19.7624 15.6783C21.399 14.7345 22.3026 13.4293 22.3026 12.0036C22.3026 10.578 21.399 9.27255 19.7624 8.31868L15.1137 5.63798C14.18 5.09578 13.2562 4.82467 12.4128 4.82467C11.7802 4.82461 11.188 4.97521 10.6557 5.28651ZM11.5933 17.1721C10.874 16.7597 10.4809 15.8296 10.4809 14.5637L10.4809 9.44274C10.4809 8.17702 10.874 7.24673 11.5933 6.83436C12.3127 6.422 13.3099 6.54673 14.4128 7.17967L18.8529 9.74011C19.9555 10.3729 20.5598 11.1785 20.5598 12.0032C20.5598 12.8279 19.9554 13.6334 18.8529 14.2664L14.4128 16.8268C13.7415 17.2201 13.1087 17.4118 12.5523 17.4118C12.2172 17.4168 11.8866 17.3342 11.5933 17.1721L11.5933 17.1721Z" fill="#C6C2DE"/>
</svg>
