<svg width="40" height="41" viewBox="0 0 40 41" fill="none" xmlns="http://www.w3.org/2000/svg">
    <g clip-path="url(#clip0_2893_9139)">
        <path d="M15.1851 37.7541H24.8151C33.5301 37.7541 37.2541 34.0301 37.2541 25.3151V17.2901C37.2541 16.9708 37.1272 16.6645 36.9015 16.4387C36.6757 16.2129 36.3694 16.0861 36.0501 16.0861C35.7308 16.0861 35.4245 16.2129 35.1987 16.4387C34.9729 16.6645 34.8461 16.9708 34.8461 17.2901V25.3071C34.8461 32.7061 32.2151 35.3381 24.8151 35.3381H15.1851C7.78609 35.3381 5.15409 32.7071 5.15409 25.3071V15.6771C5.15409 8.27809 7.78509 5.64609 15.1851 5.64609H23.2101C23.5273 5.64271 23.8306 5.5152 24.0549 5.29088C24.2792 5.06657 24.4067 4.7633 24.4101 4.44609C24.4067 4.12888 24.2792 3.82562 24.0549 3.6013C23.8306 3.37699 23.5273 3.24948 23.2101 3.24609H15.1851C6.47009 3.24609 2.74609 6.97009 2.74609 15.6851V25.3151C2.74609 34.0301 6.47009 37.7541 15.1851 37.7541Z" fill="#4B4DED" />
        <path fill-rule="evenodd" clip-rule="evenodd" d="M31.2358 15.2841C30.0454 15.2841 28.8816 14.9311 27.8918 14.2697C26.902 13.6083 26.1305 12.6683 25.675 11.5685C25.2194 10.4686 25.1002 9.25842 25.3325 8.09085C25.5647 6.92328 26.138 5.85079 26.9797 5.00902C27.8215 4.16725 28.894 3.59399 30.0616 3.36175C31.2291 3.12951 32.4393 3.2487 33.5392 3.70427C34.639 4.15983 35.579 4.9313 36.2404 5.92112C36.9018 6.91094 37.2548 8.07465 37.2548 9.2651C37.2543 10.8613 36.62 12.3919 35.4913 13.5206C34.3626 14.6493 32.832 15.2836 31.2358 15.2841ZM31.2358 5.6541C30.5216 5.6541 29.8235 5.86588 29.2296 6.26266C28.6358 6.65944 28.173 7.2234 27.8997 7.88323C27.6264 8.54305 27.5549 9.2691 27.6942 9.96957C27.8335 10.67 28.1774 11.3135 28.6824 11.8185C29.1874 12.3235 29.8309 12.6674 30.5313 12.8067C31.2318 12.946 31.9578 12.8745 32.6177 12.6012C33.2775 12.3279 33.8415 11.8651 34.2382 11.2713C34.635 10.6774 34.8468 9.97929 34.8468 9.2651C34.8452 8.30789 34.4643 7.39034 33.7874 6.71349C33.1106 6.03664 32.193 5.65568 31.2358 5.6541Z" fill="#4B4DED" />
        <path d="M20.0005 16.4871H11.9715C11.6529 16.4837 11.3484 16.3551 11.1239 16.129C10.8994 15.903 10.7728 15.5977 10.7715 15.2791C10.7749 14.9619 10.9024 14.6586 11.1267 14.4343C11.351 14.21 11.6543 14.0825 11.9715 14.0791H20.0005C20.3177 14.0825 20.621 14.21 20.8453 14.4343C21.0696 14.6586 21.1971 14.9619 21.2005 15.2791C21.1992 15.5977 21.0726 15.903 20.8481 16.129C20.6235 16.3551 20.3191 16.4837 20.0005 16.4871Z" fill="#4B4DED" />
        <path d="M11.9715 29.7293H26.4205C26.7391 29.7259 27.0435 29.5973 27.2681 29.3712C27.4926 29.1452 27.6192 28.8399 27.6205 28.5213C27.6171 28.2041 27.4896 27.9008 27.2653 27.6765C27.041 27.4522 26.7377 27.3247 26.4205 27.3213H11.9715C11.6543 27.3247 11.351 27.4522 11.1267 27.6765C10.9024 27.9008 10.7749 28.2041 10.7715 28.5213C10.7728 28.8399 10.8994 29.1452 11.1239 29.3712C11.3484 29.5973 11.6529 29.7259 11.9715 29.7293Z" fill="#4B4DED" />
        <path d="M26.4205 23.1951H11.9715C11.6529 23.1917 11.3484 23.0631 11.1239 22.837C10.8994 22.611 10.7728 22.3057 10.7715 21.9871C10.7749 21.6699 10.9024 21.3666 11.1267 21.1423C11.351 20.918 11.6543 20.7905 11.9715 20.7871H26.4205C26.7377 20.7905 27.041 20.918 27.2653 21.1423C27.4896 21.3666 27.6171 21.6699 27.6205 21.9871C27.6192 22.3057 27.4926 22.611 27.2681 22.837C27.0435 23.0631 26.7391 23.1917 26.4205 23.1951Z" fill="#4B4DED" />
    </g>
    <defs>
        <clipPath id="clip0_2893_9139">
            <rect width="40" height="40" fill="white" transform="translate(0 0.5)" />
        </clipPath>
    </defs>
</svg>
    