<svg width="22" height="16" viewBox="0 0 22 16" fill="none" xmlns="http://www.w3.org/2000/svg">
    <path d="M9.65574 1.28651C8.42072 1.99934 7.73798 3.43514 7.73798 5.32271V7.10223L1.69734 7.10223C1.66202 7.09807 1.62647 7.09598 1.59091 7.09599C1.47363 7.09572 1.35746 7.11859 1.24904 7.16329C1.14061 7.20799 1.04205 7.27364 0.959032 7.35649C0.876017 7.43933 0.810185 7.53775 0.765263 7.64608C0.72034 7.75442 0.697235 7.87055 0.697266 7.98783C0.697266 8.48182 1.09833 8.89405 1.59221 8.89405C1.61667 8.89405 1.64082 8.89308 1.66467 8.89115H7.73798V10.6843C7.73798 12.5719 8.42072 14.0077 9.65574 14.7205C10.9008 15.4335 12.4772 15.3029 14.1137 14.3591L18.7624 11.6783C20.399 10.7345 21.3026 9.42928 21.3026 8.00362C21.3026 6.57797 20.399 5.27255 18.7624 4.31868L14.1137 1.63798C13.18 1.09578 12.2562 0.824666 11.4128 0.824666C10.7802 0.824608 10.188 0.975205 9.65574 1.28651ZM10.5933 13.1721C9.87401 12.7597 9.48094 11.8296 9.48094 10.5637L9.48094 5.44274C9.48094 4.17702 9.87401 3.24673 10.5933 2.83436C11.3127 2.422 12.3099 2.54673 13.4128 3.17967L17.8529 5.74011C18.9555 6.3729 19.5598 7.17851 19.5598 8.00318C19.5598 8.82786 18.9554 9.63344 17.8529 10.2664L13.4128 12.8268C12.7415 13.2201 12.1087 13.4118 11.5523 13.4118C11.2172 13.4168 10.8866 13.3342 10.5933 13.1721L10.5933 13.1721Z" fill="#C6C2DE" />
</svg>