<svg width="14" height="14" viewBox="0 0 40 40" fill="none" xmlns="http://www.w3.org/2000/svg">
<path d="M17.7589 31.1887C15.7005 30.0006 14.5627 27.6076 14.5627 24.4617V21.4958H4.49492C4.43606 21.5027 4.37681 21.5062 4.31754 21.5062C4.12207 21.5067 3.92846 21.4685 3.74774 21.394C3.56703 21.3195 3.40276 21.2101 3.2644 21.072C3.12604 20.934 3.01632 20.7699 2.94145 20.5894C2.86658 20.4088 2.82807 20.2153 2.82813 20.0198C2.82813 19.1965 3.49657 18.5094 4.3197 18.5094C4.36047 18.5094 4.40072 18.511 4.44047 18.5143H14.5627V15.5256C14.5627 12.3797 15.7005 9.98667 17.7589 8.79863C19.8339 7.61034 22.4613 7.82793 25.1888 9.40104L32.9367 13.8691C35.6644 15.4419 37.1703 17.6174 37.1703 19.9935C37.1703 22.3696 35.6643 24.5453 32.9367 26.135L25.1888 30.6029C23.6327 31.5065 22.093 31.9584 20.6873 31.9584C19.6331 31.9585 18.6459 31.7075 17.7589 31.1887ZM19.3216 11.3794C18.1227 12.0666 17.4676 13.6169 17.4676 15.7267V24.2616C17.4676 26.3711 18.1227 27.9216 19.3216 28.6089C20.5205 29.2962 22.1826 29.0883 24.0207 28.0334L31.4208 23.766C33.2585 22.7113 34.2656 21.3687 34.2656 19.9942C34.2656 18.6198 33.2584 17.2771 31.4208 16.2222L24.0207 11.9548C22.9019 11.2994 21.8472 10.9798 20.9198 10.9798C20.3613 10.9715 19.8103 11.1092 19.3215 11.3793L19.3216 11.3794Z" fill="#6E7191"/>
</svg>
