<svg width="18" height="19" viewBox="0 0 18 19" fill="none" xmlns="http://www.w3.org/2000/svg">
    <g clip-path="url(#clip0_499_8794)">
        <path d="M14.9947 11.8836L13.804 6.77385C13.5929 5.69385 13.043 4.70926 12.2342 3.96308C11.4253 3.2169 10.3997 2.74797 9.30624 2.6244V2.19645C9.31192 2.12228 9.30221 2.04773 9.27772 1.97749C9.25324 1.90725 9.21451 1.84283 9.16395 1.78826C9.1134 1.73369 9.05212 1.69015 8.98395 1.66038C8.91578 1.6306 8.8422 1.61523 8.76781 1.61523C8.69343 1.61523 8.61984 1.6306 8.55167 1.66038C8.48351 1.69015 8.42222 1.73369 8.37167 1.78826C8.32112 1.84283 8.28239 1.90725 8.2579 1.97749C8.23342 2.04773 8.22371 2.12228 8.22939 2.19645V2.62485C7.13875 2.74711 6.11533 3.21334 5.30734 3.95604C4.49936 4.69874 3.94874 5.67934 3.73524 6.75585L2.54229 11.8836C2.45076 12.272 2.50389 12.6804 2.69175 13.0324C2.87961 13.3844 3.18931 13.6559 3.56289 13.7961C4.38147 14.0968 5.22465 14.3258 6.08289 14.4805C6.08289 14.5165 6.07704 14.5525 6.07704 14.5885C6.07243 14.945 6.13866 15.2988 6.27188 15.6295C6.40511 15.9602 6.60267 16.2611 6.85312 16.5148C7.10356 16.7685 7.4019 16.9699 7.73081 17.1074C8.05973 17.2449 8.41267 17.3157 8.76916 17.3157C9.12566 17.3157 9.4786 17.2449 9.80752 17.1074C10.1364 16.9699 10.4348 16.7685 10.6852 16.5148C10.9357 16.2611 11.1332 15.9602 11.2664 15.6295C11.3997 15.2988 11.4659 14.945 11.4613 14.5885C11.4613 14.553 11.4527 14.517 11.4509 14.4814C12.3097 14.3265 13.1533 14.0972 13.9723 13.7961C14.3462 13.6563 14.6563 13.3849 14.8445 13.0328C15.0327 12.6808 15.0861 12.2722 14.9947 11.8836ZM8.76759 16.2243C8.34376 16.2208 7.93805 16.0519 7.637 15.7536C7.33596 15.4552 7.1634 15.051 7.15614 14.6272C7.69118 14.6881 8.2291 14.7202 8.76759 14.7235C9.30607 14.7202 9.84399 14.6881 10.379 14.6272C10.3718 15.051 10.1992 15.4552 9.89817 15.7536C9.59713 16.0519 9.19142 16.2208 8.76759 16.2243ZM13.606 12.7719C10.4834 13.921 7.05362 13.921 3.93099 12.7719C3.80643 12.725 3.70321 12.6344 3.6406 12.517C3.57799 12.3995 3.56028 12.2633 3.59079 12.1338L4.78734 6.98805C4.9615 6.05781 5.45593 5.21793 6.1848 4.61425C6.91366 4.01057 7.83093 3.6812 8.77733 3.68334C9.72373 3.68548 10.6395 4.01899 11.3656 4.62596C12.0918 5.23293 12.5824 6.07503 12.7523 7.00605L13.9471 12.1338C13.9776 12.2633 13.9599 12.3995 13.8973 12.517C13.8347 12.6344 13.7314 12.725 13.6069 12.7719H13.606Z" fill="#2F2F3D" />
    </g>
    <defs>
        <clipPath id="clip0_499_8794">
            <rect width="18" height="18" fill="white" transform="translate(0 0.5)" />
        </clipPath>
    </defs>
</svg>
    