<svg width="24" height="24" viewBox="0 0 24 24" fill="none" xmlns="http://www.w3.org/2000/svg">
<g clip-path="url(#clip0_30115_1943)">
<path d="M12.0185 18.7309C9.76864 18.7332 7.53324 18.3719 5.39866 17.6611C5.01471 17.5404 4.66286 17.3348 4.36923 17.0595C4.07559 16.7843 3.8477 16.4465 3.70246 16.0711C3.56695 15.6944 3.52017 15.2915 3.56575 14.8938C3.61133 14.496 3.74805 14.1142 3.96526 13.7779L5.07346 11.9371C5.33566 11.439 5.48692 10.89 5.51686 10.3279L5.80606 7.5433C5.80366 3.9583 8.43406 1.6459 12.0185 1.6459C15.6029 1.6459 18.2339 3.9583 18.2339 7.5433L18.5231 10.3279C18.5553 10.8931 18.7064 11.4451 18.9665 11.9479L20.0651 13.7785C20.2694 14.1206 20.3945 14.5042 20.4312 14.9011C20.4678 15.2979 20.4151 15.6979 20.2769 16.0717C20.1404 16.4441 19.9213 16.7807 19.6359 17.0561C19.3505 17.3316 19.0063 17.5386 18.6293 17.6617C16.4979 18.3731 14.2654 18.7342 12.0185 18.7309V18.7309ZM12.0185 3.0913C9.23386 3.0913 7.24846 4.7485 7.24846 7.5433L6.95986 10.3279C6.92554 11.1505 6.70478 11.9545 6.31426 12.6793L5.20606 14.5195C5.10307 14.6718 5.03647 14.8458 5.0114 15.028C4.98633 15.2101 5.00346 15.3956 5.06146 15.5701C5.13132 15.7425 5.23972 15.8967 5.37835 16.0208C5.51698 16.1448 5.68217 16.2355 5.86126 16.2859C9.85871 17.6349 14.1884 17.6349 18.1859 16.2859C18.3562 16.2303 18.5117 16.1366 18.6403 16.0118C18.7689 15.887 18.8673 15.7345 18.9281 15.5659C18.9915 15.3963 19.0158 15.2146 18.9991 15.0343C18.9824 14.854 18.9251 14.6799 18.8315 14.5249L17.7233 12.6793C17.3307 11.9519 17.1099 11.1443 17.0777 10.3183L16.7885 7.5433C16.7885 4.7485 14.8133 3.0913 12.0185 3.0913V3.0913Z" fill="#292A3A"/>
<path d="M11.9948 19.425C12.2808 19.425 12.5604 19.5098 12.7982 19.6687C13.036 19.8276 13.2213 20.0534 13.3308 20.3176C13.4402 20.5819 13.4688 20.8726 13.413 21.1531C13.3573 21.4336 13.2195 21.6912 13.0173 21.8935C12.8151 22.0957 12.5574 22.2334 12.2769 22.2892C11.9964 22.345 11.7057 22.3164 11.4415 22.2069C11.1772 22.0975 10.9514 21.9121 10.7925 21.6743C10.6336 21.4366 10.5488 21.157 10.5488 20.871C10.5488 20.4875 10.7012 20.1197 10.9724 19.8485C11.2435 19.5773 11.6113 19.425 11.9948 19.425V19.425Z" fill="#292A3A"/>
</g>
<defs>
<clipPath id="clip0_30115_1943">
<rect width="24" height="24" fill="white"/>
</clipPath>
</defs>
</svg>
