<svg width="16" height="17" viewBox="0 0 16 17" fill="none" xmlns="http://www.w3.org/2000/svg">
    <g clip-path="url(#clip0_2939_109501)">
        <path fill-rule="evenodd" clip-rule="evenodd" d="M2.915 13.5993C4.29496 14.9792 6.09492 15.6992 8.01487 15.6992C9.93482 15.6992 11.7348 14.9792 13.1147 13.5993C15.9347 10.7793 15.9347 6.21944 13.1147 3.39951C11.7348 2.01954 9.93482 1.29956 8.01487 1.29956C6.09492 1.29956 4.29496 2.01954 2.915 3.39951C0.0950665 6.21944 0.0950665 10.7793 2.915 13.5993ZM8.01471 12.0993C7.65472 12.0993 7.41473 11.8593 7.41473 11.4993V9.09937H5.01479C4.6548 9.09937 4.4148 8.85937 4.4148 8.49938C4.4148 8.13939 4.6548 7.8994 5.01479 7.8994H7.41473V5.49946C7.41473 5.13946 7.65472 4.89947 8.01471 4.89947C8.3747 4.89947 8.6147 5.13946 8.6147 5.49946V7.8994H11.0146C11.3746 7.8994 11.6146 8.13939 11.6146 8.49938C11.6146 8.85937 11.3746 9.09937 11.0146 9.09937H8.6147V11.4993C8.6147 11.8593 8.3747 12.0993 8.01471 12.0993Z" fill="#2F2F3D" />
    </g>
    <defs>
        <clipPath id="clip0_2939_109501">
            <rect width="16" height="16" fill="white" transform="translate(0 0.5)" />
        </clipPath>
    </defs>
</svg>