<svg width="24" height="24" viewBox="0 0 24 24" fill="none" xmlns="http://www.w3.org/2000/svg">
    <g clip-path="url(#clip0_811_40750)">
        <path d="M14.8726 22.2934H9.12865C3.93012 22.2934 1.70886 20.0734 1.70886 14.8725V9.12855C1.70886 3.93002 3.92892 1.70703 9.12865 1.70703H14.8726C20.0711 1.70703 22.2924 3.92702 22.2924 9.12855V14.8725C22.2918 20.071 20.0705 22.2934 14.8726 22.2934ZM9.12865 3.14276C4.71554 3.14276 3.14529 4.71666 3.14529 9.12797V14.8719C3.14529 19.2832 4.71554 20.8571 9.12865 20.8571H14.8726C19.2857 20.8571 20.8559 19.2832 20.8559 14.8719V9.12797C20.8559 4.71666 19.2857 3.14276 14.8726 3.14276H9.12865Z" fill="white" />
        <path d="M17.2658 17.5843H15.4946C15.3053 17.5796 15.1247 17.5038 14.9888 17.3719C14.8549 17.2374 14.7789 17.0559 14.777 16.8661C14.7783 16.6764 14.8544 16.4948 14.9888 16.3608C15.0546 16.2934 15.1332 16.2399 15.2201 16.2034C15.307 16.1669 15.4003 16.1481 15.4946 16.1484H17.2658C17.3601 16.1482 17.4534 16.1669 17.5403 16.2034C17.6272 16.2399 17.7058 16.2934 17.7717 16.3608C17.9061 16.4948 17.9822 16.6764 17.9835 16.8661C17.9812 17.0558 17.9053 17.2372 17.7717 17.3719C17.6357 17.5037 17.4551 17.5796 17.2658 17.5843Z" fill="white" />
        <path d="M12.9278 17.5843H6.73567C6.54636 17.5796 6.36577 17.5038 6.22987 17.3719C6.09597 17.2374 6.01996 17.0559 6.01807 16.8661C6.01934 16.6764 6.09546 16.4948 6.22987 16.3608C6.29565 16.2934 6.37432 16.2399 6.46121 16.2034C6.5481 16.1669 6.64143 16.1481 6.73567 16.1484H12.9278C13.1173 16.1483 13.2993 16.2224 13.4348 16.3548C13.5691 16.4912 13.6447 16.6747 13.6454 16.8661C13.6454 17.057 13.5696 17.2402 13.4346 17.3753C13.2995 17.5103 13.1164 17.5861 12.9254 17.5861L12.9278 17.5843Z" fill="white" />
        <path d="M17.2662 13.9828H11.974C11.784 13.9807 11.6023 13.9044 11.4676 13.7703C11.4007 13.7043 11.3476 13.6255 11.3113 13.5387C11.275 13.452 11.2563 13.3589 11.2563 13.2648C11.2563 13.1708 11.275 13.0777 11.3113 12.9909C11.3476 12.9041 11.4007 12.8254 11.4676 12.7593C11.5335 12.6918 11.6123 12.6383 11.6993 12.6018C11.7863 12.5653 11.8797 12.5466 11.974 12.5469H17.2686C17.3628 12.5467 17.4561 12.5653 17.543 12.6018C17.6299 12.6383 17.7086 12.6918 17.7744 12.7593C17.8415 12.8252 17.8949 12.9039 17.9313 12.9907C17.9677 13.0775 17.9864 13.1707 17.9864 13.2648C17.9864 13.3589 17.9677 13.4521 17.9313 13.5389C17.8949 13.6257 17.8415 13.7044 17.7744 13.7703C17.6393 13.9049 17.4568 13.9812 17.2662 13.9828Z" fill="white" />
        <path d="M9.38664 13.9828H6.73457C6.54471 13.9806 6.36321 13.9044 6.22877 13.7703C6.16162 13.7044 6.10828 13.6257 6.07188 13.5389C6.03547 13.4521 6.01672 13.3589 6.01672 13.2648C6.01672 13.1707 6.03547 13.0775 6.07188 12.9907C6.10828 12.9039 6.16162 12.8252 6.22877 12.7593C6.29454 12.6918 6.37321 12.6383 6.46011 12.6018C6.547 12.5653 6.64033 12.5466 6.73457 12.5469H9.38664C9.48089 12.5466 9.57422 12.5653 9.66111 12.6018C9.748 12.6383 9.82667 12.6918 9.89245 12.7593C9.95959 12.8252 10.0129 12.9039 10.0493 12.9907C10.0857 13.0775 10.1045 13.1707 10.1045 13.2648C10.1045 13.3589 10.0857 13.4521 10.0493 13.5389C10.0129 13.6257 9.95959 13.7044 9.89245 13.7703C9.75804 13.9045 9.57651 13.9807 9.38664 13.9828Z" fill="white" />
    </g>
    <defs>
        <clipPath id="clip0_811_40750">
            <rect width="24" height="24" fill="white" />
        </clipPath>
    </defs>
</svg>
    