<svg width="18" height="18" viewBox="0 0 18 18" fill="none" xmlns="http://www.w3.org/2000/svg">
    <path d="M4.25728 15.7435C3.72449 15.7495 3.21057 15.5474 2.82462 15.1801C2.60299 14.9594 2.43916 14.6873 2.34824 14.388C2.25308 14.0745 2.23154 13.7434 2.28496 13.4201L2.6128 11.0967C2.65966 10.8147 2.74927 10.5415 2.87868 10.2866C3.00255 10.0279 3.16662 9.79034 3.36473 9.58284L9.45306 3.49417C9.7693 3.13005 10.155 2.8328 10.5878 2.61997C11.0205 2.40713 11.4915 2.28305 11.9729 2.25488C12.4644 2.26157 12.9465 2.39039 13.3757 2.62975C13.7933 2.86137 14.1751 3.15254 14.5087 3.49417C14.9206 3.88969 15.2544 4.35907 15.4931 4.87793C15.6926 5.32284 15.774 5.81177 15.7291 6.29729C15.6893 6.69654 15.5668 7.08308 15.3691 7.43221C15.1351 7.84289 14.8454 8.21927 14.5082 8.55054L8.41944 14.6386C7.99665 15.03 7.47203 15.2944 6.90593 15.4015L4.58292 15.7295C4.53792 15.7295 4.49291 15.7318 4.45196 15.734H4.41988C4.36363 15.7412 4.30453 15.7435 4.25728 15.7435ZM11.8464 3.3943C11.4999 3.41455 11.1607 3.50382 10.8492 3.65699C10.5378 3.81017 10.2603 4.02412 10.0327 4.2862L4.04765 10.4176C3.90522 10.5669 3.78706 10.7378 3.69784 10.9239C3.63914 11.1072 3.6087 11.2984 3.60775 11.4909C3.57715 11.8428 3.52569 12.4323 3.38934 13.4039C3.35077 13.6365 3.36599 13.8748 3.43416 14.1005C3.49221 14.2904 3.49242 14.2904 3.59413 14.379L3.64159 14.4213C3.74596 14.5392 3.88822 14.6173 4.0437 14.6423C4.05765 14.6423 4.39422 14.6135 4.85143 14.5662C5.27984 14.5212 5.90445 14.4519 6.44581 14.3664C6.83708 14.3319 7.2097 14.184 7.5181 13.9408L13.6666 7.92232C13.9092 7.68383 14.1176 7.41287 14.2859 7.11722C14.4282 6.86605 14.5163 6.58781 14.5443 6.30048C14.5771 5.95107 14.5189 5.59909 14.3751 5.27894C14.2033 4.90561 13.963 4.56774 13.6666 4.28301C13.4265 4.03722 13.1516 3.82779 12.851 3.66117C12.543 3.49146 12.198 3.4005 11.8464 3.3965V3.3943Z" fill="#2F2F3D" />
    <path d="M12.8671 9.75502C12.7874 9.75606 12.7079 9.74415 12.632 9.71987C11.5792 9.42049 10.6207 8.85715 9.84666 8.0833C9.07265 7.30945 8.50924 6.35068 8.20966 5.29798C8.17998 5.05455 8.2334 4.80821 8.36171 4.59923C8.49002 4.39025 8.68536 4.23113 8.91587 4.14746C8.90112 4.26381 8.91012 4.38171 8.9418 4.49464C9.24118 5.5474 9.80452 6.5064 10.5784 7.2804C11.3522 8.05441 12.3106 8.61782 13.3633 8.9174C13.4394 8.94146 13.519 8.9535 13.5988 8.953C13.6979 8.9535 13.7965 8.93645 13.8897 8.9029C13.8841 8.94616 13.8754 8.98907 13.8642 9.03123C13.7839 9.23409 13.6475 9.40978 13.4709 9.53793C13.2943 9.66607 13.0849 9.74155 12.8671 9.75502Z" fill="#2F2F3D" />
</svg>
    