<svg width="15" height="14" viewBox="0 0 15 14" fill="none" xmlns="http://www.w3.org/2000/svg">
    <g clip-path="url(#clip0_1546_13077)">
        <path d="M4.02649 12.245C3.61211 12.2498 3.21239 12.0925 2.91221 11.8068C2.73983 11.6352 2.6124 11.4236 2.54169 11.1908C2.46767 10.947 2.45092 10.6894 2.49247 10.438L2.74746 8.63086C2.7839 8.41154 2.8536 8.19907 2.95425 8.00083C3.05059 7.79956 3.1782 7.61482 3.33229 7.45343L8.06766 2.7178C8.31362 2.43459 8.6136 2.2034 8.9502 2.03786C9.28681 1.87232 9.65311 1.77581 10.0276 1.75391C10.4098 1.75911 10.7848 1.8593 11.1186 2.04547C11.4434 2.22562 11.7403 2.45208 11.9998 2.7178C12.3202 3.02542 12.5798 3.3905 12.7654 3.79406C12.9206 4.1401 12.9839 4.52037 12.949 4.898C12.9181 5.20852 12.8228 5.50917 12.669 5.78072C12.487 6.10014 12.2617 6.39287 11.9994 6.65052L7.26373 11.3857C6.9349 11.6901 6.52686 11.8958 6.08656 11.979L4.27977 12.2342C4.24477 12.2342 4.20976 12.2359 4.17791 12.2377H4.15296C4.10921 12.2433 4.06324 12.245 4.02649 12.245ZM9.92913 2.64012C9.65964 2.65587 9.39581 2.7253 9.15358 2.84444C8.91134 2.96357 8.69549 3.12998 8.5185 3.33382L3.86345 8.10268C3.75267 8.21883 3.66077 8.35171 3.59138 8.49645C3.54572 8.63903 3.52205 8.78775 3.52131 8.93746C3.4975 9.21117 3.45748 9.66967 3.35143 10.4253C3.32143 10.6062 3.33327 10.7916 3.38629 10.9672C3.43144 11.1149 3.43161 11.1149 3.51071 11.1838L3.54762 11.2167C3.6288 11.3084 3.73945 11.3691 3.86038 11.3885C3.87123 11.3885 4.13301 11.3662 4.48861 11.3294C4.82182 11.2944 5.30762 11.2405 5.72868 11.174C6.03301 11.1471 6.32282 11.0321 6.56269 10.8429L11.3449 6.16191C11.5336 5.97642 11.6956 5.76567 11.8265 5.53573C11.9372 5.34037 12.0057 5.12396 12.0275 4.90048C12.0531 4.62872 12.0077 4.35496 11.8959 4.10595C11.7623 3.81558 11.5754 3.5528 11.3449 3.33134C11.1581 3.14017 10.9443 2.97728 10.7105 2.84768C10.4709 2.71569 10.2026 2.64494 9.92913 2.64183V2.64012Z" fill="#2F2F3D" />
        <path d="M10.7232 7.58719C10.6612 7.58799 10.5994 7.57873 10.5404 7.55984C9.72154 7.327 8.976 6.88884 8.37399 6.28696C7.77199 5.68508 7.33378 4.93936 7.10077 4.1206C7.07769 3.93127 7.11923 3.73967 7.21903 3.57713C7.31883 3.41459 7.47076 3.29083 7.65005 3.22575C7.63857 3.31625 7.64557 3.40795 7.67021 3.49578C7.90306 4.31459 8.34122 5.06048 8.9431 5.66248C9.54498 6.26448 10.2904 6.70269 11.1091 6.93571C11.1683 6.95442 11.2302 6.96378 11.2923 6.96339C11.3694 6.96378 11.4461 6.95052 11.5186 6.92443C11.5142 6.95807 11.5075 6.99144 11.4988 7.02423C11.4363 7.18201 11.3302 7.31867 11.1929 7.41833C11.0555 7.518 10.8926 7.57671 10.7232 7.58719Z" fill="#2F2F3D" />
    </g>
    <defs>
        <clipPath id="clip0_1546_13077">
            <rect width="14" height="14" fill="white" transform="translate(0.715332)" />
        </clipPath>
    </defs>
</svg>
    