<svg width="15" height="15" viewBox="0 0 15 15" fill="none" xmlns="http://www.w3.org/2000/svg">
    <g clip-path="url(#clip0_898_38566)">
        <path fill-rule="evenodd" clip-rule="evenodd" d="M2.55018 12.0846C2.85619 12.3758 3.26367 12.5361 3.68611 12.5313C3.72357 12.5313 3.77043 12.5295 3.81503 12.5238H3.84047C3.87294 12.522 3.90862 12.5202 3.9443 12.5202L5.78617 12.2601C6.23502 12.1752 6.65099 11.9656 6.98621 11.6553L11.8139 6.82812C12.0812 6.56547 12.3109 6.26705 12.4965 5.94142C12.6532 5.66461 12.7504 5.35812 12.7818 5.04157C12.8175 4.65661 12.7529 4.26895 12.5947 3.91619C12.4055 3.5048 12.1409 3.13263 11.8142 2.81903C11.5497 2.54816 11.247 2.31729 10.9159 2.13365C10.5756 1.94387 10.1933 1.84173 9.80371 1.83643C9.42197 1.85876 9.04856 1.95714 8.70542 2.12589C8.36228 2.29465 8.05648 2.53032 7.80574 2.81903L2.97842 7.64661C2.82134 7.81114 2.69126 7.99947 2.59304 8.20464C2.49044 8.40673 2.41939 8.62333 2.38224 8.84691L2.1223 10.6891C2.07994 10.9454 2.09702 11.208 2.17247 11.4566C2.24456 11.6938 2.37446 11.9096 2.55018 12.0846ZM8.91274 2.94813C9.15969 2.82668 9.42864 2.7559 9.70336 2.73985V2.74159C9.98218 2.74476 10.2557 2.81688 10.4999 2.95144C10.7382 3.08355 10.9562 3.24961 11.1466 3.44449C11.3816 3.67025 11.5721 3.93813 11.7083 4.23414C11.8223 4.48798 11.8685 4.76706 11.8424 5.0441C11.8203 5.27192 11.7504 5.49252 11.6376 5.69168C11.5042 5.92609 11.3389 6.14093 11.1466 6.33002L10.3032 7.15561C9.63475 6.91138 9.02638 6.52027 8.52209 6.00865C8.04326 5.52285 7.6715 4.94161 7.42917 4.30362L8.26534 3.44701C8.44576 3.23922 8.6658 3.06958 8.91274 2.94813ZM6.8649 4.88169L3.5199 8.30848C3.40697 8.42688 3.31328 8.56235 3.24254 8.70989C3.196 8.85524 3.17186 9.00685 3.17111 9.15946C3.14685 9.43849 3.10605 9.90589 2.99793 10.6762C2.96735 10.8606 2.97942 11.0497 3.03347 11.2286C3.07943 11.3789 3.07967 11.3791 3.15991 11.4491L3.16031 11.4494L3.19794 11.483C3.28069 11.5765 3.39349 11.6384 3.51676 11.6581C3.52783 11.6581 3.79469 11.6353 4.1572 11.5979C4.49688 11.5622 4.99212 11.5072 5.42135 11.4394C5.73159 11.4121 6.02702 11.2948 6.27155 11.1019L9.69798 7.748C9.051 7.50277 8.4619 7.11921 7.97131 6.62168C7.48358 6.12705 7.10694 5.53347 6.8649 4.88169Z" fill="white" />
    </g>
    <defs>
        <clipPath id="clip0_898_38566">
            <rect width="14.2718" height="14.2718" fill="white" transform="translate(0.310791 0.048584)" />
        </clipPath>
    </defs>
</svg>
    