<svg width="24" height="24" viewBox="0 0 24 24" fill="none" xmlns="http://www.w3.org/2000/svg">
    <path d="M22.2846 4.79976C22.2846 5.41004 22.1036 6.00662 21.7645 6.51405C21.4255 7.02148 20.9436 7.41698 20.3798 7.65052C19.8159 7.88407 19.1955 7.94517 18.5969 7.82611C17.9984 7.70705 17.4486 7.41317 17.017 6.98164C16.5855 6.5501 16.2916 6.00029 16.1726 5.40174C16.0535 4.80318 16.1146 4.18276 16.3482 3.61893C16.5817 3.0551 16.9772 2.57319 17.4846 2.23414C17.9921 1.89508 18.5886 1.71411 19.1989 1.71411C20.0173 1.71411 20.8021 2.03921 21.3808 2.61788C21.9595 3.19655 22.2846 3.98139 22.2846 4.79976V4.79976Z" fill="#6E7191" />
    <path d="M15.5802 22.2854H7.39269C7.24869 22.2854 7.10518 22.2753 6.97259 22.2651C6.8526 22.2555 6.73704 22.2446 6.61284 22.2242C6.48745 22.2134 6.3599 22.1924 6.25251 22.1726C5.95259 22.1298 5.65636 22.0658 5.36544 21.9812C5.09169 21.902 4.82448 21.8017 4.56626 21.6812C4.31927 21.565 4.08264 21.4284 3.85849 21.2727C3.63977 21.1203 3.43451 20.949 3.24563 20.7609C3.05723 20.5725 2.88606 20.3679 2.73354 20.1495C2.57722 19.9255 2.43978 19.6887 2.32341 19.4416C2.20268 19.183 2.10238 18.9154 2.02342 18.6412C1.93874 18.3495 1.87517 18.0521 1.83242 17.7514C1.81262 17.644 1.79166 17.5175 1.78086 17.3915C1.76106 17.2715 1.75004 17.1562 1.73984 17.0314C1.72904 16.8892 1.71875 16.7507 1.71875 16.6115V8.42429C1.71875 8.2839 1.72964 8.14473 1.73984 8.00434C1.75064 7.87955 1.76106 7.7643 1.78086 7.6443C1.79166 7.51891 1.81262 7.3918 1.83242 7.28441C1.87517 6.98368 1.93874 6.68626 2.02342 6.39456C2.1024 6.12036 2.20271 5.85277 2.32341 5.59421C2.43982 5.3471 2.57725 5.11031 2.73354 4.88628C2.88606 4.66785 3.05723 4.46325 3.24563 4.27489C3.43451 4.08677 3.63977 3.91551 3.85849 3.7631C4.08264 3.60735 4.31927 3.47073 4.56626 3.35457C4.82448 3.23404 5.09169 3.13374 5.36544 3.05459C5.65638 2.97009 5.95261 2.90608 6.25251 2.86314C6.3599 2.84334 6.48745 2.82238 6.61284 2.81158C6.73284 2.79118 6.8484 2.78093 6.97259 2.77013C7.11418 2.75933 7.25289 2.74977 7.39269 2.74977H13.6461C13.801 2.74894 13.9541 2.78339 14.0937 2.85055C14.1602 2.88253 14.2233 2.92181 14.2812 2.96758C14.3386 3.01256 14.3908 3.0636 14.4371 3.11992C14.535 3.23884 14.6052 3.378 14.6427 3.52742C14.6803 3.67683 14.6845 3.83274 14.6544 3.98384C14.6541 3.99424 14.6518 4.00455 14.6486 4.01445C14.6458 4.02444 14.6443 4.03472 14.6439 4.04507C14.6325 4.10086 14.6248 4.15548 14.6158 4.21308C14.6086 4.26167 14.6019 4.31146 14.5923 4.36365C14.5503 4.8207 14.5745 5.28142 14.6638 5.7316C14.6722 5.761 14.6783 5.79156 14.6843 5.81436C14.7033 5.90108 14.7275 5.98662 14.7564 6.07055C14.8393 6.40674 14.9708 6.72895 15.1472 7.0269C15.2016 7.13229 15.2615 7.23463 15.3271 7.33348V7.33348L15.3616 7.38636C15.6993 7.87832 16.1247 8.30384 16.6166 8.64152L16.6577 8.6673L16.6682 8.67389C16.7679 8.73901 16.8706 8.79911 16.9764 8.85391C17.2746 9.03007 17.5974 9.16159 17.9338 9.24442C18.0184 9.2737 18.1046 9.298 18.1921 9.31707V9.31707L18.273 9.33684C18.5821 9.39773 18.8966 9.42871 19.2116 9.42927C19.3556 9.42927 19.5001 9.42256 19.6417 9.40876C19.6933 9.39916 19.7437 9.39209 19.7923 9.38489C19.8523 9.37649 19.9052 9.3686 19.9604 9.3572C19.9708 9.35663 19.9809 9.3548 19.9909 9.35178C20.001 9.34881 20.0114 9.34698 20.0219 9.34636C20.0889 9.33329 20.157 9.32668 20.2252 9.32659C20.3609 9.32646 20.4953 9.35304 20.6207 9.40466C20.7432 9.45464 20.8547 9.5277 20.9494 9.61998C21.0474 9.7154 21.1251 9.82966 21.1779 9.95586C21.2307 10.082 21.2579 10.2176 21.257 10.3544V16.6078C21.257 16.7488 21.2467 16.8875 21.2359 17.0279C21.2251 17.1527 21.2153 17.2678 21.1949 17.3878C21.1841 17.5138 21.1632 17.6405 21.1434 17.7478C21.1006 18.0486 21.0365 18.3458 20.9518 18.6376C20.8731 18.9118 20.7728 19.1795 20.6518 19.4379C20.5356 19.685 20.3989 19.9218 20.2428 20.1458C20.0901 20.3643 19.9187 20.5689 19.7302 20.7572C19.5415 20.9454 19.3364 21.1166 19.1179 21.269C18.8936 21.4245 18.657 21.5613 18.4101 21.6777C18.1518 21.7981 17.8846 21.8984 17.6109 21.9777C17.32 22.0621 17.0232 22.126 16.7233 22.169C16.6153 22.1888 16.4889 22.2097 16.3635 22.2205C16.2387 22.2415 16.1238 22.2518 16.0038 22.2614C15.8682 22.2752 15.7242 22.2854 15.5802 22.2854ZM6.60054 16.6283C6.49931 16.6284 6.39923 16.6485 6.30583 16.6875C6.21242 16.7265 6.128 16.7837 6.05681 16.8557C5.98491 16.9268 5.92769 17.0114 5.88866 17.1047C5.84963 17.198 5.82963 17.2981 5.82948 17.3992C5.82963 17.5004 5.84963 17.6005 5.88866 17.6938C5.92769 17.7871 5.98491 17.8717 6.05681 17.9428C6.128 18.0148 6.21242 18.0719 6.30583 18.111C6.39923 18.15 6.49931 18.1701 6.60054 18.1701H15.8579C15.959 18.17 16.0587 18.1498 16.152 18.1108C16.2453 18.0718 16.3299 18.0147 16.401 17.9428C16.4731 17.8718 16.5306 17.7873 16.5698 17.6939C16.6089 17.6006 16.6294 17.5004 16.6295 17.3992C16.6294 17.298 16.6089 17.1978 16.5698 17.1045C16.5306 17.0112 16.4731 16.9267 16.401 16.8557C16.3299 16.7837 16.2453 16.7267 16.152 16.6876C16.0587 16.6486 15.959 16.6284 15.8579 16.6283H6.60054ZM6.55425 12.3163C6.34739 12.3163 6.1486 12.3984 6.00233 12.5447C5.85605 12.691 5.77382 12.8893 5.77382 13.0962C5.77382 13.303 5.85605 13.5015 6.00233 13.6478C6.1486 13.7941 6.34739 13.8762 6.55425 13.8762H15.8649C15.9673 13.8762 16.0685 13.856 16.1631 13.8168C16.2578 13.7776 16.3438 13.7202 16.4163 13.6478C16.4887 13.5754 16.5464 13.4893 16.5856 13.3947C16.6248 13.3001 16.6448 13.1986 16.6448 13.0962C16.6448 12.9938 16.6248 12.8924 16.5856 12.7978C16.5464 12.7032 16.4887 12.6171 16.4163 12.5447C16.3438 12.4723 16.2578 12.4149 16.1631 12.3757C16.0685 12.3365 15.9673 12.3163 15.8649 12.3163H6.55425ZM6.60054 8.00317C6.49931 8.00324 6.39923 8.02332 6.30583 8.06235C6.21242 8.10138 6.128 8.15853 6.05681 8.2305C5.98491 8.30162 5.92769 8.38622 5.88866 8.47951C5.84963 8.57281 5.82963 8.67295 5.82948 8.77408C5.82963 8.87521 5.84963 8.97535 5.88866 9.06864C5.92769 9.16194 5.98491 9.24654 6.05681 9.31766C6.12798 9.38965 6.21242 9.44678 6.30583 9.48581C6.39923 9.52484 6.4993 9.54495 6.60054 9.54499H11.7431C11.8443 9.54488 11.9444 9.52484 12.0378 9.48581C12.1312 9.44678 12.2162 9.3896 12.2874 9.31766C12.3593 9.24654 12.4165 9.16194 12.4555 9.06864C12.4945 8.97535 12.5145 8.87521 12.5147 8.77408C12.5145 8.67295 12.4945 8.57281 12.4555 8.47951C12.4165 8.38622 12.3593 8.30162 12.2874 8.2305C12.2162 8.15856 12.1312 8.10137 12.0378 8.06235C11.9444 8.02332 11.8443 8.00328 11.7431 8.00317H6.60054Z" fill="#6E7191" />
</svg>
    