<svg width="18" height="19" viewBox="0 0 18 19" fill="none" xmlns="http://www.w3.org/2000/svg">
    <path d="M6.49275 15.8693H6.3407C5.49692 15.8706 4.67334 15.6104 3.98347 15.1245C3.29157 14.641 2.76656 13.9549 2.48054 13.1607C2.36264 12.8166 2.29422 12.4576 2.27751 12.0943V12.0883C2.24528 11.9385 2.24568 11.7835 2.27795 11.6337C2.31023 11.4839 2.37365 11.3427 2.46472 11.2194C2.63049 11.0158 2.86531 10.8797 3.12434 10.8369L3.69299 10.8063H9.14089L9.70999 10.8369C9.96909 10.8795 10.2035 11.0157 10.3692 11.2194C10.4602 11.3428 10.5239 11.4841 10.5564 11.6339C10.5888 11.7838 10.5891 11.9388 10.5573 12.0888V12.0937C10.5408 12.4571 10.4724 12.8163 10.3542 13.1603C10.0682 13.9543 9.54357 14.6405 8.85217 15.1245C8.16153 15.6105 7.33725 15.8707 6.49275 15.8693ZM6.38376 8.94284C6.04925 8.94379 5.71806 8.87829 5.40906 8.75014C5.10006 8.62198 4.81941 8.43375 4.58376 8.19631C4.34633 7.96065 4.15828 7.68023 4.03005 7.37124C3.90182 7.06226 3.83634 6.73085 3.83713 6.39631C3.83651 6.06181 3.90183 5.73046 4.03005 5.4215C4.15827 5.11254 4.34647 4.83209 4.58376 4.59631C4.8194 4.3589 5.10005 4.17069 5.40906 4.0426C5.71806 3.91452 6.04927 3.84914 6.38376 3.85023C6.71822 3.84944 7.04951 3.91498 7.35847 4.04304C7.66744 4.17111 7.94795 4.35914 8.18376 4.59631C8.42071 4.8323 8.60899 5.11279 8.73704 5.42172C8.86509 5.73064 8.93048 6.0619 8.92996 6.39631C8.93065 6.73075 8.8651 7.06207 8.73704 7.37102C8.60898 7.67997 8.42085 7.96044 8.18376 8.19631C7.94789 8.43344 7.66742 8.62156 7.35847 8.7497C7.04953 8.87783 6.71823 8.94342 6.38376 8.94284Z" fill="#2F2F3D" />
    <path d="M10.4641 6.9978H15.4555C15.5462 7.01038 15.6285 7.05776 15.6848 7.12991C15.7412 7.20206 15.7672 7.29332 15.7575 7.38435C15.7672 7.47539 15.7412 7.56664 15.6848 7.6388C15.6285 7.71095 15.5462 7.75833 15.4555 7.7709H10.4641C10.3734 7.75833 10.2912 7.71095 10.2349 7.6388C10.1785 7.56664 10.1524 7.47539 10.1622 7.38435C10.1524 7.29332 10.1785 7.20206 10.2349 7.12991C10.2912 7.05776 10.3734 7.01038 10.4641 6.9978Z" fill="#2F2F3D" />
    <path d="M11.5303 9.4093H15.3823C15.4729 9.42188 15.5552 9.46926 15.6115 9.54141C15.6679 9.61356 15.694 9.70482 15.6842 9.79585C15.694 9.88689 15.6679 9.97814 15.6115 10.0503C15.5552 10.1224 15.4729 10.1698 15.3823 10.1824H11.5303C11.4396 10.1698 11.3573 10.1224 11.301 10.0503C11.2446 9.97814 11.2185 9.88689 11.2283 9.79585C11.2185 9.70482 11.2446 9.61356 11.301 9.54141C11.3573 9.46926 11.4396 9.42188 11.5303 9.4093Z" fill="#2F2F3D" />
    <path d="M12.904 12.1093H15.406C15.4967 12.1219 15.5789 12.1693 15.6353 12.2414C15.6916 12.3136 15.7177 12.4048 15.7079 12.4959C15.7177 12.5869 15.6916 12.6781 15.6353 12.7503C15.5789 12.8224 15.4967 12.8698 15.406 12.8824H12.904C12.8133 12.8698 12.7311 12.8224 12.6747 12.7503C12.6183 12.6781 12.5923 12.5869 12.602 12.4959C12.5923 12.4048 12.6183 12.3136 12.6747 12.2414C12.7311 12.1693 12.8133 12.1219 12.904 12.1093Z" fill="#2F2F3D" />
</svg>
    