<svg width="12" height="13" viewBox="0 0 12 13" fill="none" xmlns="http://www.w3.org/2000/svg">
    <path d="M2.712 5.392C2.27467 5.392 1.86933 5.28533 1.496 5.072C1.13333 4.85867 0.845333 4.57067 0.632 4.208C0.418667 3.84533 0.312 3.44533 0.312 3.008C0.312 2.58133 0.418667 2.18667 0.632 1.824C0.845333 1.46133 1.13333 1.17867 1.496 0.976C1.86933 0.762666 2.27467 0.655999 2.712 0.655999C3.13867 0.655999 3.53333 0.762666 3.896 0.976C4.25867 1.18933 4.54667 1.47733 4.76 1.84C4.97333 2.192 5.08 2.58133 5.08 3.008C5.08 3.44533 4.97333 3.84533 4.76 4.208C4.54667 4.57067 4.25867 4.85867 3.896 5.072C3.53333 5.28533 3.13867 5.392 2.712 5.392ZM2.248 12C2.184 12 2.14133 11.984 2.12 11.952C2.09867 11.9093 2.104 11.8613 2.136 11.808L8.184 0.912C8.22667 0.837333 8.29067 0.799999 8.376 0.799999H9.16C9.224 0.799999 9.26667 0.821333 9.288 0.863999C9.30933 0.896 9.304 0.938666 9.272 0.992L3.224 11.888C3.192 11.9627 3.128 12 3.032 12H2.248ZM2.712 4.448C3.10667 4.448 3.43733 4.30933 3.704 4.032C3.97067 3.75467 4.104 3.41333 4.104 3.008C4.104 2.61333 3.96533 2.28267 3.688 2.016C3.42133 1.73867 3.096 1.6 2.712 1.6C2.31733 1.6 1.98133 1.73867 1.704 2.016C1.42667 2.28267 1.288 2.61333 1.288 3.008C1.288 3.41333 1.42667 3.75467 1.704 4.032C1.98133 4.30933 2.31733 4.448 2.712 4.448ZM8.808 12.144C8.37067 12.144 7.96533 12.0373 7.592 11.824C7.22933 11.6107 6.94133 11.3227 6.728 10.96C6.51467 10.5973 6.408 10.2027 6.408 9.776C6.408 9.34933 6.51467 8.95467 6.728 8.592C6.94133 8.22933 7.22933 7.94133 7.592 7.728C7.96533 7.51467 8.37067 7.408 8.808 7.408C9.23467 7.408 9.62933 7.51467 9.992 7.728C10.3547 7.94133 10.6427 8.22933 10.856 8.592C11.0693 8.95467 11.176 9.34933 11.176 9.776C11.176 10.2027 11.0693 10.5973 10.856 10.96C10.6427 11.3227 10.3547 11.6107 9.992 11.824C9.62933 12.0373 9.23467 12.144 8.808 12.144ZM8.808 11.2C9.20267 11.2 9.53333 11.0613 9.8 10.784C10.0667 10.5067 10.2 10.1707 10.2 9.776C10.2 9.38133 10.0613 9.04533 9.784 8.768C9.51733 8.49067 9.192 8.352 8.808 8.352C8.41333 8.352 8.07733 8.49067 7.8 8.768C7.52267 9.04533 7.384 9.38133 7.384 9.776C7.384 10.1707 7.52267 10.5067 7.8 10.784C8.07733 11.0613 8.41333 11.2 8.808 11.2Z" fill="#6E7191" />
</svg>
    