<svg width="18" height="19" viewBox="0 0 18 19" fill="none" xmlns="http://www.w3.org/2000/svg">
    <path d="M6.4924 15.8689H6.34035C5.49657 15.8701 4.67299 15.61 3.98312 15.1241C3.29135 14.6404 2.76637 13.9544 2.48019 13.1603C2.3622 12.8163 2.29392 12.4571 2.27761 12.0937V12.0879C2.2453 11.9381 2.24541 11.7831 2.27761 11.6333C2.3098 11.4835 2.37338 11.3423 2.46437 11.219C2.63014 11.0154 2.86496 10.8793 3.12399 10.8365L3.69264 10.8059H9.14142L9.70964 10.8365C9.96874 10.8791 10.2032 11.0153 10.3688 11.219C10.4601 11.3423 10.524 11.4835 10.5565 11.6334C10.5889 11.7833 10.5891 11.9384 10.5569 12.0884V12.0933C10.5409 12.4567 10.4724 12.816 10.3539 13.1599C10.068 13.954 9.54336 14.6402 8.85182 15.1241C8.16118 15.6101 7.3369 15.8703 6.4924 15.8689ZM4.31447 11.5939L3.8759 11.6145C3.68102 11.6411 3.50133 11.7341 3.36701 11.8778C3.29797 11.9594 3.24875 12.0561 3.22375 12.16C3.19874 12.2639 3.1985 12.3722 3.22287 12.4763V12.4795C3.23566 12.7309 3.28837 12.9786 3.37931 13.2134C3.63777 13.7823 4.0581 14.2626 4.58781 14.5941C5.11752 14.9257 5.73322 15.0939 6.35793 15.0777H6.4757C7.10034 15.0941 7.71621 14.9261 8.24582 14.5945C8.77543 14.2629 9.19537 13.7824 9.45343 13.2134C9.54448 12.9786 9.59764 12.7309 9.61032 12.4795V12.4759C9.63471 12.3718 9.63417 12.2634 9.609 12.1596C9.58383 12.0557 9.53462 11.9591 9.4653 11.8778C9.33123 11.7337 9.15142 11.6407 8.95641 11.6145L8.5174 11.5939H4.31447ZM6.38429 8.94111C6.04979 8.94197 5.71857 8.87634 5.40959 8.74819C5.1006 8.62004 4.82 8.43183 4.58429 8.19448C4.34692 7.95879 4.15874 7.67839 4.03058 7.36941C3.90243 7.06042 3.83722 6.72899 3.8381 6.39448C3.8374 6.06 3.90288 5.72874 4.03102 5.41977C4.15917 5.11081 4.34706 4.83028 4.58429 4.59448C4.82002 4.35719 5.1006 4.16906 5.40959 4.04099C5.71857 3.91291 6.04982 3.84746 6.38429 3.8484C6.71875 3.84761 7.05004 3.91314 7.359 4.04121C7.66797 4.16927 7.94848 4.35731 8.18429 4.59448C8.42132 4.8304 8.60951 5.11094 8.73757 5.41988C8.86562 5.72882 8.9311 6.06005 8.93049 6.39448C8.93125 6.72893 8.86563 7.06023 8.73757 7.36919C8.6095 7.67815 8.42144 7.95865 8.18429 8.19448C7.94852 8.43212 7.66813 8.62072 7.359 8.74918C7.04987 8.87764 6.71817 8.94344 6.38342 8.94287L6.38429 8.94111ZM6.38429 4.63052C5.91704 4.63111 5.46925 4.81709 5.13888 5.14753C4.80852 5.47798 4.62256 5.9259 4.62209 6.39316C4.62256 6.86042 4.80852 7.30846 5.13888 7.6389C5.46925 7.96935 5.91704 8.15521 6.38429 8.15581C6.85167 8.15533 7.30005 7.96946 7.63058 7.63901C7.96111 7.30857 8.14722 6.86054 8.14782 6.39316C8.14675 5.92594 7.96038 5.47827 7.6297 5.14819C7.29903 4.81811 6.85064 4.63262 6.38342 4.63238L6.38429 4.63052Z" fill="#2F2F3D" />
    <path d="M10.464 6.99751H15.4554C15.5461 7.01008 15.6283 7.05747 15.6847 7.12962C15.7411 7.20177 15.7671 7.29303 15.7574 7.38406C15.7671 7.47509 15.7411 7.56635 15.6847 7.6385C15.6283 7.71065 15.5461 7.75803 15.4554 7.77061H10.464C10.3733 7.75803 10.2911 7.71065 10.2347 7.6385C10.1784 7.56635 10.1523 7.47509 10.1621 7.38406C10.1523 7.29303 10.1784 7.20177 10.2347 7.12962C10.2911 7.05747 10.3733 7.01008 10.464 6.99751Z" fill="#2F2F3D" />
    <path d="M11.5301 9.40901H15.3821C15.4728 9.42158 15.555 9.46896 15.6114 9.54112C15.6678 9.61327 15.6938 9.70452 15.6841 9.79556C15.6938 9.88659 15.6678 9.97785 15.6114 10.05C15.555 10.1222 15.4728 10.1695 15.3821 10.1821H11.5301C11.4394 10.1695 11.3572 10.1222 11.3008 10.05C11.2445 9.97785 11.2184 9.88659 11.2282 9.79556C11.2184 9.70452 11.2445 9.61327 11.3008 9.54112C11.3572 9.46896 11.4394 9.42158 11.5301 9.40901Z" fill="#2F2F3D" />
    <path d="M12.9039 12.109H15.4059C15.4965 12.1216 15.5788 12.169 15.6351 12.2411C15.6915 12.3133 15.7176 12.4045 15.7078 12.4956C15.7176 12.5866 15.6915 12.6778 15.6351 12.75C15.5788 12.8222 15.4965 12.8695 15.4059 12.8821H12.9039C12.8132 12.8695 12.7309 12.8222 12.6746 12.75C12.6182 12.6778 12.5922 12.5866 12.6019 12.4956C12.5922 12.4045 12.6182 12.3133 12.6746 12.2411C12.7309 12.169 12.8132 12.1216 12.9039 12.109Z" fill="#2F2F3D" />
</svg>
    