<svg width="24" height="24" viewBox="0 0 24 24" fill="none" xmlns="http://www.w3.org/2000/svg">
    <g clip-path="url(#clip0_30526_18189)">
        <path d="M13.4996 19.8226C12.5029 19.3878 11.5572 18.8445 10.6795 18.2025C9.74683 17.5156 8.86452 16.7629 8.03934 15.95C7.22422 15.1261 6.47036 14.2437 5.78381 13.3099C5.15194 12.4383 4.61527 11.5015 4.18294 10.5155C3.79703 9.63068 3.58887 8.67857 3.57032 7.71339C3.56954 7.11994 3.67984 6.53158 3.89553 5.97871C4.12642 5.39867 4.48537 4.8783 4.94558 4.45644C5.20781 4.17901 5.52297 3.95691 5.87243 3.80325C6.22189 3.6496 6.59857 3.5675 6.98028 3.5618C7.28603 3.56222 7.58802 3.62917 7.86531 3.75801C8.17083 3.89573 8.43182 4.11601 8.61893 4.39404L10.4413 6.96037C10.5929 7.16683 10.7194 7.39061 10.8181 7.627C10.9164 7.84716 10.9693 8.08494 10.9735 8.32604C10.9696 8.63109 10.8834 8.92942 10.7239 9.18948C10.5778 9.43383 10.4004 9.65812 10.1964 9.85671L9.66422 10.4135C9.66984 10.4328 9.67766 10.4513 9.68759 10.4687C9.87487 10.7776 10.0893 11.0692 10.3284 11.34C10.7142 11.7792 11.0773 12.18 11.4349 12.5484C11.9011 13.0039 12.2828 13.3651 12.6452 13.6633C12.9236 13.9128 13.2284 14.1311 13.5542 14.3143L13.5722 14.3221L13.5956 14.2987L14.1146 13.7881C14.3208 13.5728 14.559 13.3906 14.8209 13.2481C15.0494 13.1105 15.3082 13.0312 15.5745 13.0171C15.8413 13.0019 16.1079 13.0513 16.3516 13.1611C16.5838 13.2609 16.8049 13.3846 17.0116 13.5301L19.6157 15.3824C19.8931 15.5639 20.111 15.8231 20.2422 16.1276C20.3538 16.3965 20.4128 16.6843 20.4161 16.9755C20.4141 17.358 20.3289 17.7355 20.1665 18.0819C20.0067 18.427 19.7937 18.7449 19.5353 19.024C19.1252 19.4937 18.6117 19.862 18.0352 20.0998C17.4761 20.3001 16.8854 20.3972 16.2916 20.3866C16.2226 20.3866 16.1427 20.3866 16.0677 20.3866C15.8851 20.3849 15.7027 20.3719 15.5217 20.3476C14.8287 20.2562 14.1495 20.0799 13.4996 19.8226ZM6.97727 4.74444C6.74642 4.75197 6.51943 4.8059 6.30986 4.903C6.10028 5.00011 5.91243 5.13842 5.75744 5.30968C5.422 5.61638 5.1597 5.9945 4.98997 6.41613C4.82438 6.8305 4.74124 7.27319 4.74518 7.7194C4.76293 8.52588 4.93909 9.32099 5.26361 10.0595C5.65836 10.9656 6.15433 11.8241 6.74208 12.6186C7.38725 13.5022 8.09727 14.3365 8.86621 15.1148C9.64766 15.887 10.4849 16.6006 11.3713 17.2497C12.1708 17.8427 13.0367 18.3405 13.9515 18.733C14.5084 19.0193 15.117 19.1912 15.7414 19.2384C16.3659 19.2856 16.9934 19.2071 17.587 19.0078C18.0007 18.835 18.3684 18.5679 18.6605 18.2277C18.8422 18.0326 18.9917 17.8098 19.1033 17.5677C19.1924 17.3785 19.2404 17.1726 19.2443 16.9635C19.243 16.8278 19.2126 16.6939 19.1549 16.571C19.1071 16.4733 19.0318 16.3915 18.9382 16.3358L16.3294 14.4829C16.1959 14.3873 16.0522 14.3068 15.901 14.2429C15.8249 14.1894 15.7331 14.1626 15.6401 14.1668C15.5472 14.1711 15.4582 14.2061 15.3873 14.2663C15.2185 14.3589 15.066 14.4782 14.9355 14.6197L14.3355 15.2084C14.1851 15.348 13.9993 15.4438 13.7983 15.4853C13.5973 15.5268 13.3888 15.5123 13.1954 15.4436L12.9836 15.3494C12.5873 15.1232 12.215 14.8574 11.8723 14.5561C11.4955 14.2345 11.0857 13.8577 10.5913 13.3711C10.2049 12.9781 9.82383 12.5622 9.42361 12.0996C9.11843 11.7601 8.85012 11.3892 8.62318 10.9932L8.52899 10.7579C8.48831 10.6308 8.46609 10.4984 8.46299 10.3649C8.46206 10.2296 8.48773 10.0955 8.53858 9.97011C8.58994 9.84402 8.66695 9.72999 8.76477 9.63529L9.35337 9.02327C9.48792 8.89116 9.6066 8.74375 9.70685 8.58405C9.75831 8.50416 9.78751 8.41198 9.79145 8.31703C9.78577 8.23064 9.76542 8.14583 9.73139 8.06622C9.66122 7.91917 9.57599 7.77982 9.47701 7.6504L7.66073 5.07687C7.58633 4.97149 7.48553 4.88748 7.36848 4.83325C7.24557 4.77707 7.1124 4.74683 6.97727 4.74444Z" fill="#6E7191" />
        <path d="M17.1082 10.2383C16.9526 10.2368 16.8038 10.1746 16.6935 10.0649C16.5855 9.95324 16.5234 9.80504 16.5196 9.6497C16.4153 9.12536 16.1521 8.64582 15.7659 8.27623C15.4197 7.8399 14.9154 7.55784 14.3624 7.49139C14.2066 7.4906 14.0575 7.42803 13.9478 7.31739C13.8926 7.26331 13.8487 7.19875 13.8188 7.1275C13.7888 7.05625 13.7734 6.97975 13.7734 6.90247C13.7734 6.82519 13.7888 6.74867 13.8188 6.67742C13.8487 6.60618 13.8926 6.54161 13.9478 6.48753C14.0575 6.37689 14.2066 6.31432 14.3624 6.31354C14.7978 6.34233 15.2227 6.45947 15.6113 6.65785C15.9999 6.85622 16.3441 7.13168 16.6228 7.4674C17.2216 8.04897 17.6009 8.81978 17.6962 9.6491C17.6964 9.72643 17.6812 9.80302 17.6513 9.87435C17.6214 9.94567 17.5775 10.0103 17.5222 10.0643C17.4126 10.1749 17.2638 10.2374 17.1082 10.2383Z" fill="#6E7191" />
        <path d="M19.8581 10.2371C19.7024 10.2361 19.5533 10.1735 19.4435 10.0631C19.3882 10.0092 19.3444 9.94465 19.3145 9.87344C19.2846 9.80222 19.2693 9.72573 19.2695 9.6485C19.2674 8.34781 18.7497 7.10102 17.8299 6.18141C16.91 5.26179 15.6631 4.7444 14.3624 4.74266C14.2066 4.74187 14.0575 4.67928 13.9478 4.56864C13.8926 4.51456 13.8487 4.45002 13.8188 4.37877C13.7888 4.30752 13.7734 4.23101 13.7734 4.15372C13.7734 4.07644 13.7888 3.99994 13.8188 3.92869C13.8487 3.85745 13.8926 3.79288 13.9478 3.7388C14.0021 3.68399 14.0667 3.64042 14.1378 3.61057C14.209 3.58071 14.2853 3.56514 14.3624 3.56479C15.9751 3.56733 17.521 4.209 18.6614 5.34922C19.8019 6.48944 20.4439 8.03522 20.4467 9.64789C20.4428 9.80303 20.3807 9.95103 20.2728 10.0625C20.1624 10.1723 20.0137 10.2349 19.8581 10.2371Z" fill="#6E7191" />
    </g>
    <defs>
        <clipPath id="clip0_30526_18189">
            <rect width="24" height="24" fill="white" />
        </clipPath>
    </defs>
</svg>