<svg width="24" height="24" viewBox="0 0 24 24" fill="none" xmlns="http://www.w3.org/2000/svg">
    <path d="M11.4706 16.5313C11.4007 16.4619 11.3453 16.3792 11.3078 16.2882C11.2702 16.1971 11.2511 16.0995 11.2517 16.001V12.7571L8.00632 12.7901C7.90774 12.7925 7.80971 12.7748 7.71822 12.738C7.62672 12.7013 7.54368 12.6463 7.47416 12.5763C7.40356 12.5076 7.34735 12.4256 7.30882 12.3349C7.27028 12.2442 7.25019 12.1468 7.24972 12.0483C7.249 11.8499 7.32642 11.6592 7.46525 11.5174C7.60407 11.3757 7.79313 11.2943 7.99151 11.2909L11.2517 11.2577V7.99701C11.2556 7.8009 11.3362 7.61413 11.4763 7.47683C11.6164 7.33952 11.8047 7.26261 12.0009 7.26261C12.197 7.26261 12.3854 7.33952 12.5255 7.47683C12.6655 7.61413 12.7462 7.8009 12.7501 7.99701L12.7496 11.2425L15.9963 11.2094C16.1951 11.2073 16.3866 11.2843 16.5287 11.4234C16.6707 11.5626 16.7517 11.7524 16.7538 11.9512C16.7559 12.15 16.6789 12.3415 16.5398 12.4836C16.4006 12.6256 16.2108 12.7066 16.012 12.7086L12.7494 12.7418L12.7488 16.0031C12.7475 16.2015 12.6681 16.3914 12.5278 16.5317C12.3875 16.672 12.1976 16.7514 11.9992 16.7528C11.9008 16.7528 11.8034 16.7332 11.7126 16.6952C11.6219 16.6571 11.5396 16.6014 11.4706 16.5313Z" fill="#2F2F3D" />
    <path fill-rule="evenodd" clip-rule="evenodd" d="M8.99921 22.7499H14.9991C20.4289 22.7499 22.7491 20.4297 22.7491 14.9999V9.00001C22.7491 3.57014 20.4289 1.25 14.9991 1.25H8.99921C3.56935 1.25 1.24921 3.57014 1.24921 9.00001V14.9999C1.24921 20.4297 3.56935 22.7499 8.99921 22.7499ZM2.74917 9.00001C2.74917 4.38972 4.38893 2.74996 8.99921 2.74996H14.9991C19.6087 2.74996 21.2491 4.38972 21.2491 9.00001V14.9999C21.2491 19.6101 19.6093 21.2499 14.9991 21.2499H8.99921C4.38893 21.2499 2.74917 19.6101 2.74917 14.9999V9.00001Z" fill="#2F2F3D" />
</svg>
    