<svg width="14" height="14" viewBox="0 0 14 14" fill="none" xmlns="http://www.w3.org/2000/svg">
    <g clip-path="url(#clip0_1199_9186)">
        <path d="M6.69116 9.6426C6.65039 9.60211 6.6181 9.55389 6.59618 9.50078C6.57425 9.44766 6.56313 9.39071 6.56345 9.33325V7.44099L4.67034 7.46025C4.61284 7.46165 4.55565 7.45132 4.50228 7.42987C4.44891 7.40843 4.40047 7.37633 4.35992 7.33554C4.31873 7.29547 4.28594 7.24759 4.26346 7.19471C4.24098 7.14183 4.22927 7.085 4.22899 7.02754C4.22857 6.9118 4.27373 6.80055 4.35471 6.71785C4.4357 6.63516 4.54598 6.58769 4.6617 6.58569L6.56345 6.56634V4.66427C6.56574 4.54987 6.61279 4.44093 6.69451 4.36083C6.77622 4.28073 6.88608 4.23587 7.00051 4.23587C7.11493 4.23587 7.22479 4.28073 7.30651 4.36083C7.38822 4.44093 7.43527 4.54987 7.43756 4.66427L7.43726 6.55745L9.33118 6.53818C9.44716 6.53696 9.55886 6.58187 9.64172 6.66302C9.72458 6.74417 9.77181 6.85491 9.77302 6.97089C9.77423 7.08686 9.72933 7.19856 9.64818 7.28142C9.56703 7.36428 9.45629 7.41152 9.34031 7.41273L7.43712 7.43209L7.43682 9.33449C7.43603 9.45023 7.38971 9.561 7.30787 9.64284C7.22603 9.72468 7.11525 9.77101 6.99952 9.77179C6.94212 9.77179 6.88529 9.76037 6.83235 9.73819C6.77941 9.71601 6.73141 9.68352 6.69116 9.6426Z" fill="#2F2F3D" />
        <path fill-rule="evenodd" clip-rule="evenodd" d="M5.24953 13.2701H8.74944C11.9169 13.2701 13.2703 11.9167 13.2703 8.74927V5.24935C13.2703 2.08193 11.9169 0.728516 8.74944 0.728516H5.24953C2.08211 0.728516 0.728691 2.08193 0.728691 5.24935V8.74927C0.728691 11.9167 2.08211 13.2701 5.24953 13.2701ZM1.60367 5.24935C1.60367 2.56002 2.5602 1.60349 5.24953 1.60349H8.74944C11.4384 1.60349 12.3953 2.56002 12.3953 5.24935V8.74927C12.3953 11.4386 11.4388 12.3951 8.74944 12.3951H5.24953C2.5602 12.3951 1.60367 11.4386 1.60367 8.74927V5.24935Z" fill="#2F2F3D" />
    </g>
    <defs>
        <clipPath id="clip0_1199_9186">
            <rect width="14" height="14" fill="white" />
        </clipPath>
    </defs>
</svg>