<svg width="20" height="20" viewBox="0 0 20 20" fill="none" xmlns="http://www.w3.org/2000/svg">
    <g clip-path="url(#clip0_516_9253)">
        <path d="M9.99935 20C7.33268 20 4.83268 19 2.91602 17.0833C-1.00065 13.1667 -1.00065 6.83333 2.91602 2.91667C4.83268 1 7.33268 0 9.99935 0C12.666 0 15.166 1 17.0827 2.91667C20.9993 6.83333 20.9993 13.1667 17.0827 17.0833C15.166 19 12.666 20 9.99935 20ZM9.99935 1.66667C7.74935 1.66667 5.66602 2.5 4.08268 4.08333C0.832682 7.33333 0.832682 12.6667 4.08268 15.9167C5.66602 17.5 7.74935 18.3333 9.99935 18.3333C12.2493 18.3333 14.3327 17.5 15.916 15.9167C19.166 12.6667 19.166 7.41667 15.916 4.16667C14.3327 2.5 12.2493 1.66667 9.99935 1.66667Z" fill="#9496B3" />
        <path d="M9.99935 15C9.49935 15 9.16602 14.6667 9.16602 14.1667V5.83333C9.16602 5.33333 9.49935 5 9.99935 5C10.4993 5 10.8327 5.33333 10.8327 5.83333V14.1667C10.8327 14.6667 10.4993 15 9.99935 15Z" fill="#9496B3" />
        <path d="M14.1667 10.8332H5.83333C5.33333 10.8332 5 10.4998 5 9.99984C5 9.49984 5.33333 9.1665 5.83333 9.1665H14.1667C14.6667 9.1665 15 9.49984 15 9.99984C15 10.4998 14.6667 10.8332 14.1667 10.8332Z" fill="#9496B3" />
    </g>
    <defs>
        <clipPath id="clip0_516_9253">
            <rect width="20" height="20" fill="white" />
        </clipPath>
    </defs>
</svg>
    