<svg width="23" height="23" viewBox="0 0 40 40" fill="none" xmlns="http://www.w3.org/2000/svg">
    <path d="M12.4572 20.9607C12.3395 20.8462 12.2459 20.7094 12.1816 20.5583C12.1174 20.4072 12.0839 20.2448 12.0831 20.0807C12.0819 19.75 12.211 19.4321 12.4424 19.1958C12.6737 18.9596 12.9888 18.8239 13.3195 18.8182L26.6612 18.6825C26.9926 18.679 27.3117 18.8073 27.5485 19.0392C27.7852 19.271 27.9202 19.5874 27.9236 19.9188C27.9271 20.2502 27.7988 20.5693 27.5669 20.8061C27.3351 21.0428 27.0186 21.1778 26.6873 21.1812L13.3442 21.317C13.1799 21.321 13.0165 21.2915 12.864 21.2302C12.7115 21.169 12.5731 21.0772 12.4572 20.9607Z" fill="#6E7191" />
    <path d="M19.1181 27.5525C19.0016 27.4368 18.9093 27.299 18.8467 27.1472C18.7841 26.9955 18.7523 26.8328 18.7532 26.6686L18.7532 13.3283C18.7597 13.0014 18.8942 12.6902 19.1276 12.4613C19.3611 12.2325 19.675 12.1043 20.002 12.1043C20.3289 12.1043 20.6428 12.2325 20.8763 12.4613C21.1097 12.6902 21.2442 13.0014 21.2507 13.3283L21.2486 26.6721C21.2463 27.0028 21.114 27.3193 20.8802 27.5531C20.6463 27.787 20.3298 27.9193 19.9991 27.9216C19.8351 27.9216 19.6728 27.8889 19.5215 27.8256C19.3702 27.7622 19.2331 27.6694 19.1181 27.5525Z" fill="#6E7191" />
    <path d="M24.999 37.917H14.999C5.94903 37.917 2.08203 34.05 2.08203 25V15C2.08203 5.95001 5.94903 2.08301 14.999 2.08301H24.999C34.049 2.08301 37.916 5.95001 37.916 15V25C37.916 34.05 34.049 37.917 24.999 37.917ZM14.999 4.58301C7.31503 4.58301 4.58203 7.31601 4.58203 15V25C4.58203 32.684 7.31503 35.417 14.999 35.417H24.999C32.683 35.417 35.416 32.684 35.416 25V15C35.416 7.31601 32.682 4.58301 24.999 4.58301H14.999Z" fill="#6E7191" />
</svg>