<svg width="16" height="17" viewBox="0 0 16 17" fill="none" xmlns="http://www.w3.org/2000/svg">
    <path d="M7.64725 11.5205C7.60067 11.4743 7.56377 11.4192 7.53871 11.3584C7.51365 11.2977 7.50094 11.2327 7.50131 11.167V9.0044L5.33775 9.02642C5.27203 9.02802 5.20668 9.01621 5.14568 8.9917C5.08468 8.9672 5.02932 8.93051 4.98298 8.88389C4.93591 8.83809 4.89844 8.78338 4.87275 8.72294C4.84706 8.66251 4.83366 8.59756 4.83335 8.53189C4.83287 8.39961 4.88448 8.27247 4.97703 8.17797C5.06958 8.08346 5.19562 8.0292 5.32788 8.02693L7.50131 8.00481V5.83102C7.50392 5.70027 7.5577 5.57576 7.65108 5.48422C7.74447 5.39268 7.87003 5.34141 8.0008 5.34141C8.13157 5.34141 8.25712 5.39268 8.35051 5.48422C8.4439 5.57576 8.49767 5.70027 8.50029 5.83102L8.49994 7.99465L10.6644 7.97262C10.797 7.97124 10.9246 8.02256 11.0193 8.1153C11.114 8.20804 11.168 8.3346 11.1694 8.46714C11.1708 8.59968 11.1194 8.72735 11.0267 8.82204C10.934 8.91674 10.8074 8.97072 10.6749 8.97211L8.49978 8.99424L8.49944 11.1684C8.49854 11.3007 8.4456 11.4273 8.35207 11.5208C8.25854 11.6143 8.13194 11.6673 7.99967 11.6682C7.93407 11.6682 7.86912 11.6551 7.80862 11.6298C7.74812 11.6044 7.69326 11.5673 7.64725 11.5205Z" fill="#2F2F3D" />
    <path fill-rule="evenodd" clip-rule="evenodd" d="M5.99968 15.6662H9.99958C13.6195 15.6662 15.1663 14.1195 15.1663 10.4996V6.49968C15.1663 2.87977 13.6195 1.33301 9.99958 1.33301H5.99968C2.37977 1.33301 0.833008 2.87977 0.833008 6.49968V10.4996C0.833008 14.1195 2.37977 15.6662 5.99968 15.6662ZM1.83298 6.49968C1.83298 3.42616 2.92616 2.33298 5.99968 2.33298H9.99958C13.0727 2.33298 14.1663 3.42616 14.1663 6.49968V10.4996C14.1663 13.5731 13.0731 14.6663 9.99958 14.6663H5.99968C2.92616 14.6663 1.83298 13.5731 1.83298 10.4996V6.49968Z" fill="#2F2F3D" />
</svg>
    