<svg width="19" height="19" viewBox="0 0 19 19" fill="none" xmlns="http://www.w3.org/2000/svg">
<path d="M5.91737 9.95626C5.86147 9.90188 5.81697 9.83691 5.78646 9.76514C5.75596 9.69337 5.74005 9.61624 5.73968 9.53826C5.73911 9.38119 5.8004 9.2302 5.91031 9.11798C6.02021 9.00576 6.16988 8.94132 6.32693 8.93862L12.6641 8.87413C12.8215 8.87248 12.9731 8.93343 13.0855 9.04356C13.198 9.15369 13.2621 9.30399 13.2637 9.46138C13.2654 9.61877 13.2044 9.77037 13.0943 9.88282C12.9842 9.99528 12.8339 10.0594 12.6765 10.061L6.33865 10.1255C6.26062 10.1274 6.18301 10.1134 6.11057 10.0843C6.03814 10.0552 5.9724 10.0116 5.91737 9.95626Z" fill="#6E7191"/>
<path d="M9.08053 13.0869C9.02521 13.0319 8.98139 12.9665 8.95163 12.8944C8.92188 12.8223 8.90678 12.745 8.90722 12.667L8.90722 6.33056C8.91033 6.1753 8.97418 6.02745 9.08508 5.91875C9.19598 5.81004 9.34508 5.74915 9.50037 5.74915C9.65566 5.74915 9.80475 5.81004 9.91565 5.91875C10.0265 6.02745 10.0904 6.1753 10.0935 6.33056L10.0925 12.6687C10.0914 12.8258 10.0286 12.9761 9.9175 13.0872C9.80643 13.1983 9.65609 13.2611 9.49902 13.2622C9.42112 13.2622 9.344 13.2467 9.27216 13.2166C9.20031 13.1865 9.13517 13.1424 9.08053 13.0869Z" fill="#6E7191"/>
<path d="M11.8747 18.01H7.1248C2.82616 18.01 0.98938 16.1732 0.98938 11.8746V7.12468C0.98938 2.82604 2.82616 0.989258 7.1248 0.989258H11.8747C16.1733 0.989258 18.0101 2.82604 18.0101 7.12468V11.8746C18.0101 16.1732 16.1733 18.01 11.8747 18.01ZM7.1248 2.17673C3.47499 2.17673 2.17685 3.47487 2.17685 7.12468V11.8746C2.17685 15.5244 3.47499 16.8225 7.1248 16.8225H11.8747C15.5245 16.8225 16.8226 15.5244 16.8226 11.8746V7.12468C16.8226 3.47487 15.524 2.17673 11.8747 2.17673H7.1248Z" fill="#6E7191"/>
</svg>
