<svg width="16" height="17" viewBox="0 0 16 17" fill="none" xmlns="http://www.w3.org/2000/svg">
    <g clip-path="url(#clip0_2247_95297)">
        <path fill-rule="evenodd" clip-rule="evenodd" d="M2.91487 13.9042C4.29484 15.2842 6.09479 16.0041 8.01475 16.0041C9.9347 16.0041 11.7347 15.2842 13.1146 13.9042C15.9345 11.0843 15.9345 6.52437 13.1146 3.70444C11.7347 2.32447 9.9347 1.60449 8.01475 1.60449C6.09479 1.60449 4.29484 2.32447 2.91487 3.70444C0.0949444 6.52437 0.0949444 11.0843 2.91487 13.9042ZM8.01459 12.4042C7.6546 12.4042 7.41461 12.1642 7.41461 11.8042V9.4043H5.01467C4.65467 9.4043 4.41468 9.1643 4.41468 8.80431C4.41468 8.44432 4.65467 8.20433 5.01467 8.20433H7.41461V5.80439C7.41461 5.4444 7.6546 5.2044 8.01459 5.2044C8.37458 5.2044 8.61458 5.4444 8.61458 5.80439V8.20433H11.0145C11.3745 8.20433 11.6145 8.44432 11.6145 8.80431C11.6145 9.1643 11.3745 9.4043 11.0145 9.4043H8.61458V11.8042C8.61458 12.1642 8.37458 12.4042 8.01459 12.4042Z" fill="#ffff" />
    </g>
    <defs>
        <clipPath id="clip0_2247_95297">
            <rect width="16" height="16" fill="white" transform="translate(0 0.804688)" />
        </clipPath>
    </defs>
</svg>