<svg width="16" height="16" viewBox="0 0 24 24" fill="none" xmlns="http://www.w3.org/2000/svg">
    <g clip-path="url(#clip0_2249_94938)">
        <path d="M14.9129 22.6196H8.91306C3.4802 22.6196 1.16248 20.3019 1.16248 14.869V8.86914C1.16248 3.43688 3.4802 1.11914 8.91306 1.11914H14.9129C20.3458 1.11914 22.6635 3.43688 22.6635 8.86914V14.869C22.6635 20.3019 20.3458 22.6196 14.9129 22.6196ZM7.91055 12.6202H11.1636V15.8709C11.163 15.9697 11.1818 16.0678 11.2193 16.1592C11.2567 16.2505 11.3123 16.3331 11.3821 16.4029C11.4516 16.4732 11.534 16.5289 11.6253 16.5664C11.7166 16.6039 11.8148 16.6226 11.9136 16.6215C12.1115 16.6185 12.3006 16.5384 12.4403 16.3983C12.5801 16.2581 12.6595 16.0689 12.6618 15.8709V12.6202H15.9148C16.1138 12.6201 16.3044 12.5411 16.4451 12.4005C16.5858 12.2599 16.6651 12.0692 16.6654 11.8702C16.6651 11.6713 16.5858 11.4807 16.4451 11.34C16.3044 11.1993 16.1138 11.12 15.9148 11.1197H12.6618V7.86663C12.6592 7.66902 12.5795 7.48021 12.4397 7.34047C12.3 7.20073 12.1112 7.12105 11.9136 7.1184C11.715 7.1184 11.5245 7.19728 11.3839 7.33754C11.2433 7.4778 11.1641 7.66803 11.1636 7.86663V11.1197H7.91055C7.71158 11.12 7.52098 11.1993 7.38029 11.34C7.2396 11.4807 7.1603 11.6713 7.15998 11.8702C7.15969 11.9689 7.17905 12.067 7.2174 12.1579C7.25575 12.2489 7.31234 12.3307 7.38322 12.3993C7.51526 12.537 7.69642 12.6167 7.88711 12.6208L7.91055 12.6202Z" fill="#ffff" />
    </g>
    <defs>
        <clipPath id="clip0_2249_94938">
            <rect width="24" height="24" fill="white" />
        </clipPath>
    </defs>
</svg>
    