<svg width="18" height="19" viewBox="0 0 18 19" fill="none" xmlns="http://www.w3.org/2000/svg">
    <g clip-path="url(#clip0_898_61212)">
        <path d="M8.31142 12.6773C8.38196 12.7094 8.45896 12.7248 8.53643 12.7223C8.68262 12.7195 8.82377 12.6683 8.93785 12.5769L10.5921 11.0469C10.6483 10.9949 10.6937 10.9323 10.7256 10.8627C10.7576 10.7932 10.7755 10.718 10.7784 10.6416C10.7813 10.5651 10.7691 10.4887 10.7424 10.417C10.7158 10.3452 10.6753 10.2794 10.6232 10.2233C10.5177 10.1106 10.3723 10.0438 10.2182 10.0371C10.1417 10.034 10.0653 10.0461 9.99359 10.0728C9.92183 10.0994 9.85606 10.1401 9.80009 10.1923L8.54948 11.3416L8.17686 10.969C8.06625 10.8691 7.92144 10.8156 7.77247 10.8197C7.6235 10.8237 7.48178 10.8849 7.37672 10.9906C7.2714 11.0954 7.21027 11.2366 7.20591 11.3851C7.20156 11.5337 7.25432 11.6781 7.35332 11.7889L8.12241 12.55C8.17553 12.6055 8.24 12.6489 8.31142 12.6773Z" fill="#2F2F3D" />
        <path fill-rule="evenodd" clip-rule="evenodd" d="M16.5481 6.98093C16.6559 7.43283 16.6714 7.90155 16.5938 8.35917C16.5908 8.38137 16.589 8.40166 16.5874 8.42118C16.5854 8.44435 16.5835 8.46643 16.5797 8.48932L16.552 8.74988L16.0385 14.218C15.8819 15.744 15.2577 17.3061 11.9028 17.3061H6.09343C2.73987 17.3061 2.11569 15.7441 1.95593 14.2284L1.50179 9.36053L1.48338 9.34838L1.41492 8.53426L1.40741 8.47844C1.35031 8.16226 1.33593 7.84045 1.36404 7.52185C1.37771 7.3386 1.40607 7.15628 1.44908 6.97665C1.56167 6.50637 1.77209 6.06502 2.06663 5.68151C2.17519 5.56092 2.29556 5.45074 2.42801 5.35086C3.08566 4.84751 4.05422 4.5948 5.36425 4.5948H5.54712V4.56371C5.54712 3.25864 5.54712 1.64307 8.41382 1.64307H9.57287C12.4396 1.64307 12.4396 3.25864 12.4396 4.56371V4.5948H12.6224C13.6336 4.5948 14.4381 4.74528 15.056 5.0453C15.4055 5.21049 15.6958 5.4225 15.9296 5.68151C16.2247 6.06636 16.4355 6.50918 16.5481 6.98093ZM5.37132 11.1908C4.4283 10.9267 3.51866 10.5517 2.66074 10.0734L3.03958 14.1177C3.16289 15.2648 3.4752 16.217 6.09569 16.217H11.901C14.5143 16.217 14.8338 15.2648 14.9571 14.1119L15.3525 9.89831C14.4902 10.4119 13.5715 10.8203 12.6154 11.1147V11.1457C12.6183 11.6303 12.5275 12.1108 12.3481 12.5596C12.1688 13.0085 11.9044 13.4169 11.5701 13.7617C11.2358 14.1065 10.8382 14.3807 10.3998 14.5689C9.9615 14.7571 9.49108 14.8555 9.01543 14.8584C8.53978 14.8614 8.06821 14.7689 7.62766 14.5862C7.18711 14.4034 6.78619 14.1341 6.4478 13.7936C6.10942 13.453 5.84018 13.0479 5.65548 12.6013C5.47078 12.1547 5.37422 11.6754 5.37132 11.1908ZM6.6377 4.56371C6.6377 3.24334 6.6377 2.74615 8.41426 2.74615H9.57331C11.3499 2.74615 11.3499 3.24109 11.3499 4.56371V4.5948H6.63726L6.6377 4.56371ZM8.99555 13.6672C8.39319 13.6665 7.81172 13.4422 7.35988 13.0363C6.90803 12.6305 6.61676 12.0709 6.54053 11.4621C6.52528 11.3579 6.51761 11.2526 6.51756 11.1472C6.51795 10.4773 6.77891 9.83484 7.24329 9.36058C7.47394 9.12695 7.74698 8.94121 8.0472 8.81376C8.3478 8.68663 8.67008 8.62116 8.99555 8.62116C9.32103 8.62116 9.6433 8.68663 9.9439 8.81376C10.2447 8.94053 10.5181 9.12652 10.7482 9.36113C10.9783 9.59574 11.1607 9.87439 11.2849 10.181C11.4094 10.4873 11.4735 10.8156 11.4735 11.1472C11.4735 11.2403 11.466 11.3244 11.4581 11.4113V11.4175C11.3917 12.036 11.1037 12.6077 10.6494 13.0234C10.195 13.439 9.60619 13.6694 8.99555 13.6704V13.6672Z" fill="#2F2F3D" />
    </g>
    <defs>
        <clipPath id="clip0_898_61212">
            <rect width="18" height="18" fill="white" transform="translate(0 0.5)" />
        </clipPath>
    </defs>
</svg>
    