<svg width="18" height="18" viewBox="0 0 18 18" fill="none" xmlns="http://www.w3.org/2000/svg">
    <path d="M7.20298 7.7666C7.10938 7.76627 7.01749 7.79105 6.93666 7.83824C6.88682 7.86639 6.84223 7.90292 6.80481 7.94624L5.42047 9.33092C5.32208 9.43034 5.26709 9.5646 5.26709 9.70447C5.26709 9.84434 5.32208 9.9786 5.42047 10.078C5.51979 10.1762 5.65389 10.2313 5.79358 10.2313C5.93327 10.2313 6.06737 10.1762 6.1667 10.078L6.67473 9.57076V12.5234C6.67567 12.6632 6.73187 12.7971 6.83074 12.8959C6.92962 12.9948 7.06315 13.0508 7.20298 13.0517C7.34289 13.0508 7.47707 12.9948 7.57609 12.8959C7.67511 12.7971 7.73137 12.6633 7.73255 12.5234V9.57076L8.2397 10.078C8.33924 10.1762 8.47345 10.2312 8.61325 10.2312C8.75306 10.2312 8.88727 10.1762 8.98681 10.078C9.08476 9.97838 9.13931 9.8442 9.13931 9.70447C9.13931 9.56474 9.08476 9.43057 8.98681 9.33092L7.57653 7.92141C7.52791 7.87228 7.47027 7.83339 7.40646 7.80682C7.34265 7.78024 7.2743 7.76651 7.20518 7.7666H7.20298Z" fill="#F2F2F8" />
    <path d="M10.7263 16.5764H7.20301C3.37782 16.5764 1.74121 14.9415 1.74121 11.1149V6.88476C1.74121 3.05957 3.37647 1.42285 7.20301 1.42285H11.433C15.2581 1.42285 16.8948 3.05777 16.8948 6.88476V11.1149C16.8948 14.9401 15.2595 16.5764 11.433 16.5764H10.7263ZM7.20301 15.5193H11.433C14.6817 15.5193 15.8374 14.3636 15.8374 11.1149V6.88476C15.8374 3.63605 14.6817 2.4799 11.433 2.4799H7.20301C3.95429 2.4799 2.79859 3.6356 2.79859 6.88476V11.1149C2.79814 14.3632 3.95429 15.5193 7.20301 15.5193Z" fill="#F2F2F8" />
</svg>