<svg width="14" height="14" viewBox="0 0 14 14" fill="none" xmlns="http://www.w3.org/2000/svg">
    <path d="M2.18327 3.69569C2.17747 3.6413 2.18233 3.58604 2.19795 3.53362C2.21357 3.4812 2.23969 3.43257 2.27431 3.39023C2.30893 3.34789 2.35142 3.31291 2.3997 3.28719C2.44797 3.26147 2.50097 3.24562 2.55543 3.2405L3.68788 3.12946C4.02082 3.09531 4.33866 3.06698 4.64394 3.04376C4.64514 3.03904 4.64599 3.03425 4.64661 3.02942L4.76866 2.30246C4.85744 1.76908 4.97978 1.03027 6.27293 1.03027H7.72785C9.02545 1.03027 9.14948 1.79662 9.2328 2.30746L9.35485 3.02908C9.35485 3.03762 9.3575 3.04656 9.35818 3.05509C10.0019 3.1029 10.6836 3.16573 11.4414 3.24017C11.5509 3.25156 11.6514 3.30563 11.7211 3.3909C11.7909 3.47617 11.8241 3.58572 11.8135 3.69535C11.8049 3.79849 11.7577 3.89448 11.6815 3.96446C11.6052 4.03445 11.5055 4.07311 11.402 4.07284H11.358C8.42134 3.77849 6.67814 3.66745 3.77359 3.96179C2.62726 4.0738 2.61243 4.07451 2.59911 4.07451C2.49502 4.07453 2.3946 4.03591 2.31766 3.9658C2.24072 3.89568 2.19289 3.79934 2.18327 3.69569ZM8.51184 3.00007L8.41847 2.44651C8.34027 1.96367 8.32388 1.86895 7.73552 1.86895H6.28093C5.6919 1.86895 5.68063 1.94707 5.59799 2.44118L5.50129 2.9894C5.97935 2.9655 6.4368 2.95539 6.88651 2.95539C7.42843 2.95539 7.96173 2.97036 8.51184 3.00007Z" fill="#f37070" />
    <path d="M5.22012 12.9681C3.28261 12.9681 3.20541 11.8963 3.14395 11.0303L2.78247 5.43871C2.77598 5.32846 2.81306 5.21999 2.88584 5.13692C2.95862 5.05385 3.06114 5.00259 3.17129 4.99453C4.42038 4.7656 5.68639 4.64136 6.95616 4.62305C8.2564 4.64454 9.55307 4.76873 10.8337 4.99453C10.8884 4.99809 10.942 5.01264 10.9911 5.03688C11.0403 5.06113 11.0841 5.09469 11.1202 5.13592C11.1563 5.17715 11.184 5.22505 11.2015 5.27698C11.2191 5.32891 11.2262 5.38401 11.2226 5.43871L10.8617 11.0303C10.8003 11.8963 10.7231 12.9681 8.7849 12.9681H5.22012ZM3.97628 10.9746C4.03775 11.8184 4.05946 12.1354 5.22012 12.1354H8.7849C9.95137 12.1354 9.97308 11.8187 10.0287 10.9746L10.3609 5.82687C9.23971 5.59901 8.10008 5.47479 6.95616 5.45572C5.84259 5.47098 4.73314 5.59527 3.64381 5.82687L3.97628 10.9746Z" fill="#f37070" />
</svg>
    