<svg width="22" height="16" viewBox="0 0 22 16" fill="none" xmlns="http://www.w3.org/2000/svg">
    <path d="M12.3462 1.28651C13.5812 1.99934 14.264 3.43514 14.264 5.32271V7.10223L20.3046 7.10223C20.3399 7.09807 20.3755 7.09598 20.411 7.09599C20.5283 7.09572 20.6445 7.11859 20.7529 7.16329C20.8613 7.20799 20.9599 7.27364 21.0429 7.35649C21.1259 7.43933 21.1918 7.53775 21.2367 7.64608C21.2816 7.75442 21.3047 7.87055 21.3047 7.98783C21.3047 8.48182 20.9036 8.89405 20.4097 8.89405C20.3853 8.89405 20.3611 8.89308 20.3373 8.89115H14.264V10.6843C14.264 12.5719 13.5812 14.0077 12.3462 14.7205C11.1012 15.4335 9.5248 15.3029 7.88829 14.3591L3.23956 11.6783C1.60293 10.7345 0.699379 9.42928 0.699379 8.00362C0.699379 6.57797 1.60299 5.27255 3.23956 4.31868L7.88829 1.63798C8.82195 1.09578 9.74578 0.824666 10.5892 0.824666C11.2217 0.824608 11.814 0.975205 12.3462 1.28651ZM11.4086 13.1721C12.1279 12.7597 12.521 11.8296 12.521 10.5637L12.521 5.44274C12.521 4.17702 12.1279 3.24673 11.4086 2.83436C10.6893 2.422 9.69203 2.54673 8.58915 3.17967L4.1491 5.74011C3.04646 6.3729 2.4422 7.17851 2.4422 8.00318C2.4422 8.82786 3.04652 9.63344 4.1491 10.2664L8.58915 12.8268C9.26043 13.2201 9.89324 13.4118 10.4497 13.4118C10.7848 13.4168 11.1154 13.3342 11.4087 13.1721L11.4086 13.1721Z" fill="#C6C2DE" />
</svg>