<svg width="14" height="14" viewBox="0 0 40 40" fill="none" xmlns="http://www.w3.org/2000/svg">
<path d="M22.2411 8.81133C24.2995 9.99938 25.4373 12.3924 25.4373 15.5383L25.4373 18.5042L35.5051 18.5042C35.5639 18.4973 35.6232 18.4938 35.6825 18.4938C35.8779 18.4933 36.0715 18.5315 36.2523 18.606C36.433 18.6805 36.5972 18.7899 36.7356 18.928C36.874 19.066 36.9837 19.2301 37.0585 19.4106C37.1334 19.5912 37.1719 19.7847 37.1719 19.9802C37.1719 20.8035 36.5034 21.4906 35.6803 21.4906C35.6395 21.4906 35.5993 21.489 35.5595 21.4857L25.4373 21.4857L25.4373 24.4744C25.4373 27.6203 24.2995 30.0133 22.2411 31.2014C20.1661 32.3897 17.5387 32.1721 14.8112 30.599L7.06332 26.1309C4.33561 24.5581 2.82969 22.3826 2.82969 20.0065C2.82969 17.6304 4.3357 15.4547 7.06332 13.865L14.8112 9.39712C16.3673 8.49346 17.907 8.04159 19.3127 8.04159C20.3669 8.0415 21.3541 8.29249 22.2411 8.81133ZM20.6784 28.6206C21.8773 27.9334 22.5324 26.3831 22.5324 24.2733L22.5324 15.7384C22.5324 13.6288 21.8773 12.0784 20.6784 11.3911C19.4795 10.7038 17.8174 10.9117 15.9793 11.9666L8.57923 16.234C6.74149 17.2887 5.73439 18.6313 5.73439 20.0058C5.73439 21.3802 6.74159 22.7229 8.57923 23.7778L15.9793 28.0452C17.0981 28.7006 18.1528 29.0202 19.0802 29.0202C19.6387 29.0285 20.1897 28.8908 20.6785 28.6207L20.6784 28.6206Z" fill="#6E7191"/>
</svg>
