<svg width="18" height="19" viewBox="0 0 18 19" fill="none" xmlns="http://www.w3.org/2000/svg">
    <g clip-path="url(#clip0_499_9281)">
        <path d="M9.00766 17.3018C8.81031 17.3013 8.61303 17.2863 8.4179 17.2569C8.22424 17.2279 8.03327 17.1844 7.84615 17.1268C7.47617 17.0142 7.12787 16.8398 6.81605 16.6111L3.04589 14.2822C2.60225 13.9293 2.24442 13.4804 1.99952 12.9691C1.86835 12.7087 1.76371 12.4356 1.6875 12.1541C1.61447 11.8927 1.57609 11.6228 1.57324 11.3513V5.95384C1.57523 5.66847 1.6243 5.38546 1.71827 5.116C1.81325 4.83764 1.94663 4.57384 2.11466 4.33244C2.28154 4.08997 2.48162 3.87202 2.70882 3.68489C2.9291 3.50214 3.17786 3.35701 3.44536 3.2552L7.71563 1.89836C8.12899 1.75797 8.56325 1.68991 8.99975 1.69719C9.43609 1.68985 9.87067 1.75791 10.2839 1.89836L14.5541 3.2552C14.8217 3.35692 15.0705 3.50205 15.2907 3.68489C15.518 3.8719 15.7176 4.08987 15.8844 4.33244C16.0526 4.57382 16.1865 4.83762 16.2817 5.116C16.3753 5.38554 16.4238 5.66852 16.4258 5.95384V11.3441C16.4082 11.9094 16.2628 12.4634 16 12.9642C15.7548 13.4745 15.397 13.9225 14.9536 14.2745L11.1834 16.6034C10.8778 16.8361 10.533 17.0129 10.1656 17.1255C9.97929 17.1838 9.78883 17.2273 9.59566 17.2559C9.40101 17.2857 9.20458 17.3011 9.00766 17.3018ZM6.07204 9.09227C6.00172 9.09212 5.93202 9.10552 5.86681 9.13183C5.7993 9.15847 5.73829 9.19885 5.68707 9.25026C5.63581 9.30161 5.59524 9.36281 5.56841 9.43022C5.54192 9.49539 5.52838 9.5651 5.52842 9.63545C5.52838 9.7058 5.54192 9.7754 5.56841 9.84057C5.59524 9.90798 5.63581 9.96929 5.68707 10.0206L7.2331 11.5723C7.28346 11.6231 7.34328 11.6633 7.40933 11.6907C7.47538 11.7181 7.54655 11.7322 7.61807 11.732C7.68951 11.7321 7.75997 11.718 7.82594 11.6906C7.89191 11.6632 7.95186 11.623 8.00216 11.5723L12.3344 7.22071C12.3857 7.16943 12.4259 7.1081 12.4526 7.04064C12.4789 6.97543 12.4928 6.90572 12.4926 6.83541C12.4928 6.76509 12.4789 6.69549 12.4526 6.63029C12.4259 6.56279 12.3858 6.50145 12.3344 6.45022C12.283 6.39897 12.2221 6.35873 12.1547 6.33189C12.0894 6.30588 12.0197 6.29263 11.9494 6.29278C11.8792 6.29267 11.8095 6.30592 11.7442 6.33189C11.6769 6.35885 11.6155 6.39908 11.564 6.45022L7.61719 10.4176L6.45481 9.2507C6.40366 9.19919 6.34219 9.15881 6.27463 9.13227C6.21033 9.10597 6.1415 9.09229 6.07204 9.09183V9.09227Z" fill="#2F2F3D" />
    </g>
    <defs>
        <clipPath id="clip0_499_9281">
            <rect width="18" height="18" fill="white" transform="translate(0 0.5)" />
        </clipPath>
    </defs>
</svg>
    