<svg width="18" height="19" viewBox="0 0 18 19" fill="none" xmlns="http://www.w3.org/2000/svg">
    <g clip-path="url(#clip0_499_9117)">
        <path d="M7.41133 11.688C7.47729 11.7155 7.54805 11.7295 7.61949 11.7294C7.69101 11.7296 7.76185 11.7155 7.8279 11.6881C7.89395 11.6607 7.95389 11.6204 8.00425 11.5696L12.3365 7.21804C12.4377 7.11562 12.4944 6.97746 12.4944 6.8335C12.4944 6.68955 12.4377 6.55139 12.3365 6.44897C12.2341 6.34781 12.0959 6.29108 11.952 6.29108C11.808 6.29108 11.6699 6.34781 11.5674 6.44897L7.61994 10.4163L6.45801 9.24939C6.35559 9.14823 6.21743 9.0915 6.07348 9.0915C5.92952 9.0915 5.79136 9.14823 5.68894 9.24939C5.58778 9.35181 5.53106 9.48997 5.53106 9.63392C5.53106 9.77788 5.58778 9.91604 5.68894 10.0185L7.23518 11.5696C7.28549 11.6204 7.34536 11.6606 7.41133 11.688Z" fill="#2F2F3D" />
        <path fill-rule="evenodd" clip-rule="evenodd" d="M6.81587 16.612C7.45438 17.0689 8.22189 17.3104 9.00698 17.3015C9.78901 17.3136 10.5535 17.0691 11.1832 16.6053L14.9534 14.2765C15.3897 13.9176 15.746 13.4715 15.9996 12.9667C16.2532 12.462 16.3984 11.9098 16.4259 11.3456V5.95532C16.4037 5.37367 16.2158 4.81049 15.8842 4.33211C15.5526 3.85373 15.0911 3.4801 14.5543 3.25525L10.2837 1.89847C9.44863 1.63004 8.55048 1.63004 7.71545 1.89847L3.44484 3.25525C2.90796 3.4801 2.44654 3.85373 2.11494 4.33211C1.78335 4.81049 1.5954 5.37367 1.57324 5.95532V11.3528C1.60168 11.9167 1.7473 12.4685 2.00081 12.9731C2.25432 13.4776 2.61017 13.9238 3.04568 14.2832L6.81587 16.612ZM3.8278 4.27948L8.09841 2.92269C8.69199 2.74168 9.32561 2.73855 9.92095 2.91369L14.1916 4.27228C14.5181 4.42305 14.7981 4.65882 15.0023 4.95491C15.2064 5.251 15.3273 5.59652 15.3521 5.95532V11.3528C15.3253 11.7474 15.2203 12.1327 15.0432 12.4864C14.8661 12.84 14.6205 13.155 14.3207 13.4129L10.5505 15.7417C10.0943 16.0468 9.55781 16.2096 9.009 16.2096C8.46019 16.2096 7.92372 16.0468 7.46749 15.7417L3.69729 13.4129C3.39831 13.1543 3.15339 12.8392 2.97662 12.4856C2.79984 12.1321 2.69469 11.7471 2.66722 11.3528V5.96252C2.69009 5.60317 2.81013 5.25678 3.01454 4.96035C3.21895 4.66392 3.50005 4.42858 3.8278 4.27948Z" fill="#2F2F3D" />
    </g>
    <defs>
        <clipPath id="clip0_499_9117">
            <rect width="18" height="18" fill="white" transform="translate(0 0.5)" />
        </clipPath>
    </defs>
</svg>
    