<svg width="98" height="106" viewBox="0 0 98 106" fill="none" xmlns="http://www.w3.org/2000/svg">
    <path d="M94.7569 82.9957C84.3676 96.9565 67.7399 106 49 106C30.1876 106 13.5037 96.8863 3.12268 82.8333L32.8396 74.9003C35.6445 74.1511 37.6042 71.3853 37.5657 68.2274L37.3672 60H62.9831V60.007L62.6885 69.8308C62.6885 72.0715 64.059 74.0391 66.0378 74.6342L94.7569 82.9957Z" fill="#E5E5F1" />
    <path d="M50.026 16.6324C50.026 16.6324 69.8911 15.7396 69.763 34.9348C69.6349 54.13 62.5906 71.8566 50.026 72.5553C37.4614 73.2605 31.0638 52.9784 30.686 46.1272C30.3081 39.2759 24.1475 17.1435 50.026 16.6324Z" fill="#E5E5F1" />
    <path d="M50.026 13.7599C50.026 13.7599 69.8911 12.8671 69.763 32.0623C69.6349 51.2574 62.5906 68.984 50.026 69.6827C37.4614 70.3815 31.0638 50.1059 30.686 43.2546C30.3081 36.4033 24.1475 14.271 50.026 13.7599Z" fill="#E5E9F0" />
</svg>
    