<svg width="18" height="19" viewBox="0 0 18 19" fill="none" xmlns="http://www.w3.org/2000/svg">
    <path d="M11.4708 9.86398H6.15681C6.025 9.86304 5.89885 9.81026 5.80564 9.71705C5.71243 9.62384 5.65965 9.49769 5.65871 9.36588C5.65965 9.23407 5.71243 9.10792 5.80564 9.01471C5.89885 8.9215 6.025 8.86872 6.15681 8.86778H11.4708C11.6026 8.86872 11.7287 8.9215 11.8219 9.01471C11.9152 9.10792 11.9679 9.23407 11.9689 9.36588C11.9679 9.49769 11.9152 9.62384 11.8219 9.71705C11.7287 9.81026 11.6026 9.86304 11.4708 9.86398Z" fill="#2F2F3D" />
    <path d="M5.49242 12.7733H10.8064C10.9382 12.7724 11.0644 12.7196 11.1576 12.6264C11.2508 12.5332 11.3035 12.407 11.3045 12.2752C11.3035 12.1434 11.2508 12.0172 11.1576 11.924C11.0644 11.8308 10.9382 11.7781 10.8064 11.7771H5.49242C5.36061 11.7781 5.23446 11.8308 5.14125 11.924C5.04805 12.0172 4.99527 12.1434 4.99432 12.2752C4.99527 12.407 5.04805 12.5332 5.14125 12.6264C5.23446 12.7196 5.36061 12.7724 5.49242 12.7733Z" fill="#2F2F3D" />
    <path fill-rule="evenodd" clip-rule="evenodd" d="M11.8663 2.89226H8.49455L8.648 2.25465C8.66534 2.19043 8.66968 2.12339 8.66076 2.05747C8.65184 1.99155 8.62984 1.92808 8.59606 1.87078C8.56227 1.81348 8.51738 1.76351 8.46402 1.72379C8.41066 1.68408 8.3499 1.65542 8.28531 1.6395C8.22073 1.62359 8.15361 1.62074 8.0879 1.63111C8.0222 1.64149 7.95923 1.66489 7.90269 1.69993C7.84615 1.73498 7.79718 1.78096 7.75866 1.83519C7.72013 1.88942 7.69283 1.9508 7.67835 2.01572L7.46736 2.89226H5.99058C5.54814 2.90501 5.12224 3.06325 4.77881 3.3425C4.43539 3.62174 4.1936 4.00641 4.09087 4.43695L1.29215 14.2955C1.19665 14.6248 1.17471 14.9712 1.2279 15.3099C1.28108 15.6487 1.40808 15.9717 1.59992 16.2559C1.77184 16.5234 2.00753 16.7439 2.2858 16.8977C2.56407 17.0514 2.87619 17.1337 3.19411 17.1369H11.6607L11.6699 17.1377H14.8452C15.1193 17.1366 15.3899 17.0754 15.6378 16.9584C15.8858 16.8414 16.105 16.6714 16.2801 16.4605C16.6573 16.0181 16.8457 15.4453 16.8048 14.8654L16.1495 5.20276C16.1647 4.87378 16.1125 4.54366 15.9944 4.23312C15.863 3.84867 15.6167 3.51387 15.2887 3.27405C14.9608 3.03422 14.5671 2.90094 14.1609 2.89226H12.8873L13.0312 2.22806C13.0566 2.09934 13.0303 1.9658 12.958 1.85634C12.8856 1.74688 12.7731 1.67032 12.6447 1.64323C12.5163 1.61613 12.3825 1.64069 12.2721 1.71157C12.1617 1.78246 12.0836 1.89397 12.0548 2.02198L11.8663 2.89226ZM7.47227 5.50512C7.43207 5.50392 7.39204 5.4994 7.35258 5.49162C7.28869 5.47594 7.22853 5.44778 7.17557 5.40876C7.1226 5.36974 7.07788 5.32063 7.04396 5.26426C7.01005 5.20788 6.98761 5.14536 6.97795 5.08029C6.96829 5.01522 6.97159 4.94888 6.98767 4.88508L7.20428 3.9852H5.99733V3.9924C5.77636 3.99979 5.56389 4.07932 5.39238 4.21882C5.22086 4.35833 5.09972 4.55014 5.04747 4.76497L2.251 14.6235C2.20375 14.7901 2.19352 14.9651 2.22104 15.1361C2.24856 15.3071 2.31315 15.47 2.41029 15.6134C2.49559 15.746 2.61247 15.8554 2.75045 15.9317C2.88843 16.008 3.04318 16.0489 3.20086 16.0507H11.93C12.1611 16.0434 12.3827 15.957 12.5578 15.806C12.733 15.655 12.8511 15.4485 12.8924 15.221L15.131 5.35486C15.1419 5.30974 15.1501 5.26417 15.1556 5.2184C15.1536 5.17794 15.1563 5.13766 15.1636 5.09832C15.1658 4.95032 15.1398 4.80243 15.086 4.66283C15.0217 4.46919 14.8991 4.30015 14.735 4.17885C14.5709 4.05755 14.3734 3.98991 14.1694 3.9852H12.6506L12.4067 5.11092C12.3852 5.22353 12.325 5.32506 12.2365 5.39789C12.148 5.47072 12.0367 5.51024 11.9221 5.50958C11.8862 5.51179 11.8502 5.50737 11.8159 5.49653C11.6875 5.46708 11.5755 5.38893 11.5036 5.27856C11.4317 5.16819 11.4054 5.03421 11.4303 4.90484L11.6295 3.9852H8.23151L7.95732 5.12446C7.93146 5.23343 7.86941 5.3304 7.78131 5.39955C7.69321 5.46869 7.58426 5.50591 7.47227 5.50512ZM15.3922 8.70557L15.8153 14.9441C15.8369 15.2316 15.7437 15.5158 15.5561 15.7347C15.4689 15.8386 15.3602 15.9224 15.2374 15.9802C15.1147 16.038 14.9809 16.0684 14.8452 16.0695H13.6467C13.7467 15.8827 13.8176 15.6801 13.8553 15.4685L15.3922 8.70557Z" fill="#2F2F3D" />
</svg>
    