<svg width="18" height="19" viewBox="0 0 18 19" fill="none" xmlns="http://www.w3.org/2000/svg">
    <path d="M9.00051 17.8692C7.42096 17.8692 5.87688 17.4008 4.56354 16.5232C3.25019 15.6457 2.22656 14.3984 1.62209 12.9391C1.01762 11.4798 0.859464 9.87398 1.16762 8.32478C1.47577 6.77558 2.2364 5.35255 3.35331 4.23564C4.47022 3.11872 5.89325 2.3581 7.44245 2.04994C8.99165 1.74179 10.5974 1.89994 12.0568 2.50441C13.5161 3.10888 14.7634 4.13251 15.6409 5.44586C16.5185 6.75921 16.9869 8.30329 16.9869 9.88284C16.9851 12.0004 16.1431 14.0307 14.6457 15.5281C13.1484 17.0254 11.1181 17.8674 9.00051 17.8692ZM9.00051 3.01117C7.64132 3.01117 6.31264 3.41422 5.18252 4.16936C4.0524 4.9245 3.17158 5.9978 2.65146 7.25354C2.13134 8.50929 1.99527 9.89106 2.26047 11.2241C2.52567 12.5572 3.18022 13.7817 4.14135 14.7428C5.10248 15.7038 6.32701 16.3583 7.6601 16.6234C8.9932 16.8885 10.375 16.7524 11.6307 16.2322C12.8864 15.712 13.9596 14.8311 14.7147 13.7009C15.4698 12.5707 15.8727 11.242 15.8726 9.88284C15.8705 8.0609 15.1458 6.31419 13.8575 5.02588C12.5692 3.73757 10.8225 3.01286 9.00051 3.01072V3.01117Z" fill="#2F2F3D" />
    <path d="M8.28501 14.1441C8.28513 13.991 8.34595 13.8442 8.4542 13.736C8.56245 13.6277 8.70937 13.5668 8.86246 13.5667C9.01563 13.5667 9.16238 13.6275 9.27073 13.7358C9.37907 13.844 9.44024 13.991 9.44036 14.1441C9.44024 14.2973 9.37907 14.4441 9.27073 14.5524C9.16238 14.6607 9.01563 14.7215 8.86246 14.7215C8.70937 14.7214 8.56245 14.6604 8.4542 14.5522C8.34595 14.4439 8.28513 14.2972 8.28501 14.1441ZM8.84488 12.8639C8.73398 12.8585 8.62689 12.8218 8.53594 12.7581C8.445 12.6944 8.37365 12.6062 8.33071 12.5038C8.32396 12.4449 8.2919 12.4457 8.27885 12.3103C8.27227 12.1945 8.27227 12.0786 8.27885 11.9629C8.20972 11.4893 8.2592 11.0061 8.42344 10.5566C8.5235 10.2011 8.72143 9.88072 8.9943 9.63183C9.05955 9.57333 9.41416 9.25693 9.42586 9.24928C9.70797 9.05697 9.94181 8.80237 10.1097 8.50505C10.3372 8.12712 10.441 7.68741 10.4063 7.24763C10.3974 7.06787 10.3455 6.89292 10.2547 6.73752C10.1639 6.58212 10.0369 6.45088 9.88466 6.35486C9.73472 6.26906 9.56475 6.22483 9.39202 6.22664C9.07968 6.25519 8.77988 6.36268 8.52056 6.5391C8.26124 6.71553 8.05095 6.95506 7.9097 7.2351C7.72684 7.54424 7.62236 7.89337 7.60516 8.25213C7.60516 8.26833 7.59549 8.35421 7.59549 8.37266C7.59359 8.52619 7.53108 8.67275 7.42146 8.78026C7.31184 8.88777 7.1641 8.94757 7.01056 8.94649C6.85743 8.94649 6.71058 8.88568 6.6023 8.7774C6.49402 8.66913 6.43311 8.52227 6.43311 8.36914C6.43339 8.20161 6.4449 8.03427 6.46738 7.86826C6.50671 7.67537 6.5619 7.48601 6.63218 7.30212C6.70537 7.10958 6.79395 6.92325 6.89718 6.74499C7.18394 6.2403 7.58721 5.81138 8.07319 5.49395C8.29342 5.35198 8.5311 5.23973 8.78072 5.16006C9.01555 5.08492 9.2606 5.04613 9.50716 5.04493C9.68123 5.04462 9.85486 5.06616 10.0235 5.1092C10.193 5.15301 10.3558 5.2196 10.5074 5.30718C10.6491 5.38902 10.7796 5.48861 10.8963 5.60337C11.0119 5.7176 11.1135 5.84509 11.1991 5.98318C11.2862 6.12514 11.3581 6.276 11.4131 6.43319C11.47 6.59577 11.5106 6.76354 11.5348 6.93407C11.5605 7.11286 11.5704 7.29356 11.5638 7.47406C11.5572 7.66222 11.5346 7.84943 11.4966 8.03383C11.4572 8.22664 11.4026 8.41599 11.3327 8.59997C11.2591 8.79236 11.1701 8.97866 11.0673 9.1571C10.8114 9.58692 10.4598 9.95162 10.0393 10.2227C9.80753 10.4374 9.63056 10.7047 9.52386 11.0021C9.3891 11.4329 9.36087 11.89 9.44124 12.3342C9.44698 12.4266 9.41975 12.518 9.36433 12.5921C9.30326 12.6715 9.22584 12.7371 9.13757 12.7845C9.0493 12.832 8.95188 12.8602 8.85192 12.8674L8.84488 12.8639Z" fill="#2F2F3D" />
</svg>
    