<svg width="18" height="18" viewBox="0 0 18 18" fill="none" xmlns="http://www.w3.org/2000/svg">
    <path d="M8.99956 16.9855C6.88218 16.9831 4.8523 16.1408 3.35509 14.6436C1.85787 13.1463 1.01557 11.1165 1.01318 8.99908C1.01557 6.8817 1.85787 4.85159 3.35509 3.35438C4.8523 1.85716 6.88218 1.01508 8.99956 1.0127C11.1169 1.01508 13.1468 1.85716 14.644 3.35438C16.1413 4.85159 16.9836 6.8817 16.9859 8.99908C16.9836 11.1165 16.1413 13.1463 14.644 14.6436C13.1468 16.1408 11.1169 16.9831 8.99956 16.9855ZM8.86113 12.6838C8.70804 12.6839 8.56156 12.7447 8.45331 12.853C8.34506 12.9612 8.28424 13.1079 8.28412 13.261C8.28424 13.4141 8.34506 13.561 8.45331 13.6693C8.56156 13.7775 8.70804 13.8383 8.86113 13.8385C9.01446 13.8386 9.16169 13.778 9.27027 13.6697C9.37886 13.5614 9.43999 13.4143 9.44035 13.261C9.43999 13.1077 9.3792 12.961 9.27071 12.8527C9.16222 12.7445 9.01482 12.6838 8.86157 12.6838H8.86113ZM9.39245 5.34317C9.56601 5.34134 9.73674 5.38598 9.88728 5.47238C10.0394 5.56795 10.1659 5.69889 10.2564 5.85405C10.3469 6.00921 10.3988 6.18396 10.4072 6.36339C10.4425 6.80396 10.339 7.24446 10.1114 7.62333C9.94345 7.92031 9.7098 8.17472 9.42804 8.36713C9.41544 8.37433 9.0568 8.69389 8.99605 8.74924C8.72445 8.99928 8.52689 9.31952 8.42562 9.67453C8.27488 10.0687 8.22118 10.4932 8.26874 10.9125C8.27504 10.9755 8.27972 11.03 8.27972 11.0804C8.27972 11.1191 8.27972 11.1528 8.27972 11.1856V11.2045V11.2072C8.27538 11.2808 8.27679 11.3547 8.28324 11.4282C8.28534 11.4768 8.2966 11.5245 8.31708 11.5686C8.32646 11.5851 8.33246 11.6034 8.33466 11.6222C8.37775 11.7247 8.44923 11.8128 8.54032 11.8765C8.63142 11.9402 8.73867 11.9768 8.84971 11.9822H8.85718C8.95709 11.9749 9.05447 11.9467 9.14283 11.8995C9.23119 11.8523 9.30886 11.7871 9.37047 11.7082C9.42486 11.6334 9.45197 11.5421 9.44738 11.4497C9.36513 11.0057 9.39338 10.5482 9.53 10.1177C9.63557 9.82027 9.81255 9.55315 10.045 9.33966C10.4667 9.06928 10.8188 8.70381 11.0738 8.27264C11.1758 8.09448 11.2638 7.90872 11.3371 7.71694C11.4073 7.53284 11.4626 7.34347 11.5023 7.15047C11.5407 6.96627 11.5636 6.77907 11.5704 6.59103C11.5769 6.41049 11.5666 6.22964 11.5401 6.05093C11.5155 5.88004 11.4749 5.712 11.4184 5.54884C11.3642 5.3914 11.2924 5.24047 11.2048 5.09883C11.1186 4.96089 11.0169 4.83321 10.9016 4.71848C10.7847 4.60417 10.654 4.50497 10.5126 4.42294C10.3609 4.33558 10.1984 4.26927 10.0288 4.22584C9.8602 4.18235 9.68653 4.16055 9.51242 4.16102C9.26593 4.1627 9.02098 4.20133 8.78598 4.27572C8.53661 4.3566 8.29902 4.46933 8.07845 4.61103C7.59307 4.92874 7.18981 5.35695 6.902 5.86064C6.80001 6.0395 6.71187 6.22601 6.63832 6.41832C6.56702 6.60202 6.51182 6.7915 6.47353 6.98479C6.45123 7.15052 6.43987 7.31747 6.43969 7.48468C6.43981 7.63769 6.50073 7.78449 6.60888 7.89273C6.71703 8.00096 6.86369 8.0619 7.0167 8.06214C7.17032 8.06346 7.31837 8.00381 7.42804 7.89624C7.53771 7.78868 7.59997 7.64203 7.60163 7.48842C7.60163 7.48122 7.60156 7.46452 7.60471 7.44337V7.42404V7.41415C7.60471 7.39255 7.60866 7.3736 7.60866 7.3691C7.62652 7.00997 7.7311 6.66044 7.91365 6.35065C8.05462 6.07121 8.2641 5.83231 8.52275 5.65607C8.7814 5.47984 9.0808 5.37213 9.39245 5.34317Z" fill="#2F2F3D" />
</svg>
    