<svg width="18" height="19" viewBox="0 0 18 19" fill="none" xmlns="http://www.w3.org/2000/svg">
    <g clip-path="url(#clip0_898_60966)">
        <path d="M9.35848 11.4721H7.56748C7.42773 11.468 7.29506 11.4097 7.19764 11.3094C7.10022 11.2091 7.04573 11.0748 7.04573 10.935C7.04573 10.7952 7.10022 10.6609 7.19764 10.5606C7.29506 10.4603 7.42773 10.402 7.56748 10.3979H9.35803C10.2603 10.3979 11.1256 10.0395 11.7636 9.40152C12.4016 8.76352 12.76 7.89821 12.76 6.99594C12.76 6.09368 12.4016 5.22836 11.7636 4.59037C11.1256 3.95237 10.2603 3.59394 9.35803 3.59394H5.77693C5.13213 3.59358 4.50053 3.7767 3.95591 4.1219C3.41129 4.4671 2.97614 4.96013 2.70127 5.54342C2.42641 6.1267 2.32318 6.77615 2.40364 7.41591C2.4841 8.05568 2.74494 8.65934 3.15568 9.15639C3.23772 9.26744 3.27411 9.40569 3.25737 9.54274C3.24063 9.67978 3.17203 9.80521 3.06567 9.89325C2.95932 9.98128 2.82328 10.0252 2.68552 10.0161C2.54776 10.0069 2.41874 9.94533 2.32498 9.84399C1.78223 9.1904 1.43694 8.39568 1.32956 7.55293C1.22218 6.71017 1.35714 5.85427 1.71865 5.08545C2.08016 4.31664 2.65324 3.66674 3.37078 3.21187C4.08832 2.75701 4.92061 2.51601 5.77018 2.51709H9.35128C10.5388 2.51614 11.678 2.98696 12.5184 3.82598C13.3588 4.665 13.8314 5.80349 13.8324 6.99099C13.8333 8.1785 13.3625 9.31775 12.5235 10.1581C11.6845 10.9985 10.546 11.4711 9.35848 11.4721Z" fill="#2F2F3D" />
        <path d="M12.2229 16.4856H8.64175C7.45425 16.4856 6.31538 16.0139 5.47568 15.1742C4.63599 14.3345 4.16425 13.1956 4.16425 12.0081C4.16425 10.8206 4.63599 9.68171 5.47568 8.84202C6.31538 8.00233 7.45425 7.53059 8.64175 7.53059H10.4323C10.5745 7.53142 10.7106 7.58831 10.8112 7.6889C10.9117 7.7895 10.9684 7.92569 10.9692 8.06789C10.9684 8.21017 10.9116 8.34643 10.811 8.44703C10.7104 8.54764 10.5741 8.60448 10.4319 8.60519H8.64175C7.73949 8.60519 6.87417 8.96361 6.23617 9.60161C5.59818 10.2396 5.23975 11.1049 5.23975 12.0072C5.23975 12.9095 5.59818 13.7748 6.23617 14.4128C6.87417 15.0508 7.73949 15.4092 8.64175 15.4092H12.2229C12.8681 15.41 13.5003 15.227 14.0454 14.8817C14.5905 14.5363 15.026 14.0429 15.301 13.4591C15.576 12.8754 15.679 12.2254 15.5981 11.5852C15.5172 10.945 15.2557 10.341 14.8441 9.84404C14.7539 9.73347 14.7109 9.59185 14.7243 9.4498C14.7377 9.30775 14.8064 9.17667 14.9157 9.08489C14.97 9.03939 15.0329 9.00513 15.1006 8.98409C15.1683 8.96304 15.2396 8.95563 15.3102 8.96228C15.3808 8.96894 15.4493 8.98952 15.5119 9.02285C15.5745 9.05618 15.6299 9.10158 15.6748 9.15644C16.2186 9.81044 16.5646 10.606 16.6721 11.4497C16.7796 12.2935 16.6442 13.1503 16.2818 13.9198C15.9194 14.6893 15.345 15.3394 14.626 15.7939C13.9071 16.2484 13.0734 16.4883 12.2229 16.4856Z" fill="#2F2F3D" />
    </g>
    <defs>
        <clipPath id="clip0_898_60966">
            <rect width="18" height="18" fill="white" transform="translate(0 0.5)" />
        </clipPath>
    </defs>
</svg>
    