<svg width="18" height="18" viewBox="0 0 18 18" fill="none" xmlns="http://www.w3.org/2000/svg">
    <g clip-path="url(#clip0_1461_72156)">
        <path d="M4.0403 6.44217C7.3037 9.08502 7.35431 9.11346 7.40651 9.13371C7.87171 9.46115 8.4276 9.63422 8.99645 9.62864C9.56187 9.63544 10.1153 9.46377 10.5776 9.1381C10.6343 9.11786 10.6887 9.08772 13.9561 6.44217C14.0681 6.35132 14.1392 6.21974 14.1543 6.07632C14.1694 5.93291 14.1272 5.78938 14.0365 5.67719C13.9457 5.5652 13.8143 5.49388 13.6709 5.47878C13.5275 5.46368 13.3836 5.50605 13.2715 5.59666L10.0098 8.21295C9.71483 8.42795 9.35929 8.54374 8.99426 8.54374C8.62922 8.54374 8.27368 8.42795 7.97868 8.21295L4.72497 5.59666C4.61278 5.50605 4.46893 5.46368 4.32551 5.47878C4.18209 5.49388 4.05073 5.5652 3.95988 5.67719C3.86938 5.78942 3.82701 5.93294 3.84211 6.07632C3.8572 6.21971 3.92841 6.35125 4.0403 6.44217Z" fill="#2F2F3D" />
        <path fill-rule="evenodd" clip-rule="evenodd" d="M5.38541 15.6866H12.6138C15.2521 15.6866 16.7704 14.1683 16.7704 11.5299V6.47013C16.7704 3.83133 15.2521 2.31348 12.6138 2.31348H5.38541C2.74661 2.31348 1.22876 3.83133 1.22876 6.47013V11.5299C1.22876 14.1683 2.74661 15.6866 5.38541 15.6866ZM2.31326 6.47013C2.31326 4.40238 3.31766 3.39798 5.38541 3.39798H12.6138C14.6811 3.39798 15.6859 4.40283 15.6859 6.47013V11.5299C15.6859 13.5972 14.6811 14.6021 12.6138 14.6021H5.38541C3.31811 14.6021 2.31326 13.5972 2.31326 11.5299V6.47013Z" fill="#2F2F3D" />
    </g>
    <defs>
        <clipPath id="clip0_1461_72156">
            <rect width="18" height="18" fill="white" />
        </clipPath>
    </defs>
</svg>
    