<svg width="18" height="18" viewBox="0 0 13 12" fill="none" xmlns="http://www.w3.org/2000/svg">
    <path fill-rule="evenodd" clip-rule="evenodd" d="M2.01844 3.02891C2.00512 3.07384 2.00098 3.1212 2.00592 3.16782C2.01413 3.25666 2.05493 3.33924 2.12055 3.39934C2.18618 3.45944 2.27183 3.49254 2.36062 3.49252C2.37198 3.49252 2.38463 3.49191 3.3624 3.39591C5.83989 3.14361 7.32677 3.23879 9.83164 3.49109H9.86918C9.95746 3.49132 10.0425 3.45818 10.1075 3.3982C10.1726 3.33821 10.2129 3.25594 10.2202 3.16753C10.2292 3.07356 10.2009 2.97966 10.1414 2.90657C10.0819 2.83348 9.99619 2.78714 9.90275 2.77737C9.25643 2.71357 8.6749 2.65972 8.12587 2.61874C8.12562 2.61564 8.12507 2.61248 8.12452 2.6093C8.12378 2.60499 8.12302 2.60066 8.12302 2.59644L8.01892 1.97791L8.01876 1.97694C7.9477 1.53907 7.84124 0.883179 6.73526 0.883179H5.49426C4.39179 0.883179 4.28699 1.51582 4.21128 1.97295L4.21116 1.97362L4.10706 2.59673C4.10653 2.60087 4.10581 2.60497 4.10478 2.60902C3.84439 2.62892 3.57329 2.65321 3.2893 2.68248L2.32336 2.77766C2.27691 2.78205 2.2317 2.79563 2.19052 2.81768C2.14935 2.83972 2.11311 2.8697 2.08358 2.906C2.05404 2.94229 2.03176 2.98397 2.01844 3.02891ZM7.32433 2.0971L7.40397 2.57158C6.93474 2.54611 6.47986 2.53328 6.01762 2.53328C5.63403 2.53328 5.24384 2.54194 4.83607 2.56243L4.91856 2.09253L4.9192 2.08867C4.98911 1.6686 5.00018 1.60204 5.50109 1.60204H6.7418C7.24365 1.60204 7.25763 1.68324 7.32433 2.0971Z" fill="white" />
    <path fill-rule="evenodd" clip-rule="evenodd" d="M2.82541 9.45479C2.87784 10.1971 2.94369 11.1158 4.59632 11.1158H7.63695C9.29016 11.1158 9.35599 10.1971 9.40842 9.45479L9.71618 4.662C9.7193 4.61511 9.71325 4.56788 9.69826 4.52337C9.68327 4.47886 9.65967 4.4378 9.62886 4.40246C9.59804 4.36712 9.56072 4.33835 9.51878 4.31757C9.47684 4.29679 9.43119 4.28432 9.38453 4.28127C8.29217 4.08773 7.18615 3.98128 6.07709 3.96286C4.99403 3.97855 3.91417 4.08504 2.84874 4.28127C2.75478 4.28818 2.66734 4.33212 2.60526 4.40332C2.54318 4.47452 2.51155 4.56749 2.51708 4.662L2.82541 9.45479ZM3.53555 9.40964L3.53537 9.40706L3.25178 4.9947C4.18093 4.79619 5.12726 4.68965 6.07709 4.67657C7.05282 4.69292 8.02489 4.7994 8.9812 4.9947L8.6979 9.40706C8.65042 10.1306 8.6319 10.402 7.63695 10.402H4.59632C3.60749 10.402 3.58784 10.1309 3.53555 9.40964Z" fill="white" />
</svg>
    