<svg width="18" height="19" viewBox="0 0 18 19" fill="none" xmlns="http://www.w3.org/2000/svg">
    <g clip-path="url(#clip0_476_10551)">
        <path d="M6.83327 17.2649H11.1668C15.0885 17.2649 16.7643 15.5891 16.7643 11.6674V8.05613C16.7643 7.91243 16.7072 7.77462 16.6056 7.67302C16.504 7.57141 16.3662 7.51433 16.2225 7.51433C16.0788 7.51433 15.941 7.57141 15.8394 7.67302C15.7378 7.77462 15.6807 7.91243 15.6807 8.05613V11.6638C15.6807 14.9933 14.4968 16.1777 11.1668 16.1777H6.83327C3.50372 16.1777 2.31932 14.9938 2.31932 11.6638V7.33028C2.31932 4.00073 3.50327 2.81633 6.83327 2.81633H10.4445C10.5873 2.81481 10.7237 2.75742 10.8247 2.65648C10.9256 2.55554 10.983 2.41907 10.9845 2.27633C10.983 2.13358 10.9256 1.99711 10.8247 1.89617C10.7237 1.79523 10.5873 1.73785 10.4445 1.73633H6.83327C2.91152 1.73633 1.23572 3.41213 1.23572 7.33388V11.6674C1.23572 15.5891 2.91152 17.2649 6.83327 17.2649Z" fill="#191A24" />
        <path fill-rule="evenodd" clip-rule="evenodd" d="M14.0561 7.15343C13.5204 7.15343 12.9967 6.99458 12.5513 6.69696C12.1059 6.39934 11.7587 5.97632 11.5537 5.4814C11.3487 4.98647 11.2951 4.44187 11.3996 3.91647C11.5041 3.39106 11.7621 2.90844 12.1409 2.52965C12.5196 2.15085 13.0023 1.89288 13.5277 1.78837C14.0531 1.68386 14.5977 1.7375 15.0926 1.94251C15.5875 2.14751 16.0105 2.49467 16.3082 2.94009C16.6058 3.38551 16.7646 3.90918 16.7646 4.44488C16.7644 5.16316 16.479 5.85195 15.9711 6.35985C15.4632 6.86775 14.7744 7.15319 14.0561 7.15343ZM14.0561 2.81993C13.7347 2.81993 13.4205 2.91523 13.1533 3.09378C12.8861 3.27233 12.6778 3.52612 12.5548 3.82304C12.4318 4.11996 12.3997 4.44668 12.4624 4.76189C12.5251 5.0771 12.6798 5.36664 12.9071 5.59389C13.1343 5.82115 13.4239 5.97591 13.7391 6.03861C14.0543 6.10131 14.381 6.06913 14.6779 5.94614C14.9748 5.82315 15.2286 5.61487 15.4072 5.34765C15.5857 5.08043 15.681 4.76626 15.681 4.44488C15.6803 4.01413 15.5089 3.60124 15.2043 3.29665C14.8997 2.99207 14.4868 2.82064 14.0561 2.81993Z" fill="#191A24" />
        <path d="M9.00019 7.69478H5.38714C5.24378 7.69325 5.10678 7.63537 5.00573 7.53365C4.90469 7.43194 4.84773 7.29455 4.84714 7.15118C4.84867 7.00844 4.90605 6.87197 5.00699 6.77103C5.10793 6.67008 5.2444 6.6127 5.38714 6.61118H9.00019C9.14294 6.6127 9.27941 6.67008 9.38035 6.77103C9.48129 6.87197 9.53867 7.00844 9.54019 7.15118C9.53961 7.29455 9.48264 7.43194 9.3816 7.53365C9.28056 7.63537 9.14356 7.69325 9.00019 7.69478Z" fill="#191A24" />
        <path d="M5.38714 13.6538H11.8892C12.0326 13.6522 12.1696 13.5944 12.2706 13.4926C12.3716 13.3909 12.4286 13.2535 12.4292 13.1102C12.4277 12.9674 12.3703 12.831 12.2693 12.73C12.1684 12.6291 12.0319 12.5717 11.8892 12.5702H5.38714C5.2444 12.5717 5.10793 12.6291 5.00699 12.73C4.90605 12.831 4.84867 12.9674 4.84714 13.1102C4.84773 13.2535 4.90469 13.3909 5.00573 13.4926C5.10678 13.5944 5.24378 13.6522 5.38714 13.6538Z" fill="#191A24" />
        <path d="M11.8892 10.7134H5.38714C5.24378 10.7118 5.10678 10.654 5.00573 10.5523C4.90469 10.4505 4.84773 10.3132 4.84714 10.1698C4.84867 10.027 4.90605 9.89057 5.00699 9.78963C5.10793 9.68869 5.2444 9.63131 5.38714 9.62978H11.8892C12.0319 9.63131 12.1684 9.68869 12.2693 9.78963C12.3703 9.89057 12.4277 10.027 12.4292 10.1698C12.4286 10.3132 12.3716 10.4505 12.2706 10.5523C12.1696 10.654 12.0326 10.7118 11.8892 10.7134Z" fill="#191A24" />
    </g>
    <defs>
        <clipPath id="clip0_476_10551">
            <rect width="18" height="18" fill="white" transform="translate(0 0.5)" />
        </clipPath>
    </defs>
</svg>