<svg width="16" height="17" viewBox="0 0 16 17" fill="none" xmlns="http://www.w3.org/2000/svg">
    <g clip-path="url(#clip0_3023_59500)">
        <path fill-rule="evenodd" clip-rule="evenodd" d="M2.5119 4.30469C2.49405 4.3646 2.48851 4.42775 2.49514 4.48991C2.50613 4.60837 2.56079 4.71848 2.64872 4.79861C2.73665 4.87874 2.85141 4.92287 2.97038 4.92285C2.9856 4.92285 3.00255 4.92204 4.31263 4.79404C7.63213 4.45764 9.62435 4.58455 12.9805 4.92094H13.0308C13.1491 4.92125 13.2631 4.87707 13.3502 4.79708C13.4373 4.7171 13.4913 4.6074 13.5011 4.48953C13.5132 4.36423 13.4752 4.23903 13.3956 4.14158C13.3159 4.04413 13.201 3.98233 13.0758 3.96932C12.2098 3.88425 11.4307 3.81244 10.695 3.75781C10.6947 3.75367 10.694 3.74946 10.6932 3.74523C10.6922 3.73948 10.6912 3.7337 10.6912 3.72808L10.5517 2.90336L10.5515 2.90207C10.4563 2.31825 10.3137 1.44373 8.8318 1.44373H7.16903C5.69187 1.44373 5.55146 2.28724 5.45001 2.89675L5.44986 2.89765L5.31037 3.72846C5.30967 3.73398 5.3087 3.73945 5.30732 3.74485C4.95844 3.77139 4.59519 3.80377 4.21469 3.84279L2.92045 3.9697C2.85821 3.97555 2.79764 3.99366 2.74247 4.02306C2.6873 4.05245 2.63875 4.09243 2.59918 4.14082C2.55961 4.18921 2.52976 4.24479 2.5119 4.30469ZM9.62107 3.06229L9.72778 3.69492C9.09908 3.66097 8.4896 3.64386 7.87027 3.64386C7.3563 3.64386 6.8335 3.65541 6.28715 3.68273L6.39767 3.05619L6.39853 3.05105C6.4922 2.49095 6.50704 2.40221 7.17818 2.40221H8.84056C9.51297 2.40221 9.5317 2.51047 9.62107 3.06229Z" fill="#F37070" />
        <path fill-rule="evenodd" clip-rule="evenodd" d="M3.59314 12.8725C3.66338 13.8622 3.75161 15.0872 5.96591 15.0872H10.0399C12.255 15.0872 12.3432 13.8622 12.4135 12.8725L12.8258 6.48215C12.83 6.41964 12.8219 6.35666 12.8018 6.29731C12.7817 6.23797 12.7501 6.18323 12.7088 6.1361C12.6675 6.08898 12.6175 6.05062 12.5613 6.02291C12.5052 5.99521 12.444 5.97858 12.3815 5.97451C10.9178 5.71646 9.43594 5.57453 7.94995 5.54996C6.49879 5.57089 5.05192 5.71288 3.62439 5.97451C3.49851 5.98373 3.38134 6.04231 3.29816 6.13725C3.21498 6.23218 3.17261 6.35615 3.18002 6.48215L3.59314 12.8725ZM4.54463 12.8123L4.54438 12.8089L4.16442 6.92576C5.40935 6.66107 6.67731 6.51902 7.94995 6.50159C9.25728 6.52338 10.5597 6.66535 11.8411 6.92576L11.4615 12.8089C11.3979 13.7736 11.373 14.1355 10.0399 14.1355H5.96591C4.64102 14.1355 4.61469 13.7741 4.54463 12.8123Z" fill="#F37070" />
    </g>
    <defs>
        <clipPath id="clip0_3023_59500">
            <rect y="0.266113" width="16" height="16" rx="8" fill="white" />
        </clipPath>
    </defs>
</svg>
    