<svg width="24" height="24" viewBox="0 0 24 24" fill="none" xmlns="http://www.w3.org/2000/svg">
<g clip-path="url(#clip0_31708_1496)">
<path d="M18.741 8.87026C18.0268 8.87026 17.3285 8.65846 16.7347 8.26163C16.1408 7.86481 15.6779 7.30078 15.4045 6.64089C15.1312 5.98099 15.0597 5.25486 15.199 4.55431C15.3384 3.85377 15.6823 3.21028 16.1874 2.70522C16.6925 2.20015 17.3359 1.8562 18.0365 1.71685C18.737 1.57751 19.4632 1.64903 20.1231 1.92236C20.783 2.1957 21.347 2.65858 21.7438 3.25248C22.1406 3.84637 22.3524 4.5446 22.3524 5.25886C22.3521 6.21657 21.9715 7.13496 21.2943 7.81216C20.6171 8.48936 19.6987 8.86994 18.741 8.87026ZM18.741 3.09226C18.3125 3.09226 17.8936 3.21933 17.5373 3.4574C17.181 3.69547 16.9033 4.03385 16.7394 4.42974C16.5754 4.82563 16.5325 5.26127 16.6161 5.68155C16.6997 6.10182 16.906 6.48788 17.209 6.79088C17.512 7.09388 17.8981 7.30023 18.3184 7.38383C18.7386 7.46743 19.1743 7.42452 19.5702 7.26054C19.9661 7.09656 20.3044 6.81886 20.5425 6.46256C20.7806 6.10627 20.9076 5.68738 20.9076 5.25886C20.9067 4.68454 20.6781 4.13401 20.272 3.7279C19.8659 3.32179 19.3154 3.09321 18.741 3.09226Z" fill="#6E7191"/>
<path d="M12 9.59226H7.18265C6.9915 9.59021 6.80882 9.51304 6.6741 9.37742C6.53938 9.2418 6.46342 9.05862 6.46265 8.86746C6.46468 8.67713 6.54118 8.49518 6.67577 8.36059C6.81036 8.226 6.99232 8.14949 7.18265 8.14746H12C12.1904 8.14949 12.3723 8.226 12.5069 8.36059C12.6415 8.49518 12.718 8.67713 12.72 8.86746C12.7193 9.05862 12.6433 9.2418 12.5086 9.37742C12.3739 9.51304 12.1912 9.59021 12 9.59226Z" fill="#6E7191"/>
<path d="M15.852 17.5376H7.18265C6.9915 17.5355 6.80882 17.4584 6.6741 17.3227C6.53938 17.1871 6.46342 17.0039 6.46265 16.8128C6.46468 16.6224 6.54118 16.4405 6.67577 16.3059C6.81036 16.1713 6.99232 16.0948 7.18265 16.0928H15.852C16.0424 16.0948 16.2243 16.1713 16.3589 16.3059C16.4935 16.4405 16.57 16.6224 16.572 16.8128C16.5713 17.0039 16.4953 17.1871 16.3606 17.3227C16.2259 17.4584 16.0432 17.5355 15.852 17.5376Z" fill="#6E7191"/>
<path d="M15.852 13.6172H7.18265C6.9915 13.6151 6.80882 13.5379 6.6741 13.4023C6.53938 13.2667 6.46342 13.0835 6.46265 12.8924C6.46468 12.702 6.54118 12.5201 6.67577 12.3855C6.81036 12.2509 6.99232 12.1744 7.18265 12.1724H15.852C16.0424 12.1744 16.2243 12.2509 16.3589 12.3855C16.4935 12.5201 16.57 12.702 16.572 12.8924C16.5713 13.0835 16.4953 13.2667 16.3606 13.4023C16.2259 13.5379 16.0432 13.6151 15.852 13.6172Z" fill="#6E7191"/>
<path d="M14.8891 22.3523H9.11111C3.88211 22.3523 1.64771 20.1179 1.64771 14.8889V9.11086C1.64771 3.88186 3.88211 1.64746 9.11111 1.64746H13.9261C14.1164 1.64949 14.2984 1.726 14.433 1.86059C14.5676 1.99518 14.6441 2.17713 14.6461 2.36746C14.6441 2.55779 14.5676 2.73975 14.433 2.87433C14.2984 3.00892 14.1164 3.08543 13.9261 3.08746H9.11111C4.67111 3.08746 3.09251 4.66666 3.09251 9.10606V14.8841C3.09251 19.3241 4.67171 20.9027 9.11111 20.9027H14.8891C19.3291 20.9027 20.9077 19.3235 20.9077 14.8841V10.0739C20.9077 9.88227 20.9838 9.69852 21.1193 9.56305C21.2548 9.42757 21.4385 9.35146 21.6301 9.35146C21.8217 9.35146 22.0054 9.42757 22.1409 9.56305C22.2764 9.69852 22.3525 9.88227 22.3525 10.0739V14.8889C22.3525 20.1179 20.1181 22.3523 14.8891 22.3523Z" fill="#6E7191"/>
</g>
<defs>
<clipPath id="clip0_31708_1496">
<rect width="24" height="24" fill="white"/>
</clipPath>
</defs>
</svg>
