<svg width="18" height="19" viewBox="0 0 18 19" fill="none" xmlns="http://www.w3.org/2000/svg">
    <g clip-path="url(#clip0_1309_71233)">
        <path d="M2.52839 5.50486C2.43401 5.75674 2.36891 6.03864 2.33281 6.35084H2.32859C2.33597 6.38719 2.33984 6.42481 2.33984 6.46334C2.33984 6.774 2.088 7.02584 1.77734 7.02584C1.46668 7.02584 1.21484 6.774 1.21484 6.46334C1.21484 6.38884 1.22933 6.31772 1.25563 6.25265C1.26416 6.17989 1.27402 6.10728 1.28521 6.03484C1.32888 5.75355 1.39851 5.4769 1.49322 5.20845C1.58137 4.9597 1.69571 4.721 1.83427 4.49638C1.96752 4.2814 2.12498 4.08241 2.30359 3.90332C2.48268 3.72471 2.68167 3.56723 2.89665 3.43397C3.12126 3.29538 3.35998 3.18106 3.60876 3.09293C3.87719 2.9982 4.15384 2.92857 4.43514 2.88494C4.7445 2.83709 5.05712 2.81353 5.37015 2.81448H12.6152C12.9282 2.81353 13.2408 2.83709 13.5502 2.88494C13.8315 2.92857 14.1082 2.9982 14.3766 3.09293C14.6254 3.18106 14.8641 3.29538 15.0887 3.43397C15.3037 3.56723 15.5027 3.72471 15.6818 3.90332C15.8604 4.08241 16.0178 4.2814 16.1511 4.49638C16.2896 4.721 16.404 4.9597 16.4921 5.20845C16.5868 5.4769 16.6565 5.75355 16.7001 6.03484C16.748 6.34456 16.7715 6.65755 16.7704 6.97095V12.031C16.7715 12.3445 16.748 12.6575 16.7001 12.9672C16.6565 13.2485 16.5868 13.5252 16.4921 13.7936C16.404 14.0424 16.2896 14.2811 16.1511 14.5057C16.0178 14.7206 15.8603 14.9196 15.6818 15.0988C15.5027 15.2774 15.3037 15.4348 15.0887 15.5681C14.8641 15.7067 14.6254 15.821 14.3766 15.9091C14.1082 16.0039 13.8315 16.0735 13.5502 16.1171C13.2405 16.165 12.9275 16.1885 12.6141 16.1874H10.3571C10.3183 16.1959 10.2786 16.2001 10.2388 16.2001C10.1661 16.2001 10.094 16.1858 10.0268 16.1579C9.95962 16.1301 9.89857 16.0893 9.84713 16.0378C9.7957 15.9864 9.7549 15.9253 9.72707 15.8581C9.69923 15.7909 9.68491 15.7189 9.68492 15.6461C9.68492 15.4992 9.74327 15.3583 9.84715 15.2545C9.95103 15.1506 10.0919 15.0922 10.2388 15.0922C10.2756 15.0922 10.3123 15.0958 10.3483 15.103H12.6141C14.6813 15.103 15.6863 14.0982 15.6863 12.031V6.97088C15.6863 6.40221 15.6102 5.91394 15.457 5.50486C15.44 5.47834 15.4253 5.45027 15.4132 5.42094L15.4103 5.4222C14.9886 4.39719 14.0694 3.89882 12.5999 3.89882H5.38543C3.91598 3.89882 2.99673 4.39719 2.57501 5.4222L2.57216 5.42094C2.56 5.45028 2.54533 5.47834 2.52839 5.50486Z" fill="#EFF1F8" />
        <path fill-rule="evenodd" clip-rule="evenodd" d="M4.60079 6.70935C4.59979 6.69635 4.59919 6.68325 4.59919 6.67C4.59919 6.40158 4.86586 6.18367 5.13429 6.18367C5.40272 6.18367 5.66149 6.4008 5.66149 6.66923C5.66152 6.68855 5.6604 6.70786 5.65814 6.72705V8.82365H6.58245C7.60825 8.82365 8.38841 9.19471 8.77572 9.86579C8.9437 10.1557 9.03043 10.4855 9.02677 10.8205C9.02677 11.2788 8.87943 11.7808 8.58475 12.2882L7.12812 14.8142C6.60981 15.7035 5.90047 16.1946 5.12574 16.1946C4.35102 16.1946 3.64175 15.7035 3.129 14.8142L1.67218 12.2882C1.15935 11.3989 1.08837 10.5423 1.47585 9.86579C1.86315 9.19469 2.64332 8.82365 3.66909 8.82365H4.60079V6.70935ZM2.6632 11.9437L3.97049 14.2106C4.29361 14.7736 4.705 15.082 5.12603 15.082C5.54707 15.082 5.95837 14.7736 6.28151 14.2106L7.58878 11.9436C7.91192 11.3805 7.97561 10.8714 7.76508 10.5041C7.55455 10.1369 7.07952 9.93616 6.43328 9.93616H3.81872C3.17246 9.93616 2.69747 10.1369 2.48694 10.5041C2.40419 10.6539 2.36198 10.8226 2.3645 10.9936C2.3645 11.2778 2.46249 11.6009 2.6632 11.9437Z" fill="#EFF1F8" />
    </g>
    <defs>
        <clipPath id="clip0_1309_71233">
            <rect width="18" height="18" fill="white" transform="translate(0 0.5)" />
        </clipPath>
    </defs>
</svg>
    