<svg width="18" height="19" viewBox="0 0 18 19" fill="none" xmlns="http://www.w3.org/2000/svg">
    <g clip-path="url(#clip0_559_19644)">
        <path d="M16.3245 5.38529C16.5788 5.0047 16.7145 4.55724 16.7145 4.09951C16.7145 3.4857 16.4707 2.89704 16.0367 2.46301C15.6026 2.02899 15.014 1.78516 14.4002 1.78516C13.9424 1.78516 13.495 1.92089 13.1144 2.17519C12.7338 2.4295 12.4372 2.79095 12.262 3.21384C12.0868 3.63673 12.041 4.10207 12.1303 4.55101C12.2196 4.99995 12.44 5.41233 12.7637 5.736C13.0873 6.05967 13.4997 6.28009 13.9487 6.36939C14.3976 6.45869 14.8629 6.41285 15.2858 6.23769C15.7087 6.06252 16.0702 5.76588 16.3245 5.38529Z" fill="#191A24" />
        <path fill-rule="evenodd" clip-rule="evenodd" d="M5.54412 17.2141H11.685C11.793 17.2141 11.9011 17.2065 12.0028 17.1961C12.0928 17.1889 12.179 17.1812 12.2726 17.1655C12.3666 17.1574 12.4614 17.1417 12.5424 17.1268C12.7673 17.0946 12.99 17.0467 13.2082 16.9833C13.4135 16.9239 13.6139 16.8487 13.8076 16.7583C13.9927 16.671 14.1702 16.5684 14.3385 16.4518C14.5024 16.3375 14.6562 16.2091 14.7977 16.0679C14.9391 15.9267 15.0676 15.7732 15.1822 15.6094C15.2993 15.4413 15.4018 15.2637 15.4889 15.0784C15.5797 14.8846 15.6549 14.6838 15.7139 14.4781C15.7775 14.2593 15.8256 14.0364 15.8576 13.8108C15.8725 13.7303 15.8882 13.6353 15.8963 13.5408C15.9114 13.4521 15.9188 13.3669 15.9267 13.2749L15.9271 13.2708C15.9352 13.1655 15.9429 13.0615 15.9429 12.9557V8.26545C15.9436 8.16286 15.9232 8.06116 15.8836 7.96652C15.844 7.87187 15.7857 7.78616 15.7122 7.7146C15.6411 7.64538 15.5575 7.59058 15.4656 7.5531C15.3716 7.51438 15.2707 7.49445 15.169 7.49454C15.1178 7.49461 15.0668 7.49957 15.0165 7.50937C15.0086 7.50984 15.0009 7.51121 14.9932 7.51344C14.9858 7.5157 14.9782 7.51707 14.9704 7.5175C14.929 7.52605 14.8893 7.53197 14.8443 7.53827C14.8391 7.53903 14.8339 7.53979 14.8287 7.54056C14.7971 7.54521 14.7646 7.54999 14.7313 7.55618C14.6251 7.56653 14.5168 7.57156 14.4088 7.57156C14.1725 7.57113 13.9366 7.5479 13.7048 7.50223L13.6441 7.4874C13.5784 7.4731 13.5138 7.45487 13.4503 7.43291C13.1981 7.37079 12.9559 7.27214 12.7323 7.14001C12.6529 7.09891 12.5759 7.05383 12.5011 7.00499L12.4932 7.00005L12.4624 6.98071C12.0934 6.72744 11.7744 6.40829 11.5211 6.03929L11.4952 5.99963C11.446 5.92549 11.4011 5.84874 11.3603 5.76969C11.2279 5.54621 11.1294 5.30455 11.0672 5.05239C11.0455 4.98944 11.0274 4.92528 11.0131 4.86024C11.0113 4.85341 11.0095 4.84566 11.0076 4.8374C11.0047 4.82498 11.0015 4.81141 10.9977 4.79817C10.9307 4.46051 10.9126 4.11495 10.9441 3.77215C10.9497 3.74159 10.954 3.71212 10.9582 3.68332C10.9593 3.67524 10.9605 3.66721 10.9617 3.65922C10.963 3.65103 10.9642 3.64293 10.9655 3.63489C10.9707 3.60047 10.9759 3.56713 10.9828 3.5332C10.9831 3.52544 10.9842 3.51773 10.9863 3.51024C10.9887 3.50282 10.9904 3.49508 10.9907 3.48728C11.0132 3.37395 11.0101 3.25701 10.9819 3.14495C10.9537 3.03288 10.9011 2.9285 10.8277 2.83931C10.7929 2.79707 10.7538 2.75878 10.7108 2.72505C10.6673 2.69072 10.62 2.66126 10.5701 2.63727C10.4654 2.5869 10.3506 2.56106 10.2344 2.56168H5.54412C5.43927 2.56168 5.33523 2.56885 5.22903 2.57695C5.13588 2.58505 5.0492 2.59274 4.9592 2.60804C4.86515 2.61614 4.76949 2.63187 4.68894 2.64672C4.464 2.67892 4.24182 2.72693 4.02361 2.79031C3.81828 2.84967 3.61787 2.9249 3.42419 3.01531C3.23894 3.10243 3.06146 3.2049 2.89333 3.32172C2.72929 3.43603 2.57533 3.56448 2.43367 3.70558C2.29236 3.84685 2.16398 4.00032 2.04958 4.16415C1.93236 4.33217 1.82928 4.50977 1.74197 4.69512C1.65144 4.88905 1.57621 5.08975 1.51697 5.29541C1.45345 5.5142 1.40577 5.73727 1.37371 5.96283C1.35886 6.04338 1.34313 6.13871 1.33503 6.23276C1.32018 6.32276 1.31237 6.40921 1.30427 6.50281C1.30376 6.50982 1.30325 6.51683 1.30274 6.52383C1.29557 6.62201 1.28845 6.7195 1.28845 6.81778V12.9585C1.28845 13.0629 1.29617 13.1668 1.30427 13.2735C1.31192 13.3671 1.32018 13.4535 1.33503 13.5435C1.34313 13.638 1.35886 13.7329 1.37371 13.8134C1.40577 14.039 1.45345 14.2621 1.51697 14.4809C1.57619 14.6865 1.65142 14.8872 1.74197 15.0812C1.82925 15.2665 1.93234 15.4441 2.04958 15.6121C2.16398 15.776 2.29236 15.9294 2.43367 16.0707C2.57533 16.2118 2.72929 16.3402 2.89333 16.4546C3.06146 16.5714 3.23894 16.6738 3.42419 16.761C3.61787 16.8514 3.81828 16.9266 4.02361 16.986C4.24181 17.0494 4.46399 17.0974 4.68894 17.1296C4.76949 17.1444 4.86515 17.1601 4.9592 17.1682C5.05235 17.1835 5.13903 17.1917 5.22903 17.1989C5.32848 17.2065 5.43612 17.2141 5.54412 17.2141ZM4.72893 13.0155C4.79899 12.9862 4.87405 12.9712 4.94998 12.9711H11.8933C11.9692 12.9712 12.044 12.9863 12.1139 13.0156C12.1839 13.0449 12.2474 13.0877 12.3007 13.1416C12.3548 13.1949 12.3979 13.2583 12.4273 13.3283C12.4566 13.3983 12.472 13.4734 12.4721 13.5493C12.472 13.6252 12.4566 13.7004 12.4273 13.7704C12.3979 13.8404 12.3548 13.9038 12.3007 13.957C12.2474 14.011 12.1839 14.0538 12.1139 14.083C12.044 14.1123 11.9692 14.1274 11.8933 14.1275H4.94998C4.87405 14.1275 4.79899 14.1124 4.72893 14.0832C4.65887 14.0539 4.59555 14.011 4.54216 13.957C4.48823 13.9037 4.44531 13.8402 4.41604 13.7703C4.38677 13.7003 4.37177 13.6252 4.37165 13.5493C4.37177 13.4735 4.38677 13.3984 4.41604 13.3284C4.44531 13.2584 4.48823 13.195 4.54216 13.1416C4.59555 13.0876 4.65887 13.0448 4.72893 13.0155ZM4.50129 9.90824C4.611 9.79853 4.76011 9.73696 4.91526 9.73696H11.8986C11.9754 9.73696 12.0513 9.75206 12.1223 9.78146C12.1933 9.81086 12.2578 9.85392 12.3121 9.90824C12.3665 9.96256 12.4097 10.0271 12.4391 10.0981C12.4685 10.1691 12.4835 10.2451 12.4835 10.3219C12.4835 10.3987 12.4685 10.4748 12.4391 10.5458C12.4097 10.6168 12.3665 10.6813 12.3121 10.7356C12.2578 10.7899 12.1933 10.833 12.1223 10.8624C12.0513 10.8918 11.9754 10.9069 11.8986 10.9069H4.91526C4.76011 10.9069 4.611 10.8453 4.50129 10.7356C4.39158 10.6259 4.32991 10.477 4.32991 10.3219C4.32991 10.1667 4.39158 10.0179 4.50129 9.90824ZM4.72893 6.54631C4.79899 6.51704 4.87405 6.50198 4.94998 6.50193H8.80705C8.88298 6.50201 8.95805 6.51704 9.0281 6.54631C9.09815 6.57558 9.1619 6.61847 9.21531 6.67244C9.26924 6.72577 9.31216 6.78923 9.34143 6.8592C9.3707 6.92918 9.3857 7.00429 9.38581 7.08014C9.3857 7.15599 9.3707 7.2311 9.34143 7.30107C9.31216 7.37105 9.26924 7.4345 9.21531 7.48784C9.1619 7.5418 9.09815 7.58469 9.0281 7.61396C8.95805 7.64324 8.88298 7.65827 8.80705 7.65835H4.94998C4.87405 7.65832 4.79899 7.64324 4.72893 7.61396C4.65887 7.58469 4.59554 7.54184 4.54216 7.48784C4.48823 7.4345 4.44531 7.37105 4.41604 7.30107C4.38677 7.2311 4.37177 7.15599 4.37165 7.08014C4.37177 7.00429 4.38677 6.92918 4.41604 6.8592C4.44531 6.78923 4.48823 6.72577 4.54216 6.67244C4.59555 6.61845 4.65887 6.57559 4.72893 6.54631Z" fill="#191A24" />
    </g>
    <defs>
        <clipPath id="clip0_559_19644">
            <rect width="18" height="18" fill="white" transform="translate(0 0.5)" />
        </clipPath>
    </defs>
</svg>
    