<svg width="18" height="18" viewBox="0 0 12 12" fill="none" xmlns="http://www.w3.org/2000/svg">
    <path fill-rule="evenodd" clip-rule="evenodd" d="M1.87383 10.12C2.12987 10.3649 2.47082 10.4996 2.82428 10.4956C2.85562 10.4956 2.89483 10.4941 2.93215 10.4893H2.95343C2.9806 10.4878 3.01046 10.4863 3.04031 10.4863L4.58144 10.2676C4.957 10.1962 5.30504 10.0199 5.58553 9.75902L9.62493 5.70027C9.84861 5.47943 10.0408 5.22851 10.1961 4.95472C10.3272 4.72197 10.4085 4.46427 10.4348 4.19811C10.4647 3.87443 10.4107 3.54848 10.2783 3.25187C10.12 2.90597 9.89854 2.59305 9.62522 2.32937C9.40392 2.10161 9.15061 1.9075 8.87361 1.75308C8.58885 1.59351 8.269 1.50763 7.94299 1.50317C7.62358 1.52195 7.31114 1.60467 7.02403 1.74656C6.73692 1.88845 6.48105 2.08662 6.27125 2.32937L2.23214 6.38848C2.10071 6.52681 1.99187 6.68516 1.90969 6.85768C1.82384 7.02759 1.76439 7.20972 1.7333 7.3977L1.51581 8.94667C1.48037 9.16217 1.49466 9.38294 1.55779 9.59195C1.61811 9.79145 1.7268 9.97285 1.87383 10.12ZM7.1975 2.43791C7.40412 2.3358 7.62916 2.27628 7.85902 2.26279V2.26425C8.09231 2.26692 8.32116 2.32756 8.5255 2.4407C8.72489 2.55178 8.90728 2.6914 9.06661 2.85526C9.26319 3.04508 9.42265 3.27032 9.53659 3.51922C9.63198 3.73265 9.67065 3.9673 9.64883 4.20024C9.63027 4.39179 9.57182 4.57728 9.4774 4.74473C9.36578 4.94183 9.22754 5.12247 9.06661 5.28147L8.3609 5.97563C7.80161 5.77028 7.29258 5.44143 6.87063 5.01125C6.46999 4.60278 6.15893 4.11407 5.95617 3.57763L6.6558 2.85738C6.80676 2.68267 6.99088 2.54003 7.1975 2.43791ZM5.48403 4.06369L2.68521 6.94498C2.59072 7.04454 2.51233 7.15844 2.45314 7.28249C2.41419 7.4047 2.394 7.53218 2.39337 7.6605C2.37307 7.89511 2.33893 8.28811 2.24847 8.93583C2.22288 9.09089 2.23298 9.24981 2.27821 9.40027C2.31666 9.52667 2.31686 9.52684 2.384 9.58565L2.38433 9.58595L2.41582 9.61414C2.48506 9.69275 2.57944 9.74479 2.68259 9.76144C2.69184 9.76144 2.91513 9.74225 3.21845 9.71075C3.50267 9.68075 3.91704 9.63452 4.27619 9.57752C4.53577 9.55452 4.78296 9.45594 4.98756 9.29377L7.85452 6.47372C7.31318 6.26753 6.82027 5.94502 6.40979 5.52669C6.00169 5.1108 5.68655 4.61171 5.48403 4.06369Z" fill="white" />
</svg>
    