<svg width="14" height="14" viewBox="0 0 14 14" fill="none" xmlns="http://www.w3.org/2000/svg">
    <path d="M6.21406 3.08404C5.49363 3.49986 5.09537 4.33741 5.09537 5.43849V6.47655L1.57166 6.47655C1.55106 6.47412 1.53032 6.4729 1.50958 6.4729C1.44116 6.47274 1.3734 6.48609 1.31015 6.51216C1.2469 6.53824 1.1894 6.57654 1.14098 6.62486C1.09255 6.67319 1.05415 6.7306 1.02795 6.79379C1.00174 6.85699 0.988263 6.92473 0.988281 6.99314C0.988281 7.28131 1.22224 7.52177 1.51033 7.52177C1.5246 7.52177 1.53869 7.52121 1.5526 7.52008L5.09537 7.52008V8.5661C5.09537 9.66717 5.49363 10.5047 6.21406 10.9206C6.94032 11.3365 7.85988 11.2603 8.81452 10.7097L11.5263 9.1459C12.481 8.5954 13.008 7.83399 13.008 7.00236C13.008 6.17073 12.4809 5.40923 11.5263 4.85281L8.81452 3.28906C8.26988 2.97278 7.73098 2.81463 7.23899 2.81463C6.87001 2.8146 6.52452 2.90245 6.21406 3.08404ZM6.761 10.0173C6.34138 9.77676 6.11209 9.23415 6.11209 8.49573L6.11209 5.50851C6.11209 4.77017 6.34138 4.2275 6.761 3.98695C7.18061 3.74641 7.76233 3.81917 8.40568 4.18838L10.9957 5.68198C11.6389 6.0511 11.9914 6.52104 11.9914 7.0021C11.9914 7.48316 11.6389 7.95309 10.9957 8.3223L8.40568 9.81589C8.0141 10.0453 7.64496 10.1571 7.32036 10.1571C7.12489 10.16 6.93206 10.1118 6.76095 10.0173L6.761 10.0173Z" fill="#C6C2DE" />
</svg>
    