<svg width="16" height="16" viewBox="0 0 16 16" fill="none" xmlns="http://www.w3.org/2000/svg">
    <path d="M9.10049 7.38757C9.04903 7.5221 9.03635 7.63487 9.07796 7.75572C9.11062 7.85061 9.17206 7.93294 9.25375 7.99123C9.33543 8.04952 9.43327 8.08087 9.53362 8.08091C9.58704 8.08088 9.64007 8.07196 9.69055 8.05452C10.4507 7.3946 10.8407 7.35744 11.659 7.37672C11.7799 7.33511 11.8792 7.2472 11.9353 7.13232C11.9913 7.01745 11.9994 6.88502 11.9578 6.76417C11.9162 6.64332 11.8401 6.55641 11.7134 6.48792C11.1103 6.16193 9.394 6.6202 9.10049 7.38757Z" fill="#2F2F3D" />
    <path d="M6.8873 7.7558C6.9289 7.63495 6.91622 7.52218 6.86476 7.38765C6.57125 6.62028 4.85497 6.16201 4.25183 6.48799C4.12511 6.55648 4.04905 6.6434 4.00744 6.76425C3.96584 6.8851 3.97394 7.01752 4.02997 7.1324C4.08601 7.24727 4.18538 7.33519 4.30623 7.37679C5.12455 7.35752 5.51452 7.39468 6.2747 8.05459C6.32519 8.07204 6.37822 8.08096 6.43163 8.08099C6.53198 8.08095 6.62982 8.0496 6.71151 7.99131C6.79319 7.93301 6.85463 7.85068 6.8873 7.7558Z" fill="#2F2F3D" />
    <path fill-rule="evenodd" clip-rule="evenodd" d="M14.0409 12.9007C14.0829 12.9479 14.1345 12.9857 14.1922 13.0116C14.2538 13.0389 14.3206 13.0527 14.388 13.0521C14.4553 13.0526 14.5219 13.0387 14.5834 13.0114C14.6411 12.9855 14.6926 12.9477 14.7347 12.9005C14.8224 12.7989 14.8696 12.6686 14.867 12.5344V4.78917C14.8672 4.71646 14.8519 4.64453 14.8222 4.57816C14.8555 4.38088 14.8716 4.25485 14.869 4.21358C14.8653 4.1282 14.8403 4.04509 14.7963 3.97183C14.7727 3.93417 14.7437 3.90019 14.7102 3.87098C14.672 3.83787 14.6296 3.80994 14.5841 3.7879C14.5272 3.76017 14.4669 3.73987 14.4048 3.72751C14.34 3.71482 14.2741 3.70862 14.2081 3.709C14.1232 3.70959 14.0384 3.71712 13.9547 3.73154C13.8723 3.74513 13.7839 3.76461 13.6848 3.79118C13.5005 3.84066 13.3043 3.90811 13.1145 3.97344C12.7388 4.10266 12.3503 4.23619 12.0049 4.25076C11.9823 4.25175 11.9585 4.25221 11.934 4.25221C11.8233 4.25221 11.7081 4.24286 11.5864 4.23299L11.5837 4.23278C11.4657 4.22316 11.3436 4.21321 11.2232 4.21207C11.2061 4.21184 11.1889 4.21184 11.172 4.21184C11.0241 4.21176 10.8762 4.21948 10.7291 4.23497C10.6433 4.24458 10.557 4.24986 10.4706 4.25076C10.241 4.25187 10.0124 4.28072 9.78974 4.33666C9.55772 4.39469 9.33227 4.47641 9.11696 4.58054C8.66932 4.79727 8.26563 5.09493 7.92624 5.45849C7.58691 5.0949 7.18321 4.79724 6.73556 4.58054C6.52026 4.4764 6.29483 4.39468 6.0628 4.33666C5.84012 4.28072 5.61149 4.25187 5.38189 4.25076C5.29551 4.24985 5.20923 4.24458 5.12338 4.23497C4.97636 4.21947 4.82863 4.21175 4.6808 4.21184C4.66387 4.21184 4.64658 4.21192 4.62935 4.21207C4.50892 4.21321 4.38661 4.22314 4.26864 4.23278L4.26469 4.2331C4.14346 4.24293 4.02896 4.25221 3.91862 4.25221C3.8941 4.25221 3.87028 4.25175 3.84774 4.25076C3.50228 4.23621 3.11362 4.1026 2.73803 3.97344L2.73685 3.97304C2.54753 3.90789 2.35185 3.84056 2.16792 3.79125C2.06889 3.76469 1.98064 3.7451 1.89817 3.73161C1.81446 3.7172 1.72969 3.70966 1.64475 3.70908C1.57871 3.7087 1.51281 3.71489 1.448 3.72758C1.38594 3.73993 1.32573 3.76023 1.26886 3.78798C1.22332 3.81003 1.18087 3.83796 1.1426 3.87106C1.10914 3.90029 1.08015 3.93426 1.05655 3.9719C1.01254 4.04516 0.987587 4.12827 0.983941 4.21366C0.977349 4.31594 1.08113 4.87954 1.17204 5.33109C1.26968 5.81601 1.39736 6.39609 1.46263 6.59883C1.53844 6.83211 1.62784 7.06076 1.73035 7.28361C1.83589 7.51464 1.95751 7.74828 2.09181 7.9781C2.22671 8.209 2.37439 8.43572 2.53053 8.65197C2.68622 8.86809 2.85296 9.07601 3.0301 9.27491C3.20025 9.46636 3.3819 9.64725 3.57406 9.8166C3.75311 9.97477 3.94435 10.1186 4.14601 10.2467C4.55339 10.5023 4.94439 10.6384 5.30813 10.6512C5.35201 10.6527 5.39638 10.6534 5.44008 10.6534C5.67545 10.6534 5.91032 10.6313 6.14158 10.5876C6.36742 10.5447 6.58881 10.4811 6.80292 10.3975C7.01247 10.3156 7.21384 10.2142 7.40437 10.0946C7.59119 9.97731 7.766 9.8419 7.92626 9.69033C8.08654 9.84193 8.26137 9.97737 8.44821 10.0947C8.63876 10.2143 8.84011 10.3156 9.04964 10.3975C9.26374 10.4812 9.48515 10.5448 9.71099 10.5876C9.94228 10.6314 10.1772 10.6534 10.4126 10.6535C10.4563 10.6535 10.5006 10.6527 10.5444 10.6512C10.8274 10.6413 11.1291 10.5559 11.4412 10.3975C11.7324 10.2496 12.0309 10.0393 12.3284 9.77237C12.6262 9.50207 12.8996 9.20602 13.1453 8.88766C13.3995 8.56101 13.6289 8.21579 13.8315 7.8549L13.9049 7.65938L13.9086 12.5346C13.9061 12.6687 13.9532 12.7991 14.0409 12.9007ZM2.17756 5.17236C2.22744 5.12427 2.28846 5.08932 2.35518 5.07062C2.50346 5.02229 2.69055 4.99877 2.92754 4.99895C3.19521 4.99895 3.4947 5.02896 3.78451 5.058L3.79067 5.05862C4.0347 5.08309 4.28678 5.10837 4.51352 5.11465C4.53229 5.11517 4.55231 5.11548 4.57278 5.11548C4.6657 5.11548 4.76222 5.11027 4.86437 5.10476L4.86954 5.10448C4.96708 5.09925 5.06789 5.09384 5.16751 5.09325C5.18101 5.0931 5.19517 5.0931 5.20928 5.0931H5.21022C5.37688 5.0931 5.48498 5.09989 5.58027 5.10587L5.58089 5.10591C5.6554 5.11064 5.71974 5.11465 5.79735 5.11465C6.05601 5.11465 6.34359 5.21169 6.67639 5.41132C6.9659 5.58484 7.25088 5.81283 7.50246 6.0141L7.50974 6.01993C7.65815 6.13856 7.79829 6.25058 7.92632 6.34133C8.05566 6.24969 8.19732 6.13638 8.34735 6.01638L8.34825 6.01566L8.3491 6.01498C8.60091 5.81344 8.88637 5.58512 9.17637 5.41123C9.50917 5.21167 9.79667 5.11463 10.0554 5.11463C10.133 5.11463 10.1974 5.1106 10.2718 5.10589L10.2727 5.10584C10.3679 5.09986 10.4759 5.09307 10.6425 5.09307C10.6498 5.09307 10.6571 5.09311 10.6643 5.09315C10.6714 5.09319 10.6784 5.09323 10.6853 5.09323C10.7853 5.09382 10.8869 5.09927 10.9848 5.10453L10.9888 5.10474C11.0908 5.11025 11.1872 5.11546 11.28 5.11546C11.3005 5.11546 11.3204 5.11517 11.3393 5.11463C11.567 5.10838 11.8205 5.08292 12.0655 5.05826L12.0679 5.05802C12.3578 5.02897 12.6575 4.99893 12.9253 4.99893C13.162 4.99893 13.3491 5.02247 13.4974 5.07079C13.5641 5.08949 13.6252 5.12444 13.675 5.17253C13.7099 5.20884 13.7314 5.25598 13.7358 5.30615C13.7374 5.32223 13.7362 5.43612 13.7352 5.52564L13.7351 5.53894V5.54379C13.7346 5.58188 13.7342 5.61207 13.7342 5.62429L12.9899 7.31297C12.9899 7.31297 12.7029 7.86818 12.6123 7.98298L12.6117 7.98389L12.6093 7.98687C12.4632 8.17204 12.298 8.3815 12.1254 8.56798C11.9265 8.78294 11.7475 8.93538 11.5784 9.03395C11.0719 9.32918 10.5666 9.49072 10.1173 9.50111C10.1011 9.50148 10.0853 9.5017 10.0689 9.5017C9.23598 9.5017 8.44804 9.00781 7.92653 8.68093C7.88628 8.70618 7.84573 8.73157 7.79718 8.76229C7.26603 9.09874 6.53853 9.55946 5.77886 9.55946C5.76629 9.55946 5.75289 9.5593 5.73545 9.55892C5.49811 9.55092 5.26309 9.50939 5.03739 9.43555C4.79507 9.35702 4.56128 9.2543 4.33955 9.12893C4.12922 9.00753 3.93455 8.86083 3.75988 8.69211C3.57367 8.51448 3.40096 8.3232 3.24324 8.11985C3.09113 7.92523 2.94956 7.7226 2.81914 7.51283C2.70944 7.33763 2.60867 7.15699 2.51722 6.97161C2.46306 6.86046 2.35625 6.44708 2.27415 6.0973C2.17967 5.69454 2.11199 5.35438 2.1167 5.30597C2.12118 5.25581 2.14265 5.20867 2.17756 5.17236Z" fill="#2F2F3D" />
</svg>
    