<svg width="100%" height="100%" viewBox="0 0 1028 717" fill="none" xmlns="http://www.w3.org/2000/svg">
    <path fill-rule="evenodd" clip-rule="evenodd" d="M1.39671 660.439C29.4699 551.88 313.537 613.724 499.768 580.163C686 546.602 906.327 390.301 1052.14 466.865C1197.96 543.429 1042.81 728.507 708.372 770.272C373.932 812.038 -26.6765 768.997 1.39671 660.439Z" fill="#F2F2F2" />
    <g clip-path="url(#clip0_31383_27965)">
        <path fill-rule="evenodd" clip-rule="evenodd" d="M462.72 60.2865C460.663 62.4615 457.749 63.8273 454.508 63.8273C448.281 63.8273 443.233 58.8151 443.233 52.6323C443.233 46.4494 448.281 41.4372 454.508 41.4372V20.6464C436.793 20.6464 422.293 35.0432 422.293 52.6323C422.293 70.2213 436.793 84.6182 454.508 84.6182C463.814 84.6182 472.224 80.7095 477.956 74.4914L462.72 60.2865Z" fill="#F2F2F2" />
        <path fill-rule="evenodd" clip-rule="evenodd" d="M453.863 20.6464V41.7072C460.126 41.7072 465.204 46.7845 465.204 53.0477H486.265C486.265 35.2302 471.681 20.6464 453.863 20.6464Z" fill="#42A5FF" />
        <path fill-rule="evenodd" clip-rule="evenodd" d="M464.906 52.2169C464.906 55.873 463.184 59.1229 460.51 61.2212L473.668 77.9718C481.327 71.9749 486.264 62.6791 486.264 52.2169H464.906Z" fill="#C5CFD6" />
        <path d="M687.319 112.866C696.496 112.866 703.935 105.426 703.935 96.2495C703.935 87.0727 696.496 79.6334 687.319 79.6334C678.142 79.6334 670.703 87.0727 670.703 96.2495C670.703 105.426 678.142 112.866 687.319 112.866Z" fill="#C1DEE2" />
        <path d="M462.587 285.672C468.781 285.672 473.803 280.651 473.803 274.457C473.803 268.262 468.781 263.241 462.587 263.241C456.392 263.241 451.371 268.262 451.371 274.457C451.371 280.651 456.392 285.672 462.587 285.672Z" fill="#89C5CC" />
        <path d="M525.728 107.05C531.922 107.05 536.944 102.028 536.944 95.834C536.944 89.6397 531.922 84.6182 525.728 84.6182C519.533 84.6182 514.512 89.6397 514.512 95.834C514.512 102.028 519.533 107.05 525.728 107.05Z" fill="#56919C" />
        <path d="M503.296 269.056C509.49 269.056 514.512 264.035 514.512 257.841C514.512 251.646 509.49 246.625 503.296 246.625C497.102 246.625 492.08 251.646 492.08 257.841C492.08 264.035 497.102 269.056 503.296 269.056Z" fill="#56919C" />
        <path d="M544.005 193.453C552.494 193.453 559.375 186.572 559.375 178.083C559.375 169.595 552.494 162.714 544.005 162.714C535.517 162.714 528.635 169.595 528.635 178.083C528.635 186.572 535.517 193.453 544.005 193.453Z" fill="#C1DEE2" />
        <path d="M659.072 131.974C671.46 131.974 681.503 121.931 681.503 109.542C681.503 97.1536 671.46 87.1106 659.072 87.1106C646.683 87.1106 636.64 97.1536 636.64 109.542C636.64 121.931 646.683 131.974 659.072 131.974Z" fill="#89C5CC" />
        <path d="M440.155 246.625C446.349 246.625 451.371 241.603 451.371 235.409C451.371 229.215 446.349 224.193 440.155 224.193C433.961 224.193 428.939 229.215 428.939 235.409C428.939 241.603 433.961 246.625 440.155 246.625Z" fill="#C1DEE2" />
        <path d="M416.893 293.15C421.252 293.15 424.785 289.616 424.785 285.257C424.785 280.898 421.252 277.364 416.893 277.364C412.534 277.364 409 280.898 409 285.257C409 289.616 412.534 293.15 416.893 293.15Z" fill="#C1DEE2" />
        <path d="M503.712 223.362C508.3 223.362 512.02 219.643 512.02 215.054C512.02 210.466 508.3 206.746 503.712 206.746C499.123 206.746 495.404 210.466 495.404 215.054C495.404 219.643 499.123 223.362 503.712 223.362Z" fill="#C1DEE2" />
        <path d="M578.484 205.085C586.284 205.085 592.607 198.761 592.607 190.961C592.607 183.161 586.284 176.837 578.484 176.837C570.683 176.837 564.36 183.161 564.36 190.961C564.36 198.761 570.683 205.085 578.484 205.085Z" fill="#C1DEE2" />
        <path d="M584.299 146.098C592.1 146.098 598.423 139.774 598.423 131.974C598.423 124.174 592.1 117.85 584.299 117.85C576.499 117.85 570.176 124.174 570.176 131.974C570.176 139.774 576.499 146.098 584.299 146.098Z" fill="#C1DEE2" />
        <path d="M473.803 206.746C481.603 206.746 487.926 200.423 487.926 192.623C487.926 184.822 481.603 178.499 473.803 178.499C466.002 178.499 459.679 184.822 459.679 192.623C459.679 200.423 466.002 206.746 473.803 206.746Z" fill="#89C5CC" />
        <path d="M626.67 171.852C635.847 171.852 643.286 164.413 643.286 155.236C643.286 146.06 635.847 138.62 626.67 138.62C617.493 138.62 610.054 146.06 610.054 155.236C610.054 164.413 617.493 171.852 626.67 171.852Z" fill="#89C5CC" />
        <path d="M693.134 14H608.393C606.557 14 605.069 15.4879 605.069 17.3232V23.9696C605.069 25.805 606.557 27.2928 608.393 27.2928H693.134C694.97 27.2928 696.458 25.805 696.458 23.9696V17.3232C696.458 15.4879 694.97 14 693.134 14Z" fill="#393F82" />
        <path d="M659.902 33.9392H608.393C606.557 33.9392 605.069 35.4271 605.069 37.2624V43.9088C605.069 45.7442 606.557 47.2321 608.393 47.2321H659.902C661.738 47.2321 663.226 45.7442 663.226 43.9088V37.2624C663.226 35.4271 661.738 33.9392 659.902 33.9392Z" fill="#C1DEE2" />
        <path d="M673.195 53.8785H608.393C606.557 53.8785 605.069 55.3664 605.069 57.2018V63.8482C605.069 65.6835 606.557 67.1714 608.393 67.1714H673.195C675.031 67.1714 676.518 65.6835 676.518 63.8482V57.2018C676.518 55.3664 675.031 53.8785 673.195 53.8785Z" fill="#C1DEE2" />
        <path d="M413.985 369.583C413.985 368.207 412.869 367.091 411.492 367.091C410.116 367.091 409 368.207 409 369.583V385.369C409 386.745 410.116 387.861 411.492 387.861C412.869 387.861 413.985 386.745 413.985 385.369V369.583Z" fill="#42A5FF" />
        <path d="M425.616 356.291C425.616 354.914 424.5 353.798 423.124 353.798C421.747 353.798 420.631 354.914 420.631 356.291V385.369C420.631 386.745 421.747 387.861 423.124 387.861C424.5 387.861 425.616 386.745 425.616 385.369V356.291Z" fill="#42A5FF" />
        <path d="M437.247 349.644C437.247 348.268 436.131 347.152 434.755 347.152C433.378 347.152 432.262 348.268 432.262 349.644V385.369C432.262 386.745 433.378 387.861 434.755 387.861C436.131 387.861 437.247 386.745 437.247 385.369V349.644Z" fill="#42A5FF" />
        <path d="M448.879 356.291C448.879 354.914 447.763 353.798 446.386 353.798C445.01 353.798 443.894 354.914 443.894 356.291V385.369C443.894 386.745 445.01 387.861 446.386 387.861C447.763 387.861 448.879 386.745 448.879 385.369V356.291Z" fill="#42A5FF" />
        <path d="M460.51 342.998C460.51 341.621 459.394 340.505 458.017 340.505C456.641 340.505 455.525 341.621 455.525 342.998V385.369C455.525 386.745 456.641 387.861 458.017 387.861C459.394 387.861 460.51 386.745 460.51 385.369V342.998Z" fill="#393F82" />
        <path fill-rule="evenodd" clip-rule="evenodd" d="M658.241 373.336C658.241 359.851 669.085 348.813 682.334 348.813V373.336L665.869 391.184C661.185 386.821 658.241 380.419 658.241 373.336Z" fill="#F2F2F2" />
        <path fill-rule="evenodd" clip-rule="evenodd" d="M681.414 372.907H705.596C705.596 379.196 703.046 385.09 699.015 389.372C694.581 394.056 688.267 397 681.414 397C675.101 397 669.322 394.459 664.887 390.443L681.414 372.907Z" fill="#AFB9C5" />
        <path fill-rule="evenodd" clip-rule="evenodd" d="M706.427 372.907C706.427 359.658 695.583 348.813 682.334 348.813V372.907H706.427ZM670.287 348.813L679.925 370.497L658.241 360.86C660.385 355.239 665.2 350.958 670.287 348.813Z" fill="#8991DC" />
        <path fill-rule="evenodd" clip-rule="evenodd" d="M758.265 288L697.96 480.893L653.961 623.066H621.871L668.625 288H758.265Z" fill="#191847" />
        <path fill-rule="evenodd" clip-rule="evenodd" d="M774.392 288C775.787 387.419 780.543 441.646 782.007 450.678C783.472 459.711 805.616 517.174 848.44 623.066H815.196C760.678 521.48 730.244 464.018 723.896 450.678C717.547 437.339 697.954 383.113 668.444 288H774.392Z" fill="#393F82" />
        <path fill-rule="evenodd" clip-rule="evenodd" d="M851.412 650.357L849.749 618.518H814.818C798.255 629.131 776.632 637.722 749.948 644.292V650.357H813.155L834.778 647.324V650.357H851.412Z" fill="#191847" />
        <path fill-rule="evenodd" clip-rule="evenodd" d="M658.464 650.357L656.801 618.518H621.871C605.308 629.131 583.684 637.722 557 644.292V650.357H620.207L641.831 647.324V650.357H658.464Z" fill="#191847" />
        <path fill-rule="evenodd" clip-rule="evenodd" d="M749.159 54.7961C735.051 68.2344 723.307 108.648 734.105 114.555C738.411 116.911 749.235 116.765 761.178 113.71L741.373 154.159L778.872 164.026L783.983 104.221C793.713 98.1937 801.687 89.7672 804.348 78.6742C812.015 46.7107 763.267 41.3579 749.159 54.7961Z" fill="#57331F" />
        <path fill-rule="evenodd" clip-rule="evenodd" d="M824.145 72.9852C825.726 72.1746 826.907 70.7351 827.972 69.3533C829.078 67.918 830.173 66.4617 831.099 64.9085C832.95 61.8051 834.175 57.9984 832.474 54.7633C831.109 52.169 828.369 50.4456 825.631 49.5077C823.807 48.8827 821.812 48.6232 819.846 48.7035C817.896 48.7831 816.017 49.4697 814.08 49.6931C815.155 46.1069 815.696 42.2008 814.736 38.645C813.813 35.2237 811.373 32.7982 808.133 31.4744C804.809 30.1158 801.142 29.9751 797.535 30.7306C796.632 30.9199 795.731 31.1299 794.845 31.4029C794.103 31.6315 793.311 31.9336 792.536 31.9022C791.672 31.8674 791.412 31.3257 791.064 30.6365C790.655 29.8283 790.144 29.0768 789.573 28.3792C787.044 25.2952 783.084 23.2591 778.901 23.6089C776.973 23.77 774.956 24.374 773.321 25.5074C771.864 26.5177 770.465 28.3606 768.735 28.8763C768 29.0954 767.729 28.4778 767.289 27.9587C766.63 27.1789 766.028 26.3514 765.353 25.5841C764.406 24.5062 763.299 23.5951 762.013 22.9324C760.13 21.9622 757.302 21.3298 755.931 23.6584C755.416 24.5332 755.264 25.5735 755.034 26.5308C754.718 27.8453 754.407 29.1605 754.115 30.4792C753.893 31.4804 753.706 32.4546 753.596 33.4662C753.538 34.0055 753.562 35.0458 753.164 35.4965C752.666 36.0599 751.431 35.3404 750.847 35.2109C749.693 34.9551 748.488 34.8412 747.288 35.0202C746.357 35.159 745.332 35.4531 744.707 36.2395C744.323 36.7224 744.202 37.2905 744.125 37.8711C744.032 38.5679 743.782 38.8846 743.478 39.5321C742.172 38.4232 737.367 35.4585 735.877 37.853C735.381 38.6503 735.579 39.7504 735.734 40.5737C736.007 42.0178 736.525 43.4084 737.081 44.7506C738.239 47.5506 739.866 50.1306 741.756 52.4684C738.526 52.9054 736.663 56.2098 738.465 58.9441C739.26 60.1514 740.659 60.7417 742.053 61.0442C742.563 61.155 743.346 61.1646 743.715 61.3508C743.914 61.4509 744.088 61.68 744.377 61.7765C746.277 62.411 748.607 62.5493 750.632 62.6449C754.24 62.8153 757.918 62.1575 761.26 60.5615C762.117 60.1521 762.778 59.9606 763.677 60.2064C764.465 60.4217 765.176 60.8286 765.96 61.055C768.033 61.6544 770.222 61.1934 772.366 61.067C771.7 63.5525 771.583 66.4518 771.949 68.9418C772.248 70.9722 773.99 71.714 775.733 72.3438C781.309 74.358 787.246 75.308 792.988 76.8261C787.051 76.5407 781.15 75.5147 775.196 75.4503C772.505 75.4211 773.905 77.4936 774.622 78.8636C775.802 81.1197 776.395 83.6865 776.551 86.2671C780.332 83.6622 785.839 82.7389 789.773 84.8791C794.119 87.2437 795.528 94.0753 791.149 97.5686C788.607 99.5965 785.145 99.7269 782.178 100.105C783.588 102.638 783.143 105.713 783.582 108.518C783.799 109.901 784.211 111.509 785.434 112.293C785.887 112.583 786.472 112.752 786.746 113.24C787.086 113.845 787.033 114.407 787.53 114.981C789.514 117.271 793.468 118.174 796.368 116.63C798.992 115.233 799.443 112.05 798.39 109.657C801.392 109.317 806.684 109.256 806.868 105.082C812.767 106.244 829.62 101.152 823.908 92.6909C828.89 91.5565 834.566 87.075 833.382 81.4973C832.47 77.2023 828.103 74.2411 824.145 72.9852Z" fill="#E8E1E1" />
        <path fill-rule="evenodd" clip-rule="evenodd" d="M839.641 275.765L809.249 275.354C822.476 339.479 829.669 373.507 830.825 377.437C833.428 386.279 825.149 399.529 821.482 406.663C830.991 411.513 831.436 394.185 843.412 400.536C854.343 406.333 862.149 416.625 876.082 408.284C877.795 407.259 879.917 403.321 875.892 400.144C865.865 392.228 851.623 378.432 849.926 373.944C847.612 367.824 844.184 335.097 839.641 275.765ZM567.988 165.307L568.287 166.241C570.762 174.042 572.867 182.113 570.484 184.098C568.006 186.162 563.52 182.248 560.36 185.802C558.253 188.171 566.195 193.374 584.186 201.411L613.749 241.224L636.02 222.675L591.704 187.31C585.384 175.811 578.751 166.657 571.804 159.847C569.555 158.442 565.39 157.228 567.988 165.307Z" fill="#57331F" />
        <path fill-rule="evenodd" clip-rule="evenodd" d="M765.964 138.998L754.25 133.999C720.03 155.124 691.311 217.999 671.083 222.599C651.958 226.948 630.154 213.603 604.583 196.462L590.322 214.858C608.237 249.989 656.634 287.209 682.816 278.157C724.676 263.685 754.843 184.946 765.964 138.998Z" fill="#fbb03b" />
        <path fill-rule="evenodd" clip-rule="evenodd" d="M776.541 313.26C727.327 302.148 691.126 293.975 667.938 288.739C662.975 287.619 665.947 280.363 667.692 276.757C687.833 235.142 732.939 195.564 749.823 133.664L782.546 135.619C796.612 184.892 790.989 240.377 776.541 313.26Z" fill="#E5E9F0" />
        <path fill-rule="evenodd" clip-rule="evenodd" d="M771.182 137.651C717.86 227.683 692.91 290.058 696.333 324.778L790.481 346.021C795.377 322.285 797.355 296.461 797.398 270.857C807.788 315.722 817.84 348.602 827.554 369.498L850.698 369.973C861.467 275.581 838.944 199.039 783.127 140.346L771.182 137.651Z" fill="#fbb03b" />
    </g>
    <defs>
        <clipPath id="clip0_31383_27965">
            <rect width="502" height="647" fill="white" transform="matrix(-1 0 0 1 892 0)" />
        </clipPath>
    </defs>
</svg>