<svg width="17" height="18" viewBox="0 0 17 18" fill="none" xmlns="http://www.w3.org/2000/svg">
    <path d="M7.95896 13.4737C7.13562 12.9985 6.68046 12.0413 6.68046 10.7829V9.59656H2.65337C2.62982 9.59933 2.60612 9.60072 2.58241 9.60072C2.50423 9.6009 2.42678 9.58565 2.3545 9.55585C2.28221 9.52605 2.2165 9.48228 2.16116 9.42705C2.10582 9.37182 2.06193 9.30622 2.03198 9.23399C2.00203 9.16177 1.98663 9.08435 1.98665 9.00616C1.98665 8.67683 2.25403 8.40202 2.58328 8.40202C2.59959 8.40202 2.61569 8.40266 2.63159 8.40395H6.68046V7.2085C6.68046 5.95013 7.13562 4.99291 7.95896 4.51769C8.78898 4.04238 9.83991 4.12942 10.9309 4.75866L14.0301 6.54587C15.1212 7.17502 15.7235 8.0452 15.7235 8.99563C15.7235 9.94607 15.1211 10.8163 14.0301 11.4523L10.9309 13.2394C10.3085 13.6009 9.69259 13.7816 9.13031 13.7816C8.70862 13.7816 8.31378 13.6812 7.95896 13.4737ZM8.58404 5.55C8.10448 5.82489 7.84243 6.44501 7.84243 7.28892V10.7029C7.84243 11.5467 8.10448 12.1669 8.58404 12.4418C9.06359 12.7167 9.72842 12.6336 10.4637 12.2116L13.4237 10.5046C14.1588 10.0828 14.5616 9.5457 14.5616 8.99592C14.5616 8.44614 14.1588 7.90908 13.4237 7.48713L10.4637 5.78016C10.0162 5.518 9.59428 5.39017 9.22331 5.39017C8.99992 5.38685 8.77953 5.44194 8.58398 5.54998L8.58404 5.55Z" fill="#2F2F3D" />
</svg>
    