<svg width="100%" height="100%" viewBox="0 0 757 723" fill="none" xmlns="http://www.w3.org/2000/svg">
    <g opacity="0.6">
        <path fill-rule="evenodd" clip-rule="evenodd" d="M836.635 682.511C848.836 758.722 552.948 808.432 298.27 773.741C43.5925 739.05 -73.2415 603.576 48.2864 531.39C169.814 459.204 824.434 606.3 836.635 682.511Z" fill="#DDE3E9" />
    </g>
    <path d="M316 195.194H208V200.194H316V195.194Z" fill="#96BFE6" />
    <path d="M301 212.194H223V217.194H301V212.194Z" fill="#96BFE6" />
    <path d="M322.056 105.695C316.876 91.9886 304.429 85.6955 298.553 83.7343C296.463 83.0395 292.723 81.82 288.785 80.5457C281.689 78.253 273.937 75.7584 273.937 75.7584H249.452C249.452 75.7584 240.973 78.6004 231.962 81.758C231.962 81.759 231.962 81.76 231.962 81.761C231.962 81.7619 231.961 81.7628 231.96 81.7636C231.96 81.7643 231.959 81.7649 231.958 81.7653C231.957 81.7657 231.956 81.766 231.955 81.766C223.655 84.6764 214.914 87.8507 211.964 89.334C205.81 92.4066 195.458 114.374 193.363 116.892C192.282 118.189 187.479 126.744 182.753 136.303H209.133C211.921 131.516 214.067 127.798 214.067 127.798C214.067 127.798 215.735 131.458 217.758 136.303H302.262C303.598 130.681 304.432 123.601 304.432 123.601C304.432 123.601 308.956 129.755 313.897 136.303H338.251C332.326 126.365 324.975 113.431 322.056 105.695Z" fill="#385369" />
    <path d="M264.612 8.47706C264.612 8.47706 283.756 11.4927 280.842 41.4463C277.927 71.3999 261.03 68.9442 259.901 68.9147C258.771 68.8851 242.938 69.461 241.704 32.8894C241.703 32.8894 241.164 5.84554 264.612 8.47706Z" fill="#EEA886" />
    <path d="M281.137 32.9817C281.137 32.9817 283.233 30.743 284.003 33.0098C284.773 35.2766 281.143 45.3875 281.013 45.8596C281.013 45.8596 280.63 46.739 280.127 46.2553C279.624 45.7717 281.137 32.9817 281.137 32.9817Z" fill="#EEA886" />
    <path d="M242.22 32.6069C242.22 32.6069 240.166 30.3278 239.354 32.5795C238.541 34.8312 241.942 45.0077 242.093 45.4855C242.093 45.4855 242.458 46.3713 242.971 45.8978C243.483 45.4242 242.22 32.6069 242.22 32.6069Z" fill="#EEA886" />
    <path d="M281.129 37.5794L278.39 41.2438C278.39 41.2438 278.467 33.2109 278.029 31.951C277.592 30.6911 276.916 26.8429 276.549 25.9362C276.181 25.0295 260.109 20.5247 245.912 27.2516C245.912 27.2516 246.537 33.0285 245.176 33.5424C243.815 34.0563 244.483 42.9506 244.483 42.9506L242.23 40.4077C242.23 40.4077 238.781 17.3627 239.635 14.9611C240.489 12.5595 246.375 -6.07206 275.5 2.5C275.5 2.5 281.408 4.7673 283.229 11.0365C285.049 17.3057 281.129 37.5794 281.129 37.5794Z" fill="#434343" />
    <path d="M276.309 75.2178C276.301 75.1911 273.853 74.0112 273.853 74.0112C272.661 71.3444 273.547 60.0918 273.547 60.0918C273.547 60.0918 249.163 53.886 249.859 58.6315C250.556 63.377 247.758 74.4019 247.758 74.4019L235.25 80.6127C235.25 80.6127 248.578 116.399 263.896 111.782C279.213 107.166 284.997 79.3225 284.997 79.3225L276.309 75.2178Z" fill="#EEA886" />
    <path d="M250.212 63.9032C251.542 65.4615 253.188 66.7194 255.041 67.5935C256.893 68.4675 258.911 68.9378 260.959 68.9731C265.444 68.9731 268.664 67.716 273.132 63.359C273.132 63.359 271.195 71.6327 260.989 72.4025C260.99 72.4039 253.587 73.3445 250.212 63.9032Z" fill="#A77860" />
    <path d="M316.407 39.0441V42.3336H335.778V60.5128H339.067V39.0441H316.407ZM184.867 60.5128H188.157V42.3336H207.527V39.0441H184.868L184.867 60.5128ZM335.776 154.317V172.503H316.406V175.793H339.065V154.314L335.776 154.317ZM188.157 154.317H184.867V175.796H207.528V172.506H188.158L188.157 154.317Z" fill="#3869FF" />
    <path d="M352.403 265.07L341.809 254.475L344.999 251.284L352.403 258.687L362.779 248.309L365.971 251.501L352.403 265.07Z" fill="#3869FF" />
    <path d="M414.702 177.229L357.971 208.414L301 118.76L369.906 94.8247L414.702 177.229Z" fill="#292C47" />
    <path d="M411.105 174.536L358.051 203.698L304.773 119.856L369.212 97.4717L411.105 174.536Z" fill="white" />
    <path d="M430.536 158.856C430.536 158.856 420.662 154.134 416.328 151.665C411.994 149.196 400.845 145.808 399.944 145.004C399.043 144.2 366.894 142.216 364.944 140.534C362.994 138.852 361.098 144.477 369.431 146.302C377.764 148.127 389.358 152.59 389.992 155.846C390.626 159.102 381.434 159.874 380.503 162.557C379.572 165.24 380.764 164.637 382.082 165.213C383.4 165.789 393.016 160.463 397.244 161.974C401.472 163.485 407.936 161.393 411.178 162.502C414.42 163.611 430.178 168.914 430.178 168.914L430.536 158.856Z" fill="#EEA886" />
    <path d="M363.226 216.95C351.51 201.285 346.915 189.698 342.902 186.575C338.889 183.452 331.354 174.265 330.245 173.73C329.136 173.195 314.745 143.671 312.403 142.489C310.061 141.307 314.622 137.33 319.586 144.471C324.55 151.612 333.271 160.801 336.586 160.131C339.901 159.461 337.05 150.497 339.214 148.575C341.378 146.653 341.277 148.012 342.332 149.029C343.387 150.046 342.113 161.182 345.184 164.579C348.255 167.976 348.799 174.879 351.107 177.504C353.415 180.129 364.548 192.913 364.548 192.913L387.848 218.319L391.131 192.913L411.105 224.886L397.949 247.786C397.242 249.031 396.07 249.946 394.691 250.332C392.645 250.694 392.728 250.711 390.61 249.426C388.492 248.141 388.5 247.818 386.218 245.19C381.37 239.611 371.517 228.042 363.226 216.95Z" fill="#EEA886" />
    <path d="M533.851 596.22C533.851 596.22 535.645 608.675 535.87 610.545C536.095 612.415 555.831 609.445 555.831 609.445L557.431 594.618C557.431 594.618 536.323 594.463 533.851 596.22Z" fill="#424773" />
    <path d="M535.664 608.962C535.664 608.962 529.411 616.468 523.364 619.738C517.317 623.008 507.811 624.305 504.235 627.691C501.654 630.135 494.835 640.659 519.951 640.446C545.067 640.233 557.183 641.932 559.874 637.898C562.565 633.864 555.98 608.118 555.98 608.118C555.98 608.118 550.029 610.259 535.664 608.962Z" fill="#292C47" />
    <path d="M392.436 596.22C392.436 596.22 394.23 608.675 394.455 610.545C394.68 612.415 414.417 609.445 414.417 609.445L416.017 594.618C416.017 594.618 394.904 594.463 392.436 596.22Z" fill="#424773" />
    <path d="M394.245 608.962C394.245 608.962 387.991 616.468 381.945 619.738C375.899 623.008 353.639 625.696 350.063 629.082C347.481 631.527 343.188 641.366 378.533 640.447C403.644 639.793 415.764 641.933 418.455 637.899C421.146 633.865 414.561 608.119 414.561 608.119C414.561 608.119 408.954 610.405 394.245 608.962Z" fill="#292C47" />
    <path d="M517.509 276.179C517.509 276.179 536.054 305.644 534.671 332.279C533.288 358.914 541.395 387.992 544.182 415.816C547.288 446.834 559.998 520.266 560.459 536.857C560.92 553.448 558.486 606.43 558.486 606.43L533.043 607.012C533.043 607.012 511.674 478.636 506.143 465.537C500.612 452.438 473.163 359.053 472.243 348.575C471.323 338.097 517.509 276.179 517.509 276.179Z" fill="#2E3042" />
    <path d="M419.251 282.99C419.251 282.99 405.564 355.358 403.758 371.517C401.952 387.676 400.746 449.723 399.84 459.824C398.934 469.925 393.817 591.995 389 607H420.855C420.855 607 445.309 518.26 445.309 476.272C445.309 434.285 464.2 384.994 476.395 357.292C488.59 329.589 516.503 328.933 524 277.535C524.003 277.538 429.401 266.688 419.251 282.99Z" fill="#2E3042" />
    <path d="M486.565 28.4547C486.565 28.4547 461.673 19.1547 450.195 38.1057C438.717 57.0567 439.824 94.9887 452.371 99.6547C464.918 104.321 483.771 101.88 490.191 90.0227C496.611 78.1657 502.415 61.0227 502.136 49.5697C501.857 38.1167 493.101 31.7617 486.565 28.4547Z" fill="#EEA886" />
    <path d="M455.072 100.52C455.072 100.52 456.108 107.24 454.395 110.552C452.682 113.864 486.644 113.952 486.644 113.952C486.644 113.952 489.402 95.9437 494.628 80.7287C499.854 65.5137 455.072 100.52 455.072 100.52Z" fill="#EEA886" />
    <path d="M494.618 77.1568C494.041 76.7946 493.938 76.2962 493.487 75.8682C493.125 75.5203 492.578 75.5308 492.114 75.3991C491.178 75.0546 490.41 74.3631 489.97 73.4681C487.511 74.0743 484.948 74.134 482.463 73.6429C473.872 72.2921 463.392 60.8667 459.805 59.6096C456.217 58.3525 456.184 56.2507 456.184 56.2507L453.938 59.5321L450.129 59.7695C450.129 59.7695 453.602 49.5499 448.357 45.3776C447.959 44.9917 447.642 44.5294 447.426 44.0188C447.21 43.5083 447.099 42.9597 447.099 42.4054C445.951 42.671 444.777 42.8053 443.598 42.8044C443.365 42.7625 443.137 42.6981 442.916 42.6131C442.41 42.6244 441.906 42.6811 441.41 42.7821C440.134 42.9786 438.831 42.6686 437.78 41.9189C435.514 40.0447 436.248 36.7205 438.906 35.4963C436.643 33.9955 434.608 32.1753 432.865 30.0927C432.005 29.0957 431.25 28.0126 430.613 26.8608C430.138 26.1659 429.928 25.3242 430.022 24.4879C430.673 22.0396 435.575 23.326 436.989 23.9339C437.124 23.4129 437.164 22.8722 437.108 22.3369C436.987 21.8225 437.011 21.2848 437.179 20.7836C437.572 19.9913 438.249 19.3762 439.076 19.0604C440.054 18.6142 441.107 18.3526 442.181 18.2887C442.365 18.2835 442.55 18.2883 442.734 18.3036C443.317 18.339 444.041 18.3743 444.244 17.9268C444.349 17.304 444.293 16.6655 444.083 16.0701C443.921 15.1764 443.808 14.2743 443.745 13.3683C443.65 12.1593 443.571 10.9497 443.499 9.73814C443.372 8.84166 443.377 7.93126 443.515 7.03635C444.08 4.67242 446.676 4.47915 448.547 4.8177C449.813 5.05605 451.022 5.53001 452.111 6.216C452.891 6.69807 453.631 7.24977 454.396 7.74704C454.91 8.07799 455.305 8.53678 455.878 8.15433C457.229 7.25773 457.947 5.30874 458.932 4.05671C460.073 2.67423 461.551 1.60887 463.224 0.963291C464.936 0.326414 466.777 0.112079 468.591 0.337517C470.404 0.562955 472.136 1.22168 473.64 2.25854C474.319 2.70341 474.946 3.2213 475.511 3.80277C475.992 4.30933 476.355 4.70111 477.109 4.5044C477.779 4.26419 478.405 3.91366 478.961 3.46804C479.648 3.002 480.368 2.58534 481.093 2.18516C483.907 0.555945 487.146 -0.190874 490.389 0.0415321C491.907 0.129827 493.383 0.576858 494.696 1.34585C496.008 2.11483 497.12 3.18408 497.939 4.46565C499.698 7.2669 500.98 10.0073 501 13.3683L504.967 11.7589C506.628 11.1675 508.383 10.8866 510.145 10.9312C512.743 11.0156 515.549 11.776 517.401 13.6494C519.709 15.9804 519.657 19.5687 518.883 22.7194C518.469 24.2943 517.962 25.8424 517.364 27.3571C516.896 28.8842 516.1 30.2914 515.032 31.4786C518.759 31.5192 523.285 32.9132 525.197 36.362C527.677 40.8365 523.981 46.1791 520.001 48.4594C527.126 54.2249 513.993 63.0232 508.622 63.572C509.561 67.2023 505.033 68.6436 502.543 69.7242C504.075 71.5031 504.524 74.3522 502.638 76.2425C501.385 77.4334 499.715 78.085 497.986 78.0563C496.802 78.0747 495.635 77.763 494.618 77.1568Z" fill="#E8E1E1" />
    <path d="M452.38 110.153C452.38 110.153 452.488 103.828 455.355 103.221C458.222 102.614 487.003 99.8477 490.523 101.231V108.599C490.523 108.599 483.742 112.773 452.38 110.153Z" fill="#E2D2CA" />
    <path d="M454.081 58.8457C454.618 56.5977 460.335 50.1727 462.524 57.0517C464.713 63.9307 459.217 73.1837 456.15 72.3917C453.083 71.5997 452.722 64.5457 454.081 58.8457Z" fill="#EEA886" />
    <path d="M338.154 184.892C338.169 184.887 338.186 184.887 338.201 184.892C338.004 184.975 337.976 184.983 338.154 184.892Z" fill="#323657" />
    <path d="M541.5 316C541.5 316 519.035 320.63 493 323.5C466.965 326.37 407.909 316.574 407.5 313.5C407.091 310.426 416.038 256.654 416.5 249.5C417.5 234 418.5 209 418.5 209C418.327 212.026 416.736 214.48 414 223.5C411.823 230.675 386.578 209.405 388.5 202.5C392 189.931 396.166 163.451 398 155.5C402 128 422.5 124 422.5 124C441.545 118.239 452.379 110.153 452.379 110.153L490.522 108.599C490.522 108.599 517.713 112.273 531.5 118.5C549.5 126 540.629 153.762 544.215 161.796L532 186.5C532 186.5 527.5 220.5 532 258.5C532.687 270.078 541.5 316 541.5 316Z" fill="#fbb03b" />
    <path d="M533.958 183.577C532.078 184.338 531.427 181.777 529.307 181.389L528.086 208.724L503.607 204.183C503.607 204.183 497.571 140.281 539 124.5C539.78 124.755 545 134.5 548.709 173.072C548.634 173.653 548.634 174.241 548.709 174.822C548.709 174.822 536.661 182.483 533.958 183.577Z" fill="#fbb03b" />
    <path d="M548.786 174.702V192.693C548.86 194.992 548.638 197.29 548.127 199.533C547.342 202.033 546.978 203.899 544.216 206.033C541.454 208.167 538.755 208.021 530 208.5L532 182.5L548.786 174.702Z" fill="#EEA886" />
    <path d="M327.227 113.949L323.91 108.249L350.03 99.2367L353.345 104.904L327.227 113.949Z" fill="#292C47" />
</svg>