<svg width="14" height="14" viewBox="0 0 14 14" fill="none" xmlns="http://www.w3.org/2000/svg">
    <g clip-path="url(#clip0_796_43116)">
        <path d="M3.08209 6.21625C3.4979 5.49583 4.33545 5.09756 5.43654 5.09756H6.47459V1.57386C6.47217 1.55325 6.47095 1.53252 6.47095 1.51177C6.47079 1.44336 6.48414 1.37559 6.51021 1.31234C6.53629 1.24909 6.57458 1.1916 6.62291 1.14318C6.67124 1.09475 6.72864 1.05635 6.79184 1.03014C6.85503 1.00394 6.92278 0.990461 6.99119 0.990479C7.27935 0.990479 7.51982 1.22443 7.51982 1.51253C7.51982 1.5268 7.51925 1.54089 7.51813 1.5548V5.09756H8.56415C9.66522 5.09756 10.5028 5.49583 10.9186 6.21625C11.3345 6.94252 11.2583 7.86208 10.7078 8.81671L9.14394 11.5285C8.59344 12.4832 7.83203 13.0102 7.0004 13.0102C6.16877 13.0102 5.40728 12.4831 4.85086 11.5285L3.28711 8.81671C2.97083 8.27208 2.81268 7.73317 2.81268 7.24118C2.81264 6.87221 2.90049 6.52672 3.08209 6.21625ZM10.0153 6.76319C9.7748 6.34358 9.2322 6.11429 8.49377 6.11429H5.50656C4.76822 6.11429 4.22555 6.34358 3.985 6.76319C3.74445 7.18281 3.81722 7.76453 4.18643 8.40787L5.68002 10.9979C6.04915 11.6411 6.51909 11.9936 7.00015 11.9936C7.48121 11.9936 7.95113 11.6411 8.32034 10.9979L9.81394 8.40787C10.0433 8.01629 10.1552 7.64715 10.1552 7.32256C10.1581 7.12709 10.1099 6.93425 10.0153 6.76314L10.0153 6.76319Z" fill="#2F2F3D" />
    </g>
    <defs>
        <clipPath id="clip0_796_43116">
            <rect width="14" height="14" fill="white" transform="matrix(1 -8.74228e-08 -8.74228e-08 -1 0 14)" />
        </clipPath>
    </defs>
</svg>
    