<svg width="24" height="24" viewBox="0 0 40 40" fill="none" xmlns="http://www.w3.org/2000/svg">
    <path d="M20.1857 37.0924C20.1523 37.0942 20.1194 37.0942 20.086 37.0924H19.9269C19.8936 37.0943 19.8606 37.0943 19.8273 37.0924C19.2787 37.0881 18.7326 37.0218 18.1993 36.8932C17.6209 36.7511 17.0563 36.5559 16.5138 36.3102C15.9199 36.0412 15.3474 35.7271 14.8009 35.3717C14.2093 34.9864 13.6433 34.5629 13.1075 34.1031C12.3905 33.5513 11.7068 32.9573 11.0597 32.3248C10.3821 31.6577 9.74325 30.9519 9.1466 30.2115C8.53343 29.4434 7.96657 28.6408 7.44738 27.8062C6.92221 26.9532 6.45202 26.0671 6.04015 25.1539C5.86215 24.7539 5.70342 24.343 5.57042 23.943C5.44042 23.559 5.31912 23.143 5.20812 22.691C5.00437 21.8311 4.85573 20.9586 4.76378 20.0797C4.59544 18.218 4.526 16.3491 4.55577 14.4801V14.1539C4.55577 13.3689 4.556 12.7542 4.588 12.1432C4.62738 11.4606 4.70807 10.7809 4.82921 10.108C4.86776 9.87884 4.93417 9.65538 5.02843 9.44297C5.0978 9.25768 5.19294 9.08246 5.31066 8.92344C5.4351 8.75903 5.57573 8.60842 5.73058 8.47227C6.09498 8.17017 6.49885 7.91881 6.93077 7.7252C8.02239 7.25293 9.14651 6.85825 10.2941 6.54551H10.3068L10.3927 6.52109C11.2987 6.24909 12.2369 5.9657 13.1759 5.6207C13.2268 5.59168 13.2801 5.56671 13.3351 5.54648C14.7111 4.93348 15.6513 4.44706 16.4073 4.06406L16.421 4.05723L16.504 4.01426L16.5431 3.99277H16.5519C17.0575 3.71451 17.5799 3.46685 18.1153 3.25156C18.6541 3.01243 19.2402 2.89918 19.8292 2.92051H20.1905C20.7809 2.89969 21.369 3.01291 21.9093 3.25156C22.4457 3.46873 22.9681 3.71794 23.4747 3.99766L23.5157 4.01914L23.5987 4.06211L23.6124 4.06895C24.3684 4.45695 25.3127 4.93837 26.6847 5.55137L26.7482 5.58066L26.7843 5.59824L26.8439 5.62559C27.7829 5.97159 28.7211 6.25398 29.6271 6.52598L29.712 6.55039L29.7325 6.55723C30.8776 6.86988 31.9995 7.26295 33.089 7.73398C33.5212 7.927 33.9252 8.17841 34.2892 8.48105C34.4447 8.61656 34.5854 8.76821 34.7091 8.9332C34.828 9.09213 34.9244 9.26635 34.9952 9.45176C35.0875 9.6649 35.1538 9.88811 35.1944 10.1168C35.3137 10.8049 35.3928 11.4995 35.4308 12.1969C35.4668 12.8489 35.4669 13.5062 35.4669 14.2652V14.4889C35.4968 16.358 35.4262 18.227 35.255 20.0885C35.165 20.9677 35.0164 21.8403 34.8107 22.6998C34.7057 23.1238 34.5843 23.5458 34.4523 23.9518C34.3063 24.3778 34.1456 24.7847 33.9786 25.1627C33.5671 26.076 33.0979 26.9622 32.5724 27.815C32.0532 28.6495 31.4853 29.4532 30.8722 30.2213C30.2755 30.9617 29.6367 31.6665 28.9591 32.3336C28.3134 32.966 27.6309 33.5601 26.9151 34.1119C26.3762 34.5708 25.8082 34.9942 25.215 35.3805C24.6695 35.7353 24.0982 36.0493 23.506 36.3189C22.963 36.5662 22.3973 36.7614 21.8175 36.902C21.2826 37.028 20.7352 37.0915 20.1857 37.0924V37.0924ZM19.9855 23.2809C18.743 23.2265 17.5002 23.3681 16.3019 23.7008C16.0794 23.7734 15.866 23.8707 15.6651 23.9908C15.4869 24.0962 15.3244 24.2266 15.1837 24.3785C15.0509 24.5232 14.9491 24.6933 14.8839 24.8785C14.8106 25.0769 14.7746 25.2872 14.7784 25.4986C14.7782 25.7405 14.814 25.9809 14.8839 26.2125C14.9564 26.4675 15.0568 26.7141 15.1837 26.9469C15.474 27.4714 15.8523 27.9419 16.3019 28.3385C16.5419 28.5543 16.8003 28.7494 17.0734 28.9215C17.3528 29.104 17.6493 29.2583 17.9591 29.3824C18.6001 29.6555 19.2887 29.797 19.9855 29.7984C20.6822 29.7975 21.372 29.656 22.0128 29.3824C22.3233 29.2578 22.6207 29.1034 22.9015 28.9215C23.1737 28.7481 23.432 28.5531 23.673 28.3385C24.1204 27.9412 24.4971 27.4708 24.7862 26.9469C24.9153 26.7144 25.0176 26.4678 25.0919 26.2125C25.1597 25.9805 25.1959 25.7404 25.1984 25.4986C25.1997 25.2873 25.1634 25.0774 25.0919 24.8785C25.0231 24.6937 24.9195 24.5239 24.7862 24.3785C24.6474 24.2258 24.4857 24.0953 24.3077 23.9908C24.1068 23.8715 23.8938 23.7742 23.672 23.7008C22.4716 23.3681 21.2259 23.2267 19.9816 23.2818L19.9855 23.2809ZM27.3927 13.8619C27.04 13.8642 26.6883 13.8957 26.3409 13.9566C25.9668 14.018 25.5991 14.1123 25.2413 14.2379C24.685 14.4259 24.1556 14.6865 23.6671 15.0123C23.2358 15.294 22.8489 15.6387 22.5206 16.0357C22.376 16.2118 22.2489 16.4017 22.1407 16.6021C22.0397 16.7856 21.9611 16.9803 21.9054 17.1822C21.7955 17.5547 21.8024 17.9517 21.9259 18.3199C22.0119 18.5656 22.1485 18.7909 22.3263 18.9811C22.5193 19.1783 22.7438 19.3415 22.9903 19.4654C23.5862 19.7434 24.2373 19.8806 24.8946 19.8658C25.2479 19.8641 25.6011 19.8311 25.9484 19.7662C26.3226 19.7054 26.6904 19.6111 27.048 19.485C27.6031 19.2977 28.1315 19.038 28.6193 18.7135C29.05 18.4302 29.4365 18.0861 29.7677 17.691C29.9114 17.514 30.0385 17.3238 30.1476 17.1236C30.2498 16.9397 30.3294 16.7439 30.3839 16.5406C30.4919 16.1692 30.4841 15.774 30.3624 15.4068C30.2764 15.1611 30.1407 14.9359 29.963 14.7457C29.7693 14.5488 29.5446 14.3847 29.298 14.2604C28.7011 13.9814 28.0475 13.845 27.3888 13.8609L27.3927 13.8619ZM12.6603 13.8619C12.0027 13.8445 11.35 13.9818 10.755 14.2623C10.5079 14.3859 10.2831 14.5492 10.09 14.7467C9.91107 14.936 9.77431 15.1615 9.68956 15.4078C9.56605 15.7746 9.55921 16.1704 9.66906 16.5416C9.72356 16.7443 9.80086 16.9399 9.9005 17.1246C10.011 17.3249 10.1403 17.515 10.2853 17.692C10.6154 18.087 11.001 18.4311 11.4308 18.7145C11.9194 19.0368 12.4473 19.2963 13.0011 19.4859C13.3593 19.6101 13.7268 19.7043 14.1007 19.7672C14.4481 19.8306 14.8003 19.8618 15.1534 19.8609C15.8092 19.8761 16.4599 19.7388 17.0538 19.4605C17.3041 19.3381 17.5306 19.173 17.7228 18.9713C17.9009 18.7818 18.0376 18.5568 18.1232 18.3111C18.2439 17.9438 18.2507 17.5479 18.1437 17.1764C18.0858 16.9739 18.0073 16.7782 17.9083 16.5924C17.7991 16.3929 17.6697 16.2051 17.5235 16.0309C17.1943 15.6324 16.8087 15.2845 16.378 14.9986C15.8887 14.6786 15.3609 14.4214 14.8077 14.232C14.4503 14.1055 14.0825 14.0112 13.7081 13.9508C13.3616 13.8917 13.0108 13.8618 12.6593 13.8609L12.6603 13.8619ZM19.9855 27.9234C19.2694 27.9274 18.567 27.733 17.9552 27.3609C17.7193 27.2216 17.5094 27.042 17.3351 26.8307C17.2012 26.6738 17.1216 26.4779 17.1095 26.2721C17.1111 26.1887 17.1329 26.1065 17.172 26.0328C17.2111 25.9591 17.2669 25.8963 17.3351 25.8482C17.5222 25.7212 17.7332 25.6326 17.9552 25.5895C18.6243 25.4618 19.3047 25.4096 19.9855 25.4322C20.6675 25.41 21.3501 25.4622 22.0206 25.5895C22.2412 25.6332 22.4509 25.7218 22.6368 25.8482C22.7056 25.896 22.7621 25.9591 22.8019 26.0328C22.8417 26.1065 22.8641 26.1884 22.8663 26.2721C22.8541 26.4786 22.773 26.6749 22.6368 26.8307C22.4633 27.0412 22.2547 27.2207 22.0206 27.3609C21.4062 27.7337 20.7002 27.9278 19.9816 27.9225L19.9855 27.9234ZM24.836 17.8316C24.436 17.8316 24.1754 17.7321 24.1144 17.5621C24.1018 17.5086 24.1014 17.4527 24.1134 17.399C24.1253 17.3454 24.1487 17.2947 24.1827 17.2516C24.2838 17.1121 24.4066 16.9903 24.546 16.8893C24.965 16.5913 25.4271 16.3585 25.9161 16.1998C26.4106 16.0172 26.9313 15.9161 27.4581 15.9C27.8631 15.9 28.1198 15.9996 28.1798 16.1686C28.1924 16.2225 28.1925 16.2787 28.1798 16.3326C28.1671 16.3866 28.1418 16.4374 28.1066 16.4801C28.0095 16.6223 27.8889 16.7467 27.7491 16.8473C27.3288 17.1436 26.8667 17.3753 26.378 17.5357C25.8816 17.7167 25.3593 17.8162 24.8312 17.8307L24.836 17.8316ZM15.214 17.8316C14.6889 17.8115 14.17 17.7105 13.6759 17.5318C13.1873 17.3714 12.7251 17.1387 12.3048 16.8424C12.1651 16.7404 12.0425 16.6173 11.9425 16.4762C11.9076 16.4333 11.8832 16.3827 11.8712 16.3287C11.8592 16.2747 11.8607 16.2183 11.8741 16.1646C11.9351 15.9886 12.1848 15.8961 12.5958 15.8961C13.1224 15.9142 13.6428 16.0153 14.1378 16.1959C14.6261 16.3551 15.0871 16.5893 15.504 16.8893C15.6479 16.9849 15.7716 17.1076 15.8673 17.2516C15.9026 17.2941 15.9266 17.3441 15.9386 17.398C15.9506 17.452 15.9496 17.5087 15.9357 17.5621C15.8737 17.7351 15.6171 17.8307 15.2091 17.8307L15.214 17.8316Z" fill="#6E7191" />
</svg>
    