<svg width="100%" height="100%" viewBox="0 0 917 813" fill="none" xmlns="http://www.w3.org/2000/svg">
    <path fill-rule="evenodd" clip-rule="evenodd" d="M44.9069 660.193C109.237 530.446 362.159 683.009 553.391 689.435C744.624 695.861 1010.86 556.209 1125.32 691.126C1239.77 826.042 1026.57 1019.12 689.491 984.212C352.416 949.301 -19.4228 789.94 44.9069 660.193Z" fill="#F2F2F2" />
    <rect x="183" width="159" height="302" rx="8" fill="#F2F2F2" />
    <path fill-rule="evenodd" clip-rule="evenodd" d="M262 283C270.284 283 277 276.284 277 268C277 259.716 270.284 253 262 253C253.716 253 247 259.716 247 268C247 276.284 253.716 283 262 283Z" fill="white" />
    <path fill-rule="evenodd" clip-rule="evenodd" d="M249 20C250.105 20 251 19.1046 251 18C251 16.8954 250.105 16 249 16C247.895 16 247 16.8954 247 18C247 19.1046 247.895 20 249 20Z" fill="white" />
    <rect x="256" y="16" width="21" height="4" rx="2" fill="white" />
    <rect x="197" y="28" width="131" height="54" rx="4" fill="white" />
    <g clip-path="url(#clip0_31537_31309)">
        <rect x="236" y="44.2" width="73" height="8.1" rx="3" fill="#DDE3E9" />
        <rect x="236" y="57.7" width="49" height="8.1" rx="3" fill="#DDE3E9" />
    </g>
    <path fill-rule="evenodd" clip-rule="evenodd" d="M218 67C224.627 67 230 61.6274 230 55C230 48.3726 224.627 43 218 43C211.373 43 206 48.3726 206 55C206 61.6274 211.373 67 218 67Z" fill="#C5CFD6" />
    <rect x="197" y="90" width="131" height="42" rx="4" fill="white" />
    <g clip-path="url(#clip1_31537_31309)">
        <rect x="236" y="102.6" width="73" height="6.3" rx="3" fill="#DDE3E9" />
        <rect x="236" y="113.1" width="49" height="6.3" rx="3" fill="#DDE3E9" />
    </g>
    <path fill-rule="evenodd" clip-rule="evenodd" d="M218 123C224.627 123 230 117.627 230 111C230 104.373 224.627 99 218 99C211.373 99 206 104.373 206 111C206 117.627 211.373 123 218 123Z" fill="#C5CFD6" />
    <rect x="197" y="140" width="131" height="42" rx="4" fill="white" />
    <g clip-path="url(#clip2_31537_31309)">
        <rect x="236" y="152.6" width="73" height="6.3" rx="3" fill="#DDE3E9" />
        <rect x="236" y="163.1" width="49" height="6.3" rx="3" fill="#DDE3E9" />
    </g>
    <path fill-rule="evenodd" clip-rule="evenodd" d="M218 173C224.627 173 230 167.627 230 161C230 154.373 224.627 149 218 149C211.373 149 206 154.373 206 161C206 167.627 211.373 173 218 173Z" fill="#AFB9C5" />
    <rect x="197" y="190" width="131" height="42" rx="4" fill="white" />
    <g clip-path="url(#clip3_31537_31309)">
        <rect x="236" y="202.6" width="73" height="6.3" rx="3" fill="#DDE3E9" />
        <rect x="236" y="213.1" width="49" height="6.3" rx="3" fill="#DDE3E9" />
    </g>
    <path fill-rule="evenodd" clip-rule="evenodd" d="M218 223C224.627 223 230 217.627 230 211C230 204.373 224.627 199 218 199C211.373 199 206 204.373 206 211C206 217.627 211.373 223 218 223Z" fill="#C5CFD6" />
    <rect x="249" y="26" width="159" height="302" rx="8" fill="#DDE3E9" />
    <path fill-rule="evenodd" clip-rule="evenodd" d="M328 309C336.284 309 343 302.284 343 294C343 285.716 336.284 279 328 279C319.716 279 313 285.716 313 294C313 302.284 319.716 309 328 309Z" fill="white" />
    <path fill-rule="evenodd" clip-rule="evenodd" d="M315 46C316.105 46 317 45.1046 317 44C317 42.8954 316.105 42 315 42C313.895 42 313 42.8954 313 44C313 45.1046 313.895 46 315 46Z" fill="white" />
    <rect x="322" y="42" width="21" height="4" rx="2" fill="white" />
    <rect x="263" y="54" width="131" height="54" rx="4" fill="white" />
    <g clip-path="url(#clip4_31537_31309)">
        <rect x="272" y="70.2" width="73" height="8.1" rx="3" fill="#DDE3E9" />
        <rect x="272" y="83.7" width="49" height="8.1" rx="3" fill="#DDE3E9" />
    </g>
    <path fill-rule="evenodd" clip-rule="evenodd" d="M380 88C383.866 88 387 84.866 387 81C387 77.134 383.866 74 380 74C376.134 74 373 77.134 373 81C373 84.866 376.134 88 380 88Z" fill="#DDE3E9" />
    <path fill-rule="evenodd" clip-rule="evenodd" d="M380 84C381.657 84 383 82.6569 383 81C383 79.3431 381.657 78 380 78C378.343 78 377 79.3431 377 81C377 82.6569 378.343 84 380 84Z" fill="#F2F2F2" />
    <rect x="263" y="116" width="131" height="42" rx="4" fill="white" />
    <g clip-path="url(#clip5_31537_31309)">
        <rect x="302" y="128.6" width="73" height="6.3" rx="3" fill="#DDE3E9" />
        <rect x="302" y="139.1" width="49" height="6.3" rx="3" fill="#DDE3E9" />
    </g>
    <path fill-rule="evenodd" clip-rule="evenodd" d="M284 149C290.627 149 296 143.627 296 137C296 130.373 290.627 125 284 125C277.373 125 272 130.373 272 137C272 143.627 277.373 149 284 149Z" fill="#C5CFD6" />
    <rect x="263" y="166" width="131" height="42" rx="4" fill="white" />
    <g clip-path="url(#clip6_31537_31309)">
        <rect x="272" y="178.6" width="73" height="6.3" rx="3" fill="#DDE3E9" />
        <rect x="272" y="189.1" width="49" height="6.3" rx="3" fill="#AFB9C5" />
    </g>
    <path fill-rule="evenodd" clip-rule="evenodd" d="M380 194C383.866 194 387 190.866 387 187C387 183.134 383.866 180 380 180C376.134 180 373 183.134 373 187C373 190.866 376.134 194 380 194Z" fill="#DDE3E9" />
    <path fill-rule="evenodd" clip-rule="evenodd" d="M380 190C381.657 190 383 188.657 383 187C383 185.343 381.657 184 380 184C378.343 184 377 185.343 377 187C377 188.657 378.343 190 380 190Z" fill="#F2F2F2" />
    <rect x="263" y="216" width="131" height="42" rx="4" fill="white" />
    <g clip-path="url(#clip7_31537_31309)">
        <rect x="302" y="228.6" width="73" height="6.3" rx="3" fill="#DDE3E9" />
        <rect x="302" y="239.1" width="49" height="6.3" rx="3" fill="#DDE3E9" />
    </g>
    <path fill-rule="evenodd" clip-rule="evenodd" d="M284 249C290.627 249 296 243.627 296 237C296 230.373 290.627 225 284 225C277.373 225 272 230.373 272 237C272 243.627 277.373 249 284 249Z" fill="#C5CFD6" />
    <rect x="315" y="51" width="335" height="346" rx="8" fill="#F2F2F2" />
    <rect x="564" y="94" width="70" height="81" rx="8" fill="white" />
    <path fill-rule="evenodd" clip-rule="evenodd" d="M599 141C607.837 141 615 133.837 615 125C615 116.163 607.837 109 599 109C590.163 109 583 116.163 583 125C583 133.837 590.163 141 599 141Z" fill="#DDE3E9" />
    <rect x="574" y="145" width="50" height="6" rx="3" fill="#DDE3E9" />
    <rect x="582" y="155" width="34" height="6" rx="3" fill="#DDE3E9" />
    <path d="M315 59C315 54.5817 318.582 51 323 51H642C646.418 51 650 54.5817 650 59V78H315V59Z" fill="#C5CFD6" />
    <path fill-rule="evenodd" clip-rule="evenodd" d="M328 69C330.209 69 332 67.2091 332 65C332 62.7909 330.209 61 328 61C325.791 61 324 62.7909 324 65C324 67.2091 325.791 69 328 69Z" fill="#F2F2F2" />
    <path fill-rule="evenodd" clip-rule="evenodd" d="M340 69C342.209 69 344 67.2091 344 65C344 62.7909 342.209 61 340 61C337.791 61 336 62.7909 336 65C336 67.2091 337.791 69 340 69Z" fill="#F2F2F2" />
    <path fill-rule="evenodd" clip-rule="evenodd" d="M352 69C354.209 69 356 67.2091 356 65C356 62.7909 354.209 61 352 61C349.791 61 348 62.7909 348 65C348 67.2091 349.791 69 352 69Z" fill="#F2F2F2" />
    <rect x="564" y="183" width="70" height="194" rx="8" fill="white" />
    <rect x="582" y="201" width="34" height="26" rx="4" fill="#DDE3E9" />
    <rect x="582" y="235" width="34" height="25" rx="4" fill="#AFB9C5" />
    <rect x="582" y="268" width="34" height="25" rx="4" fill="#DDE3E9" />
    <rect x="582" y="334" width="34" height="25" rx="4" fill="#DDE3E9" />
    <rect x="582" y="301" width="34" height="25" rx="4" fill="#C5CFD6" />
    <rect x="331" y="95" width="225" height="47" rx="4" fill="white" />
    <g clip-path="url(#clip8_31537_31309)">
        <rect x="340" y="109.1" width="167" height="7.05" rx="3" fill="#DDE3E9" />
        <rect x="340" y="120.85" width="112.096" height="7.05" rx="3" fill="#DDE3E9" />
    </g>
    <path fill-rule="evenodd" clip-rule="evenodd" d="M531.954 125.5C535.82 125.5 538.954 122.366 538.954 118.5C538.954 114.634 535.82 111.5 531.954 111.5C528.088 111.5 524.954 114.634 524.954 118.5C524.954 122.366 528.088 125.5 531.954 125.5Z" fill="#DDE3E9" />
    <path fill-rule="evenodd" clip-rule="evenodd" d="M531.954 121.5C533.611 121.5 534.954 120.157 534.954 118.5C534.954 116.843 533.611 115.5 531.954 115.5C530.297 115.5 528.954 116.843 528.954 118.5C528.954 120.157 530.297 121.5 531.954 121.5Z" fill="#F2F2F2" />
    <rect x="331" y="150" width="225" height="39" rx="4" fill="white" />
    <g clip-path="url(#clip9_31537_31309)">
        <rect x="340" y="161.7" width="167" height="5.85" rx="2.925" fill="#DDE3E9" />
        <rect x="340" y="171.45" width="112.096" height="5.85" rx="2.925" fill="#DDE3E9" />
    </g>
    <path fill-rule="evenodd" clip-rule="evenodd" d="M531.954 176.5C535.82 176.5 538.954 173.366 538.954 169.5C538.954 165.634 535.82 162.5 531.954 162.5C528.088 162.5 524.954 165.634 524.954 169.5C524.954 173.366 528.088 176.5 531.954 176.5Z" fill="#DDE3E9" />
    <path fill-rule="evenodd" clip-rule="evenodd" d="M531.954 172.5C533.611 172.5 534.954 171.157 534.954 169.5C534.954 167.843 533.611 166.5 531.954 166.5C530.297 166.5 528.954 167.843 528.954 169.5C528.954 171.157 530.297 172.5 531.954 172.5Z" fill="#F2F2F2" />
    <rect x="331" y="197" width="225" height="39" rx="4" fill="white" />
    <g clip-path="url(#clip10_31537_31309)">
        <rect x="340" y="208.7" width="167" height="5.85" rx="2.925" fill="#DDE3E9" />
        <rect x="340" y="218.45" width="112.096" height="5.85" rx="2.925" fill="#DDE3E9" />
    </g>
    <path fill-rule="evenodd" clip-rule="evenodd" d="M531.954 223.5C535.82 223.5 538.954 220.366 538.954 216.5C538.954 212.634 535.82 209.5 531.954 209.5C528.088 209.5 524.954 212.634 524.954 216.5C524.954 220.366 528.088 223.5 531.954 223.5Z" fill="#DDE3E9" />
    <path fill-rule="evenodd" clip-rule="evenodd" d="M531.954 219.5C533.611 219.5 534.954 218.157 534.954 216.5C534.954 214.843 533.611 213.5 531.954 213.5C530.297 213.5 528.954 214.843 528.954 216.5C528.954 218.157 530.297 219.5 531.954 219.5Z" fill="#AFB9C5" />
    <rect x="331" y="338" width="225" height="39" rx="4" fill="white" />
    <g clip-path="url(#clip11_31537_31309)">
        <rect x="340" y="349.7" width="167" height="5.85" rx="2.925" fill="#DDE3E9" />
        <rect x="340" y="359.45" width="112.096" height="5.85" rx="2.925" fill="#DDE3E9" />
    </g>
    <path fill-rule="evenodd" clip-rule="evenodd" d="M531.954 364.5C535.82 364.5 538.954 361.366 538.954 357.5C538.954 353.634 535.82 350.5 531.954 350.5C528.088 350.5 524.954 353.634 524.954 357.5C524.954 361.366 528.088 364.5 531.954 364.5Z" fill="#DDE3E9" />
    <path fill-rule="evenodd" clip-rule="evenodd" d="M531.954 360.5C533.611 360.5 534.954 359.157 534.954 357.5C534.954 355.843 533.611 354.5 531.954 354.5C530.297 354.5 528.954 355.843 528.954 357.5C528.954 359.157 530.297 360.5 531.954 360.5Z" fill="#F2F2F2" />
    <rect x="331" y="291" width="225" height="39" rx="4" fill="white" />
    <g clip-path="url(#clip12_31537_31309)">
        <rect x="340" y="302.7" width="167" height="5.85" rx="2.925" fill="#DDE3E9" />
        <rect x="340" y="312.45" width="112.096" height="5.85" rx="2.925" fill="#DDE3E9" />
    </g>
    <path fill-rule="evenodd" clip-rule="evenodd" d="M531.954 317.5C535.82 317.5 538.954 314.366 538.954 310.5C538.954 306.634 535.82 303.5 531.954 303.5C528.088 303.5 524.954 306.634 524.954 310.5C524.954 314.366 528.088 317.5 531.954 317.5Z" fill="#DDE3E9" />
    <path fill-rule="evenodd" clip-rule="evenodd" d="M531.954 313.5C533.611 313.5 534.954 312.157 534.954 310.5C534.954 308.843 533.611 307.5 531.954 307.5C530.297 307.5 528.954 308.843 528.954 310.5C528.954 312.157 530.297 313.5 531.954 313.5Z" fill="#F2F2F2" />
    <rect x="331" y="244" width="225" height="39" rx="4" fill="white" />
    <g clip-path="url(#clip13_31537_31309)">
        <rect x="340" y="255.7" width="167" height="5.85" rx="2.925" fill="#DDE3E9" />
        <rect x="340" y="265.45" width="112.096" height="5.85" rx="2.925" fill="#DDE3E9" />
    </g>
    <path fill-rule="evenodd" clip-rule="evenodd" d="M531.954 270.5C535.82 270.5 538.954 267.366 538.954 263.5C538.954 259.634 535.82 256.5 531.954 256.5C528.088 256.5 524.954 259.634 524.954 263.5C524.954 267.366 528.088 270.5 531.954 270.5Z" fill="#DDE3E9" />
    <path fill-rule="evenodd" clip-rule="evenodd" d="M531.954 266.5C533.611 266.5 534.954 265.157 534.954 263.5C534.954 261.843 533.611 260.5 531.954 260.5C530.297 260.5 528.954 261.843 528.954 263.5C528.954 265.157 530.297 266.5 531.954 266.5Z" fill="#F2F2F2" />
    <path fill-rule="evenodd" clip-rule="evenodd" d="M708.747 220.617C697.316 225.477 686.521 227.097 681.824 225.176C670.048 220.361 675.064 175.834 686.931 159.648C698.798 143.462 748.417 142.556 746.07 177.554C745.256 189.7 738.686 199.732 729.962 207.452L734.804 271.683L695.678 266.271L708.747 220.617Z" fill="#B28B67" />
    <path fill-rule="evenodd" clip-rule="evenodd" d="M712.02 142.572C717.293 142.445 731.257 143.789 733.818 144.143C735.454 144.37 737.176 144.986 738.352 143.628C739.315 142.515 739.31 140.408 739.743 139.022C740.246 137.413 740.861 135.84 741.481 134.272C743.244 129.812 745.552 125.655 748.502 121.86C754.036 114.741 761.414 109.586 770.158 107.202C779.813 104.57 790.253 105.106 799.95 107.252C810.328 109.549 819.352 114.305 828.812 118.914C837.827 123.307 847.549 125.89 857.632 125.749C867.792 125.607 876.052 121.29 885.148 117.366C894.459 113.349 904.749 111.302 914.798 113.49C924.177 115.533 932.378 120.631 939.499 126.91C946.162 132.786 951.405 139.471 953.683 148.175C956.134 157.537 954.786 167.255 947.659 174.244C937.328 184.374 920.656 185.056 907.164 182.893C899.36 181.642 891.868 179.159 884.835 175.554C875.456 170.747 867.747 163.732 859.182 157.72C855.162 154.899 850.942 152.455 846.436 150.492C842.063 148.586 837.663 147.381 833.167 149.541C828.41 151.827 824.113 154.124 818.878 155.242C813.856 156.315 808.656 156.585 803.567 155.841C793.664 154.393 784.317 149.973 774.974 146.586C767.354 143.824 759.185 140.992 750.958 141.495C747.525 141.705 742.455 142.418 740.771 145.7C760.569 152.164 765.092 178.212 756.835 195.733C752.378 205.189 732.21 214.174 725.709 207.979C721.59 204.054 724.965 200.117 727.156 197.513C731.354 192.526 733.502 185.671 727.66 180.986C722.621 176.945 715.767 183.937 715.659 183.913C714.165 183.586 702.133 174.451 694.624 162.512C685.685 161.807 685.143 155.813 687.918 151.355C690.692 146.898 704.735 142.748 712.02 142.572Z" fill="#191847" />
    <path fill-rule="evenodd" clip-rule="evenodd" d="M746.06 404.329C737.593 443.918 532.309 535.524 530.749 538.675C529.71 540.776 570.312 686.064 570.312 686.064L552.903 690.191C552.903 690.191 481.625 532.409 488.458 517.592C498.239 496.38 655.25 392.199 655.25 392.199L746.06 404.329Z" fill="#B28B67" />
    <path fill-rule="evenodd" clip-rule="evenodd" d="M568.819 664.828L540.489 670.905C492.48 598.934 477.503 542.96 485.296 516.574C493.089 490.188 651.549 391.353 651.549 391.353L747.981 404.694C731.877 496.863 547.201 541.311 544.312 544.934C541.423 548.556 559.133 590.404 568.819 664.828Z" fill="#2F3676" />
    <path fill-rule="evenodd" clip-rule="evenodd" d="M573.116 682.086C574.051 681.383 575.394 681.584 576.029 682.568C577.848 685.386 581.164 690.816 581.835 693.931C582.768 698.27 583.112 706.905 583.112 706.905C578.074 707.985 492.542 726.326 492.542 726.326C492.542 726.326 486.503 715.423 493.909 712.863C501.316 710.302 506.185 708.474 506.185 708.474L544.781 680.31C545.236 679.978 545.875 680.087 546.195 680.551L550.686 687.072C550.686 687.072 558.434 688.844 562.836 687.9C565.936 687.235 570.618 683.963 573.116 682.086Z" fill="#E4E4E4" />
    <path fill-rule="evenodd" clip-rule="evenodd" d="M724.33 401.322L780.591 614.863L839.725 796.995L820.202 794.294L658.153 392.167L724.33 401.322Z" fill="#997659" />
    <path fill-rule="evenodd" clip-rule="evenodd" d="M839.068 786.441C840.188 786.101 841.38 786.749 841.64 787.89C842.385 791.159 843.642 797.395 843.206 800.55C842.598 804.946 839.965 813.177 839.965 813.177C834.859 812.471 748.198 800.481 748.198 800.481C748.198 800.481 746.255 788.174 754.092 788.298C761.929 788.423 767.132 788.369 767.132 788.369L813.047 775.093C813.588 774.936 814.151 775.257 814.293 775.802L816.281 783.464C816.281 783.464 822.956 787.776 827.416 788.393C830.558 788.827 836.078 787.352 839.068 786.441Z" fill="#E4E4E4" />
    <path fill-rule="evenodd" clip-rule="evenodd" d="M837.158 760.504L792.654 762.628C765.927 708.732 653.497 487.343 651.114 391.193L747.687 404.554C789.681 479.632 812.113 706.009 837.158 760.504Z" fill="#5C63AB" />
    <path fill-rule="evenodd" clip-rule="evenodd" d="M531.675 306.754L586.964 340.785L564.831 362.297L525.423 322.35C503.961 315.253 494.229 310.361 496.227 307.673C497.912 305.406 500.435 305.614 502.759 305.806C504.569 305.955 506.258 306.095 507.337 305.047C509.799 302.653 505.784 293.651 501.608 285.271C497.433 276.891 502.301 277.846 505.046 279.159C513.91 285.839 522.786 295.038 531.675 306.754ZM789.774 382.85L823.982 380.842C838.317 443.553 847.261 478.07 850.813 484.39C853.417 489.025 871.564 502.545 884.061 510.154C889.077 513.208 887.306 517.565 885.541 518.793C874.409 526.538 865.673 522.075 856.163 517.217C853.41 515.81 850.592 514.37 847.633 513.184C839.972 510.114 836.993 513.865 834.177 517.41C831.684 520.548 829.32 523.525 823.948 521.463C824.352 520.408 824.831 519.228 825.348 517.956C828.691 509.73 833.621 497.6 829.898 489.64C827.987 485.556 814.612 449.959 789.774 382.85Z" fill="#B28B67" />
    <path fill-rule="evenodd" clip-rule="evenodd" d="M717.456 238.996L703.741 234.639C669.029 260.127 646.663 329.805 624.963 336.435C604.447 342.704 578.311 330.275 547.439 314.105L534.411 334.986C559.505 371.046 618.653 406.76 646.277 394.864C690.441 375.846 712.033 289.08 717.456 238.996Z" fill="#DB2721" />
    <path fill-rule="evenodd" clip-rule="evenodd" d="M754.243 424.247C754.243 424.247 669.746 412.557 629.935 407.05C624.255 406.264 626.461 398.199 627.856 394.169C643.949 347.652 688.075 301.214 697.494 233.132L734.129 232.462C757.179 284.325 759.3 344.545 754.243 424.247Z" fill="#DDE3E9" />
    <path fill-rule="evenodd" clip-rule="evenodd" d="M736.032 232.725L736.442 232.782C810.001 293.532 847.964 377.181 850.329 483.727L823.566 485.233C809.091 462.711 792.349 426.813 773.34 377.538C777.301 406.184 779.065 435.247 777.136 462.23L665.24 446.75C651.161 388.939 722.245 230.818 722.245 230.818L729.97 231.887L736.032 232.725Z" fill="#FF4133" />
    <defs>
        <clipPath id="clip0_31537_31309">
            <rect width="73" height="21.6" fill="white" transform="translate(236 44.2)" />
        </clipPath>
        <clipPath id="clip1_31537_31309">
            <rect width="73" height="16.8" fill="white" transform="translate(236 102.6)" />
        </clipPath>
        <clipPath id="clip2_31537_31309">
            <rect width="73" height="16.8" fill="white" transform="translate(236 152.6)" />
        </clipPath>
        <clipPath id="clip3_31537_31309">
            <rect width="73" height="16.8" fill="white" transform="translate(236 202.6)" />
        </clipPath>
        <clipPath id="clip4_31537_31309">
            <rect width="73" height="21.6" fill="white" transform="translate(272 70.2)" />
        </clipPath>
        <clipPath id="clip5_31537_31309">
            <rect width="73" height="16.8" fill="white" transform="translate(302 128.6)" />
        </clipPath>
        <clipPath id="clip6_31537_31309">
            <rect width="73" height="16.8" fill="white" transform="translate(272 178.6)" />
        </clipPath>
        <clipPath id="clip7_31537_31309">
            <rect width="73" height="16.8" fill="white" transform="translate(302 228.6)" />
        </clipPath>
        <clipPath id="clip8_31537_31309">
            <rect width="167" height="18.8" fill="white" transform="translate(340 109.1)" />
        </clipPath>
        <clipPath id="clip9_31537_31309">
            <rect width="167" height="15.6" fill="white" transform="translate(340 161.7)" />
        </clipPath>
        <clipPath id="clip10_31537_31309">
            <rect width="167" height="15.6" fill="white" transform="translate(340 208.7)" />
        </clipPath>
        <clipPath id="clip11_31537_31309">
            <rect width="167" height="15.6" fill="white" transform="translate(340 349.7)" />
        </clipPath>
        <clipPath id="clip12_31537_31309">
            <rect width="167" height="15.6" fill="white" transform="translate(340 302.7)" />
        </clipPath>
        <clipPath id="clip13_31537_31309">
            <rect width="167" height="15.6" fill="white" transform="translate(340 255.7)" />
        </clipPath>
    </defs>
</svg>