<svg width="24" height="24" viewBox="0 0 24 24" fill="none" xmlns="http://www.w3.org/2000/svg">
    <g clip-path="url(#clip0_796_43073)">
        <path d="M9.06257 22.525H14.9375C15.2693 22.525 15.5919 22.5161 15.8973 22.4981C16.2027 22.4801 16.5059 22.4531 16.7891 22.4171C17.0723 22.3811 17.3509 22.3348 17.6101 22.2802C17.8693 22.2256 18.126 22.1602 18.3654 22.087C18.5986 22.0153 18.8276 21.9316 19.0521 21.8362C19.265 21.745 19.4725 21.6415 19.6733 21.5261C19.8667 21.4149 20.0526 21.2911 20.2299 21.1558C20.4041 21.0231 20.5694 20.879 20.7245 20.7244C20.8786 20.5696 21.0222 20.4048 21.1546 20.2311C21.2899 20.0537 21.4136 19.8677 21.5249 19.6743C21.6405 19.4733 21.7446 19.2658 21.8361 19.0527C21.9315 18.828 22.0152 18.5985 22.0869 18.3651C22.1607 18.1251 22.225 17.873 22.2796 17.6114C22.3342 17.3498 22.3807 17.0715 22.4173 16.7894C22.4539 16.5074 22.4772 16.2061 22.4982 15.8983C22.5192 15.5905 22.5246 15.269 22.5246 14.9384V9.06464C22.5246 8.73282 22.5156 8.40935 22.4982 8.10453C22.4808 7.79972 22.4533 7.49737 22.4173 7.21415C22.3813 6.93094 22.3348 6.65306 22.2796 6.39204C22.2244 6.13103 22.1601 5.87672 22.0869 5.6379C22.0152 5.4045 21.9315 5.17498 21.8361 4.95027C21.7446 4.73721 21.6405 4.52957 21.5249 4.32856C21.4137 4.13497 21.2899 3.9488 21.1546 3.77116C21.0222 3.5973 20.8786 3.43234 20.7245 3.27734C20.5694 3.12272 20.4041 2.9786 20.2299 2.84592C20.0525 2.71064 19.8667 2.58701 19.6733 2.47573C19.4725 2.36035 19.265 2.25671 19.0521 2.16546C18.8277 2.06971 18.5986 1.98583 18.3654 1.91408C18.1254 1.84088 17.8735 1.77546 17.6101 1.72086C17.3467 1.66626 17.0735 1.62064 16.7891 1.58404C16.5047 1.54744 16.2051 1.52043 15.8973 1.50303C15.5895 1.48563 15.2681 1.47607 14.9375 1.47607H9.06257C8.73136 1.47607 8.40699 1.48503 8.10217 1.50303C7.79736 1.52103 7.49415 1.54804 7.21033 1.58404C6.92652 1.62004 6.64982 1.66626 6.38881 1.72086C6.12779 1.77546 5.87345 1.84088 5.63584 1.91408C5.40231 1.98556 5.17248 2.06945 4.94792 2.16546C4.735 2.25659 4.52753 2.36023 4.32679 2.47573C4.1331 2.58714 3.9469 2.71077 3.76895 2.84592C3.59546 2.97876 3.43072 3.12288 3.27615 3.27734C3.1215 3.43232 2.97734 3.59728 2.84429 3.77116C2.7092 3.94881 2.58561 4.13498 2.47455 4.32856C2.35965 4.52983 2.25632 4.73744 2.16457 4.95027C2.06854 5.17469 1.98501 5.40425 1.91437 5.6379C1.83936 5.87792 1.77623 6.12983 1.71982 6.39204C1.66342 6.65426 1.61988 6.93214 1.58388 7.21415C1.54788 7.49617 1.51926 7.79732 1.50126 8.10453C1.48326 8.41175 1.4743 8.73462 1.4743 9.06464V14.9384C1.4743 15.2696 1.48506 15.5929 1.50126 15.8983C1.51746 16.2037 1.54728 16.5062 1.58388 16.7894C1.62048 17.0727 1.66522 17.3504 1.71982 17.6114C1.77443 17.8724 1.83996 18.1269 1.91437 18.3651C1.98499 18.5988 2.06852 18.8283 2.16457 19.0527C2.25629 19.2656 2.35962 19.473 2.47455 19.6743C2.58563 19.8677 2.70922 20.0537 2.84429 20.2311C2.97732 20.4048 3.12147 20.5696 3.27615 20.7244C3.43072 20.8788 3.59546 21.0229 3.76895 21.1558C3.94682 21.291 4.13303 21.4148 4.32679 21.5261C4.52753 21.6416 4.735 21.7451 4.94792 21.8362C5.17254 21.9319 5.40236 22.0156 5.63584 22.087C5.87585 22.1608 6.12719 22.2256 6.38881 22.2802C6.65042 22.3348 6.92892 22.3805 7.21033 22.4171C7.49175 22.4537 7.79436 22.4801 8.10217 22.4981C8.40999 22.5161 8.73136 22.525 9.06257 22.525ZM18.0841 16.5338C18.1903 16.5336 18.2953 16.555 18.3929 16.5968C18.4877 16.6375 18.5738 16.6959 18.6466 16.7689C18.7195 16.8419 18.778 16.9281 18.8189 17.0228C18.8608 17.1202 18.8825 17.2251 18.8822 17.3312C18.8825 17.4372 18.8608 17.5422 18.8189 17.6397C18.778 17.7344 18.7195 17.8204 18.6466 17.8934C18.5739 17.9665 18.4878 18.0251 18.3929 18.0657C18.2953 18.1075 18.1903 18.1289 18.0841 18.1287H5.85206C5.74564 18.129 5.6405 18.1076 5.54267 18.0657C5.448 18.025 5.36211 17.9665 5.28953 17.8934C5.21589 17.8209 5.15713 17.7348 5.11667 17.6397C5.07511 17.5422 5.0534 17.4372 5.05339 17.3312C5.0534 17.2252 5.07511 17.1203 5.11667 17.0228C5.15724 16.9278 5.21599 16.8415 5.28953 16.7689C5.36218 16.6959 5.44806 16.6375 5.54267 16.5968C5.6405 16.5549 5.74564 16.5335 5.85206 16.5338H18.0841ZM18.0841 11.2157C18.1904 11.2157 18.2953 11.2373 18.3929 11.2793C18.4877 11.32 18.5738 11.3785 18.6466 11.4516C18.7195 11.5246 18.7779 11.6106 18.8189 11.7053C18.8608 11.8027 18.8825 11.9078 18.8822 12.0138C18.8825 12.1198 18.8608 12.2247 18.8189 12.3222C18.778 12.417 18.7195 12.5034 18.6466 12.5766C18.5738 12.6497 18.4877 12.7081 18.3929 12.7488C18.2953 12.7906 18.1903 12.812 18.0841 12.8117H5.84327C5.63177 12.8114 5.42907 12.7273 5.27957 12.5777C5.13007 12.428 5.04593 12.2253 5.04577 12.0138C5.04492 11.9077 5.06667 11.8025 5.10906 11.7053C5.14899 11.6104 5.20659 11.5242 5.27957 11.4516C5.35273 11.3786 5.43954 11.3201 5.53447 11.2793C5.63207 11.2373 5.73701 11.2157 5.84327 11.2157H18.0841ZM18.0841 5.89763C18.1904 5.89756 18.2953 5.91918 18.3929 5.96121C18.4878 6.00173 18.5739 6.06027 18.6466 6.13348C18.7196 6.20641 18.7781 6.29245 18.8189 6.38721C18.8608 6.48463 18.8825 6.58969 18.8822 6.69572C18.8824 6.80174 18.8607 6.90663 18.8189 7.00409C18.7779 7.09872 18.7194 7.18487 18.6466 7.25796C18.5738 7.33087 18.4877 7.38906 18.3929 7.4295C18.2953 7.47152 18.1904 7.49314 18.0841 7.49307H5.88136C5.77471 7.49317 5.66881 7.47156 5.5708 7.4295C5.47602 7.38935 5.39007 7.33112 5.31766 7.25796C5.24433 7.18533 5.18577 7.09906 5.14539 7.00409C5.10388 6.90656 5.08276 6.80171 5.08269 6.69572C5.08273 6.58972 5.10385 6.48473 5.14539 6.38721C5.18554 6.2921 5.24412 6.20594 5.31766 6.13348C5.38995 6.06003 5.47591 6.00144 5.5708 5.96121C5.66877 5.91902 5.77469 5.8974 5.88136 5.89763H18.0841Z" fill="#9496B3" />
    </g>
    <defs>
        <clipPath id="clip0_796_43073">
            <rect width="24" height="24" fill="white" />
        </clipPath>
    </defs>
</svg>
    