<svg width="30" height="31" viewBox="0 0 30 31" fill="none" xmlns="http://www.w3.org/2000/svg">
    <g clip-path="url(#clip0_566_20656)">
        <path fill-rule="evenodd" clip-rule="evenodd" d="M2.11377 15.5164C2.11386 15.0748 2.13611 14.6336 2.18062 14.1942C2.22424 13.7646 2.29045 13.3321 2.3762 12.9101C2.5464 12.0779 2.79836 11.2642 3.12842 10.4816C3.45418 9.71271 3.85361 8.97719 4.32084 8.28513C4.78541 7.59851 5.31424 6.95778 5.90039 6.37153C6.48658 5.7853 7.12732 5.25665 7.814 4.79216C8.50586 4.32462 9.2416 3.92535 10.0106 3.59992C10.7929 3.26967 11.6061 3.0177 12.438 2.8477C12.8625 2.7611 13.2909 2.696 13.7219 2.6523C14.1613 2.60726 14.6027 2.58404 15.0444 2.58398C15.486 2.58405 15.9275 2.60726 16.3668 2.6523C16.7978 2.696 17.2264 2.7611 17.6509 2.8477C18.4828 3.01774 19.296 3.26971 20.0783 3.59992C20.8473 3.92535 21.5829 4.32461 22.2747 4.79216C22.9615 5.2566 23.6022 5.78526 24.1883 6.37153C24.7745 6.95773 25.3036 7.59847 25.7681 8.28513C26.2353 8.97718 26.6346 9.7127 26.9603 10.4816C27.2905 11.2641 27.5425 12.0779 27.7125 12.9101C27.7994 13.3346 27.8649 13.7631 27.9089 14.1942C27.9534 14.6336 27.9756 15.0748 27.9757 15.5164C27.9756 15.9581 27.9534 16.3993 27.9089 16.8387C27.8649 17.2697 27.7994 17.6983 27.7125 18.1227C27.5426 18.9547 27.2906 19.7683 26.9603 20.5506C26.6349 21.3198 26.2356 22.0556 25.7681 22.7477C25.3038 23.4345 24.7747 24.0753 24.1883 24.6613C23.6022 25.2476 22.9615 25.7762 22.2747 26.2407C21.5829 26.7082 20.8473 27.1075 20.0783 27.4329C19.2959 27.7628 18.4828 28.0148 17.6509 28.1851C17.2264 28.2717 16.7978 28.3376 16.3668 28.3813C15.9275 28.4263 15.486 28.4488 15.0444 28.4489C14.6027 28.4488 14.1613 28.4263 13.7219 28.3813C13.2909 28.3376 12.8625 28.2717 12.438 28.1851C11.6062 28.0148 10.793 27.7628 10.0106 27.4329C9.2416 27.1075 8.50586 26.7082 7.814 26.2407C7.12732 25.7762 6.48658 25.2475 5.90039 24.6613C5.31409 24.0752 4.78524 23.4345 4.32084 22.7477C3.85331 22.0556 3.45386 21.3198 3.12842 20.5506C2.79827 19.7682 2.5463 18.9547 2.3762 18.1227C2.28969 17.7 2.22575 17.2682 2.18062 16.8387C2.13611 16.3993 2.11386 15.9581 2.11377 15.5164ZM22.4863 13.6292C22.8242 13.3834 23.1533 13.1441 23.1533 12.7393C23.1533 12.2345 22.6418 11.6109 22.2393 11.9871C22.2393 11.9871 20.6014 12.9147 19.4583 12.901C18.3553 12.8878 16.7857 11.9871 16.7857 11.9871C16.2479 11.6109 15.8718 12.2345 15.8718 12.7393C15.8718 13.244 16.2479 13.4915 16.7857 13.8149C16.7857 13.8149 18.3553 14.6066 19.4583 14.6198C20.6014 14.6335 22.2393 13.8149 22.2393 13.8149C22.319 13.7509 22.4029 13.6899 22.4863 13.6292ZM13.2127 13.8149C13.2923 13.7509 13.3763 13.6899 13.4597 13.6292C13.7976 13.3834 14.1266 13.1441 14.1266 12.7393C14.1266 12.2345 13.6151 11.6109 13.2127 11.9871C13.2127 11.9871 11.5748 12.9147 10.4317 12.901C9.3287 12.8878 7.7591 11.9871 7.7591 11.9871C7.22127 11.6109 6.84516 12.2345 6.84516 12.7393C6.84516 13.244 7.22127 13.4915 7.7591 13.8149C7.7591 13.8149 9.3287 14.6066 10.4317 14.6198C11.5748 14.6335 13.2127 13.8149 13.2127 13.8149ZM19.2771 21.1897C19.7819 21.1897 20.1911 20.7805 20.1911 20.2758C20.1911 19.771 19.7819 19.3618 19.2771 19.3618H10.8147C10.3099 19.3618 9.90072 19.771 9.90072 20.2758C9.90072 20.7805 10.3099 21.1897 10.8147 21.1897H19.2771Z" fill="#555777" />
    </g>
    <defs>
        <clipPath id="clip0_566_20656">
            <rect width="30" height="30" fill="white" transform="translate(0 0.5)" />
        </clipPath>
    </defs>
</svg>
    