<svg width="16" height="16" viewBox="0 0 16 16" fill="none" xmlns="http://www.w3.org/2000/svg">
    <g opacity="0.8" clip-path="url(#clip0_30415_5197)">
        <path d="M9.79524 11.8621H4.34284C4.04045 11.8644 3.73873 11.8331 3.44324 11.7689C3.27377 11.7418 3.10782 11.6961 2.94844 11.6325C2.12244 11.3221 1.14844 10.5593 1.14844 8.66126V5.46686C1.14844 3.43846 2.31444 2.27246 4.34284 2.27246H9.79524C11.5072 2.27246 12.6112 3.09126 12.9088 4.58006C12.9654 4.8722 12.9922 5.16932 12.9888 5.46686V8.66126C12.9884 10.7021 11.8284 11.8621 9.79524 11.8621ZM4.34844 3.21526C2.82244 3.21526 2.08444 3.95326 2.08444 5.47926V8.67246C2.08444 9.78286 2.47524 10.4649 3.27524 10.7689C3.39023 10.81 3.50853 10.8411 3.62884 10.8621C3.86552 10.9123 4.10688 10.9373 4.34884 10.9365H9.80124C11.3272 10.9365 12.0652 10.1985 12.0652 8.67246V5.47926C12.0684 5.24416 12.0476 5.00935 12.0032 4.77846C11.7924 3.72406 11.0728 3.21526 9.80324 3.21526H4.34844Z" fill="#6E7191" />
        <path d="M11.6547 13.7229H6.20227C5.72461 13.733 5.24915 13.6554 4.79947 13.4941C4.35329 13.3305 3.95913 13.0503 3.65803 12.6826C3.35693 12.315 3.15991 11.8733 3.08747 11.4037C3.07197 11.3281 3.0758 11.2498 3.09859 11.1761C3.12139 11.1024 3.16241 11.0357 3.21787 10.9821C3.27307 10.9273 3.34145 10.8877 3.41641 10.867C3.49138 10.8463 3.5704 10.8453 3.64587 10.8641C3.87444 10.9111 4.10731 10.934 4.34067 10.9325H9.79387C11.3199 10.9325 12.0579 10.1945 12.0579 8.66846V5.47286C12.0609 5.23843 12.0401 5.0043 11.9959 4.77406C11.9808 4.69872 11.9842 4.62086 12.0057 4.5471C12.0272 4.47335 12.0663 4.40589 12.1195 4.35046C12.173 4.29502 12.24 4.25444 12.3139 4.2327C12.3878 4.21096 12.4661 4.20881 12.5411 4.22646C14.0299 4.53046 14.8487 5.63446 14.8487 7.33406V10.5285C14.8491 12.5629 13.6891 13.7229 11.6547 13.7229ZM4.22987 11.8617C4.42525 12.2207 4.74851 12.4931 5.13547 12.6249C5.4804 12.7441 5.84382 12.8008 6.20867 12.7925H11.6607C13.1867 12.7925 13.9247 12.0545 13.9247 10.5285V7.33406C13.9247 6.35406 13.6207 5.70286 12.9943 5.36166V8.66766C12.9943 10.6961 11.8283 11.8621 9.79987 11.8621H4.22987V11.8617Z" fill="#6E7191" />
        <path d="M7.07155 9.17611C6.65566 9.17611 6.2491 9.05278 5.9033 8.82172C5.55749 8.59066 5.28797 8.26225 5.12882 7.87801C4.96966 7.49378 4.92802 7.07097 5.00916 6.66307C5.09029 6.25517 5.29056 5.88048 5.58465 5.5864C5.87873 5.29232 6.25341 5.09205 6.66131 5.01091C7.06922 4.92977 7.49202 4.97142 7.87626 5.13057C8.26049 5.28973 8.58891 5.55925 8.81997 5.90505C9.05102 6.25086 9.17435 6.65741 9.17435 7.07331C9.17393 7.63087 8.95225 8.16548 8.55799 8.55974C8.16373 8.954 7.62912 9.17568 7.07155 9.17611ZM7.07155 5.90091C6.83967 5.90091 6.613 5.96967 6.4202 6.09849C6.2274 6.22732 6.07713 6.41042 5.98839 6.62465C5.89966 6.83888 5.87644 7.07461 5.92168 7.30203C5.96692 7.52945 6.07858 7.73835 6.24254 7.90232C6.4065 8.06628 6.6154 8.17794 6.84283 8.22318C7.07025 8.26842 7.30598 8.2452 7.52021 8.15646C7.73444 8.06773 7.91754 7.91746 8.04637 7.72466C8.17519 7.53186 8.24395 7.30518 8.24395 7.07331C8.24321 6.76259 8.11945 6.46482 7.89975 6.24511C7.68004 6.0254 7.38226 5.90165 7.07155 5.90091Z" fill="#6E7191" />
        <path d="M3.52379 8.90316C3.40067 8.90232 3.28284 8.85304 3.19577 8.76598C3.10871 8.67892 3.05943 8.56108 3.05859 8.43796V5.70876C3.05943 5.58564 3.10871 5.4678 3.19577 5.38074C3.28284 5.29368 3.40067 5.2444 3.52379 5.24356C3.64691 5.2444 3.76475 5.29368 3.85181 5.38074C3.93887 5.4678 3.98816 5.58564 3.98899 5.70876V8.43796C3.9891 8.49908 3.97714 8.55962 3.9538 8.61611C3.93046 8.6726 3.89619 8.72392 3.85298 8.76714C3.80976 8.81036 3.75843 8.84462 3.70194 8.86796C3.64545 8.89131 3.58491 8.90327 3.52379 8.90316Z" fill="#6E7191" />
        <path d="M10.6136 8.90316C10.4905 8.90232 10.3727 8.85304 10.2856 8.76598C10.1986 8.67892 10.1493 8.56108 10.1484 8.43796V5.70876C10.1493 5.58564 10.1986 5.4678 10.2856 5.38074C10.3727 5.29368 10.4905 5.2444 10.6136 5.24356C10.7368 5.2444 10.8546 5.29368 10.9417 5.38074C11.0287 5.4678 11.078 5.58564 11.0788 5.70876V8.43796C11.0789 8.49908 11.067 8.55962 11.0436 8.61611C11.0203 8.6726 10.986 8.72392 10.9428 8.76714C10.8996 8.81036 10.8483 8.84462 10.7918 8.86796C10.7353 8.89131 10.6748 8.90327 10.6136 8.90316Z" fill="#6E7191" />
    </g>
    <defs>
        <clipPath id="clip0_30415_5197">
            <rect width="16" height="16" fill="white" />
        </clipPath>
    </defs>
</svg>