<svg width="18" height="18" viewBox="0 0 18 18" fill="none" xmlns="http://www.w3.org/2000/svg">
    <path d="M13.2188 15.3052C12.8626 15.2956 12.5143 15.1986 12.2046 15.0226L9.28975 13.3983C9.10176 13.3244 8.89279 13.3244 8.7048 13.3983L5.7945 15.0226C5.53421 15.1916 5.23393 15.289 4.924 15.3048C4.61406 15.3206 4.30545 15.2543 4.02932 15.1126C3.77111 14.9419 3.56292 14.7056 3.42607 14.4279C3.28921 14.1502 3.2286 13.8412 3.25045 13.5324V5.10699C3.25093 4.34781 3.55272 3.61985 4.08955 3.08303C4.62637 2.5462 5.35433 2.2444 6.11351 2.24393H11.8837C12.6429 2.2444 13.3709 2.5462 13.9077 3.08303C14.4445 3.61985 14.7463 4.34781 14.7468 5.10699V13.5324C14.7686 13.8412 14.708 14.1502 14.5712 14.4279C14.4343 14.7056 14.2261 14.9419 13.9679 15.1126C13.7393 15.2411 13.481 15.3075 13.2188 15.3052ZM8.99862 12.2707C9.28783 12.2674 9.5733 12.3362 9.82924 12.471L12.7692 14.1025C12.8628 14.1718 12.972 14.2169 13.0872 14.2337C13.2024 14.2505 13.3199 14.2385 13.4293 14.1988C13.5149 14.121 13.5804 14.0238 13.6205 13.9153C13.6605 13.8068 13.6738 13.6903 13.6593 13.5756V5.10699C13.6538 4.6375 13.4651 4.18874 13.1334 3.85644C12.8016 3.52414 12.3532 3.33463 11.8837 3.32832H6.11351C5.64295 3.33422 5.19321 3.52329 4.85977 3.85539C4.52633 4.18748 4.33545 4.63645 4.32764 5.10699V13.576C4.31283 13.6906 4.32579 13.807 4.36541 13.9154C4.40504 14.0239 4.47017 14.1212 4.55532 14.1992C4.66573 14.2353 4.78312 14.2446 4.89785 14.2266C5.01259 14.2085 5.12141 14.1635 5.2154 14.0953L8.16576 12.4638C8.4239 12.3336 8.70955 12.2674 8.99862 12.2707Z" fill="white" />
    <path d="M10.4841 7.86656H7.51708C7.44528 7.86872 7.37376 7.85653 7.30673 7.8307C7.23969 7.80487 7.17849 7.76592 7.12669 7.71614C7.0749 7.66636 7.03356 7.60675 7.0051 7.54079C6.97664 7.47483 6.96162 7.40385 6.96094 7.33202C6.96162 7.26018 6.97664 7.1892 7.0051 7.12325C7.03356 7.05729 7.0749 6.99767 7.12669 6.94789C7.17849 6.89811 7.23969 6.85916 7.30673 6.83333C7.37376 6.8075 7.44528 6.79531 7.51708 6.79747H10.4841C10.5559 6.79531 10.6274 6.8075 10.6944 6.83333C10.7615 6.85916 10.8227 6.89811 10.8745 6.94789C10.9263 6.99767 10.9676 7.05729 10.9961 7.12325C11.0245 7.1892 11.0395 7.26018 11.0402 7.33202C11.0395 7.40385 11.0245 7.47483 10.9961 7.54079C10.9676 7.60675 10.9263 7.66636 10.8745 7.71614C10.8227 7.76592 10.7615 7.80487 10.6944 7.8307C10.6274 7.85653 10.5559 7.86872 10.4841 7.86656Z" fill="white" />
    <path d="M8.99963 9.37167C8.9278 9.37098 8.85682 9.35597 8.79086 9.3275C8.7249 9.29904 8.66529 9.2577 8.61551 9.20591C8.56572 9.15412 8.52678 9.09291 8.50095 9.02588C8.47512 8.95884 8.46293 8.88733 8.46509 8.81552V5.84852C8.46293 5.77671 8.47512 5.7052 8.50095 5.63816C8.52678 5.57113 8.56572 5.50992 8.61551 5.45813C8.66529 5.40634 8.7249 5.365 8.79086 5.33654C8.85682 5.30807 8.9278 5.29306 8.99963 5.29237C9.07147 5.29306 9.14245 5.30807 9.2084 5.33654C9.27436 5.365 9.33398 5.40634 9.38376 5.45813C9.43354 5.50992 9.47249 5.57113 9.49832 5.63816C9.52415 5.7052 9.53634 5.77671 9.53418 5.84852V8.81552C9.53634 8.88733 9.52415 8.95884 9.49832 9.02588C9.47249 9.09291 9.43354 9.15412 9.38376 9.20591C9.33398 9.2577 9.27436 9.29904 9.2084 9.3275C9.14245 9.35597 9.07147 9.37098 8.99963 9.37167Z" fill="white" />
</svg>