<svg width="24" height="24" viewBox="0 0 24 24" fill="none" xmlns="http://www.w3.org/2000/svg">
    <path d="M11.4706 16.5313C11.4008 16.4619 11.3454 16.3792 11.3078 16.2882C11.2702 16.1971 11.2512 16.0995 11.2517 16.001V12.7571L8.00638 12.7901C7.9078 12.7925 7.80977 12.7748 7.71828 12.738C7.62678 12.7013 7.54374 12.6463 7.47423 12.5763C7.40362 12.5076 7.34741 12.4256 7.30888 12.3349C7.27034 12.2442 7.25025 12.1468 7.24978 12.0483C7.24906 11.8499 7.32648 11.6592 7.46531 11.5174C7.60413 11.3757 7.79319 11.2943 7.99157 11.2909L11.2517 11.2577V7.99701C11.2556 7.8009 11.3363 7.61413 11.4764 7.47683C11.6165 7.33952 11.8048 7.26261 12.001 7.26261C12.1971 7.26261 12.3854 7.33952 12.5255 7.47683C12.6656 7.61413 12.7463 7.8009 12.7502 7.99701L12.7497 11.2425L15.9964 11.2094C16.1952 11.2073 16.3867 11.2843 16.5287 11.4234C16.6708 11.5626 16.7518 11.7524 16.7538 11.9512C16.7559 12.15 16.6789 12.3415 16.5398 12.4836C16.4007 12.6256 16.2109 12.7066 16.0121 12.7086L12.7494 12.7418L12.7489 16.0031C12.7476 16.2015 12.6682 16.3914 12.5279 16.5317C12.3876 16.672 12.1977 16.7514 11.9993 16.7528C11.9009 16.7528 11.8034 16.7332 11.7127 16.6952C11.6219 16.6571 11.5396 16.6014 11.4706 16.5313Z" fill="white" />
    <path fill-rule="evenodd" clip-rule="evenodd" d="M8.99927 22.7499H14.9991C20.429 22.7499 22.7491 20.4297 22.7491 14.9999V9.00001C22.7491 3.57014 20.429 1.25 14.9991 1.25H8.99927C3.56941 1.25 1.24927 3.57014 1.24927 9.00001V14.9999C1.24927 20.4297 3.56941 22.7499 8.99927 22.7499ZM2.74923 9.00001C2.74923 4.38972 4.38899 2.74996 8.99927 2.74996H14.9991C19.6088 2.74996 21.2492 4.38972 21.2492 9.00001V14.9999C21.2492 19.6101 19.6094 21.2499 14.9991 21.2499H8.99927C4.38899 21.2499 2.74923 19.6101 2.74923 14.9999V9.00001Z" fill="white" />
</svg>
    