<svg width="18" height="18" viewBox="0 0 18 18" fill="none" xmlns="http://www.w3.org/2000/svg">
<path d="M8.64555 15.8893C7.21303 15.8894 5.81265 15.4647 4.62152 14.6689C3.43039 13.8731 2.502 12.7419 1.95375 11.4185C1.40551 10.095 1.26204 8.63868 1.54149 7.23368C1.82094 5.82868 2.51076 4.53811 3.5237 3.52516C4.53664 2.51222 5.82722 1.82241 7.23222 1.54296C8.63721 1.26351 10.0935 1.40698 11.417 1.95522C12.7404 2.50346 13.8716 3.43185 14.6674 4.62299C15.4632 5.81412 15.8879 7.21449 15.8878 8.64701C15.8851 10.5669 15.1212 12.4075 13.7636 13.7651C12.406 15.1227 10.5655 15.8866 8.64555 15.8893V15.8893ZM8.64555 2.46401C7.42277 2.46401 6.22746 2.8266 5.21075 3.50593C4.19405 4.18526 3.40161 5.15081 2.93366 6.2805C2.4657 7.41019 2.34324 8.65327 2.58176 9.85255C2.82028 11.0518 3.40906 12.1535 4.27366 13.0181C5.13826 13.8828 6.23985 14.4717 7.43912 14.7103C8.63838 14.9489 9.88147 14.8265 11.0112 14.3586C12.1409 13.8907 13.1065 13.0984 13.7859 12.0817C14.4653 11.0651 14.828 9.86979 14.8281 8.64701C14.8264 7.00777 14.1745 5.43613 13.0155 4.27697C11.8564 3.11781 10.2848 2.4658 8.64555 2.46401V2.46401Z" fill="#6E7191"/>
<path d="M16.066 16.5961C15.9964 16.5964 15.9275 16.5828 15.8632 16.5561C15.7989 16.5295 15.7406 16.4903 15.6916 16.4409L14.2786 15.0274C14.1834 14.9273 14.1311 14.7939 14.1329 14.6558C14.1346 14.5176 14.1903 14.3856 14.2879 14.2879C14.3856 14.1903 14.5176 14.1346 14.6558 14.1329C14.7939 14.1311 14.9273 14.1834 15.0274 14.2786L16.4404 15.6916C16.5388 15.7914 16.594 15.9259 16.594 16.066C16.594 16.2061 16.5388 16.3406 16.4404 16.4404C16.3915 16.4899 16.3332 16.5292 16.2689 16.5559C16.2046 16.5827 16.1356 16.5963 16.066 16.5961V16.5961Z" fill="#6E7191"/>
</svg>
