<svg width="14" height="14" viewBox="0 0 14 14" fill="none" xmlns="http://www.w3.org/2000/svg">
    <g clip-path="url(#clip0_33030_60462)">
        <path d="M7.77639 12.8877C7.66157 12.8403 7.55154 12.7817 7.44826 12.7127C7.3274 12.6319 7.21418 12.5403 7.10987 12.439C6.98582 12.3181 6.87119 12.1878 6.76738 12.0491C6.64259 11.8825 6.52895 11.708 6.42694 11.5266C6.30456 11.3085 6.19371 11.084 6.09505 10.8542C5.9841 10.5979 5.87692 10.3155 5.77717 10.0142C5.754 9.95812 5.74224 9.89802 5.74231 9.83737C5.74231 9.77579 5.75462 9.7148 5.7782 9.65792C5.80177 9.60104 5.83616 9.54943 5.87971 9.5059C5.92327 9.46238 5.97491 9.42783 6.03182 9.4043C6.08872 9.38077 6.14969 9.36871 6.21126 9.36875C6.31755 9.36881 6.4208 9.40497 6.50385 9.4713C6.5869 9.53762 6.64504 9.63016 6.6686 9.7338C6.78915 10.1043 6.93635 10.4654 7.10919 10.8146C7.23589 11.0721 7.38908 11.3157 7.56652 11.5413C7.65679 11.6811 7.77584 11.8001 7.9155 11.8906C8.05517 11.9811 8.21244 12.041 8.37694 12.0663C8.82565 12.0663 9.51112 11.4488 10.0918 9.71628L11.8558 4.42411C11.9309 4.20107 11.9874 3.97226 12.0247 3.7399C12.0569 3.54189 12.0672 3.3409 12.0555 3.14063C12.0459 2.97116 12.0105 2.80422 11.9505 2.64544C11.8978 2.50639 11.8165 2.37981 11.7123 2.27373C11.5745 2.15264 11.4146 2.05989 11.2409 2.0008C11.0673 1.9417 10.8836 1.91737 10.7005 1.92927C10.3144 1.93764 9.9319 2.0076 9.56779 2.13649L4.27562 3.90687C2.54308 4.48649 1.92571 5.17247 1.92571 5.62188C1.95095 5.78596 2.01087 5.94279 2.10139 6.08195C2.19191 6.22111 2.31096 6.33938 2.45072 6.42897C2.67638 6.60559 2.91997 6.75811 3.1774 6.884C3.4671 7.02776 3.76545 7.1532 4.07088 7.25956C4.17141 7.28587 4.26046 7.34485 4.32381 7.42721C4.38717 7.50958 4.42125 7.61067 4.42089 7.71459C4.42089 7.83888 4.37171 7.95808 4.28382 8.04597C4.19593 8.13386 4.07657 8.18329 3.95227 8.18329C3.8956 8.18339 3.83952 8.17313 3.7865 8.15312C3.78349 8.15369 3.78027 8.15369 3.77727 8.15312C3.55711 8.07542 3.34437 7.99175 3.14732 7.906C2.91791 7.8073 2.69394 7.69643 2.47636 7.57385C2.29532 7.47188 2.12103 7.35826 1.95476 7.23367C1.81651 7.12976 1.68672 7.01531 1.56613 6.89135C1.46503 6.78709 1.37345 6.67391 1.29268 6.55322C1.22371 6.44991 1.1651 6.34006 1.11768 6.22526C1.03911 6.03462 0.998517 5.83056 0.998047 5.62436C0.998684 5.41909 1.03927 5.21591 1.11768 5.0262C1.16517 4.91143 1.22379 4.80159 1.29268 4.69824C1.37343 4.5772 1.465 4.46369 1.56613 4.35908C1.68671 4.23468 1.81649 4.11971 1.95476 4.01531C2.12099 3.89013 2.29528 3.77597 2.47636 3.67342C2.69393 3.55019 2.9179 3.43858 3.14732 3.33914C3.40283 3.22748 3.68479 3.11966 3.98474 3.01921L9.27657 1.25515C9.73797 1.09267 10.2227 1.00563 10.7118 0.997256C11.0305 0.993522 11.3473 1.04619 11.6477 1.15295C11.9232 1.25285 12.1738 1.41102 12.3826 1.61669C12.5521 1.78496 12.6898 1.98252 12.789 2.19981C12.8926 2.42991 12.9596 2.67487 12.9872 2.92572C13.0181 3.20759 13.014 3.49225 12.9753 3.77314C12.9307 4.09555 12.8555 4.41294 12.7503 4.72097L10.9863 10.0131C10.8858 10.3144 10.7763 10.5973 10.6664 10.8531C10.5673 11.0836 10.4559 11.3087 10.3328 11.5273C10.2305 11.7095 10.1163 11.8848 9.99129 12.0523C9.88726 12.1912 9.77276 12.3218 9.64846 12.4429C9.54404 12.5444 9.43072 12.6362 9.30973 12.7172C9.20646 12.7863 9.09643 12.8449 8.9816 12.8923C8.79097 12.9709 8.5869 13.0116 8.3807 13.012C8.17302 13.0106 7.96779 12.9684 7.77639 12.8877Z" fill="#F2F2F8" />
    </g>
    <defs>
        <clipPath id="clip0_33030_60462">
            <rect width="14" height="14" fill="white" />
        </clipPath>
    </defs>
</svg>
    