<svg width="18" height="19" viewBox="0 0 18 19" fill="none" xmlns="http://www.w3.org/2000/svg">
    <g clip-path="url(#clip0_468_22359)">
        <path fill-rule="evenodd" clip-rule="evenodd" d="M7.5057 11.316C7.94788 11.6114 8.46773 11.7691 8.99953 11.7691C9.71258 11.7689 10.3963 11.4855 10.9005 10.9813C11.4047 10.4771 11.6881 9.79336 11.6883 9.08032C11.6883 8.54852 11.5307 8.02866 11.2352 7.58649C10.9397 7.14431 10.5198 6.79968 10.0285 6.59617C9.53718 6.39266 8.99655 6.33941 8.47497 6.44316C7.95339 6.54691 7.47429 6.803 7.09825 7.17903C6.72221 7.55507 6.46613 8.03417 6.36238 8.55575C6.25863 9.07733 6.31188 9.61796 6.51539 10.1093C6.7189 10.6006 7.06353 11.0205 7.5057 11.316ZM8.10323 7.73891C8.36854 7.56164 8.68045 7.46703 8.99953 7.46703C9.42722 7.46762 9.83722 7.63778 10.1396 7.9402C10.4421 8.24263 10.6122 8.65263 10.6128 9.08032C10.6128 9.39939 10.5182 9.71131 10.3409 9.97661C10.1637 10.2419 9.9117 10.4487 9.61691 10.5708C9.32212 10.6929 8.99774 10.7249 8.68479 10.6626C8.37185 10.6004 8.08438 10.4467 7.85876 10.2211C7.63314 9.99546 7.47949 9.708 7.41724 9.39505C7.35499 9.08211 7.38694 8.75773 7.50904 8.46294C7.63115 8.16815 7.83793 7.91618 8.10323 7.73891Z" fill="#2F2F3D" />
        <path fill-rule="evenodd" clip-rule="evenodd" d="M10.8516 16.3296C10.9988 16.3661 11.1499 16.3853 11.3016 16.3867C11.6059 16.3843 11.9046 16.3041 12.1692 16.1536L13.4094 15.444C13.6281 15.3218 13.8196 15.1565 13.9725 14.958C14.1253 14.7596 14.2363 14.5323 14.2987 14.2897C14.3648 14.0493 14.3825 13.7982 14.3505 13.5509C14.3185 13.3037 14.2375 13.0653 14.1123 12.8496C14.0134 12.7237 13.9483 12.5746 13.9232 12.4165C13.8981 12.2583 13.9138 12.0964 13.9688 11.946C14.0723 11.8238 14.2048 11.7296 14.3542 11.6719C14.5036 11.6143 14.6651 11.5951 14.8238 11.6162C15.3274 11.6152 15.8101 11.4147 16.1662 11.0586C16.5223 10.7025 16.7228 10.2198 16.7238 9.71621V8.45618C16.7228 7.95258 16.5223 7.46987 16.1662 7.11377C15.8101 6.75766 15.3274 6.55719 14.8238 6.55623C14.6651 6.57727 14.5036 6.5581 14.3542 6.50046C14.2048 6.44282 14.0723 6.34858 13.9688 6.22638C13.9156 6.07572 13.9008 5.91415 13.9259 5.75635C13.951 5.59855 14.0151 5.44951 14.1123 5.32275C14.3632 4.88535 14.4301 4.36624 14.2984 3.87952C14.1667 3.3928 13.8471 2.97829 13.4099 2.72709L12.1764 2.01742C11.9797 1.90206 11.7621 1.82671 11.5361 1.7957C11.3102 1.76469 11.0804 1.77862 10.8598 1.83671C10.6393 1.89479 10.4324 1.99587 10.251 2.13416C10.0697 2.27244 9.91743 2.44519 9.80304 2.64249L9.72429 2.77749C9.30128 3.50876 8.72031 3.50876 8.2973 2.77749L8.21135 2.63394C7.97902 2.23883 7.59995 1.95155 7.15674 1.83472C6.71352 1.71789 6.2421 1.78097 5.84519 2.01022L4.60451 2.72034C4.38582 2.84272 4.19427 3.00826 4.04149 3.20691C3.88871 3.40557 3.77788 3.63319 3.71574 3.87597C3.58568 4.36178 3.65263 4.87929 3.90204 5.316C4.00152 5.44198 4.06707 5.59134 4.09244 5.74984C4.1178 5.90834 4.10214 6.0707 4.04695 6.22143C3.94347 6.34363 3.81094 6.43787 3.66155 6.49551C3.51215 6.55315 3.35067 6.57232 3.19192 6.55128C2.68832 6.55224 2.20561 6.75271 1.84951 7.10882C1.49341 7.46492 1.29293 7.94763 1.29198 8.45123V9.71126C1.29269 10.2148 1.49288 10.6975 1.84871 11.0538C2.20455 11.41 2.68705 11.6108 3.19057 11.6121C3.34932 11.5911 3.5108 11.6102 3.6602 11.6679C3.80959 11.7255 3.94212 11.8198 4.0456 11.942C4.0988 12.0926 4.11354 12.2542 4.08847 12.412C4.0634 12.5698 3.99932 12.7188 3.90204 12.8456C3.65148 13.2829 3.58472 13.8018 3.71643 14.2883C3.84814 14.7748 4.16755 15.1892 4.60451 15.4404L5.83934 16.1482C6.03442 16.2657 6.25136 16.3422 6.47695 16.3731C6.70254 16.4041 6.93207 16.3888 7.15157 16.3282C7.37165 16.2707 7.57813 16.1701 7.75905 16.0322C7.93996 15.8943 8.09171 15.7219 8.2055 15.525L8.28425 15.39C8.70726 14.6587 9.28823 14.6587 9.71124 15.39L9.79719 15.5335C10.032 15.9257 10.4101 16.2111 10.8516 16.3296ZM9.97233 14.0636C9.68358 13.8681 9.34777 13.7535 8.99977 13.7317V13.7335C8.65234 13.7572 8.31745 13.8728 8.02927 14.0683C7.7411 14.2638 7.50997 14.5323 7.35948 14.8463L7.28073 14.9813C7.18987 15.1334 7.04327 15.244 6.87212 15.2896C6.78907 15.3119 6.70235 15.317 6.61726 15.3047C6.53216 15.2924 6.45045 15.2629 6.3771 15.2181L5.13687 14.5079C4.94995 14.3963 4.81375 14.2164 4.75706 14.0062C4.69968 13.7973 4.72735 13.5742 4.83402 13.3856C5.03121 13.0979 5.14841 12.7629 5.17363 12.415C5.19886 12.0671 5.13119 11.7187 4.97757 11.4056C4.78477 11.1141 4.51752 10.8796 4.20355 10.7263C3.88957 10.5729 3.54029 10.5063 3.19192 10.5334C2.97331 10.5333 2.76369 10.4464 2.6091 10.2918C2.45452 10.1373 2.36762 9.92763 2.3675 9.70901V8.44898C2.36703 8.34063 2.38803 8.23325 2.4293 8.13306C2.47058 8.03287 2.5313 7.94186 2.60796 7.86528C2.68462 7.7887 2.7757 7.72808 2.87594 7.68692C2.97617 7.64575 3.08357 7.62487 3.19192 7.62546C3.54016 7.65337 3.88953 7.58764 4.20381 7.43509C4.5181 7.28253 4.78587 7.04871 4.97937 6.75784C5.13299 6.44467 5.20066 6.09631 5.17543 5.7484C5.15021 5.40049 5.03301 5.06553 4.83582 4.77779C4.78228 4.68413 4.74776 4.58082 4.73425 4.47379C4.72074 4.36675 4.72849 4.2581 4.75706 4.15407C4.81414 3.9425 4.95262 3.76211 5.14227 3.65231L6.3825 2.93409C6.53141 2.84898 6.70766 2.82534 6.87374 2.8682C7.03981 2.91107 7.18261 3.01705 7.27173 3.1636L7.35048 3.30715C7.50008 3.62212 7.73125 3.8913 8.02001 4.08676C8.30876 4.28221 8.64457 4.39682 8.99257 4.41868C9.34057 4.39682 9.67638 4.28221 9.96513 4.08676C10.2539 3.8913 10.4851 3.62212 10.6347 3.30715L10.7134 3.17215C10.7571 3.0972 10.8152 3.0316 10.8843 2.97913C10.9534 2.92665 11.0322 2.88832 11.1161 2.86633C11.2001 2.84434 11.2875 2.83913 11.3735 2.85099C11.4594 2.86285 11.5422 2.89155 11.617 2.93544L12.8573 3.64511C13.0437 3.75621 13.1799 3.93525 13.2371 4.14462C13.2657 4.24865 13.2734 4.3573 13.2599 4.46433C13.2464 4.57137 13.2119 4.67468 13.1583 4.76834C12.9611 5.05608 12.8439 5.39104 12.8187 5.73895C12.7935 6.08686 12.8611 6.43522 13.0148 6.74839C13.2081 7.03891 13.4755 7.27251 13.7893 7.42504C14.1032 7.57758 14.4521 7.64351 14.8 7.61601C15.0186 7.61613 15.2282 7.70303 15.3828 7.85761C15.5374 8.01219 15.6243 8.22182 15.6244 8.44043V9.70046C15.625 9.80889 15.6041 9.91637 15.5628 10.0167C15.5216 10.117 15.4609 10.2081 15.3842 10.2847C15.3076 10.3614 15.2165 10.4221 15.1162 10.4633C15.0159 10.5046 14.9084 10.5255 14.8 10.5249C14.4521 10.4974 14.1032 10.5633 13.7893 10.7159C13.4755 10.8684 13.2081 11.102 13.0148 11.3925C12.8611 11.7057 12.7935 12.054 12.8187 12.4019C12.8439 12.7499 12.9611 13.0848 13.1583 13.3726C13.2119 13.4662 13.2464 13.5695 13.2599 13.6766C13.2734 13.7836 13.2657 13.8922 13.2371 13.9963C13.1796 14.2082 13.0404 14.3886 12.8501 14.498L11.6098 15.2149C11.4601 15.2996 11.2832 15.3223 11.1169 15.278C10.9507 15.2338 10.8084 15.1261 10.7206 14.9782L10.6419 14.8432C10.4923 14.5282 10.2611 14.259 9.97233 14.0636Z" fill="#2F2F3D" />
    </g>
    <defs>
        <clipPath id="clip0_468_22359">
            <rect width="18" height="18" fill="white" transform="translate(0 0.0820312)" />
        </clipPath>
    </defs>
</svg>
    