<svg width="24" height="24" viewBox="0 0 24 24" fill="none" xmlns="http://www.w3.org/2000/svg">
    <path d="M5.67572 20.9916C4.96534 20.9997 4.28011 20.7302 3.76551 20.2404C3.47001 19.9462 3.25156 19.5834 3.13034 19.1844C3.00346 18.7664 2.97473 18.3248 3.04597 17.8938L3.48309 14.7959C3.54557 14.4199 3.66504 14.0557 3.83759 13.7158C4.00275 13.3708 4.2215 13.0541 4.48565 12.7774L12.6034 4.65922C13.0251 4.17372 13.5393 3.77739 14.1164 3.49362C14.6934 3.20984 15.3213 3.04439 15.9633 3.00684C16.6185 3.01575 17.2613 3.18752 17.8336 3.50665C18.3904 3.81548 18.8995 4.20371 19.3442 4.65922C19.8935 5.18658 20.3386 5.81242 20.6568 6.50424C20.9228 7.09745 21.0313 7.74935 20.9714 8.39672C20.9185 8.92904 20.7551 9.44443 20.4915 9.90994C20.1795 10.4575 19.7932 10.9593 19.3436 11.401L11.2253 19.5185C10.6616 20.0404 9.96206 20.3929 9.20725 20.5356L6.10991 20.973C6.04991 20.973 5.9899 20.976 5.9353 20.979H5.89252C5.81752 20.9886 5.73872 20.9916 5.67572 20.9916ZM15.7945 4.52606C15.3325 4.55306 14.8803 4.67208 14.465 4.87632C14.0497 5.08055 13.6797 5.36582 13.3763 5.71525L5.39622 13.8905C5.20631 14.0896 5.04877 14.3174 4.9298 14.5655C4.85154 14.8099 4.81095 15.0649 4.80968 15.3215C4.76888 15.7907 4.70027 16.5767 4.51846 17.8721C4.46704 18.1823 4.48733 18.5001 4.57823 18.801C4.65563 19.0542 4.65591 19.0542 4.79152 19.1724L4.8548 19.2288C4.99396 19.386 5.18365 19.4901 5.39095 19.5234C5.40955 19.5234 5.85831 19.485 6.46793 19.422C7.03914 19.362 7.87194 19.2695 8.59376 19.1555C9.11546 19.1095 9.61228 18.9124 10.0235 18.588L18.2215 10.5634C18.545 10.2454 18.8228 9.88415 19.0471 9.48996C19.2369 9.15505 19.3544 8.78408 19.3917 8.40096C19.4355 7.93508 19.3578 7.46578 19.1661 7.03892C18.9371 6.54113 18.6166 6.09065 18.2215 5.711C17.9013 5.38329 17.5348 5.10405 17.134 4.88188C16.7233 4.65561 16.2634 4.53433 15.7945 4.52899V4.52606Z" fill="#6E7191" />
    <path d="M17.1581 13.0065C17.0518 13.0079 16.9458 12.992 16.8446 12.9597C15.4409 12.5605 14.1628 11.8094 13.1308 10.7776C12.0988 9.74578 11.3476 8.4674 10.9482 7.06381C10.9086 6.73924 10.9798 6.41078 11.1509 6.13214C11.322 5.8535 11.5824 5.64135 11.8898 5.52979C11.8701 5.68492 11.8821 5.84212 11.9244 5.99269C12.3235 7.39637 13.0746 8.67503 14.1064 9.70704C15.1382 10.739 16.416 11.4903 17.8196 11.8897C17.9211 11.9218 18.0273 11.9378 18.1337 11.9372C18.2658 11.9378 18.3973 11.9151 18.5216 11.8704C18.5141 11.928 18.5025 11.9853 18.4876 12.0415C18.3805 12.312 18.1986 12.5462 17.9632 12.7171C17.7277 12.8879 17.4485 12.9886 17.1581 13.0065Z" fill="#6E7191" />
</svg>