<svg width="18" height="18" viewBox="0 0 18 18" fill="none" xmlns="http://www.w3.org/2000/svg">
    <path fill-rule="evenodd" clip-rule="evenodd" d="M6.54067 15.4435C6.721 15.1737 6.85329 14.8767 6.93357 14.5657H11.3878C11.4933 15.083 11.7487 15.558 12.1221 15.9314C12.4987 16.308 12.9786 16.5645 13.5009 16.6684C14.0233 16.7723 14.5648 16.719 15.0569 16.5152C15.5489 16.3113 15.9695 15.9662 16.2654 15.5233C16.5613 15.0805 16.7192 14.5598 16.7192 14.0272C16.719 13.3131 16.4352 12.6283 15.9302 12.1233C15.4253 11.6183 14.7404 11.3345 14.0263 11.3343C13.4937 11.3343 12.973 11.4922 12.5302 11.7881C12.0873 12.084 11.7422 12.5046 11.5384 12.9967C11.4727 13.1553 11.4226 13.3191 11.3884 13.4857H8.62645C8.70302 13.4045 8.77586 13.3194 8.84465 13.2305C9.31251 12.6261 9.5664 11.8835 9.56643 11.1192V11.1048L9.55923 8.64178V8.62738C9.55875 7.84755 9.80115 7.08692 10.2528 6.45117C10.6158 5.94012 11.0996 5.53017 11.658 5.25589C11.7811 5.4835 11.9371 5.69339 12.1221 5.87838C12.4987 6.25499 12.9786 6.51147 13.5009 6.61538C14.0233 6.71928 14.5648 6.66595 15.0569 6.46213C15.5489 6.25831 15.9695 5.91315 16.2654 5.4703C16.5613 5.02745 16.7192 4.5068 16.7192 3.97418C16.719 3.26005 16.4352 2.57523 15.9302 2.07026C15.4253 1.56528 14.7404 1.28149 14.0263 1.28125C13.4937 1.28125 12.973 1.43919 12.5302 1.73509C12.0873 2.03099 11.7422 2.45157 11.5384 2.94364C11.3705 3.34901 11.3047 3.7879 11.3448 4.22203C10.562 4.57217 9.88407 5.12585 9.38382 5.82862C8.80205 6.6459 8.48946 7.62418 8.48953 8.62738V8.64898L8.49673 11.112V11.1192C8.49669 11.6453 8.32185 12.1564 7.99968 12.5724C7.73386 12.9156 7.38017 13.1778 6.97844 13.333C6.94207 13.133 6.88449 12.937 6.80636 12.7483C6.66205 12.3997 6.45046 12.083 6.1837 11.8162C5.91694 11.5495 5.60024 11.3379 5.25168 11.1936C4.90312 11.0493 4.52953 10.9751 4.15228 10.9752C3.58415 10.9752 3.02879 11.1436 2.55641 11.4593C2.08403 11.7749 1.71585 12.2235 1.49844 12.7484C1.28103 13.2733 1.22414 13.8509 1.33498 14.4081C1.44582 14.9653 1.71939 15.4771 2.12112 15.8788C2.52285 16.2806 3.03468 16.5541 3.59188 16.665C4.14909 16.7758 4.72666 16.7189 5.25154 16.5015C5.77642 16.2841 6.22504 15.9159 6.54067 15.4435ZM12.4107 14.0312L12.4108 14.0257L12.4108 14.0214C12.4135 13.5954 12.5839 13.1875 12.8852 12.8861C13.188 12.5834 13.5982 12.4128 14.0263 12.4116C14.3458 12.4116 14.6582 12.5064 14.9239 12.6839C15.1896 12.8614 15.3966 13.1138 15.5189 13.409C15.6412 13.7042 15.6732 14.029 15.6108 14.3424C15.5485 14.6558 15.3946 14.9437 15.1687 15.1696C14.9428 15.3956 14.6549 15.5494 14.3415 15.6118C14.0281 15.6741 13.7033 15.6421 13.4081 15.5198C13.1128 15.3975 12.8605 15.1905 12.683 14.9248C12.5062 14.6602 12.4115 14.3494 12.4107 14.0312ZM2.35714 13.8477C2.35714 14.2027 2.46242 14.5498 2.65968 14.845C2.85693 15.1402 3.13729 15.3703 3.46531 15.5062C3.79333 15.642 4.15427 15.6776 4.50249 15.6083C4.85072 15.539 5.17058 15.3681 5.42164 15.117C5.67269 14.866 5.84366 14.5461 5.91293 14.1979C5.98219 13.8497 5.94664 13.4887 5.81077 13.1607C5.6749 12.8327 5.44482 12.5523 5.14961 12.3551C4.8544 12.1578 4.50733 12.0525 4.15228 12.0525C3.67625 12.0528 3.21979 12.242 2.88319 12.5786C2.54659 12.9152 2.35738 13.3716 2.35714 13.8477ZM12.4107 3.97418C12.4107 4.29372 12.5055 4.60607 12.683 4.87175C12.8605 5.13743 13.1128 5.34451 13.4081 5.46679C13.7033 5.58907 14.0281 5.62106 14.3415 5.55872C14.6549 5.49638 14.9428 5.34252 15.1687 5.11657C15.3946 4.89063 15.5485 4.60276 15.6108 4.28937C15.6732 3.97598 15.6412 3.65114 15.5189 3.35593C15.3966 3.06072 15.1896 2.8084 14.9239 2.63088C14.6582 2.45336 14.3458 2.3586 14.0263 2.3586C13.5982 2.35979 13.188 2.53039 12.8852 2.83311C12.5825 3.13583 12.4119 3.54607 12.4107 3.97418Z" fill="#2F2F3D" />
</svg>
    