<svg width="103" height="103" viewBox="0 0 103 103" fill="none" xmlns="http://www.w3.org/2000/svg">
    <path d="M28.325 30.9026H77.25V74.6776H28.325V30.9026Z" fill="#685AD3" />
    <path d="M51.5428 97.6505C46.9002 97.7043 42.3608 96.2775 38.5839 93.5773L20.1236 79.7899C17.5457 77.6669 15.4399 75.0301 13.9384 72.0471C12.4369 69.064 11.5735 65.8002 11.4039 62.4649V30.5392C11.5351 27.0997 12.6456 23.769 14.6072 20.9407C16.5688 18.1124 19.3016 15.9038 22.4771 14.5757L43.8791 6.54614C46.3249 5.71778 48.8954 5.31644 51.4774 5.35938C54.0577 5.31601 56.6267 5.71736 59.0707 6.54614L80.4827 14.5757C83.6582 15.9038 86.386 18.1124 88.3476 20.9407C90.3092 23.769 91.4197 27.0997 91.5508 30.5392V62.4297C91.384 65.7645 90.5262 69.0274 89.0265 72.0106C87.5266 74.9938 85.4183 77.6317 82.8412 79.7548L64.3809 93.5283C60.669 96.2735 56.159 97.7221 51.5428 97.6505ZM51.4925 33.2559C48.3629 33.2607 45.3616 34.5065 43.1499 36.7207C40.9382 38.9348 39.6966 41.9362 39.6952 45.0657C39.6997 47.6345 40.5381 50.131 42.0889 52.1788C43.6396 54.2266 45.8179 55.7135 48.2892 56.4142V66.5256C48.2978 67.3738 48.6362 68.1847 49.2346 68.786C49.833 69.3872 50.6443 69.7312 51.4925 69.7439C52.3472 69.7446 53.1651 69.4057 53.7705 68.8023C54.3758 68.1989 54.7188 67.3803 54.7209 66.5256V56.4142C57.1898 55.7115 59.3633 54.224 60.9112 52.1763C62.4591 50.1285 63.2971 47.6327 63.2998 45.0657C63.2964 41.9352 62.0486 38.9343 59.835 36.7207C57.6214 34.5071 54.623 33.2618 51.4925 33.2584V33.2559ZM51.4925 50.4263C50.0723 50.4229 48.7089 49.8565 47.7059 48.8511C46.7029 47.8457 46.142 46.4834 46.142 45.0632C46.1426 43.6433 46.703 42.2806 47.7059 41.2754C48.7087 40.2701 50.0725 39.7042 51.4925 39.7002C52.916 39.7001 54.2813 40.265 55.2891 41.2704C56.2969 42.2758 56.8647 43.6397 56.8681 45.0632C56.8654 46.4872 56.297 47.8514 55.2891 48.8574C54.2812 49.8633 52.9165 50.4288 51.4925 50.4288V50.4263Z" fill="#FBB03B" />
</svg>
    