<svg width="16" height="16" viewBox="0 0 16 16" fill="none" xmlns="http://www.w3.org/2000/svg">
<g opacity="0.8" clip-path="url(#clip0_30429_12702)">
<path d="M8.0062 14.9348C7.30835 14.9427 6.62612 14.7281 6.05855 14.322L2.70727 12.2519C2.32015 11.9324 2.00384 11.5358 1.7785 11.0873C1.55315 10.6388 1.42371 10.1483 1.39844 9.64704V4.84932C1.41813 4.33231 1.5852 3.83169 1.87995 3.40647C2.1747 2.98125 2.58485 2.64913 3.06208 2.44926L6.85817 1.24323C7.60042 1.00463 8.39878 1.00463 9.14103 1.24323L12.9371 2.44926C13.4144 2.64913 13.8245 2.98125 14.1193 3.40647C14.414 3.83169 14.5811 4.33231 14.6008 4.84932V9.64064C14.5764 10.1422 14.4473 10.633 14.2219 11.0817C13.9965 11.5304 13.6797 11.9269 13.2919 12.2459L9.94065 14.316C9.38085 14.7282 8.70134 14.9456 8.0062 14.9348ZM7.19858 2.15365L3.40249 3.35968C3.11115 3.49222 2.86129 3.70141 2.6796 3.96491C2.4979 4.2284 2.39119 4.5363 2.37086 4.85572V9.64704C2.39528 9.99756 2.48874 10.3398 2.64588 10.6541C2.80302 10.9683 3.02072 11.2484 3.28648 11.4783L6.63777 13.5483C7.04331 13.8195 7.52017 13.9642 8.008 13.9642C8.49584 13.9642 8.9727 13.8195 9.37824 13.5483L12.7295 11.4783C12.996 11.249 13.2143 10.9691 13.3717 10.6547C13.5291 10.3403 13.6225 9.9978 13.6463 9.64704V4.84932C13.6242 4.53039 13.5168 4.22326 13.3353 3.96007C13.1539 3.69688 12.905 3.48731 12.6147 3.35328L8.81862 2.14565C8.28943 1.98998 7.72622 1.99276 7.19858 2.15365V2.15365Z" fill="#6E7191"/>
<path d="M6.7724 9.98185C6.7089 9.98195 6.64601 9.96945 6.58737 9.94508C6.52873 9.9207 6.47551 9.88494 6.43079 9.83985L5.05636 8.46101C4.96644 8.36997 4.91602 8.24716 4.91602 8.1192C4.91602 7.99124 4.96644 7.86843 5.05636 7.77739C5.1474 7.68747 5.27021 7.63705 5.39817 7.63705C5.52613 7.63705 5.64894 7.68747 5.73998 7.77739L6.7728 8.81462L10.2817 5.28813C10.3727 5.19821 10.4955 5.14779 10.6235 5.14779C10.7515 5.14779 10.8743 5.19821 10.9653 5.28813C11.0552 5.37917 11.1056 5.50198 11.1056 5.62994C11.1056 5.7579 11.0552 5.88071 10.9653 5.97175L7.11441 9.83985C7.06965 9.88498 7.01636 9.92078 6.95765 9.94516C6.89894 9.96953 6.83597 9.98201 6.7724 9.98185V9.98185Z" fill="#6E7191"/>
</g>
<defs>
<clipPath id="clip0_30429_12702">
<rect width="16" height="16" fill="white"/>
</clipPath>
</defs>
</svg>
