<svg width="18" height="19" viewBox="0 0 18 19" fill="none" xmlns="http://www.w3.org/2000/svg">
    <path fill-rule="evenodd" clip-rule="evenodd" d="M12.4575 4.43757V4.48069H12.6386C14.2159 4.48069 15.3013 4.84066 15.9475 5.55751C16.2437 5.94322 16.4551 6.38708 16.5679 6.86011C16.6807 7.33313 16.6924 7.82464 16.6022 8.3025L16.0582 14.1138C15.8971 15.6407 15.2712 17.2062 11.9106 17.2062H6.09073C2.72968 17.2062 2.10416 15.6407 1.94396 14.1219L1.39989 8.29305C1.31006 7.81669 1.32196 7.32672 1.4348 6.85527C1.54764 6.38383 1.75887 5.94158 2.05465 5.55751C2.7094 4.82986 3.79209 4.48069 5.36349 4.48069H5.54326V4.43757C5.54326 3.15732 5.54328 1.5625 8.41833 1.5625H9.58244C12.4575 1.5625 12.4575 3.15732 12.4575 4.43757ZM11.9105 5.56657L11.9079 5.56652H5.36305C4.1323 5.56652 3.28811 5.80501 2.86061 6.28651C2.66494 6.5576 2.52985 6.86763 2.46455 7.19552C2.39925 7.52341 2.40527 7.8615 2.48216 8.18687L2.50412 8.42206C3.85692 9.34296 5.39007 9.96091 6.99873 10.2365V10.1134C6.99873 9.08918 7.24894 8.83896 8.27314 8.83896H9.72795C10.7522 8.83896 11.0024 9.08918 11.0024 10.1134V10.2159C12.6162 9.92331 14.1507 9.28933 15.5021 8.35481L15.5173 8.19275C15.592 7.86628 15.5968 7.52768 15.5316 7.1992C15.4664 6.87072 15.3325 6.55971 15.1388 6.28651C14.7082 5.80636 13.8644 5.56652 12.6364 5.56652H11.9131L11.9105 5.56657ZM7.01406 11.3439C5.46734 11.1059 3.9807 10.5782 2.63185 9.78986L3.0262 14.0126C3.1513 15.1619 3.46268 16.1163 6.09023 16.1163H11.9101C14.5291 16.1163 14.849 15.1619 14.9701 14.0067L15.3719 9.7383C14.0232 10.536 12.5366 11.078 10.9869 11.3347C10.924 12.0409 10.6056 12.8412 9.00077 12.8412C7.39335 12.8412 7.07651 12.0421 7.01406 11.3439ZM11.3635 4.48069H6.63722V4.43757C6.63722 3.14247 6.63723 2.65646 8.41833 2.65646H9.58244C11.3635 2.65646 11.3635 3.14292 11.3635 4.43757V4.48069ZM8.09313 10.8595V9.93112H9.9089V10.8536C9.9089 11.6334 9.90842 11.7469 9.00077 11.7469C8.09313 11.7469 8.09313 11.61 8.09313 10.8595Z" fill="#2F2F3D" />
</svg>
    