<svg width="24" height="24" viewBox="0 0 24 24" fill="none" xmlns="http://www.w3.org/2000/svg">
    <g clip-path="url(#clip0_811_40688)">
        <path d="M16.6586 19.4401C16.6232 19.3309 16.664 19.2403 16.7594 19.0596C16.8746 18.8424 16.9895 18.5988 17.0999 18.3354C17.1221 18.2814 17.1445 18.2244 17.1667 18.1656C17.2225 18.0282 17.2785 17.8812 17.3331 17.7282C17.5316 17.1273 17.6419 16.5007 17.6606 15.8681V15.8598C17.6732 15.5598 17.6756 15.0905 17.6606 14.5859C17.6674 14.3826 17.6261 14.1806 17.5405 13.9961C17.4787 13.8028 17.3516 13.637 17.1807 13.5275C16.8869 13.3382 16.5564 13.2128 16.211 13.1597C15.9476 13.1111 15.9487 13.1398 15.8143 13.0684C15.7769 13.0503 15.7446 13.023 15.7205 12.9892C15.6964 12.9553 15.6815 12.9159 15.6766 12.8746C15.6748 12.8366 15.6825 12.7987 15.6994 12.7646C15.7163 12.7305 15.7419 12.7013 15.7733 12.6797C15.8729 12.6287 15.9857 12.6091 16.0967 12.6233C17.4839 12.6125 17.5894 12.5837 18.652 12.5855C19.8101 12.5855 20.3097 12.6347 20.3097 12.6347C20.6682 12.6937 20.9929 12.8819 21.222 13.1638C21.3479 13.334 21.436 13.529 21.481 13.7358C21.526 13.9427 21.5266 14.1567 21.4828 14.3638V14.3706C21.46 14.8733 21.3654 15.3702 21.2015 15.846C20.8061 16.9446 20.0803 17.8938 19.1237 18.5633C18.8093 18.7841 18.4735 18.9724 18.1212 19.1256L17.6647 19.3056L17.1883 19.4382L16.9012 19.4946C16.9012 19.4946 16.694 19.5474 16.661 19.4382L16.6586 19.4401ZM18.9843 14.7719V14.7785V14.79C18.9622 15.5906 18.8674 16.3875 18.7007 17.1708C18.6659 17.3244 18.6278 17.4792 18.5876 17.6304C19.1967 17.2013 19.6718 16.6085 19.9575 15.9204C20.0835 15.5958 20.1565 15.2529 20.1732 14.9051V14.9003C20.2068 14.7562 20.2059 14.6063 20.1708 14.4626C20.1358 14.3188 20.0677 14.1853 19.9716 14.0729C19.7864 13.8737 19.5374 13.745 19.2679 13.7087L18.972 13.6942C19.0004 14.0527 19.0043 14.4129 18.9843 14.7719ZM13.808 9.39158C13.754 9.25178 13.8201 9.16532 13.9011 9.06272C14.0003 8.93643 14.0913 8.80403 14.1736 8.66618C14.3313 8.40241 14.4616 8.12342 14.5633 7.83339C14.767 7.25384 14.8718 6.644 14.8727 6.02968C14.8668 5.22917 14.6785 4.44053 14.3219 3.72381C14.2858 3.67499 14.2622 3.61805 14.2533 3.55799C14.2444 3.49793 14.2505 3.43661 14.2709 3.37942C14.3225 3.23902 14.3781 3.2144 14.5281 3.16159C14.7809 3.07473 15.0424 3.01598 15.308 2.98639C15.308 2.98639 15.3079 2.98639 15.3121 2.98639C15.3163 2.98639 15.312 2.98639 15.3162 2.98639C15.4473 2.97202 15.5793 2.96487 15.7112 2.96486C16.1742 2.96344 16.6333 3.05388 17.0612 3.23103C17.489 3.40818 17.8773 3.66851 18.2038 3.99687C18.532 4.32351 18.7919 4.71195 18.969 5.13977C19.1462 5.56759 19.2369 6.02632 19.2357 6.48936C19.2369 6.95223 19.1462 7.41074 18.969 7.83837C18.7919 8.266 18.532 8.65416 18.2038 8.98054C17.9943 9.19023 17.7594 9.37303 17.5048 9.52474C16.9639 9.84075 16.3487 10.0065 15.7223 10.0048C15.1643 10.0054 14.6137 9.87335 14.1168 9.61952C13.9596 9.54212 13.862 9.53199 13.808 9.39158ZM15.6871 4.05151C15.8557 4.70775 15.9397 5.38276 15.9373 6.0603C15.9381 6.56023 15.893 7.05909 15.802 7.55067C15.7173 8.01575 15.5857 8.47115 15.4094 8.90978C15.5089 8.92191 15.6091 8.92794 15.7094 8.9278C16.356 8.92717 16.976 8.67009 17.4333 8.21294C17.8905 7.7558 18.1479 7.13594 18.1487 6.48936C18.1479 5.84278 17.8905 5.22293 17.4333 4.76578C16.976 4.30864 16.356 4.05141 15.7094 4.05078L15.6871 4.05151Z" fill="white" />
        <path d="M10.02 22.3732H9.75808C8.30205 22.3752 6.88096 21.9263 5.6904 21.0881C4.49683 20.2536 3.59166 19.0695 3.09874 17.6991C2.89389 17.1057 2.77569 16.486 2.74775 15.8589V15.8493C2.69227 15.5907 2.69221 15.3232 2.74775 15.0647C2.80329 14.8061 2.91266 14.5622 3.06944 14.3492C3.35621 13.9975 3.7619 13.7629 4.2097 13.6893L5.19117 13.6364H14.5934L15.5748 13.6893C16.0228 13.7623 16.4281 13.9971 16.7145 14.3492C16.8715 14.5622 16.9819 14.806 17.038 15.0645C17.094 15.323 17.0944 15.5904 17.0397 15.8493V15.8577C17.0112 16.4847 16.8932 17.1043 16.6893 17.6979C16.1959 19.0684 15.2909 20.2527 14.0976 21.0881C12.9041 21.9277 11.4792 22.3766 10.02 22.3732ZM6.26171 14.999L5.50407 15.0351C5.16824 15.0819 4.85867 15.2424 4.6269 15.4899C4.50743 15.6306 4.42278 15.7974 4.37963 15.9768C4.33648 16.1563 4.336 16.3435 4.37846 16.5231V16.5279C4.39984 16.9619 4.49113 17.3896 4.64858 17.7946C5.09457 18.7763 5.81945 19.6047 6.7334 20.1768C7.64734 20.7489 8.70953 21.039 9.78738 21.0112H9.99129C11.0691 21.0395 12.1314 20.7495 13.0453 20.1774C13.9591 19.6053 14.6842 18.7765 15.1295 17.7946C15.2867 17.3896 15.3777 16.9619 15.399 16.5279V16.5219C15.441 16.3422 15.4398 16.1552 15.3961 15.976C15.3524 15.7967 15.2676 15.6302 15.1477 15.4899C14.9167 15.2414 14.6061 15.0806 14.2699 15.0351L13.5129 14.999H6.26171ZM9.83191 10.4216C9.25448 10.4231 8.68248 10.31 8.14906 10.0889C7.61564 9.86777 7.13158 9.543 6.72461 9.13336C6.3151 8.72632 5.98995 8.24203 5.76892 7.70862C5.54789 7.17521 5.43509 6.6033 5.43668 6.02591C5.43512 5.44826 5.54849 4.87603 5.76951 4.34232C5.99052 3.80862 6.3151 3.32398 6.72461 2.91656C7.13153 2.50689 7.61562 2.1822 8.14906 1.96116C8.6825 1.74012 9.25449 1.62714 9.83191 1.62893C10.4097 1.62719 10.9821 1.74014 11.5159 1.96116C12.0498 2.18219 12.5341 2.5069 12.9416 2.91656C13.3509 3.32408 13.6758 3.80879 13.8967 4.34247C14.1176 4.87616 14.2304 5.44832 14.2289 6.02591C14.2305 6.60325 14.1176 7.17507 13.8967 7.70847C13.6757 8.24187 13.3509 8.72623 12.9416 9.13336C12.5341 9.543 12.0497 9.86778 11.5159 10.0889C10.9821 10.31 10.4097 10.4231 9.83191 10.4216ZM9.83191 2.98145C9.02576 2.98272 8.25315 3.30356 7.68323 3.87371C7.1133 4.44386 6.79236 5.21669 6.79141 6.02284C6.7922 6.82909 7.1127 7.60213 7.68264 8.1724C8.25258 8.74268 9.02566 9.06368 9.83191 9.06495C10.6385 9.064 11.412 8.74326 11.9824 8.17299C12.5527 7.60271 12.8736 6.82941 12.8748 6.02284C12.8732 5.21663 12.5515 4.44394 11.9812 3.87415C11.4108 3.30436 10.6381 2.984 9.83191 2.98321V2.98145Z" fill="white" />
    </g>
    <defs>
        <clipPath id="clip0_811_40688">
            <rect width="24" height="24" fill="white" />
        </clipPath>
    </defs>
</svg>
    