<svg width="18" height="18" viewBox="0 0 18 18" fill="none" xmlns="http://www.w3.org/2000/svg">
    <g clip-path="url(#clip0_33264_57539)">
        <path d="M9.01899 16.8076C7.47934 16.8076 5.97426 16.351 4.69409 15.4956C3.41392 14.6402 2.41615 13.4245 1.82695 12.002C1.23775 10.5795 1.08359 9.01432 1.38396 7.50426C1.68433 5.99419 2.42574 4.6071 3.51444 3.51841C4.60314 2.42971 5.99022 1.6883 7.50029 1.38792C9.01035 1.08755 10.5756 1.24172 11.998 1.83091C13.4205 2.42011 14.6363 3.41789 15.4917 4.69806C16.347 5.97823 16.8036 7.48331 16.8036 9.02296C16.8036 9.167 16.7464 9.30515 16.6445 9.407C16.5427 9.50886 16.4045 9.56608 16.2605 9.56608C16.1164 9.56608 15.9783 9.50886 15.8764 9.407C15.7746 9.30515 15.7174 9.167 15.7174 9.02296C15.7176 7.69787 15.3249 6.40247 14.5889 5.30058C13.8529 4.1987 12.8067 3.33983 11.5825 2.83259C10.3584 2.32536 9.01127 2.19255 7.71162 2.45097C6.41198 2.70938 5.21816 3.34741 4.28115 4.28435C3.34414 5.2213 2.70604 6.41507 2.44754 7.7147C2.18904 9.01433 2.32175 10.3614 2.8289 11.5856C3.33605 12.8098 4.19486 13.8561 5.29669 14.5922C6.39853 15.3283 7.6939 15.7211 9.01899 15.7209C9.16303 15.7209 9.30118 15.7781 9.40304 15.88C9.50489 15.9818 9.56211 16.12 9.56211 16.264C9.56211 16.408 9.50489 16.5462 9.40304 16.648C9.30118 16.7499 9.16303 16.8071 9.01899 16.8071V16.8076Z" fill="#6E7191" />
        <path d="M6.84726 16.0831H6.1228C5.97901 16.082 5.84141 16.0244 5.73977 15.9227C5.63813 15.8209 5.58062 15.6833 5.57968 15.5395C5.57883 15.3973 5.63411 15.2605 5.73353 15.1588C5.83294 15.0571 5.96846 14.9987 6.11065 14.9964C4.97353 11.094 4.97353 6.94823 6.11065 3.04587C5.96661 3.04426 5.8291 2.9855 5.72839 2.8825C5.62767 2.77951 5.57199 2.64072 5.5736 2.49668C5.57521 2.35263 5.63398 2.21513 5.73698 2.11441C5.83997 2.01369 5.97876 1.95802 6.1228 1.95963H6.84726C6.93331 1.96036 7.01801 1.98106 7.09469 2.02011C7.17137 2.05915 7.23793 2.11547 7.28914 2.18462C7.33943 2.25494 7.37223 2.33624 7.38483 2.42177C7.39743 2.5073 7.38946 2.5946 7.36159 2.67644C5.99993 6.79911 5.99993 11.2503 7.36159 15.373C7.38931 15.4547 7.3972 15.5419 7.3846 15.6272C7.372 15.7126 7.33928 15.7937 7.28914 15.8639C7.23882 15.9336 7.17229 15.99 7.0953 16.0281C7.01831 16.0663 6.93318 16.0852 6.84726 16.0831Z" fill="#6E7191" />
        <path d="M12.2488 9.56564C12.1051 9.56458 11.9676 9.50702 11.8659 9.40539C11.7643 9.30377 11.7068 9.16623 11.7057 9.02252C11.7054 6.86584 11.3581 4.72326 10.677 2.67693C10.6542 2.60939 10.6449 2.53801 10.6496 2.46687C10.6544 2.39573 10.6731 2.32622 10.7047 2.26231C10.7363 2.1984 10.7802 2.14135 10.8339 2.0944C10.8875 2.04745 10.9499 2.01153 11.0175 1.98869C11.085 1.96585 11.1564 1.95654 11.2275 1.96129C11.2987 1.96603 11.3682 1.98475 11.4321 2.01636C11.496 2.04797 11.553 2.09185 11.6 2.14552C11.6469 2.19918 11.6829 2.26156 11.7057 2.3291C12.4245 4.48721 12.7913 6.74695 12.7919 9.02162C12.7911 9.16549 12.7337 9.30325 12.632 9.40507C12.5304 9.50689 12.3927 9.56458 12.2488 9.56564Z" fill="#6E7191" />
        <path d="M9.01858 12.7951C6.9958 12.7956 4.98345 12.5053 3.04332 11.933C3.04142 12.077 2.98236 12.2144 2.87916 12.3149C2.77595 12.4154 2.63705 12.4708 2.493 12.4689C2.34896 12.467 2.21157 12.4079 2.11107 12.3047C2.01056 12.2015 1.95517 12.0626 1.95708 11.9186V11.1941C1.95788 11.1081 1.97862 11.0235 2.01766 10.9469C2.0567 10.8703 2.11298 10.8038 2.18207 10.7527C2.25239 10.7024 2.33369 10.6696 2.41922 10.657C2.50475 10.6444 2.59206 10.6524 2.67389 10.6802C4.71993 11.3612 6.8622 11.7085 9.01858 11.7089C9.16262 11.7089 9.30077 11.7661 9.40262 11.868C9.50448 11.9698 9.5617 12.108 9.5617 12.252C9.5617 12.396 9.50448 12.5342 9.40262 12.636C9.30077 12.7379 9.16262 12.7951 9.01858 12.7951Z" fill="#6E7191" />
        <path d="M15.5368 7.3918C15.4776 7.39283 15.4187 7.38307 15.3631 7.363C11.2404 6.00134 6.78916 6.00134 2.66649 7.363C2.52997 7.40912 2.38071 7.39912 2.25156 7.3352C2.1224 7.27128 2.02393 7.15867 1.9778 7.02214C1.93168 6.88561 1.94168 6.73635 2.0056 6.6072C2.06952 6.47804 2.18214 6.37957 2.31866 6.33345C6.66132 4.89211 11.3534 4.89211 15.696 6.33345C15.8319 6.38043 15.9438 6.47917 16.0072 6.60819C16.0707 6.7372 16.0806 6.88606 16.0349 7.02236C16.0035 7.12987 15.9379 7.22417 15.848 7.29088C15.758 7.35758 15.6487 7.39303 15.5368 7.3918Z" fill="#6E7191" />
        <path d="M13.5094 16.3729C12.9436 16.3729 12.3904 16.2051 11.9199 15.8907C11.4495 15.5763 11.0828 15.1295 10.8662 14.6067C10.6497 14.084 10.593 13.5087 10.7034 12.9538C10.8138 12.3988 11.0863 11.889 11.4864 11.4889C11.8865 11.0888 12.3963 10.8163 12.9513 10.7059C13.5062 10.5955 14.0815 10.6522 14.6042 10.8687C15.127 11.0853 15.5738 11.452 15.8882 11.9224C16.2026 12.3929 16.3704 12.9461 16.3704 13.5119C16.37 14.2706 16.0685 14.998 15.532 15.5345C14.9955 16.071 14.2681 16.3725 13.5094 16.3729ZM13.5094 11.7381C13.1584 11.738 12.8153 11.842 12.5235 12.0369C12.2317 12.2318 12.0042 12.5089 11.8698 12.8332C11.7355 13.1574 11.7003 13.5142 11.7688 13.8584C11.8372 14.2026 12.0062 14.5188 12.2544 14.7669C12.5025 15.0151 12.8187 15.1841 13.1629 15.2525C13.5071 15.321 13.8639 15.2858 14.1881 15.1515C14.5124 15.0171 14.7895 14.7896 14.9844 14.4978C15.1793 14.2059 15.2833 13.8629 15.2832 13.5119C15.2825 13.0416 15.0954 12.5907 14.7629 12.2581C14.4305 11.9255 13.9797 11.7381 13.5094 11.7372V11.7381Z" fill="#6E7191" />
        <path d="M16.2634 16.8071C16.192 16.8074 16.1213 16.7934 16.0554 16.7661C15.9895 16.7387 15.9297 16.6985 15.8795 16.6478L15.1551 15.9234C15.0533 15.8216 14.9961 15.6835 14.9961 15.5395C14.9961 15.3956 15.0533 15.2575 15.1551 15.1557C15.2569 15.0539 15.3949 14.9967 15.5389 14.9967C15.6829 14.9967 15.8209 15.0539 15.9227 15.1557L16.6472 15.8802C16.7481 15.9825 16.8046 16.1203 16.8046 16.264C16.8046 16.4076 16.7481 16.5455 16.6472 16.6478C16.597 16.6985 16.5372 16.7387 16.4713 16.7661C16.4054 16.7934 16.3347 16.8074 16.2634 16.8071Z" fill="#6E7191" />
    </g>
    <defs>
        <clipPath id="clip0_33264_57539">
            <rect width="18" height="18" fill="white" />
        </clipPath>
    </defs>
</svg>
    