<svg width="18" height="18" viewBox="0 0 18 18" fill="none" xmlns="http://www.w3.org/2000/svg">
    <path d="M5.60456 9.43212C5.55161 9.3806 5.50945 9.31904 5.48055 9.25105C5.45165 9.18306 5.43658 9.10999 5.43623 9.03611C5.43569 8.88731 5.49376 8.74427 5.59787 8.63795C5.70199 8.53164 5.84379 8.47059 5.99257 8.46803L11.9962 8.40694C12.1453 8.40538 12.2889 8.46312 12.3955 8.56745C12.502 8.67179 12.5627 8.81417 12.5643 8.96328C12.5658 9.11239 12.5081 9.256 12.4038 9.36254C12.2994 9.46908 12.157 9.5298 12.0079 9.53136L6.00368 9.59246C5.92975 9.59426 5.85622 9.58098 5.7876 9.55341C5.71898 9.52584 5.6567 9.48457 5.60456 9.43212Z" fill="#6E7191" />
    <path d="M8.60226 12.3983C8.54985 12.3462 8.50834 12.2842 8.48015 12.216C8.45196 12.1477 8.43766 12.0744 8.43808 12.0006L8.43808 5.9976C8.44102 5.85051 8.50151 5.71044 8.60657 5.60746C8.71163 5.50448 8.85288 5.44679 9 5.44679C9.14712 5.44679 9.28837 5.50448 9.39343 5.60746C9.49849 5.71044 9.55898 5.85051 9.56192 5.9976L9.56097 12.0022C9.55996 12.151 9.5004 12.2934 9.39518 12.3986C9.28996 12.5038 9.14753 12.5634 8.99873 12.5644C8.92493 12.5644 8.85187 12.5497 8.7838 12.5212C8.71573 12.4927 8.65402 12.4509 8.60226 12.3983Z" fill="#6E7191" />
    <path d="M11.2499 17.0622H6.75C2.67761 17.0622 0.9375 15.3221 0.9375 11.2497V6.74982C0.9375 2.67742 2.67761 0.937317 6.75 0.937317H11.2499C15.3223 0.937317 17.0624 2.67742 17.0624 6.74982V11.2497C17.0624 15.3221 15.3223 17.0622 11.2499 17.0622ZM6.75 2.06229C3.29229 2.06229 2.06247 3.29211 2.06247 6.74982V11.2497C2.06247 14.7074 3.29229 15.9372 6.75 15.9372H11.2499C14.7076 15.9372 15.9374 14.7074 15.9374 11.2497V6.74982C15.9374 3.29211 14.7072 2.06229 11.2499 2.06229H6.75Z" fill="#6E7191" />
</svg>
    