<svg width="18" height="18" viewBox="0 0 18 18" fill="none" xmlns="http://www.w3.org/2000/svg">
<path d="M5.60652 9.4323C5.55356 9.38078 5.51141 9.31923 5.48251 9.25124C5.4536 9.18324 5.43854 9.11018 5.43819 9.0363C5.43764 8.88749 5.49571 8.74445 5.59983 8.63814C5.70395 8.53182 5.84574 8.47078 5.99453 8.46822L11.9981 8.40712C12.1473 8.40556 12.2909 8.4633 12.3974 8.56764C12.5039 8.67197 12.5647 8.81435 12.5662 8.96346C12.5678 9.11257 12.51 9.25619 12.4057 9.36272C12.3014 9.46926 12.159 9.52999 12.0099 9.53154L6.00563 9.59264C5.9317 9.59445 5.85818 9.58116 5.78956 9.55359C5.72093 9.52602 5.65865 9.48475 5.60652 9.4323Z" fill="#F2F2F8"/>
<path d="M8.60226 12.3982C8.54985 12.3461 8.50834 12.2841 8.48015 12.2158C8.45196 12.1475 8.43766 12.0743 8.43808 12.0004L8.43808 5.99747C8.44102 5.85039 8.50151 5.71032 8.60657 5.60734C8.71163 5.50435 8.85288 5.44667 9 5.44667C9.14712 5.44667 9.28837 5.50435 9.39343 5.60734C9.49849 5.71032 9.55898 5.85039 9.56192 5.99747L9.56097 12.002C9.55996 12.1508 9.5004 12.2933 9.39518 12.3985C9.28996 12.5037 9.14753 12.5633 8.99873 12.5643C8.92493 12.5643 8.85187 12.5496 8.7838 12.5211C8.71573 12.4926 8.65402 12.4508 8.60226 12.3982Z" fill="#F2F2F8"/>
<path d="M11.2499 17.0624H6.75C2.67761 17.0624 0.9375 15.3223 0.9375 11.2499V6.75C0.9375 2.67761 2.67761 0.9375 6.75 0.9375H11.2499C15.3223 0.9375 17.0624 2.67761 17.0624 6.75V11.2499C17.0624 15.3223 15.3223 17.0624 11.2499 17.0624ZM6.75 2.06247C3.29229 2.06247 2.06247 3.29229 2.06247 6.75V11.2499C2.06247 14.7076 3.29229 15.9374 6.75 15.9374H11.2499C14.7076 15.9374 15.9374 14.7076 15.9374 11.2499V6.75C15.9374 3.29229 14.7072 2.06247 11.2499 2.06247H6.75Z" fill="#F2F2F8"/>
</svg>
