<svg width="24" height="24" viewBox="0 0 24 24" fill="none" xmlns="http://www.w3.org/2000/svg">
    <path d="M12.0245 22.4111C9.97156 22.4111 7.9647 21.8023 6.25772 20.6618C4.55073 19.5212 3.2203 17.9001 2.43467 16.0034C1.64903 14.1067 1.44347 12.0196 1.84398 10.0061C2.2445 7.99257 3.2331 6.14303 4.68477 4.69136C6.13644 3.23969 7.98597 2.25109 9.9995 1.85058C12.013 1.45006 14.1001 1.65562 15.9968 2.44126C17.8935 3.2269 19.5146 4.55733 20.6552 6.26431C21.7958 7.97129 22.4045 9.97816 22.4045 12.0311C22.4045 12.2232 22.3282 12.4074 22.1924 12.5432C22.0566 12.679 21.8724 12.7553 21.6803 12.7553C21.4883 12.7553 21.3041 12.679 21.1682 12.5432C21.0324 12.4074 20.9561 12.2232 20.9561 12.0311C20.9565 10.2643 20.4329 8.53697 19.4515 7.06771C18.4701 5.59846 17.075 4.45324 15.4427 3.7769C13.8104 3.10056 12.0142 2.92347 10.2813 3.26804C8.54835 3.61261 6.95651 4.46335 5.7071 5.71267C4.4577 6.96199 3.60685 8.55378 3.26216 10.2867C2.91748 12.0196 3.09444 13.8158 3.77068 15.4482C4.44691 17.0805 5.59204 18.4757 7.06122 19.4571C8.53041 20.4386 10.2577 20.9624 12.0245 20.9621C12.2166 20.9621 12.4008 21.0384 12.5366 21.1742C12.6724 21.3101 12.7487 21.4943 12.7487 21.6863C12.7487 21.8784 12.6724 22.0626 12.5366 22.1984C12.4008 22.3342 12.2166 22.4105 12.0245 22.4105V22.4111Z" fill="#6E7191" />
    <path d="M9.13109 21.4453H8.16509C7.97336 21.4439 7.78989 21.367 7.65436 21.2314C7.51883 21.0958 7.44215 20.9122 7.44089 20.7205C7.43976 20.5309 7.51348 20.3484 7.64604 20.2129C7.7786 20.0773 7.9593 19.9994 8.14889 19.9963C6.63266 14.7929 6.63266 9.26488 8.14889 4.06148C7.95682 4.05933 7.77348 3.98097 7.63918 3.84364C7.50489 3.70631 7.43065 3.52125 7.43279 3.32918C7.43494 3.13711 7.5133 2.95376 7.65064 2.81947C7.78797 2.68517 7.97302 2.61093 8.16509 2.61308H9.13109C9.24583 2.61406 9.35876 2.64166 9.46101 2.69372C9.56326 2.74578 9.65201 2.82088 9.72029 2.91308C9.78735 3.00685 9.83108 3.11526 9.84788 3.2293C9.86468 3.34335 9.85406 3.45976 9.81689 3.56888C8.00126 9.06604 8.00126 15.0013 9.81689 20.4985C9.85386 20.6074 9.86438 20.7236 9.84758 20.8374C9.83078 20.9513 9.78715 21.0594 9.72029 21.1531C9.65319 21.246 9.56448 21.3211 9.46182 21.372C9.35916 21.4229 9.24565 21.4481 9.13109 21.4453V21.4453Z" fill="#6E7191" />
    <path d="M16.3332 12.7548C16.1415 12.7534 15.9581 12.6766 15.8226 12.5411C15.6871 12.4056 15.6104 12.2222 15.609 12.0306C15.6086 9.15486 15.1455 6.29794 14.2374 3.56937C14.2069 3.47931 14.1945 3.38413 14.2008 3.28928C14.2072 3.19442 14.2321 3.10173 14.2743 3.01652C14.3164 2.9313 14.3749 2.85522 14.4465 2.79262C14.518 2.73002 14.6012 2.68213 14.6913 2.65167C14.7813 2.62122 14.8765 2.6088 14.9714 2.61513C15.0662 2.62146 15.1589 2.64641 15.2441 2.68856C15.3293 2.73071 15.4054 2.78923 15.468 2.86078C15.5306 2.93233 15.5785 3.01551 15.609 3.10557C16.5674 5.98319 17.0565 8.99633 17.0574 12.0294C17.0563 12.2212 16.9797 12.4049 16.8441 12.5407C16.7086 12.6764 16.525 12.7534 16.3332 12.7548V12.7548Z" fill="#6E7191" />
    <path d="M12.0252 17.0611C9.32806 17.0618 6.64481 16.6746 4.05784 15.9115C4.05529 16.1036 3.97655 16.2868 3.83894 16.4208C3.70132 16.5548 3.51611 16.6287 3.32404 16.6261C3.13197 16.6236 2.94878 16.5448 2.81476 16.4072C2.68075 16.2696 2.60689 16.0844 2.60944 15.8923V14.9263C2.61051 14.8117 2.63816 14.6989 2.69021 14.5967C2.74227 14.4946 2.81731 14.4059 2.90944 14.3377C3.00321 14.2707 3.11161 14.2269 3.22566 14.2101C3.33971 14.1933 3.45612 14.204 3.56524 14.2411C6.29342 15.1491 9.14993 15.6122 12.0252 15.6127C12.2173 15.6127 12.4015 15.689 12.5373 15.8248C12.6731 15.9607 12.7494 16.1449 12.7494 16.3369C12.7494 16.529 12.6731 16.7132 12.5373 16.849C12.4015 16.9848 12.2173 17.0611 12.0252 17.0611V17.0611Z" fill="#6E7191" />
    <path d="M20.7192 9.85627C20.6403 9.85766 20.5618 9.84464 20.4876 9.81787C14.9904 8.00224 9.05514 8.00224 3.55798 9.81787C3.37593 9.87938 3.17691 9.86605 3.0047 9.78081C2.83248 9.69558 2.70118 9.54542 2.63968 9.36337C2.57817 9.18133 2.59151 8.98231 2.67674 8.81009C2.76198 8.63788 2.91213 8.50658 3.09418 8.44507C8.88467 6.52319 15.1411 6.52319 20.9316 8.44507C21.1128 8.50772 21.2619 8.63938 21.3465 8.81141C21.4311 8.98344 21.4444 9.18192 21.3834 9.36367C21.3416 9.50702 21.2541 9.63277 21.1341 9.72171C21.0142 9.81066 20.8685 9.85791 20.7192 9.85627V9.85627Z" fill="#6E7191" />
    <path d="M18.014 21.8315C17.2595 21.8315 16.522 21.6078 15.8946 21.1886C15.2673 20.7694 14.7783 20.1736 14.4896 19.4766C14.2009 18.7795 14.1253 18.0125 14.2725 17.2725C14.4197 16.5325 14.783 15.8527 15.3165 15.3192C15.8501 14.7857 16.5298 14.4224 17.2698 14.2752C18.0098 14.128 18.7768 14.2036 19.4739 14.4923C20.1709 14.781 20.7667 15.27 21.1859 15.8973C21.6051 16.5247 21.8288 17.2622 21.8288 18.0167C21.8283 19.0283 21.4263 19.9983 20.711 20.7136C19.9957 21.429 19.0256 21.831 18.014 21.8315V21.8315ZM18.014 15.6515C17.5461 15.6514 17.0886 15.7901 16.6994 16.05C16.3103 16.3099 16.007 16.6794 15.8278 17.1117C15.6487 17.544 15.6018 18.0197 15.693 18.4787C15.7843 18.9377 16.0096 19.3593 16.3405 19.6902C16.6714 20.0211 17.093 20.2464 17.552 20.3377C18.011 20.4289 18.4867 20.382 18.919 20.2029C19.3514 20.0238 19.7208 19.7204 19.9808 19.3313C20.2407 18.9422 20.3793 18.4847 20.3792 18.0167C20.3783 17.3896 20.1288 16.7884 19.6855 16.3449C19.2422 15.9013 18.6411 15.6516 18.014 15.6503V15.6515Z" fill="#6E7191" />
    <path d="M21.6859 22.4106C21.5907 22.4109 21.4965 22.3923 21.4086 22.3559C21.3207 22.3194 21.241 22.2658 21.1741 22.1982L20.2081 21.2322C20.0724 21.0964 19.9961 20.9123 19.9961 20.7204C19.9961 20.5284 20.0724 20.3443 20.2081 20.2086C20.3438 20.0728 20.5279 19.9966 20.7199 19.9966C20.9119 19.9966 21.096 20.0728 21.2317 20.2086L22.1977 21.1746C22.3322 21.311 22.4076 21.4948 22.4076 21.6864C22.4076 21.8779 22.3322 22.0618 22.1977 22.1982C22.1308 22.2658 22.051 22.3194 21.9632 22.3559C21.8753 22.3923 21.781 22.4109 21.6859 22.4106V22.4106Z" fill="#6E7191" />
</svg>
    