<svg width="14" height="14" viewBox="0 0 14 14" fill="none" xmlns="http://www.w3.org/2000/svg">
    <path d="M1.20206 7.29335C1.49394 6.78798 2.08156 6.50869 2.85397 6.50869H3.58229V4.03572C3.57626 3.98431 3.58118 3.93221 3.59674 3.88285C3.61231 3.83349 3.63815 3.78798 3.67257 3.74933C3.70699 3.71067 3.74921 3.67975 3.79644 3.6586C3.84368 3.63744 3.89486 3.62653 3.94662 3.62659C4.04431 3.62649 4.1381 3.66497 4.20757 3.73365C4.27704 3.80234 4.31659 3.89568 4.3176 3.99337C4.3176 4.00317 4.3176 4.01262 4.3176 4.02277V6.50764H5.05256C5.82498 6.50764 6.41295 6.78763 6.70448 7.2923C6.99602 7.79698 6.94282 8.44725 6.55644 9.11676L5.45924 11.0196C5.07426 11.6891 4.53879 12.0594 3.95432 12.0594C3.36985 12.0594 2.83367 11.6902 2.44169 11.0203L1.3459 9.11781C1.13985 8.78501 1.02506 8.40381 1.01307 8.01257C1.01028 7.7602 1.07557 7.51175 1.20206 7.29335ZM6.06681 7.67833C5.94444 7.51552 5.78138 7.38777 5.59401 7.30791C5.40665 7.22805 5.20157 7.19889 4.99937 7.22336H2.90332C2.70107 7.19886 2.49593 7.22801 2.3085 7.30787C2.12107 7.38773 1.95796 7.51549 1.83552 7.67833C1.7561 7.86633 1.72724 8.07184 1.75179 8.27444C1.77635 8.47704 1.85348 8.6697 1.97552 8.83328L3.02337 10.6507C3.10284 10.8382 3.23031 11.0015 3.39294 11.1241C3.55557 11.2466 3.74763 11.3242 3.94977 11.349C4.15239 11.3242 4.34489 11.2465 4.5078 11.1235C4.67072 11.0005 4.79828 10.8367 4.87757 10.6486L5.92542 8.83118C6.07077 8.60278 6.15334 8.3401 6.16481 8.06961C6.16693 7.93242 6.13315 7.79705 6.06681 7.67693V7.67833Z" fill="#2F2F3D" />
    <path d="M7.40883 6.70665C7.70072 7.21202 8.28834 7.49131 9.06075 7.49131H9.78941V9.96428C9.7834 10.0155 9.78828 10.0674 9.80371 10.1167C9.81915 10.1659 9.8448 10.2113 9.879 10.2499C9.91319 10.2885 9.95515 10.3195 10.0021 10.3408C10.0491 10.362 10.1001 10.3732 10.1516 10.3734C10.2493 10.3735 10.3431 10.335 10.4126 10.2663C10.4821 10.1977 10.5216 10.1043 10.5226 10.0066C10.5226 9.99683 10.5226 9.98738 10.5226 9.97723V7.49236H11.2576C12.03 7.49236 12.618 7.21237 12.9095 6.7077C13.201 6.20302 13.1478 5.55275 12.7615 4.88324L11.6643 2.98038C11.2793 2.31087 10.7438 1.94059 10.1593 1.94059C9.57487 1.94059 9.03975 2.30982 8.64987 2.97933L7.55268 4.88219C7.34663 5.21499 7.23184 5.59619 7.21984 5.98743C7.21706 6.2398 7.28234 6.48825 7.40883 6.70665ZM12.2736 6.32167C12.1512 6.48448 11.9882 6.61223 11.8008 6.69209C11.6134 6.77195 11.4083 6.80111 11.2061 6.77664H9.10975C8.90749 6.80114 8.70236 6.77199 8.51493 6.69213C8.3275 6.61227 8.16438 6.48451 8.04195 6.32167C7.96253 6.13367 7.93366 5.92816 7.95822 5.72556C7.98278 5.52296 8.05991 5.3303 8.18194 5.16672L9.22979 3.34926C9.30985 3.16168 9.43798 2.99854 9.60125 2.87632C9.76453 2.7541 9.95716 2.67711 10.1597 2.65315C10.3618 2.67789 10.5539 2.75546 10.7165 2.87803C10.8792 3.0006 11.0066 3.16386 11.0861 3.35136L12.1339 5.16882C12.2793 5.39722 12.3619 5.6599 12.3733 5.93039C12.3749 6.06774 12.3405 6.20312 12.2736 6.32307V6.32167Z" fill="#2F2F3D" />
</svg>
    