<svg width="17" height="16" viewBox="0 0 17 16" fill="none" xmlns="http://www.w3.org/2000/svg">
    <path d="M1.87381 8.33531C2.2074 7.75773 2.87896 7.43855 3.76172 7.43855H4.59408V4.61229C4.58718 4.55354 4.59282 4.494 4.6106 4.43759C4.62838 4.38117 4.65792 4.32916 4.69726 4.28499C4.73659 4.24081 4.78484 4.20547 4.83883 4.1813C4.89281 4.15712 4.95131 4.14465 5.01046 4.14471C5.12211 4.1446 5.22929 4.18858 5.30868 4.26708C5.38808 4.34558 5.43328 4.45225 5.43444 4.56389C5.43444 4.57509 5.43444 4.58589 5.43444 4.59749V7.43735H6.27439C7.15715 7.43735 7.82912 7.75733 8.1623 8.33411C8.49548 8.91088 8.43469 9.65404 7.99311 10.4192L6.73917 12.5939C6.29919 13.3591 5.68722 13.7822 5.01926 13.7822C4.35129 13.7822 3.73852 13.3603 3.29054 12.5947L2.03821 10.4204C1.80272 10.04 1.67153 9.6044 1.65782 9.15726C1.65464 8.86885 1.72925 8.5849 1.87381 8.33531ZM7.43354 8.77528C7.29368 8.58921 7.10733 8.44321 6.89319 8.35194C6.67906 8.26067 6.44468 8.22735 6.2136 8.25531H3.81812C3.58697 8.22731 3.35252 8.26062 3.13832 8.35189C2.92412 8.44316 2.7377 8.58918 2.59778 8.77528C2.50701 8.99014 2.47402 9.225 2.50209 9.45655C2.53015 9.68809 2.6183 9.90827 2.75777 10.0952L3.95531 12.1723C4.04613 12.3866 4.19181 12.5732 4.37768 12.7133C4.56355 12.8534 4.78304 12.942 5.01406 12.9703C5.24562 12.942 5.46562 12.8532 5.65181 12.7126C5.838 12.5721 5.98378 12.3849 6.0744 12.1699L7.27194 10.0928C7.43806 9.83179 7.53243 9.53158 7.54553 9.22246C7.54795 9.06566 7.50935 8.91096 7.43354 8.77368V8.77528Z" fill="#2F2F3D" />
    <path d="M8.96719 7.66466C9.30077 8.24224 9.97234 8.56142 10.8551 8.56142H11.6878V11.3877C11.681 11.4462 11.6865 11.5056 11.7042 11.5618C11.7218 11.6181 11.7512 11.6699 11.7902 11.7141C11.8293 11.7582 11.8773 11.7936 11.931 11.8179C11.9847 11.8423 12.0429 11.855 12.1018 11.8553C12.2135 11.8554 12.3207 11.8114 12.4001 11.7329C12.4795 11.6544 12.5246 11.5477 12.5258 11.4361C12.5258 11.4249 12.5258 11.4141 12.5258 11.4025V8.56262H13.3658C14.2485 8.56262 14.9205 8.24264 15.2537 7.66586C15.5869 7.08909 15.5261 6.34593 15.0845 5.58077L13.8305 3.40608C13.3906 2.64092 12.7786 2.21774 12.1106 2.21774C11.4427 2.21774 10.8311 2.63972 10.3855 3.40488L9.13158 5.57957C8.89609 5.95992 8.7649 6.39557 8.7512 6.84271C8.74801 7.13112 8.82263 7.41507 8.96719 7.66466ZM14.5269 7.22469C14.387 7.41076 14.2007 7.55676 13.9866 7.64803C13.7724 7.7393 13.5381 7.77262 13.307 7.74466H10.9111C10.6799 7.77266 10.4455 7.73935 10.2313 7.64808C10.0171 7.55681 9.83067 7.41079 9.69075 7.22469C9.59998 7.00983 9.56699 6.77497 9.59506 6.54342C9.62312 6.31188 9.71127 6.0917 9.85074 5.90475L11.0483 3.82766C11.1398 3.61328 11.2862 3.42683 11.4728 3.28715C11.6594 3.14746 11.8796 3.05949 12.111 3.0321C12.342 3.06037 12.5615 3.14902 12.7474 3.2891C12.9333 3.42919 13.079 3.61577 13.1698 3.83006L14.3673 5.90715C14.5334 6.16818 14.6278 6.46838 14.6409 6.77751C14.6427 6.93449 14.6034 7.0892 14.5269 7.22629V7.22469Z" fill="#2F2F3D" />
</svg>
    