<svg width="18" height="18" viewBox="0 0 18 18" fill="none" xmlns="http://www.w3.org/2000/svg">
    <path d="M8.97088 16.8475C7.41848 16.8476 5.90093 16.3873 4.61013 15.5249C3.31932 14.6625 2.31325 13.4367 1.71913 12.0025C1.12501 10.5682 0.969542 8.99007 1.27238 7.4675C1.57521 5.94494 2.32275 4.54636 3.42046 3.44866C4.51817 2.35095 5.91674 1.60341 7.4393 1.30058C8.96187 0.99774 10.54 1.15321 11.9743 1.74733C13.4085 2.34144 14.6343 3.34752 15.4967 4.63832C16.3591 5.92913 16.8194 7.44668 16.8193 8.99908C16.8175 11.0801 15.99 13.0753 14.5186 14.5468C13.0471 16.0182 11.0519 16.8457 8.97088 16.8475ZM8.97088 2.24514C7.63518 2.24514 6.32948 2.64121 5.21889 3.38328C4.10829 4.12534 3.24268 5.18006 2.73151 6.41407C2.22034 7.64809 2.08658 9.00596 2.34712 10.316C2.60767 11.626 3.25083 12.8294 4.19528 13.7739C5.13973 14.7184 6.34304 15.3617 7.65306 15.6223C8.96308 15.8829 10.321 15.7493 11.555 15.2382C12.7891 14.7271 13.8438 13.8615 14.586 12.751C15.3281 11.6404 15.7243 10.3348 15.7244 8.99908C15.7222 7.2086 15.01 5.49207 13.7439 4.22601C12.4779 2.95995 10.7614 2.24773 8.97088 2.24559V2.24514Z" fill="#2F2F3D" />
    <path d="M3.78662 14.6578C3.71466 14.6582 3.64335 14.6441 3.57689 14.6165C3.51043 14.5889 3.45015 14.5484 3.3996 14.4971C3.2978 14.394 3.24072 14.255 3.24072 14.1101C3.24072 13.9652 3.2978 13.8262 3.3996 13.7231L13.621 3.50174C13.7236 3.3991 13.8628 3.34143 14.008 3.34143C14.1531 3.34143 14.2924 3.3991 14.395 3.50174C14.4976 3.60438 14.5553 3.7436 14.5553 3.88876C14.5553 4.03392 14.4976 4.17313 14.395 4.27578L4.17364 14.4971C4.12308 14.5484 4.06281 14.5889 3.99634 14.6165C3.92988 14.6441 3.85858 14.6582 3.78662 14.6578Z" fill="#2F2F3D" />
</svg>
    