<svg width="17" height="16" viewBox="0 0 17 16" fill="none" xmlns="http://www.w3.org/2000/svg">
    <g clip-path="url(#clip0_486_9613)">
        <path fill-rule="evenodd" clip-rule="evenodd" d="M4.80756 13.7994C5.95494 14.5659 7.30388 14.9751 8.68379 14.975C10.5335 14.9734 12.3071 14.2379 13.6151 12.9299C14.923 11.6219 15.6585 9.84839 15.6601 7.99864C15.6602 6.61873 15.2511 5.26979 14.4845 4.12241C13.7179 2.97503 12.6283 2.08074 11.3535 1.55264C10.0786 1.02453 8.67578 0.886338 7.32239 1.15552C5.96899 1.42471 4.72582 2.08919 3.75008 3.06493C2.77434 4.04067 2.10986 5.28384 1.84067 6.63724C1.57149 7.99063 1.70968 9.39346 2.23779 10.6683C2.76589 11.9432 3.66018 13.0328 4.80756 13.7994ZM5.34868 3.00681C6.33588 2.3472 7.4965 1.99514 8.68379 1.99514C10.0968 1.99683 11.458 2.49643 12.5332 3.39597L4.07923 11.8499C3.43539 11.0802 2.99285 10.159 2.79601 9.16924C2.56441 8.00476 2.68331 6.79776 3.13768 5.70086C3.59206 4.60396 4.36149 3.66642 5.34868 3.00681ZM4.76199 12.5432L13.2265 4.07871C14.1638 5.16455 14.6852 6.55454 14.6869 7.99864C14.6868 9.18592 14.3347 10.3465 13.675 11.3337C13.0153 12.3208 12.0777 13.0902 10.9808 13.5445C9.88387 13.9988 8.67686 14.1176 7.51239 13.8859C6.49255 13.683 5.54547 13.2193 4.76199 12.5432Z" fill="#2F2F3D" />
    </g>
    <defs>
        <clipPath id="clip0_486_9613">
            <rect width="16" height="16" fill="white" transform="translate(0.709717)" />
        </clipPath>
    </defs>
</svg>
    