<svg width="4" height="12" viewBox="0 0 4 12" fill="none" xmlns="http://www.w3.org/2000/svg">
    <path d="M3.21589 1.27549C3.21589 1.94655 2.67189 2.49055 2.00083 2.49055C1.32977 2.49055 0.785767 1.94655 0.785767 1.27549C0.785767 0.604426 1.32977 0.0604248 2.00083 0.0604248C2.67189 0.0604248 3.21589 0.604426 3.21589 1.27549Z" fill="#2F2F3D" />
    <path d="M3.21589 10.726C3.21589 11.397 2.67189 11.941 2.00083 11.941C1.32977 11.941 0.785767 11.397 0.785767 10.726C0.785767 10.0549 1.32977 9.5109 2.00083 9.5109C2.67189 9.5109 3.21589 10.0549 3.21589 10.726Z" fill="#2F2F3D" />
    <path d="M3.21589 5.77571C3.21589 6.44677 2.67189 6.99077 2.00083 6.99077C1.32977 6.99077 0.785767 6.44677 0.785767 5.77571C0.785767 5.10465 1.32977 4.56065 2.00083 4.56065C2.67189 4.56065 3.21589 5.10465 3.21589 5.77571Z" fill="#2F2F3D" />
</svg>
    