<svg width="16" height="16" viewBox="0 0 16 16" fill="none" xmlns="http://www.w3.org/2000/svg">
    <path d="M15.25 8C15.25 12.0041 12.0041 15.25 8 15.25C3.99594 15.25 0.75 12.0041 0.75 8C0.75 3.99594 3.99594 0.75 8 0.75C12.0041 0.75 15.25 3.99594 15.25 8Z" fill="white" stroke="url(#paint0_linear_1309_71215)" stroke-width="1.5" stroke-miterlimit="10" stroke-linecap="round" />
    <g clip-path="url(#clip0_1309_71215)">
        <path d="M7.82314 9.50978C7.79984 9.48664 7.78139 9.45909 7.76887 9.42874C7.75634 9.39839 7.74998 9.36584 7.75017 9.33301V8.25171L6.66839 8.26272C6.63553 8.26352 6.60285 8.25762 6.57235 8.24536C6.54185 8.23311 6.51417 8.21477 6.491 8.19146C6.46747 8.16856 6.44873 8.1412 6.43589 8.11098C6.42304 8.08077 6.41634 8.04829 6.41619 8.01546C6.41595 7.94932 6.44175 7.88575 6.48803 7.83849C6.5343 7.79124 6.59732 7.76411 6.66345 7.76297L7.75017 7.75192V6.66502C7.75147 6.59965 7.77836 6.53739 7.82505 6.49162C7.87175 6.44585 7.93453 6.42022 7.99991 6.42022C8.0653 6.42022 8.12807 6.44585 8.17477 6.49162C8.22146 6.53739 8.24835 6.59965 8.24965 6.66502L8.24948 7.74683L9.33173 7.73582C9.398 7.73513 9.46183 7.76079 9.50918 7.80716C9.55653 7.85353 9.58351 7.91681 9.58421 7.98308C9.5849 8.04935 9.55924 8.11318 9.51287 8.16053C9.4665 8.20788 9.40321 8.23487 9.33694 8.23556L8.2494 8.24663L8.24923 9.33371C8.24878 9.39985 8.22231 9.46315 8.17555 9.50992C8.12878 9.55668 8.06548 9.58315 7.99934 9.5836C7.96655 9.5836 7.93407 9.57707 7.90382 9.5644C7.87357 9.55173 7.84614 9.53316 7.82314 9.50978Z" fill="#2F2F3D" />
        <path fill-rule="evenodd" clip-rule="evenodd" d="M6.99935 11.5826H8.9993C10.8093 11.5826 11.5826 10.8093 11.5826 8.9993V6.99935C11.5826 5.1894 10.8093 4.41602 8.9993 4.41602H6.99935C5.1894 4.41602 4.41602 5.1894 4.41602 6.99935V8.9993C4.41602 10.8093 5.1894 11.5826 6.99935 11.5826ZM4.916 6.99935C4.916 5.46259 5.46259 4.916 6.99935 4.916H8.9993C10.5359 4.916 11.0826 5.46259 11.0826 6.99935V8.9993C11.0826 10.5361 10.5361 11.0826 8.9993 11.0826H6.99935C5.46259 11.0826 4.916 10.5361 4.916 8.9993V6.99935Z" fill="#2F2F3D" />
    </g>
    <defs>
        <linearGradient id="paint0_linear_1309_71215" x1="-0.436364" y1="8" x2="16.4364" y2="8" gradientUnits="userSpaceOnUse">
            <stop stop-color="#0066FF" />
            <stop offset="0.312496" stop-color="#3FF371" />
            <stop offset="0.541667" stop-color="#FFE600" />
            <stop offset="0.734379" stop-color="#FF4004" />
            <stop offset="1" stop-color="#F30092" />
        </linearGradient>
        <clipPath id="clip0_1309_71215">
            <rect width="8" height="8" fill="white" transform="translate(4 4)" />
        </clipPath>
    </defs>
</svg>