<svg width="24" height="24" viewBox="0 0 24 24" fill="none" xmlns="http://www.w3.org/2000/svg">
    <path d="M16.3661 1.59131H7.64446C3.85606 1.59131 1.59766 3.85213 1.59766 7.64053V16.3514C1.59766 20.1482 3.85606 22.4113 7.64446 22.4113H16.3577C20.1461 22.4113 22.4045 20.1505 22.4045 16.3621V7.64478C22.4135 3.85338 20.1545 1.59131 16.3661 1.59131ZM17.2091 17.6899C16.3038 17.6773 15.4112 17.4756 14.5885 17.0977C13.7659 16.7198 13.0312 16.1742 12.4319 15.4958C10.8943 16.9036 8.88618 17.6861 6.80145 17.6899C6.59513 17.6908 6.39686 17.6099 6.25005 17.4649C6.13937 17.3561 6.06367 17.2167 6.03264 17.0646C6.00161 16.9125 6.01665 16.7546 6.07587 16.6111C6.13508 16.4676 6.23575 16.3452 6.36501 16.2592C6.49427 16.1733 6.64623 16.1278 6.80145 16.1287C8.56502 16.0937 10.2534 15.4082 11.5424 14.2041C12.8314 12.9999 13.63 11.362 13.7849 9.60488H6.81226C6.60583 9.60449 6.40798 9.52237 6.26206 9.37637C6.11557 9.22915 6.03281 9.03019 6.03166 8.82251C6.03411 8.61732 6.11732 8.42141 6.26326 8.27715C6.41022 8.1339 6.60703 8.05324 6.81226 8.05215H11.2253V7.08608C11.2253 6.98365 11.2454 6.88218 11.2846 6.78755C11.3238 6.69291 11.3813 6.607 11.4537 6.53457C11.5261 6.46214 11.6121 6.40473 11.7068 6.36553C11.8014 6.32633 11.9028 6.30606 12.0053 6.30606C12.1077 6.30606 12.2091 6.32633 12.3038 6.36553C12.3984 6.40473 12.4844 6.46214 12.5568 6.53457C12.6292 6.607 12.6867 6.69291 12.7259 6.78755C12.7651 6.88218 12.7853 6.98365 12.7853 7.08608V8.05215H14.5445C14.5655 8.05215 14.5859 8.04365 14.6045 8.04365C14.6231 8.04365 14.6459 8.05215 14.6645 8.05215H17.1977C17.4045 8.05215 17.6029 8.13424 17.7492 8.28052C17.8955 8.4268 17.9777 8.62531 17.9777 8.83218C17.9777 9.03905 17.8955 9.23741 17.7492 9.38369C17.6029 9.52997 17.4045 9.61206 17.1977 9.61206H15.3449C15.1949 11.3371 14.5559 12.9836 13.5029 14.3582C13.958 14.9018 14.5239 15.342 15.1629 15.6493C15.8018 15.9566 16.499 16.124 17.2079 16.1401C17.4144 16.1407 17.6122 16.223 17.7581 16.3692C17.8311 16.4409 17.8892 16.5265 17.9288 16.6209C17.9684 16.7153 17.9888 16.8165 17.9888 16.9188C17.9888 17.0212 17.9684 17.1226 17.9288 17.2169C17.8892 17.3113 17.8311 17.3968 17.7581 17.4685C17.6857 17.5399 17.6 17.5964 17.5058 17.6346C17.4116 17.6728 17.3107 17.692 17.2091 17.6911V17.6899Z" fill="#6E7191" />
</svg>
    