<svg width="24" height="24" viewBox="0 0 24 24" fill="none" xmlns="http://www.w3.org/2000/svg">
    <path d="M16.8026 9.79946H7.20255C7.01155 9.79582 6.82931 9.71859 6.69375 9.58398C6.59359 9.48323 6.52548 9.3551 6.49799 9.21572C6.47049 9.07634 6.48485 8.93197 6.53924 8.80073C6.59364 8.66949 6.68564 8.55724 6.80367 8.47817C6.9217 8.39911 7.06048 8.35681 7.20255 8.35645H16.8026C16.9446 8.35681 17.0834 8.39911 17.2014 8.47817C17.3195 8.55724 17.4115 8.66949 17.4659 8.80073C17.5203 8.93197 17.5346 9.07634 17.5071 9.21572C17.4796 9.3551 17.4115 9.48323 17.3114 9.58398C17.1758 9.71859 16.9936 9.79582 16.8026 9.79946Z" fill="#6E7191" />
    <path d="M11.9991 9.79873C11.8081 9.79515 11.6259 9.71806 11.4903 9.5834C11.3549 9.44909 11.2783 9.26642 11.2773 9.07568V7.45938C11.2773 7.26802 11.3534 7.08448 11.4887 6.94917C11.624 6.81386 11.8075 6.73779 11.9988 6.73779C12.1902 6.73779 12.3737 6.81386 12.509 6.94917C12.6443 7.08448 12.7203 7.26802 12.7203 7.45938V9.07568C12.7194 9.26642 12.6428 9.44909 12.5073 9.5834C12.372 9.71791 12.1899 9.795 11.9991 9.79873Z" fill="#6E7191" />
    <path d="M7.19083 17.261C7.00003 17.2621 6.81661 17.1873 6.68083 17.0533C6.57968 16.9522 6.51076 16.8235 6.48276 16.6833C6.45476 16.543 6.46894 16.3975 6.5235 16.2653C6.57807 16.1332 6.67058 16.0202 6.78935 15.9406C6.90812 15.8609 7.04782 15.8183 7.19083 15.818C8.94828 15.7816 10.6194 15.0489 11.837 13.7811C13.0547 12.5133 13.7192 10.814 13.6846 9.05654C13.6846 8.86519 13.7606 8.68165 13.8959 8.54634C14.0313 8.41103 14.2148 8.33496 14.4061 8.33496C14.5975 8.33496 14.781 8.41103 14.9163 8.54634C15.0516 8.68165 15.1276 8.86519 15.1276 9.05654C15.1618 11.1966 14.3451 13.2627 12.857 14.8011C11.3688 16.3394 9.33086 17.2242 7.19083 17.261Z" fill="#6E7191" />
    <path d="M16.812 17.2646C15.8355 17.2427 14.8782 16.9896 14.0186 16.526C13.1589 16.0624 12.4215 15.4016 11.8668 14.5977C11.8099 14.5219 11.7686 14.4357 11.7451 14.344C11.7217 14.2522 11.7165 14.1567 11.73 14.063C11.7431 13.9694 11.7748 13.8793 11.8231 13.798C11.8714 13.7167 11.9354 13.6459 12.0114 13.5896C12.087 13.5324 12.1731 13.4908 12.2649 13.467C12.3567 13.4432 12.4522 13.4376 12.5461 13.4509C12.64 13.4641 12.7303 13.4957 12.812 13.5439C12.8936 13.5921 12.9649 13.656 13.0218 13.7318C13.4474 14.3534 14.013 14.8663 14.6731 15.2293C15.3332 15.5923 16.0693 15.7951 16.8222 15.8216C17.0127 15.8228 17.1952 15.8992 17.3299 16.034C17.4647 16.1687 17.5409 16.3511 17.5422 16.5417C17.5389 16.7332 17.4605 16.9157 17.3238 17.0498C17.1868 17.184 17.0037 17.2608 16.812 17.2646Z" fill="#6E7191" />
    <path d="M14.8845 22.3435H9.11245C3.88825 22.3435 1.65625 20.1114 1.65625 14.8854V9.11289C1.65625 3.89289 3.88825 1.65479 9.11245 1.65479H14.8851C20.1093 1.65479 22.3412 3.89049 22.3412 9.11289V14.8854C22.3412 20.112 20.1087 22.3435 14.8845 22.3435ZM9.11185 3.10205C4.67665 3.10205 3.09865 4.67589 3.09865 9.11289V14.8854C3.09865 19.3254 4.67665 20.8962 9.11185 20.8962H14.8845C19.3197 20.8962 20.8977 19.3224 20.8977 14.8854V9.11289C20.8977 4.67289 19.3197 3.10205 14.8845 3.10205H9.11185Z" fill="#6E7191" />
</svg>
    