<svg width="36" height="36" viewBox="0 0 36 36" fill="none" xmlns="http://www.w3.org/2000/svg">
    <g opacity="0.8" clip-path="url(#clip0_30361_14175)">
        <path d="M22.2375 33.5995H13.479C5.5462 33.5995 2.16016 30.2126 2.16016 22.2753V13.5083C2.16016 5.57096 5.5462 2.18414 13.479 2.18414H22.2375C30.1703 2.18414 33.5564 5.57096 33.5564 13.5083V22.2753C33.5564 30.2135 30.1703 33.5995 22.2375 33.5995ZM9.46405 23.4408C10.1954 23.9334 10.9952 24.3156 11.838 24.5748C12.6793 24.8333 13.5543 24.9644 14.4344 24.9638C14.5703 24.9638 14.7047 24.9638 14.8334 24.9548C15.5094 24.9477 16.1836 24.8765 16.8462 24.7423C17.7257 24.5359 18.5745 24.2168 19.3722 23.7928C20.1719 23.3714 20.9125 22.8456 21.5739 22.2294C22.0715 21.7515 22.5134 21.219 22.8914 20.6419C23.2685 20.0637 23.58 19.445 23.8196 18.7976C24.0805 18.1086 24.2706 17.3948 24.3874 16.6673C24.5049 15.9398 24.5477 15.2021 24.5157 14.4658C24.8647 14.1883 25.1871 13.8785 25.4781 13.5406C25.7687 13.2009 26.0272 12.8355 26.2516 12.4489C25.6624 12.7642 25.0155 12.9554 24.3496 13.0106C24.6338 12.7829 24.8971 12.5301 25.1362 12.2553C25.2932 12.0747 25.4296 11.8769 25.5423 11.6658C25.6134 11.5412 25.6665 11.4074 25.7005 11.2681C25.7153 11.2092 25.7226 11.1488 25.7233 11.0881C25.0769 11.586 24.289 11.8655 23.4733 11.8864H23.4197C23.2578 11.7269 23.0815 11.5826 22.8932 11.4553C22.7028 11.3303 22.5002 11.225 22.2885 11.1411C22.0891 11.0579 21.8811 10.996 21.6688 10.9558C21.4565 10.9127 21.2404 10.891 21.0237 10.891H20.9903H20.9631C20.7368 10.8968 20.5125 10.9245 20.2916 10.9739C20.0722 11.0244 19.8574 11.0957 19.6517 11.187C19.447 11.2784 19.2524 11.3901 19.0699 11.5201C18.8841 11.6511 18.7112 11.7997 18.5539 11.9638C18.399 12.1297 18.2609 12.3106 18.1417 12.5039C18.0211 12.6929 17.9196 12.8934 17.8385 13.1024C17.7583 13.3123 17.6979 13.5292 17.6583 13.7504C17.6182 13.9743 17.6021 14.2016 17.61 14.4289C17.6126 14.7197 17.6526 15.009 17.7295 15.2894C17.6395 15.2993 17.5493 15.3021 17.4737 15.3048H17.4676C17.4406 15.3032 17.4137 15.3032 17.3867 15.3048C15.617 15.2534 13.9083 14.6473 12.5016 13.5722C11.7651 13.0557 11.0882 12.4589 10.4836 11.7928C10.3236 12.0671 10.2051 12.3634 10.1312 12.6722C10.0547 12.9805 10.0203 13.2977 10.0292 13.6153C10.045 13.8708 10.0875 14.124 10.1566 14.3705C10.225 14.6175 10.3202 14.8565 10.4397 15.0833C10.5708 15.3365 10.7242 15.5776 10.8985 15.8034C11.0725 16.0269 11.2658 16.2344 11.4768 16.4234C11.4255 16.4316 11.374 16.4368 11.3221 16.4388H11.3116C10.8768 16.4089 10.459 16.2592 10.1039 16.0066C10.0979 16.3156 10.1292 16.6242 10.198 16.9255C10.2723 17.2246 10.3811 17.5144 10.5214 17.7889C10.6348 17.9943 10.7693 18.1875 10.9222 18.3657C11.0767 18.5405 11.2486 18.6985 11.4364 18.8372C11.6356 18.9834 11.8485 19.1104 12.0718 19.2162C12.2951 19.3212 12.5289 19.4029 12.7688 19.4601C12.5607 19.5496 12.3362 19.5957 12.1096 19.5959H12.0507H12.0173C11.799 19.5951 11.5815 19.5745 11.3669 19.534H11.359C11.4605 19.8691 11.6158 20.1857 11.8178 20.4718C12.0163 20.7585 12.2592 21.0116 12.5377 21.2215C12.815 21.4334 13.1251 21.5979 13.4561 21.7084C13.7866 21.8232 14.1339 21.8839 14.4836 21.8884C13.9749 22.4226 13.3567 22.8413 12.6721 23.116C12.0452 23.3705 11.3755 23.5013 10.6989 23.5012C10.6395 23.5012 10.58 23.5012 10.5188 23.5012H10.3641C10.0631 23.501 9.7625 23.4815 9.46405 23.4428V23.4408Z" fill="#6E7191" />
    </g>
    <defs>
        <clipPath id="clip0_30361_14175">
            <rect width="35.9991" height="36" fill="white" />
        </clipPath>
    </defs>
</svg>