<svg width="14" height="15" viewBox="0 0 14 15" fill="none" xmlns="http://www.w3.org/2000/svg">
    <g clip-path="url(#clip0_503_16175)">
        <path d="M5.90891 11.9751C5.82812 12.0559 5.78273 12.1655 5.78273 12.2797C5.78272 12.3363 5.79387 12.3924 5.81551 12.4446C5.83716 12.4969 5.86889 12.5444 5.9089 12.5844C5.9489 12.6244 5.99639 12.6562 6.04866 12.6778C6.10093 12.6995 6.15695 12.7106 6.21353 12.7106C6.24447 12.7106 6.27532 12.7073 6.30556 12.7008H9.81095C10.0547 12.7016 10.2982 12.6833 10.5391 12.6461C10.7579 12.6122 10.973 12.558 11.1818 12.4843C11.3753 12.4158 11.561 12.3269 11.7357 12.2191C11.9029 12.1154 12.0576 11.9929 12.1969 11.854C12.3358 11.7147 12.4583 11.5599 12.562 11.3927C12.6697 11.218 12.7587 11.0324 12.8272 10.8389C12.9009 10.6301 12.955 10.415 12.989 10.1962C13.0262 9.95525 13.0445 9.71179 13.0437 9.46802V5.53239C13.0445 5.28864 13.0262 5.0452 12.989 4.80431C12.955 4.58552 12.9009 4.37036 12.8272 4.16156C12.7587 3.96808 12.6697 3.78243 12.562 3.60773C12.4583 3.44052 12.3359 3.28575 12.1969 3.14646C12.0577 3.00754 11.9029 2.88505 11.7357 2.78141C11.561 2.67361 11.3753 2.5847 11.1818 2.51615C10.973 2.44247 10.7579 2.38832 10.5391 2.35438C10.2982 2.31712 10.0547 2.2988 9.81095 2.29958H4.18865C4.01223 2.29933 3.83594 2.30867 3.66054 2.32757C3.49728 2.34527 3.33526 2.37298 3.1754 2.41055C3.02546 2.44594 2.87814 2.49162 2.73448 2.54729C2.59809 2.60027 2.46589 2.66349 2.33902 2.7364C2.2166 2.80703 2.10007 2.88738 1.99051 2.97666C1.88259 3.0649 1.78213 3.16188 1.69016 3.26664C1.59753 3.37248 1.51363 3.48567 1.43931 3.60508C1.37475 3.709 1.31706 3.81703 1.26661 3.92849C1.21845 3.99838 1.19273 4.08129 1.19287 4.16617C1.19287 4.2775 1.23711 4.38428 1.31583 4.463C1.39456 4.54172 1.50132 4.58595 1.61265 4.58595C1.69569 4.58595 1.77687 4.56133 1.84592 4.51521C1.91497 4.46909 1.96879 4.40353 2.00059 4.32683L2.0028 4.32781C2.33081 3.53058 3.04578 3.14296 4.18869 3.14296H9.81096C11.4188 3.14296 12.2005 3.92451 12.2005 5.53234V9.46797C12.2005 11.0758 11.4188 11.8573 9.81096 11.8573H6.29869C6.27066 11.8517 6.24213 11.8489 6.21355 11.8489C6.09929 11.8489 5.98971 11.8943 5.90891 11.9751Z" fill="#2F2F3D" />
        <path fill-rule="evenodd" clip-rule="evenodd" d="M3.57858 12.2974C3.5778 12.3076 3.57734 12.3177 3.57734 12.3281C3.57734 12.5368 3.78475 12.7063 3.99353 12.7063C4.20231 12.7063 4.40357 12.5374 4.40357 12.3286C4.40359 12.3136 4.40272 12.2986 4.40096 12.2837V10.653H5.11987C5.91771 10.653 6.52451 10.3644 6.82575 9.84243C6.9564 9.61697 7.02386 9.36046 7.02101 9.09989C7.02101 8.74344 6.90641 8.35297 6.67722 7.95834L5.54428 5.99364C5.14115 5.302 4.58944 4.92003 3.98688 4.92003C3.38431 4.92003 2.83266 5.302 2.43385 5.99364L1.30077 7.95834C0.901903 8.64998 0.846695 9.31629 1.14807 9.84243C1.44931 10.3644 2.0561 10.653 2.85393 10.653H3.57858V12.2974ZM2.07156 8.22631L3.08835 6.46314C3.33966 6.02524 3.65963 5.78535 3.9871 5.78535C4.31457 5.78535 4.63448 6.02525 4.88581 6.46316L5.90257 8.22632C6.15391 8.6643 6.20344 9.0603 6.0397 9.34595C5.87595 9.6316 5.50648 9.7877 5.00385 9.7877H2.9703C2.46766 9.7877 2.09822 9.6316 1.93447 9.34595C1.87011 9.22949 1.83729 9.09825 1.83925 8.96521C1.83925 8.74423 1.91546 8.4929 2.07156 8.22631Z" fill="#2F2F3D" />
    </g>
    <defs>
        <clipPath id="clip0_503_16175">
            <rect width="14" height="14" fill="white" transform="translate(0 0.5)" />
        </clipPath>
    </defs>
</svg>
    