<svg width="18" height="19" viewBox="0 0 18 19" fill="none" xmlns="http://www.w3.org/2000/svg">
    <g clip-path="url(#clip0_804_36956)">
        <path d="M7.59716 15.2545C7.49328 15.3583 7.43492 15.4992 7.43492 15.6461C7.43491 15.7189 7.44924 15.7909 7.47707 15.8581C7.5049 15.9253 7.5457 15.9864 7.59714 16.0378C7.64857 16.0893 7.70962 16.1301 7.77683 16.1579C7.84403 16.1858 7.91607 16.2001 7.98881 16.2001C8.02858 16.2001 8.06826 16.1959 8.10713 16.1874H12.6141C12.9275 16.1885 13.2405 16.165 13.5502 16.1171C13.8315 16.0735 14.1082 16.0039 14.3766 15.9091C14.6254 15.821 14.8641 15.7067 15.0887 15.5681C15.3037 15.4348 15.5027 15.2774 15.6818 15.0988C15.8603 14.9196 16.0178 14.7206 16.1511 14.5057C16.2896 14.2811 16.404 14.0424 16.4921 13.7936C16.5868 13.5252 16.6565 13.2485 16.7001 12.9672C16.748 12.6575 16.7715 12.3445 16.7704 12.031V6.97095C16.7715 6.65755 16.748 6.34456 16.7001 6.03484C16.6565 5.75355 16.5868 5.4769 16.4921 5.20845C16.404 4.9597 16.2896 4.721 16.1511 4.49638C16.0178 4.2814 15.8604 4.08241 15.6818 3.90332C15.5027 3.72471 15.3037 3.56723 15.0887 3.43397C14.8641 3.29538 14.6254 3.18106 14.3766 3.09293C14.1082 2.9982 13.8315 2.92857 13.5502 2.88494C13.2405 2.83703 12.9275 2.81348 12.6141 2.81448H5.3854C5.15857 2.81415 4.93191 2.82617 4.70639 2.85047C4.49649 2.87322 4.28817 2.90885 4.08264 2.95716C3.88986 3.00265 3.70044 3.06139 3.51575 3.13296C3.34038 3.20108 3.17041 3.28236 3.0073 3.37611C2.8499 3.46692 2.70007 3.57022 2.55921 3.68502C2.42045 3.79846 2.29129 3.92315 2.17305 4.05784C2.05395 4.19392 1.94608 4.33945 1.85053 4.49298C1.76751 4.62658 1.69334 4.76548 1.62848 4.90879C1.56656 4.99865 1.53349 5.10524 1.53367 5.21437C1.53367 5.35752 1.59055 5.4948 1.69177 5.59602C1.79299 5.69723 1.93025 5.75409 2.07339 5.75409C2.18015 5.7541 2.28454 5.72245 2.37332 5.66315C2.46209 5.60385 2.53128 5.51956 2.57217 5.42094L2.57502 5.4222C2.99673 4.39719 3.91599 3.89882 5.38544 3.89882H12.6141C14.6813 3.89882 15.6863 4.90368 15.6863 6.97088V12.031C15.6863 14.0982 14.6813 15.103 12.6141 15.103H8.09831C8.06227 15.0958 8.02559 15.0922 7.98883 15.0922C7.84192 15.0922 7.70104 15.1506 7.59716 15.2545Z" fill="#2F2F3D" />
        <path fill-rule="evenodd" clip-rule="evenodd" d="M4.60102 15.6689C4.60002 15.6819 4.59942 15.695 4.59942 15.7082C4.59942 15.9766 4.86608 16.1946 5.13452 16.1946C5.40295 16.1946 5.66171 15.9774 5.66171 15.709C5.66175 15.6897 5.66063 15.6704 5.65836 15.6512V13.5546H6.58268C7.60847 13.5546 8.38863 13.1835 8.77594 12.5124C8.94393 12.2226 9.03066 11.8927 9.027 11.5577C9.027 11.0994 8.87966 10.5974 8.58498 10.09L7.12835 7.56399C6.61004 6.67473 5.90069 6.18363 5.12597 6.18363C4.35124 6.18363 3.64197 6.67473 3.12922 7.56399L1.67241 10.09C1.15957 10.9793 1.08859 11.836 1.47607 12.5124C1.86338 13.1835 2.64354 13.5546 3.66932 13.5546H4.60102V15.6689ZM2.66342 10.4346L3.97072 8.16762C4.29384 7.60462 4.70522 7.29618 5.12626 7.29618C5.54729 7.29618 5.9586 7.60462 6.28174 8.16765L7.58901 10.4346C7.91215 10.9977 7.97584 11.5068 7.76531 11.8741C7.55478 12.2414 7.07975 12.4421 6.43351 12.4421H3.81894C3.17268 12.4421 2.69769 12.2414 2.48716 11.8741C2.40442 11.7244 2.36221 11.5556 2.36473 11.3846C2.36473 11.1005 2.46272 10.7773 2.66342 10.4346Z" fill="#2F2F3D" />
    </g>
    <defs>
        <clipPath id="clip0_804_36956">
            <rect width="18" height="18" fill="white" transform="translate(0 0.5)" />
        </clipPath>
    </defs>
</svg>
    