<svg width="24" height="24" viewBox="0 0 40 40" fill="none" xmlns="http://www.w3.org/2000/svg">
    <g clip-path="url(#clip0_31371_31448)">
        <path d="M35.6402 11.5342C34.1732 9.91218 31.7402 9.09717 28.1662 9.09717H27.7522V9.02808C27.7522 6.12808 27.7522 2.53809 21.2622 2.53809H18.6382C12.1482 2.53809 12.1482 6.12808 12.1482 9.02808V9.09717H11.7342C8.16123 9.09717 5.71024 9.91218 4.26024 11.5342C3.59443 12.4058 3.11843 13.407 2.86284 14.4736C2.60726 15.5402 2.57776 16.6484 2.77624 17.7271L2.79323 17.8511L2.94823 19.6602C3.53523 20.0402 4.19123 20.4741 4.81223 20.8201C5.05423 20.9721 5.31223 21.11 5.57123 21.248C7.52595 22.3219 9.59976 23.163 11.7502 23.7542C11.7568 24.831 11.9754 25.8961 12.3936 26.8884C12.8117 27.8808 13.4212 28.781 14.1873 29.5378C14.9534 30.2946 15.861 30.893 16.8584 31.2991C17.8558 31.7051 18.9234 31.9106 20.0002 31.9041C21.0771 31.8975 22.1421 31.6789 23.1344 31.2607C24.1268 30.8426 25.0271 30.2331 25.7839 29.467C26.5407 28.701 27.1392 27.7933 27.5452 26.7959C27.9512 25.7985 28.1568 24.7309 28.1502 23.6541V23.5852C30.3212 22.9289 32.4071 22.0181 34.3642 20.8721C34.4642 20.8241 34.5372 20.7722 34.6232 20.7202C35.4361 20.2549 36.2198 19.7406 36.9702 19.1802L37.1252 17.7512C37.1422 17.6512 37.1422 17.5582 37.1602 17.4402C37.3255 16.4052 37.2759 15.3471 37.0145 14.332C36.7532 13.317 36.2858 12.3668 35.6412 11.5403L35.6402 11.5342ZM14.6172 9.02808C14.6172 6.09408 14.6172 4.98926 18.6392 4.98926H21.2632C25.2852 4.98926 25.2852 6.08908 25.2852 9.02808V9.09717H14.6162L14.6172 9.02808ZM19.9552 29.2571C18.5915 29.2554 17.2751 28.7571 16.2522 27.8552C15.2292 26.9534 14.5698 25.7099 14.3972 24.3572C14.3627 24.1254 14.3453 23.8915 14.3452 23.6572C14.3461 22.1686 14.9369 20.7411 15.9882 19.6873C16.5104 19.1681 17.1285 18.7554 17.8082 18.4722C18.4888 18.1897 19.2184 18.0442 19.9552 18.0442C20.6921 18.0442 21.4217 18.1897 22.1022 18.4722C22.7833 18.7539 23.4021 19.1671 23.9231 19.6885C24.444 20.2098 24.857 20.829 25.1382 21.5103C25.42 22.191 25.5651 22.9205 25.5652 23.6572C25.5652 23.8642 25.5482 24.0511 25.5302 24.2441V24.2581C25.3799 25.6323 24.728 26.9028 23.6994 27.8264C22.6708 28.75 21.3377 29.262 19.9552 29.2642V29.2571Z" fill="#6E7191" />
        <path d="M18.9688 27.1573C18.7967 27.1629 18.6256 27.1288 18.4688 27.0574C18.3101 26.9943 18.1669 26.8979 18.0488 26.7745L16.3398 25.0833C16.1198 24.8371 16.0026 24.5161 16.0123 24.1861C16.0219 23.8561 16.1578 23.5422 16.3918 23.3094C16.6253 23.0745 16.9402 22.9384 17.2712 22.9295C17.6023 22.9205 17.924 23.0393 18.1698 23.2613L18.9978 24.0894L21.7768 21.5354C21.9012 21.4194 22.0473 21.329 22.2068 21.2698C22.3663 21.2106 22.5359 21.1837 22.7058 21.1905C23.0484 21.2054 23.3715 21.3539 23.6058 21.6043C23.7216 21.7289 23.8116 21.8752 23.8708 22.0347C23.93 22.1942 23.9571 22.3638 23.9507 22.5337C23.9443 22.7037 23.9045 22.8706 23.8334 23.0252C23.7624 23.1797 23.6616 23.3188 23.5368 23.4344L19.8608 26.8343C19.6073 27.0375 19.2937 27.1511 18.9688 27.1573Z" fill="#6E7191" />
        <path d="M36.6118 22.5679L35.8868 30.4871C35.5248 33.9391 34.1088 37.46 26.5148 37.46H13.3618C5.76683 37.46 4.35183 33.9388 4.00683 30.5068L3.29883 22.926C3.29883 22.926 4.04083 23.3609 4.33483 23.5129C5.67581 24.2589 7.07228 24.9004 8.51183 25.4319C8.77275 25.5287 9.00634 25.6873 9.19267 25.894C9.379 26.1007 9.51253 26.3494 9.58183 26.6189C10.2315 28.8922 11.6105 30.889 13.5064 32.3018C15.4023 33.7145 17.71 34.465 20.0742 34.4375C22.4384 34.41 24.728 33.6061 26.5906 32.1497C28.4531 30.6932 29.7852 28.6648 30.3818 26.377C30.4468 26.106 30.5765 25.8549 30.7598 25.645C30.9449 25.4362 31.176 25.2731 31.4348 25.1689C32.8561 24.6096 34.2347 23.9475 35.5598 23.188C35.7188 23.099 36.5598 22.6019 36.6118 22.5679Z" fill="#6E7191" />
    </g>
    <defs>
        <clipPath id="clip0_31371_31448">
            <rect width="39.998" height="39.998" fill="white" />
        </clipPath>
    </defs>
</svg>