<svg width="18" height="18" viewBox="0 0 18 18" fill="none" xmlns="http://www.w3.org/2000/svg">
    <path fill-rule="evenodd" clip-rule="evenodd" d="M6.72229 16.779H6.92379C8.04634 16.7815 9.14252 16.4448 10.0607 15.8151C10.9786 15.1885 11.6748 14.3003 12.0544 13.2725C12.2113 12.8273 12.302 12.3626 12.324 11.8923V11.886C12.366 11.6918 12.3657 11.4913 12.3226 11.2974C12.2795 11.1035 12.1945 10.9206 12.0738 10.7609C11.8535 10.4968 11.5417 10.3208 11.197 10.266L10.442 10.2263H3.20902L2.45399 10.266C2.10951 10.3212 1.79741 10.4972 1.5768 10.7609C1.45619 10.9207 1.37206 11.1036 1.32933 11.2975C1.2866 11.4915 1.28665 11.692 1.32933 11.886V11.8932C1.35083 12.3635 1.44175 12.8283 1.59934 13.2734C1.97854 14.3012 2.67488 15.1892 3.59308 15.8151C4.50896 16.4438 5.60219 16.7804 6.72229 16.779ZM3.44973 11.2753L4.03257 11.2483H9.6108L10.1932 11.2753C10.4518 11.3095 10.6907 11.4301 10.8684 11.6165C10.9607 11.7216 11.026 11.8465 11.0596 11.981C11.0932 12.1155 11.0941 12.2557 11.0618 12.3905V12.395C11.0454 12.7204 10.9754 13.0412 10.8545 13.345C10.5119 14.0814 9.9541 14.703 9.25109 15.1321C8.54808 15.5612 7.73083 15.7787 6.9017 15.7574H6.74483C5.91565 15.7783 5.09853 15.5607 4.39544 15.1316C3.69236 14.7026 3.13471 14.0812 2.79162 13.345C2.67049 13.0413 2.60026 12.7205 2.58381 12.395V12.3913C2.55115 12.2566 2.55152 12.1163 2.58471 11.9817C2.61791 11.847 2.68303 11.722 2.77494 11.6165C2.95324 11.4308 3.19139 11.3104 3.44973 11.2753Z" fill="#2F2F3D" />
    <path fill-rule="evenodd" clip-rule="evenodd" d="M5.48449 7.5657C5.89484 7.73155 6.33488 7.81637 6.77909 7.81521C7.22357 7.81633 7.66394 7.73154 8.07459 7.5657C8.48524 7.39986 8.85784 7.15627 9.1713 6.84905C9.48621 6.54369 9.7361 6.18043 9.90605 5.78038C10.076 5.38033 10.1629 4.95146 10.1616 4.51846C10.1628 4.08526 10.076 3.65614 9.90605 3.25588C9.73611 2.85561 9.48619 2.49209 9.1713 2.18644C8.85787 1.8792 8.48525 1.63567 8.07459 1.46989C7.66393 1.30412 7.22356 1.21941 6.77909 1.22072C6.33489 1.21938 5.89486 1.30412 5.48449 1.46989C5.07412 1.63567 4.70172 1.87919 4.38868 2.18644C4.07365 2.492 3.82396 2.85549 3.65393 3.25577C3.4839 3.65604 3.39669 4.08522 3.3979 4.51846C3.39667 4.9515 3.48345 5.38043 3.65348 5.78049C3.82351 6.18055 4.07365 6.54376 4.38868 6.84905C4.70176 7.15628 5.07414 7.39985 5.48449 7.5657ZM5.12613 2.90431C5.56457 2.4767 6.15893 2.23606 6.77909 2.23511V2.23643C7.39929 2.23702 7.99373 2.47729 8.4325 2.90464C8.87127 3.33198 9.1187 3.9115 9.11992 4.51615C9.11906 5.12108 8.87219 5.70106 8.4334 6.12876C7.99461 6.55647 7.39958 6.79702 6.77909 6.79774C6.15885 6.79679 5.56413 6.55603 5.12568 6.12832C4.68723 5.70062 4.44068 5.12084 4.44007 4.51615C4.4408 3.91154 4.6877 3.33192 5.12613 2.90431Z" fill="#2F2F3D" />
    <path fill-rule="evenodd" clip-rule="evenodd" d="M12.1087 14.294C12.0353 14.4295 12.0039 14.4974 12.0312 14.5793L12.033 14.5779C12.0583 14.6598 12.2178 14.6202 12.2178 14.6202L12.4386 14.5779L12.8051 14.4785L13.1563 14.3434C13.4273 14.2286 13.6857 14.0873 13.9275 13.9218C14.6634 13.4196 15.2217 12.7077 15.5259 11.8838C15.652 11.5269 15.7248 11.1542 15.7423 10.7772V10.7721C15.776 10.6168 15.7756 10.4563 15.741 10.3011C15.7063 10.146 15.6386 9.99975 15.5417 9.87212C15.3654 9.66069 15.1156 9.51958 14.8399 9.47528C14.8399 9.47528 14.4555 9.43836 13.5647 9.43836C13.1386 9.43766 12.9125 9.44319 12.6426 9.44979C12.3947 9.45586 12.1098 9.46283 11.5989 9.46671C11.5135 9.45609 11.4267 9.47083 11.35 9.50901C11.326 9.52524 11.3063 9.54714 11.2933 9.57273C11.2803 9.59832 11.2743 9.62672 11.2757 9.65524C11.2795 9.68619 11.2909 9.71576 11.3095 9.74115C11.328 9.76655 11.3528 9.78696 11.3816 9.80059C11.4493 9.83567 11.4723 9.83852 11.5371 9.84656C11.5712 9.85079 11.6169 9.85646 11.6868 9.86904C11.9525 9.90888 12.2068 10.0029 12.4328 10.1449C12.5643 10.227 12.6621 10.3513 12.7096 10.4964C12.7754 10.6347 12.8072 10.7862 12.802 10.9387C12.8135 11.3172 12.8117 11.6691 12.802 11.8941V11.9004C12.7876 12.3748 12.7027 12.8447 12.55 13.2954C12.508 13.4102 12.4649 13.5204 12.422 13.6235C12.4049 13.6676 12.3877 13.7103 12.3706 13.7508C12.2857 13.9484 12.1973 14.1311 12.1087 14.294ZM13.8202 11.0782C13.8356 10.8089 13.8326 10.5388 13.8108 10.2699L14.0384 10.2808C14.2457 10.308 14.4373 10.4046 14.5798 10.5539C14.6537 10.6383 14.7061 10.7384 14.733 10.8462C14.76 10.954 14.7607 11.0664 14.7348 11.1745V11.1781C14.722 11.4389 14.6659 11.6961 14.569 11.9396C14.3491 12.4556 13.9836 12.9003 13.5151 13.222C13.546 13.1086 13.5753 12.9926 13.6021 12.8774C13.7304 12.2899 13.8033 11.6922 13.8202 11.0917V11.0782Z" fill="#2F2F3D" />
    <path fill-rule="evenodd" clip-rule="evenodd" d="M9.90985 6.79631C9.84754 6.87326 9.79664 6.9381 9.83818 7.04296C9.87072 7.12543 9.92382 7.14797 10.0034 7.18175C10.0254 7.19111 10.0495 7.20132 10.0757 7.21391C10.458 7.40428 10.8816 7.50335 11.3108 7.50285C11.7927 7.50415 12.266 7.37983 12.6821 7.14282C12.878 7.02904 13.0586 6.89194 13.2198 6.73467C13.4723 6.48989 13.6722 6.19877 13.8085 5.87805C13.9448 5.55733 14.0146 5.21344 14.0136 4.86629C14.0146 4.51901 13.9448 4.17496 13.8085 3.85409C13.6723 3.53323 13.4723 3.2419 13.2198 2.99692C12.9686 2.75065 12.67 2.5554 12.3408 2.42254C12.0117 2.28968 11.6585 2.22185 11.3023 2.22291C11.2008 2.22292 11.0993 2.22828 10.9985 2.23906H10.9921C10.7878 2.26125 10.5866 2.30532 10.3922 2.37046C10.2768 2.41006 10.234 2.42853 10.1943 2.53383C10.1786 2.57673 10.1739 2.62272 10.1808 2.66776C10.1876 2.71281 10.2057 2.75551 10.2335 2.79213C10.5078 3.32967 10.6527 3.92115 10.6572 4.52153C10.6566 4.98227 10.5759 5.43965 10.4192 5.87431C10.341 6.09183 10.2408 6.30107 10.1195 6.4989C10.0562 6.60229 9.98611 6.70159 9.90985 6.79631ZM11.4763 4.54449C11.4781 4.03634 11.4134 3.53008 11.2838 3.0379L11.3009 3.03735C11.7983 3.03783 12.2753 3.23075 12.6271 3.57361C12.9788 3.91647 13.1768 4.38135 13.1775 4.86629C13.1768 5.35123 12.9788 5.81611 12.6271 6.15897C12.2753 6.50183 11.7983 6.69464 11.3009 6.69512C11.2238 6.69522 11.1467 6.6907 11.0701 6.68161C11.2057 6.35263 11.307 6.01108 11.3721 5.66227C11.4422 5.29359 11.4769 4.91944 11.4763 4.54449Z" fill="#2F2F3D" />
</svg>
    