<svg width="16" height="16" viewBox="0 0 16 16" fill="none" xmlns="http://www.w3.org/2000/svg">
<g opacity="0.8" clip-path="url(#clip0_30429_12689)">
<path d="M11.1049 12.9592C11.0813 12.8864 11.1085 12.826 11.1721 12.7056C11.2489 12.5608 11.3255 12.3983 11.3991 12.2227C11.4139 12.1867 11.4288 12.1487 11.4436 12.1095C11.4808 12.0179 11.5181 11.9199 11.5545 11.8179C11.6869 11.4173 11.7604 10.9996 11.7729 10.5779V10.5723C11.7813 10.3723 11.7829 10.0595 11.7729 9.72306C11.7774 9.58753 11.7499 9.45288 11.6928 9.32988C11.6517 9.20097 11.5669 9.09047 11.453 9.01747C11.2571 8.89123 11.0368 8.80767 10.8065 8.77225C10.6309 8.73985 10.6316 8.75901 10.542 8.71141C10.5171 8.69929 10.4956 8.68115 10.4795 8.65858C10.4634 8.636 10.4535 8.60972 10.4502 8.58221C10.449 8.55686 10.4542 8.53161 10.4655 8.50887C10.4767 8.48612 10.4938 8.46665 10.5147 8.45223C10.5811 8.41828 10.6563 8.40518 10.7303 8.41463C11.6551 8.40743 11.7254 8.38823 12.4339 8.38943C13.2059 8.38943 13.539 8.42224 13.539 8.42224C13.7779 8.46162 13.9944 8.58705 14.1472 8.77499C14.2311 8.88844 14.2899 9.01844 14.3198 9.15634C14.3498 9.29425 14.3503 9.43694 14.321 9.57501V9.5795C14.3059 9.91466 14.2428 10.2459 14.1335 10.5631C13.8699 11.2955 13.386 11.9283 12.7483 12.3747C12.5387 12.5218 12.3148 12.6474 12.0799 12.7495L11.7756 12.8695L11.4581 12.9579L11.2666 12.9955C11.2666 12.9955 11.1285 13.0307 11.1065 12.9579L11.1049 12.9592ZM12.6554 9.84708V9.85148V9.8591C12.6406 10.3928 12.5775 10.9241 12.4663 11.4463C12.4431 11.5487 12.4177 11.6519 12.3909 11.7527C12.797 11.4667 13.1137 11.0714 13.3042 10.6127C13.3882 10.3963 13.4368 10.1677 13.448 9.93586V9.93263C13.4704 9.83659 13.4697 9.73665 13.4464 9.64083C13.423 9.54501 13.3777 9.45602 13.3136 9.38106C13.1901 9.24828 13.0241 9.16248 12.8444 9.13828L12.6471 9.12861C12.6661 9.36762 12.6687 9.60769 12.6554 9.84708ZM9.20448 6.26018C9.16848 6.16698 9.21259 6.10934 9.2666 6.04093C9.33268 5.95675 9.39338 5.86848 9.44824 5.77657C9.55338 5.60073 9.64026 5.41474 9.70801 5.22138C9.84383 4.83502 9.91373 4.42846 9.91427 4.01891C9.91039 3.48524 9.78481 2.95948 9.54707 2.48167C9.52301 2.44912 9.5073 2.41116 9.50137 2.37112C9.49544 2.33108 9.49949 2.2902 9.51309 2.25207C9.54749 2.15847 9.58457 2.14205 9.68457 2.10685C9.8531 2.04894 10.0274 2.00978 10.2045 1.99005C10.2045 1.99005 10.2044 1.99005 10.2072 1.99005C10.21 1.99005 10.2072 1.99005 10.21 1.99005C10.2974 1.98047 10.3853 1.9757 10.4733 1.9757C10.782 1.97475 11.0881 2.03504 11.3733 2.15314C11.6585 2.27124 11.9173 2.4448 12.135 2.6637C12.3538 2.88146 12.5271 3.14042 12.6452 3.42563C12.7633 3.71085 12.8237 4.01667 12.8229 4.32536C12.8238 4.63394 12.7633 4.93962 12.6452 5.2247C12.5271 5.50979 12.3538 5.76856 12.135 5.98615C11.9953 6.12594 11.8388 6.24781 11.669 6.34895C11.3085 6.55962 10.8983 6.67013 10.4807 6.66898C10.1087 6.66942 9.74162 6.58136 9.41035 6.41214C9.30555 6.36053 9.24049 6.35378 9.20448 6.26018ZM10.4573 2.70013C10.5696 3.13762 10.6257 3.58763 10.6241 4.03932C10.6246 4.37261 10.5945 4.70519 10.5338 5.0329C10.4774 5.34295 10.3896 5.64656 10.2721 5.93898C10.3385 5.94706 10.4052 5.95108 10.4721 5.95099C10.9031 5.95057 11.3165 5.77918 11.6213 5.47442C11.9262 5.16965 12.0978 4.75642 12.0983 4.32536C12.0978 3.89431 11.9262 3.48108 11.6213 3.17631C11.3165 2.87155 10.9031 2.70006 10.4721 2.69964L10.4573 2.70013Z" fill="#6E7191"/>
<path d="M6.68061 14.9144H6.506C5.53531 14.9157 4.58791 14.6164 3.79421 14.0576C2.9985 13.5013 2.39505 12.7119 2.06643 11.7983C1.92987 11.4027 1.85107 10.9896 1.83244 10.5715V10.565C1.79546 10.3926 1.79541 10.2144 1.83244 10.042C1.86947 9.86959 1.94238 9.70702 2.0469 9.56501C2.23808 9.33054 2.50854 9.17411 2.80708 9.12506L3.46139 9.08981H9.72952L10.3838 9.12506C10.6825 9.17375 10.9527 9.33026 11.1436 9.56501C11.2482 9.70698 11.3219 9.86953 11.3592 10.0419C11.3966 10.2142 11.3969 10.3925 11.3604 10.565V10.5707C11.3414 10.9887 11.2627 11.4018 11.1268 11.7975C10.7979 12.7111 10.1945 13.5007 9.39904 14.0576C8.60337 14.6173 7.65342 14.9166 6.68061 14.9144ZM4.17508 9.99823L3.66999 10.0223C3.44611 10.0534 3.23972 10.1605 3.08521 10.3255C3.00556 10.4193 2.94913 10.5305 2.92036 10.6501C2.8916 10.7698 2.89128 10.8945 2.91958 11.0143V11.0175C2.93384 11.3068 2.9947 11.592 3.09966 11.8619C3.39699 12.5164 3.88025 13.0687 4.48954 13.4501C5.09884 13.8314 5.80696 14.0249 6.52553 14.0063H6.66147C7.38 14.0252 8.08823 13.8319 8.69746 13.4505C9.30668 13.069 9.79006 12.5165 10.0869 11.8619C10.1917 11.5919 10.2524 11.3068 10.2666 11.0175V11.0135C10.2946 10.8937 10.2938 10.769 10.2647 10.6495C10.2356 10.53 10.179 10.419 10.0991 10.3255C9.94506 10.1598 9.73803 10.0526 9.51388 10.0223L9.00918 9.99823H4.17508ZM6.55522 6.94659C6.17026 6.94762 5.78893 6.87223 5.43331 6.72481C5.0777 6.57739 4.755 6.36087 4.48368 6.08778C4.21068 5.81642 3.99391 5.49356 3.84656 5.13795C3.6992 4.78234 3.62401 4.40107 3.62507 4.01615C3.62402 3.63104 3.6996 3.24955 3.84695 2.89375C3.99429 2.53795 4.21068 2.21485 4.48368 1.94324C4.75497 1.67013 5.07769 1.45367 5.43331 1.30631C5.78894 1.15895 6.17027 1.08363 6.55522 1.08482C6.9404 1.08366 7.32202 1.15896 7.6779 1.30631C8.03378 1.45366 8.3567 1.67014 8.62832 1.94324C8.90119 2.21493 9.11778 2.53806 9.26505 2.89385C9.41232 3.24964 9.48757 3.63108 9.48654 4.01615C9.48761 4.40104 9.41233 4.78225 9.26505 5.13785C9.11777 5.49345 8.90121 5.81636 8.62832 6.08778C8.35666 6.36087 8.03377 6.57739 7.6779 6.72481C7.32203 6.87222 6.94041 6.94759 6.55522 6.94659ZM6.55522 1.98651C6.01778 1.98735 5.50271 2.20125 5.12276 2.58134C4.74281 2.96144 4.52885 3.47666 4.52821 4.01409C4.52874 4.5516 4.74241 5.06695 5.12237 5.44714C5.50233 5.82732 6.01772 6.04133 6.55522 6.04217C7.09293 6.04154 7.60859 5.82771 7.98885 5.44753C8.36911 5.06735 8.58304 4.55181 8.58378 4.01409C8.58273 3.47663 8.3683 2.9615 7.98807 2.58164C7.60783 2.20178 7.09269 1.98821 6.55522 1.98768V1.98651Z" fill="#6E7191"/>
</g>
<defs>
<clipPath id="clip0_30429_12689">
<rect width="16" height="16" fill="white"/>
</clipPath>
</defs>
</svg>
