<svg width="24" height="24" viewBox="0 0 24 24" fill="none" xmlns="http://www.w3.org/2000/svg">
<g opacity="0.8" clip-path="url(#clip0_30115_73)">
<path d="M16.6593 19.4388C16.6239 19.3295 16.6647 19.2389 16.7601 19.0583C16.8753 18.8411 16.9902 18.5975 17.1006 18.3341C17.1228 18.2801 17.1452 18.2231 17.1674 18.1643C17.2232 18.0269 17.2792 17.8799 17.3338 17.7269C17.5323 17.126 17.6426 16.4994 17.6613 15.8668V15.8584C17.6739 15.5584 17.6763 15.0892 17.6613 14.5846C17.6681 14.3813 17.6268 14.1793 17.5412 13.9948C17.4795 13.8014 17.3524 13.6357 17.1814 13.5262C16.8876 13.3368 16.5571 13.2115 16.2117 13.1584C15.9483 13.1098 15.9494 13.1385 15.815 13.0671C15.7776 13.0489 15.7453 13.0217 15.7212 12.9879C15.6971 12.954 15.6822 12.9146 15.6773 12.8733C15.6755 12.8353 15.6832 12.7974 15.7001 12.7633C15.717 12.7292 15.7426 12.7 15.774 12.6783C15.8736 12.6274 15.9864 12.6078 16.0974 12.6219C17.4846 12.6111 17.5901 12.5823 18.6527 12.5841C19.8108 12.5841 20.3104 12.6334 20.3104 12.6334C20.6689 12.6924 20.9936 12.8806 21.2227 13.1625C21.3486 13.3327 21.4367 13.5276 21.4817 13.7345C21.5267 13.9414 21.5273 14.1554 21.4835 14.3625V14.3692C21.4607 14.872 21.3661 15.3688 21.2022 15.8447C20.8068 16.9433 20.081 17.8925 19.1244 18.562C18.81 18.7827 18.4742 18.9711 18.1219 19.1242L17.6654 19.3043L17.189 19.4368L16.9019 19.4932C16.9019 19.4932 16.6947 19.5461 16.6617 19.4368L16.6593 19.4388ZM18.985 14.7706V14.7772V14.7886C18.9629 15.5892 18.8681 16.3862 18.7014 17.1695C18.6666 17.3231 18.6285 17.4778 18.5883 17.629C19.1974 17.2 19.6725 16.6071 19.9582 15.9191C20.0842 15.5945 20.1572 15.2516 20.1739 14.9038V14.8989C20.2075 14.7549 20.2066 14.605 20.1715 14.4612C20.1365 14.3175 20.0684 14.184 19.9723 14.0716C19.7872 13.8724 19.5381 13.7437 19.2686 13.7074L18.9727 13.6929C19.0011 14.0514 19.005 14.4115 18.985 14.7706ZM13.8087 9.39026C13.7547 9.25045 13.8208 9.164 13.9018 9.06139C14.001 8.93511 14.092 8.8027 14.1743 8.66485C14.332 8.40108 14.4623 8.1221 14.564 7.83207C14.7677 7.25251 14.8725 6.64268 14.8734 6.02836C14.8675 5.22785 14.6792 4.4392 14.3226 3.72249C14.2865 3.67367 14.2629 3.61672 14.254 3.55666C14.2451 3.4966 14.2512 3.43528 14.2716 3.3781C14.3232 3.23769 14.3788 3.21307 14.5288 3.16027C14.7816 3.07341 15.0431 3.01466 15.3087 2.98507C15.3087 2.98507 15.3086 2.98507 15.3128 2.98507C15.317 2.98507 15.3127 2.98507 15.3169 2.98507C15.448 2.97069 15.58 2.96355 15.7119 2.96353C16.1749 2.96211 16.634 3.05255 17.0619 3.2297C17.4897 3.40686 17.878 3.66719 18.2045 3.99554C18.5327 4.32218 18.7926 4.71063 18.9697 5.13844C19.1469 5.56626 19.2376 6.025 19.2364 6.48804C19.2376 6.9509 19.1469 7.40942 18.9697 7.83705C18.7926 8.26467 18.5327 8.65283 18.2045 8.97921C17.995 9.1889 17.7601 9.3717 17.5055 9.52342C16.9646 9.83943 16.3494 10.0052 15.723 10.0035C15.165 10.0041 14.6144 9.87203 14.1175 9.61819C13.9603 9.54079 13.8627 9.53066 13.8087 9.39026ZM15.6878 4.05018C15.8564 4.70643 15.9404 5.38144 15.938 6.05897C15.9388 6.5589 15.8937 7.05777 15.8027 7.54934C15.718 8.01442 15.5864 8.46983 15.4101 8.90846C15.5096 8.92058 15.6098 8.92661 15.7101 8.92648C16.3567 8.92584 16.9767 8.66876 17.434 8.21162C17.8912 7.75447 18.1486 7.13462 18.1494 6.48804C18.1486 5.84146 17.8912 5.2216 17.434 4.76446C16.9767 4.30731 16.3567 4.05009 15.7101 4.04945L15.6878 4.05018Z" fill="#292A3A"/>
<path d="M10.0209 22.3715H9.759C8.30297 22.3735 6.88187 21.9246 5.69132 21.0864C4.49775 20.2519 3.59257 19.0678 3.09965 17.6974C2.89481 17.1041 2.77661 16.4843 2.74867 15.8572V15.8476C2.69318 15.589 2.69312 15.3216 2.74867 15.063C2.80421 14.8044 2.91357 14.5605 3.07035 14.3475C3.35713 13.9958 3.76282 13.7612 4.21062 13.6876L5.19209 13.6347H14.5943L15.5757 13.6876C16.0237 13.7606 16.429 13.9954 16.7154 14.3475C16.8724 14.5605 16.9828 14.8043 17.0389 15.0628C17.0949 15.3214 17.0953 15.5887 17.0406 15.8476V15.8561C17.0121 16.483 16.8941 17.1027 16.6902 17.6962C16.1968 19.0667 15.2918 20.251 14.0986 21.0864C12.9051 21.926 11.4801 22.3749 10.0209 22.3715ZM6.26262 14.9973L5.50498 15.0334C5.16916 15.0802 4.85959 15.2407 4.62781 15.4882C4.50834 15.6289 4.42369 15.7957 4.38054 15.9752C4.33739 16.1546 4.33692 16.3418 4.37937 16.5214V16.5262C4.40076 16.9602 4.49204 17.388 4.64949 17.7929C5.09548 18.7746 5.82037 19.6031 6.73431 20.1751C7.64825 20.7472 8.71044 21.0374 9.78829 21.0095H9.99221C11.07 21.0378 12.1323 20.7478 13.0462 20.1757C13.96 19.6036 14.6851 18.7748 15.1304 17.7929C15.2876 17.3879 15.3787 16.9602 15.4 16.5262V16.5202C15.442 16.3405 15.4407 16.1536 15.397 15.9743C15.3534 15.795 15.2685 15.6285 15.1486 15.4882C14.9176 15.2397 14.607 15.0789 14.2708 15.0334L13.5138 14.9973H6.26262ZM9.83283 10.4199C9.25539 10.4214 8.68339 10.3083 8.14997 10.0872C7.61655 9.86608 7.1325 9.54131 6.72552 9.13167C6.31602 8.72462 5.99086 8.24034 5.76983 7.70693C5.54881 7.17352 5.43601 6.60161 5.4376 6.02422C5.43604 5.44657 5.5494 4.87433 5.77042 4.34063C5.99144 3.80693 6.31602 3.32228 6.72552 2.91486C7.13245 2.5052 7.61653 2.18051 8.14997 1.95947C8.68341 1.73843 9.25541 1.62544 9.83283 1.62723C10.4106 1.62549 10.983 1.73844 11.5169 1.95947C12.0507 2.1805 12.535 2.5052 12.9425 2.91486C13.3518 3.32239 13.6767 3.80709 13.8976 4.34078C14.1185 4.87446 14.2314 5.44662 14.2298 6.02422C14.2314 6.60156 14.1185 7.17338 13.8976 7.70678C13.6767 8.24018 13.3518 8.72453 12.9425 9.13167C12.535 9.5413 12.0507 9.86609 11.5169 10.0872C10.9831 10.3083 10.4106 10.4214 9.83283 10.4199ZM9.83283 2.97976C9.02668 2.98103 8.25406 3.30187 7.68414 3.87202C7.11422 4.44216 6.79327 5.21499 6.79232 6.02114C6.79312 6.8274 7.11362 7.60043 7.68355 8.17071C8.25349 8.74098 9.02657 9.06199 9.83283 9.06326C10.6394 9.06231 11.4129 8.74157 11.9833 8.17129C12.5537 7.60102 12.8746 6.82771 12.8757 6.02114C12.8741 5.21494 12.5525 4.44225 11.9821 3.87246C11.4117 3.30266 10.639 2.98231 9.83283 2.98152V2.97976Z" fill="#292A3A"/>
</g>
<defs>
<clipPath id="clip0_30115_73">
<rect width="24" height="24" fill="white"/>
</clipPath>
</defs>
</svg>
