<svg width="14" height="14" viewBox="0 0 14 14" fill="none" xmlns="http://www.w3.org/2000/svg">
    <g clip-path="url(#clip0_33264_66423)">
        <path d="M7.00056 9.4689C6.51218 9.4689 6.03476 9.32408 5.62869 9.05274C5.22261 8.78141 4.90611 8.39576 4.71922 7.94455C4.53232 7.49334 4.48342 6.99685 4.5787 6.51785C4.67398 6.03885 4.90916 5.59886 5.2545 5.25352C5.59984 4.90818 6.03982 4.673 6.51882 4.57772C6.99782 4.48244 7.49432 4.53134 7.94553 4.71824C8.39674 4.90514 8.78239 5.22163 9.05372 5.62771C9.32505 6.03379 9.46987 6.5112 9.46987 6.99959C9.4696 7.6544 9.20935 8.28232 8.74632 8.74535C8.2833 9.20837 7.65538 9.46862 7.00056 9.4689ZM7.00056 5.3857C6.68137 5.3857 6.36934 5.48035 6.10393 5.65769C5.83853 5.83502 5.63167 6.08708 5.50952 6.38198C5.38737 6.67688 5.35541 7.00138 5.41768 7.31444C5.47996 7.6275 5.63366 7.91507 5.85937 8.14078C6.08508 8.36649 6.37264 8.52019 6.68571 8.58247C6.99877 8.64474 7.32327 8.61278 7.61817 8.49063C7.91307 8.36847 8.16513 8.16162 8.34246 7.89622C8.5198 7.63081 8.61445 7.31878 8.61445 6.99959C8.6139 6.57173 8.44368 6.16155 8.14114 5.85901C7.8386 5.55646 7.42842 5.38625 7.00056 5.3857Z" fill="#6E7191" />
        <path d="M7.00186 12.1436C4.8577 12.1436 2.8329 10.8888 1.44162 8.71039C1.14452 8.18914 0.988281 7.59952 0.988281 6.99955C0.988281 6.39958 1.14452 5.80995 1.44162 5.2887C2.8385 3.11025 4.8633 1.85547 7.00186 1.85547C9.14041 1.85547 11.1649 3.11025 12.5565 5.2887C12.8536 5.80995 13.0098 6.39958 13.0098 6.99955C13.0098 7.59952 12.8536 8.18914 12.5565 8.71039C11.1649 10.8888 9.14041 12.1436 7.00186 12.1436ZM7.00186 2.71089C5.15976 2.71089 3.39677 3.81727 2.16579 5.75072C1.95517 6.13332 1.84473 6.56298 1.84473 6.99972C1.84473 7.43647 1.95517 7.86612 2.16579 8.24873C3.39747 10.1822 5.15976 11.2886 7.00186 11.2886C8.84395 11.2886 10.6059 10.1818 11.8383 8.24838C12.0489 7.86577 12.1593 7.43612 12.1593 6.99937C12.1593 6.56263 12.0489 6.13297 11.8383 5.75037C10.6059 3.81727 8.84395 2.71089 7.00186 2.71089Z" fill="#6E7191" />
    </g>
    <defs>
        <clipPath id="clip0_33264_66423">
            <rect width="14" height="14" fill="white" />
        </clipPath>
    </defs>
</svg>
    