<svg width="18" height="19" viewBox="0 0 18 19" fill="none" xmlns="http://www.w3.org/2000/svg">
    <g clip-path="url(#clip0_437_8771)">
        <path d="M9.09703 17.6146H8.90015C7.81149 17.6161 6.74919 17.2803 5.85914 16.6534C4.96641 16.0296 4.28928 15.1444 3.92071 14.1196C3.76827 13.6757 3.67992 13.2122 3.65836 12.7434V12.7363C3.61685 12.543 3.61677 12.3431 3.65836 12.1498C3.69994 11.9566 3.78185 11.7743 3.89918 11.6152C4.11295 11.3522 4.41564 11.1762 4.74996 11.1203L5.48385 11.0811H12.5133L13.2472 11.1203C13.5818 11.1756 13.8842 11.3516 14.0976 11.6152C14.2152 11.7744 14.2978 11.9568 14.3397 12.1501C14.3816 12.3435 14.3818 12.5436 14.3406 12.7371V12.7434C14.3193 13.2122 14.2311 13.6757 14.0787 14.1196C13.7094 15.1441 13.0324 16.0293 12.1402 16.6539C11.2494 17.2808 10.1864 17.6164 9.09703 17.6146ZM8.9564 8.67813C8.52483 8.67943 8.09731 8.59491 7.69869 8.42951C7.30006 8.26411 6.93821 8.02109 6.63433 7.71463C6.32773 7.41053 6.08489 7.04857 5.91934 6.64973C5.7538 6.25089 5.66904 5.82319 5.67017 5.39135C5.66906 4.95932 5.7538 4.53138 5.91934 4.13232C6.08488 3.73326 6.32773 3.37103 6.63433 3.06665C6.93821 2.76025 7.30005 2.51735 7.69869 2.3521C8.09733 2.18685 8.52487 2.10248 8.9564 2.10402C9.3883 2.10272 9.81639 2.1872 10.2154 2.35243C10.6145 2.51765 10.9766 2.76041 11.2811 3.06665C11.5871 3.37142 11.8296 3.73376 11.9948 4.13276C12.16 4.53176 12.2445 4.95951 12.2435 5.39135C12.2445 5.823 12.16 6.25051 11.9948 6.64929C11.8296 7.04806 11.587 7.41013 11.2811 7.71463C10.9768 8.02073 10.615 8.26352 10.2163 8.42896C9.81762 8.5944 9.38982 8.67926 8.95816 8.67857L8.9564 8.67813Z" fill="#2F2F3D" />
    </g>
    <defs>
        <clipPath id="clip0_437_8771">
            <rect width="18" height="18" fill="white" transform="translate(0 0.859253)" />
        </clipPath>
    </defs>
</svg>
    