<svg width="18" height="19" viewBox="0 0 18 19" fill="none" xmlns="http://www.w3.org/2000/svg">
    <g clip-path="url(#clip0_898_38572)">
        <path d="M9.11652 17.6362H8.92009C7.82823 17.6376 6.76258 17.3008 5.86984 16.6722C4.97474 16.0465 4.29544 15.1587 3.9257 14.1311C3.77242 13.686 3.68392 13.2212 3.66291 12.751V12.7437C3.62106 12.5498 3.62124 12.3492 3.66291 12.1552C3.70457 11.9612 3.78682 11.7784 3.90461 11.6187C4.11968 11.355 4.42394 11.1789 4.75978 11.1237L5.49587 11.0841H12.5465L13.2817 11.1237C13.6176 11.1785 13.922 11.3547 14.1368 11.6187C14.2548 11.7783 14.3374 11.9611 14.3794 12.1551C14.4214 12.349 14.4217 12.5497 14.3803 12.7437V12.75C14.3589 13.2202 14.2704 13.685 14.1175 14.1302C13.7476 15.1579 13.0685 16.0458 12.1738 16.6722C11.2788 17.3019 10.2108 17.6386 9.11652 17.6362V17.6362ZM6.29831 12.1061L5.73053 12.1331C5.47848 12.168 5.24611 12.2884 5.07223 12.4742C4.98282 12.5799 4.91914 12.705 4.88678 12.8395C4.85443 12.9741 4.85428 13.1144 4.88591 13.2491V13.2527C4.90194 13.5782 4.96996 13.8989 5.08805 14.2026C5.4224 14.9387 5.96634 15.56 6.65163 15.989C7.33692 16.4179 8.13342 16.6356 8.94162 16.6147H9.09455C9.90283 16.636 10.6996 16.4185 11.385 15.9895C12.0703 15.5605 12.6141 14.939 12.9481 14.2026C13.0658 13.8988 13.1336 13.5781 13.1498 13.2527V13.2482C13.1814 13.1135 13.1811 12.9733 13.1485 12.8389C13.1159 12.7044 13.0519 12.5795 12.9622 12.4742C12.7888 12.2878 12.5562 12.1673 12.3039 12.1331L11.7361 12.1061H6.29831ZM8.97546 8.67396C8.54246 8.67508 8.11332 8.59019 7.71335 8.42435C7.31337 8.2585 6.95063 8.01501 6.64548 7.70782C6.33839 7.40261 6.09449 7.03948 5.92873 6.63951C5.76296 6.23954 5.6784 5.81069 5.67956 5.37773C5.67842 4.94457 5.76297 4.51548 5.92873 4.11529C6.09449 3.7151 6.33839 3.3517 6.64548 3.04621C6.95062 2.73906 7.31335 2.4956 7.71335 2.3299C8.11334 2.1642 8.5425 2.07956 8.97546 2.08095C9.40868 2.07957 9.83772 2.16421 10.238 2.3299C10.6383 2.49559 11.0017 2.73905 11.3072 3.04621C11.6141 3.35182 11.8574 3.71523 12.0231 4.1154C12.1887 4.51556 12.2737 4.94462 12.2727 5.37773C12.2737 5.81063 12.1887 6.23945 12.0231 6.6394C11.8574 7.03935 11.6141 7.40248 11.3072 7.70782C11.0017 8.015 10.6383 8.25851 10.238 8.42435C9.83774 8.59018 9.40871 8.67504 8.97546 8.67396ZM8.97546 3.09389C8.37082 3.09472 7.791 3.33533 7.36354 3.76296C6.93609 4.19058 6.69573 4.77035 6.69513 5.37498C6.69585 5.97958 6.93655 6.55919 7.36398 6.98678C7.79141 7.41438 8.37086 7.65512 8.97546 7.65607C9.58025 7.65536 10.1601 7.41473 10.5878 6.98711C11.0155 6.5595 11.2558 5.97977 11.2567 5.37498C11.2552 4.77058 11.0146 4.1914 10.5869 3.76427C10.1593 3.33715 9.57986 3.09691 8.97546 3.0962V3.09389Z" fill="#2F2F3D" />
    </g>
    <defs>
        <clipPath id="clip0_898_38572">
            <rect width="18" height="18" fill="white" transform="translate(0 0.859253)" />
        </clipPath>
    </defs>
</svg>
    