<svg width="24" height="24" viewBox="0 0 24 24" fill="none" xmlns="http://www.w3.org/2000/svg">
    <g clip-path="url(#clip0_33320_65432)">
        <path d="M18.7403 8.87026C18.026 8.87026 17.3278 8.65846 16.7339 8.26163C16.14 7.86481 15.6771 7.30078 15.4038 6.64089C15.1305 5.98099 15.059 5.25486 15.1983 4.55431C15.3376 3.85377 15.6816 3.21028 16.1867 2.70522C16.6917 2.20015 17.3352 1.8562 18.0358 1.71685C18.7363 1.57751 19.4624 1.64903 20.1223 1.92236C20.7822 2.1957 21.3463 2.65858 21.7431 3.25248C22.1399 3.84637 22.3517 4.5446 22.3517 5.25886C22.3514 6.21657 21.9708 7.13496 21.2936 7.81216C20.6164 8.48936 19.698 8.86994 18.7403 8.87026ZM18.7403 3.09226C18.3118 3.09226 17.8929 3.21933 17.5366 3.4574C17.1803 3.69547 16.9026 4.03385 16.7386 4.42974C16.5746 4.82563 16.5317 5.26127 16.6153 5.68155C16.6989 6.10182 16.9053 6.48788 17.2083 6.79088C17.5113 7.09388 17.8973 7.30023 18.3176 7.38383C18.7379 7.46743 19.1735 7.42452 19.5694 7.26054C19.9653 7.09656 20.3037 6.81886 20.5418 6.46256C20.7798 6.10627 20.9069 5.68738 20.9069 5.25886C20.906 4.68454 20.6774 4.13401 20.2713 3.7279C19.8652 3.32179 19.3146 3.09321 18.7403 3.09226Z" fill="#6E7191" />
        <path d="M11.9983 9.59226H7.18094C6.98979 9.59021 6.80711 9.51304 6.67239 9.37742C6.53767 9.2418 6.46171 9.05862 6.46094 8.86746C6.46297 8.67713 6.53947 8.49518 6.67406 8.36059C6.80865 8.226 6.99061 8.14949 7.18094 8.14746H11.9983C12.1887 8.14949 12.3706 8.226 12.5052 8.36059C12.6398 8.49518 12.7163 8.67713 12.7183 8.86746C12.7176 9.05862 12.6416 9.2418 12.5069 9.37742C12.3722 9.51304 12.1895 9.59021 11.9983 9.59226Z" fill="#6E7191" />
        <path d="M15.8503 17.5376H7.18094C6.98979 17.5355 6.80711 17.4584 6.67239 17.3227C6.53767 17.1871 6.46171 17.0039 6.46094 16.8128C6.46297 16.6224 6.53947 16.4405 6.67406 16.3059C6.80865 16.1713 6.99061 16.0948 7.18094 16.0928H15.8503C16.0407 16.0948 16.2226 16.1713 16.3572 16.3059C16.4918 16.4405 16.5683 16.6224 16.5703 16.8128C16.5696 17.0039 16.4936 17.1871 16.3589 17.3227C16.2242 17.4584 16.0415 17.5355 15.8503 17.5376Z" fill="#6E7191" />
        <path d="M15.8503 13.6167H7.18094C6.98979 13.6146 6.80711 13.5375 6.67239 13.4018C6.53767 13.2662 6.46171 13.083 6.46094 12.8919C6.46297 12.7015 6.53947 12.5196 6.67406 12.385C6.80865 12.2504 6.99061 12.1739 7.18094 12.1719H15.8503C16.0407 12.1739 16.2226 12.2504 16.3572 12.385C16.4918 12.5196 16.5683 12.7015 16.5703 12.8919C16.5696 13.083 16.4936 13.2662 16.3589 13.4018C16.2242 13.5375 16.0415 13.6146 15.8503 13.6167Z" fill="#6E7191" />
        <path d="M14.8898 22.3523H9.11184C3.88284 22.3523 1.64844 20.1179 1.64844 14.8889V9.11086C1.64844 3.88186 3.88284 1.64746 9.11184 1.64746H13.9268C14.1172 1.64949 14.2991 1.726 14.4337 1.86059C14.5683 1.99518 14.6448 2.17713 14.6468 2.36746C14.6448 2.55779 14.5683 2.73975 14.4337 2.87433C14.2991 3.00892 14.1172 3.08543 13.9268 3.08746H9.11184C4.67184 3.08746 3.09324 4.66666 3.09324 9.10606V14.8841C3.09324 19.3241 4.67244 20.9027 9.11184 20.9027H14.8898C19.3298 20.9027 20.9084 19.3235 20.9084 14.8841V10.0739C20.9084 9.88227 20.9846 9.69852 21.12 9.56305C21.2555 9.42757 21.4392 9.35146 21.6308 9.35146C21.8224 9.35146 22.0062 9.42757 22.1417 9.56305C22.2771 9.69852 22.3532 9.88227 22.3532 10.0739V14.8889C22.3532 20.1179 20.1188 22.3523 14.8898 22.3523Z" fill="#6E7191" />
    </g>
    <defs>
        <clipPath id="clip0_33320_65432">
            <rect width="24" height="24" fill="white" />
        </clipPath>
    </defs>
</svg>