<svg width="24" height="24" viewBox="0 0 41 41" fill="none" xmlns="http://www.w3.org/2000/svg">
    <path d="M37.1434 8.00042C37.1434 9.01761 36.8418 10.012 36.2767 10.8577C35.7116 11.7035 34.9083 12.3627 33.9686 12.7519C33.0288 13.1412 31.9947 13.243 30.9971 13.0446C29.9994 12.8462 29.083 12.3563 28.3638 11.6371C27.6445 10.9178 27.1547 10.0014 26.9562 9.00377C26.7578 8.00613 26.8597 6.97204 27.2489 6.03228C27.6382 5.09252 28.2974 4.28929 29.1431 3.72417C29.9889 3.15905 30.9832 2.85742 32.0004 2.85742C33.3644 2.85742 34.6726 3.39927 35.6371 4.36377C36.6016 5.32827 37.1434 6.63641 37.1434 8.00042Z" fill="#6E7191" />
    <path d="M25.9668 37.1441H12.3203C12.0803 37.1441 11.8411 37.1271 11.6201 37.1101C11.4201 37.0941 11.2275 37.076 11.0205 37.042C10.8115 37.024 10.5989 36.9891 10.4199 36.9561C9.92004 36.8846 9.4263 36.7779 8.94141 36.637C8.48513 36.5051 8.03976 36.3379 7.60938 36.137C7.19769 35.9434 6.80329 35.7157 6.42969 35.4561C6.06514 35.2021 5.72302 34.9166 5.4082 34.6031C5.09419 34.2891 4.8089 33.9481 4.55469 33.584C4.29414 33.2106 4.06506 32.816 3.87109 32.4041C3.66987 31.9731 3.50269 31.5271 3.37109 31.0701C3.22995 30.5839 3.12399 30.0882 3.05273 29.5869C3.01973 29.4079 2.9848 29.1971 2.9668 28.9871C2.9338 28.7871 2.91544 28.595 2.89844 28.387C2.88044 28.15 2.86328 27.919 2.86328 27.687V14.041C2.86328 13.807 2.88144 13.5751 2.89844 13.3411C2.91644 13.1331 2.9338 12.941 2.9668 12.741C2.9848 12.532 3.01973 12.3201 3.05273 12.1411C3.12399 11.6399 3.22995 11.1442 3.37109 10.658C3.50274 10.201 3.66991 9.75495 3.87109 9.324C4.06512 8.91213 4.29419 8.51746 4.55469 8.14407C4.8089 7.78 5.09419 7.43897 5.4082 7.12502C5.72302 6.81147 6.06514 6.52602 6.42969 6.272C6.80329 6.01241 7.19769 5.7847 7.60938 5.59109C8.03976 5.39018 8.48513 5.22301 8.94141 5.09109C9.42633 4.95025 9.92006 4.84356 10.4199 4.772C10.5989 4.739 10.8115 4.70406 11.0205 4.68606C11.2205 4.65206 11.4131 4.63497 11.6201 4.61697C11.8561 4.59897 12.0873 4.58303 12.3203 4.58303H22.7432C23.0014 4.58165 23.2566 4.63907 23.4893 4.751C23.6001 4.80431 23.7053 4.86978 23.8018 4.94607C23.8974 5.02104 23.9843 5.10611 24.0615 5.19998C24.2248 5.39819 24.3417 5.63013 24.4043 5.87917C24.4669 6.12822 24.4739 6.38807 24.4238 6.63992C24.4232 6.65725 24.4194 6.67444 24.4141 6.69094C24.4095 6.70759 24.407 6.72472 24.4062 6.74197C24.3873 6.83497 24.3744 6.926 24.3594 7.022C24.3474 7.103 24.3363 7.18597 24.3203 7.27297C24.2503 8.03475 24.2906 8.80265 24.4395 9.553C24.4535 9.602 24.4636 9.65294 24.4736 9.69094C24.5054 9.83547 24.5455 9.97805 24.5938 10.1179C24.732 10.6783 24.9511 11.2153 25.2451 11.7119C25.3358 11.8876 25.4357 12.0582 25.5449 12.2229L25.6025 12.3111C26.1654 13.131 26.8744 13.8403 27.6943 14.4031L27.7627 14.4461L27.7803 14.4571C27.9465 14.5656 28.1177 14.6658 28.2939 14.7571C28.791 15.0507 29.3291 15.2699 29.8896 15.408C30.0308 15.4568 30.1744 15.4973 30.3203 15.5291L30.4551 15.562C30.9702 15.6635 31.4945 15.7152 32.0195 15.7161C32.2595 15.7161 32.5003 15.7049 32.7363 15.6819C32.8223 15.6659 32.9063 15.6541 32.9873 15.6421C33.0873 15.6281 33.1756 15.615 33.2676 15.596C33.2849 15.595 33.3018 15.592 33.3184 15.5869C33.3353 15.582 33.3525 15.5789 33.3701 15.5779C33.4818 15.5561 33.5952 15.5451 33.709 15.5449C33.935 15.5447 34.1591 15.589 34.3682 15.6751C34.5722 15.7584 34.7581 15.8802 34.916 16.034C35.0794 16.193 35.2089 16.3834 35.2969 16.5938C35.3849 16.8041 35.4302 17.0301 35.4287 17.2581V27.6809C35.4287 27.9159 35.4116 28.1471 35.3936 28.3811C35.3756 28.5891 35.3592 28.781 35.3252 28.981C35.3072 29.191 35.2723 29.4021 35.2393 29.5811C35.168 30.0823 35.0611 30.5778 34.9199 31.064C34.7888 31.5212 34.6216 31.9672 34.4199 32.398C34.2262 32.8098 33.9985 33.2045 33.7383 33.5779C33.4837 33.942 33.1981 34.283 32.8838 34.5969C32.5694 34.9106 32.2276 35.196 31.8633 35.45C31.4894 35.7092 31.095 35.9371 30.6836 36.1311C30.2531 36.3319 29.8078 36.499 29.3516 36.6311C28.8666 36.7719 28.3719 36.8783 27.8721 36.95C27.6921 36.983 27.4815 37.0179 27.2725 37.0359C27.0645 37.0709 26.8729 37.088 26.6729 37.104C26.4469 37.127 26.2068 37.1441 25.9668 37.1441ZM11 27.7151C10.8313 27.7152 10.6645 27.7487 10.5088 27.8137C10.3531 27.8788 10.2124 27.9741 10.0938 28.094C9.97391 28.2125 9.87852 28.3536 9.81348 28.5091C9.74843 28.6646 9.7151 28.8315 9.71484 29C9.7151 29.1686 9.74843 29.3355 9.81348 29.491C9.87852 29.6465 9.97391 29.7875 10.0938 29.906C10.2124 30.026 10.3531 30.1213 10.5088 30.1863C10.6645 30.2514 10.8313 30.2848 11 30.2849H26.4297C26.5983 30.2847 26.7644 30.2511 26.9199 30.1861C27.0754 30.121 27.2165 30.0259 27.335 29.906C27.4551 29.7877 27.551 29.6468 27.6162 29.4912C27.6814 29.3357 27.7156 29.1687 27.7158 29C27.7156 28.8314 27.6814 28.6643 27.6162 28.5088C27.551 28.3533 27.4551 28.2124 27.335 28.094C27.2165 27.9741 27.0754 27.879 26.9199 27.814C26.7644 27.7489 26.5983 27.7153 26.4297 27.7151H11ZM10.9229 20.5281C10.5781 20.5281 10.2467 20.6649 10.0029 20.9087C9.75913 21.1525 9.62207 21.4831 9.62207 21.8279C9.62207 22.1727 9.75913 22.5035 10.0029 22.7473C10.2467 22.9911 10.5781 23.128 10.9229 23.128H26.4414C26.6121 23.128 26.7808 23.0944 26.9385 23.0291C27.0962 22.9637 27.2396 22.8681 27.3604 22.7473C27.4811 22.6266 27.5772 22.4832 27.6426 22.3255C27.7079 22.1677 27.7412 21.9986 27.7412 21.8279C27.7412 21.6572 27.7079 21.4883 27.6426 21.3306C27.5772 21.1729 27.4811 21.0294 27.3604 20.9087C27.2396 20.788 27.0962 20.6923 26.9385 20.627C26.7808 20.5616 26.6121 20.5281 26.4414 20.5281H10.9229ZM11 13.3391C10.8313 13.3393 10.6645 13.3727 10.5088 13.4378C10.3531 13.5028 10.2124 13.5981 10.0938 13.718C9.97391 13.8366 9.87852 13.9776 9.81348 14.1331C9.74843 14.2886 9.7151 14.4555 9.71484 14.624C9.7151 14.7926 9.74843 14.9595 9.81348 15.115C9.87852 15.2705 9.97391 15.4115 10.0938 15.5301C10.2124 15.6501 10.3531 15.7453 10.5088 15.8103C10.6645 15.8754 10.8313 15.9089 11 15.909H19.5713C19.74 15.9088 19.9068 15.8754 20.0625 15.8103C20.2182 15.7453 20.3598 15.65 20.4785 15.5301C20.5984 15.4115 20.6937 15.2705 20.7588 15.115C20.8238 14.9595 20.8572 14.7926 20.8574 14.624C20.8572 14.4555 20.8238 14.2886 20.7588 14.1331C20.6937 13.9776 20.5984 13.8366 20.4785 13.718C20.3598 13.5981 20.2182 13.5028 20.0625 13.4378C19.9068 13.3727 19.74 13.3393 19.5713 13.3391H11Z" fill="#6E7191" />
</svg>
    