<svg width="24" height="24" viewBox="0 0 24 24" fill="none" xmlns="http://www.w3.org/2000/svg">
    <path d="M12.0017 18.7289C10.9353 18.7315 9.901 18.3641 9.07518 17.6894C8.24936 17.0147 7.68314 16.0745 7.47309 15.0289C7.26303 13.9834 7.42214 12.8973 7.92329 11.956C8.42443 11.0147 9.23658 10.2763 10.2212 9.86687C11.2059 9.4574 12.3021 9.40216 13.323 9.71056C14.3438 10.019 15.2261 10.6719 15.8193 11.5581C16.4126 12.4443 16.68 13.5088 16.5762 14.5701C16.4723 15.6315 16.0035 16.6239 15.2497 17.3782C14.8238 17.806 14.3177 18.1457 13.7603 18.3775C13.203 18.6092 12.6053 18.7286 12.0017 18.7289ZM12.0017 10.9886C11.2729 10.9872 10.5662 11.2386 10.002 11.7001C9.43792 12.1615 9.05133 12.8044 8.9082 13.5191C8.76506 14.2337 8.87425 14.9759 9.21713 15.619C9.56001 16.2621 10.1154 16.7664 10.7885 17.0458C11.4616 17.3253 12.2108 17.3625 12.9084 17.1513C13.6059 16.9401 14.2086 16.4934 14.6137 15.8875C15.0187 15.2816 15.2011 14.554 15.1296 13.8287C15.0582 13.1034 14.7373 12.4253 14.2218 11.9101C13.633 11.3208 12.8348 10.9887 12.0017 10.9862V10.9886Z" fill="#6E7191" />
    <path d="M11.4597 15.7083C11.3014 15.7085 11.1447 15.6768 10.9989 15.6153C10.8531 15.5563 10.7203 15.4696 10.6077 15.3598L9.97886 14.7286C9.88479 14.6258 9.8224 14.498 9.79918 14.3606C9.77596 14.2232 9.7929 14.082 9.84796 13.9541C9.90303 13.8261 9.99387 13.7166 10.1096 13.6389C10.2253 13.5613 10.361 13.5189 10.5003 13.5165C10.5928 13.5132 10.6851 13.5282 10.7719 13.5607C10.8586 13.5933 10.938 13.6426 11.0055 13.706L11.4699 14.1704L13.03 12.7376C13.1352 12.6401 13.2668 12.5759 13.4084 12.5532C13.55 12.5304 13.6951 12.5501 13.8255 12.6097C13.956 12.6693 14.0658 12.7662 14.1412 12.8882C14.2166 13.0101 14.2542 13.1517 14.2493 13.295C14.2421 13.488 14.1589 13.6703 14.0177 13.802L12.295 15.3897C12.0645 15.5938 11.7676 15.707 11.4597 15.7083Z" fill="#6E7191" />
    <path d="M15.8691 22.4072H8.12328C3.65185 22.4072 2.81961 20.3246 2.6066 18.3037L1.88296 10.5471C1.76439 9.91337 1.78069 9.26172 1.9308 8.63468C2.08092 8.00764 2.36148 7.41918 2.75421 6.90784C3.62545 5.93999 5.06732 5.47559 7.15603 5.47559H16.8345C18.9346 5.47559 20.3747 5.95139 21.2381 6.90784C21.6317 7.42097 21.9127 8.01139 22.0628 8.64039C22.2129 9.2694 22.2288 9.92286 22.1094 10.5584L21.3833 18.2898C21.1745 20.3245 20.3423 22.4072 15.8691 22.4072ZM7.15843 6.92102C5.52275 6.92102 4.39829 7.23843 3.82886 7.87746C3.57041 8.239 3.39186 8.65149 3.30506 9.08734C3.21826 9.52319 3.22521 9.97251 3.32544 10.4055L4.05147 18.1561C4.21588 19.6855 4.6323 20.9552 8.12628 20.9552H15.8667C19.351 20.9552 19.7771 19.6856 19.9415 18.1483L20.6675 10.4126C20.7678 9.97843 20.7748 9.52783 20.688 9.09071C20.6012 8.65359 20.4226 8.23985 20.1641 7.87688C19.5928 7.23785 18.4702 6.92043 16.8345 6.92043L7.15843 6.92102Z" fill="#6E7191" />
    <path d="M15.8733 6.92136C15.6811 6.91779 15.4978 6.84015 15.3615 6.7047C15.2251 6.5694 15.1481 6.38565 15.1472 6.19359V5.41894C15.1472 3.69626 15.1472 3.04944 12.7759 3.04944H11.2296C8.85832 3.04944 8.85832 3.69626 8.85832 5.41894V6.19359C8.85747 6.38565 8.78043 6.5694 8.64411 6.7047C8.57766 6.77325 8.49811 6.82774 8.41019 6.86496C8.32227 6.90218 8.22776 6.92136 8.13229 6.92136C8.03681 6.92136 7.94231 6.90218 7.85439 6.86496C7.76646 6.82774 7.68692 6.77325 7.62046 6.7047C7.48415 6.5694 7.4071 6.38565 7.40625 6.19359V5.41894C7.40625 3.71546 7.40625 1.59375 11.2296 1.59375H12.7783C16.6017 1.59375 16.6017 3.71546 16.6017 5.41894V6.19359C16.6009 6.38565 16.5238 6.5694 16.3875 6.7047C16.2506 6.84072 16.0663 6.91841 15.8733 6.92136Z" fill="#6E7191" />
    <path d="M15.8822 14.3134C15.7058 14.3129 15.5354 14.249 15.4022 14.1334C15.2694 14.0157 15.184 13.8538 15.1619 13.6778C15.1398 13.5018 15.1826 13.3237 15.2822 13.1769C15.381 13.0304 15.5306 12.9256 15.7022 12.8829C17.578 12.4107 19.3457 11.5827 20.9092 10.4438C20.9865 10.3869 21.0745 10.346 21.1679 10.3237C21.2607 10.3005 21.3572 10.2966 21.4517 10.3119C21.5941 10.3353 21.7263 10.4004 21.8317 10.4989C21.9371 10.5975 22.011 10.7251 22.0439 10.8656C22.066 10.9582 22.0694 11.0542 22.0541 11.1482C22.0387 11.2427 22.005 11.3335 21.9551 11.4152C21.9043 11.4963 21.8388 11.5672 21.7619 11.6241C20.0461 12.8704 18.1078 13.7771 16.0514 14.2954C15.9955 14.3054 15.939 14.3114 15.8822 14.3134Z" fill="#6E7191" />
    <path d="M8.12857 14.3416C8.07007 14.341 8.01178 14.3346 7.95456 14.3224C6.00589 13.845 4.15981 13.0187 2.50569 11.8833C2.42477 11.8303 2.35521 11.7618 2.30108 11.6817C2.24616 11.6028 2.20835 11.5133 2.19007 11.4189C2.17102 11.3243 2.17102 11.2267 2.19007 11.1321C2.20955 11.038 2.24704 10.9485 2.30048 10.8687C2.35409 10.7886 2.42335 10.7201 2.5041 10.6676C2.58484 10.615 2.67539 10.5793 2.7703 10.5627C2.86496 10.5444 2.96234 10.5456 3.05652 10.5662C3.15001 10.5889 3.23864 10.6284 3.31813 10.6826C4.82763 11.7203 6.51337 12.4746 8.29298 12.9087C8.386 12.931 8.47356 12.9718 8.55039 13.0287C8.62689 13.0855 8.69185 13.1565 8.7418 13.2376C8.7914 13.3199 8.8243 13.4111 8.83861 13.5061C8.85292 13.6012 8.84837 13.6981 8.82521 13.7913C8.78908 13.9489 8.70068 14.0895 8.57439 14.1904C8.44803 14.2914 8.29028 14.3448 8.12857 14.3416Z" fill="#6E7191" />
</svg>
    