<svg width="17" height="16" viewBox="0 0 17 16" fill="none" xmlns="http://www.w3.org/2000/svg">
    <path d="M8.31196 0.178019C8.52402 -0.0593395 8.89542 -0.0593398 9.10747 0.178019L9.53188 0.653077C9.7007 0.842041 9.97917 0.886146 10.1981 0.758598L10.7486 0.437941C11.0236 0.277728 11.3768 0.392497 11.5051 0.683767L11.762 1.26672C11.8641 1.49861 12.1153 1.6266 12.363 1.57296L12.9856 1.43809C13.2966 1.37071 13.5971 1.58901 13.6292 1.90568L13.6933 2.53947C13.7188 2.79157 13.9181 2.99093 14.1702 3.01644L14.804 3.08056C15.1207 3.1126 15.339 3.41307 15.2716 3.72414L15.1368 4.34673C15.0831 4.59438 15.2111 4.84559 15.443 4.94775L16.026 5.20459C16.3172 5.33292 16.432 5.68614 16.2718 5.96116L15.9511 6.5116C15.8236 6.73055 15.8677 7.00902 16.0566 7.17783L16.5317 7.60225C16.7691 7.8143 16.7691 8.1857 16.5317 8.39775L16.0566 8.82217C15.8677 8.99098 15.8236 9.26945 15.9511 9.4884L16.2718 10.0388C16.432 10.3139 16.3172 10.6671 16.0259 10.7954L15.443 11.0522C15.2111 11.1544 15.0831 11.4056 15.1368 11.6533L15.2716 12.2759C15.339 12.5869 15.1207 12.8874 14.804 12.9194L14.1702 12.9836C13.9181 13.0091 13.7188 13.2084 13.6933 13.4605L13.6292 14.0943C13.5971 14.411 13.2966 14.6293 12.9856 14.5619L12.363 14.427C12.1153 14.3734 11.8641 14.5014 11.762 14.7333L11.5051 15.3162C11.3768 15.6075 11.0236 15.7223 10.7486 15.5621L10.1981 15.2414C9.97917 15.1139 9.7007 15.158 9.53188 15.3469L9.10747 15.822C8.89542 16.0593 8.52402 16.0593 8.31196 15.822L7.88755 15.3469C7.71873 15.158 7.44027 15.1139 7.22132 15.2414L6.67088 15.5621C6.39586 15.7223 6.04263 15.6075 5.91431 15.3162L5.65747 14.7333C5.5553 14.5014 5.3041 14.3734 5.05645 14.427L4.43386 14.5619C4.12279 14.6293 3.82232 14.411 3.79028 14.0943L3.72616 13.4605C3.70065 13.2084 3.50129 13.0091 3.24919 12.9836L2.6154 12.9194C2.29873 12.8874 2.08042 12.5869 2.14781 12.2759L2.28267 11.6533C2.33632 11.4056 2.20832 11.1544 1.97644 11.0522L1.39348 10.7954C1.10221 10.6671 0.987444 10.3139 1.14766 10.0388L1.46831 9.4884C1.59586 9.26945 1.55176 8.99098 1.36279 8.82217L0.887736 8.39775C0.650377 8.1857 0.650377 7.8143 0.887736 7.60225L1.36279 7.17783C1.55176 7.00902 1.59586 6.73055 1.46831 6.5116L1.14766 5.96116C0.987445 5.68614 1.10221 5.33292 1.39348 5.20459L1.97644 4.94775C2.20832 4.84559 2.33632 4.59438 2.28267 4.34673L2.14781 3.72414C2.08042 3.41307 2.29873 3.1126 2.6154 3.08056L3.24919 3.01644C3.50129 2.99093 3.70065 2.79158 3.72616 2.53947L3.79028 1.90568C3.82232 1.58901 4.12279 1.37071 4.43386 1.43809L5.05645 1.57296C5.3041 1.6266 5.5553 1.49861 5.65747 1.26672L5.91431 0.683766C6.04263 0.392497 6.39586 0.277728 6.67088 0.437941L7.22132 0.758598C7.44027 0.886146 7.71873 0.842041 7.88755 0.653077L8.31196 0.178019Z" fill="#15c0ab" />
    <path d="M6.86911 11.199L4.38897 9.14031C4.33757 9.09783 4.29672 9.04696 4.26883 8.99076C4.24095 8.93456 4.22661 8.87421 4.22667 8.81319C4.22822 8.68911 4.28749 8.57064 4.39151 8.48378C4.49553 8.39692 4.63577 8.34878 4.78141 8.34996C4.92913 8.34996 5.07082 8.39965 5.17574 8.48824L7.26598 10.2233L10.0297 7.91286L12.7933 5.60245L12.7952 5.60387C12.901 5.53067 13.0351 5.49361 13.1712 5.4999C13.3073 5.50618 13.4358 5.55532 13.5316 5.63783C13.6289 5.71988 13.6865 5.83003 13.6933 5.94652C13.7001 6.06301 13.6557 6.17743 13.5684 6.26729L13.5624 6.27228C13.5536 6.28086 13.5445 6.28912 13.5351 6.29686C13.5233 6.30722 13.5108 6.31699 13.4977 6.32616L7.65049 11.2045C7.54789 11.2968 7.40944 11.3542 7.26091 11.3663C7.11144 11.351 6.97288 11.2919 6.86911 11.199Z" fill="white" />
</svg>