<svg width="36" height="36" viewBox="0 0 36 36" fill="none" xmlns="http://www.w3.org/2000/svg">
    <g opacity="0.8" clip-path="url(#clip0_30361_14167)">
        <path d="M22.3332 33.5278H13.665C13.1754 33.5278 12.7 33.5143 12.2481 33.4882C11.7963 33.4621 11.3482 33.4216 10.9332 33.3685C10.5183 33.3154 10.1046 33.2468 9.71941 33.1667C9.33419 33.0866 8.95943 32.9868 8.60841 32.8815C8.26399 32.7759 7.92456 32.6522 7.59322 32.5108C7.27887 32.3764 6.97303 32.2237 6.67648 32.0536C6.39125 31.8891 6.11671 31.7064 5.85466 31.5071C5.59809 31.3114 5.3552 31.099 5.12689 30.8709C4.89897 30.6425 4.68637 30.3992 4.49053 30.1427C4.2918 29.8804 4.10923 29.6059 3.9447 29.3209C3.77427 29.0245 3.62176 28.7182 3.48765 28.4037C3.34642 28.0726 3.22254 27.7343 3.11673 27.3903C3.00873 27.0384 2.91293 26.6641 2.83283 26.278C2.75273 25.8919 2.68377 25.4849 2.63067 25.0655C2.57757 24.646 2.54086 24.206 2.51026 23.7506C2.47965 23.2951 2.4707 22.8218 2.4707 22.3321V13.6666C2.4707 13.1779 2.48415 12.7007 2.51026 12.2479C2.53636 11.7952 2.57667 11.348 2.63067 10.933C2.68467 10.5181 2.75183 10.1051 2.83283 9.71987C2.91383 9.33465 3.01233 8.95926 3.11673 8.60734C3.22258 8.26329 3.34645 7.92503 3.48765 7.59391C3.62176 7.27941 3.77427 6.97311 3.9447 6.67672C4.10924 6.39173 4.2918 6.11721 4.49053 5.85491C4.68637 5.59844 4.89897 5.35535 5.12689 5.12691C5.3552 4.89887 5.59809 4.68626 5.85466 4.49056C6.11671 4.2912 6.39125 4.10878 6.67648 3.94429C6.97303 3.77415 7.27887 3.62143 7.59322 3.48701C7.92464 3.34579 8.26406 3.22192 8.60841 3.1161C8.96033 3.00809 9.33419 2.91188 9.71941 2.83088C10.1046 2.74987 10.5129 2.68226 10.9332 2.62916C11.3536 2.57606 11.7936 2.53932 12.2481 2.50962C12.7027 2.47992 13.1754 2.46985 13.665 2.46985H22.3332C22.8219 2.46985 23.2983 2.48352 23.7501 2.50962C24.2019 2.53572 24.6501 2.57606 25.065 2.62916C25.4799 2.68226 25.8936 2.75077 26.2788 2.83088C26.664 2.91098 27.0388 3.01079 27.3907 3.1161C27.7348 3.22192 28.073 3.34579 28.4041 3.48701C28.7186 3.62116 29.0253 3.77389 29.3218 3.94429C29.6071 4.10857 29.8817 4.291 30.1436 4.49056C30.4003 4.68648 30.6434 4.89907 30.8722 5.12691C31.0998 5.35536 31.3122 5.59846 31.5077 5.85491C31.7071 6.11675 31.8897 6.39131 32.0535 6.67672C32.2238 6.97333 32.3766 7.2796 32.5115 7.59391C32.652 7.92517 32.7756 8.26341 32.8815 8.60734C32.9895 8.95926 33.0853 9.33375 33.1654 9.71987C33.2455 10.106 33.3144 10.5127 33.3684 10.933C33.4224 11.3534 33.4583 11.7934 33.488 12.2479C33.5177 12.7025 33.5275 13.177 33.5275 13.6666V22.3321C33.5275 22.8209 33.5141 23.2978 33.488 23.7506C33.4619 24.2033 33.4215 24.6505 33.3684 25.0655C33.3153 25.4804 33.2464 25.8937 33.1654 26.278C33.0844 26.6623 32.9859 27.0384 32.8815 27.3903C32.7757 27.7342 32.6521 28.0725 32.5115 28.4037C32.3766 28.718 32.2238 29.0243 32.0535 29.3209C31.8896 29.6063 31.707 29.8808 31.5077 30.1427C31.3122 30.3992 31.0998 30.6425 30.8722 30.8709C30.6436 31.099 30.4004 31.3114 30.1436 31.5071C29.8817 31.7066 29.6071 31.8893 29.3218 32.0536C29.0254 32.224 28.7187 32.3768 28.4041 32.5108C28.0731 32.6522 27.7348 32.7759 27.3907 32.8815C27.0379 32.9904 26.6649 33.0857 26.2788 33.1667C25.8927 33.2477 25.4853 33.3154 25.065 33.3685C24.6447 33.4216 24.2046 33.4585 23.7501 33.4882C23.2956 33.5179 22.821 33.5278 22.3332 33.5278ZM13.6967 25.3302C14.9968 26.0955 16.4782 26.4992 17.9868 26.5001H18.0026C18.5779 26.49 19.1511 26.4229 19.7131 26.2995C20.2745 26.1759 20.8218 25.9968 21.3479 25.7649C21.8743 25.5329 22.3763 25.2493 22.8465 24.918C23.3165 24.5867 23.7525 24.209 24.1474 23.791C24.5414 23.3719 24.8927 22.9146 25.196 22.4258C25.4989 21.9369 25.7526 21.4192 25.9536 20.8803C26.1537 20.3411 26.3002 19.7832 26.3905 19.2152C26.4801 18.6471 26.5127 18.0716 26.4889 17.497C26.4512 16.859 26.342 16.2273 26.1619 15.6141C25.9824 15.0007 25.7339 14.4096 25.4219 13.8518C25.1102 13.2941 24.7365 12.7734 24.3082 12.2994C23.879 11.827 23.3983 11.4042 22.8747 11.0392C22.3508 10.6732 21.7873 10.3674 21.195 10.1275C20.6027 9.88748 19.9854 9.71504 19.3545 9.61352C18.908 9.54174 18.4566 9.50574 18.0044 9.50563C17.1782 9.50632 16.3565 9.62752 15.5653 9.86556C14.9531 10.0491 14.3633 10.3009 13.8074 10.6162C13.2518 10.9319 12.7337 11.309 12.2622 11.7404C11.791 12.1717 11.3694 12.6549 11.0062 13.1805C10.6442 13.7068 10.3423 14.2718 10.1061 14.8652C9.86986 15.4591 9.70173 16.0778 9.60426 16.7095C9.50658 17.3412 9.48039 17.9819 9.52604 18.6195C9.57234 19.2568 9.68977 19.8868 9.87674 20.4978C10.0645 21.1089 10.3208 21.697 10.6397 22.2511L9.88465 25.0663C9.84324 25.2098 9.84324 25.3621 9.88465 25.5056C9.92473 25.6493 9.99916 25.7807 10.1026 25.8882C10.2089 25.9943 10.3422 26.0703 10.4876 26.1079C10.5564 26.1258 10.6266 26.1346 10.6977 26.1347C10.7762 26.1346 10.8542 26.1238 10.9297 26.1024L13.6993 25.3373L13.6967 25.3302ZM20.3705 22.2548H20.3371C20.0978 22.2524 19.8594 22.2243 19.6261 22.1711C19.3928 22.1181 19.1659 22.0402 18.9493 21.9388C18.4319 21.713 17.9412 21.4308 17.4858 21.0972C16.9919 20.7375 16.5265 20.3403 16.0936 19.9091C15.661 19.4775 15.2634 19.012 14.9052 18.5168C14.5731 18.0645 14.2922 17.5771 14.0667 17.0633C13.97 16.8432 13.8955 16.6141 13.8443 16.3792C13.7928 16.1447 13.7649 15.9056 13.7608 15.6655C13.7598 15.3845 13.8113 15.1057 13.9129 14.8437C13.9657 14.7073 14.0342 14.5777 14.1177 14.4576C14.2005 14.3375 14.2974 14.2275 14.406 14.13C14.5193 14.0078 14.656 13.9093 14.8076 13.8402C14.9588 13.7709 15.1223 13.7324 15.2884 13.7268C15.4099 13.729 15.5294 13.7549 15.6409 13.8033C15.7541 13.8585 15.8525 13.9408 15.9266 14.0428L16.9162 15.435C16.9836 15.5286 17.0408 15.6294 17.0859 15.7356C17.1253 15.8167 17.1454 15.9057 17.1457 15.9958C17.1451 16.1042 17.1143 16.2104 17.056 16.3019C16.9904 16.4145 16.909 16.5173 16.8152 16.6078L16.4952 16.949C16.4724 16.9698 16.4557 16.9962 16.446 17.0255C16.4313 17.0531 16.4252 17.0844 16.4293 17.1154C16.4292 17.1502 16.4352 17.1848 16.446 17.218C16.4601 17.247 16.471 17.2772 16.4803 17.3081C16.5933 17.5034 16.727 17.6862 16.8785 17.8535C17.0801 18.0812 17.2785 18.3034 17.4999 18.5212C17.7006 18.7165 17.9372 18.9444 18.1793 19.1514C18.3484 19.2999 18.5321 19.4298 18.7286 19.5393L18.7629 19.5555C18.7766 19.5627 18.7906 19.569 18.8051 19.5744C18.8339 19.5854 18.8649 19.5912 18.8956 19.5916C18.9157 19.5915 18.9351 19.589 18.9545 19.5843C19.0062 19.5742 19.0543 19.5494 19.0925 19.5131L19.4133 19.1919C19.5052 19.0995 19.6081 19.019 19.7201 18.9524C19.813 18.8974 19.9181 18.8666 20.026 18.8625C20.1174 18.8625 20.2076 18.8833 20.2897 18.9236C20.394 18.9685 20.4931 19.025 20.585 19.0919L21.9983 20.0963C22.1001 20.1644 22.1825 20.2574 22.2383 20.3664C22.2798 20.4719 22.302 20.5843 22.3033 20.6977C22.2826 20.7544 22.2642 20.8129 22.2462 20.8777C22.2207 20.9734 22.1884 21.067 22.1486 21.1576C22.0724 21.3133 21.9765 21.4588 21.8639 21.5905C21.7677 21.6984 21.6596 21.7953 21.5422 21.8795C21.4244 21.9635 21.2976 22.034 21.1642 22.09C21.0385 22.1439 20.908 22.1849 20.774 22.2124C20.6413 22.2399 20.506 22.2542 20.3705 22.2548Z" fill="#6E7191" />
    </g>
    <defs>
        <clipPath id="clip0_30361_14167">
            <rect width="36" height="36" fill="white" />
        </clipPath>
    </defs>
</svg>