<svg width="28" height="28" viewBox="0 0 28 28" fill="none" xmlns="http://www.w3.org/2000/svg">
    <path
        d="M12.1134 16.3868C12.0477 16.387 11.9827 16.3741 11.922 16.3489C11.8614 16.3237 11.8064 16.2867 11.7602 16.24C11.6673 16.1458 11.6152 16.0189 11.6152 15.8866C11.6152 15.7543 11.6673 15.6274 11.7602 15.5332L15.5349 11.7605C15.6286 11.6668 15.7558 11.6141 15.8883 11.6141C16.0209 11.6141 16.148 11.6668 16.2417 11.7605C16.3354 11.8542 16.3881 11.9814 16.3881 12.1139C16.3881 12.2465 16.3354 12.3736 16.2417 12.4673L12.4666 16.2404C12.4208 16.2875 12.3658 16.3248 12.3051 16.35C12.2444 16.3752 12.1791 16.3877 12.1134 16.3868Z"
        fill="#555777" />
    <path
        d="M15.8867 16.3868C15.8211 16.3871 15.756 16.3742 15.6954 16.349C15.6347 16.3238 15.5797 16.2867 15.5335 16.24L11.7604 12.4669C11.6698 12.3726 11.6198 12.2466 11.6211 12.1158C11.6224 11.985 11.675 11.86 11.7674 11.7675C11.8599 11.6751 11.9849 11.6225 12.1157 11.6212C12.2465 11.6199 12.3725 11.67 12.4668 11.7606L16.2403 15.5353C16.3332 15.6294 16.3853 15.7564 16.3853 15.8886C16.3853 16.0209 16.3332 16.1479 16.2403 16.242C16.1939 16.2884 16.1388 16.3251 16.0781 16.35C16.0174 16.3748 15.9523 16.3874 15.8867 16.3868Z"
        fill="#555777" />
    <path
        d="M15.9996 21.1666H11.9997C8.37977 21.1666 6.83301 19.6199 6.83301 15.9999V12C6.83301 8.38014 8.37977 6.83337 11.9997 6.83337H15.9996C19.6195 6.83337 21.1663 8.38014 21.1663 12V15.9999C21.1663 19.6199 19.6195 21.1666 15.9996 21.1666ZM11.9997 7.83335C8.92616 7.83335 7.83298 8.92652 7.83298 12V15.9999C7.83298 19.0735 8.92616 20.1666 11.9997 20.1666H15.9996C19.0731 20.1666 20.1663 19.0735 20.1663 15.9999V12C20.1663 8.92652 19.0727 7.83335 15.9996 7.83335H11.9997Z"
        fill="#555777" />
</svg>
    