<svg width="64" height="24" viewBox="0 0 64 24" fill="none" xmlns="http://www.w3.org/2000/svg">
    <g clip-path="url(#clip0_3054_66329)">
        <path
            d="M33.3484 7.46387V16.8719H31.3766L26.5593 9.38387H26.5094L26.5344 9.79187C26.6092 10.5599 26.6342 11.2799 26.6342 11.9759V16.8719H25.1865V7.46387H27.1334L31.9257 14.9279H31.9756C31.9008 13.7039 31.9008 12.8639 31.9008 12.4079V7.46387H33.3484Z"
            fill="white" />
        <path
            d="M39.4647 13.2959L41.5115 7.46387H43.1838L39.7393 16.8719H38.067L34.6475 7.46387H36.2948L38.3415 13.3199C38.4414 13.5839 38.5412 13.9199 38.666 14.3519C38.7908 14.7599 38.8657 15.1199 38.9156 15.3839C38.9905 15.0479 39.0654 14.6639 39.1902 14.2319C39.315 13.7759 39.3899 13.4879 39.4647 13.2959Z"
            fill="white" />
        <path d="M46.0535 16.8719H44.4561V7.46387H46.0535V16.8719Z" fill="white" />
        <path
            d="M50.2449 13.1279V16.8959H48.6475V7.46387H51.3931C52.666 7.46387 53.5895 7.67987 54.1886 8.13587C54.8126 8.59187 55.1121 9.28787 55.1121 10.1999C55.1121 11.3759 54.4881 12.2159 53.2151 12.6959L55.9607 16.8719H54.1387L51.7924 13.1039L50.2449 13.1279ZM50.2449 8.78387V11.8559H51.3681C52.0919 11.8559 52.6411 11.7119 52.9905 11.4719C53.3399 11.2079 53.4897 10.8239 53.4897 10.2959C53.4897 9.76787 53.315 9.38387 52.9655 9.14387C52.6161 8.90387 52.067 8.78387 51.3182 8.78387H50.2449Z"
            fill="white" />
        <path
            d="M62.9269 15.5759V16.8719H57.3857V7.46387H62.9269V8.75987H59.0081V11.3279H62.7022V12.5999H59.0081V15.5519L62.9269 15.5759Z"
            fill="white" />
        <path
            d="M17.1051 14.616H17.0552C16.1067 16.2 14.3345 17.28 12.2878 17.28C9.21772 17.28 6.74668 14.904 6.74668 11.976C6.74668 9.04805 9.21772 6.67205 12.2628 6.67205C14.9336 6.67205 17.18 8.52005 17.6792 10.968H8.64364V12.816H17.5544H17.7041H19.676C19.7009 12.552 19.7259 12.264 19.7259 11.976C19.7259 8.01605 16.3812 4.80005 12.2628 4.80005C8.14444 4.80005 4.7998 8.01605 4.7998 11.976C4.7998 15.936 8.14444 19.152 12.2628 19.152C15.0334 19.152 17.4795 17.688 18.7524 15.528L17.1051 14.616Z"
            fill="white" />
        <path
            d="M19.8224 3.97864C19.9218 3.75514 19.9714 3.5068 19.9714 3.25846C19.9714 2.21545 19.1271 1.39594 18.1089 1.39594C17.6122 1.39594 17.19 1.56977 16.8424 1.89261C15.3772 1.17243 13.7382 0.799927 11.975 0.799927C5.79138 0.799927 0.799805 5.81633 0.799805 11.9999C0.799805 18.1835 5.81621 23.1999 11.9998 23.1999C18.2082 23.1999 23.1998 18.1835 23.1998 11.9999C23.1998 8.84605 21.9085 6.015 19.8224 3.97864ZM18.0841 2.01678C18.7794 2.01678 19.3506 2.58795 19.3506 3.2833C19.3506 3.97864 18.7794 4.54982 18.0841 4.54982C17.3887 4.54982 16.8175 3.97864 16.8175 3.2833C16.8175 2.58795 17.3887 2.01678 18.0841 2.01678ZM11.9998 21.7347C6.61089 21.7347 2.26499 17.3888 2.26499 11.9999C2.26499 6.61101 6.63573 2.26512 11.9998 2.26512C13.5147 2.26512 14.955 2.61279 16.2464 3.23363C16.2464 3.25846 16.2464 3.25846 16.2464 3.2833C16.2464 4.32631 17.0907 5.14582 18.1089 5.14582C18.3324 5.14582 18.5807 5.09616 18.7794 5.02166C20.5923 6.78485 21.7346 9.26822 21.7346 12.0248C21.7346 17.3888 17.3887 21.7347 11.9998 21.7347Z"
            fill="#6ACCE5" />
    </g>
    <defs>
        <clipPath id="clip0_3054_66329">
            <rect width="62.4" height="24" fill="white" transform="translate(0.799805)" />
        </clipPath>
    </defs>
</svg>
    