<svg width="89" height="36" viewBox="0 0 89 36" fill="none" xmlns="http://www.w3.org/2000/svg">
    <path
        d="M46.4224 11.1958V25.3078H43.61L36.7392 14.0758H36.6681L36.7036 14.6878C36.8104 15.8398 36.8461 16.9198 36.8461 17.9638V25.3078H34.7812V11.1958H37.5581L44.3932 22.3918H44.4644C44.3576 20.5558 44.3576 19.2958 44.3576 18.6118V11.1958H46.4224Z"
        fill="white" />
    <path
        d="M55.1442 19.9438L58.0634 11.1958H60.4486L55.5358 25.3078H53.1506L48.2734 11.1958H50.623L53.5422 19.9798C53.6846 20.3758 53.827 20.8798 54.005 21.5278C54.183 22.1398 54.2898 22.6798 54.361 23.0758C54.4678 22.5718 54.5746 21.9958 54.7526 21.3478C54.9306 20.6638 55.0374 20.2318 55.1442 19.9438Z"
        fill="white" />
    <path d="M64.544 25.3078H62.2656V11.1958H64.544V25.3078Z" fill="white" />
    <path
        d="M70.5245 19.6918V25.3438H68.2461V11.1958H72.1621C73.9777 11.1958 75.2949 11.5198 76.1493 12.2038C77.0393 12.8878 77.4665 13.9318 77.4665 15.2998C77.4665 17.0638 76.5765 18.3238 74.7609 19.0438L78.6769 25.3078H76.0781L72.7317 19.6558L70.5245 19.6918ZM70.5245 13.1758V17.7838H72.1265C73.1589 17.7838 73.9421 17.5678 74.4405 17.2078C74.9389 16.8118 75.1525 16.2358 75.1525 15.4438C75.1525 14.6518 74.9033 14.0758 74.4049 13.7158C73.9065 13.3558 73.1233 13.1758 72.0553 13.1758H70.5245Z"
        fill="white" />
    <path
        d="M88.6102 23.3638V25.3078H80.707V11.1958H88.6102V13.1398H83.021V16.9918H88.2898V18.8998H83.021V23.3278L88.6102 23.3638Z"
        fill="white" />
    <path
        d="M23.3555 21.8881H23.2843C21.9315 24.2641 19.4039 25.8841 16.4847 25.8841C12.1059 25.8841 8.58149 22.3201 8.58149 17.9281C8.58149 13.5361 12.1059 9.97206 16.4491 9.97206C20.2583 9.97206 23.4623 12.7441 24.1743 16.4161H11.2871V19.1881H23.9963H24.2099H27.0223C27.0579 18.7921 27.0935 18.3601 27.0935 17.9281C27.0935 11.9881 22.3231 7.16406 16.4491 7.16406C10.5751 7.16406 5.80469 11.9881 5.80469 17.9281C5.80469 23.8681 10.5751 28.6921 16.4491 28.6921C20.4007 28.6921 23.8895 26.4961 25.7051 23.2561L23.3555 21.8881Z"
        fill="white" />
    <path
        d="M27.6602 6.29989C27.8026 5.97589 27.8738 5.6159 27.8738 5.2559C27.8738 3.7439 26.6634 2.55589 25.2038 2.55589C24.4918 2.55589 23.8866 2.80789 23.3882 3.27589C21.2878 2.23189 18.9382 1.69189 16.4106 1.69189C7.54623 1.69189 0.390625 8.96389 0.390625 17.9279C0.390625 26.8919 7.58183 34.1639 16.4462 34.1639C25.3462 34.1639 32.5018 26.8919 32.5018 17.9279C32.5018 13.3559 30.6506 9.25189 27.6602 6.29989ZM25.1682 3.45589C26.165 3.45589 26.9838 4.28389 26.9838 5.29189C26.9838 6.29989 26.165 7.12789 25.1682 7.12789C24.1714 7.12789 23.3526 6.29989 23.3526 5.29189C23.3526 4.28389 24.1714 3.45589 25.1682 3.45589ZM16.4462 32.0399C8.72103 32.0399 2.49103 25.7399 2.49103 17.9279C2.49103 10.1159 8.75663 3.81589 16.4462 3.81589C18.6178 3.81589 20.6826 4.31989 22.5338 5.21989C22.5338 5.25589 22.5338 5.25589 22.5338 5.29189C22.5338 6.80389 23.7442 7.9919 25.2038 7.9919C25.5242 7.9919 25.8802 7.9199 26.165 7.81189C28.7638 10.3679 30.4014 13.9679 30.4014 17.9639C30.4014 25.7399 24.1714 32.0399 16.4462 32.0399Z"
        fill="#6ACCE5" />
</svg>
    