<svg width="24" height="24" viewBox="0 0 24 24" fill="none" xmlns="http://www.w3.org/2000/svg">
    <path
        d="M1.86757 18.5555C1.86677 18.6747 1.88966 18.7928 1.93491 18.9031C1.98016 19.0134 2.04687 19.1136 2.13116 19.1979C2.21546 19.2822 2.31565 19.3489 2.42594 19.3942C2.53623 19.4394 2.65441 19.4623 2.77361 19.4615H21.3361C21.5764 19.4615 21.8069 19.366 21.9768 19.1961C22.1467 19.0262 22.2422 18.7958 22.2422 18.5555C22.2422 18.3152 22.1467 18.0847 21.9768 17.9148C21.8069 17.7449 21.5764 17.6494 21.3361 17.6494H2.77421C2.53458 17.6518 2.30543 17.7479 2.13592 17.9173C1.96641 18.0867 1.87007 18.3158 1.86757 18.5555Z"
        fill="#EFF1F8" />
    <path
        d="M22.3867 11.9998C22.3875 11.8806 22.3646 11.7624 22.3194 11.6521C22.2741 11.5419 22.2074 11.4417 22.1231 11.3574C22.0388 11.2731 21.9386 11.2064 21.8283 11.1611C21.718 11.1159 21.5999 11.093 21.4807 11.0938L2.62951 11.0938C2.38913 11.0938 2.1586 11.1893 1.98863 11.3592C1.81865 11.5292 1.72317 11.7597 1.72317 12.0001C1.72317 12.2405 1.81865 12.471 1.98863 12.641C2.1586 12.811 2.38913 12.9065 2.62951 12.9065L21.4807 12.9065C21.7208 12.9057 21.9509 12.8099 22.1207 12.64C22.2904 12.4701 22.3861 12.24 22.3867 11.9998Z"
        fill="#EFF1F8" />
    <path
        d="M1.86757 5.44462C1.86677 5.56383 1.88966 5.682 1.93491 5.79229C1.98016 5.90258 2.04687 6.00277 2.13116 6.08707C2.21546 6.17136 2.31565 6.23807 2.42594 6.28332C2.53623 6.32857 2.65441 6.35146 2.77361 6.35066L21.3361 6.35066C21.5764 6.35066 21.8069 6.25521 21.9768 6.08529C22.1467 5.91537 22.2422 5.68492 22.2422 5.44462C22.2422 5.20432 22.1467 4.97387 21.9768 4.80395C21.8069 4.63403 21.5764 4.53857 21.3361 4.53857L2.77421 4.53857C2.53405 4.53921 2.3039 4.63485 2.13403 4.80461C1.96415 4.97437 1.86836 5.20446 1.86757 5.44462Z"
        fill="#EFF1F8" />
</svg>
    