<svg width="24" height="24" viewBox="0 0 24 24" fill="none" xmlns="http://www.w3.org/2000/svg">
    <path
        d="M7.47443 12.5762C7.40382 12.5075 7.34761 12.4254 7.30908 12.3348C7.27054 12.2441 7.25045 12.1467 7.24998 12.0482C7.24925 11.8498 7.32668 11.6591 7.46551 11.5173C7.60434 11.3755 7.7934 11.2942 7.99179 11.2907L15.9968 11.2093C16.1956 11.2072 16.3871 11.2842 16.5292 11.4233C16.6712 11.5624 16.7522 11.7523 16.7543 11.9511C16.7564 12.1499 16.6794 12.3414 16.5402 12.4834C16.4011 12.6255 16.2113 12.7065 16.0125 12.7085L8.0066 12.79C7.90802 12.7924 7.80999 12.7747 7.71849 12.7379C7.62699 12.7012 7.54394 12.6462 7.47443 12.5762Z"
        fill="#EFF1F8" />
    <path
        d="M7.46552 11.563C7.5336 11.4919 7.61519 11.4349 7.70551 11.3956C7.79583 11.3563 7.89308 11.3354 7.99158 11.3341L15.9943 11.1815C16.1905 11.1816 16.3787 11.2587 16.5187 11.3962C16.6586 11.5336 16.7391 11.7204 16.7429 11.9166C16.7466 12.1127 16.6733 12.3025 16.5387 12.4451C16.4041 12.5878 16.2189 12.672 16.0229 12.6797L8.01801 12.8311C7.8196 12.8335 7.62822 12.7577 7.48527 12.6201C7.34232 12.4825 7.2593 12.2942 7.25417 12.0958C7.25229 11.9974 7.27001 11.8997 7.3063 11.8082C7.34258 11.7167 7.39671 11.6334 7.46552 11.563Z"
        fill="#EFF1F8" />
    <path
        d="M14.9992 22.7504H8.99922C3.56922 22.7504 1.24902 20.4302 1.24902 15.0002V9.0002C1.24902 3.5702 3.56922 1.25 8.99922 1.25H14.9992C20.4292 1.25 22.7494 3.5702 22.7494 9.0002V15.0002C22.7494 20.4302 20.4292 22.7504 14.9992 22.7504ZM8.99922 2.75C4.38882 2.75 2.74902 4.3898 2.74902 9.0002V15.0002C2.74902 19.6106 4.38882 21.2504 8.99922 21.2504H14.9992C19.6096 21.2504 21.2494 19.6106 21.2494 15.0002V9.0002C21.2494 4.3898 19.609 2.75 14.9992 2.75H8.99922Z"
        fill="#EFF1F8" />
</svg>
    