<svg width="24" height="24" viewBox="0 0 24 24" fill="none" xmlns="http://www.w3.org/2000/svg">
    <path
        d="M7.47405 12.5761C7.40345 12.5074 7.34724 12.4253 7.3087 12.3347C7.27017 12.244 7.25008 12.1466 7.24961 12.0481C7.24888 11.8497 7.32631 11.6589 7.46513 11.5172C7.60396 11.3754 7.79302 11.294 7.9914 11.2906L15.9962 11.2092C16.195 11.2071 16.3865 11.2841 16.5286 11.4232C16.6706 11.5623 16.7516 11.7521 16.7537 11.951C16.7557 12.1498 16.6788 12.3413 16.5396 12.4833C16.4005 12.6254 16.2107 12.7063 16.0119 12.7084L8.00621 12.7899C7.90763 12.7923 7.8096 12.7746 7.7181 12.7378C7.62661 12.701 7.54357 12.646 7.47405 12.5761Z"
        fill="#EFF1F8" />
    <path
        d="M11.4697 16.5312C11.3998 16.4618 11.3445 16.3792 11.3069 16.2881C11.2693 16.1971 11.2502 16.0994 11.2508 16.0009L11.2508 7.99696C11.2547 7.80084 11.3353 7.61408 11.4754 7.47677C11.6155 7.33946 11.8038 7.26255 12 7.26255C12.1962 7.26255 12.3845 7.33946 12.5246 7.47677C12.6647 7.61408 12.7453 7.80084 12.7492 7.99696L12.748 16.003C12.7466 16.2015 12.6672 16.3914 12.5269 16.5316C12.3866 16.6719 12.1967 16.7514 11.9983 16.7527C11.8999 16.7527 11.8025 16.7331 11.7117 16.6951C11.621 16.6571 11.5387 16.6014 11.4697 16.5312Z"
        fill="#EFF1F8" />
    <path
        d="M14.9999 22.7499H9.00001C3.57014 22.7499 1.25 20.4297 1.25 14.9999V9.00001C1.25 3.57014 3.57014 1.25 9.00001 1.25H14.9999C20.4297 1.25 22.7499 3.57014 22.7499 9.00001V14.9999C22.7499 20.4297 20.4297 22.7499 14.9999 22.7499ZM9.00001 2.74996C4.38972 2.74996 2.74996 4.38972 2.74996 9.00001V14.9999C2.74996 19.6101 4.38972 21.2499 9.00001 21.2499H14.9999C19.6101 21.2499 21.2499 19.6101 21.2499 14.9999V9.00001C21.2499 4.38972 19.6095 2.74996 14.9999 2.74996H9.00001Z"
        fill="#EFF1F8" />
</svg>
    