<svg width="57" height="90" viewBox="0 0 57 90" fill="none" xmlns="http://www.w3.org/2000/svg">
    <circle cx="28.5" cy="37.5001" r="26" stroke="#555777" />
    <path
        d="M11.1524 20.1525C20.6954 10.6095 36.366 10.7179 46.1541 20.5061L48.9826 17.6777C37.6824 6.3775 19.4787 6.16936 8.32393 17.3241C2.89788 22.7502 0.160498 29.8441 0.0806037 37.0001H0C0 40.3962 0.574658 43.6585 1.63113 46.6906C3.03355 50.8107 5.38457 54.6898 8.67749 57.9827L8.75109 57.9092C13.8683 62.9167 20.8229 66.0001 28.5 66.0001C44.2752 66.0001 57 52.9809 57 37.0001H53C53 50.8426 41.9959 62.0001 28.5 62.0001C17.8556 62.0001 8.76133 55.0594 5.39347 45.3349C2.4832 36.7072 4.40615 26.8987 11.1524 20.1525Z"
        fill="#4B4DED" />
    <g clip-path="url(#clip0_3054_64860)">
        <path
            d="M33.5951 40.1201C33.001 41.1493 31.8045 41.7182 30.2316 41.7182L28.7486 41.7182L28.7486 46.7521C28.7521 46.7815 28.7538 46.8112 28.7538 46.8408C28.7541 46.9385 28.735 47.0353 28.6977 47.1257C28.6605 47.2161 28.6058 47.2982 28.5367 47.3674C28.4677 47.4366 28.3857 47.4914 28.2954 47.5288C28.2051 47.5663 28.1084 47.5855 28.0106 47.5855C27.599 47.5855 27.2555 47.2513 27.2555 46.8397C27.2555 46.8193 27.2563 46.7992 27.2579 46.7793L27.2579 41.7182L25.7636 41.7182C24.1906 41.7182 22.9941 41.1493 22.4 40.1201C21.8059 39.0826 21.9147 37.7689 22.7012 36.4052L24.9353 32.5312C25.7217 31.1674 26.8094 30.4144 27.9975 30.4144C29.1855 30.4144 30.2734 31.1674 31.0683 32.5312L33.3022 36.4052C33.754 37.1832 33.9799 37.9531 33.9799 38.6559C33.98 39.183 33.8545 39.6766 33.5951 40.1201ZM23.6904 39.3388C24.034 39.9382 24.8092 40.2658 25.8641 40.2658L30.1315 40.2658C31.1863 40.2658 31.9616 39.9382 32.3052 39.3388C32.6488 38.7393 32.5449 37.9083 32.0174 36.9892L29.8837 33.2892C29.3564 32.3703 28.6851 31.8668 27.9978 31.8668C27.3106 31.8668 26.6393 32.3704 26.1118 33.2892L23.9781 36.9892C23.6504 37.5486 23.4906 38.076 23.4906 38.5397C23.4865 38.8189 23.5554 39.0944 23.6904 39.3388L23.6904 39.3388Z"
            fill="#EFF1F8" />
    </g>
    <path
        d="M24.27 77.0001C24.3367 77.0001 24.37 77.0334 24.37 77.1001V77.7401C24.37 77.8067 24.3367 77.8401 24.27 77.8401H22.35C22.3233 77.8401 22.31 77.8534 22.31 77.8801V83.9001C22.31 83.9667 22.2767 84.0001 22.21 84.0001H21.45C21.3833 84.0001 21.35 83.9667 21.35 83.9001V77.8801C21.35 77.8534 21.3367 77.8401 21.31 77.8401H19.48C19.4133 77.8401 19.38 77.8067 19.38 77.7401V77.1001C19.38 77.0334 19.4133 77.0001 19.48 77.0001H24.27ZM27.432 84.0901C26.9454 84.0901 26.5154 83.9901 26.142 83.7901C25.7687 83.5901 25.4787 83.3101 25.272 82.9501C25.0654 82.5834 24.962 82.1634 24.962 81.6901V79.3101C24.962 78.8367 25.0654 78.4201 25.272 78.0601C25.4787 77.7001 25.7687 77.4201 26.142 77.2201C26.5154 77.0201 26.9454 76.9201 27.432 76.9201C27.9254 76.9201 28.3587 77.0201 28.732 77.2201C29.1054 77.4201 29.3954 77.7001 29.602 78.0601C29.8087 78.4201 29.912 78.8367 29.912 79.3101V81.6901C29.912 82.1634 29.8087 82.5834 29.602 82.9501C29.3954 83.3101 29.1054 83.5901 28.732 83.7901C28.3587 83.9901 27.9254 84.0901 27.432 84.0901ZM27.432 83.2601C27.8854 83.2601 28.252 83.1201 28.532 82.8401C28.812 82.5601 28.952 82.1901 28.952 81.7301V79.3001C28.952 78.8334 28.812 78.4601 28.532 78.1801C28.252 77.8934 27.8854 77.7501 27.432 77.7501C26.9787 77.7501 26.612 77.8934 26.332 78.1801C26.0587 78.4601 25.922 78.8334 25.922 79.3001V81.7301C25.922 82.1901 26.0587 82.5601 26.332 82.8401C26.612 83.1201 26.9787 83.2601 27.432 83.2601ZM34.1127 76.9901C34.5194 76.9901 34.8761 77.0767 35.1827 77.2501C35.4961 77.4167 35.7361 77.6534 35.9027 77.9601C36.0761 78.2667 36.1627 78.6201 36.1627 79.0201C36.1627 79.4201 36.0761 79.7701 35.9027 80.0701C35.7294 80.3701 35.4827 80.6034 35.1627 80.7701C34.8494 80.9367 34.4861 81.0201 34.0727 81.0201H32.3127C32.2861 81.0201 32.2727 81.0334 32.2727 81.0601V83.9001C32.2727 83.9667 32.2394 84.0001 32.1727 84.0001H31.4127C31.3461 84.0001 31.3127 83.9667 31.3127 83.9001V77.0901C31.3127 77.0234 31.3461 76.9901 31.4127 76.9901H34.1127ZM33.9827 80.2401C34.3494 80.2401 34.6427 80.1301 34.8627 79.9101C35.0894 79.6901 35.2027 79.4001 35.2027 79.0401C35.2027 78.6734 35.0894 78.3801 34.8627 78.1601C34.6427 77.9334 34.3494 77.8201 33.9827 77.8201H32.3127C32.2861 77.8201 32.2727 77.8334 32.2727 77.8601V80.2001C32.2727 80.2267 32.2861 80.2401 32.3127 80.2401H33.9827Z"
        fill="#555777" />
    <defs>
        <clipPath id="clip0_3054_64860">
            <rect width="24" height="24" fill="white" transform="translate(16 49.0001) rotate(-90)" />
        </clipPath>
    </defs>
</svg>
    