<svg width="18" height="19" viewBox="0 0 18 19" fill="none" xmlns="http://www.w3.org/2000/svg">
    <g clip-path="url(#clip0_1012_15443)">
        <path fill-rule="evenodd" clip-rule="evenodd" d="M7.50572 12.1168C7.94789 12.4122 8.46775 12.5699 8.99955 12.5699C9.71259 12.5697 10.3964 12.2863 10.9006 11.7821C11.4048 11.2779 11.6881 10.5941 11.6884 9.8811C11.6884 9.3493 11.5307 8.82944 11.2352 8.38727C10.9398 7.9451 10.5198 7.60046 10.0285 7.39695C9.5372 7.19344 8.99656 7.1402 8.47498 7.24394C7.9534 7.34769 7.4743 7.60378 7.09827 7.97982C6.72223 8.35585 6.46614 8.83495 6.36239 9.35653C6.25864 9.87811 6.31189 10.4187 6.5154 10.9101C6.71891 11.4014 7.06355 11.8213 7.50572 12.1168ZM8.10325 8.53969C8.36855 8.36242 8.68047 8.26781 8.99955 8.26781C9.42723 8.2684 9.83724 8.43856 10.1397 8.74099C10.4421 9.04341 10.6122 9.45341 10.6128 9.8811C10.6128 10.2002 10.5182 10.5121 10.3409 10.7774C10.1637 11.0427 9.91172 11.2495 9.61693 11.3716C9.32213 11.4937 8.99776 11.5256 8.68481 11.4634C8.37186 11.4011 8.0844 11.2475 7.85878 11.0219C7.63315 10.7962 7.4795 10.5088 7.41725 10.1958C7.35501 9.88289 7.38695 9.55851 7.50906 9.26372C7.63117 8.96893 7.83795 8.71697 8.10325 8.53969Z" fill="#EFF1F8" />
        <path fill-rule="evenodd" clip-rule="evenodd" d="M10.8516 17.1304C10.9989 17.1669 11.1499 17.186 11.3016 17.1875C11.6059 17.1851 11.9046 17.1048 12.1692 16.9544L13.4094 16.2447C13.6281 16.1226 13.8196 15.9572 13.9725 15.7588C14.1253 15.5604 14.2363 15.333 14.2987 15.0905C14.3649 14.8501 14.3825 14.5989 14.3505 14.3517C14.3185 14.1044 14.2375 13.866 14.1124 13.6504C14.0135 13.5245 13.9484 13.3754 13.9232 13.2173C13.8981 13.0591 13.9138 12.8972 13.9688 12.7468C14.0723 12.6246 14.2048 12.5304 14.3542 12.4727C14.5036 12.4151 14.6651 12.3959 14.8238 12.4169C15.3274 12.416 15.8101 12.2155 16.1662 11.8594C16.5223 11.5033 16.7228 11.0206 16.7238 10.517V9.25696C16.7228 8.75336 16.5223 8.27065 16.1662 7.91455C15.8101 7.55845 15.3274 7.35797 14.8238 7.35702C14.6651 7.37806 14.5036 7.35888 14.3542 7.30124C14.2048 7.24361 14.0723 7.14936 13.9688 7.02716C13.9156 6.8765 13.9009 6.71493 13.9259 6.55713C13.951 6.39933 14.0151 6.25029 14.1124 6.12354C14.3632 5.68613 14.4301 5.16702 14.2984 4.6803C14.1667 4.19358 13.8471 3.77907 13.4099 3.52787L12.1764 2.8182C11.9797 2.70284 11.7621 2.62749 11.5362 2.59648C11.3102 2.56547 11.0804 2.5794 10.8598 2.63749C10.6393 2.69557 10.4324 2.79666 10.251 2.93494C10.0697 3.07322 9.91744 3.24597 9.80305 3.44327L9.7243 3.57827C9.30129 4.30954 8.72033 4.30954 8.29732 3.57827L8.21137 3.43472C7.97904 3.03961 7.59997 2.75234 7.15675 2.6355C6.71354 2.51867 6.24211 2.58176 5.84521 2.811L4.60453 3.52112C4.38583 3.6435 4.19428 3.80904 4.0415 4.0077C3.88873 4.20635 3.7779 4.43397 3.71575 4.67675C3.58569 5.16256 3.65265 5.68007 3.90206 6.11679C4.00154 6.24276 4.06709 6.39212 4.09245 6.55062C4.11782 6.70912 4.10216 6.87148 4.04696 7.02221C3.94348 7.14441 3.81096 7.23866 3.66156 7.29629C3.51216 7.35393 3.35068 7.37311 3.19194 7.35207C2.68833 7.35302 2.20563 7.5535 1.84952 7.9096C1.49342 8.2657 1.29294 8.74841 1.29199 9.25201V10.512C1.2927 11.0156 1.49289 11.4983 1.84873 11.8546C2.20457 12.2108 2.68706 12.4116 3.19059 12.4129C3.34933 12.3919 3.51081 12.411 3.66021 12.4687C3.80961 12.5263 3.94213 12.6205 4.04561 12.7428C4.09882 12.8934 4.11356 13.055 4.08849 13.2128C4.06342 13.3706 3.99934 13.5196 3.90206 13.6464C3.65149 14.0837 3.58474 14.6026 3.71645 15.0891C3.84816 15.5756 4.16756 15.9899 4.60453 16.2411L5.83936 16.949C6.03444 17.0664 6.25137 17.143 6.47697 17.1739C6.70256 17.2049 6.93209 17.1896 7.15159 17.129C7.37167 17.0715 7.57815 16.9709 7.75906 16.833C7.93998 16.6951 8.09173 16.5227 8.20551 16.3257L8.28427 16.1907C8.70728 15.4595 9.28824 15.4595 9.71125 16.1907L9.7972 16.3343C10.032 16.7264 10.4101 17.0119 10.8516 17.1304ZM9.97235 14.8644C9.68359 14.6689 9.34779 14.5543 8.99978 14.5324V14.5342C8.65236 14.558 8.31746 14.6736 8.02929 14.8691C7.74112 15.0646 7.50999 15.3331 7.35949 15.6471L7.28074 15.7821C7.18989 15.9342 7.04329 16.0448 6.87213 16.0904C6.78908 16.1126 6.70237 16.1178 6.61727 16.1055C6.53217 16.0932 6.45047 16.0637 6.37712 16.0188L5.13689 15.3087C4.94997 15.1971 4.81377 15.0172 4.75708 14.807C4.6997 14.5981 4.72736 14.3749 4.83403 14.1864C5.03122 13.8986 5.14842 13.5637 5.17365 13.2158C5.19887 12.8679 5.13121 12.5195 4.97758 12.2063C4.78478 11.9149 4.51754 11.6804 4.20356 11.527C3.88959 11.3737 3.54031 11.3071 3.19194 11.3342C2.97333 11.3341 2.7637 11.2472 2.60912 11.0926C2.45454 10.938 2.36764 10.7284 2.36752 10.5098V9.24976C2.36704 9.14141 2.38805 9.03403 2.42932 8.93384C2.47059 8.83366 2.53132 8.74264 2.60798 8.66606C2.68464 8.58949 2.77572 8.52886 2.87595 8.4877C2.97619 8.44653 3.08358 8.42565 3.19194 8.42624C3.54018 8.45415 3.88954 8.38842 4.20383 8.23587C4.51811 8.08332 4.78588 7.84949 4.97938 7.55862C5.13301 7.24545 5.20067 6.89709 5.17545 6.54918C5.15022 6.20127 5.03302 5.86631 4.83583 5.57857C4.78229 5.48491 4.74778 5.3816 4.73426 5.27457C4.72075 5.16753 4.7285 5.05889 4.75708 4.95486C4.81415 4.74328 4.95264 4.56289 5.14229 4.45309L6.38252 3.73488C6.53143 3.64976 6.70768 3.62612 6.87375 3.66899C7.03983 3.71185 7.18262 3.81783 7.27174 3.96438L7.35049 4.10794C7.50009 4.4229 7.73127 4.69208 8.02002 4.88754C8.30878 5.08299 8.64458 5.1976 8.99258 5.21946C9.34058 5.1976 9.67639 5.08299 9.96515 4.88754C10.2539 4.69208 10.4851 4.4229 10.6347 4.10794L10.7134 3.97293C10.7571 3.89798 10.8152 3.83238 10.8843 3.77991C10.9534 3.72743 11.0322 3.6891 11.1161 3.66711C11.2001 3.64512 11.2875 3.63991 11.3735 3.65177C11.4594 3.66363 11.5422 3.69233 11.6171 3.73623L12.8573 4.44589C13.0437 4.55699 13.1799 4.73603 13.2371 4.94541C13.2657 5.04944 13.2734 5.15808 13.2599 5.26512C13.2464 5.37215 13.2119 5.47546 13.1583 5.56912C12.9611 5.85686 12.8439 6.19182 12.8187 6.53973C12.7935 6.88764 12.8612 7.236 13.0148 7.54917C13.2081 7.83969 13.4755 8.07329 13.7894 8.22583C14.1032 8.37836 14.4521 8.44429 14.8 8.41679C15.0186 8.41691 15.2282 8.50381 15.3828 8.65839C15.5374 8.81297 15.6243 9.0226 15.6244 9.24121V10.5012C15.625 10.6097 15.6041 10.7171 15.5629 10.8174C15.5216 10.9177 15.4609 11.0089 15.3843 11.0855C15.3076 11.1622 15.2165 11.2229 15.1162 11.2641C15.0159 11.3053 14.9084 11.3263 14.8 11.3257C14.4521 11.2982 14.1032 11.3641 13.7894 11.5166C13.4755 11.6692 13.2081 11.9028 13.0148 12.1933C12.8612 12.5065 12.7935 12.8548 12.8187 13.2027C12.8439 13.5506 12.9611 13.8856 13.1583 14.1733C13.2119 14.267 13.2464 14.3703 13.2599 14.4773C13.2734 14.5844 13.2657 14.693 13.2371 14.7971C13.1796 15.0089 13.0404 15.1894 12.8501 15.2988L11.6098 16.0157C11.4601 16.1004 11.2832 16.1231 11.1169 16.0788C10.9507 16.0346 10.8084 15.9269 10.7206 15.779L10.6419 15.644C10.4923 15.329 10.2611 15.0598 9.97235 14.8644Z" fill="#EFF1F8" />
    </g>
    <defs>
        <clipPath id="clip0_1012_15443">
            <rect width="18" height="18" fill="white" transform="translate(0 0.882812)" />
        </clipPath>
    </defs>
</svg>
    