<svg width="18" height="19" viewBox="0 0 18 19" fill="none" xmlns="http://www.w3.org/2000/svg">
    <g clip-path="url(#clip0_1012_9826)">
        <path d="M5.83683 16.9522L4.60589 16.242C4.38862 16.1179 4.19799 15.9519 4.04514 15.7538C3.89229 15.5557 3.78003 15.3292 3.7151 15.0876C3.58416 14.6017 3.6515 14.0841 3.90231 13.6479C3.99915 13.5207 4.06302 13.3711 4.08776 13.2132C4.11251 13.0553 4.09755 12.8937 4.04426 12.743C3.94092 12.6214 3.80861 12.5279 3.65973 12.4705C3.51084 12.4132 3.3499 12.394 3.1917 12.4147C2.68789 12.4137 2.20538 12.2129 1.84913 11.8566C1.49289 11.5004 1.29209 11.0179 1.29102 10.514V9.25103C1.29209 8.74743 1.49282 8.26479 1.84913 7.90891C2.20545 7.55302 2.6881 7.35302 3.1917 7.35254C3.35012 7.37351 3.51119 7.3541 3.66017 7.29629C3.80914 7.23848 3.94145 7.14397 4.04426 7.02163C4.09944 6.87154 4.11521 6.70982 4.0904 6.55184C4.06559 6.39386 4.00084 6.24492 3.90231 6.11897C3.6519 5.68179 3.58459 5.16327 3.7151 4.67665C3.77767 4.43404 3.88897 4.20656 4.04206 4.00822C4.19515 3.80988 4.38705 3.64505 4.60589 3.52305L5.8465 2.81244C6.24327 2.58368 6.71416 2.52063 7.15698 2.63753C7.5998 2.75443 7.97866 3.04169 8.21082 3.43648L8.29739 3.58062C8.7195 4.31234 9.30221 4.31234 9.72477 3.58062L9.80387 3.44571C9.91825 3.24858 10.0704 3.07583 10.2517 2.93769C10.433 2.79954 10.6399 2.69861 10.8603 2.64061C11.0808 2.58261 11.3105 2.56871 11.5362 2.59974C11.762 2.63077 11.9791 2.70592 12.1757 2.82123L13.4092 3.5314C13.6263 3.65574 13.8168 3.82157 13.9696 4.01965C14.1223 4.21773 14.2345 4.44435 14.2996 4.68588C14.4304 5.17168 14.3632 5.68963 14.1128 6.126C14.0156 6.25262 13.9516 6.40123 13.9265 6.55887C13.9014 6.71651 13.916 6.87814 13.9691 7.02866C14.0727 7.1507 14.2051 7.24453 14.3545 7.302C14.5039 7.35948 14.6656 7.37852 14.8243 7.35738C15.3281 7.35845 15.8111 7.55925 16.1673 7.9155C16.5236 8.27174 16.7239 8.75469 16.725 9.2585V10.5184C16.7239 11.0223 16.5236 11.5052 16.1673 11.8614C15.8111 12.2177 15.3281 12.4181 14.8243 12.4191C14.6656 12.398 14.5039 12.417 14.3545 12.4745C14.2051 12.532 14.0727 12.6262 13.9691 12.7483C13.9144 12.8989 13.8987 13.0607 13.9238 13.219C13.949 13.3772 14.0142 13.5265 14.1128 13.6527C14.2385 13.8681 14.3198 14.1063 14.3519 14.3536C14.384 14.601 14.3662 14.8525 14.2996 15.0928C14.2374 15.3356 14.1261 15.5632 13.9731 15.7617C13.82 15.9601 13.6282 16.125 13.4092 16.2469L12.1704 16.957C11.9052 17.1066 11.6064 17.1857 11.302 17.1873C11.1503 17.1858 10.9992 17.1665 10.852 17.1297C10.4104 17.0113 10.0324 16.7256 9.79816 16.333L9.71203 16.1893C9.28767 15.4594 8.70902 15.4594 8.28421 16.1893L8.2051 16.3242C8.09146 16.5213 7.93954 16.6942 7.75861 16.8322C7.57768 16.9702 7.371 17.0705 7.15083 17.128C7.00403 17.1672 6.85276 17.1871 6.70082 17.1873C6.39669 17.1895 6.09783 17.1083 5.83683 16.9522ZM7.38682 9.8821C7.38718 10.3098 7.5572 10.7197 7.85968 11.0221C8.16217 11.3245 8.57237 11.4947 9.00009 11.4949C9.42777 11.4947 9.83809 11.3245 10.1405 11.0221C10.4429 10.7197 10.6127 10.3098 10.6129 9.8821C10.6125 9.45445 10.4424 9.04456 10.1401 8.74213C9.83771 8.43969 9.42774 8.26942 9.00009 8.26883C8.57253 8.2693 8.16255 8.43944 7.86012 8.74169C7.5577 9.04394 7.38754 9.45365 7.38682 9.88122V9.8821Z" fill="#EFF1F8" />
    </g>
    <defs>
        <clipPath id="clip0_1012_9826">
            <rect width="18" height="18" fill="white" transform="translate(0 0.882812)" />
        </clipPath>
    </defs>
</svg>
    