<svg width="18" height="19" viewBox="0 0 18 19" fill="none" xmlns="http://www.w3.org/2000/svg">
    <g clip-path="url(#clip0_934_50321)">
        <path d="M9.09679 17.2553H8.89991C7.81125 17.2567 6.74894 16.921 5.85889 16.2941C4.96617 15.6702 4.28904 14.785 3.92047 13.7602C3.76802 13.3163 3.67968 12.8529 3.65811 12.384V12.3769C3.6166 12.1836 3.61653 11.9837 3.65811 11.7904C3.6997 11.5972 3.7816 11.4149 3.89893 11.2558C4.1127 10.9928 4.4154 10.8168 4.74972 10.7609L5.4836 10.7217H12.5131L13.247 10.7609C13.5815 10.8162 13.884 10.9923 14.0973 11.2558C14.2149 11.415 14.2976 11.5974 14.3395 11.7908C14.3814 11.9842 14.3815 12.1842 14.3403 12.3778V12.384C14.319 12.8529 14.2308 13.3163 14.0784 13.7602C13.7092 14.7847 13.0322 15.6699 12.14 16.2945C11.2491 16.9214 10.1861 17.257 9.09679 17.2553ZM8.95616 8.31876C8.52459 8.32006 8.09707 8.23554 7.69845 8.07014C7.29982 7.90474 6.93797 7.66171 6.63409 7.35526C6.32749 7.05116 6.08465 6.68919 5.9191 6.29035C5.75355 5.89151 5.66879 5.46381 5.66993 5.03198C5.66881 4.59995 5.75356 4.172 5.9191 3.77295C6.08464 3.37389 6.32749 3.01165 6.63409 2.70727C6.93797 2.40088 7.29981 2.15797 7.69845 1.99272C8.09708 1.82747 8.52463 1.74311 8.95616 1.74465C9.38806 1.74335 9.81615 1.82782 10.2152 1.99305C10.6142 2.15828 10.9763 2.40104 11.2809 2.70727C11.5868 3.01204 11.8293 3.37439 11.9945 3.77339C12.1597 4.17238 12.2442 4.60013 12.2433 5.03198C12.2442 5.46362 12.1598 5.89114 11.9945 6.28991C11.8293 6.68869 11.5868 7.05075 11.2809 7.35526C10.9765 7.66136 10.6148 7.90415 10.2161 8.06959C9.81738 8.23503 9.38958 8.31989 8.95792 8.3192L8.95616 8.31876Z" fill="#EFF1F8" />
    </g>
    <defs>
        <clipPath id="clip0_934_50321">
            <rect width="18" height="18" fill="white" transform="translate(0 0.5)" />
        </clipPath>
    </defs>
</svg>
    