<svg width="18" height="19" viewBox="0 0 18 19" fill="none" xmlns="http://www.w3.org/2000/svg">
    <g clip-path="url(#clip0_934_50289)">
        <path d="M9.11579 17.2769H8.91935C7.8275 17.2783 6.76185 16.9416 5.86911 16.313C4.97401 15.6872 4.29471 14.7995 3.92497 13.7718C3.77169 13.3268 3.68319 12.862 3.66217 12.3917V12.3845C3.62033 12.1905 3.62051 11.9899 3.66217 11.7959C3.70384 11.602 3.78608 11.4191 3.90387 11.2595C4.11895 10.9957 4.42321 10.8196 4.75905 10.7644L5.49513 10.7249H12.5457L13.2809 10.7644C13.6169 10.8193 13.9213 10.9954 14.1361 11.2595C14.254 11.4191 14.3367 11.6019 14.3787 11.7958C14.4206 11.9898 14.421 12.1904 14.3796 12.3845V12.3907C14.3582 12.861 14.2697 13.3258 14.1168 13.771C13.7468 14.7986 13.0678 15.6865 12.1731 16.313C11.2781 16.9426 10.21 17.2794 9.11579 17.2769ZM6.29758 11.7468L5.7298 11.7739C5.47774 11.8087 5.24537 11.9292 5.0715 12.115C4.98209 12.2206 4.9184 12.3457 4.88605 12.4803C4.8537 12.6148 4.85355 12.7551 4.88517 12.8898V12.8935C4.9012 13.2189 4.96923 13.5396 5.08732 13.8434C5.42167 14.5795 5.9656 15.2008 6.6509 15.6297C7.33619 16.0587 8.13268 16.2763 8.94089 16.2554H9.09382C9.9021 16.2767 10.6989 16.0593 11.3842 15.6303C12.0696 15.2013 12.6134 14.5797 12.9474 13.8434C13.065 13.5395 13.1329 13.2189 13.1491 12.8935V12.889C13.1806 12.7543 13.1804 12.6141 13.1478 12.4796C13.1152 12.3452 13.0512 12.2203 12.9614 12.115C12.788 11.9286 12.5554 11.808 12.3031 11.7739L11.7354 11.7468H6.29758ZM8.97472 8.3147C8.54173 8.31583 8.11259 8.23094 7.71261 8.06509C7.31264 7.89925 6.9499 7.65575 6.64474 7.34856C6.33766 7.04336 6.09376 6.68022 5.928 6.28025C5.76223 5.88028 5.67767 5.45143 5.67883 5.01847C5.67769 4.58532 5.76224 4.15622 5.928 3.75604C6.09376 3.35585 6.33765 2.99244 6.64474 2.68696C6.94988 2.37981 7.31262 2.13634 7.71261 1.97065C8.11261 1.80495 8.54177 1.72031 8.97472 1.7217C9.40794 1.72032 9.83699 1.80496 10.2373 1.97065C10.6376 2.13634 11.001 2.37979 11.3065 2.68696C11.6133 2.99257 11.8567 3.35598 12.0223 3.75615C12.188 4.15631 12.273 4.58537 12.2719 5.01847C12.273 5.45138 12.188 5.8802 12.0223 6.28014C11.8567 6.68009 11.6133 7.04323 11.3065 7.34856C11.0009 7.65575 10.6375 7.89926 10.2373 8.06509C9.83701 8.23093 9.40798 8.31579 8.97472 8.3147ZM8.97472 2.73464C8.37009 2.73547 7.79027 2.97608 7.36281 3.4037C6.93535 3.83133 6.695 4.41109 6.6944 5.01573C6.69512 5.62032 6.93582 6.19993 7.36325 6.62753C7.79068 7.05513 8.37013 7.29587 8.97472 7.29682C9.57952 7.2961 10.1594 7.05547 10.5871 6.62786C11.0148 6.20025 11.2551 5.62052 11.2559 5.01573C11.2545 4.41132 11.0138 3.83215 10.5862 3.40502C10.1586 2.9779 9.57913 2.73766 8.97472 2.73694V2.73464Z" fill="#EFF1F8" />
    </g>
    <defs>
        <clipPath id="clip0_934_50289">
            <rect width="18" height="18" fill="white" transform="translate(0 0.5)" />
        </clipPath>
    </defs>
</svg>
    