<svg width="18" height="19" viewBox="0 0 18 19" fill="none" xmlns="http://www.w3.org/2000/svg">
    <g clip-path="url(#clip0_935_56670)">
        <path d="M8.99947 10.763C8.8565 10.7618 8.71977 10.7043 8.61875 10.6031C8.51773 10.502 8.46053 10.3651 8.45947 10.2221V6.61314C8.46076 6.47033 8.51807 6.33373 8.61906 6.23273C8.72005 6.13174 8.85666 6.07444 8.99947 6.07314C9.14229 6.07444 9.27889 6.13174 9.37988 6.23273C9.48087 6.33373 9.53818 6.47033 9.53947 6.61314V10.2221C9.53842 10.3651 9.48121 10.502 9.3802 10.6031C9.27918 10.7043 9.14244 10.7618 8.99947 10.763Z" fill="#EFF1F8" />
        <path d="M8.72437 13.0505C8.81107 13.0875 8.90418 13.107 8.99842 13.1081C9.09333 13.107 9.18707 13.0871 9.27427 13.0496C9.36166 13.013 9.44217 12.9617 9.51232 12.898C9.57758 12.829 9.62905 12.7482 9.66397 12.6599C9.70092 12.5732 9.72049 12.4801 9.72157 12.3859C9.72049 12.2916 9.70092 12.1985 9.66397 12.1118C9.62732 12.0244 9.57603 11.9439 9.51232 11.8738C9.44217 11.81 9.36166 11.7588 9.27427 11.7221C9.09858 11.6497 8.9014 11.6497 8.72572 11.7221C8.63832 11.7588 8.55782 11.81 8.48767 11.8738C8.42395 11.9439 8.37267 12.0244 8.33602 12.1118C8.29878 12.1992 8.2792 12.2931 8.27842 12.3881C8.28002 12.481 8.29958 12.5727 8.33602 12.6581C8.37022 12.7473 8.42125 12.829 8.48632 12.8989C8.55647 12.9626 8.63697 13.0139 8.72437 13.0505Z" fill="#EFF1F8" />
        <path fill-rule="evenodd" clip-rule="evenodd" d="M9.00031 17.257C7.46619 17.257 5.96652 16.802 4.69094 15.9497C3.41537 15.0974 2.42118 13.886 1.8341 12.4686C1.24701 11.0513 1.09341 9.4917 1.3927 7.98706C1.69199 6.48242 2.43074 5.10031 3.51553 4.01553C4.60031 2.93074 5.98242 2.19199 7.48706 1.8927C8.9917 1.59341 10.5513 1.74701 11.9686 2.3341C13.386 2.92118 14.5974 3.91537 15.4497 5.19094C16.302 6.46652 16.757 7.96619 16.757 9.50031C16.7552 11.5569 15.9374 13.5288 14.4831 14.9831C13.0288 16.4374 11.0569 17.2552 9.00031 17.257ZM9.00031 2.82591C7.68023 2.82591 6.38981 3.21735 5.29221 3.95075C4.19461 4.68414 3.33913 5.72654 2.83396 6.94612C2.32879 8.16571 2.19662 9.50771 2.45415 10.8024C2.71169 12.0971 3.34736 13.2864 4.28079 14.2198C5.21422 15.1533 6.40349 15.7889 7.6982 16.0465C8.9929 16.304 10.3349 16.1718 11.5545 15.6666C12.7741 15.1615 13.8165 14.306 14.5499 13.2084C15.2833 12.1108 15.6747 10.8204 15.6747 9.50031C15.6726 7.7308 14.9687 6.03439 13.7175 4.78316C12.4662 3.53193 10.7698 2.82805 9.00031 2.82591Z" fill="#EFF1F8" />
    </g>
    <defs>
        <clipPath id="clip0_935_56670">
            <rect width="18" height="18" fill="white" transform="translate(0 0.5)" />
        </clipPath>
    </defs>
</svg>
    