<svg width="18" height="19" viewBox="0 0 18 19" fill="none" xmlns="http://www.w3.org/2000/svg">
    <g clip-path="url(#clip0_935_56751)">
        <path d="M8.99896 1.77295C7.47081 1.77295 5.97697 2.2261 4.70635 3.0751C3.43573 3.9241 2.44541 5.13081 1.86061 6.54265C1.27581 7.95448 1.1228 9.50802 1.42093 11.0068C1.71906 12.5056 2.45493 13.8823 3.5355 14.9629C4.61607 16.0435 5.99281 16.7794 7.4916 17.0775C8.99039 17.3756 10.5439 17.2226 11.9558 16.6378C13.3676 16.053 14.5743 15.0627 15.4233 13.7921C16.2723 12.5214 16.7255 11.0276 16.7255 9.49945C16.7219 7.45135 15.9067 5.48816 14.4585 4.03993C13.0103 2.5917 11.0471 1.77652 8.99896 1.77295ZM8.41936 6.40795C8.41936 6.25423 8.48043 6.10681 8.58913 5.99811C8.69782 5.88941 8.84525 5.82835 8.99896 5.82835C9.15268 5.82835 9.30011 5.88941 9.4088 5.99811C9.5175 6.10681 9.57856 6.25423 9.57856 6.40795V10.2712C9.57856 10.4249 9.5175 10.5723 9.4088 10.681C9.30011 10.7897 9.15268 10.8508 8.99896 10.8508C8.84525 10.8508 8.69782 10.7897 8.58913 10.681C8.48043 10.5723 8.41936 10.4249 8.41936 10.2712V6.40795ZM9.70996 12.8839C9.67258 12.9785 9.61744 13.0651 9.54751 13.139C9.47233 13.2073 9.38604 13.2623 9.29237 13.3015C9.20016 13.3419 9.10056 13.3628 8.99987 13.3628C8.89917 13.3628 8.79957 13.3419 8.70736 13.3015C8.61369 13.2623 8.5274 13.2073 8.45221 13.139C8.38229 13.0651 8.32715 12.9785 8.28976 12.8839C8.24931 12.7917 8.22843 12.6921 8.22843 12.5914C8.22843 12.4907 8.24931 12.3911 8.28976 12.2989C8.32454 12.2031 8.37992 12.1161 8.452 12.044C8.52408 11.9719 8.6111 11.9165 8.70691 11.8817C8.89438 11.8051 9.10445 11.8051 9.29191 11.8817C9.38773 11.9165 9.47475 11.9719 9.54683 12.044C9.61891 12.1161 9.67429 12.2031 9.70906 12.2989C9.74952 12.3911 9.7704 12.4907 9.7704 12.5914C9.7704 12.6921 9.74952 12.7917 9.70906 12.8839H9.70996Z" fill="#EFF1F8" />
    </g>
    <defs>
        <clipPath id="clip0_935_56751">
            <rect width="18" height="18" fill="white" transform="translate(0 0.5)" />
        </clipPath>
    </defs>
</svg>
    