<svg width="16" height="16" viewBox="0 0 16 16" fill="none" xmlns="http://www.w3.org/2000/svg">
<g clip-path="url(#clip0_30602_10779)">
<path d="M7.99632 14.8937H7.92071C7.306 14.871 6.71672 14.6425 6.24743 14.2448C5.75941 13.8245 5.31562 13.3554 4.92298 12.8448C4.90338 12.8212 4.88296 12.7952 4.86216 12.772L4.81616 12.7148C4.79776 12.694 4.77937 12.6704 4.76057 12.6496L4.73696 12.6207C4.67455 12.5531 4.60294 12.48 4.52374 12.3991C3.80021 11.6889 3.17224 10.8875 2.65565 10.015C2.15425 9.16811 1.88518 8.20387 1.87561 7.21969C1.86427 6.42093 2.01178 5.62788 2.30957 4.88661C2.60735 4.14535 3.04947 3.47068 3.61024 2.90175C4.17102 2.33282 4.83927 1.88098 5.57616 1.57253C6.31305 1.26408 7.10388 1.10516 7.90272 1.10498H8.10072C8.88805 1.10502 9.6678 1.259 10.3961 1.55823C11.5076 2.01659 12.4568 2.79678 13.1216 3.79862C13.7864 4.80046 14.1365 5.97816 14.127 7.18048V7.22047C14.117 8.20442 13.8484 9.16843 13.3482 10.0158C12.8309 10.8877 12.2019 11.6882 11.4773 12.3971C11.3973 12.4804 11.3313 12.5507 11.2689 12.6187C11.2065 12.6867 11.1489 12.7596 11.0917 12.83L11.0813 12.8456C10.6872 13.3555 10.243 13.8245 9.7552 14.2456C9.28674 14.6438 8.69721 14.8715 8.08273 14.8917H8.00712L7.99632 14.8937ZM8.07191 14.0156C8.59967 13.9966 9.10515 13.798 9.5048 13.4528C9.92219 13.0832 10.3018 12.673 10.6381 12.2283C10.6981 12.1555 10.75 12.0903 10.7981 12.0283C10.8461 11.9663 10.9101 11.9083 10.9777 11.8383C11.5993 11.2176 12.1372 10.5183 12.5778 9.7582C13.0083 9.01646 13.2391 8.1757 13.2474 7.31808V7.2841C13.2562 5.87282 12.7075 4.51514 11.7205 3.50632C11.2473 3.0221 10.6819 2.63749 10.0576 2.37526C9.43341 2.11302 8.763 1.97846 8.08593 1.97944H7.91671C7.23625 1.97788 6.56246 2.11341 5.93553 2.37794C5.3086 2.64248 4.7414 3.03058 4.26774 3.51911C3.7783 4.02213 3.39272 4.61662 3.13307 5.26866C2.87342 5.92071 2.74477 6.61753 2.75446 7.3193C2.76315 8.17665 2.99327 9.0172 3.42249 9.75942C3.86345 10.5192 4.40131 11.2184 5.02257 11.8395C5.07737 11.8967 5.14258 11.9647 5.20458 12.0351C5.25779 12.0975 5.311 12.1627 5.3646 12.2279C5.70018 12.6726 6.08 13.082 6.49825 13.45C6.89745 13.7963 7.40301 13.9957 7.93111 14.0152H8.07191V14.0156ZM6.10101 8.91938C5.71363 8.53128 5.44973 8.03722 5.34253 7.49944C5.23533 6.96166 5.28963 6.40419 5.49859 5.89721C5.78048 5.21685 6.32085 4.67621 7.00106 4.39396C7.50813 4.18383 8.06609 4.12866 8.60448 4.23546C9.14288 4.34225 9.63755 4.60622 10.026 4.99399C10.2827 5.25259 10.4865 5.55868 10.626 5.89521C10.8002 6.31673 10.8678 6.77468 10.8228 7.22853C10.7778 7.68238 10.6217 8.11814 10.3682 8.49729C10.1148 8.87644 9.77178 9.18728 9.36959 9.40232C8.9674 9.61736 8.51839 9.72999 8.06232 9.73022C7.69745 9.73214 7.33589 9.66123 6.99876 9.52166C6.66164 9.38209 6.35576 9.17666 6.09904 8.91738L6.10101 8.91938ZM6.14103 6.95928C6.1402 7.40445 6.29379 7.83612 6.57562 8.18072C6.85746 8.52532 7.2501 8.76151 7.68659 8.84902C8.12308 8.93653 8.57641 8.86996 8.9693 8.66063C9.36219 8.4513 9.67031 8.11215 9.84114 7.70106C10.012 7.28997 10.035 6.83235 9.90614 6.40622C9.77732 5.98009 9.50469 5.61185 9.13474 5.36423C8.76478 5.11661 8.32041 5.00493 7.87735 5.04829C7.43429 5.09166 7.01997 5.28738 6.70505 5.60203C6.34487 5.96201 6.14207 6.45005 6.14103 6.95928Z" fill="#F2F2F8"/>
</g>
<defs>
<clipPath id="clip0_30602_10779">
<rect width="16" height="16" fill="white"/>
</clipPath>
</defs>
</svg>
