<svg width="18" height="18" viewBox="0 0 18 18" fill="none" xmlns="http://www.w3.org/2000/svg">
    <g clip-path="url(#clip0_930_33204)">
        <path d="M7.44295 12.7681C7.31651 12.7167 7.20183 12.6401 7.10587 12.5431L4.2361 9.66296C4.20595 9.63308 4.17761 9.60124 4.15172 9.5676L4.15524 9.56441C4.07197 9.46628 4.02685 9.34164 4.02735 9.21294C4.02729 9.14112 4.0412 9.07001 4.06866 9.00364C4.09612 8.93728 4.13653 8.87699 4.18732 8.8262C4.2381 8.77542 4.2985 8.73511 4.36486 8.70766C4.43123 8.6802 4.50223 8.66607 4.57405 8.66613C4.66284 8.66635 4.75009 8.68832 4.82851 8.72996C4.90693 8.7716 4.97416 8.83166 5.02408 8.90509L7.8209 11.7011L15.7029 3.8185C15.7526 3.74269 15.8208 3.68052 15.9006 3.63754C15.9805 3.59456 16.0697 3.57219 16.1604 3.57239C16.2322 3.57239 16.3033 3.58655 16.3696 3.61403C16.4359 3.64151 16.4959 3.6818 16.5467 3.73258C16.5974 3.78336 16.6379 3.84357 16.6653 3.90991C16.6928 3.97624 16.7067 4.04731 16.7066 4.1191C16.7067 4.20656 16.6857 4.29279 16.6456 4.37048C16.6054 4.44817 16.5473 4.51513 16.4759 4.5656L8.53329 12.5431C8.43768 12.6401 8.32327 12.7167 8.19709 12.7681C8.07702 12.8162 7.94891 12.8408 7.81958 12.8406C7.69053 12.8409 7.56268 12.8162 7.44295 12.7681Z" fill="#EFF1F8" />
        <path d="M9.40394 15.3842H5.90396C5.53246 15.3858 5.16089 15.3642 4.79209 15.3194C4.62063 15.2973 4.45475 15.2699 4.29724 15.2371C4.13974 15.2042 3.98763 15.165 3.84722 15.1209C3.70694 15.0781 3.56905 15.0277 3.43411 14.9702C3.30616 14.9156 3.18154 14.8533 3.061 14.7839C2.94504 14.7168 2.8333 14.6426 2.72656 14.5616C2.62209 14.482 2.52294 14.3955 2.42991 14.3027C2.33745 14.2095 2.25138 14.1105 2.1715 14.0062C2.09076 13.8995 2.01673 13.7879 1.95001 13.6719C1.88088 13.5512 1.81878 13.4266 1.76411 13.2988C1.70644 13.1639 1.65586 13.0262 1.61249 12.8861C1.56749 12.743 1.52977 12.5909 1.49647 12.4334C1.46317 12.2759 1.43633 12.1098 1.41473 11.9384C1.36975 11.5694 1.34816 11.1981 1.34968 10.8264V7.30004C1.34817 6.92837 1.36975 6.55689 1.41473 6.18795C1.43633 6.01784 1.46362 5.85185 1.49647 5.69299C1.52932 5.53413 1.56839 5.38378 1.61249 5.24022C1.65579 5.1001 1.70637 4.96236 1.76411 4.82755C1.8186 4.69962 1.8807 4.5751 1.95001 4.45455C2.01669 4.33853 2.09072 4.22678 2.1715 4.12011C2.25139 4.01601 2.33747 3.91713 2.42991 3.82401C2.52292 3.73127 2.62207 3.64485 2.72656 3.56527C2.83319 3.48415 2.94495 3.40984 3.061 3.3429C3.18161 3.2737 3.30623 3.21171 3.43411 3.15711C3.56905 3.09956 3.70694 3.04925 3.84722 3.00637C3.98943 2.96137 4.14199 2.92309 4.29724 2.89024C4.4525 2.85738 4.61928 2.82944 4.79209 2.80783C5.1609 2.7631 5.53246 2.74155 5.90396 2.74312H9.43075C9.73632 2.74312 10.0274 2.75572 10.297 2.78092C10.5554 2.80413 10.8122 2.84254 11.066 2.89606C11.2947 2.94446 11.5195 3.00978 11.7384 3.09141C11.9395 3.16648 12.1336 3.25938 12.3181 3.36904C12.4929 3.4733 12.6569 3.59462 12.8077 3.73128C12.9564 3.86706 13.0904 4.01787 13.208 4.1813C13.2697 4.26569 13.3266 4.35342 13.3786 4.44411C13.4543 4.54151 13.4954 4.66141 13.4955 4.78481C13.4955 4.93269 13.437 5.07457 13.3324 5.17913C13.2278 5.2837 13.0861 5.3424 12.9382 5.3424C12.8173 5.34244 12.6995 5.30321 12.6029 5.23055C12.5063 5.1579 12.436 5.05576 12.4025 4.93962C12.2524 4.69234 12.0524 4.4793 11.8149 4.31414C11.2722 3.93432 10.4922 3.75743 9.36263 3.75743H5.97296C5.41698 3.74402 4.86179 3.80744 4.32317 3.94597C3.91156 4.0504 3.535 4.26189 3.23152 4.55892C2.93779 4.86992 2.72993 5.2518 2.62812 5.66728C2.49162 6.21479 2.42921 6.77823 2.44266 7.34234V10.7828C2.42925 11.3467 2.49166 11.9099 2.62812 12.4573C2.72995 12.8728 2.93781 13.2546 3.23152 13.5656C3.53506 13.8627 3.91159 14.0743 4.32317 14.179C4.8618 14.3175 5.41698 14.3809 5.97296 14.3676H9.36263C9.91892 14.381 10.4744 14.3176 11.0133 14.179C11.4248 14.074 11.8012 13.8624 12.105 13.5656C12.3988 13.2546 12.6074 12.8728 12.7097 12.4573C12.8453 11.9098 12.907 11.3467 12.8938 10.7828V9.04739C12.8962 8.90415 12.9551 8.76762 13.0573 8.66725C13.1595 8.56687 13.2968 8.51076 13.4401 8.51101C13.5119 8.51095 13.5834 8.52508 13.6497 8.55254C13.7161 8.58001 13.7761 8.6203 13.8268 8.67109C13.8776 8.72188 13.9181 8.78217 13.9455 8.84853C13.9729 8.91489 13.9869 8.98603 13.9868 9.05783C13.9877 9.07132 13.9877 9.08477 13.9868 9.09826V10.8259C13.9883 11.1976 13.9667 11.5689 13.9226 11.9379C13.8997 12.1089 13.8733 12.275 13.8396 12.433C13.8058 12.591 13.7685 12.7421 13.724 12.8857C13.681 13.0258 13.6305 13.1636 13.5728 13.2983C13.5186 13.4264 13.4565 13.551 13.3869 13.6714C13.32 13.7873 13.246 13.899 13.1654 14.0058C13.0856 14.1103 12.9988 14.2094 12.9057 14.3023C12.8131 14.3952 12.7142 14.4817 12.6099 14.5612C12.5034 14.6425 12.3917 14.7167 12.2755 14.7834C12.1552 14.8527 12.0313 14.915 11.9037 14.9698C11.7687 15.0271 11.6303 15.0774 11.4901 15.1205C11.347 15.1655 11.1945 15.2038 11.0375 15.2366C10.8804 15.2695 10.715 15.2969 10.5426 15.3189C10.1738 15.3637 9.8027 15.3854 9.43119 15.3837L9.40394 15.3842Z" fill="#EFF1F8" />
    </g>
    <defs>
        <clipPath id="clip0_930_33204">
            <rect width="18" height="18" fill="white" />
        </clipPath>
    </defs>
</svg>
    