<svg width="24" height="24" viewBox="0 0 24 24" fill="none" xmlns="http://www.w3.org/2000/svg">
<path d="M10.6557 18.7131C9.42072 18.0003 8.73798 16.5645 8.73798 14.6769L8.73798 12.8974L2.69734 12.8974C2.66202 12.9016 2.62647 12.9037 2.59091 12.9036C2.47363 12.9039 2.35746 12.881 2.24904 12.8363C2.14061 12.7916 2.04205 12.726 1.95903 12.6431C1.87602 12.5603 1.81019 12.4619 1.76526 12.3536C1.72034 12.2452 1.69723 12.1291 1.69727 12.0118C1.69727 11.5178 2.09833 11.1056 2.59221 11.1056C2.61667 11.1056 2.64082 11.1066 2.66467 11.1085H8.73798V9.31531C8.73798 7.42776 9.42072 5.99193 10.6557 5.2791C11.9008 4.56613 13.4772 4.69669 15.1137 5.64055L19.7624 8.32137C21.399 9.26509 22.3026 10.5704 22.3026 11.996C22.3026 13.4217 21.399 14.7271 19.7624 15.681L15.1137 18.3617C14.18 18.9039 13.2562 19.175 12.4128 19.175C11.7802 19.175 11.188 19.0244 10.6557 18.7131ZM11.5933 6.82756C10.874 7.2399 10.4809 8.17008 10.4809 9.43595L10.4809 14.5569C10.4809 15.8226 10.874 16.7529 11.5933 17.1653C12.3127 17.5776 13.3099 17.4529 14.4128 16.82L18.8529 14.2595C19.9555 13.6267 20.5598 12.8211 20.5598 11.9964C20.5598 11.1718 19.9554 10.3662 18.8529 9.73326L14.4128 7.17281C13.7415 6.77956 13.1087 6.58782 12.5523 6.58782C12.2172 6.58284 11.8866 6.66547 11.5933 6.82753L11.5933 6.82756Z" fill="#E5E9F0"/>
</svg>
