<svg width="24" height="24" viewBox="0 0 24 24" fill="none" xmlns="http://www.w3.org/2000/svg">
    <path d="M10.6538 18.7125C9.41876 17.9997 8.73603 16.5639 8.73603 14.6763L8.73603 12.8968L2.69539 12.8968C2.66007 12.901 2.62452 12.903 2.58896 12.903C2.47168 12.9033 2.35551 12.8804 2.24708 12.8357C2.13865 12.791 2.04009 12.7254 1.95708 12.6425C1.87406 12.5597 1.80823 12.4613 1.76331 12.3529C1.71839 12.2446 1.69528 12.1285 1.69531 12.0112C1.69531 11.5172 2.09638 11.105 2.59026 11.105C2.61472 11.105 2.63887 11.1059 2.66272 11.1079H8.73603V9.3147C8.73603 7.42715 9.41876 5.99132 10.6538 5.27849C11.8988 4.56552 13.4752 4.69608 15.1117 5.63994L19.7604 8.32076C21.3971 9.26448 22.3006 10.5697 22.3006 11.9954C22.3006 13.4211 21.397 14.7265 19.7604 15.6803L15.1117 18.361C14.1781 18.9032 13.2542 19.1744 12.4108 19.1744C11.7783 19.1744 11.186 19.0238 10.6538 18.7125ZM11.5914 6.82695C10.8721 7.23929 10.479 8.16947 10.479 9.43534L10.479 14.5563C10.479 15.822 10.8721 16.7523 11.5914 17.1647C12.3107 17.577 13.308 17.4523 14.4108 16.8194L18.8509 14.2589C19.9535 13.6261 20.5578 12.8205 20.5578 11.9958C20.5578 11.1712 19.9535 10.3656 18.8509 9.73265L14.4108 7.1722C13.7396 6.77895 13.1068 6.58721 12.5503 6.58721C12.2152 6.58223 11.8846 6.66486 11.5913 6.82692L11.5914 6.82695Z" fill="#F2F2F8" />
</svg>
    