<svg width="6" height="6" viewBox="0 0 6 6" fill="none" xmlns="http://www.w3.org/2000/svg">
    <g clip-path="url(#clip0_1983_91388)">
        <path d="M2.99933 5.5752C2.48994 5.5752 1.992 5.42414 1.56846 5.14115C1.14492 4.85815 0.814811 4.45591 0.619878 3.9853C0.424944 3.51469 0.373941 2.99684 0.473317 2.49724C0.572693 1.99764 0.817986 1.53873 1.17818 1.17854C1.53837 0.818351 1.99728 0.573059 2.49687 0.473683C2.99647 0.374307 3.51432 0.42531 3.98493 0.620243C4.45554 0.815177 4.85778 1.14529 5.14078 1.56882C5.42378 1.99236 5.57483 2.49031 5.57483 2.9997C5.57364 3.68239 5.30191 4.33679 4.81917 4.81953C4.33643 5.30228 3.68203 5.57401 2.99933 5.5752ZM2.80613 4.0302C2.80613 4.08144 2.82648 4.13058 2.86272 4.16681C2.89895 4.20304 2.94809 4.2234 2.99933 4.2234C3.05057 4.2234 3.09971 4.20304 3.13594 4.16681C3.17217 4.13058 3.19253 4.08144 3.19253 4.0302V2.74245C3.19253 2.69121 3.17217 2.64206 3.13594 2.60583C3.09971 2.5696 3.05057 2.54925 2.99933 2.54925C2.94809 2.54925 2.89895 2.5696 2.86272 2.60583C2.82648 2.64206 2.80613 2.69121 2.80613 2.74245V4.0302ZM3.23633 1.87155C3.22387 1.84 3.20549 1.81113 3.18218 1.7865C3.15712 1.76374 3.12835 1.74542 3.09713 1.73235C3.06639 1.71886 3.03319 1.7119 2.99963 1.7119C2.96607 1.7119 2.93287 1.71886 2.90213 1.73235C2.8709 1.74542 2.84214 1.76374 2.81708 1.7865C2.79377 1.81113 2.77539 1.84 2.76293 1.87155C2.74945 1.90228 2.74248 1.93548 2.74248 1.96905C2.74248 2.00261 2.74945 2.03581 2.76293 2.06655C2.77452 2.09848 2.79298 2.12749 2.81701 2.15152C2.84103 2.17554 2.87004 2.194 2.90198 2.2056C2.96447 2.23115 3.03449 2.23115 3.09698 2.2056C3.12892 2.194 3.15792 2.17554 3.18195 2.15152C3.20598 2.12749 3.22444 2.09848 3.23603 2.06655C3.24951 2.03581 3.25647 2.00261 3.25647 1.96905C3.25647 1.93548 3.24951 1.90228 3.23603 1.87155H3.23633Z" fill="#555777" />
    </g>
    <defs>
        <clipPath id="clip0_1983_91388">
            <rect width="6" height="6" fill="white" transform="matrix(1 0 0 -1 0 6)" />
        </clipPath>
    </defs>
</svg>