<svg width="75" height="75" viewBox="0 0 75 75" fill="none" xmlns="http://www.w3.org/2000/svg">
    <path d="M53.1043 46.6281H52.9028C49.8401 52.1447 44.0973 55.8646 37.4984 55.8646C27.6783 55.8646 19.7169 47.6421 19.7169 37.5001C19.7169 27.3581 27.6783 19.1357 37.4984 19.1357C46.1609 19.1357 53.3678 25.5365 54.9491 34.0044H25.8456V40.3839H54.5546H55.0404H61.4085C61.5153 39.4374 61.579 38.4768 61.579 37.5001C61.579 23.7664 50.7979 12.6317 37.5001 12.6317C24.2023 12.6317 13.4211 23.7664 13.4211 37.5001C13.4211 51.2339 24.2023 62.3686 37.5001 62.3686C46.4657 62.3686 54.2756 57.302 58.42 49.7965L53.1043 46.6281Z" fill="white" />
    <path d="M63.7216 10.7023C64.0345 9.95733 64.207 9.14118 64.207 8.28414C64.207 4.8293 61.4065 2.02881 57.9516 2.02881C56.3194 2.02881 54.8382 2.66003 53.7233 3.68421C48.8158 1.3229 43.3126 0 37.5 0C16.7888 0 0 16.7888 0 37.5C0 58.2112 16.7888 75 37.5 75C58.2112 75 75 58.2112 75 37.5C75 26.9986 70.6775 17.5089 63.7216 10.7023ZM57.845 4.16074C60.1743 4.16074 62.0626 6.04908 62.0626 8.37838C62.0626 10.7077 60.1743 12.596 57.845 12.596C55.5157 12.596 53.6273 10.7077 53.6273 8.37838C53.6273 6.04908 55.5157 4.16074 57.845 4.16074ZM37.5 70.1102C19.4897 70.1102 4.88976 55.5103 4.88976 37.5C4.88976 19.4897 19.4897 4.88976 37.5 4.88976C42.5925 4.88976 47.4111 6.05797 51.7052 8.14011C51.7034 8.18812 51.6981 8.23435 51.6981 8.28236C51.6981 11.7372 54.4986 14.5377 57.9534 14.5377C58.7518 14.5377 59.511 14.383 60.2134 14.111C66.3158 20.0373 70.112 28.3233 70.112 37.5018C70.1102 55.5103 55.5103 70.1102 37.5 70.1102Z" fill="#6ACCE5" />
</svg>
    