<svg width="49" height="49" viewBox="0 0 49 49" fill="none" xmlns="http://www.w3.org/2000/svg">
    <path d="M25.1914 45.2384H24.6676C21.756 45.2423 18.9143 44.3442 16.5336 42.6679C14.1467 40.9993 12.3352 38.6319 11.3492 35.8915C10.9405 34.7047 10.7045 33.4653 10.6484 32.2113V32.1919C10.5369 31.6748 10.5373 31.1398 10.6484 30.6225C10.7596 30.1053 10.9789 29.6176 11.293 29.1919C11.8665 28.4885 12.6779 28.019 13.5734 27.8718L15.5363 27.7664H34.3379L36.2984 27.8718C37.1944 28.018 38.006 28.4878 38.5789 29.1919C38.8934 29.6175 39.1139 30.105 39.2258 30.6222C39.3377 31.1394 39.3386 31.6744 39.2281 32.1919V32.2086C39.1711 33.4626 38.9352 34.7021 38.5274 35.8892C37.5409 38.6296 35.73 40.9975 33.3442 42.6679C30.9576 44.3469 28.1094 45.245 25.1914 45.2384V45.2384ZM17.6762 30.4915L16.1621 30.5636C15.49 30.6567 14.8703 30.9778 14.4067 31.4733C14.1682 31.755 13.9984 32.0886 13.9121 32.4474C13.8258 32.8063 13.8254 33.1803 13.9098 33.5396V33.5493C13.9525 34.4172 14.1339 35.2724 14.4488 36.0823C15.3404 38.0452 16.7909 39.7021 18.6184 40.8459C20.4458 41.9898 22.5698 42.5702 24.725 42.5144H25.1328C27.2882 42.5713 29.413 41.9914 31.2406 40.8474C33.0683 39.7034 34.5183 38.0459 35.409 36.0823C35.7228 35.2721 35.9038 34.417 35.9469 33.5493V33.5373C36.031 33.1781 36.0303 32.8042 35.9434 32.4456C35.8564 32.0871 35.6858 31.7541 35.4465 31.4733C34.9841 30.9762 34.3638 30.6547 33.691 30.5636L32.177 30.4915H17.6762ZM24.8152 21.3392C23.6606 21.3422 22.5162 21.1158 21.4496 20.6736C20.383 20.2313 19.4157 19.582 18.602 18.7628C17.7831 17.9489 17.1327 16.9806 16.6906 15.914C16.2486 14.8474 16.0231 13.7038 16.0262 12.5493C16.0231 11.3942 16.2486 10.2499 16.6906 9.18276C17.1327 8.11559 17.7831 7.14652 18.602 6.33188C19.4157 5.51282 20.383 4.86359 21.4496 4.42172C22.5163 3.97986 23.6607 3.75415 24.8152 3.75786C25.9705 3.75418 27.1146 3.97988 28.182 4.42172C29.2495 4.86357 30.2185 5.51278 31.0332 6.33188C31.8516 7.14685 32.5004 8.11595 32.9422 9.18305C33.384 10.2502 33.6106 11.3943 33.6078 12.5493C33.6107 13.7037 33.384 14.8472 32.9422 15.9137C32.5004 16.9802 31.8516 17.9486 31.0332 18.7628C30.2185 19.582 29.2494 20.2313 28.182 20.6736C27.1147 21.1158 25.9706 21.3421 24.8152 21.3392ZM24.8152 6.45903C23.2029 6.46125 21.6567 7.10288 20.5168 8.24321C19.3769 9.38354 18.736 10.9296 18.7344 12.5419C18.7363 14.1542 19.3782 15.6998 20.518 16.8401C21.6578 17.9803 23.203 18.6223 24.8152 18.6248C26.428 18.6229 27.9743 17.9813 29.1149 16.841C30.2554 15.7007 30.8962 14.1547 30.8984 12.5419C30.8946 10.9302 30.2529 9.38573 29.1125 8.24672C27.9722 7.10772 26.427 6.46708 24.8152 6.46518V6.45903Z" fill="#eff1f8" />
</svg>