<svg width="17" height="16" viewBox="0 0 17 16" fill="none" xmlns="http://www.w3.org/2000/svg">
    <g clip-path="url(#clip0_934_43461)">
        <path fill-rule="evenodd" clip-rule="evenodd" d="M3.22064 4.0387C3.20279 4.09861 3.19725 4.16176 3.20388 4.22392C3.21487 4.34238 3.26953 4.45249 3.35746 4.53262C3.44539 4.61275 3.56015 4.65688 3.67912 4.65686C3.69434 4.65686 3.71129 4.65605 5.02137 4.52804C8.34087 4.19165 10.3331 4.31856 13.6893 4.65495H13.7396C13.8579 4.65526 13.9718 4.61107 14.0589 4.53109C14.1461 4.45111 14.2001 4.34141 14.2099 4.22354C14.222 4.09824 14.184 3.97304 14.1043 3.87559C14.0246 3.77814 13.9098 3.71634 13.7845 3.70333C12.9186 3.61825 12.1394 3.54645 11.4038 3.49182C11.4034 3.48768 11.4027 3.48346 11.402 3.47924C11.401 3.47348 11.4 3.46771 11.4 3.46209L11.2605 2.63737L11.2603 2.63608C11.165 2.05226 11.0224 1.17773 9.54054 1.17773H7.87777C6.40061 1.17773 6.2602 2.02125 6.15875 2.63076L6.1586 2.63166L6.01911 3.46247C6.01841 3.46799 6.01744 3.47346 6.01606 3.47886C5.66718 3.50539 5.30393 3.53778 4.92343 3.5768L3.62919 3.70371C3.56695 3.70956 3.50638 3.72767 3.45121 3.75707C3.39605 3.78646 3.34749 3.82644 3.30792 3.87483C3.26835 3.92322 3.2385 3.9788 3.22064 4.0387ZM10.3298 2.7963L10.4365 3.42893C9.80782 3.39498 9.19834 3.37786 8.57901 3.37786C8.06504 3.37786 7.54224 3.38942 6.99589 3.41674L7.10641 2.7902L7.10727 2.78506C7.20094 2.22496 7.21578 2.13622 7.88692 2.13622H9.5493C10.2217 2.13622 10.2404 2.24448 10.3298 2.7963Z" fill="#EFF1F8" />
        <path fill-rule="evenodd" clip-rule="evenodd" d="M4.30188 12.6066C4.37212 13.5962 4.46035 14.8212 6.67465 14.8212H10.7487C12.9638 14.8212 13.052 13.5962 13.1222 12.6066L13.5346 6.21616C13.5388 6.15365 13.5306 6.09067 13.5106 6.03132C13.4905 5.97198 13.4589 5.91723 13.4176 5.87011C13.3763 5.82299 13.3263 5.78463 13.2701 5.75692C13.2139 5.72921 13.1527 5.71259 13.0902 5.70852C11.6266 5.45047 10.1447 5.30854 8.65869 5.28397C7.20753 5.3049 5.76066 5.44689 4.33313 5.70852C4.20725 5.71774 4.09008 5.77632 4.0069 5.87126C3.92372 5.96619 3.88135 6.09016 3.88876 6.21616L4.30188 12.6066ZM5.25337 12.5464L5.25312 12.5429L4.87316 6.65977C6.11809 6.39508 7.38605 6.25303 8.65869 6.23559C9.96602 6.25739 11.2685 6.39936 12.5498 6.65977L12.1702 12.5429C12.1066 13.5076 12.0818 13.8695 10.7487 13.8695H6.67465C5.34976 13.8695 5.32343 13.5081 5.25337 12.5464Z" fill="#EFF1F8" />
    </g>
    <defs>
        <clipPath id="clip0_934_43461">
            <rect width="16" height="16" fill="white" transform="translate(0.708984)" />
        </clipPath>
    </defs>
</svg>
    