<svg width="18" height="18" viewBox="0 0 18 18" fill="none" xmlns="http://www.w3.org/2000/svg">
    <path d="M12.2428 1.27148H5.76711C2.95454 1.27148 1.27734 2.94954 1.27734 5.76391V12.2315C1.27734 15.0504 2.95409 16.7284 5.76711 16.7284H12.2347C15.0468 16.7284 16.724 15.0504 16.724 12.236V5.76391C16.7316 2.94954 15.0544 1.27148 12.2428 1.27148ZM4.75548 9.44046H6.89619C7.04706 9.44467 7.19033 9.50761 7.29556 9.61581C7.40078 9.72401 7.45966 9.86897 7.45966 10.0199C7.45966 10.1708 7.40078 10.3158 7.29556 10.424C7.19033 10.5322 7.04706 10.5951 6.89619 10.5993H4.75458C4.60371 10.5951 4.46044 10.5322 4.35521 10.424C4.24999 10.3158 4.19112 10.1708 4.19112 10.0199C4.19112 9.86897 4.24999 9.72401 4.35521 9.61581C4.46044 9.50761 4.60371 9.44467 4.75458 9.44046H4.75548ZM9.75511 13.5064H4.75458C4.60108 13.5057 4.45406 13.4443 4.34552 13.3358C4.23697 13.2272 4.17568 13.0802 4.17497 12.9267C4.17561 12.7723 4.23648 12.6243 4.34462 12.5141C4.45414 12.4069 4.60134 12.3469 4.75458 12.3471H9.75421C9.9073 12.347 10.0543 12.407 10.1637 12.5141C10.2722 12.6241 10.3333 12.7722 10.3338 12.9267C10.3324 13.08 10.2709 13.2266 10.1625 13.335C10.0541 13.4434 9.90749 13.505 9.75421 13.5064H9.75511ZM13.2553 13.5064H11.8256C11.6721 13.5057 11.5251 13.4443 11.4165 13.3358C11.308 13.2272 11.2467 13.0802 11.246 12.9267C11.2466 12.7723 11.3075 12.6243 11.4156 12.5141C11.5252 12.4069 11.6724 12.3469 11.8256 12.3471H13.2553C13.4084 12.347 13.5554 12.407 13.6648 12.5141C13.7733 12.6241 13.8343 12.7722 13.8349 12.9267C13.8335 13.08 13.772 13.2266 13.6636 13.335C13.5552 13.4434 13.4086 13.505 13.2553 13.5064ZM13.2553 10.5993H8.98019C8.82932 10.5951 8.68604 10.5322 8.58082 10.424C8.47559 10.3158 8.41673 10.1708 8.41673 10.0199C8.41673 9.86897 8.47559 9.72401 8.58082 9.61581C8.68604 9.50761 8.82932 9.44467 8.98019 9.44046H13.2553C13.4062 9.44467 13.5494 9.50761 13.6547 9.61581C13.7599 9.72401 13.8188 9.86897 13.8188 10.0199C13.8188 10.1708 13.7599 10.3158 13.6547 10.424C13.5494 10.5322 13.4062 10.5951 13.2553 10.5993Z" fill="#EFF1F8" />
</svg>
    