<svg width="18" height="19" viewBox="0 0 18 19" fill="none" xmlns="http://www.w3.org/2000/svg">
    <g clip-path="url(#clip0_1012_15449)">
        <path d="M12.9488 14.0713H11.6204C11.4784 14.0678 11.343 14.011 11.241 13.912C11.1406 13.8112 11.0836 13.675 11.0822 13.5327C11.0831 13.3904 11.1402 13.2542 11.241 13.1537C11.2904 13.1031 11.3494 13.063 11.4145 13.0356C11.4797 13.0083 11.5497 12.9942 11.6204 12.9944H12.9488C13.0195 12.9943 13.0895 13.0083 13.1547 13.0356C13.2198 13.063 13.2788 13.1032 13.3282 13.1537C13.429 13.2542 13.4861 13.3904 13.487 13.5327C13.4854 13.675 13.4284 13.811 13.3282 13.912C13.2262 14.0109 13.0908 14.0678 12.9488 14.0713Z" fill="#EFF1F8" />
        <path d="M5.05128 14.0713H9.6954L9.6936 14.0727C9.83682 14.0727 9.97416 14.0158 10.0754 13.9146C10.1767 13.8133 10.2336 13.6759 10.2336 13.5327C10.233 13.3891 10.1764 13.2515 10.0757 13.1492C9.97401 13.0499 9.83751 12.9944 9.6954 12.9944H5.05128C4.98059 12.9942 4.9106 13.0083 4.84543 13.0356C4.78026 13.063 4.72125 13.1031 4.67192 13.1537C4.57111 13.2542 4.51403 13.3904 4.51307 13.5327C4.51449 13.675 4.5715 13.8112 4.67192 13.912C4.77385 14.011 4.90929 14.0678 5.05128 14.0713Z" fill="#EFF1F8" />
        <path d="M12.9492 11.37H8.98014C8.83761 11.3684 8.70133 11.3112 8.60033 11.2107C8.55014 11.1611 8.51029 11.102 8.48309 11.037C8.45589 10.9719 8.44188 10.902 8.44188 10.8315C8.44188 10.761 8.45589 10.6911 8.48309 10.6261C8.51029 10.561 8.55014 10.5019 8.60033 10.4524C8.64975 10.4017 8.70883 10.3616 8.77407 10.3343C8.83932 10.3069 8.90939 10.2928 8.98014 10.2931H12.951C13.0217 10.2929 13.0917 10.3069 13.1569 10.3343C13.222 10.3616 13.281 10.4018 13.3304 10.4524C13.3808 10.5018 13.4208 10.5609 13.4481 10.6259C13.4754 10.691 13.4894 10.7609 13.4894 10.8315C13.4894 10.9021 13.4754 10.972 13.4481 11.0371C13.4208 11.1022 13.3808 11.1612 13.3304 11.2107C13.2291 11.3116 13.0922 11.3688 12.9492 11.37Z" fill="#EFF1F8" />
        <path d="M5.05058 11.37H7.03963C7.18203 11.3684 7.31818 11.3112 7.41898 11.2107C7.46934 11.1612 7.50933 11.1022 7.53664 11.0371C7.56394 10.972 7.57802 10.9021 7.57802 10.8315C7.57802 10.7609 7.56394 10.691 7.53664 10.6259C7.50933 10.5609 7.46934 10.5018 7.41898 10.4524C7.36965 10.4017 7.31065 10.3616 7.24548 10.3343C7.18031 10.3069 7.11031 10.2928 7.03963 10.2931H5.05058C4.97989 10.2928 4.9099 10.3069 4.84473 10.3343C4.77956 10.3616 4.72055 10.4017 4.67122 10.4524C4.62086 10.5018 4.58086 10.5609 4.55356 10.6259C4.52625 10.691 4.51219 10.7609 4.51219 10.8315C4.51219 10.9021 4.52625 10.972 4.55356 11.0371C4.58086 11.1022 4.62086 11.1612 4.67122 11.2107C4.77206 11.3112 4.90818 11.3684 5.05058 11.37Z" fill="#EFF1F8" />
        <path fill-rule="evenodd" clip-rule="evenodd" d="M11.154 17.6039H6.84609C2.94719 17.6039 1.28125 15.9389 1.28125 12.0382V7.7302C1.28125 3.83131 2.94629 2.16406 6.84609 2.16406H11.154C15.0529 2.16406 16.7189 3.82906 16.7189 7.7302V12.0382C16.7184 15.9371 15.0525 17.6039 11.154 17.6039ZM6.84609 3.24086C3.53626 3.24086 2.35857 4.42128 2.35857 7.72977V12.0377C2.35857 15.3462 3.53626 16.5266 6.84609 16.5266H11.154C14.4639 16.5266 15.6416 15.3462 15.6416 12.0377V7.72977C15.6416 4.42128 14.4639 3.24086 11.154 3.24086H6.84609Z" fill="#EFF1F8" />
    </g>
    <defs>
        <clipPath id="clip0_1012_15449">
            <rect width="18" height="18" fill="white" transform="translate(0 0.882812)" />
        </clipPath>
    </defs>
</svg>
    