<svg width="24" height="24" viewBox="0 0 24 24" fill="none" xmlns="http://www.w3.org/2000/svg">
    <g clip-path="url(#clip0_30398_2024)">
        <path d="M16.6593 19.4387C16.6239 19.3295 16.6647 19.2389 16.7601 19.0583C16.8753 18.8411 16.9902 18.5975 17.1006 18.3341C17.1228 18.2801 17.1452 18.2231 17.1674 18.1643C17.2232 18.0269 17.2792 17.8799 17.3338 17.7269C17.5323 17.126 17.6426 16.4994 17.6613 15.8668V15.8584C17.6739 15.5584 17.6763 15.0892 17.6613 14.5846C17.6681 14.3813 17.6268 14.1793 17.5412 13.9948C17.4795 13.8014 17.3524 13.6357 17.1814 13.5262C16.8876 13.3368 16.5571 13.2115 16.2117 13.1584C15.9483 13.1098 15.9494 13.1385 15.815 13.0671C15.7776 13.0489 15.7453 13.0217 15.7212 12.9878C15.6971 12.954 15.6822 12.9146 15.6773 12.8733C15.6755 12.8353 15.6832 12.7974 15.7001 12.7633C15.717 12.7292 15.7426 12.7 15.774 12.6783C15.8736 12.6274 15.9864 12.6077 16.0974 12.6219C17.4846 12.6111 17.5901 12.5823 18.6527 12.5841C19.8108 12.5841 20.3104 12.6333 20.3104 12.6333C20.6689 12.6924 20.9936 12.8806 21.2227 13.1625C21.3486 13.3326 21.4367 13.5276 21.4817 13.7345C21.5267 13.9414 21.5273 14.1554 21.4835 14.3625V14.3692C21.4607 14.872 21.3661 15.3688 21.2022 15.8447C20.8068 16.9433 20.081 17.8924 19.1244 18.562C18.81 18.7827 18.4742 18.9711 18.1219 19.1242L17.6654 19.3043L17.189 19.4368L16.9019 19.4932C16.9019 19.4932 16.6947 19.546 16.6617 19.4368L16.6593 19.4387ZM18.985 14.7706V14.7772V14.7886C18.9629 15.5892 18.8681 16.3861 18.7014 17.1695C18.6666 17.3231 18.6285 17.4778 18.5883 17.629C19.1974 17.2 19.6725 16.6071 19.9582 15.9191C20.0842 15.5945 20.1572 15.2516 20.1739 14.9038V14.8989C20.2075 14.7549 20.2066 14.605 20.1715 14.4612C20.1365 14.3175 20.0684 14.184 19.9723 14.0716C19.7872 13.8724 19.5381 13.7437 19.2686 13.7074L18.9727 13.6929C19.0011 14.0514 19.005 14.4115 18.985 14.7706ZM13.8087 9.39024C13.7547 9.25044 13.8208 9.16398 13.9018 9.06138C14.001 8.93509 14.092 8.80269 14.1743 8.66483C14.332 8.40107 14.4623 8.12208 14.564 7.83205C14.7677 7.2525 14.8725 6.64266 14.8734 6.02834C14.8675 5.22783 14.6792 4.43919 14.3226 3.72247C14.2865 3.67365 14.2629 3.61671 14.254 3.55665C14.2451 3.49659 14.2512 3.43527 14.2716 3.37808C14.3232 3.23768 14.3788 3.21305 14.5288 3.16025C14.7816 3.07339 15.0431 3.01464 15.3087 2.98505C15.3087 2.98505 15.3086 2.98505 15.3128 2.98505C15.317 2.98505 15.3127 2.98505 15.3169 2.98505C15.448 2.97067 15.58 2.96353 15.7119 2.96352C16.1749 2.9621 16.634 3.05253 17.0619 3.22969C17.4897 3.40684 17.878 3.66717 18.2045 3.99553C18.5327 4.32217 18.7926 4.71061 18.9697 5.13843C19.1469 5.56624 19.2376 6.02498 19.2364 6.48802C19.2376 6.95089 19.1469 7.4094 18.9697 7.83703C18.7926 8.26466 18.5327 8.65282 18.2045 8.9792C17.995 9.18889 17.7601 9.37168 17.5055 9.5234C16.9646 9.83941 16.3494 10.0052 15.723 10.0034C15.165 10.0041 14.6144 9.87201 14.1175 9.61818C13.9603 9.54077 13.8627 9.53064 13.8087 9.39024ZM15.6878 4.05017C15.8564 4.70641 15.9404 5.38142 15.938 6.05896C15.9388 6.55889 15.8937 7.05775 15.8027 7.54933C15.718 8.0144 15.5864 8.46981 15.4101 8.90844C15.5096 8.92056 15.6098 8.92659 15.7101 8.92646C16.3567 8.92583 16.9767 8.66874 17.434 8.2116C17.8912 7.75445 18.1486 7.1346 18.1494 6.48802C18.1486 5.84144 17.8912 5.22159 17.434 4.76444C16.9767 4.3073 16.3567 4.05007 15.7101 4.04943L15.6878 4.05017Z" fill="#F2F2F8" />
        <path d="M10.0209 22.3715H9.759C8.30297 22.3735 6.88187 21.9246 5.69132 21.0864C4.49775 20.2519 3.59257 19.0678 3.09965 17.6974C2.89481 17.104 2.77661 16.4843 2.74867 15.8572V15.8475C2.69318 15.5889 2.69312 15.3215 2.74867 15.063C2.80421 14.8044 2.91357 14.5605 3.07035 14.3475C3.35713 13.9958 3.76282 13.7611 4.21062 13.6876L5.19209 13.6347H14.5943L15.5757 13.6876C16.0237 13.7606 16.429 13.9954 16.7154 14.3475C16.8724 14.5604 16.9828 14.8043 17.0389 15.0628C17.0949 15.3213 17.0953 15.5887 17.0406 15.8475V15.856C17.0121 16.483 16.8941 17.1026 16.6902 17.6962C16.1968 19.0667 15.2918 20.251 14.0986 21.0864C12.9051 21.926 11.4801 22.3749 10.0209 22.3715ZM6.26262 14.9973L5.50498 15.0334C5.16916 15.0802 4.85959 15.2407 4.62781 15.4882C4.50834 15.6289 4.42369 15.7957 4.38054 15.9751C4.33739 16.1546 4.33692 16.3417 4.37937 16.5214V16.5262C4.40076 16.9602 4.49204 17.3879 4.64949 17.7929C5.09548 18.7746 5.82037 19.603 6.73431 20.1751C7.64825 20.7471 8.71044 21.0373 9.78829 21.0095H9.99221C11.07 21.0378 12.1323 20.7478 13.0462 20.1757C13.96 19.6036 14.6851 18.7748 15.1304 17.7929C15.2876 17.3879 15.3787 16.9601 15.4 16.5262V16.5202C15.442 16.3405 15.4407 16.1535 15.397 15.9743C15.3534 15.795 15.2685 15.6284 15.1486 15.4882C14.9176 15.2397 14.607 15.0789 14.2708 15.0334L13.5138 14.9973H6.26262ZM9.83283 10.4199C9.25539 10.4214 8.68339 10.3083 8.14997 10.0872C7.61655 9.86606 7.1325 9.5413 6.72552 9.13165C6.31602 8.72461 5.99086 8.24032 5.76983 7.70691C5.54881 7.1735 5.43601 6.60159 5.4376 6.0242C5.43604 5.44655 5.5494 4.87432 5.77042 4.34062C5.99144 3.80692 6.31602 3.32227 6.72552 2.91485C7.13245 2.50518 7.61653 2.18049 8.14997 1.95945C8.68341 1.73841 9.25541 1.62543 9.83283 1.62722C10.4106 1.62548 10.983 1.73843 11.5169 1.95945C12.0507 2.18048 12.535 2.50519 12.9425 2.91485C13.3518 3.32238 13.6767 3.80708 13.8976 4.34076C14.1185 4.87445 14.2314 5.44661 14.2298 6.0242C14.2314 6.60154 14.1185 7.17336 13.8976 7.70676C13.6767 8.24016 13.3518 8.72452 12.9425 9.13165C12.535 9.54129 12.0507 9.86607 11.5169 10.0872C10.9831 10.3083 10.4106 10.4214 9.83283 10.4199ZM9.83283 2.97974C9.02668 2.98101 8.25406 3.30185 7.68414 3.872C7.11422 4.44215 6.79327 5.21498 6.79232 6.02113C6.79312 6.82738 7.11362 7.60042 7.68355 8.17069C8.25349 8.74097 9.02657 9.06197 9.83283 9.06324C10.6394 9.06229 11.4129 8.74155 11.9833 8.17128C12.5537 7.601 12.8746 6.8277 12.8757 6.02113C12.8741 5.21492 12.5525 4.44223 11.9821 3.87244C11.4117 3.30265 10.639 2.98229 9.83283 2.9815V2.97974Z" fill="#F2F2F8" />
    </g>
    <defs>
        <clipPath id="clip0_30398_2024">
            <rect width="24" height="24" fill="white" />
        </clipPath>
    </defs>
</svg>