<svg width="14" height="14" viewBox="0 0 14 14" fill="none" xmlns="http://www.w3.org/2000/svg">
<g clip-path="url(#clip0_31279_30018)">
<path d="M7.78399 3.08401C8.50442 3.49983 8.90268 4.33738 8.90268 5.43846L8.90268 6.47652L12.4264 6.47652C12.447 6.47409 12.4677 6.47287 12.4885 6.47287C12.5569 6.47272 12.6247 6.48606 12.6879 6.51213C12.7511 6.53821 12.8086 6.57651 12.8571 6.62483C12.9055 6.67316 12.9439 6.73057 12.9701 6.79376C12.9963 6.85696 13.0098 6.9247 13.0098 6.99311C13.0098 7.28128 12.7758 7.52174 12.4877 7.52174C12.4734 7.52174 12.4594 7.52118 12.4454 7.52005L8.90268 7.52005L8.90268 8.56607C8.90268 9.66714 8.50442 10.5047 7.78399 10.9205C7.05773 11.3364 6.13816 11.2603 5.18353 10.7097L2.47177 9.14587C1.51707 8.59536 0.990003 7.83396 0.990003 7.00233C0.990003 6.17069 1.51711 5.4092 2.47177 4.85278L5.18353 3.28903C5.72817 2.97275 6.26707 2.8146 6.75906 2.8146C7.12804 2.81457 7.47353 2.90242 7.78399 3.08401ZM7.23705 10.0173C7.65666 9.77673 7.88595 9.23412 7.88595 8.4957L7.88595 5.50848C7.88595 4.77014 7.65666 4.22747 7.23705 3.98692C6.81744 3.74638 6.23572 3.81914 5.59237 4.18835L3.00234 5.68194C2.35913 6.05107 2.00665 6.52101 2.00665 7.00207C2.00665 7.48313 2.35917 7.95306 3.00234 8.32227L5.59237 9.81586C5.98395 10.0453 6.35309 10.1571 6.67769 10.1571C6.87315 10.16 7.06599 10.1118 7.2371 10.0173L7.23705 10.0173Z" fill="#56566F"/>
</g>
<defs>
<clipPath id="clip0_31279_30018">
<rect width="14" height="14" fill="white" transform="translate(14 14) rotate(-180)"/>
</clipPath>
</defs>
</svg>
