<svg width="24" height="24" viewBox="0 0 24 24" fill="none" xmlns="http://www.w3.org/2000/svg">
<g clip-path="url(#clip0_31119_22804)">
<path fill-rule="evenodd" clip-rule="evenodd" d="M18.6533 22.383H13.9197V18.6868C13.9193 18.4996 13.8448 18.3202 13.7124 18.1878C13.5801 18.0554 13.4006 17.9809 13.2134 17.9805H11.0947C10.9075 17.9809 10.728 18.0554 10.5957 18.1878C10.4633 18.3202 10.3888 18.4996 10.3885 18.6868V22.383H5.68184C5.32864 22.3802 4.99071 22.2386 4.74098 21.9888C4.61731 21.8653 4.51927 21.7184 4.45244 21.5568C4.38562 21.3953 4.35133 21.2222 4.35156 21.0473V15.0626C4.35141 14.8878 4.38572 14.7147 4.45255 14.5532C4.51939 14.3917 4.61743 14.2449 4.74105 14.1214C4.86467 13.9978 5.01146 13.8998 5.173 13.8331C5.33453 13.7663 5.50763 13.7322 5.68242 13.7324H18.6539C18.8286 13.7323 19.0017 13.7667 19.1631 13.8335C19.3246 13.9003 19.4713 13.9983 19.5949 14.1218C19.7185 14.2453 19.8165 14.3919 19.8834 14.5534C19.9503 14.7148 19.9847 14.8878 19.9847 15.0626V21.0485C19.9838 21.4016 19.8434 21.7402 19.5942 21.9903C19.3449 22.2404 19.007 22.382 18.6539 22.3842L18.6533 22.383ZM9.21121 21.1115V17.5113C9.21152 17.3241 9.28602 17.1447 9.4184 17.0124C9.55078 16.88 9.73023 16.8054 9.91744 16.8051H14.3907C14.5779 16.8054 14.7573 16.88 14.8897 17.0124C15.0221 17.1447 15.0966 17.3241 15.0969 17.5113V21.1115H17.5768C17.8483 21.1291 18.116 21.0406 18.3233 20.8644C18.426 20.778 18.5107 20.6722 18.5724 20.5531C18.6342 20.4339 18.6719 20.3039 18.6833 20.1701V15.944C18.6603 15.6726 18.531 15.4215 18.3235 15.2451C18.116 15.0687 17.8471 14.9816 17.5756 15.0027H6.75888C6.48721 14.9817 6.21825 15.0688 6.01049 15.2451C5.80273 15.4214 5.67297 15.6725 5.64943 15.944V20.1701C5.67357 20.4416 5.80276 20.6928 6.00945 20.8704C6.21913 21.042 6.48607 21.1277 6.75648 21.1103L9.21121 21.1115Z" fill="#F2F2F8"/>
<path fill-rule="evenodd" clip-rule="evenodd" d="M3.63787 12.4003C3.37334 12.4011 3.11458 12.3231 2.89444 12.1765C2.73007 12.0658 2.59248 11.9198 2.4917 11.7491C2.39092 11.5785 2.32949 11.3876 2.3119 11.1903C2.2943 10.9929 2.321 10.794 2.39001 10.6083C2.45903 10.4225 2.56863 10.2546 2.71083 10.1166L11.074 1.99455C11.3221 1.75305 11.6546 1.61792 12.0008 1.61792C12.347 1.61792 12.6795 1.75305 12.9275 1.99455L21.2908 10.1166C21.4812 10.3017 21.612 10.5395 21.6664 10.7994C21.7197 11.0589 21.6951 11.3284 21.5957 11.5739C21.4963 11.8195 21.3265 12.0302 21.1077 12.1795C20.8878 12.3262 20.6292 12.404 20.3649 12.4032L3.63787 12.4003ZM11.9783 3.29481C11.7409 3.29557 11.5131 3.38859 11.3429 3.5541L5.58256 9.1451C5.52079 9.20965 5.46384 9.27864 5.41216 9.35151C5.16872 9.58831 5.02911 9.91198 5.02394 10.2516C5.01536 10.3253 5.02463 10.4 5.05094 10.4694C5.07234 10.5246 5.10505 10.5747 5.14695 10.6165C5.27314 10.7715 5.43679 10.8917 5.62243 10.9658C5.80806 11.04 6.00955 11.0654 6.20781 11.04H17.774C17.9729 11.0658 18.1751 11.0404 18.3614 10.9663C18.5478 10.8922 18.7122 10.7718 18.839 10.6165C18.8787 10.5732 18.9108 10.5234 18.9338 10.4694C18.9586 10.4017 18.9674 10.3292 18.9596 10.2576C18.9582 10.0877 18.9235 9.91973 18.8576 9.76315C18.791 9.60847 18.6945 9.4684 18.5738 9.35092C18.5231 9.27716 18.4659 9.20808 18.4028 9.14452L12.6425 3.55337C12.5593 3.47029 12.4603 3.40465 12.3514 3.36015C12.2426 3.31565 12.1259 3.29324 12.0083 3.29422H11.9783V3.29481Z" fill="#F2F2F8"/>
</g>
<defs>
<clipPath id="clip0_31119_22804">
<rect width="24" height="24" fill="white"/>
</clipPath>
</defs>
</svg>
