<svg width="24" height="24" viewBox="0 0 40 40" fill="none" xmlns="http://www.w3.org/2000/svg">
<g clip-path="url(#clip0_31371_29683)">
<path fill-rule="evenodd" clip-rule="evenodd" d="M31.0869 37.3032H23.1979V31.1431C23.1974 30.8311 23.0732 30.5321 22.8526 30.3115C22.632 30.0909 22.3329 29.9666 22.0209 29.9661H18.49C18.178 29.9666 17.8789 30.0909 17.6583 30.3115C17.4377 30.5321 17.3135 30.8311 17.313 31.1431V37.3032H9.46894C8.88029 37.2986 8.31709 37.0626 7.90094 36.6462C7.6948 36.4403 7.53136 36.1955 7.41999 35.9263C7.30861 35.657 7.25152 35.3685 7.25196 35.0772V25.103C7.25169 24.8117 7.30888 24.5233 7.42026 24.2542C7.53164 23.985 7.69504 23.7404 7.90106 23.5344C8.10709 23.3285 8.3517 23.1652 8.62091 23.054C8.89013 22.9427 9.17864 22.8858 9.46994 22.8862H31.089C31.3802 22.8861 31.6686 22.9433 31.9377 23.0547C32.2067 23.166 32.4513 23.3293 32.6573 23.5352C32.8632 23.741 33.0266 23.9854 33.1381 24.2544C33.2496 24.5234 33.3069 24.8118 33.3069 25.103V35.0791C33.3054 35.6676 33.0715 36.2318 32.6561 36.6487C32.2407 37.0656 31.6775 37.3015 31.089 37.3052L31.0869 37.3032Z" fill="#F2F2F8"/>
<path fill-rule="evenodd" clip-rule="evenodd" d="M6.06293 20.666C5.62208 20.6673 5.19082 20.5374 4.82395 20.293C4.54986 20.1086 4.32041 19.8654 4.15235 19.5811C3.98428 19.2967 3.88184 18.9784 3.85251 18.6494C3.82319 18.3204 3.8677 17.989 3.98282 17.6794C4.09794 17.3699 4.28079 17.09 4.51795 16.8601L18.4559 3.323C18.8693 2.92051 19.4235 2.69531 20.0004 2.69531C20.5774 2.69531 21.1315 2.92051 21.5449 3.323L35.4829 16.8601C35.8003 17.1682 36.0183 17.5641 36.109 17.9971C36.1978 18.4295 36.1568 18.8786 35.9912 19.2878C35.8255 19.6971 35.5426 20.048 35.1779 20.2969C34.8114 20.5413 34.3805 20.6712 33.9399 20.6699L6.06293 20.666Z" fill="#F2F2F8"/>
</g>
<defs>
<clipPath id="clip0_31371_29683">
<rect width="39.999" height="39.999" fill="white"/>
</clipPath>
</defs>
</svg>
