<svg width="18" height="19" viewBox="0 0 18 19" fill="none" xmlns="http://www.w3.org/2000/svg">
    <g clip-path="url(#clip0_1012_15425)">
        <path d="M9.00244 16.6276H1.74822C1.60443 16.6276 1.46653 16.5704 1.36485 16.4688C1.26317 16.3671 1.20605 16.2292 1.20605 16.0854C1.20605 15.9416 1.26317 15.8037 1.36485 15.702C1.46653 15.6003 1.60443 15.5432 1.74822 15.5432H2.27112V5.31792C2.27114 5.19308 2.3142 5.07208 2.39307 4.97531C2.47193 4.87854 2.58177 4.81194 2.70403 4.78673C2.72748 4.77677 2.7516 4.76847 2.7762 4.76187L8.83013 3.1397C8.93994 3.1101 9.0563 3.11593 9.16259 3.15638C9.27322 3.19064 9.36999 3.25942 9.43872 3.35264C9.50744 3.44586 9.54452 3.55864 9.54452 3.67445V4.93506C9.54452 5.07885 9.4874 5.21676 9.38573 5.31843C9.28405 5.42011 9.14615 5.47723 9.00236 5.47723C8.85856 5.47723 8.72066 5.42011 8.61898 5.31843C8.51731 5.21676 8.46019 5.07885 8.46019 4.93506V4.36138L3.35539 5.72914V15.5431H8.46019V7.06357C8.45296 7.02788 8.44932 6.99155 8.44934 6.95514C8.44931 6.85723 8.47579 6.76114 8.52599 6.67708C8.57618 6.59301 8.6482 6.52412 8.73441 6.4777C8.81603 6.43121 8.90839 6.40683 9.00233 6.40698C9.02946 6.40698 9.05656 6.409 9.08338 6.41301H15.1104C15.1373 6.409 15.1643 6.40698 15.1915 6.40698C15.2997 6.40697 15.4054 6.43934 15.4951 6.49994C15.5848 6.56053 15.6542 6.64657 15.6946 6.74699C15.722 6.81296 15.7361 6.88373 15.736 6.95518C15.736 6.97271 15.7352 6.99005 15.7335 7.00723V14.5022C15.7335 14.646 15.6764 14.7839 15.5748 14.8855C15.4731 14.9872 15.3352 15.0443 15.1914 15.0443C15.0476 15.0443 14.9097 14.9872 14.808 14.8855C14.7063 14.7839 14.6492 14.646 14.6492 14.5022V7.49735H9.54461V15.5431H16.2567C16.4004 15.5431 16.5384 15.6003 16.64 15.7019C16.7417 15.8036 16.7988 15.9415 16.7988 16.0853C16.7988 16.2291 16.7417 16.367 16.64 16.4687C16.5384 16.5703 16.4004 16.6275 16.2567 16.6275L9.00244 16.6276ZM11.5024 14.3583C11.3586 14.3583 11.2207 14.3012 11.119 14.1995C11.0173 14.0978 10.9602 13.9599 10.9602 13.8161C10.9602 13.6723 11.0173 13.5344 11.119 13.4328C11.2207 13.3311 11.3586 13.274 11.5024 13.274H12.7629C12.9067 13.274 13.0445 13.3311 13.1462 13.4328C13.2479 13.5344 13.305 13.6723 13.305 13.8161C13.305 13.9599 13.2479 14.0978 13.1462 14.1995C13.0445 14.3012 12.9067 14.3583 12.7629 14.3583H11.5024ZM5.31317 14.3583C5.16938 14.3583 5.03148 14.3012 4.9298 14.1995C4.82812 14.0978 4.771 13.9599 4.771 13.8161C4.771 13.6723 4.82812 13.5344 4.9298 13.4328C5.03148 13.3311 5.16938 13.274 5.31317 13.274H6.57378C6.71757 13.274 6.85547 13.3311 6.95715 13.4328C7.05883 13.5344 7.11595 13.6723 7.11595 13.8161C7.11595 13.9599 7.05883 14.0978 6.95715 14.1995C6.85547 14.3012 6.71757 14.3583 6.57378 14.3583H5.31317ZM11.5024 12.0595C11.3586 12.0595 11.2207 12.0024 11.119 11.9007C11.0173 11.799 10.9602 11.6611 10.9602 11.5173C10.9602 11.3735 11.0173 11.2356 11.119 11.134C11.2207 11.0323 11.3586 10.9752 11.5024 10.9752H12.7629C12.9067 10.9752 13.0445 11.0323 13.1462 11.134C13.2479 11.2356 13.305 11.3735 13.305 11.5173C13.305 11.6611 13.2479 11.799 13.1462 11.9007C13.0445 12.0024 12.9067 12.0595 12.7629 12.0595H11.5024ZM5.31317 12.0595C5.16938 12.0595 5.03148 12.0024 4.9298 11.9007C4.82812 11.799 4.771 11.6611 4.771 11.5173C4.771 11.3735 4.82812 11.2356 4.9298 11.134C5.03148 11.0323 5.16938 10.9752 5.31317 10.9752H6.57378C6.71757 10.9752 6.85547 11.0323 6.95715 11.134C7.05883 11.2356 7.11595 11.3735 7.11595 11.5173C7.11595 11.6611 7.05883 11.799 6.95715 11.9007C6.85547 12.0024 6.71757 12.0595 6.57378 12.0595H5.31317ZM11.5024 9.79025C11.3586 9.79025 11.2207 9.73312 11.119 9.63145C11.0173 9.52977 10.9602 9.39187 10.9602 9.24808C10.9602 9.10429 11.0173 8.96638 11.119 8.86471C11.2207 8.76303 11.3586 8.70591 11.5024 8.70591H12.7629C12.9067 8.70591 13.0445 8.76303 13.1462 8.86471C13.2479 8.96638 13.305 9.10429 13.305 9.24808C13.305 9.39187 13.2479 9.52977 13.1462 9.63145C13.0445 9.73312 12.9067 9.79025 12.7629 9.79025H11.5024ZM5.31317 9.79025C5.16938 9.79025 5.03148 9.73312 4.9298 9.63145C4.82812 9.52977 4.771 9.39187 4.771 9.24808C4.771 9.10429 4.82812 8.96638 4.9298 8.86471C5.03148 8.76303 5.16938 8.70591 5.31317 8.70591H6.57378C6.71757 8.70591 6.85547 8.76303 6.95715 8.86471C7.05883 8.96638 7.11595 9.10429 7.11595 9.24808C7.11595 9.39187 7.05883 9.52977 6.95715 9.63145C6.85547 9.73312 6.71757 9.79025 6.57378 9.79025H5.31317ZM5.31317 7.49145C5.16938 7.49145 5.03148 7.43433 4.9298 7.33265C4.82812 7.23098 4.771 7.09308 4.771 6.94928C4.771 6.80549 4.82812 6.66759 4.9298 6.56591C5.03148 6.46424 5.16938 6.40712 5.31317 6.40712H6.57378C6.71757 6.40712 6.85547 6.46424 6.95715 6.56591C7.05883 6.66759 7.11595 6.80549 7.11595 6.94928C7.11595 7.09308 7.05883 7.23098 6.95715 7.33265C6.85547 7.43433 6.71757 7.49145 6.57378 7.49145H5.31317Z" fill="#EFF1F8" />
    </g>
    <defs>
        <clipPath id="clip0_1012_15425">
            <rect width="18" height="18" fill="white" transform="translate(0 0.882812)" />
        </clipPath>
    </defs>
</svg>
    