<svg width="18" height="19" viewBox="0 0 18 19" fill="none" xmlns="http://www.w3.org/2000/svg">
    <g clip-path="url(#clip0_935_55855)">
        <path fill-rule="evenodd" clip-rule="evenodd" d="M2.98016 2.27881C4.73404 2.50113 6.43421 3.03448 8.00081 3.85381C8.12512 3.92033 8.22892 4.01952 8.301 4.1407C8.37309 4.26187 8.41073 4.40042 8.40986 4.54141V15.3198C8.41031 15.4465 8.37961 15.5714 8.32047 15.6834C8.26134 15.7954 8.17557 15.8912 8.07072 15.9624C7.96587 16.0335 7.84515 16.0777 7.71918 16.0912C7.59321 16.1047 7.46585 16.0871 7.34831 16.0398C5.90498 15.4297 4.39446 14.9927 2.84831 14.738L2.60801 14.7069C2.23634 14.653 1.89567 14.4695 1.64618 14.1888C1.39668 13.9081 1.25442 13.5483 1.24451 13.1729V3.96001C1.24433 3.73918 1.28769 3.52049 1.37212 3.31643C1.45655 3.11238 1.58037 2.92698 1.73652 2.77083C1.89267 2.61468 2.07808 2.49085 2.28213 2.40642C2.48618 2.322 2.70488 2.27863 2.92571 2.27881H2.98016ZM5.32016 6.19921H3.57686C3.42272 6.19921 3.2749 6.26044 3.16591 6.36943C3.05691 6.47842 2.99568 6.62625 2.99568 6.78038C2.99568 6.93452 3.05691 7.08235 3.16591 7.19134C3.2749 7.30033 3.42272 7.36156 3.57686 7.36156H5.32016C5.4743 7.36156 5.62212 7.30033 5.73111 7.19134C5.8401 7.08235 5.90133 6.93452 5.90133 6.78038C5.90133 6.62625 5.8401 6.47842 5.73111 6.36943C5.62212 6.26044 5.4743 6.19921 5.32016 6.19921ZM3.57686 9.68581H5.90111C6.05524 9.68581 6.20307 9.62458 6.31206 9.51559C6.42105 9.4066 6.48228 9.25877 6.48228 9.10463C6.48228 8.9505 6.42105 8.80267 6.31206 8.69368C6.20307 8.58469 6.05524 8.52346 5.90111 8.52346H3.57686C3.42272 8.52346 3.2749 8.58469 3.16591 8.69368C3.05691 8.80267 2.99568 8.9505 2.99568 9.10463C2.99568 9.25877 3.05691 9.4066 3.16591 9.51559C3.2749 9.62458 3.42272 9.68581 3.57686 9.68581Z" fill="#EFF1F8" />
        <path d="M16.7481 13.1729V3.96001C16.7483 3.73903 16.7048 3.52019 16.6203 3.31602C16.5358 3.11185 16.4118 2.92636 16.2554 2.77019C16.0991 2.61402 15.9135 2.49023 15.7092 2.40591C15.505 2.32159 15.2861 2.2784 15.0651 2.27881H15.0201C13.2662 2.50113 11.566 3.03448 9.99944 3.85381C9.87451 3.92045 9.76976 4.01941 9.69614 4.14037C9.62253 4.26132 9.58274 4.39983 9.58095 4.54141V15.3189C9.58023 15.4459 9.61081 15.5711 9.66998 15.6835C9.72915 15.7959 9.81509 15.8919 9.92021 15.9632C10.0253 16.0344 10.1464 16.0787 10.2727 16.0921C10.399 16.1054 10.5266 16.0875 10.6443 16.0398C12.0876 15.4297 13.5981 14.9927 15.1443 14.738L15.3846 14.7069C15.7563 14.653 16.0969 14.4695 16.3464 14.1888C16.5959 13.9081 16.7382 13.5483 16.7481 13.1729Z" fill="#EFF1F8" />
    </g>
    <defs>
        <clipPath id="clip0_935_55855">
            <rect width="18" height="18" fill="white" transform="translate(0 0.5)" />
        </clipPath>
    </defs>
</svg>
    