<svg width="18" height="19" viewBox="0 0 18 19" fill="none" xmlns="http://www.w3.org/2000/svg">
    <path d="M14.182 15.8698C14.0399 15.8698 13.9031 15.816 13.7991 15.7191C13.7477 15.6693 13.7066 15.6098 13.6784 15.5441C13.6502 15.4783 13.6353 15.4076 13.6346 15.3361C13.6339 15.2645 13.6475 15.1935 13.6745 15.1273C13.7015 15.061 13.7414 15.0007 13.7919 14.95C14.563 14.1641 15.129 13.2005 15.4398 12.1442C15.7507 11.0879 15.797 9.97135 15.5746 8.89295C15.3522 7.81456 14.868 6.80743 14.1645 5.96033C13.4611 5.11323 12.5601 4.45217 11.5409 4.03542C10.5218 3.61866 9.41573 3.459 8.32031 3.57052C7.22488 3.68203 6.17371 4.0613 5.25943 4.67488C4.34515 5.28846 3.59584 6.11753 3.07754 7.089C2.55924 8.06047 2.28787 9.14452 2.28735 10.2456C2.28217 11.9985 2.96785 13.6829 4.19584 14.9338C4.29428 15.0373 4.34806 15.1754 4.34557 15.3182C4.34309 15.461 4.28454 15.5971 4.18257 15.6972C4.0806 15.7972 3.94338 15.8531 3.80055 15.8528C3.65771 15.8525 3.52071 15.7961 3.41912 15.6957C2.52549 14.7806 1.87057 13.6598 1.51202 12.4321C1.15347 11.2043 1.10229 9.90719 1.36299 8.65499C1.6237 7.40279 2.18829 6.2339 3.00704 5.25124C3.8258 4.26858 4.8736 3.50231 6.05819 3.0199C7.24278 2.53748 8.52781 2.35372 9.80013 2.4848C11.0724 2.61589 12.293 3.05778 13.3544 3.77159C14.4157 4.48539 15.2853 5.44921 15.8865 6.57816C16.4877 7.7071 16.8021 8.96656 16.802 10.2456C16.8077 12.2908 16.0042 14.2552 14.5668 15.7101C14.5169 15.7615 14.4571 15.8022 14.3909 15.8296C14.3247 15.8571 14.2537 15.8708 14.182 15.8698Z" fill="#EFF1F8" />
    <path d="M9.00051 17.3191C8.40846 17.3198 7.82949 17.1449 7.33682 16.8166C6.84415 16.4882 6.45991 16.0212 6.23269 15.4745C6.00546 14.9277 5.94546 14.3259 6.06026 13.7451C6.17507 13.1643 6.45953 12.6306 6.87767 12.2114C7.29581 11.7923 7.82885 11.5065 8.40939 11.3903C8.98993 11.2741 9.59188 11.3327 10.1391 11.5586C10.6864 11.7845 11.1544 12.1676 11.4839 12.6595C11.8134 13.1514 11.9897 13.7299 11.9904 14.322C11.9909 15.1158 11.6762 15.8773 11.1156 16.4392C10.555 17.0012 9.79429 17.3176 9.00051 17.3191ZM9.00051 12.4202C8.62459 12.4203 8.25713 12.5318 7.94457 12.7407C7.63201 12.9496 7.38838 13.2464 7.24448 13.5937C7.10058 13.941 7.06286 14.3232 7.13609 14.6919C7.20932 15.0606 7.39022 15.3994 7.65591 15.6653C7.9216 15.9313 8.26017 16.1125 8.62883 16.1861C8.99748 16.2596 9.37968 16.2223 9.72711 16.0787C10.0745 15.9351 10.3716 15.6918 10.5808 15.3794C10.7899 15.0671 10.9018 14.6997 10.9023 14.3238C10.9018 13.8196 10.7013 13.3362 10.3447 12.9797C9.98814 12.6233 9.5047 12.4228 9.00051 12.4225V12.4202Z" fill="#EFF1F8" />
    <path d="M14.3054 8.10335C14.4151 8.19541 14.4838 8.32729 14.4963 8.46996C14.5087 8.61264 14.464 8.75443 14.372 8.86414L12.4484 11.1566C12.3559 11.2668 12.2235 11.3357 12.0802 11.3482C11.937 11.3608 11.7946 11.3159 11.6844 11.2234C11.5743 11.131 11.5053 10.9986 11.4928 10.8553C11.4803 10.712 11.5251 10.5696 11.6176 10.4595L13.5412 8.16702C13.587 8.1124 13.6432 8.0674 13.7065 8.03461C13.7698 8.00182 13.839 7.98189 13.91 7.97597C13.9811 7.97005 14.0526 7.97826 14.1205 8.00012C14.1883 8.02199 14.2512 8.05707 14.3054 8.10335Z" fill="#EFF1F8" />
</svg>
    