<svg width="16" height="16" viewBox="0 0 16 16" fill="none" xmlns="http://www.w3.org/2000/svg">
<g opacity="0.8" clip-path="url(#clip0_30602_18338)">
<path d="M8.00053 14.8797C6.40609 14.8821 4.86013 14.3316 3.62619 13.3218C2.39225 12.312 1.54671 10.9055 1.2337 9.34212C0.920685 7.77871 1.15957 6.15506 1.90964 4.74806C2.65972 3.34107 3.87455 2.23776 5.34705 1.62621C6.81954 1.01465 8.45856 0.932723 9.98471 1.39437C11.5109 1.85601 12.8297 2.83274 13.7163 4.15791C14.603 5.48308 15.0026 7.0747 14.8471 8.66154C14.6916 10.2484 13.9905 11.7322 12.8634 12.86C12.2254 13.4997 11.4675 14.0073 10.633 14.3539C9.79862 14.7004 8.90406 14.8791 8.00053 14.8797ZM8.00053 2.07934C6.6292 2.07781 5.29977 2.55185 4.23886 3.42078C3.17796 4.28971 2.45124 5.49974 2.18259 6.8445C1.91393 8.18926 2.11996 9.58552 2.76556 10.7954C3.41117 12.0052 4.45638 12.9538 5.72304 13.4792C6.9897 14.0047 8.3994 14.0746 9.71185 13.6771C11.0243 13.2796 12.1583 12.4391 12.9204 11.2991C13.6826 10.1591 14.0258 8.79003 13.8916 7.42528C13.7573 6.06053 13.1539 4.7846 12.1842 3.81493C11.0742 2.70561 9.56986 2.08122 8.00053 2.07846V2.07934Z" fill="#F2F2F8"/>
<path d="M10.3755 10.5135C10.2895 10.514 10.2051 10.49 10.1323 10.4442L8.14824 9.25786C7.89465 9.09372 7.68434 8.87087 7.53513 8.60823C7.38591 8.34559 7.30218 8.05089 7.29102 7.74903V5.1265C7.29155 4.9996 7.34232 4.87808 7.43222 4.7885C7.47637 4.74356 7.52905 4.70789 7.58715 4.68352C7.64526 4.65915 7.70762 4.64661 7.77063 4.64661C7.83364 4.64661 7.89602 4.65915 7.95412 4.68352C8.01222 4.70789 8.06488 4.74356 8.10904 4.7885C8.19909 4.87801 8.25001 4.99954 8.25065 5.1265V7.74903C8.26265 7.88415 8.30357 8.0151 8.37064 8.13302C8.43699 8.25191 8.52928 8.35433 8.64065 8.43264L10.6243 9.619C10.6787 9.65001 10.7262 9.69185 10.7639 9.74185C10.8002 9.79303 10.8273 9.85011 10.8439 9.91061C10.8592 9.97208 10.8623 10.0359 10.8531 10.0986C10.8444 10.1611 10.8231 10.2212 10.7903 10.2751C10.7469 10.3468 10.6859 10.4063 10.6131 10.4478C10.541 10.4901 10.4591 10.5128 10.3755 10.5135V10.5135Z" fill="#F2F2F8"/>
</g>
<defs>
<clipPath id="clip0_30602_18338">
<rect width="16" height="16" fill="white"/>
</clipPath>
</defs>
</svg>
