<svg width="16" height="16" viewBox="0 0 12 12" fill="none" xmlns="http://www.w3.org/2000/svg">
<g clip-path="url(#clip0_30602_17342)">
<path d="M1.87117 3.16794C1.8662 3.12132 1.87036 3.07396 1.88375 3.02903C1.89713 2.9841 1.91952 2.94241 1.9492 2.90612C1.97888 2.86983 2.0153 2.83984 2.05667 2.8178C2.09805 2.79576 2.14348 2.78217 2.19016 2.77778L3.16083 2.6826C3.44621 2.65333 3.71864 2.62905 3.98031 2.60914C3.98134 2.6051 3.98207 2.60099 3.9826 2.59685L4.08721 1.97374C4.16331 1.51656 4.26817 0.883301 5.37659 0.883301H6.62367C7.73589 0.883301 7.8422 1.54017 7.91362 1.97803L8.01823 2.59657C8.01823 2.60388 8.02051 2.61154 8.02109 2.61886C8.57281 2.65984 9.15719 2.71369 9.80667 2.7775C9.90058 2.78726 9.98672 2.8336 10.0465 2.90669C10.1062 2.97978 10.1347 3.07368 10.1257 3.16766C10.1183 3.25606 10.0778 3.33834 10.0125 3.39832C9.94711 3.45831 9.86165 3.49145 9.77294 3.49122H9.73521C7.21808 3.23892 5.72391 3.14373 3.23429 3.39603C2.25173 3.49204 2.23901 3.49264 2.2276 3.49264C2.13838 3.49266 2.0523 3.45956 1.98636 3.39946C1.92041 3.33937 1.87941 3.25678 1.87117 3.16794ZM7.29565 2.5717L7.21562 2.09722C7.1486 1.68336 7.13455 1.60216 6.63024 1.60216H5.38345C4.87856 1.60216 4.8689 1.66913 4.79807 2.09265L4.71518 2.56255C5.12494 2.54206 5.51704 2.5334 5.90252 2.5334C6.36702 2.5334 6.82413 2.54624 7.29565 2.5717Z" fill="#F2F2F8"/>
<path d="M4.47481 11.1158C2.81408 11.1158 2.74791 10.1971 2.69523 9.45483L2.38539 4.66203C2.37983 4.56753 2.41161 4.47456 2.474 4.40335C2.53638 4.33215 2.62426 4.28822 2.71867 4.28131C3.78932 4.08508 4.87447 3.97859 5.96284 3.96289C7.07733 3.98132 8.18876 4.08776 9.28647 4.28131C9.33336 4.28436 9.37924 4.29682 9.42138 4.31761C9.46353 4.33839 9.50104 4.36716 9.532 4.4025C9.56297 4.43784 9.58668 4.47889 9.60174 4.5234C9.61681 4.56791 9.62289 4.61515 9.61975 4.66203L9.31048 9.45483C9.2578 10.1971 9.19164 11.1158 7.53033 11.1158H4.47481ZM3.40866 9.4071C3.46135 10.1303 3.47995 10.4021 4.47481 10.4021H7.53033C8.53016 10.4021 8.54877 10.1306 8.59648 9.4071L8.88117 4.99474C7.92017 4.79943 6.94334 4.69296 5.96284 4.67661C5.00836 4.68969 4.05739 4.79622 3.12369 4.99474L3.40866 9.4071Z" fill="#F2F2F8"/>
</g>
<defs>
<clipPath id="clip0_30602_17342">
<rect width="16" height="16" fill="white"/>
</clipPath>
</defs>
</svg>
