<svg width="16" height="16" viewBox="0 0 18 18" fill="none" xmlns="http://www.w3.org/2000/svg">
    <g clip-path="url(#clip0_30621_23432)">
        <path d="M2.80773 4.75118C2.80027 4.68125 2.80651 4.6102 2.82659 4.54281C2.84668 4.47541 2.88026 4.41289 2.92478 4.35845C2.96929 4.30401 3.02392 4.25903 3.08599 4.22597C3.14805 4.1929 3.21619 4.17252 3.28621 4.16594L4.74223 4.02317C5.17029 3.97927 5.57894 3.94284 5.97144 3.91298C5.97299 3.90691 5.97408 3.90076 5.97487 3.89455L6.13179 2.95988C6.24594 2.27411 6.40323 1.32422 8.06586 1.32422H9.93648C11.6048 1.32422 11.7643 2.30952 11.8714 2.96631L12.0283 3.89412C12.0283 3.90509 12.0317 3.91658 12.0326 3.92756C12.8602 3.98902 13.7368 4.0698 14.711 4.16551C14.8518 4.18015 14.9811 4.24967 15.0707 4.35931C15.1603 4.46894 15.2031 4.60979 15.1895 4.75075C15.1784 4.88336 15.1177 5.00677 15.0197 5.09675C14.9216 5.18673 14.7935 5.23644 14.6604 5.23609H14.6038C10.8281 4.85764 8.58685 4.71487 4.85242 5.09332C3.37857 5.23732 3.3595 5.23823 3.34237 5.23823C3.20854 5.23826 3.07943 5.18861 2.98051 5.09846C2.88159 5.00832 2.8201 4.88444 2.80773 4.75118ZM10.9445 3.85682L10.8244 3.1451C10.7239 2.5243 10.7028 2.40251 9.94634 2.40251H8.07615C7.31881 2.40251 7.30433 2.50296 7.19808 3.13824L7.07374 3.8431C7.68839 3.81236 8.27654 3.79937 8.85475 3.79937C9.5515 3.79937 10.2372 3.81862 10.9445 3.85682Z" fill="#EFF1F8" />
        <path d="M6.71123 16.6737C4.22015 16.6737 4.12089 15.2956 4.04187 14.1822L3.57711 6.99305C3.56877 6.8513 3.61644 6.71183 3.71002 6.60503C3.80359 6.49823 3.93541 6.43233 4.07702 6.42196C5.683 6.12762 7.31073 5.96789 8.94328 5.94434C10.615 5.97197 12.2822 6.13165 13.9287 6.42196C13.9991 6.42653 14.0679 6.44524 14.1311 6.47641C14.1943 6.50758 14.2506 6.55073 14.297 6.60375C14.3435 6.65676 14.379 6.71834 14.4016 6.78511C14.4242 6.85187 14.4334 6.92272 14.4286 6.99305L13.9647 14.1822C13.8857 15.2956 13.7865 16.6737 11.2945 16.6737H6.71123ZM5.11201 14.1106C5.19104 15.1955 5.21895 15.6031 6.71123 15.6031H11.2945C12.7943 15.6031 12.8222 15.1959 12.8937 14.1106L13.3208 7.49211C11.8793 7.19915 10.414 7.03944 8.94328 7.01491C7.51156 7.03453 6.08511 7.19433 4.68456 7.49211L5.11201 14.1106Z" fill="#EFF1F8" />
    </g>
    <defs>
        <clipPath id="clip0_30621_23432">
            <rect width="18" height="18" fill="white" />
        </clipPath>
    </defs>
</svg>