<svg width="24" height="24" viewBox="0 0 24 24" fill="none" xmlns="http://www.w3.org/2000/svg">
<g clip-path="url(#clip0_31565_21060)">
<path d="M9.60462 17.4033C9.47983 17.4037 9.3573 17.3708 9.24953 17.3079C9.18308 17.2704 9.12362 17.2216 9.07374 17.1639L7.22794 15.3175C7.09676 15.1849 7.02344 15.0061 7.02344 14.8196C7.02344 14.6331 7.09676 14.4541 7.22794 14.3215C7.36037 14.1906 7.53917 14.1172 7.72543 14.1172C7.91168 14.1172 8.09048 14.1906 8.22291 14.3215L8.90029 14.9977V11.0603C8.90155 10.8739 8.97647 10.6954 9.10831 10.5636C9.24014 10.4317 9.41818 10.3571 9.60462 10.3558C9.79117 10.3571 9.97008 10.4318 10.1021 10.5636C10.2341 10.6954 10.3091 10.8738 10.3107 11.0603V14.9977L10.9869 14.3215C11.1196 14.1906 11.2986 14.1172 11.485 14.1172C11.6714 14.1172 11.8503 14.1906 11.9831 14.3215C12.1137 14.4544 12.1864 14.6333 12.1864 14.8196C12.1864 15.0059 12.1137 15.1846 11.9831 15.3175L10.1027 17.1969C10.0379 17.2624 9.96101 17.3144 9.87592 17.3498C9.79084 17.3852 9.69972 17.4034 9.60755 17.4033H9.60462Z" fill="#E5E9F0"/>
<path d="M14.3024 22.1014H9.60466C4.50441 22.1014 2.32227 19.9215 2.32227 14.8195V9.17927C2.32227 4.07902 4.50261 1.89673 9.60466 1.89673H15.2446C20.3448 1.89673 22.527 4.07662 22.527 9.17927V14.8195C22.527 19.9197 20.3466 22.1014 15.2446 22.1014H14.3024ZM9.60466 20.6921H15.2446C19.5762 20.6921 21.1171 19.1511 21.1171 14.8195V9.17927C21.1171 4.84765 19.5762 3.30613 15.2446 3.30613H9.60466C5.27304 3.30613 3.7321 4.84705 3.7321 9.17927V14.8195C3.7315 19.1505 5.27304 20.6921 9.60466 20.6921Z" fill="#E5E9F0"/>
</g>
<defs>
<clipPath id="clip0_31565_21060">
<rect width="24" height="24" fill="white"/>
</clipPath>
</defs>
</svg>
