<svg width="24" height="24" viewBox="0 0 40 40" fill="none" xmlns="http://www.w3.org/2000/svg">
    <g clip-path="url(#clip0_31371_30392)">
        <path d="M18.1399 34.2841H14.1526C8.31859 34.2841 5.71606 31.6841 5.71606 25.8471V20.7971C5.71606 14.9641 8.31556 12.3591 14.1536 12.3591H19.2034C25.0374 12.3591 27.6409 14.9591 27.6409 20.7971V25.8471C27.6409 31.6801 25.0414 34.2851 19.2034 34.2851L18.1399 34.2841ZM14.1526 32.291H19.2024C23.9604 32.291 25.6458 30.6039 25.6458 25.8459V20.7961C25.6458 16.0391 23.9594 14.351 19.2024 14.351H14.1526C9.39559 14.351 7.70923 16.0391 7.70923 20.7961V25.8459C7.70823 30.6029 9.39559 32.289 14.1526 32.289V32.291Z" fill="#EFF1F8" />
        <path d="M31.1047 25.6679C30.9607 25.5579 31 25.425 30.969 25.226V24.226C30.9821 24.0407 31.0279 23.8593 31.1047 23.6901C31.19 23.535 31.3068 23.3987 31.4465 23.29C31.9744 22.7338 32.2684 21.9967 32.2698 21.2299V10.663C32.2562 10.5972 32.2497 10.5303 32.2493 10.4631C32.2489 9.91376 32.0837 9.3772 31.7747 8.92304C31.4656 8.46888 31.0267 8.11797 30.5159 7.91596C30.213 7.80401 29.8924 7.74684 29.5696 7.74701C29.5024 7.74669 29.4362 7.73966 29.3704 7.72602H18.8079C18.0406 7.72736 17.3035 8.02255 16.7473 8.55097C16.6381 8.68998 16.5017 8.80569 16.3469 8.89106C16.1774 8.96812 15.9955 9.01447 15.8098 9.02802H14.8098C14.6098 8.99702 14.4784 9.03606 14.3684 8.89106C14.3254 8.82575 14.302 8.74929 14.302 8.67109C14.302 8.59288 14.3254 8.51643 14.3684 8.45112C14.503 8.18837 14.6603 7.93801 14.8391 7.70307C15.1429 7.30324 15.5055 6.95163 15.9143 6.6601C16.3259 6.36459 16.7802 6.13412 17.262 5.97699C17.7615 5.81414 18.2835 5.73158 18.8088 5.73212H29.5754C30.207 5.73125 30.8321 5.85793 31.4133 6.10492C31.6933 6.22484 31.961 6.37118 32.2131 6.54194C32.4644 6.71215 32.699 6.90614 32.9133 7.12104C32.9402 7.14687 32.9595 7.17927 32.97 7.21503C33.1482 7.40382 33.3111 7.60676 33.4563 7.82196C33.6278 8.07388 33.7739 8.34184 33.8938 8.62201C34.1403 9.20337 34.267 9.82868 34.2659 10.4601V21.226C34.2665 21.751 34.184 22.2726 34.0217 22.7719C33.8644 23.2539 33.6344 23.7089 33.3391 24.121C33.0477 24.5294 32.6965 24.8914 32.2971 25.195C32.0619 25.3738 31.8112 25.5314 31.5481 25.666C31.4739 25.7073 31.3908 25.7307 31.3059 25.7341C31.2334 25.7353 31.1624 25.7119 31.1047 25.6679Z" fill="#EFF1F8" />
    </g>
    <defs>
        <clipPath id="clip0_31371_30392">
            <rect width="39.998" height="39.998" fill="white" />
        </clipPath>
    </defs>
</svg>