<svg width="16" height="16" viewBox="0 0 12 12" fill="none" xmlns="http://www.w3.org/2000/svg">
<g clip-path="url(#clip0_30602_18448)">
<path d="M5.44218 10.2857H4.24593C2.49564 10.2857 1.71484 9.50569 1.71484 7.7545V6.23941C1.71484 4.48942 2.49473 3.70789 4.24622 3.70789H5.76124C7.51153 3.70789 8.29261 4.48792 8.29261 6.23941V7.7545C8.29261 9.50449 7.51273 10.286 5.76124 10.286L5.44218 10.2857ZM4.24593 9.68775H5.76094C7.18842 9.68775 7.69405 9.18161 7.69405 7.75413V6.23912C7.69405 4.81194 7.18812 4.3055 5.76094 4.3055H4.24593C2.81876 4.3055 2.31282 4.81194 2.31282 6.23912V7.75413C2.31252 9.18131 2.81876 9.68717 4.24593 9.68717V9.68775Z" fill="#F2F2F8"/>
<path d="M9.33209 7.70076C9.28889 7.66776 9.30066 7.62789 9.29136 7.56819V7.26817C9.2953 7.21257 9.30904 7.15815 9.33209 7.1074C9.35766 7.06085 9.39272 7.01997 9.43463 6.98735C9.59299 6.8205 9.68122 6.59933 9.68162 6.3693V3.19907C9.67756 3.17933 9.67559 3.15925 9.67547 3.13909C9.67535 2.97428 9.62578 2.81331 9.53308 2.67705C9.44037 2.5408 9.30867 2.43552 9.15542 2.37491C9.06457 2.34133 8.96838 2.32417 8.87152 2.32423C8.85136 2.32413 8.83149 2.32202 8.81175 2.31793H5.64284C5.41266 2.31833 5.19152 2.40689 5.02465 2.56542C4.99189 2.60713 4.95096 2.64185 4.90452 2.66746C4.85367 2.69058 4.79909 2.70448 4.74338 2.70855H4.44337C4.38336 2.69925 4.34394 2.71096 4.31094 2.66746C4.29803 2.64786 4.29102 2.62492 4.29102 2.60146C4.29102 2.578 4.29803 2.55506 4.31094 2.53547C4.35132 2.45664 4.39852 2.38153 4.45216 2.31104C4.54329 2.19109 4.65208 2.0856 4.77473 1.99814C4.89822 1.90948 5.03452 1.84033 5.17905 1.79319C5.3289 1.74433 5.48552 1.71956 5.64313 1.71973H8.87328C9.06275 1.71947 9.25029 1.75747 9.42467 1.83157C9.50866 1.86755 9.58897 1.91145 9.66463 1.96268C9.74001 2.01375 9.8104 2.07195 9.87469 2.13642C9.88275 2.14417 9.88854 2.15389 9.89169 2.16462C9.94516 2.22126 9.99402 2.28215 10.0376 2.34671C10.089 2.42229 10.1329 2.50268 10.1688 2.58674C10.2428 2.76115 10.2808 2.94876 10.2805 3.13821V6.36813C10.2807 6.52563 10.2559 6.68213 10.2072 6.83192C10.16 6.97651 10.091 7.11304 10.0024 7.23668C9.91501 7.35918 9.80963 7.4678 9.68982 7.55889C9.61924 7.61254 9.54404 7.65981 9.4651 7.70018C9.44284 7.71257 9.41791 7.7196 9.39244 7.72061C9.37069 7.72097 9.3494 7.71395 9.33209 7.70076Z" fill="#F2F2F8"/>
</g>
<defs>
<clipPath id="clip0_30602_18448">
<rect width="16" height="16" fill="white"/>
</clipPath>
</defs>
</svg>
