<svg width="16" height="16" viewBox="0 0 12 12" fill="none" xmlns="http://www.w3.org/2000/svg">
<g clip-path="url(#clip0_30602_17347)">
<path d="M2.34187 11.2018C1.93106 11.2065 1.53448 11.0504 1.23706 10.767C1.06634 10.5967 0.940248 10.387 0.86967 10.1564C0.79629 9.91468 0.779626 9.65917 0.821036 9.40993L1.07417 7.61809C1.11011 7.40078 1.17949 7.19028 1.27954 6.99405C1.37499 6.79456 1.50137 6.61152 1.65397 6.45146L6.35037 1.75505C6.98429 1.12114 7.63875 0.799072 8.29427 0.799072C8.67319 0.804003 9.04504 0.903558 9.37594 1.08824C9.69803 1.26688 9.99208 1.49144 10.2493 1.75505C10.567 2.06027 10.8247 2.42234 11.0087 2.82266C11.1626 3.1657 11.2253 3.54286 11.1903 3.91722C11.1604 4.22517 11.0662 4.52339 10.9138 4.79263C10.7332 5.10945 10.5093 5.39972 10.249 5.65515L5.55348 10.351C5.22722 10.653 4.82226 10.8569 4.38538 10.9393L2.59354 11.1924C2.55124 11.1924 2.50506 11.1947 2.46756 11.1971C2.43006 11.1995 2.38418 11.2018 2.34187 11.2018ZM8.27318 1.53767C7.99727 1.55381 7.72752 1.6249 7.4795 1.74685C7.23148 1.8688 7.01036 2.03891 6.8291 2.24755L2.03952 7.00958C1.81471 7.25046 1.66484 7.55185 1.60856 7.8765L1.42047 9.20778C1.38843 9.3882 1.3999 9.57371 1.45357 9.74891C1.50724 9.92411 1.60167 10.0841 1.72926 10.2156C1.95035 10.4256 2.24439 10.5413 2.5493 10.5379C2.5793 10.5379 2.61515 10.5359 2.64335 10.5341H2.64628C2.67628 10.5341 2.70832 10.5306 2.73622 10.5306L4.06721 10.3431C4.39155 10.2815 4.69196 10.13 4.93442 9.90594L9.72546 5.14391C10.1038 4.81027 10.3511 4.35313 10.4236 3.85393C10.4782 3.30672 10.2439 2.76625 9.72546 2.24813C9.54304 2.03891 9.32055 1.86831 9.07124 1.74626C8.82194 1.62421 8.5506 1.55342 8.27347 1.53767H8.27318Z" fill="#F2F2F8"/>
<path d="M9.10063 6.52242C9.03959 6.52274 8.97899 6.51368 8.92074 6.49547C8.1087 6.26435 7.36905 5.82974 6.77205 5.23274C6.17505 4.63574 5.74044 3.89609 5.50933 3.08405C5.46324 2.9178 5.48138 2.74042 5.5606 2.58717C5.63981 2.43391 5.7742 2.31612 5.93648 2.25757C5.925 2.34746 5.93137 2.43859 5.95553 2.52593C6.18661 3.33796 6.62124 4.07766 7.21825 4.67462C7.81527 5.27158 8.5549 5.70605 9.36694 5.93705C9.42513 5.95561 9.48605 5.96516 9.54712 5.96489C9.62361 5.96493 9.69955 5.95148 9.77154 5.92563C9.76728 5.95901 9.76073 5.9921 9.7522 6.02465C9.71301 6.16748 9.6282 6.29365 9.5105 6.38355C9.3928 6.47345 9.24874 6.52219 9.10063 6.52242Z" fill="#F2F2F8"/>
</g>
<defs>
<clipPath id="clip0_30602_17347">
<rect width="16" height="16" fill="white"/>
</clipPath>
</defs>
</svg>
