<svg width="16" height="16" viewBox="0 0 18 18" fill="none" xmlns="http://www.w3.org/2000/svg">
    <g clip-path="url(#clip0_30621_23428)">
        <path d="M3.5119 16.8023C2.89568 16.8094 2.30081 16.5753 1.85468 16.1501C1.5986 15.8947 1.40946 15.5801 1.30359 15.2343C1.19352 14.8716 1.16852 14.4884 1.23064 14.1145L1.61034 11.4268C1.66424 11.1008 1.76832 10.7851 1.9184 10.4907C2.06157 10.1915 2.25113 9.91692 2.48003 9.67682L9.52464 2.63221C10.4755 1.68134 11.4572 1.19824 12.4405 1.19824C13.0089 1.20564 13.5666 1.35497 14.063 1.63199C14.5461 1.89995 14.9872 2.2368 15.373 2.63221C15.8496 3.09004 16.2361 3.63314 16.5121 4.23362C16.743 4.74818 16.837 5.31392 16.7846 5.87546C16.7397 6.33738 16.5984 6.78472 16.3697 7.18858C16.0988 7.66381 15.763 8.09922 15.3726 8.48236L8.3293 15.5261C7.83992 15.9791 7.23248 16.2849 6.57716 16.4085L3.8894 16.7882C3.82594 16.7882 3.75668 16.7917 3.70043 16.7953C3.64418 16.7989 3.57535 16.8023 3.5119 16.8023ZM12.4088 2.30613C11.995 2.33035 11.5904 2.43699 11.2183 2.61991C10.8463 2.80283 10.5146 3.058 10.2427 3.37095L3.05837 10.514C2.72114 10.8753 2.49634 11.3274 2.41192 11.8144L2.12978 13.8113C2.08174 14.0819 2.09893 14.3602 2.17944 14.623C2.25995 14.8858 2.40159 15.1258 2.59298 15.3231C2.92461 15.6381 3.36567 15.8115 3.82304 15.8065C3.86804 15.8065 3.9218 15.8035 3.96411 15.8008H3.9685C4.0135 15.8008 4.06156 15.7955 4.10342 15.7955L6.0999 15.5142C6.58641 15.4218 7.03702 15.1946 7.40071 14.8585L14.5873 7.7155C15.1548 7.21504 15.5257 6.52933 15.6345 5.78053C15.7164 4.95971 15.3649 4.149 14.5873 3.37183C14.3136 3.058 13.9799 2.80211 13.6059 2.61903C13.232 2.43595 12.825 2.32977 12.4093 2.30613H12.4088Z" fill="#EFF1F8" />
        <path d="M13.6509 9.784C13.5594 9.78448 13.4685 9.77089 13.3811 9.74357C12.163 9.3969 11.0536 8.74498 10.1581 7.84948C9.26257 6.95397 8.61066 5.84451 8.26399 4.62645C8.19486 4.37707 8.22207 4.111 8.34089 3.88112C8.45972 3.65123 8.6613 3.47454 8.90473 3.38672C8.88749 3.52155 8.89705 3.65826 8.93329 3.78927C9.27991 5.00731 9.93187 6.11686 10.8274 7.0123C11.7229 7.90774 12.8323 8.55944 14.0504 8.90595C14.1377 8.93379 14.2291 8.94811 14.3207 8.9477C14.4354 8.94777 14.5493 8.92759 14.6573 8.88881C14.6509 8.93888 14.6411 8.98852 14.6283 9.03735C14.5695 9.25159 14.4423 9.44084 14.2657 9.57569C14.0892 9.71055 13.8731 9.78365 13.6509 9.784V9.784Z" fill="#EFF1F8" />
    </g>
    <defs>
        <clipPath id="clip0_30621_23428">
            <rect width="18" height="18" fill="white" />
        </clipPath>
    </defs>
</svg>