<svg width="16" height="16" viewBox="0 0 16 16" fill="none" xmlns="http://www.w3.org/2000/svg">
<g opacity="0.8" clip-path="url(#clip0_30602_18331)">
<path d="M8.01015 11.2065C7.47244 11.2133 6.94368 11.0684 6.48455 10.7885L2.62535 8.26849C2.27324 8.03919 1.98393 7.72558 1.78367 7.35618C1.5834 6.98678 1.47852 6.57325 1.47852 6.15306C1.47852 5.73286 1.5834 5.31933 1.78367 4.94993C1.98393 4.58053 2.27324 4.26697 2.62535 4.03768L6.49095 1.52488C6.95276 1.25038 7.48024 1.1059 8.01747 1.10682C8.55471 1.10773 9.08168 1.25398 9.54255 1.53006L13.3826 4.05008C13.7329 4.27921 14.0206 4.59202 14.2198 4.96023C14.419 5.32845 14.5232 5.74044 14.5232 6.15906C14.5232 6.57768 14.419 6.98973 14.2198 7.35794C14.0206 7.72615 13.7329 8.03892 13.3826 8.26805L9.54255 10.7881C9.08263 11.072 8.55056 11.2173 8.01015 11.2065ZM8.01015 2.07005C7.66038 2.06 7.31521 2.15172 7.01655 2.33406L3.15735 4.84685C2.93952 4.98851 2.76053 5.18233 2.63662 5.41072C2.5127 5.63911 2.4478 5.89483 2.4478 6.15467C2.4478 6.4145 2.5127 6.67023 2.63662 6.89861C2.76053 7.127 2.93952 7.32083 3.15735 7.46248L7.01655 9.98245C7.32196 10.1539 7.66632 10.244 8.01655 10.244C8.36679 10.244 8.71115 10.1539 9.01655 9.98245L12.8578 7.46087C13.0745 7.31844 13.2525 7.12436 13.3757 6.89607C13.4989 6.66779 13.5633 6.41245 13.5633 6.15306C13.5633 5.89366 13.4989 5.63837 13.3757 5.41009C13.2525 5.1818 13.0745 4.98772 12.8578 4.84529L9.01776 2.32527C8.71117 2.15155 8.36369 2.06302 8.01135 2.06888L8.01015 2.07005Z" fill="#F2F2F8"/>
<path d="M8.00279 14.8912C7.7317 14.8951 7.46171 14.856 7.20279 14.7756L5.15799 14.0956C4.66497 13.9124 4.23768 13.5865 3.93057 13.1595C3.62346 12.7325 3.45045 12.2238 3.43359 11.6981L3.43999 8.69285C3.44053 8.56575 3.49145 8.44402 3.58159 8.35442C3.62563 8.30869 3.67844 8.27233 3.73686 8.24749C3.79528 8.22264 3.85811 8.20984 3.92159 8.20984C3.98508 8.20984 4.04791 8.22264 4.10633 8.24749C4.16475 8.27233 4.21756 8.30869 4.2616 8.35442C4.35174 8.44402 4.40266 8.56575 4.4032 8.69285L4.39679 11.6981C4.41752 12.0215 4.52892 12.3324 4.71823 12.5954C4.90754 12.8585 5.16711 13.0628 5.4672 13.1852L7.512 13.8653C7.83563 13.9498 8.17556 13.9498 8.4992 13.8653L10.544 13.1852C10.8436 13.0642 11.103 12.8611 11.2923 12.5993C11.4817 12.3375 11.5933 12.0276 11.6144 11.7052V8.73083C11.6144 8.60353 11.665 8.48145 11.755 8.39143C11.845 8.30141 11.9671 8.25081 12.0944 8.25081C12.2217 8.25081 12.3438 8.30141 12.4338 8.39143C12.5238 8.48145 12.5744 8.60353 12.5744 8.73083V11.7052C12.5551 12.2303 12.3811 12.7379 12.0743 13.1645C11.7675 13.591 11.3416 13.9175 10.85 14.1029L8.8052 14.7828C8.54432 14.8573 8.27408 14.8938 8.00279 14.8912Z" fill="#F2F2F8"/>
<path d="M14.0296 10.406C13.9023 10.4036 13.7808 10.3522 13.6904 10.2624C13.6003 10.1728 13.5494 10.0511 13.5488 9.92405V6.07761C13.5494 5.95051 13.6003 5.82884 13.6904 5.73923C13.7345 5.6935 13.7873 5.65715 13.8457 5.6323C13.9041 5.60745 13.9669 5.5946 14.0304 5.5946C14.0939 5.5946 14.1567 5.60745 14.2152 5.6323C14.2736 5.65715 14.3264 5.6935 14.3704 5.73923C14.4606 5.82884 14.5115 5.95051 14.512 6.07761V9.92405C14.5115 10.0511 14.4606 10.1728 14.3704 10.2624C14.2797 10.3526 14.1575 10.4041 14.0296 10.406Z" fill="#F2F2F8"/>
</g>
<defs>
<clipPath id="clip0_30602_18331">
<rect width="16" height="16" fill="white"/>
</clipPath>
</defs>
</svg>
