<svg width="18" height="19" viewBox="0 0 18 19" fill="none" xmlns="http://www.w3.org/2000/svg">
    <path d="M9.01118 13.1077C8.40625 13.1154 7.81139 12.9524 7.29488 12.6375L2.95328 9.80249C2.55715 9.54453 2.23168 9.19172 2.00638 8.77615C1.78108 8.36057 1.66309 7.89535 1.66309 7.42263C1.66309 6.94991 1.78108 6.48469 2.00638 6.06911C2.23168 5.65354 2.55715 5.30079 2.95328 5.04283L7.30208 2.21594C7.82161 1.90711 8.41502 1.74458 9.01941 1.74561C9.6238 1.74664 10.2167 1.91117 10.7351 2.22176L15.0551 5.05678C15.4493 5.31455 15.773 5.66647 15.997 6.08071C16.2211 6.49494 16.3384 6.95844 16.3384 7.42939C16.3384 7.90033 16.2211 8.36388 15.997 8.77812C15.773 9.19236 15.4493 9.54422 15.0551 9.80199L10.7351 12.637C10.2177 12.9565 9.61914 13.1199 9.01118 13.1077ZM9.01118 2.82925C8.61768 2.81794 8.22937 2.92113 7.89338 3.12626L3.55178 5.95315C3.30672 6.11251 3.10535 6.33057 2.96595 6.5875C2.82655 6.84444 2.75353 7.13213 2.75353 7.42444C2.75353 7.71676 2.82655 8.00445 2.96595 8.26138C3.10535 8.51832 3.30672 8.73637 3.55178 8.89573L7.89338 11.7307C8.23696 11.9236 8.62436 12.0249 9.01838 12.0249C9.4124 12.0249 9.7998 11.9236 10.1434 11.7307L14.4647 8.89392C14.7086 8.73369 14.9088 8.51535 15.0474 8.25852C15.186 8.0017 15.2585 7.71444 15.2585 7.42263C15.2585 7.13082 15.186 6.84361 15.0474 6.58679C14.9088 6.32997 14.7086 6.11163 14.4647 5.9514L10.1447 3.11637C9.79982 2.92093 9.4089 2.82134 9.01253 2.82793L9.01118 2.82925Z" fill="white" />
    <path d="M9.00314 17.2534C8.69817 17.2577 8.39442 17.2138 8.10314 17.1233L5.80274 16.3583C5.24809 16.1522 4.76739 15.7856 4.42189 15.3052C4.0764 14.8248 3.88176 14.2525 3.86279 13.6611L3.86999 10.2802C3.8706 10.1372 3.92789 10.0003 4.02929 9.89947C4.07883 9.84802 4.13824 9.80712 4.20396 9.77917C4.26969 9.75122 4.34037 9.73682 4.41179 9.73682C4.48321 9.73682 4.5539 9.75122 4.61962 9.77917C4.68535 9.80712 4.74476 9.84802 4.79429 9.89947C4.8957 10.0003 4.95299 10.1372 4.95359 10.2802L4.94639 13.6611C4.96971 14.0249 5.09504 14.3747 5.30801 14.6706C5.52098 14.9665 5.81299 15.1964 6.15059 15.3341L8.45099 16.0992C8.81508 16.1943 9.19751 16.1943 9.56159 16.0992L11.862 15.3341C12.1991 15.198 12.4909 14.9695 12.7039 14.675C12.9169 14.3805 13.0425 14.0318 13.0662 13.6691V10.3229C13.0662 10.1797 13.1231 10.0424 13.2244 9.94111C13.3256 9.83984 13.463 9.7829 13.6062 9.7829C13.7494 9.7829 13.8868 9.83984 13.988 9.94111C14.0893 10.0424 14.1462 10.1797 14.1462 10.3229V13.6691C14.1245 14.2598 13.9287 14.8309 13.5836 15.3108C13.2385 15.7906 12.7593 16.1579 12.2062 16.3665L9.90584 17.1314C9.61236 17.2152 9.30834 17.2563 9.00314 17.2534Z" fill="white" />
    <path d="M15.7831 12.2073C15.6398 12.2046 15.5031 12.1467 15.4015 12.0457C15.3001 11.9449 15.2428 11.808 15.2422 11.6651V7.33782C15.2428 7.19483 15.3001 7.05795 15.4015 6.95714C15.451 6.90569 15.5104 6.86479 15.5762 6.83684C15.6419 6.80889 15.7126 6.79443 15.784 6.79443C15.8554 6.79443 15.9261 6.80889 15.9918 6.83684C16.0575 6.86479 16.1169 6.90569 16.1665 6.95714C16.2679 7.05795 16.3252 7.19483 16.3258 7.33782V11.6651C16.3252 11.808 16.2679 11.9449 16.1665 12.0457C16.0644 12.1472 15.927 12.2051 15.7831 12.2073Z" fill="white" />
</svg>
    