<svg width="114" height="114" viewBox="0 0 114 114" fill="none" xmlns="http://www.w3.org/2000/svg">
    <rect width="114" height="114" rx="57" fill="#2E3042" />
    <path d="M102.755 90.9957C92.366 104.957 75.7383 114 56.9984 114C38.186 114 21.5021 104.886 11.1211 90.8333L40.838 82.9003C43.643 82.1511 45.6026 79.3853 45.5642 76.2274L45.3656 68H70.9815V68.007L70.6869 77.8308C70.6869 80.0715 72.0574 82.0391 74.0362 82.6342L102.755 90.9957Z" fill="#292A3A" />
    <path d="M58.2536 25.0067C58.2536 25.0067 78.1275 24.0811 77.9994 43.9806C77.8712 63.8801 70.8238 82.2571 58.2536 82.9814C45.6835 83.7125 39.2831 62.6862 38.9051 55.5836C38.5271 48.481 32.3638 25.5366 58.2536 25.0067Z" fill="#292A3A" />
    <path d="M58.026 21.7599C58.026 21.7599 77.8911 20.8671 77.763 40.0623C77.6349 59.2574 70.5906 76.984 58.026 77.6827C45.4614 78.3815 39.0638 58.1059 38.686 51.2546C38.3081 44.4033 32.1475 22.271 58.026 21.7599Z" fill="#292A3A" />
</svg>