<svg width="74" height="30" viewBox="0 0 74 30" fill="none" xmlns="http://www.w3.org/2000/svg">
    <path d="M38.5981 9.13843V20.6563H36.2597L30.5469 11.489H30.4877L30.5173 11.9885C30.6061 12.9288 30.6357 13.8102 30.6357 14.6623V20.6563H28.9189V9.13843H31.2277L36.9109 18.2763H36.9701C36.8813 16.7778 36.8813 15.7495 36.8813 15.1912V9.13843H38.5981Z" fill="white" />
    <path d="M45.8505 16.2783L48.2777 9.13843H50.2609L46.1761 20.6563H44.1929L40.1377 9.13843H42.0913L44.5185 16.3077C44.6369 16.6309 44.7553 17.0423 44.9033 17.5712C45.0513 18.0707 45.1401 18.5114 45.1993 18.8346C45.2881 18.4233 45.3769 17.9531 45.5249 17.4243C45.6729 16.866 45.7617 16.5134 45.8505 16.2783Z" fill="white" />
    <path d="M53.6649 20.6563H51.7705V9.13843H53.6649V20.6563Z" fill="white" />
    <path d="M58.6376 16.0727V20.6857H56.7432V9.13843H59.9992C61.5088 9.13843 62.604 9.40287 63.3144 9.96113C64.0544 10.5194 64.4096 11.3715 64.4096 12.488C64.4096 13.9278 63.6696 14.9561 62.16 15.5438L65.416 20.6563H63.2552L60.4728 16.0433L58.6376 16.0727ZM58.6376 10.7545V14.5154H59.9696C60.828 14.5154 61.4792 14.3391 61.8936 14.0453C62.308 13.7221 62.4856 13.252 62.4856 12.6055C62.4856 11.9591 62.2784 11.489 61.864 11.1952C61.4496 10.9014 60.7984 10.7545 59.9104 10.7545H58.6376V10.7545Z" fill="white" />
    <path d="M73.6737 19.0697V20.6563H67.1025V9.13843H73.6737V10.7251H69.0265V13.869H73.4073V15.4263H69.0265V19.0403L73.6737 19.0697Z" fill="white" />
    <path d="M19.417 17.8648H19.3578C18.233 19.804 16.1314 21.1262 13.7042 21.1262C10.0634 21.1262 7.13302 18.2174 7.13302 14.6327C7.13302 11.0481 10.0634 8.13924 13.6746 8.13924C16.8418 8.13924 19.5058 10.4017 20.0978 13.3987H9.38262V15.6611H19.9498H20.1274H22.4658C22.4954 15.3379 22.525 14.9853 22.525 14.6327C22.525 9.78465 18.5586 5.84741 13.6746 5.84741C8.79062 5.84741 4.82422 9.78465 4.82422 14.6327C4.82422 19.4808 8.79062 23.4181 13.6746 23.4181C16.9602 23.4181 19.861 21.6257 21.3706 18.9813L19.417 17.8648Z" fill="white" />
    <path d="M22.9988 5.14156C23.1172 4.87712 23.1764 4.58329 23.1764 4.28947C23.1764 3.05541 22.17 2.08579 20.9564 2.08579C20.3644 2.08579 19.8612 2.29147 19.4468 2.67344C17.7004 1.82135 15.7468 1.38062 13.6452 1.38062C6.2748 1.38062 0.325195 7.31585 0.325195 14.6321C0.325195 21.9483 6.3044 27.8835 13.6748 27.8835C21.0748 27.8835 27.0244 21.9483 27.0244 14.6321C27.0244 10.9005 25.4852 7.55091 22.9988 5.14156ZM20.9268 2.82035C21.7556 2.82035 22.4364 3.49614 22.4364 4.31885C22.4364 5.14156 21.7556 5.81735 20.9268 5.81735C20.098 5.81735 19.4172 5.14156 19.4172 4.31885C19.4172 3.49614 20.098 2.82035 20.9268 2.82035ZM13.6748 26.1499C7.2516 26.1499 2.0716 21.008 2.0716 14.6321C2.0716 8.25608 7.2812 3.11417 13.6748 3.11417C15.4804 3.11417 17.1972 3.52553 18.7364 4.26009C18.7364 4.28947 18.7364 4.28947 18.7364 4.31885C18.7364 5.55291 19.7428 6.52253 20.9564 6.52253C21.2228 6.52253 21.5188 6.46376 21.7556 6.37561C23.9164 8.46176 25.278 11.4 25.278 14.6614C25.278 21.008 20.098 26.1499 13.6748 26.1499Z" fill="#6ACCE5" />
</svg>
    