<svg width="18" height="19" viewBox="0 0 18 19" fill="none" xmlns="http://www.w3.org/2000/svg">
    <g clip-path="url(#clip0_935_55403)">
        <path d="M8.02894 2.70636C8.02615 2.57716 8.0492 2.44871 8.09671 2.32854C8.14423 2.20837 8.21527 2.09889 8.30566 2.00653C8.39604 1.91418 8.50396 1.84085 8.62309 1.79076C8.74221 1.74066 8.87013 1.71484 8.99936 1.71484C9.12859 1.71484 9.25651 1.74066 9.37563 1.79076C9.49475 1.84085 9.60267 1.91418 9.69306 2.00653C9.78345 2.09889 9.85449 2.20837 9.902 2.32854C9.94952 2.44871 9.97257 2.57716 9.96979 2.70636V16.2937C9.96432 16.5475 9.85968 16.789 9.67829 16.9665C9.49689 17.144 9.25317 17.2435 8.99936 17.2435C8.74555 17.2435 8.50183 17.144 8.32044 16.9665C8.13904 16.789 8.0344 16.5475 8.02894 16.2937V2.70636Z" fill="#EFF1F8" />
        <path d="M3.17649 10.4706C3.17371 10.3414 3.19676 10.213 3.24428 10.0928C3.29179 9.97263 3.36283 9.86314 3.45322 9.77079C3.54361 9.67843 3.65152 9.60511 3.77065 9.55502C3.88977 9.50492 4.01769 9.4791 4.14692 9.4791C4.27615 9.4791 4.40407 9.50492 4.52319 9.55502C4.64231 9.60511 4.75023 9.67843 4.84062 9.77079C4.93101 9.86314 5.00205 9.97263 5.04956 10.0928C5.09708 10.213 5.12013 10.3414 5.11735 10.4706V16.2936C5.12013 16.4228 5.09708 16.5512 5.04956 16.6714C5.00205 16.7916 4.93101 16.9011 4.84062 16.9934C4.75023 17.0858 4.64231 17.1592 4.52319 17.2093C4.40407 17.2594 4.27615 17.2852 4.14692 17.2852C4.01769 17.2852 3.88977 17.2594 3.77065 17.2093C3.65152 17.1592 3.54361 17.0858 3.45322 16.9934C3.36283 16.9011 3.29179 16.7916 3.24428 16.6714C3.19676 16.5512 3.17371 16.4228 3.17649 16.2936V10.4706Z" fill="#EFF1F8" />
        <path d="M13.1666 6.87292C13.3486 6.69089 13.5955 6.5886 13.8529 6.5886C14.1103 6.58872 14.357 6.69102 14.539 6.87303C14.7209 7.05505 14.8231 7.30189 14.8231 7.55924V16.2943C14.8259 16.4234 14.8028 16.5519 14.7553 16.6721C14.7078 16.7922 14.6368 16.9016 14.5464 16.994C14.456 17.0863 14.3481 17.1598 14.229 17.2099C14.1098 17.2599 13.9819 17.2858 13.8527 17.2858C13.7235 17.2858 13.5955 17.2599 13.4764 17.2099C13.3573 17.1598 13.2494 17.0863 13.159 16.994C13.0686 16.9016 12.9976 16.7922 12.95 16.6721C12.9025 16.5519 12.8795 16.4234 12.8823 16.2943V7.55924C12.8823 7.30181 12.9845 7.05496 13.1666 6.87292Z" fill="#EFF1F8" />
    </g>
    <defs>
        <clipPath id="clip0_935_55403">
            <rect width="18" height="18" fill="white" transform="translate(0 0.5)" />
        </clipPath>
    </defs>
</svg>
    