<svg width="18" height="19" viewBox="0 0 18 19" fill="none" xmlns="http://www.w3.org/2000/svg">
    <g clip-path="url(#clip0_935_55513)">
        <path fill-rule="evenodd" clip-rule="evenodd" d="M3.14903 1.69824C2.63186 1.69824 2.13586 1.90366 1.77012 2.26931C1.40438 2.63497 1.19885 3.13092 1.19873 3.6481V15.3481C1.19885 15.8653 1.40437 16.3613 1.77009 16.727C2.13582 17.0927 2.63182 17.2983 3.14903 17.2984H14.849C15.3662 17.2983 15.8622 17.0927 16.228 16.727C16.5937 16.3613 16.7992 15.8653 16.7993 15.3481V3.6481C16.7992 3.13092 16.5937 2.63497 16.2279 2.26931C15.8622 1.90366 15.3662 1.69824 14.849 1.69824H3.14903ZM8.18903 4.38154C8.20969 4.18043 8.3042 3.99416 8.45428 3.8587C8.60436 3.72325 8.79934 3.64832 9.0015 3.64832C9.20367 3.64832 9.39865 3.72325 9.54873 3.8587C9.69881 3.99416 9.79333 4.18043 9.81398 4.38154V14.616C9.79333 14.8171 9.69881 15.0034 9.54873 15.1388C9.39865 15.2743 9.20367 15.3492 9.0015 15.3492C8.79934 15.3492 8.60436 15.2743 8.45428 15.1388C8.3042 15.0034 8.20969 14.8171 8.18903 14.616V4.38154ZM4.12598 10.2315C4.14613 10.03 4.24044 9.84319 4.39062 9.70727C4.5408 9.57136 4.73613 9.49612 4.93868 9.49612C5.14123 9.49612 5.33656 9.57136 5.48674 9.70727C5.63692 9.84319 5.73123 10.03 5.75138 10.2315V14.6155C5.73123 14.8171 5.63692 15.0039 5.48674 15.1398C5.33656 15.2757 5.14123 15.351 4.93868 15.351C4.73613 15.351 4.5408 15.2757 4.39062 15.1398C4.24044 15.0039 4.14613 14.8171 4.12598 14.6155V10.2315ZM12.2516 8.03559C12.2728 7.8348 12.3675 7.64894 12.5176 7.51385C12.6677 7.37877 12.8624 7.30402 13.0643 7.30402C13.2662 7.30402 13.461 7.37877 13.6111 7.51385C13.7611 7.64894 13.8559 7.8348 13.877 8.03559V14.6155C13.8569 14.8171 13.7626 15.0039 13.6124 15.1398C13.4622 15.2757 13.2669 15.351 13.0643 15.351C12.8618 15.351 12.6665 15.2757 12.5163 15.1398C12.3661 15.0039 12.2718 14.8171 12.2516 14.6155V8.03559Z" fill="#EFF1F8" />
    </g>
    <defs>
        <clipPath id="clip0_935_55513">
            <rect width="18" height="18" fill="white" transform="translate(0 0.5)" />
        </clipPath>
    </defs>
</svg>
    