<svg width="18" height="19" viewBox="0 0 18 19" fill="none" xmlns="http://www.w3.org/2000/svg">
    <g clip-path="url(#clip0_935_55629)">
        <path fill-rule="evenodd" clip-rule="evenodd" d="M12.1975 8.23766C10.8925 8.23766 10.2621 7.60145 10.2621 6.30275V3.67965C10.2621 2.37465 10.8988 1.74463 12.1975 1.74463H14.821C16.126 1.74463 16.7559 2.38095 16.7559 3.67965V6.30275C16.7559 7.60145 16.1197 8.23766 14.821 8.23766H12.1975ZM11.3304 3.7337V6.24781C11.3304 6.98221 11.5175 7.16891 12.2524 7.16891H14.7665C15.5009 7.16891 15.6876 6.98221 15.6876 6.24781V3.7337C15.6876 2.9993 15.5009 2.8125 14.7665 2.8125H12.2524C11.518 2.8125 11.3309 2.99929 11.3309 3.73414L11.3304 3.7337Z" fill="#EFF1F8" />
        <path fill-rule="evenodd" clip-rule="evenodd" d="M3.179 17.2561C1.874 17.2561 1.24365 16.6199 1.24365 15.3212V12.6981C1.24365 11.3931 1.8803 10.7631 3.179 10.7631H5.80254C7.10754 10.7631 7.73745 11.3994 7.73745 12.6981V15.3212C7.73745 16.6199 7.10124 17.2561 5.80254 17.2561H3.179ZM2.31196 12.7522V15.2663C2.31196 16.0007 2.49909 16.1874 3.23394 16.1874H5.74805C6.48245 16.1874 6.66914 16.0007 6.66914 15.2663V12.7522C6.66914 12.0178 6.48245 11.831 5.74805 11.831H3.23394C2.49954 11.831 2.3124 12.0177 2.3124 12.7526L2.31196 12.7522Z" fill="#EFF1F8" />
        <path fill-rule="evenodd" clip-rule="evenodd" d="M3.39463 8.95948H6.30928C7.75243 8.95948 8.45938 8.31733 8.45938 6.98263V3.71428C8.45938 2.38678 7.75963 1.74463 6.30928 1.74463H3.39463C1.95148 1.74463 1.24453 2.38678 1.24453 3.71428V6.98983C1.24453 8.31733 1.94428 8.95948 3.39463 8.95948ZM2.32453 3.71428C2.32453 3.10093 2.42758 2.82463 3.39463 2.82463H6.30928C7.27453 2.82463 7.37713 3.09463 7.37488 3.71428V6.98263C7.37488 7.59598 7.27363 7.87003 6.30703 7.87003H3.39238C2.42533 7.87003 2.32453 7.60318 2.32453 6.98263V3.71428Z" fill="#EFF1F8" />
        <path d="M12.8785 17.2579C12.7356 17.2573 12.5989 17.2001 12.4981 17.0989C12.3973 16.9977 12.3407 16.8607 12.3407 16.7179V13.9018H9.52453C9.38178 13.9018 9.24484 13.8453 9.14365 13.7446C9.04245 13.6439 8.98525 13.5073 8.98453 13.3645C8.98513 13.2217 9.04228 13.0849 9.14349 12.9841C9.24469 12.8833 9.3817 12.8268 9.52453 12.8268H12.3407V10.0106C12.3413 9.86816 12.3982 9.73173 12.4989 9.63101C12.5996 9.53029 12.736 9.47344 12.8785 9.47285C13.0208 9.47356 13.1572 9.53046 13.2578 9.63117C13.3584 9.73187 13.4152 9.86824 13.4158 10.0106V12.8268H16.2318C16.3742 12.8273 16.5107 12.8842 16.6114 12.9849C16.7121 13.0856 16.7689 13.2221 16.7695 13.3645C16.7688 13.5069 16.7119 13.6432 16.6112 13.7438C16.5105 13.8444 16.3741 13.9012 16.2318 13.9018H13.4158V16.7179C13.4158 16.8606 13.3593 16.9975 13.2586 17.0987C13.1579 17.1999 13.0212 17.2571 12.8785 17.2579Z" fill="#EFF1F8" />
    </g>
    <defs>
        <clipPath id="clip0_935_55629">
            <rect width="18" height="18" fill="white" transform="translate(0 0.5)" />
        </clipPath>
    </defs>
</svg>
    