<svg width="18" height="19" viewBox="0 0 18 19" fill="none" xmlns="http://www.w3.org/2000/svg">
    <g clip-path="url(#clip0_935_55742)">
        <g clip-path="url(#clip1_935_55742)">
            <path d="M12.1975 8.23766C10.8925 8.23766 10.2621 7.60134 10.2621 6.30264V3.67965C10.2621 2.37465 10.8988 1.74463 12.1975 1.74463H14.821C16.126 1.74463 16.7559 2.38095 16.7559 3.67965V6.30264C16.7559 7.60134 16.1192 8.23766 14.821 8.23766H12.1975Z" fill="#EFF1F8" />
            <path d="M3.179 17.2561C1.874 17.2561 1.24365 16.6198 1.24365 15.3211V12.6981C1.24365 11.3931 1.8803 10.7631 3.179 10.7631H5.80254C7.10754 10.7631 7.73745 11.3994 7.73745 12.6981V15.3211C7.73745 16.6198 7.10079 17.2561 5.80254 17.2561H3.179Z" fill="#EFF1F8" />
            <path d="M6.30928 8.95948H3.39463C1.94428 8.95948 1.24453 8.31733 1.24453 6.98983V3.71428C1.24453 2.38678 1.95148 1.74463 3.39463 1.74463H6.30928C7.75963 1.74463 8.45938 2.38678 8.45938 3.71428V6.98263C8.45938 8.31733 7.75243 8.95948 6.30928 8.95948Z" fill="#EFF1F8" />
            <path d="M12.8785 17.2579C12.7356 17.2573 12.5989 17.2001 12.4981 17.0989C12.3973 16.9977 12.3407 16.8607 12.3407 16.7179V10.0106C12.3413 9.86816 12.3982 9.73173 12.4989 9.63101C12.5996 9.53029 12.736 9.47344 12.8785 9.47285C13.0208 9.47356 13.1572 9.53046 13.2578 9.63117C13.3584 9.73187 13.4152 9.86824 13.4158 10.0106V16.7179C13.4158 16.8606 13.3593 16.9975 13.2586 17.0987C13.1579 17.1999 13.0212 17.2571 12.8785 17.2579Z" fill="#EFF1F8" />
            <path d="M8.98453 13.3645C8.98513 13.2217 9.04228 13.0849 9.14349 12.9841C9.24469 12.8833 9.3817 12.8268 9.52453 12.8268H16.2318C16.3742 12.8273 16.5107 12.8842 16.6114 12.9849C16.7121 13.0856 16.7689 13.2221 16.7695 13.3645C16.7688 13.5069 16.7119 13.6432 16.6112 13.7438C16.5105 13.8444 16.3741 13.9012 16.2318 13.9018H9.52453C9.38178 13.9018 9.24484 13.8453 9.14365 13.7446C9.04245 13.6439 8.98525 13.5073 8.98453 13.3645Z" fill="#EFF1F8" />
        </g>
    </g>
    <defs>
        <clipPath id="clip0_935_55742">
            <rect width="18" height="18" fill="white" transform="translate(0 0.5)" />
        </clipPath>
        <clipPath id="clip1_935_55742">
            <rect width="18" height="18" fill="white" transform="translate(0 0.5)" />
        </clipPath>
    </defs>
</svg>
    