<svg width="18" height="18" viewBox="0 0 18 18" fill="none" xmlns="http://www.w3.org/2000/svg">
    <g clip-path="url(#clip0_1983_90988)">
        <path fill-rule="evenodd" clip-rule="evenodd" d="M8.45263 12.3122C8.66157 12.3548 8.87433 12.3762 9.08756 12.3762C9.30064 12.3763 9.51327 12.3548 9.72205 12.3122C9.92452 12.2706 10.1222 12.2091 10.3126 12.1287C10.4997 12.0494 10.679 11.9522 10.8473 11.8385C11.0146 11.7255 11.1703 11.5968 11.3131 11.4542C11.4556 11.3113 11.5845 11.1552 11.6976 10.988C11.8113 10.8194 11.9083 10.6403 11.9876 10.453C12.0682 10.2625 12.1297 10.0645 12.1713 9.86182C12.2138 9.65302 12.2356 9.44053 12.2358 9.22744C12.2356 9.01435 12.2138 8.80175 12.1713 8.59295C12.1297 8.39045 12.0681 8.19256 11.9876 8.00218C11.9083 7.81491 11.8113 7.63577 11.6976 7.46721C11.5845 7.30007 11.4556 7.14404 11.3131 7.00112C11.1703 6.8585 11.0146 6.72984 10.8473 6.61686C10.679 6.50301 10.4998 6.40581 10.3126 6.32664C10.1222 6.2461 9.92455 6.18462 9.72205 6.14308C9.51327 6.1005 9.30064 6.07905 9.08756 6.07915C8.87433 6.07907 8.66157 6.10052 8.45263 6.14308C8.25011 6.18456 8.052 6.24604 7.86164 6.32664C7.67453 6.40594 7.49575 6.50314 7.32733 6.61686C7.16019 6.72998 7.00406 6.85864 6.86113 7.00112C6.71867 7.14406 6.58979 7.30009 6.47666 7.46721C6.36276 7.63568 6.26577 7.81484 6.18665 8.00218C6.10607 8.19254 6.04448 8.39043 6.00298 8.59295C5.96035 8.80173 5.93913 9.01435 5.93927 9.22744C5.93912 9.44053 5.96035 9.65304 6.00298 9.86182C6.04444 10.0645 6.10603 10.2625 6.18665 10.453C6.26579 10.6404 6.36278 10.8195 6.47666 10.988C6.58979 11.1551 6.71866 11.3113 6.86113 11.4542C7.00406 11.5967 7.1602 11.7253 7.32733 11.8385C7.49572 11.9522 7.67451 12.0494 7.86164 12.1287C8.05206 12.2091 8.25016 12.2706 8.45263 12.3122ZM7.73246 7.87255C8.09181 7.5132 8.57935 7.31115 9.08756 7.31067C9.59573 7.31127 10.0829 7.51333 10.4422 7.87266C10.8016 8.232 11.0036 8.71927 11.0042 9.22744C11.0036 9.73561 10.8016 10.2228 10.4422 10.5821C10.0829 10.9414 9.59573 11.1436 9.08756 11.1442C8.57935 11.1437 8.09181 10.9416 7.73246 10.5822C7.3731 10.2229 7.17094 9.73565 7.17046 9.22744C7.17094 8.71923 7.3731 8.23191 7.73246 7.87255Z" fill="white" />
        <path fill-rule="evenodd" clip-rule="evenodd" d="M9.10389 15.1598H9.31832C9.60695 15.1528 9.895 15.1306 10.1813 15.0933C10.4562 15.0569 10.7288 15.0065 10.9986 14.9421C11.2568 14.8805 11.5169 14.8044 11.7697 14.7172C12.0131 14.6335 12.2563 14.5362 12.4939 14.4287C12.7215 14.3261 12.9496 14.2109 13.1714 14.0867C13.3824 13.9684 13.595 13.8388 13.8015 13.7012C14.1941 13.4388 14.5689 13.1507 14.9233 12.8386C15.5409 12.2926 16.1033 11.6876 16.6031 11.0321C16.9419 10.5923 17.2525 10.1311 17.5324 9.65166C17.6094 9.52297 17.7574 9.26202 17.7574 9.26202C17.7574 9.26202 17.6071 8.93263 17.5324 8.80395C16.9965 7.88336 14.0706 3.29126 9.09555 3.29126C9.01501 3.29126 8.93354 3.29264 8.853 3.29488C8.56405 3.30216 8.27572 3.32465 7.98914 3.36233C7.71436 3.39868 7.44145 3.44912 7.17186 3.51349C6.91359 3.57513 6.65447 3.65117 6.40116 3.73846C6.15864 3.82215 5.91503 3.91939 5.67791 4.02692C5.45293 4.12951 5.22481 4.2447 5.00299 4.36888C4.79197 4.48767 4.57942 4.61721 4.37289 4.7549C3.98063 5.01715 3.60611 5.30516 3.25199 5.61699C2.63498 6.16355 2.0726 6.76861 1.57217 7.42358C1.37734 7.67825 1.18919 7.94189 1.01282 8.20736C0.880532 8.40713 0.754952 8.60776 0.639767 8.80439C0.563276 8.93442 0.414795 9.20446 0.414795 9.20446C0.414795 9.20446 0.565076 9.52341 0.639767 9.6521C0.895182 10.0852 1.1762 10.5028 1.48121 10.9025C1.98771 11.5729 2.55798 12.1927 3.18388 12.7531C3.55297 13.0819 3.94363 13.3854 4.35356 13.6616C4.57133 13.8074 4.79434 13.9446 5.01661 14.0693C5.25148 14.1997 5.49257 14.3211 5.73239 14.4291C5.98211 14.5421 6.24003 14.6438 6.49694 14.7307C6.76544 14.8216 7.03863 14.8984 7.3151 14.961C7.60196 15.0259 7.892 15.075 8.18423 15.1081C8.48958 15.1426 8.7966 15.1599 9.10389 15.1598ZM8.88595 4.48587H9.04545C10.8655 4.48587 12.3916 5.36368 13.3801 6.0197C13.7712 6.30156 14.1423 6.6105 14.49 6.94431C14.809 7.24307 15.1446 7.5878 15.4875 7.96305C15.7523 8.25216 15.9698 8.53246 16.1382 8.74947C16.2104 8.8425 16.2736 8.9239 16.3276 8.98938C16.3584 9.02688 16.3798 9.04937 16.395 9.06531C16.4295 9.10157 16.4318 9.10392 16.4383 9.17206C16.4463 9.25525 16.4362 9.27081 16.3915 9.33951C16.3835 9.35181 16.3744 9.3658 16.3641 9.3822C15.503 10.7885 14.322 11.9716 12.9174 12.8354C12.3905 13.1458 11.834 13.4036 11.2565 13.6049C10.9468 13.7108 10.6302 13.7948 10.3087 13.8564C9.97017 13.9207 9.62681 13.9574 9.28229 13.9658H9.09774C7.7428 13.9219 6.42347 13.521 5.27322 12.8036C4.7777 12.5121 4.31185 12.173 3.88209 11.7912C3.48581 11.4423 3.11022 11.0706 2.75723 10.678C2.43082 10.2728 2.12755 9.84928 1.84943 9.40955C1.80347 9.34872 1.77452 9.27693 1.76507 9.20128C1.7712 9.13473 1.80085 9.07264 1.84899 9.02629C2.09063 8.65947 2.36605 8.31601 2.67154 8.0004C2.99775 7.65844 3.31991 7.32946 3.62767 7.02845C4.01193 6.65185 4.37566 6.31493 4.70772 6.02651C5.8964 5.07326 7.36296 4.53249 8.88595 4.48587Z" fill="white" />
    </g>
    <defs>
        <clipPath id="clip0_1983_90988">
            <rect width="18" height="18" fill="white" transform="translate(-0.000976562)" />
        </clipPath>
    </defs>
</svg>
    