<svg width="18" height="18" viewBox="0 0 18 18" fill="none" xmlns="http://www.w3.org/2000/svg">
    <g clip-path="url(#clip0_1983_90989)">
        <path fill-rule="evenodd" clip-rule="evenodd" d="M11.3337 6.85859C11.3386 6.85371 11.3434 6.84874 11.3481 6.84369L16.8126 1.3787C16.9134 1.27511 16.9693 1.13603 16.9682 0.991543C16.9672 0.847054 16.9094 0.70877 16.8072 0.606599C16.705 0.504427 16.5668 0.44658 16.4223 0.44557C16.2778 0.44456 16.1387 0.500467 16.0351 0.6012L13.1588 3.47749C11.9229 2.77942 10.5252 2.40242 9.09457 2.38964H9.08938C9.0135 2.38964 8.93296 2.38964 8.85466 2.39404C8.5651 2.40044 8.27618 2.42287 7.98904 2.46083C7.72043 2.49637 7.44668 2.5472 7.17176 2.61154C6.9117 2.67678 6.65438 2.75237 6.40106 2.83651C6.16124 2.9211 5.91763 3.01856 5.67781 3.1252C5.42224 3.24533 5.20222 3.3586 5.00289 3.46749C4.77027 3.60067 4.56357 3.72684 4.3728 3.85328C3.98149 4.1169 3.60693 4.40469 3.25145 4.71494C2.63697 5.264 2.07488 5.86951 1.57295 6.52306C1.37948 6.77593 1.19089 7.0397 1.01316 7.30607C0.877726 7.51259 0.751236 7.71467 0.640549 7.90365C0.564959 8.03323 0.427002 8.3035 0.427002 8.3035C0.427002 8.3035 0.564959 8.62081 0.640549 8.74949C0.896125 9.18298 1.17699 9.60119 1.48156 10.0018C1.98847 10.6711 2.55825 11.2906 3.18291 11.8516C3.46688 12.1047 3.76365 12.3426 4.07218 12.5646L1.36337 15.2734C1.26116 15.377 1.20385 15.5167 1.20385 15.6622C1.20385 15.8077 1.26116 15.9474 1.36337 16.0509C1.41419 16.1023 1.47474 16.1431 1.54149 16.1708C1.60824 16.1986 1.67985 16.2127 1.75213 16.2125C1.82437 16.2128 1.89596 16.1987 1.96271 16.171C2.02945 16.1434 2.09002 16.1027 2.14088 16.0514L7.60062 10.5912C7.60796 10.5845 7.61512 10.5777 7.6221 10.5706L11.3337 6.85859ZM10.3033 5.37714C10.5198 5.46908 10.725 5.58459 10.9151 5.72121L12.2246 4.41174C11.2415 3.90788 10.1561 3.62362 9.0436 3.58437H8.88366C7.36108 3.6314 5.895 4.17219 4.70674 5.12534C4.39178 5.39845 4.03623 5.72716 3.62318 6.12716C3.29473 6.45382 2.97293 6.77965 2.67057 7.09911C2.37253 7.40657 2.10282 7.74064 1.86471 8.09655C1.85885 8.10674 1.85211 8.11614 1.8445 8.12511C1.79672 8.17191 1.76671 8.23387 1.76014 8.30043C1.76994 8.37613 1.79885 8.44841 1.8445 8.50958C1.84613 8.50958 1.84704 8.51129 1.84849 8.51403C1.84944 8.51583 1.85063 8.51807 1.85241 8.52057C1.85409 8.52292 1.85565 8.52537 1.85739 8.52811C1.86032 8.53272 1.86375 8.53812 1.86911 8.54517C2.13387 8.97709 2.43075 9.38867 2.75581 9.77724C3.10871 10.1698 3.48431 10.5416 3.88067 10.8902C4.21273 11.186 4.5667 11.4557 4.93955 11.6973L6.48449 10.1523C6.34777 9.96211 6.2322 9.75688 6.14021 9.54022C5.97603 9.15356 5.89023 8.73817 5.88776 8.31812C5.88528 7.89806 5.9662 7.48169 6.12581 7.09313C6.28542 6.70457 6.52055 6.35154 6.81758 6.05451C7.11461 5.75748 7.46763 5.52235 7.85619 5.36274C8.24475 5.20313 8.66113 5.12222 9.08118 5.12469C9.50124 5.12716 9.91663 5.21297 10.3033 5.37714ZM9.08892 6.24981C8.72536 6.2497 8.36814 6.34505 8.05299 6.52632C7.73783 6.70759 7.4758 6.96842 7.29308 7.28274C7.11037 7.59705 7.01339 7.95383 7.01183 8.31739C7.01027 8.68095 7.10419 9.03855 7.2842 9.35442L10.1161 6.52113C9.80325 6.34268 9.44913 6.24914 9.08892 6.24981Z" fill="white" />
        <path d="M9.10687 14.2587C8.79972 14.2603 8.49275 14.2437 8.18765 14.2081C7.89442 14.1749 7.60298 14.1259 7.31501 14.0614L7.13485 14.0161C6.9891 13.9963 6.85626 13.9244 6.75961 13.8136C6.66296 13.7027 6.60908 13.5604 6.60933 13.4133C6.60916 13.3335 6.62464 13.2546 6.65503 13.1808C6.68543 13.1071 6.73052 13.04 6.78685 12.9835C6.84318 12.927 6.91002 12.8819 6.9837 12.8513C7.05738 12.8207 7.1368 12.8052 7.21658 12.8051C7.25127 12.8052 7.28522 12.808 7.3194 12.8139C7.33907 12.8142 7.35856 12.8175 7.3774 12.8232C7.93605 12.9845 8.51485 13.066 9.09633 13.0653H9.28087C9.62664 13.0581 9.9712 13.0216 10.3108 12.9563C10.6329 12.8974 10.95 12.8132 11.259 12.705C11.8371 12.5055 12.3936 12.2481 12.92 11.9369C14.3258 11.0747 15.5064 9.89051 16.364 8.4819L16.3684 8.47531C16.3748 8.46637 16.3795 8.4589 16.384 8.45172C16.3875 8.44627 16.3908 8.44095 16.3947 8.43532C16.4146 8.41386 16.4291 8.38792 16.4369 8.35975C16.4447 8.33157 16.4455 8.30182 16.4396 8.27318C16.4306 8.20659 16.4284 8.20196 16.3974 8.16641C16.3727 8.14348 16.3502 8.11817 16.3306 8.09083C16.2797 8.03099 16.2215 7.95599 16.1504 7.86015L16.1137 7.81316C15.9448 7.59686 15.741 7.33591 15.4887 7.06308C15.2075 6.75397 14.9253 6.46261 14.6468 6.19219C14.5977 6.15714 14.5539 6.115 14.5167 6.06741L14.4913 6.04368C14.473 6.02671 14.4613 6.00389 14.4587 5.97909C14.4104 5.88821 14.385 5.78675 14.3849 5.68381C14.3848 5.60182 14.4011 5.52055 14.4324 5.44478C14.4637 5.36901 14.5097 5.30019 14.5677 5.24222C14.6257 5.18424 14.6949 5.1382 14.7707 5.10688C14.8465 5.07556 14.9269 5.05975 15.0089 5.05987C15.1681 5.05974 15.3214 5.12075 15.4368 5.23035C15.4494 5.24019 15.4615 5.25041 15.4729 5.26155C16.2708 6.05022 16.9647 6.93755 17.538 7.90189C17.6133 8.04834 17.6811 8.19852 17.741 8.35184C17.741 8.35184 17.6136 8.62172 17.538 8.74905C17.2577 9.22918 16.9471 9.69061 16.6065 10.1301C16.1078 10.7859 15.5455 11.3917 14.9289 11.9382C14.5732 12.2497 14.1974 12.5371 13.804 12.7994C13.6133 12.9304 13.4066 13.057 13.1739 13.1857C12.9674 13.3013 12.739 13.4164 12.4946 13.5275C12.2503 13.6386 12.0067 13.7365 11.7714 13.8166C11.5208 13.903 11.2607 13.9786 11.0007 14.0416C10.732 14.1066 10.4593 14.1569 10.1852 14.1923C9.89712 14.2303 9.60736 14.2523 9.31691 14.2587H9.10687Z" fill="white" />
        <path d="M9.1809 11.3371C9.27984 11.4182 9.40374 11.4628 9.53171 11.4632C9.56581 11.4596 9.60021 11.4596 9.63431 11.4632C10.2558 11.3453 10.8274 11.0432 11.2749 10.5961C11.7224 10.149 12.025 9.57765 12.1435 8.95628C12.1573 8.88496 12.1568 8.81163 12.1421 8.74051C12.1273 8.66938 12.0987 8.60186 12.0578 8.54184C12.0169 8.48183 11.9645 8.43049 11.9037 8.39079C11.8429 8.3511 11.7748 8.32382 11.7034 8.31053C11.5595 8.28437 11.4112 8.31587 11.2903 8.39822C11.1695 8.48057 11.0859 8.60716 11.0577 8.75063C10.9781 9.15294 10.7808 9.52255 10.4909 9.81258C10.201 10.1026 9.8314 10.3 9.42911 10.3796C9.35778 10.3916 9.28957 10.4177 9.22853 10.4565C9.16749 10.4953 9.11487 10.5459 9.07378 10.6054C9.03269 10.665 9.00397 10.7321 8.98933 10.8029C8.97469 10.8738 8.97443 10.9468 8.98856 11.0177C9.01403 11.1431 9.08196 11.2559 9.1809 11.3371Z" fill="white" />
    </g>
    <defs>
        <clipPath id="clip0_1983_90989">
            <rect width="18" height="18" fill="white" transform="translate(-0.000976562)" />
        </clipPath>
    </defs>
</svg>
    