<svg width="16" height="16" viewBox="0 0 12 12" fill="none" xmlns="http://www.w3.org/2000/svg">
<g clip-path="url(#clip0_30602_18465)">
<path d="M4.76217 7.60463C4.71398 7.6048 4.66623 7.59536 4.62173 7.57687C4.57722 7.55838 4.53685 7.5312 4.50296 7.49693C4.3026 7.30122 4.14306 7.0677 4.0336 6.80989C3.92413 6.55208 3.86692 6.27511 3.86527 5.99503C3.86362 5.71495 3.91757 5.43733 4.024 5.17825C4.13042 4.91917 4.2872 4.68378 4.48525 4.48573C4.6833 4.28768 4.91868 4.13091 5.17776 4.02448C5.43684 3.91806 5.71446 3.86411 5.99454 3.86576C6.27462 3.86741 6.55159 3.92462 6.8094 4.03408C7.06721 4.14355 7.30073 4.30309 7.49644 4.50345C7.53055 4.53745 7.55761 4.57785 7.57607 4.62233C7.59454 4.66681 7.60404 4.7145 7.60404 4.76266C7.60404 4.81082 7.59454 4.85851 7.57607 4.90298C7.55761 4.94746 7.53055 4.98786 7.49644 5.02187L5.02168 7.49693C4.98776 7.53124 4.94734 7.55843 4.90278 7.57693C4.85822 7.59542 4.81041 7.60484 4.76217 7.60463ZM5.9997 4.61595C5.75729 4.61588 5.51911 4.67946 5.30897 4.80032C5.09884 4.92118 4.92412 5.0951 4.8023 5.30468C4.68047 5.51425 4.6158 5.75214 4.61476 5.99455C4.61372 6.23696 4.67635 6.47539 4.79637 6.68601L6.68462 4.79686C6.47599 4.67787 6.23987 4.61551 5.9997 4.61595Z" fill="#F2F2F8"/>
<path d="M2.8692 9.18438C2.78133 9.18432 2.69631 9.15318 2.62919 9.09648C2.08527 8.62725 1.61571 8.07818 1.23656 7.46804C0.981689 7.02095 0.847656 6.51519 0.847656 6.00055C0.847656 5.48592 0.981689 4.98016 1.23656 4.53306C2.42909 2.66402 4.16553 1.58789 5.99978 1.58789C7.11162 1.60073 8.18874 1.97698 9.06675 2.65922C9.14322 2.71808 9.19342 2.8047 9.20648 2.90031C9.21954 2.99592 9.1944 3.09282 9.13653 3.17003C9.07864 3.24725 8.99268 3.29855 8.89724 3.31283C8.80181 3.32711 8.70459 3.30322 8.62664 3.24633C7.87591 2.65876 6.95303 2.33392 5.99978 2.32171C4.41994 2.32171 2.9097 3.27063 1.85187 4.92877C1.6714 5.25696 1.57678 5.62542 1.57678 5.99995C1.57678 6.37448 1.6714 6.74294 1.85187 7.07113C2.1965 7.61795 2.61826 8.11216 3.1041 8.53846C3.17749 8.60237 3.22273 8.69263 3.23003 8.78966C3.23733 8.8867 3.2061 8.98271 3.1431 9.05688C3.10963 9.09696 3.06773 9.12916 3.02038 9.1512C2.97304 9.17324 2.92142 9.18457 2.8692 9.18438Z" fill="#F2F2F8"/>
<path d="M6.00098 10.412C5.34851 10.4116 4.70291 10.2789 4.10313 10.022C4.01362 9.9844 3.94272 9.91275 3.90604 9.82284C3.88787 9.77832 3.87866 9.73066 3.87891 9.68258C3.87917 9.6345 3.88889 9.58694 3.90752 9.54262C3.92616 9.4983 3.95334 9.45808 3.98752 9.42426C4.0217 9.39045 4.0622 9.36369 4.10672 9.34553C4.19663 9.30885 4.29742 9.30938 4.38694 9.34702C4.89544 9.56479 5.44271 9.67755 5.99588 9.67853C7.57572 9.67853 9.08595 8.7296 10.1438 7.07146C10.3242 6.74328 10.4189 6.37481 10.4189 6.00028C10.4189 5.62575 10.3242 5.25729 10.1438 4.92911C9.99308 4.69102 9.82807 4.46229 9.64967 4.24419C9.58872 4.16797 9.56021 4.07083 9.57032 3.97376C9.58042 3.87669 9.62832 3.7875 9.70367 3.72548C9.74116 3.6948 9.78436 3.67184 9.83076 3.65792C9.87717 3.64401 9.92587 3.63942 9.97406 3.64441C10.0222 3.6494 10.069 3.66388 10.1115 3.68701C10.1541 3.71014 10.1917 3.74146 10.2221 3.77918C10.4179 4.01924 10.5993 4.27079 10.7651 4.5325C11.02 4.97959 11.154 5.48535 11.154 5.99998C11.154 6.51462 11.02 7.02038 10.7651 7.46747C9.57167 9.33592 7.83522 10.412 6.00098 10.412Z" fill="#F2F2F8"/>
<path d="M6.33757 8.0888C6.2521 8.08837 6.1694 8.05842 6.10347 8.00403C6.03754 7.94963 5.99243 7.87413 5.97576 7.7903C5.9663 7.74303 5.96641 7.69435 5.97612 7.64713C5.98582 7.59991 6.0049 7.55512 6.03224 7.51542C6.05957 7.47572 6.0946 7.44191 6.13525 7.416C6.1759 7.39009 6.22134 7.3726 6.26887 7.36459C6.53702 7.31166 6.78341 7.18031 6.97681 6.98717C7.17021 6.79404 7.30191 6.54783 7.3552 6.27976C7.37383 6.18394 7.42947 6.09933 7.51005 6.04424C7.59063 5.98915 7.68967 5.96803 7.78571 5.98545C7.83332 5.99431 7.8787 6.01249 7.91925 6.03896C7.9598 6.06542 7.99471 6.09965 8.02198 6.13966C8.04925 6.17967 8.06834 6.22469 8.07815 6.27211C8.08795 6.31952 8.08828 6.36841 8.07912 6.41596C8.0004 6.83049 7.79875 7.21173 7.5004 7.51008C7.20204 7.80844 6.8208 8.01009 6.40627 8.0888C6.38344 8.08634 6.36041 8.08634 6.33757 8.0888Z" fill="#F2F2F8"/>
<path d="M1.10776 11.2584C1.05957 11.2586 1.01182 11.2492 0.967319 11.2307C0.922814 11.2122 0.88244 11.185 0.848557 11.1507C0.780402 11.0817 0.742187 10.9886 0.742188 10.8915C0.742188 10.7945 0.780402 10.7014 0.848557 10.6323L4.50235 6.97853C4.57142 6.91137 4.66415 6.87409 4.76049 6.87476C4.85683 6.87544 4.94904 6.91401 5.01716 6.98213C5.08529 7.05026 5.12386 7.14246 5.12453 7.2388C5.1252 7.33514 5.08793 7.42788 5.02076 7.49695L1.36697 11.151C1.33306 11.1853 1.29268 11.2124 1.24817 11.2308C1.20367 11.2493 1.15594 11.2587 1.10776 11.2584Z" fill="#F2F2F8"/>
<path d="M7.23862 5.12929C7.19043 5.12946 7.14268 5.12002 7.09818 5.10153C7.05367 5.08304 7.0133 5.05586 6.97942 5.02159C6.91126 4.95253 6.87305 4.85941 6.87305 4.76238C6.87305 4.66535 6.91126 4.57223 6.97942 4.50317L10.6332 0.849383C10.7023 0.782218 10.795 0.744941 10.8914 0.745614C10.9877 0.746288 11.0799 0.784858 11.148 0.852983C11.2161 0.921107 11.2547 1.01331 11.2554 1.10965C11.2561 1.20599 11.2188 1.29873 11.1516 1.3678L7.49783 5.02189C7.46392 5.0561 7.42354 5.08323 7.37903 5.10167C7.33453 5.12011 7.2868 5.1295 7.23862 5.12929Z" fill="#F2F2F8"/>
</g>
<defs>
<clipPath id="clip0_30602_18465">
<rect width="16" height="16" fill="white"/>
</clipPath>
</defs>
</svg>
