<svg width="16" height="16" viewBox="0 0 16 16" fill="none" xmlns="http://www.w3.org/2000/svg">
<g clip-path="url(#clip0_30602_10757)">
<path d="M14.8622 10.874C14.8622 13.3744 13.375 14.8615 10.8746 14.8615H10.0582C9.87658 14.8615 9.7024 14.7894 9.57397 14.661C9.44555 14.5325 9.37339 14.3584 9.37339 14.1767V10.2168C9.3735 10.1267 9.40817 10.04 9.47021 9.97473C9.53386 9.91099 9.62013 9.87504 9.7102 9.87473L10.9174 9.85393C10.9643 9.8498 11.0089 9.83169 11.0454 9.80193C11.0827 9.77148 11.1085 9.72914 11.1182 9.68196L11.3582 8.37117C11.3639 8.34128 11.3626 8.31046 11.3546 8.28113C11.3468 8.25323 11.3332 8.22734 11.3146 8.20515C11.2943 8.18199 11.2696 8.16318 11.2418 8.14993C11.2148 8.13733 11.1852 8.13144 11.1554 8.13274L9.69219 8.15354C9.60211 8.15343 9.5155 8.11881 9.45019 8.05676C9.38469 7.99287 9.34632 7.90622 9.34302 7.81477L9.31538 6.13474C9.31552 6.08057 9.33662 6.02853 9.37422 5.98953C9.41457 5.95178 9.46774 5.93077 9.523 5.93074L11.1694 5.90315C11.1966 5.90355 11.2236 5.89818 11.2486 5.88743C11.2737 5.87667 11.2961 5.86078 11.3146 5.84075C11.3335 5.82163 11.3485 5.79897 11.3585 5.77405C11.3686 5.74913 11.3737 5.72242 11.3734 5.69553L11.3458 4.04915C11.3463 4.02183 11.3415 3.99469 11.3318 3.96917C11.3201 3.94526 11.305 3.92314 11.287 3.90354C11.2683 3.88441 11.246 3.86921 11.2214 3.85876C11.1959 3.84904 11.1687 3.84428 11.1414 3.84475L9.28779 3.87234C9.01725 3.87491 8.75007 3.93265 8.50259 4.04197C8.25437 4.1488 8.02988 4.30394 7.84219 4.49836C7.65451 4.6927 7.50655 4.92174 7.40659 5.17273C7.30631 5.42445 7.25801 5.69389 7.2646 5.96477L7.2958 7.84954C7.29763 7.89422 7.29056 7.93882 7.275 7.98074C7.25907 8.02358 7.23426 8.06257 7.2022 8.09514C7.17143 8.12846 7.13357 8.15446 7.09141 8.17117C7.05013 8.19002 7.00555 8.20062 6.9602 8.20237L6.13701 8.21277C6.08241 8.21424 6.03044 8.23657 5.9918 8.27517C5.97291 8.29431 5.95799 8.31695 5.9479 8.34187C5.93781 8.36679 5.93276 8.39345 5.93301 8.42034L5.95381 9.72434C5.95356 9.75122 5.95861 9.77789 5.9687 9.80281C5.97879 9.82773 5.99371 9.85042 6.0126 9.86956C6.05085 9.90872 6.10307 9.93116 6.15781 9.93196L6.98101 9.91833C7.02633 9.91724 7.07144 9.92524 7.11362 9.94187C7.15581 9.9585 7.19422 9.98343 7.22661 10.0152C7.29238 10.078 7.33085 10.1642 7.33379 10.2552L7.39258 14.1668C7.39506 14.2577 7.37974 14.3481 7.34741 14.4331C7.31276 14.518 7.26223 14.5955 7.19858 14.6615C7.13429 14.7264 7.05791 14.778 6.97378 14.8135C6.88931 14.8484 6.79879 14.8661 6.70742 14.8656H5.13018C2.62978 14.8656 1.14258 13.3783 1.14258 10.8707V5.12957C1.14258 2.62917 2.62978 1.14197 5.13018 1.14197H10.8782C13.3786 1.14197 14.8658 2.62917 14.8658 5.12957L14.8622 10.874Z" fill="#F2F2F8"/>
</g>
<defs>
<clipPath id="clip0_30602_10757">
<rect width="16" height="16" fill="white"/>
</clipPath>
</defs>
</svg>
