<svg width="14" height="14" viewBox="0 0 14 14" fill="none" xmlns="http://www.w3.org/2000/svg">
    <path d="M5.43789 12.6007C2.60895 12.6007 1.40039 11.3918 1.40039 8.56304V5.43781C1.40039 2.60908 2.60895 1.40015 5.43789 1.40015H8.56345C11.3924 1.40015 12.601 2.60908 12.601 5.43781V8.56304C12.601 11.3918 11.3924 12.6007 8.56345 12.6007H5.43789ZM2.18169 5.43818V8.56341C2.18169 10.9645 3.03623 11.8194 5.43789 11.8194H8.56345C10.9647 11.8194 11.82 10.9649 11.82 8.56341V5.43818C11.82 3.03708 10.9655 2.18222 8.56345 2.18222H5.43789C3.03623 2.18222 2.18169 3.0367 2.18169 5.43818ZM8.59025 10.6619C8.5176 10.5886 8.47663 10.4896 8.47598 10.3863V8.35536C8.47651 8.25207 8.51749 8.15306 8.59025 8.07975C8.66369 8.00694 8.76265 7.96595 8.86607 7.96548C8.96933 7.96617 9.06809 8.00713 9.14151 8.07975C9.21448 8.15293 9.25587 8.25202 9.25616 8.35536V10.3863C9.25571 10.4896 9.21434 10.5887 9.14151 10.6619C9.06809 10.7346 8.96933 10.7756 8.86607 10.7763C8.76265 10.7758 8.66369 10.7348 8.59025 10.6619ZM4.86057 10.6619C4.78796 10.5885 4.74699 10.4896 4.7463 10.3863V9.71675C4.53994 9.66901 4.34363 9.58456 4.16712 9.46747C3.88064 9.27527 3.6574 9.00285 3.52504 8.68428C3.39305 8.36506 3.35804 8.01388 3.42491 7.67498C3.49253 7.33654 3.65918 7.02569 3.90322 6.78162C4.14742 6.5377 4.45836 6.37167 4.79692 6.30447C5.13557 6.23764 5.48622 6.27223 5.80528 6.40394C6.12408 6.53611 6.39688 6.75972 6.58881 7.04653C6.78044 7.33344 6.88252 7.67071 6.88249 8.01573C6.88268 8.24498 6.83776 8.47204 6.74998 8.68382C6.6622 8.8956 6.53337 9.08794 6.37106 9.24983C6.13957 9.48151 5.84753 9.64335 5.52834 9.71675V10.3863C5.52839 10.4378 5.51812 10.4887 5.49819 10.5361C5.47909 10.5837 5.45053 10.6267 5.41407 10.6627C5.37771 10.699 5.33459 10.7279 5.28714 10.7476C5.23961 10.7676 5.18832 10.7778 5.13676 10.7774C5.03302 10.7769 4.93383 10.7354 4.86057 10.6619ZM4.60002 7.21542C4.44152 7.32108 4.31804 7.47128 4.24492 7.64716C4.17179 7.82348 4.15274 8.01756 4.18983 8.2048C4.22761 8.39146 4.31909 8.56291 4.45336 8.69796C4.58838 8.83234 4.76008 8.92381 4.94693 8.96092C5.13398 8.99826 5.32788 8.97936 5.50415 8.90648C5.68009 8.83327 5.83076 8.70964 5.93667 8.55122C6.04261 8.39259 6.09903 8.20611 6.09896 8.01536C6.09909 7.75997 5.99767 7.51503 5.81719 7.33433C5.63621 7.15375 5.39095 7.05232 5.13528 7.0523C4.94528 7.05255 4.75987 7.10932 4.60225 7.21542H4.60002ZM7.89605 7.43603C7.60898 7.24411 7.38541 6.97147 7.25322 6.65247C7.12116 6.33365 7.08638 5.98281 7.15384 5.64438C7.2211 5.30597 7.38714 4.99509 7.63103 4.75102C7.86272 4.51941 8.15485 4.35759 8.47411 4.2841V3.61452C8.47486 3.51162 8.51621 3.41311 8.58876 3.34012C8.6622 3.26731 8.76116 3.22623 8.86458 3.22576C8.96784 3.22646 9.06661 3.26751 9.14002 3.34012C9.21278 3.41297 9.25417 3.51157 9.25467 3.61452V4.2841C9.34942 4.30594 9.44205 4.33558 9.53197 4.37259C9.85075 4.50498 10.1232 4.72843 10.3155 5.01509C10.5071 5.30245 10.6094 5.64016 10.6092 5.9855C10.6092 6.4478 10.4258 6.89118 10.0992 7.21839C9.93716 7.38058 9.74455 7.50925 9.53272 7.59701C9.32088 7.68477 9.09387 7.72992 8.86458 7.72988C8.5199 7.72948 8.18303 7.62712 7.89642 7.43566L7.89605 7.43603ZM8.32969 5.1836C8.1717 5.28973 8.04845 5.43989 7.97496 5.61544C7.90267 5.79198 7.88388 5.9858 7.92062 6.17299C7.95774 6.35963 8.04889 6.53117 8.18304 6.66615C8.31856 6.80103 8.49089 6.89284 8.67847 6.92994C8.86535 6.96696 9.05899 6.94772 9.23494 6.87467C9.4116 6.80231 9.56272 6.67851 9.66821 6.51941C9.77358 6.36139 9.82986 6.1758 9.83012 5.98587C9.83023 5.85932 9.80519 5.73396 9.75679 5.61702C9.7084 5.50009 9.63749 5.39384 9.54798 5.30438C9.36738 5.1236 9.12236 5.0219 8.86681 5.0216C8.67591 5.02145 8.48914 5.07769 8.33006 5.18323L8.32969 5.1836ZM4.86132 5.92185C4.78891 5.8483 4.74798 5.74945 4.74705 5.64624V3.61452C4.74783 3.51162 4.7888 3.41313 4.86132 3.34012C4.93448 3.26736 5.03321 3.22627 5.13639 3.22576C5.24 3.2264 5.33949 3.26744 5.41333 3.34012C5.48594 3.41306 5.52693 3.5116 5.5276 3.61452V5.64624C5.52769 5.6978 5.51741 5.74888 5.49745 5.79642C5.47838 5.84395 5.44982 5.88704 5.41333 5.92297C5.37689 5.95921 5.33378 5.98812 5.2864 6.00801C5.23863 6.02707 5.18745 6.03675 5.13602 6.03658C5.08477 6.03651 5.03405 6.02628 4.98676 6.00653C4.93946 5.98677 4.89665 5.95788 4.86057 5.92148L4.86132 5.92185Z" fill="white" />
</svg>
    