<svg width="18" height="19" viewBox="0 0 18 19" fill="none" xmlns="http://www.w3.org/2000/svg">
    <g clip-path="url(#clip0_934_50138)">
        <path d="M13.0618 17.1572H4.94067C4.28695 17.1464 3.65724 16.9101 3.15755 16.4885C2.65786 16.0668 2.31898 15.4859 2.19832 14.8433L1.23426 9.06596C1.17324 8.57974 1.23237 8.08523 1.40694 7.62734C1.58152 7.16945 1.866 6.76224 2.23523 6.44005L7.26031 2.41507C7.75312 2.02922 8.36266 1.82254 8.98851 1.82977C9.62346 1.82289 10.2422 2.03149 10.7435 2.42122L15.7686 6.4383C16.1332 6.76406 16.4144 7.17218 16.5885 7.6291C16.7627 8.08602 16.8245 8.57838 16.7691 9.06421L15.8037 14.8354C15.6769 15.4756 15.3364 16.0535 14.8384 16.4753C14.3403 16.897 13.7142 17.1377 13.0618 17.1572ZM9.00037 10.0476C8.85656 10.0498 8.7191 10.1082 8.61765 10.2102C8.5162 10.3121 8.45877 10.4495 8.45726 10.5933V13.8511C8.45714 13.9954 8.51407 14.1339 8.61589 14.2361C8.71772 14.3382 8.85613 14.3956 9.00037 14.396C9.14485 14.3959 9.28357 14.3382 9.38574 14.2361C9.4879 14.1339 9.54512 13.9956 9.54524 13.8511V10.5933C9.54373 10.4491 9.48579 10.3115 9.38398 10.2093C9.28217 10.1072 9.14458 10.0487 9.00037 10.0467V10.0476Z" fill="#EFF1F8" />
    </g>
    <defs>
        <clipPath id="clip0_934_50138">
            <rect width="18" height="18" fill="white" transform="translate(0 0.5)" />
        </clipPath>
    </defs>
</svg>
    