<svg width="18" height="19" viewBox="0 0 18 19" fill="none" xmlns="http://www.w3.org/2000/svg">
    <path d="M8.6173 14.2361C8.71909 14.3379 8.85684 14.3955 9.00079 14.3966C9.14466 14.3955 9.28235 14.3379 9.38412 14.2362C9.4859 14.1345 9.54361 13.9969 9.54478 13.853V10.5931C9.54373 10.4492 9.48607 10.3114 9.38428 10.2096C9.28249 10.1078 9.14474 10.0502 9.00079 10.0491C8.85692 10.0502 8.71923 10.1078 8.61746 10.2095C8.51568 10.3112 8.45797 10.4488 8.45679 10.5927V13.8526C8.45785 13.9965 8.51551 14.1343 8.6173 14.2361Z" fill="#EFF1F8" />
    <path fill-rule="evenodd" clip-rule="evenodd" d="M4.9401 17.1593H13.0613C13.7136 17.1395 14.3399 16.8991 14.8378 16.4772C15.3357 16.0554 15.6758 15.4772 15.8025 14.837L16.7672 9.06772C16.8234 8.58197 16.7619 8.0898 16.5877 7.63287C16.4135 7.17595 16.1318 6.7677 15.7665 6.44268L10.7414 2.42548C10.242 2.0434 9.63096 1.83578 9.00216 1.83448C8.37335 1.83318 7.7615 2.03827 7.26052 2.41829L2.23677 6.44178C1.86709 6.76347 1.58226 7.1712 1.40743 7.629C1.2326 8.0868 1.17313 8.5806 1.23427 9.06682L2.19897 14.846C2.31961 15.4883 2.65825 16.0692 3.15767 16.4907C3.6571 16.9122 4.2867 17.1483 4.9401 17.1593ZM7.94175 3.2651C8.24477 3.03806 8.6147 2.91823 8.99329 2.92448C9.37754 2.91869 9.75271 3.04142 10.0592 3.2732L15.0843 7.2895C15.2982 7.49339 15.4638 7.74242 15.5692 8.01844C15.6746 8.29446 15.7171 8.59052 15.6936 8.88504L14.7293 14.6571C14.649 15.0452 14.4412 15.3953 14.1389 15.6516C13.8367 15.908 13.4573 16.0558 13.0613 16.0717H4.93965C4.54474 16.0561 4.16632 15.9093 3.86423 15.6544C3.56214 15.3996 3.35362 15.0513 3.27167 14.6647L2.30741 8.89269C2.28051 8.59788 2.32143 8.30083 2.42703 8.02428C2.53263 7.74772 2.70011 7.499 2.91665 7.29715L7.94175 3.2651Z" fill="#EFF1F8" />
    <path d="M8.6173 14.2361C8.71909 14.3379 8.85684 14.3955 9.00079 14.3966C9.14466 14.3955 9.28235 14.3379 9.38412 14.2362C9.4859 14.1345 9.54361 13.9969 9.54478 13.853V10.5931C9.54373 10.4492 9.48607 10.3114 9.38428 10.2096C9.28249 10.1078 9.14474 10.0502 9.00079 10.0491C8.85692 10.0502 8.71923 10.1078 8.61746 10.2095C8.51568 10.3112 8.45797 10.4488 8.45679 10.5927V13.8526C8.45785 13.9965 8.51551 14.1343 8.6173 14.2361Z" fill="#EFF1F8" />
    <path fill-rule="evenodd" clip-rule="evenodd" d="M4.9401 17.1593H13.0613C13.7136 17.1395 14.3399 16.8991 14.8378 16.4772C15.3357 16.0554 15.6758 15.4772 15.8025 14.837L16.7672 9.06772C16.8234 8.58197 16.7619 8.0898 16.5877 7.63287C16.4135 7.17595 16.1318 6.7677 15.7665 6.44268L10.7414 2.42548C10.242 2.0434 9.63096 1.83578 9.00216 1.83448C8.37335 1.83318 7.7615 2.03827 7.26052 2.41829L2.23677 6.44178C1.86709 6.76347 1.58226 7.1712 1.40743 7.629C1.2326 8.0868 1.17313 8.5806 1.23427 9.06682L2.19897 14.846C2.31961 15.4883 2.65825 16.0692 3.15767 16.4907C3.6571 16.9122 4.2867 17.1483 4.9401 17.1593ZM7.94175 3.2651C8.24477 3.03806 8.6147 2.91823 8.99329 2.92448C9.37754 2.91869 9.75271 3.04142 10.0592 3.2732L15.0843 7.2895C15.2982 7.49339 15.4638 7.74242 15.5692 8.01844C15.6746 8.29446 15.7171 8.59052 15.6936 8.88504L14.7293 14.6571C14.649 15.0452 14.4412 15.3953 14.1389 15.6516C13.8367 15.908 13.4573 16.0558 13.0613 16.0717H4.93965C4.54474 16.0561 4.16632 15.9093 3.86423 15.6544C3.56214 15.3996 3.35362 15.0513 3.27167 14.6647L2.30741 8.89269C2.28051 8.59788 2.32143 8.30083 2.42703 8.02428C2.53263 7.74772 2.70011 7.499 2.91665 7.29715L7.94175 3.2651Z" fill="#EFF1F8" />
</svg>
    