<svg width="16" height="16" viewBox="0 0 16 16" fill="none" xmlns="http://www.w3.org/2000/svg">
<g clip-path="url(#clip0_30602_10753)">
<path d="M9.91462 14.8613H6.08499C5.86875 14.8613 5.65789 14.8555 5.45834 14.8439C5.25754 14.8322 5.06211 14.8144 4.87746 14.7909C4.69185 14.7674 4.51155 14.7374 4.34162 14.7018C4.17096 14.6661 4.00558 14.6237 3.85011 14.5758C3.69802 14.5291 3.54848 14.4745 3.40214 14.4121C3.26324 14.3528 3.12798 14.2853 2.99703 14.21C2.87098 14.1374 2.74969 14.0568 2.63393 13.9688C2.5206 13.8823 2.41316 13.7884 2.31232 13.6876C2.21154 13.5867 2.11762 13.4792 2.03116 13.3659C1.9431 13.2501 1.86253 13.1288 1.78994 13.0028C1.71469 12.8718 1.64721 12.7365 1.58787 12.5976C1.52545 12.4513 1.47081 12.3017 1.42417 12.1496C1.37624 11.9941 1.33384 11.8287 1.29815 11.6581C1.26258 11.4881 1.23268 11.3078 1.20905 11.1222C1.18561 10.9378 1.16781 10.7423 1.15612 10.5413C1.14457 10.3416 1.13867 10.1308 1.13867 9.91465V6.08573C1.13867 5.86958 1.14455 5.65872 1.15612 5.45902C1.16781 5.258 1.18561 5.06254 1.20905 4.87808C1.23262 4.69244 1.26258 4.51219 1.29815 4.34218C1.33384 4.17157 1.37624 4.00616 1.42417 3.85058C1.47081 3.69846 1.52545 3.54891 1.58787 3.40256C1.64721 3.26364 1.71469 3.12834 1.78994 2.99735C1.86254 2.87131 1.94311 2.75003 2.03116 2.63425C2.11762 2.52087 2.21155 2.41338 2.31232 2.3125C2.41316 2.21174 2.5206 2.11781 2.63393 2.03134C2.74969 1.94326 2.87098 1.86268 2.99703 1.79008C3.12798 1.7148 3.26324 1.64731 3.40214 1.58796C3.54848 1.52555 3.69802 1.47091 3.85011 1.42427C4.00562 1.37634 4.171 1.33393 4.34162 1.29823C4.51155 1.26266 4.69185 1.23275 4.87746 1.2091C5.06216 1.18564 5.25759 1.16783 5.45834 1.15616C5.65793 1.14461 5.86878 1.13867 6.08499 1.13867H9.91462C10.1309 1.13867 10.3418 1.14455 10.5414 1.15616C10.7422 1.16783 10.9376 1.18564 11.1223 1.2091C11.3079 1.23267 11.4882 1.26266 11.6582 1.29823C11.8288 1.33393 11.9942 1.37634 12.1497 1.42427C12.3019 1.47091 12.4514 1.52555 12.5977 1.58796C12.7366 1.6473 12.8719 1.7148 13.0029 1.79008C13.1289 1.86268 13.2502 1.94326 13.366 2.03134C13.4793 2.11781 13.5868 2.21174 13.6877 2.3125C13.7884 2.41338 13.8823 2.52087 13.9688 2.63425C14.0568 2.75002 14.1374 2.87131 14.21 2.99735C14.2852 3.12834 14.3527 3.26364 14.412 3.40256C14.4744 3.54892 14.5291 3.69846 14.5757 3.85058C14.6236 4.00605 14.666 4.17144 14.7017 4.34218C14.7373 4.51213 14.7672 4.69242 14.7908 4.87808C14.8143 5.06296 14.8321 5.25835 14.8437 5.45902C14.8553 5.65874 14.8612 5.8696 14.8612 6.08573V9.91465C14.8612 10.1308 14.8554 10.3416 14.8437 10.5413C14.8321 10.742 14.8143 10.9374 14.7908 11.1222C14.7672 11.3079 14.7373 11.4881 14.7017 11.6581C14.666 11.8288 14.6236 11.9942 14.5757 12.1496C14.5291 12.3017 14.4744 12.4513 14.412 12.5976C14.3527 12.7365 14.2852 12.8718 14.21 13.0028C14.1374 13.1288 14.0568 13.2501 13.9688 13.3659C13.8823 13.4792 13.7884 13.5867 13.6877 13.6876C13.5868 13.7884 13.4794 13.8823 13.366 13.9688C13.2502 14.0568 13.1289 14.1374 13.0029 14.21C12.8719 14.2853 12.7366 14.3528 12.5977 14.4121C12.4514 14.4745 12.3019 14.5291 12.1497 14.5758C11.9943 14.6237 11.8289 14.6661 11.6582 14.7018C11.4882 14.7374 11.3079 14.7673 11.1223 14.7909C10.9377 14.8144 10.7422 14.8322 10.5414 14.8439C10.3418 14.8555 10.131 14.8613 9.91462 14.8613ZM8.08526 3.73291C8.05676 3.73221 8.02823 3.73363 7.99994 3.73719C7.22371 3.75016 6.46593 3.97584 5.80908 4.38966C5.15223 4.80348 4.62151 5.38957 4.27469 6.08413C3.97453 6.67819 3.81814 7.33445 3.8181 8.00003C3.81815 8.66562 3.97454 9.3219 4.27469 9.91598H4.27896C4.62516 10.6101 5.15515 11.196 5.81125 11.6098C6.46734 12.0236 7.22438 12.2495 7.99996 12.2629C8.02825 12.2665 8.05678 12.2679 8.08528 12.2672C9.20477 12.2672 10.1816 11.9101 10.9101 11.2345C11.3189 10.8546 11.6391 10.3896 11.8484 9.87225C12.0696 9.33302 12.1818 8.73476 12.1818 8.09389C12.1826 7.92997 12.1741 7.76614 12.1562 7.6032C12.1458 7.49862 12.0967 7.40168 12.0186 7.33142C11.9404 7.26116 11.8388 7.22264 11.7337 7.22343H8.51202C8.39889 7.22356 8.29042 7.26856 8.21042 7.34855C8.13042 7.42854 8.08543 7.537 8.0853 7.65013V8.37985C8.08543 8.49298 8.13042 8.60144 8.21042 8.68143C8.29042 8.76143 8.39889 8.80642 8.51202 8.80655H10.4365C10.4103 9.0258 10.325 9.27067 10.1965 9.4962C10.1222 9.6265 10.0345 9.74872 9.93484 9.86085C9.82509 9.98425 9.7013 10.0944 9.566 10.1891C9.37054 10.324 9.15533 10.4279 8.92804 10.4968C8.79908 10.5361 8.66731 10.5654 8.53388 10.5845C8.38529 10.6057 8.23538 10.6161 8.0853 10.6158C8.0568 10.6165 8.02827 10.6151 7.99998 10.6115C7.73426 10.6033 7.47156 10.5529 7.2217 10.4621C6.97872 10.3737 6.75066 10.2487 6.5454 10.0915C6.34077 9.93493 6.16057 9.74881 6.01073 9.53922C5.8587 9.32686 5.73955 9.09281 5.65728 8.84493C5.61218 8.71016 5.57741 8.57214 5.55328 8.43208C5.52889 8.28935 5.51658 8.14481 5.51647 8.00001C5.51763 7.71299 5.56372 7.42791 5.65306 7.15514C5.67868 7.07834 5.7089 7.00081 5.74264 6.92468C5.83995 6.70564 5.9667 6.5009 6.11937 6.31613C6.27048 6.13317 6.44596 5.97179 6.64092 5.8365C6.83699 5.70037 7.05136 5.59274 7.27765 5.51681C7.51083 5.43882 7.75422 5.39556 7.99999 5.38842C8.02828 5.38477 8.05681 5.38334 8.08532 5.38415C8.22907 5.38395 8.3726 5.39559 8.51445 5.41894C8.64111 5.43999 8.76587 5.47116 8.88755 5.51215C9.09524 5.58245 9.29201 5.68156 9.47214 5.80659C9.54037 5.85394 9.62148 5.87926 9.70453 5.87913C9.75944 5.8791 9.81381 5.86839 9.86463 5.84759C9.9171 5.82623 9.96495 5.79492 10.0055 5.75538L10.5987 5.17504C10.6438 5.13107 10.6786 5.07776 10.7009 5.01884C10.7231 4.95993 10.7322 4.89685 10.7274 4.83406C10.723 4.77337 10.7054 4.71436 10.6758 4.66121C10.6462 4.60805 10.6053 4.56204 10.556 4.52641C9.8403 3.99992 9.00903 3.73291 8.08526 3.73291Z" fill="#F2F2F8"/>
</g>
<defs>
<clipPath id="clip0_30602_10753">
<rect width="16" height="16" fill="white"/>
</clipPath>
</defs>
</svg>
