<svg width="24" height="24" viewBox="0 0 24 24" fill="none" xmlns="http://www.w3.org/2000/svg">
    <g clip-path="url(#clip0_31565_20890)">
        <path d="M11.9992 21.2214C11.7201 21.2267 11.4422 21.1847 11.1772 21.0972C7.52737 19.845 1.72657 15.4014 1.72657 8.838C1.72339 7.23501 2.35671 5.69632 3.48738 4.56002C4.61806 3.42372 6.15358 2.78277 7.75657 2.778C8.54517 2.77479 9.32652 2.92864 10.055 3.23057C10.7835 3.53251 11.4446 3.97648 11.9998 4.5366C12.5548 3.97655 13.2158 3.53262 13.9442 3.23069C14.6726 2.92876 15.4539 2.77487 16.2424 2.778C17.8448 2.78451 19.3793 3.42602 20.5096 4.56194C21.6399 5.69786 22.2738 7.23554 22.2724 8.838C22.2724 15.4128 16.4716 19.8468 12.8212 21.0984C12.5561 21.1855 12.2781 21.2271 11.9992 21.2214ZM7.75657 4.2114C6.53419 4.21759 5.36408 4.70798 4.50253 5.57515C3.64098 6.44233 3.15821 7.6156 3.15997 8.838C3.15997 15.3648 9.43837 18.996 11.6458 19.7514C11.8813 19.8088 12.1272 19.8088 12.3628 19.7514C14.5606 18.9948 20.8486 15.3732 20.8486 8.838C20.85 7.61581 20.3671 6.44284 19.5056 5.57593C18.6441 4.70901 17.4741 4.21879 16.252 4.2126C15.5376 4.21114 14.8329 4.37828 14.1953 4.70043C13.5577 5.02259 13.005 5.49066 12.5824 6.0666C12.513 6.15167 12.4256 6.22023 12.3264 6.26731C12.2272 6.3144 12.1188 6.33882 12.0091 6.33882C11.8993 6.33882 11.7909 6.3144 11.6917 6.26731C11.5926 6.22023 11.5052 6.15167 11.4358 6.0666C11.0112 5.49029 10.4568 5.02204 9.81767 4.69974C9.17849 4.37744 8.47241 4.21015 7.75657 4.2114Z" fill="#F2F2F8" />
    </g>
    <defs>
        <clipPath id="clip0_31565_20890">
            <rect width="24" height="24" fill="white" />
        </clipPath>
    </defs>
</svg>