<svg width="18" height="19" viewBox="0 0 18 19" fill="none" xmlns="http://www.w3.org/2000/svg">
    <g clip-path="url(#clip0_935_56191)">
        <path fill-rule="evenodd" clip-rule="evenodd" d="M5.30647 3.21848C6.31686 2.28368 7.64359 1.76583 9.02009 1.76906C10.3957 1.76738 11.721 2.28595 12.7301 3.22068C13.7393 4.15542 14.3577 5.43716 14.4612 6.80882C14.5445 7.91191 14.2898 9.00755 13.7409 9.95375L16.4131 12.6263C16.5716 12.787 16.6854 12.9863 16.7434 13.2045C16.8012 13.4225 16.7995 13.652 16.7384 13.8691C16.6773 14.0863 16.559 14.2831 16.396 14.4389C16.2325 14.5936 16.0304 14.7014 15.811 14.7511L14.6185 15.0347C14.5855 15.0427 14.5554 15.0595 14.5312 15.0832C14.507 15.107 14.4898 15.1368 14.4812 15.1696L14.2346 16.233C14.1815 16.4615 14.0656 16.6706 13.8998 16.8367C13.7341 17.0027 13.5252 17.1191 13.2968 17.1726C13.0685 17.226 12.83 17.215 12.6075 17.141C12.3851 17.0669 12.1876 16.9327 12.0368 16.7532L9.00156 13.2612L5.96631 16.7591C5.84952 16.9007 5.70267 17.0145 5.53642 17.0923C5.37017 17.1701 5.18868 17.2101 5.00511 17.2091L5.00331 17.2072C4.9036 17.2072 4.80424 17.1956 4.70721 17.1726C4.47819 17.12 4.26862 17.0039 4.10246 16.8378C3.9363 16.6716 3.82026 16.462 3.76761 16.233L3.51471 15.1692C3.50616 15.1364 3.48888 15.1066 3.46472 15.0828C3.44055 15.059 3.4104 15.0423 3.37746 15.0342L2.18496 14.7507C1.96556 14.7009 1.76373 14.5927 1.60084 14.4375C1.43796 14.2823 1.3201 14.0859 1.25976 13.8691C1.19916 13.652 1.19729 13.4226 1.25436 13.2045C1.31227 12.9863 1.42612 12.787 1.58466 12.6263L4.28037 9.93016C3.74063 8.9893 3.49069 7.90255 3.57328 6.80838C3.67688 5.43578 4.29608 4.15329 5.30647 3.21848ZM10.7584 7.69959L11.4051 7.05161L11.4042 7.05118C11.7858 6.67092 11.6611 6.28755 11.1414 6.2016L10.3075 6.0612C10.2297 6.04351 10.1562 6.01059 10.0911 5.96441C10.0267 5.91682 9.97309 5.85626 9.93359 5.78665L9.47369 4.86731C9.22439 4.36871 8.81939 4.36871 8.57009 4.86731L8.11019 5.78665C8.07154 5.85502 8.01895 5.91447 7.95584 5.96122C7.89267 6.00813 7.82076 6.04203 7.74434 6.06076L6.91049 6.20116C6.38084 6.28396 6.25619 6.66862 6.63779 7.04887L7.30019 7.69695C7.3559 7.7609 7.3965 7.83655 7.41899 7.91833C7.44201 8.00046 7.44662 8.08667 7.43249 8.17079L7.24529 8.97488C7.09724 9.60443 7.43204 9.8475 7.99319 9.52035L8.77214 9.05904C8.85111 9.01626 8.9395 8.99389 9.02932 8.99389C9.11913 8.99389 9.20752 9.01626 9.28649 9.05904L10.0654 9.52299C10.6261 9.85644 10.9614 9.60763 10.8133 8.97763L10.6261 8.17343C10.6099 8.08962 10.6134 8.00316 10.6365 7.92096C10.6588 7.83846 10.7006 7.76256 10.7584 7.69959ZM2.35101 13.3971L4.72881 11.0206C5.55051 11.9784 6.67072 12.6316 7.90896 12.8751L5.14101 16.0638C5.11819 16.0882 5.09 16.107 5.05866 16.1187C5.02643 16.127 4.99275 16.1278 4.96011 16.1213C4.92638 16.113 4.89538 16.0962 4.87011 16.0723C4.84591 16.0473 4.82896 16.0163 4.82106 15.9824L4.56816 14.9217C4.5168 14.6921 4.40119 14.4818 4.23482 14.3154C4.06844 14.149 3.85817 14.0334 3.62856 13.9821L2.43606 13.6986C2.40463 13.6939 2.37538 13.6798 2.35216 13.6581C2.32894 13.6364 2.31285 13.6082 2.30601 13.5771C2.29534 13.546 2.29391 13.5124 2.30189 13.4804C2.30988 13.4485 2.32693 13.4195 2.35101 13.3971ZM12.8594 16.0507L10.0915 12.871H10.0924C11.3336 12.6274 12.4565 11.9726 13.2797 11.0121L15.6575 13.3912C15.679 13.4141 15.6945 13.4419 15.7025 13.4722C15.7108 13.5035 15.7108 13.5364 15.7025 13.5677C15.6936 13.5984 15.6769 13.6263 15.6539 13.6486C15.6309 13.671 15.6026 13.687 15.5716 13.695L14.3791 13.9754C14.15 14.028 13.9404 14.144 13.7743 14.3101C13.6081 14.4763 13.4921 14.6859 13.4395 14.9149L13.1866 15.9787C13.1787 16.0117 13.1617 16.0419 13.1375 16.0656C13.1138 16.0916 13.0821 16.1088 13.0475 16.1146C13.0133 16.1252 12.9766 16.124 12.9431 16.1115C12.9095 16.1005 12.8802 16.0792 12.8594 16.0507Z" fill="#EFF1F8" />
    </g>
    <defs>
        <clipPath id="clip0_935_56191">
            <rect width="18" height="18" fill="white" transform="translate(0 0.5)" />
        </clipPath>
    </defs>
</svg>
    