<svg width="14" height="13" viewBox="0 0 14 13" fill="none" xmlns="http://www.w3.org/2000/svg">
    <path d="M10.3642 12.3202L9.82002 12.1778C9.62802 12.1246 9.46375 11.9994 9.36179 11.8282C9.26244 11.6553 9.236 11.4499 9.28796 11.2574C9.31128 11.1988 9.31983 11.1355 9.31335 11.0728C9.30687 11.0101 9.28565 10.9499 9.25085 10.8974C9.19863 10.8619 9.13819 10.8397 9.07545 10.8327C9.0127 10.8257 8.9494 10.8342 8.89067 10.8574C8.79569 10.8831 8.69646 10.8899 8.59886 10.8772C8.50126 10.8646 8.40719 10.8329 8.32189 10.7838C8.2366 10.7347 8.1619 10.6692 8.10196 10.5912C8.04202 10.5131 7.99808 10.424 7.97266 10.3289L7.84179 9.84647C7.79187 9.6537 7.81996 9.44904 7.91992 9.27682C8.01988 9.10459 8.18365 8.97872 8.3758 8.92646C8.53581 8.88205 8.64167 8.80646 8.66527 8.71565C8.67132 8.65276 8.66123 8.58936 8.63558 8.53161C8.60993 8.47386 8.5699 8.42368 8.51917 8.386C8.44987 8.31648 8.39528 8.23364 8.359 8.14243C8.37095 8.28186 8.35755 8.42224 8.31916 8.55681C8.28088 8.70951 8.21164 8.85272 8.11563 8.97748C8.01963 9.10225 7.89872 9.20596 7.76093 9.28209L6.97886 9.73011C6.81242 9.82304 6.62531 9.87203 6.43469 9.8725C6.33797 9.87218 6.2413 9.86079 6.14718 9.83851C5.86949 9.7626 5.63202 9.58263 5.48347 9.33605L5.43112 9.24566C5.16231 8.78564 4.79627 8.78564 4.53186 9.24566L4.48186 9.33209C4.41003 9.45612 4.31456 9.56468 4.20059 9.65159C4.08663 9.7385 3.95676 9.80205 3.81815 9.83851C3.72593 9.86365 3.6309 9.87708 3.53533 9.87851C3.34337 9.8779 3.15497 9.82579 2.98999 9.72767L2.21339 9.27965C2.0768 9.20121 1.95712 9.09661 1.86102 8.97182C1.76493 8.84703 1.69454 8.7045 1.65359 8.55241C1.57256 8.24595 1.61447 7.91996 1.77039 7.64397C1.83196 7.56435 1.87257 7.47051 1.88837 7.3711C1.90417 7.2717 1.89448 7.16993 1.86063 7.07514C1.79564 6.99846 1.71262 6.93935 1.61882 6.90321C1.52503 6.86707 1.42353 6.85509 1.32389 6.86835C1.00658 6.8675 0.702437 6.74101 0.478143 6.51657C0.253848 6.29213 0.127587 5.98798 0.126953 5.67068V4.87704C0.127587 4.55973 0.253848 4.25559 0.478143 4.03114C0.702437 3.8067 1.00658 3.68021 1.32389 3.67937C1.42374 3.69234 1.5254 3.67999 1.61922 3.64343C1.71303 3.60687 1.79589 3.54729 1.86063 3.47018C1.89562 3.37564 1.90577 3.27367 1.88993 3.17412C1.8741 3.07456 1.83299 2.98076 1.77039 2.90174C1.61463 2.6257 1.57273 2.29977 1.65359 1.9933C1.69336 1.8407 1.76325 1.69766 1.85946 1.57272C1.95568 1.44778 2.07601 1.34349 2.21339 1.26606L2.99467 0.820046C3.24493 0.675647 3.54222 0.635799 3.82167 0.7092C4.10112 0.782601 4.34033 0.963315 4.48733 1.21206L4.53967 1.30249C4.80729 1.76451 5.1725 1.76451 5.44011 1.30249L5.48855 1.21806C5.5605 1.0938 5.65606 0.984997 5.7702 0.897881C5.88435 0.810766 6.01458 0.747037 6.15343 0.710421C6.29227 0.673805 6.43736 0.664996 6.57962 0.684492C6.72188 0.703988 6.85889 0.751429 6.98276 0.82405L7.76093 1.27007C7.89774 1.34843 8.01747 1.45327 8.11329 1.57848C8.20911 1.70369 8.27928 1.84676 8.31916 1.9993C8.40252 2.30468 8.36132 2.63065 8.2047 2.90575C8.14319 2.98578 8.1024 3.07988 8.08634 3.17954C8.07027 3.27919 8.07926 3.38127 8.11251 3.47657C8.17826 3.55277 8.26195 3.61158 8.35588 3.64773C8.44981 3.68387 8.55134 3.69627 8.65121 3.68381C8.96837 3.68487 9.27205 3.81141 9.49617 4.03583C9.72029 4.26025 9.84634 4.56426 9.84697 4.88143V5.67507C9.84634 5.99224 9.72029 6.2963 9.49617 6.52072C9.27205 6.74514 8.96837 6.87168 8.65121 6.87274C8.55134 6.85976 8.4495 6.87189 8.35549 6.908C8.26148 6.9441 8.17801 7.00304 8.11251 7.07954C8.07809 7.17433 8.06867 7.27638 8.08477 7.37594C8.10088 7.4755 8.14215 7.56925 8.2047 7.64836C8.24396 7.71756 8.27669 7.79031 8.30236 7.86561C8.30236 7.86161 8.30236 7.85721 8.30236 7.85321C8.30181 7.75503 8.32072 7.6577 8.35822 7.56696C8.39573 7.47623 8.45103 7.3939 8.52073 7.32476L8.92427 6.92475C9.05185 6.79673 9.22481 6.72446 9.40554 6.72371C9.58628 6.72296 9.76013 6.79378 9.88877 6.92074L9.93955 6.96874C10.1752 7.20195 10.3981 7.14356 10.4841 6.82235L10.5005 6.76194C10.5237 6.67498 10.5636 6.59346 10.6185 6.52214C10.6734 6.45082 10.7419 6.3911 10.8201 6.34644C10.8982 6.30179 10.9843 6.2731 11.0736 6.26202C11.1629 6.25094 11.2537 6.25773 11.3404 6.28194L11.885 6.42472C12.0774 6.47635 12.2415 6.60205 12.3416 6.77435C12.4422 6.94674 12.471 7.15178 12.4217 7.34518C12.3957 7.40265 12.3855 7.46592 12.3916 7.52868C12.3978 7.59144 12.4202 7.65151 12.4569 7.70281C12.5083 7.73929 12.5681 7.76208 12.6307 7.76907C12.6933 7.77607 12.7565 7.76704 12.8147 7.7428C13.0074 7.69093 13.2129 7.71767 13.3858 7.81712C13.5588 7.91658 13.6853 8.0806 13.7374 8.2732L13.864 8.75325C13.8897 8.84849 13.8966 8.94788 13.8839 9.0457C13.8711 9.14352 13.839 9.23784 13.7897 9.3233C13.7405 9.40876 13.675 9.48367 13.5968 9.54372C13.5185 9.60378 13.4292 9.64779 13.3339 9.67327C13.1739 9.71927 13.0676 9.79571 13.0436 9.88651C13.0362 9.94956 13.0462 10.0134 13.0721 10.0714C13.098 10.1293 13.139 10.1792 13.1909 10.2157C13.2604 10.2857 13.3153 10.3689 13.3522 10.4604C13.3892 10.5519 13.4075 10.6499 13.4061 10.7485C13.4079 10.8473 13.3892 10.9453 13.3514 11.0366C13.3137 11.1278 13.2576 11.2103 13.1866 11.279L12.7889 11.679C12.7008 11.7615 12.5939 11.8214 12.4776 11.8538C12.4194 11.8701 12.3591 11.8781 12.2987 11.8778C12.1195 11.877 11.9479 11.8073 11.8189 11.683L11.7686 11.637C11.5333 11.4018 11.31 11.4582 11.224 11.7798L11.2084 11.8422C11.1614 12.0169 11.0471 12.1658 10.8904 12.2562C10.8376 12.2861 10.7815 12.3097 10.7232 12.3266C10.6676 12.3403 10.6105 12.347 10.5533 12.3466C10.4894 12.3464 10.4256 12.3375 10.3642 12.3202ZM9.6411 10.5037C9.72559 10.6003 9.78306 10.7176 9.80752 10.8436C9.83197 10.9696 9.82239 11.0998 9.78017 11.221C9.77044 11.2592 9.76854 11.2989 9.77431 11.338C9.78008 11.377 9.79339 11.4144 9.81377 11.4482C9.85196 11.5167 9.91532 11.5679 9.99034 11.591L10.5017 11.7254C10.5628 11.741 10.6275 11.7339 10.6837 11.7054C10.7383 11.6701 10.7785 11.6169 10.7982 11.555L10.8138 11.5006C10.8374 11.3752 10.8934 11.2583 10.9763 11.1613C11.0592 11.0644 11.1663 10.9909 11.2865 10.9481C11.4129 10.9221 11.5439 10.9306 11.6658 10.9728C11.7878 11.0151 11.8959 11.0895 11.9791 11.1881L12.0193 11.2306C12.0652 11.275 12.1266 11.2995 12.1904 11.299C12.2527 11.295 12.312 11.271 12.3596 11.2306L12.7288 10.855C12.757 10.8275 12.7796 10.7946 12.7952 10.7584C12.8107 10.7221 12.819 10.6832 12.8194 10.6437C12.8192 10.563 12.7884 10.4853 12.7331 10.4265C12.6351 10.344 12.5608 10.2367 12.5186 10.1158C12.4764 9.99486 12.4675 9.86484 12.4928 9.73929C12.5337 9.61789 12.6064 9.50967 12.7034 9.42594C12.8003 9.34222 12.9179 9.28607 13.044 9.26329C13.1215 9.24189 13.1876 9.19098 13.228 9.12153C13.2684 9.05208 13.28 8.96958 13.2604 8.89164L13.1405 8.44362C13.1298 8.40524 13.1115 8.36932 13.087 8.33795C13.0624 8.30658 13.0322 8.28038 12.9975 8.2608C12.9628 8.24122 12.9246 8.22868 12.885 8.22388C12.8455 8.21908 12.8054 8.22211 12.767 8.23282C12.646 8.27417 12.516 8.2831 12.3905 8.25875C12.2649 8.23439 12.1482 8.17759 12.0514 8.09399C11.9668 7.99743 11.9094 7.87996 11.8857 7.75379C11.8621 7.62762 11.8731 7.4974 11.917 7.37677C11.9265 7.33856 11.928 7.29884 11.9221 7.25992C11.9162 7.221 11.9026 7.18364 11.8822 7.14995C11.8437 7.08068 11.7798 7.0294 11.7037 7.00717L11.1951 6.87274C11.1643 6.86405 11.1323 6.8616 11.1005 6.86551C11.0688 6.86943 11.038 6.87963 11.0103 6.89554C10.9826 6.91145 10.9586 6.93273 10.9392 6.95815C10.9198 6.98356 10.9054 7.01261 10.8974 7.04355L10.8818 7.09995C10.8575 7.22591 10.8005 7.34323 10.7162 7.43991C10.6318 7.53659 10.5236 7.60917 10.4021 7.65037C10.2769 7.67407 10.1477 7.66438 10.0274 7.62224C9.90722 7.5801 9.80027 7.50703 9.71728 7.41036L9.67704 7.37037C9.64674 7.34109 9.60925 7.32014 9.56844 7.30963C9.52763 7.29911 9.4849 7.29937 9.44422 7.31036C9.40533 7.32385 9.36932 7.34418 9.33757 7.37037L8.96841 7.74441C8.93916 7.77162 8.91576 7.80462 8.90005 7.84134C8.88434 7.87806 8.87647 7.91767 8.877 7.95761C8.87709 8.03789 8.90842 8.11496 8.9645 8.17241C9.06137 8.25621 9.1345 8.36397 9.17662 8.48493C9.21875 8.60589 9.22861 8.73582 9.20475 8.86166C9.16326 8.98257 9.09049 9.09031 8.9938 9.17393C8.89711 9.25755 8.77996 9.31404 8.65433 9.33766C8.61566 9.34775 8.57913 9.3654 8.5473 9.38956C8.51546 9.41373 8.48889 9.44395 8.46878 9.47849C8.44866 9.51302 8.43541 9.55118 8.4301 9.5908C8.4248 9.63041 8.42761 9.6707 8.43792 9.70931L8.55784 10.1553C8.57874 10.2324 8.62928 10.2981 8.69848 10.338C8.76767 10.3778 8.84983 10.3887 8.927 10.3681C9.01013 10.345 9.09581 10.3329 9.18209 10.3321C9.26603 10.3287 9.34992 10.3421 9.42859 10.3715C9.50726 10.401 9.57931 10.446 9.64032 10.5037H9.6411ZM3.33102 1.40089L2.55012 1.85091C2.49076 1.8853 2.43865 1.93103 2.39699 1.98553C2.35532 2.04003 2.32476 2.1022 2.30714 2.1685C2.28907 2.2339 2.2841 2.30224 2.29269 2.36954C2.30127 2.43684 2.32323 2.50175 2.35714 2.56051C2.48073 2.7421 2.5541 2.9531 2.57004 3.17216C2.58599 3.39123 2.54376 3.61062 2.44777 3.80818C2.32564 3.99109 2.15732 4.13814 1.95947 4.23418C1.76161 4.33023 1.54159 4.37183 1.32233 4.35465C1.18441 4.35465 1.05225 4.40942 0.954729 4.50695C0.857205 4.60447 0.802378 4.73672 0.802378 4.87464V5.66829C0.802378 5.80621 0.857205 5.93846 0.954729 6.03598C1.05225 6.1335 1.18441 6.18833 1.32233 6.18833C1.54174 6.17165 1.76165 6.21364 1.95947 6.31002C2.15728 6.40639 2.32568 6.55368 2.44777 6.73675C2.54379 6.93395 2.58599 7.15303 2.57004 7.37179C2.5541 7.59055 2.48075 7.80122 2.35714 7.98241C2.32324 8.04155 2.30127 8.10679 2.29269 8.17442C2.2841 8.24204 2.28908 8.3107 2.30714 8.37643C2.34283 8.50895 2.42883 8.62221 2.547 8.69202L3.32828 9.13804C3.37404 9.16708 3.42547 9.18625 3.47907 9.19424C3.53268 9.20223 3.58739 9.1989 3.63963 9.18448C3.748 9.1562 3.84058 9.08613 3.89745 8.98964L3.94785 8.90526C4.04259 8.70754 4.18837 8.53848 4.36974 8.4153C4.55111 8.29211 4.7616 8.21919 4.98032 8.20401C5.19982 8.21764 5.41194 8.28991 5.59402 8.41325C5.77611 8.53658 5.92144 8.70648 6.01553 8.90526L6.06631 8.98964C6.09292 9.03703 6.12902 9.07832 6.17257 9.11084C6.21611 9.14336 6.26606 9.16642 6.31906 9.17847C6.37039 9.19283 6.42403 9.19667 6.47688 9.1898C6.52973 9.18293 6.58054 9.16548 6.6265 9.13848L7.40779 8.68846C7.52768 8.61902 7.6154 8.50495 7.65155 8.3712C7.66983 8.30582 7.67466 8.23746 7.666 8.17012C7.65734 8.10278 7.63539 8.03783 7.60115 7.97919C7.47725 7.79774 7.40335 7.58669 7.38747 7.36754C7.37159 7.14839 7.41407 6.92895 7.51053 6.73152C7.6325 6.54856 7.80102 6.40148 7.99883 6.30543C8.19664 6.20937 8.41676 6.16783 8.63597 6.18511C8.70437 6.18548 8.77194 6.17229 8.8352 6.14629C8.89846 6.12029 8.95599 6.082 9.00435 6.03364C9.05271 5.98527 9.09124 5.9278 9.11725 5.86454C9.14325 5.80128 9.15629 5.73351 9.15592 5.66511V4.86903C9.15592 4.73111 9.10109 4.59886 9.00357 4.50133C8.90604 4.40381 8.77389 4.34903 8.63597 4.34903C8.41682 4.36624 8.19695 4.32467 7.99922 4.22861C7.80149 4.13256 7.63286 3.98552 7.51092 3.80262C7.41443 3.60513 7.37198 3.38558 7.38786 3.16635C7.40374 2.94713 7.4776 2.73607 7.60155 2.55456C7.63574 2.49598 7.65773 2.4311 7.66639 2.36382C7.67505 2.29655 7.67019 2.22826 7.65194 2.16293C7.61613 2.02995 7.52984 1.91605 7.41169 1.84529L6.63001 1.39927C6.58292 1.37157 6.53099 1.35346 6.47688 1.34595C6.42277 1.33844 6.36762 1.34165 6.31476 1.35547C6.26191 1.3693 6.21255 1.39347 6.16905 1.42652C6.12555 1.45957 6.08872 1.50085 6.06123 1.54806L6.01358 1.63449C5.91847 1.83282 5.77213 2.00217 5.58973 2.12509C5.40732 2.24801 5.19555 2.32006 4.97602 2.33374C4.75713 2.32015 4.54586 2.24807 4.36427 2.12509C4.18269 2.00211 4.03741 1.83271 3.94355 1.63449L3.89316 1.5421C3.85553 1.48184 3.80334 1.43214 3.7412 1.39771C3.67905 1.36328 3.60911 1.34522 3.53806 1.34527C3.46508 1.34451 3.39307 1.36376 3.33024 1.40089H3.33102ZM9.82392 9.57527C9.75078 9.30373 9.78842 9.01427 9.92862 8.77049C10.0688 8.52671 10.3001 8.34855 10.5716 8.2752C10.7064 8.23843 10.8471 8.22868 10.9857 8.24649C11.1243 8.2643 11.2579 8.3093 11.3791 8.37897C11.5002 8.44863 11.6065 8.54158 11.6916 8.65242C11.7767 8.76326 11.8392 8.88982 11.8752 9.02485C11.911 9.1598 11.9199 9.3005 11.9014 9.43888C11.8828 9.57727 11.8371 9.71065 11.767 9.83138C11.6969 9.95212 11.6038 10.0578 11.4928 10.1425C11.3817 10.2272 11.2551 10.2892 11.1201 10.3249C11.0316 10.3485 10.9402 10.3606 10.8486 10.3609C10.615 10.3611 10.3879 10.2843 10.2025 10.1422C10.017 10.0002 9.88375 9.80088 9.82314 9.57527H9.82392ZM10.6919 8.72723C10.617 8.74742 10.5467 8.78223 10.4853 8.82967C10.4238 8.87712 10.3726 8.93629 10.3341 9.00371C10.2956 9.07112 10.2707 9.14544 10.2611 9.22247C10.2514 9.29949 10.2571 9.37765 10.2779 9.45246C10.3187 9.60415 10.4181 9.73349 10.554 9.81219C10.69 9.8909 10.8518 9.91259 11.0037 9.8725C11.1545 9.83089 11.2825 9.73118 11.3599 9.59524C11.4374 9.4593 11.4581 9.29823 11.417 9.14727C11.3849 9.02107 11.3113 8.90921 11.2084 8.82948C11.1054 8.74975 10.9788 8.70673 10.8486 8.70726C10.7954 8.70687 10.7426 8.71357 10.6912 8.72723H10.6919ZM3.28727 5.27105C3.28721 5.04886 3.3308 4.82885 3.41579 4.62356C3.50078 4.41827 3.62551 4.23173 3.7826 4.0746C3.9397 3.91747 4.12619 3.79283 4.33146 3.70779C4.53673 3.62275 4.75657 3.57897 4.97876 3.57897C5.2011 3.57876 5.42136 3.62241 5.62684 3.70735C5.83232 3.79229 6.01918 3.91687 6.17647 4.07402C6.33377 4.23116 6.45855 4.41777 6.54368 4.62317C6.62882 4.82856 6.67259 5.04871 6.67259 5.27105C6.67275 5.49351 6.62913 5.71386 6.54407 5.91942C6.45901 6.12498 6.33417 6.31175 6.17687 6.46906C6.01956 6.62636 5.83279 6.75111 5.62723 6.83617C5.42167 6.92123 5.20122 6.96489 4.97876 6.96474C4.75631 6.96479 4.53617 6.92099 4.33068 6.83582C4.12518 6.75066 3.93863 6.62581 3.78143 6.46842C3.62423 6.31104 3.49954 6.12424 3.41462 5.91864C3.3297 5.71304 3.28617 5.49271 3.28649 5.27027L3.28727 5.27105ZM3.96347 5.27105C3.96368 5.54039 4.07084 5.79869 4.26114 5.9893C4.45145 6.1799 4.70941 6.28726 4.97876 6.2879C5.24835 6.28758 5.50692 6.18037 5.69754 5.98974C5.88817 5.79911 5.99529 5.54064 5.99561 5.27105C5.99539 5.00143 5.8882 4.74291 5.69754 4.55226C5.50689 4.36161 5.24838 4.25441 4.97876 4.2542C4.70962 4.25494 4.45173 4.36228 4.26153 4.5527C4.07134 4.74312 3.96429 5.00113 3.96386 5.27027L3.96347 5.27105Z" fill="#FFFFFF" />
</svg>
    