<svg width="18" height="19" viewBox="0 0 18 19" fill="none" xmlns="http://www.w3.org/2000/svg">
    <path d="M6.49252 15.5107H6.34047C5.49669 15.512 4.67311 15.2518 3.98325 14.766C3.29147 14.2823 2.76649 13.5963 2.48032 12.8021C2.36232 12.4581 2.29405 12.0989 2.27773 11.7356V11.7298C2.24543 11.58 2.24553 11.425 2.27773 11.2752C2.30993 11.1253 2.3735 10.9842 2.4645 10.8609C2.63027 10.6573 2.86508 10.5212 3.12411 10.4783L3.69277 10.4478H9.14155L9.70976 10.4783C9.96886 10.521 10.2033 10.6571 10.3689 10.8609C10.4602 10.9841 10.5242 11.1254 10.5566 11.2753C10.589 11.4252 10.5892 11.5802 10.557 11.7302V11.7352C10.541 12.0986 10.4726 12.4578 10.354 12.8017C10.0682 13.5959 9.54348 14.282 8.85195 14.766C8.16131 15.252 7.33702 15.5121 6.49252 15.5107ZM4.31459 11.2357L3.87602 11.2564C3.68114 11.283 3.50145 11.3759 3.36713 11.5196C3.29809 11.6012 3.24887 11.6979 3.22387 11.8018C3.19887 11.9058 3.19863 12.0141 3.22299 12.1181V12.1213C3.23578 12.3728 3.28849 12.6205 3.37944 12.8552C3.63789 13.4242 4.05822 13.9044 4.58793 14.236C5.11764 14.5675 5.73334 14.7358 6.35805 14.7196H6.47582C7.10046 14.736 7.71633 14.5679 8.24594 14.2363C8.77555 13.9047 9.19549 13.4243 9.45356 12.8552C9.5446 12.6205 9.59776 12.3728 9.61044 12.1213V12.1177C9.63483 12.0136 9.63429 11.9053 9.60912 11.8014C9.58395 11.6975 9.53474 11.601 9.46542 11.5196C9.33135 11.3756 9.15154 11.2826 8.95654 11.2564L8.51752 11.2357H4.31459ZM6.38442 8.58296C6.04991 8.58381 5.71869 8.51819 5.40971 8.39004C5.10073 8.26189 4.82012 8.07368 4.58442 7.83633C4.34704 7.60063 4.15886 7.32024 4.03071 7.01125C3.90255 6.70227 3.83734 6.37083 3.83823 6.03633C3.83752 5.70184 3.903 5.37058 4.03115 5.06162C4.15929 4.75266 4.34719 4.47212 4.58442 4.23633C4.82015 3.99904 5.10072 3.81091 5.40971 3.68283C5.7187 3.55476 6.04994 3.4893 6.38442 3.49024C6.71887 3.48945 7.05016 3.55499 7.35912 3.68305C7.66809 3.81112 7.9486 3.99916 8.18442 4.23633C8.42145 4.47225 8.60963 4.75279 8.73769 5.06173C8.86574 5.37067 8.93123 5.7019 8.93061 6.03633C8.93138 6.37078 8.86575 6.70207 8.73769 7.01103C8.60962 7.31999 8.42157 7.60049 8.18442 7.83633C7.94865 8.07397 7.66825 8.26257 7.35912 8.39103C7.04999 8.51948 6.71829 8.58528 6.38354 8.58471L6.38442 8.58296ZM6.38442 4.27236C5.91716 4.27296 5.46937 4.45893 5.13901 4.78938C4.80865 5.11982 4.62269 5.56775 4.62221 6.03501C4.62269 6.50227 4.80865 6.9503 5.13901 7.28075C5.46937 7.61119 5.91716 7.79706 6.38442 7.79765C6.8518 7.79718 7.30018 7.6113 7.63071 7.28086C7.96124 6.95041 8.14735 6.50239 8.14794 6.03501C8.14687 5.56779 7.9605 5.12012 7.62983 4.79004C7.29915 4.45996 6.85076 4.27447 6.38354 4.27423L6.38442 4.27236Z" fill="#EFF1F8" />
    <path d="M12.2067 12.4718V7.76523C12.2067 7.46958 12.3797 7.23108 12.5948 7.23108C12.8099 7.23108 12.9823 7.46958 12.9823 7.76523V12.4718C12.9823 12.7674 12.8099 13.0059 12.5948 13.0059C12.3797 13.0059 12.2067 12.7674 12.2067 12.4718ZM12.1711 5.92283C12.1711 5.81541 12.2138 5.71248 12.2898 5.63652C12.3657 5.56057 12.4689 5.51787 12.5763 5.51787C12.6837 5.51787 12.7864 5.56057 12.8624 5.63652C12.9383 5.71248 12.981 5.81541 12.981 5.92283C12.981 6.03024 12.9383 6.1334 12.8624 6.20935C12.7864 6.2853 12.6837 6.328 12.5763 6.328C12.4689 6.328 12.3657 6.2853 12.2898 6.20935C12.2138 6.1334 12.1711 6.03024 12.1711 5.92283Z" fill="#EFF1F8" />
</svg>
    