<svg width="18" height="19" viewBox="0 0 18 19" fill="none" xmlns="http://www.w3.org/2000/svg">
    <path d="M6.4924 15.5098H6.34035C5.49657 15.5111 4.67299 15.2509 3.98312 14.765C3.29135 14.2813 2.76637 13.5953 2.48019 12.8012C2.3622 12.4572 2.29392 12.098 2.27761 11.7347V11.7288C2.2453 11.579 2.24541 11.424 2.27761 11.2742C2.3098 11.1244 2.37338 10.9832 2.46437 10.8599C2.63014 10.6563 2.86496 10.5202 3.12399 10.4774L3.69264 10.4468H9.14142L9.70964 10.4774C9.96874 10.52 10.2032 10.6562 10.3688 10.8599C10.4601 10.9832 10.524 11.1244 10.5565 11.2743C10.5889 11.4242 10.5891 11.5793 10.5569 11.7293V11.7342C10.5409 12.0976 10.4724 12.4569 10.3539 12.8008C10.068 13.5949 9.54336 14.2811 8.85182 14.765C8.16118 15.251 7.3369 15.5112 6.4924 15.5098ZM6.38342 8.58333C6.04891 8.58419 5.71769 8.51868 5.40871 8.39052C5.09973 8.26237 4.81912 8.07417 4.58342 7.83681C4.34604 7.60112 4.15786 7.32062 4.02971 7.01163C3.90155 6.70264 3.83634 6.37132 3.83722 6.03681C3.83652 5.70233 3.902 5.37096 4.03014 5.062C4.15829 4.75303 4.34618 4.47261 4.58342 4.23681C4.81915 3.99952 5.09972 3.8114 5.40871 3.68332C5.71769 3.55525 6.04894 3.48979 6.38342 3.49073C6.71787 3.48994 7.04916 3.55548 7.35812 3.68354C7.66709 3.81161 7.9476 3.99964 8.18342 4.23681C8.42045 4.47274 8.60863 4.75328 8.73669 5.06222C8.86474 5.37116 8.93023 5.70239 8.92961 6.03681C8.93037 6.37126 8.86475 6.70256 8.73669 7.01152C8.60862 7.32048 8.42057 7.60098 8.18342 7.83681C7.94764 8.07411 7.66752 8.26231 7.35856 8.39052C7.0496 8.51874 6.71793 8.58396 6.38342 8.58333Z" fill="#EFF1F8" />
    <path d="M12.2066 12.4709V7.7644C12.2066 7.46875 12.3795 7.23025 12.5946 7.23025C12.8097 7.23025 12.9822 7.46875 12.9822 7.7644V12.4709C12.9822 12.7666 12.8097 13.0051 12.5946 13.0051C12.3795 13.0051 12.2066 12.7666 12.2066 12.4709ZM12.171 5.922C12.171 5.81458 12.2137 5.71165 12.2896 5.63569C12.3656 5.55974 12.4688 5.51704 12.5762 5.51704C12.6836 5.51704 12.7863 5.55974 12.8623 5.63569C12.9382 5.71165 12.9809 5.81458 12.9809 5.922C12.9809 6.02941 12.9382 6.13257 12.8623 6.20852C12.7863 6.28447 12.6836 6.32717 12.5762 6.32717C12.4688 6.32717 12.3656 6.28447 12.2896 6.20852C12.2137 6.13257 12.171 6.02941 12.171 5.922Z" fill="#EFF1F8" />
</svg>
    