<svg width="24" height="24" viewBox="0 0 24 24" fill="none" xmlns="http://www.w3.org/2000/svg">
<path d="M8.65588 20.0137H8.45315C7.32811 20.0154 6.23 19.6685 5.31018 19.0207C4.38781 18.3758 3.68785 17.4611 3.30627 16.4023C3.14895 15.9436 3.05792 15.4646 3.03616 14.9802V14.9724C2.99309 14.7727 2.99322 14.566 3.03616 14.3663C3.07909 14.1665 3.16385 13.9783 3.28518 13.8139C3.50621 13.5424 3.8193 13.361 4.16467 13.3038L4.92288 13.2631H12.1879L12.9455 13.3038C13.291 13.3607 13.6036 13.5422 13.8244 13.8139C13.9462 13.9782 14.0314 14.1665 14.0746 14.3664C14.1179 14.5663 14.1181 14.7731 14.0752 14.973V14.9796C14.0538 15.4641 13.9626 15.9431 13.8045 16.4017C13.4234 17.4606 12.7238 18.3755 11.8018 19.0207C10.8809 19.6687 9.78188 20.0156 8.65588 20.0137ZM8.51057 10.7784C8.06457 10.7796 7.62294 10.6922 7.21096 10.5214C6.79898 10.3505 6.42485 10.0995 6.11057 9.78307C5.79407 9.46881 5.54316 9.09481 5.37229 8.68283C5.20142 8.27084 5.11447 7.82908 5.11565 7.38307C5.1147 6.93709 5.20202 6.49527 5.37288 6.08331C5.54373 5.67136 5.79426 5.29747 6.11057 4.98307C6.42488 4.66668 6.79898 4.41585 7.21096 4.24508C7.62294 4.07432 8.0646 3.98704 8.51057 3.98829C8.95651 3.98724 9.39823 4.07462 9.81018 4.24537C10.2221 4.41613 10.5961 4.66684 10.9106 4.98307C11.2266 5.29764 11.4775 5.67169 11.6483 6.08361C11.819 6.49553 11.9063 6.93717 11.9055 7.38307C11.9065 7.829 11.819 8.27073 11.6483 8.68268C11.4775 9.09463 11.2268 9.46863 10.9106 9.78307C10.5962 10.0995 10.2227 10.3504 9.81077 10.5214C9.39882 10.6923 8.95658 10.7799 8.51057 10.779V10.7784Z" fill="#F2F2F8"/>
<path d="M16.274 15.9623V9.68691C16.274 9.29271 16.5046 8.97471 16.7914 8.97471C17.0782 8.97471 17.3082 9.29271 17.3082 9.68691V15.9623C17.3082 16.3565 17.0782 16.6745 16.7914 16.6745C16.5046 16.6745 16.274 16.3565 16.274 15.9623ZM16.2266 7.23037C16.2266 7.08715 16.2835 6.9499 16.3848 6.84863C16.486 6.74736 16.6236 6.69043 16.7668 6.69043C16.91 6.69043 17.047 6.74736 17.1482 6.84863C17.2495 6.9499 17.3064 7.08715 17.3064 7.23037C17.3064 7.37359 17.2495 7.51113 17.1482 7.6124C17.047 7.71367 16.91 7.77061 16.7668 7.77061C16.6236 7.77061 16.486 7.71367 16.3848 7.6124C16.2835 7.51113 16.2266 7.37359 16.2266 7.23037Z" fill="#F2F2F8"/>
</svg>
