<svg width="18" height="19" viewBox="0 0 18 19" fill="none" xmlns="http://www.w3.org/2000/svg">
    <g clip-path="url(#clip0_1012_15430)">
        <path fill-rule="evenodd" clip-rule="evenodd" d="M12.457 4.93757V4.98069H12.6381C14.2154 4.98069 15.3008 5.34066 15.947 6.05751C16.2432 6.44322 16.4546 6.88708 16.5674 7.36011C16.6802 7.83313 16.6919 8.32464 16.6017 8.8025L16.0577 14.6138C15.8966 16.1407 15.2707 17.7062 11.9101 17.7062H6.09024C2.72919 17.7062 2.10368 16.1407 1.94348 14.6219L1.39941 8.79305C1.30957 8.31669 1.32148 7.82672 1.43431 7.35527C1.54715 6.88383 1.75839 6.44158 2.05416 6.05751C2.70891 5.32986 3.7916 4.98069 5.363 4.98069H5.54277V4.93757C5.54277 3.65732 5.54279 2.0625 8.41784 2.0625H9.58195C12.457 2.0625 12.457 3.65732 12.457 4.93757ZM11.91 6.06657L11.9074 6.06652H5.36256C4.13181 6.06652 3.28762 6.30501 2.86012 6.78651C2.66445 7.0576 2.52936 7.36763 2.46406 7.69552C2.39876 8.02341 2.40478 8.3615 2.48167 8.68687L2.50363 8.92206C3.85643 9.84296 5.38958 10.4609 6.99824 10.7365V10.6134C6.99824 9.58918 7.24846 9.33896 8.27266 9.33896H9.72746C10.7517 9.33896 11.0019 9.58918 11.0019 10.6134V10.7159C12.6157 10.4233 14.1502 9.78933 15.5016 8.85481L15.5168 8.69275C15.5915 8.36628 15.5963 8.02768 15.5311 7.6992C15.4659 7.37072 15.332 7.05971 15.1384 6.78651C14.7077 6.30636 13.8639 6.06652 12.6359 6.06652H11.9126L11.91 6.06657ZM7.01357 11.8439C5.46686 11.6059 3.98021 11.0782 2.63137 10.2899L3.02571 14.5126C3.15081 15.6619 3.46219 16.6163 6.08974 16.6163H11.9096C14.5286 16.6163 14.8486 15.6619 14.9696 14.5067L15.3714 10.2383C14.0228 11.036 12.5361 11.578 10.9865 11.8347C10.9235 12.5409 10.6051 13.3412 9.00028 13.3412C7.39286 13.3412 7.07602 12.5421 7.01357 11.8439ZM11.3631 4.98069H6.63674V4.93757C6.63674 3.64247 6.63674 3.15646 8.41784 3.15646H9.58195C11.3631 3.15646 11.3631 3.64292 11.3631 4.93757V4.98069ZM8.09264 11.3595V10.4311H9.90841V11.3536C9.90841 12.1334 9.90793 12.2469 9.00028 12.2469C8.09264 12.2469 8.09264 12.11 8.09264 11.3595Z" fill="#EFF1F8" />
    </g>
    <defs>
        <clipPath id="clip0_1012_15430">
            <rect width="18" height="18" fill="white" transform="translate(0 0.882812)" />
        </clipPath>
    </defs>
</svg>
    