<svg width="24" height="24" viewBox="0 0 24 24" fill="none" xmlns="http://www.w3.org/2000/svg">
    <g clip-path="url(#clip0_34170_10038)">
        <path d="M16.8006 9.79946H7.20059C7.00959 9.79582 6.82735 9.71859 6.69179 9.58398C6.59164 9.48323 6.52353 9.3551 6.49603 9.21572C6.46854 9.07634 6.48289 8.93197 6.53729 8.80073C6.59168 8.66949 6.68369 8.55724 6.80172 8.47817C6.91975 8.39911 7.05853 8.35681 7.20059 8.35645H16.8006C16.9427 8.35681 17.0814 8.39911 17.1995 8.47817C17.3175 8.55724 17.4095 8.66949 17.4639 8.80073C17.5183 8.93197 17.5326 9.07634 17.5052 9.21572C17.4777 9.3551 17.4096 9.48323 17.3094 9.58398C17.1738 9.71859 16.9916 9.79582 16.8006 9.79946Z" fill="#F2F2F8" />
        <path d="M12.0011 9.79873C11.8101 9.79515 11.6278 9.71806 11.4923 9.5834C11.3569 9.44909 11.2803 9.26642 11.2793 9.07568V7.45938C11.2793 7.26802 11.3553 7.08448 11.4906 6.94917C11.6259 6.81386 11.8094 6.73779 12.0008 6.73779C12.1922 6.73779 12.3757 6.81386 12.511 6.94917C12.6463 7.08448 12.7223 7.26802 12.7223 7.45938V9.07568C12.7213 9.26642 12.6447 9.44909 12.5093 9.5834C12.3739 9.71791 12.1919 9.795 12.0011 9.79873Z" fill="#F2F2F8" />
        <path d="M7.19083 17.261C7.00003 17.2621 6.81661 17.1873 6.68083 17.0533C6.57968 16.9522 6.51076 16.8235 6.48276 16.6833C6.45476 16.543 6.46894 16.3975 6.5235 16.2653C6.57807 16.1332 6.67058 16.0202 6.78935 15.9406C6.90812 15.8609 7.04782 15.8183 7.19083 15.818C8.94828 15.7816 10.6194 15.0489 11.837 13.7811C13.0547 12.5133 13.7192 10.814 13.6846 9.05654C13.6846 8.86519 13.7606 8.68165 13.8959 8.54634C14.0313 8.41103 14.2148 8.33496 14.4061 8.33496C14.5975 8.33496 14.781 8.41103 14.9163 8.54634C15.0516 8.68165 15.1276 8.86519 15.1276 9.05654C15.1618 11.1966 14.3451 13.2627 12.857 14.8011C11.3688 16.3394 9.33086 17.2242 7.19083 17.261Z" fill="#F2F2F8" />
        <path d="M16.81 17.2646C15.8336 17.2427 14.8762 16.9896 14.0166 16.526C13.157 16.0624 12.4195 15.4016 11.8648 14.5977C11.808 14.5219 11.7667 14.4357 11.7432 14.344C11.7197 14.2522 11.7146 14.1567 11.728 14.063C11.7412 13.9694 11.7728 13.8793 11.8211 13.798C11.8694 13.7167 11.9334 13.6459 12.0094 13.5896C12.085 13.5324 12.1712 13.4908 12.263 13.467C12.3547 13.4432 12.4503 13.4376 12.5442 13.4509C12.638 13.4641 12.7284 13.4957 12.81 13.5439C12.8916 13.5921 12.9629 13.656 13.0198 13.7318C13.4454 14.3534 14.011 14.8663 14.6711 15.2293C15.3312 15.5923 16.0674 15.7951 16.8202 15.8216C17.0108 15.8228 17.1932 15.8992 17.328 16.034C17.4627 16.1687 17.539 16.3511 17.5402 16.5417C17.537 16.7332 17.4585 16.9157 17.3218 17.0498C17.1848 17.184 17.0018 17.2608 16.81 17.2646Z" fill="#F2F2F8" />
        <path d="M14.8864 22.3435H9.1144C3.8902 22.3435 1.6582 20.1114 1.6582 14.8854V9.11289C1.6582 3.89289 3.8902 1.65479 9.1144 1.65479H14.887C20.1112 1.65479 22.3432 3.89049 22.3432 9.11289V14.8854C22.3432 20.112 20.1106 22.3435 14.8864 22.3435ZM9.1138 3.10205C4.6786 3.10205 3.1006 4.67589 3.1006 9.11289V14.8854C3.1006 19.3254 4.6786 20.8962 9.1138 20.8962H14.8864C19.3216 20.8962 20.8996 19.3224 20.8996 14.8854V9.11289C20.8996 4.67289 19.3216 3.10205 14.8864 3.10205H9.1138Z" fill="#F2F2F8" />
    </g>
    <defs>
        <clipPath id="clip0_34170_10038">
            <rect width="24" height="24" fill="white" />
        </clipPath>
    </defs>
</svg>
    