<svg width="16" height="16" viewBox="0 0 16 16" fill="none" xmlns="http://www.w3.org/2000/svg">
<g clip-path="url(#clip0_30602_10785)">
<path d="M9.93286 14.9104H6.0815C5.87229 14.9104 5.66021 14.9044 5.451 14.8928C5.24179 14.8812 5.04298 14.8612 4.86738 14.8388C4.66296 14.8128 4.48633 14.7836 4.32672 14.7496C4.13831 14.7096 3.97696 14.6695 3.83295 14.6235C3.67534 14.5735 3.52451 14.518 3.38371 14.458C3.2436 14.3988 3.10701 14.3312 2.97509 14.2555C2.84875 14.1815 2.72688 14.1001 2.61023 14.0116C2.49581 13.9254 2.38783 13.8311 2.28678 13.7295C2.18518 13.6284 2.09079 13.5202 2.00434 13.4059C1.91615 13.2891 1.83466 13.1673 1.76058 13.0411C1.68491 12.9093 1.61737 12.7731 1.55823 12.6331C1.49702 12.4895 1.44099 12.3383 1.39259 12.1835C1.34419 12.0287 1.30734 11.8811 1.27774 11.7374C1.16047 11.3086 1.10358 10.8655 1.10859 10.421V10.2009C1.10859 10.1153 1.10547 10.0238 1.10547 9.93335V9.51175C1.10547 9.54615 1.10539 9.58095 1.10859 9.61615V8.18483C1.10539 8.06482 1.10539 7.93888 1.10859 7.81528V6.41521C1.10859 6.46241 1.10586 6.50717 1.10586 6.55437V6.08355C1.10586 5.98994 1.10578 5.89432 1.10898 5.81752V5.59593C1.10395 5.15138 1.16084 4.70828 1.27813 4.27946C1.31294 4.12185 1.35178 3.97222 1.39298 3.83461C1.44299 3.6746 1.49901 3.52498 1.55862 3.38498C1.61784 3.24503 1.68537 3.10877 1.76097 2.97695C1.83423 2.85022 1.91575 2.72841 2.00473 2.61218C2.09121 2.49786 2.1856 2.38969 2.28717 2.28854C2.38865 2.18694 2.4966 2.0922 2.61062 2.00493C2.72729 1.91693 2.84916 1.836 2.97548 1.76253C3.10742 1.6869 3.24401 1.61927 3.3841 1.56008C3.53078 1.49679 3.68075 1.44145 3.83334 1.39415C3.99335 1.34495 4.15991 1.30248 4.32711 1.26807C4.49432 1.23367 4.67856 1.20135 4.86777 1.17735C5.07738 1.15215 5.26778 1.13491 5.45139 1.12451C5.6602 1.11291 5.87228 1.10693 6.08189 1.10693H9.93325C10.1429 1.10693 10.3553 1.11291 10.5641 1.12451C10.7478 1.13451 10.9393 1.15215 11.1489 1.17735C11.3361 1.20135 11.5176 1.23167 11.688 1.26807C11.8584 1.30448 12.0194 1.34455 12.1818 1.39415C12.3345 1.44141 12.4846 1.49675 12.6314 1.56008C12.7714 1.61915 12.9079 1.68679 13.0397 1.76253C13.1667 1.83511 13.2887 1.91608 13.4049 2.00493C13.5189 2.09229 13.6268 2.18702 13.7284 2.28854C13.8299 2.39003 13.9247 2.49817 14.012 2.61218C14.1002 2.7286 14.1812 2.85039 14.2542 2.97695C14.3299 3.10875 14.3976 3.24501 14.4569 3.38498C14.5207 3.53155 14.576 3.68168 14.6225 3.83461C14.6666 3.98382 14.7024 4.11461 14.7292 4.23941C14.8547 4.68044 14.9154 5.13743 14.9093 5.59593V10.4221C14.9155 10.8812 14.8548 11.3387 14.7292 11.7802C14.6952 11.9298 14.6606 12.0622 14.6225 12.185C14.5761 12.338 14.5207 12.4881 14.4569 12.6347C14.3975 12.7746 14.3298 12.9108 14.2542 13.0427C14.1803 13.1687 14.0994 13.2905 14.012 13.4075C13.9246 13.5215 13.8299 13.6296 13.7284 13.7311C13.6273 13.8326 13.5193 13.9269 13.4049 14.0131C13.2888 14.1026 13.1667 14.1841 13.0397 14.2572C12.9078 14.3328 12.7714 14.4003 12.6314 14.4596C12.4902 14.52 12.339 14.5756 12.1818 14.6252C12.037 14.6696 11.8752 14.7108 11.688 14.7512C11.528 14.7852 11.3513 14.8143 11.1489 14.8403C10.9745 14.8627 10.7782 14.8803 10.5641 14.8943C10.3501 14.9083 10.1421 14.9104 9.93286 14.9104ZM6.84365 6.81679C6.85925 7.17681 6.84925 10.1566 6.84365 11.4206C6.84365 11.4778 6.84365 11.5106 6.84365 11.5142H8.40388V8.88926C8.39719 8.76141 8.41402 8.63348 8.45349 8.5117C8.51357 8.34539 8.62134 8.2006 8.76366 8.09566C8.90796 7.99325 9.08089 7.93864 9.25783 7.9396C9.77425 7.9396 10.0469 8.30608 10.0469 8.99971V11.5102H11.6072V8.82128C11.6072 7.49802 10.9354 6.70799 9.81098 6.70799C9.78858 6.70799 9.76545 6.70799 9.74145 6.70799C9.48103 6.70805 9.22473 6.77383 8.99649 6.89921C8.74993 7.03863 8.54506 7.24093 8.40232 7.48557V6.81913L6.84365 6.81679ZM4.41462 6.81679V11.509H5.97798V6.81679H4.41462ZM5.20645 4.52947C4.98044 4.52288 4.76117 4.60602 4.59627 4.76073C4.43137 4.91544 4.33416 5.12912 4.32633 5.35509C4.33396 5.58128 4.43098 5.79524 4.59588 5.95024C4.76078 6.10525 4.98023 6.18875 5.20645 6.18238C5.43265 6.18864 5.65216 6.10513 5.81703 5.95014C5.98191 5.79516 6.07885 5.58125 6.08658 5.35509C6.07905 5.12887 5.98195 4.91488 5.81703 4.75985C5.65211 4.60482 5.43271 4.52143 5.20645 4.52791V4.52947Z" fill="#F2F2F8"/>
</g>
<defs>
<clipPath id="clip0_30602_10785">
<rect width="16" height="16" fill="white"/>
</clipPath>
</defs>
</svg>
