<svg width="18" height="19" viewBox="0 0 18 19" fill="none" xmlns="http://www.w3.org/2000/svg">
    <g clip-path="url(#clip0_934_36496)">
        <path fill-rule="evenodd" clip-rule="evenodd" d="M3.93384 8.18446V7.03772C3.93384 4.95912 4.43509 2.19702 8.7741 2.19702C13.1131 2.19702 13.6148 4.95912 13.6148 7.03772V8.18362C15.0831 8.63957 15.5854 9.7765 15.5854 12.0582V14.3913C15.5854 17.5517 14.6214 18.5143 11.4605 18.5143H6.08985C2.93032 18.5143 1.9668 17.5508 1.9668 14.3913V12.0582C1.9668 9.77788 2.46824 8.64096 3.93384 8.18446ZM11.9708 7.94262V6.8215C11.9708 4.90445 11.4273 3.6266 8.77541 3.6266C6.1235 3.6266 5.58051 4.9049 5.58051 6.8215V7.94259C5.74358 7.93636 5.91328 7.93335 6.08985 7.93335H11.4605C11.6374 7.93335 11.8074 7.93637 11.9708 7.94262ZM8.22257 12.0794C8.22257 11.7811 8.46434 11.5394 8.76258 11.5394C9.06082 11.5394 9.3026 11.7811 9.3026 12.0794V14.1494C9.3026 14.4477 9.06082 14.6894 8.76258 14.6894C8.46434 14.6894 8.22257 14.4477 8.22257 14.1494V12.0794Z" fill="#EFF1F8" />
    </g>
    <defs>
        <clipPath id="clip0_934_36496">
            <rect width="18" height="18" fill="white" transform="translate(0 0.859253)" />
        </clipPath>
    </defs>
</svg>
    