<svg width="18" height="19" viewBox="0 0 18 19" fill="none" xmlns="http://www.w3.org/2000/svg">
    <g clip-path="url(#clip0_934_36224)">
        <path d="M9.11123 11.647C8.81299 11.647 8.57122 11.8888 8.57122 12.1871V14.2571C8.57122 14.5554 8.81299 14.7971 9.11123 14.7971C9.40947 14.7971 9.65124 14.5554 9.65124 14.2571V12.1871C9.65124 11.8888 9.40947 11.647 9.11123 11.647Z" fill="#EFF1F8" />
        <path fill-rule="evenodd" clip-rule="evenodd" d="M4.15493 6.99071V8.13847C2.69085 8.59467 2.19141 9.73032 2.19141 12.0106V14.3448C2.19141 17.507 3.15218 18.4678 6.31486 18.4678H11.6866C14.848 18.4678 15.8087 17.507 15.8101 14.3448V12.0106C15.8101 9.72705 15.309 8.59141 13.8401 8.13652V6.99071C13.8401 4.91121 13.3383 2.15039 8.99975 2.15039C4.66119 2.15039 4.15943 4.91121 4.15493 6.99071ZM12.7623 6.99071V7.93369C12.4359 7.90188 12.0781 7.88715 11.6866 7.88715H6.31486C5.92165 7.88715 5.56248 7.90201 5.23496 7.93409V6.99071C5.23496 4.7321 5.87083 3.22592 8.9975 3.22592C12.1242 3.22592 12.7623 4.73165 12.7623 6.99071ZM6.31486 8.96268C3.7498 8.96268 3.26738 9.45049 3.26738 12.0102V14.3448C3.26738 16.9049 3.748 17.3923 6.31486 17.3923H11.6866C14.2517 17.3923 14.7341 16.9045 14.7341 14.3448V12.0106C14.7332 9.45049 14.2517 8.96268 11.6866 8.96268H6.31486Z" fill="#EFF1F8" />
    </g>
    <defs>
        <clipPath id="clip0_934_36224">
            <rect width="18" height="18" fill="white" transform="translate(0 0.859253)" />
        </clipPath>
    </defs>
</svg>
    