<svg width="137" height="54" viewBox="0 0 137 54" fill="none" xmlns="http://www.w3.org/2000/svg">
<path d="M71.4372 16.794V37.962H67.1396L56.6404 21.114H56.5316L56.586 22.032C56.7492 23.76 56.8036 25.38 56.8036 26.946V37.962H53.6484V16.794H57.8916L68.3364 33.588H68.4452C68.282 30.834 68.282 28.944 68.282 27.918V16.794H71.4372Z" fill="#F2F2F8"/>
<path d="M84.7648 29.916L89.2256 16.794H92.8704L85.3632 37.962H81.7184L74.2656 16.794H77.856L82.3168 29.97C82.5344 30.564 82.752 31.32 83.024 32.292C83.296 33.21 83.4592 34.02 83.568 34.614C83.7312 33.858 83.8944 32.994 84.1664 32.022C84.4384 30.996 84.6016 30.348 84.7648 29.916Z" fill="#F2F2F8"/>
<path d="M99.1261 37.962H95.6445V16.794H99.1261V37.962Z" fill="#F2F2F8"/>
<path d="M108.267 29.538V38.016H104.785V16.794H110.769C113.544 16.794 115.556 17.28 116.862 18.306C118.222 19.332 118.875 20.898 118.875 22.95C118.875 25.596 117.515 27.486 114.74 28.566L120.724 37.962H116.753L111.64 29.484L108.267 29.538ZM108.267 19.764V26.676H110.715C112.292 26.676 113.489 26.352 114.251 25.812C115.012 25.218 115.339 24.354 115.339 23.166C115.339 21.978 114.958 21.114 114.196 20.574C113.435 20.034 112.238 19.764 110.606 19.764H108.267Z" fill="#F2F2F8"/>
<path d="M135.901 35.046V37.962H123.824V16.794H135.901V19.71H127.36V25.488H135.411V28.35H127.36V34.992L135.901 35.046Z" fill="#F2F2F8"/>
<path d="M36.1864 32.832H36.0776C34.0104 36.396 30.148 38.826 25.6872 38.826C18.996 38.826 13.6104 33.48 13.6104 26.892C13.6104 20.304 18.996 14.958 25.6328 14.958C31.4536 14.958 36.3496 19.116 37.4376 24.624H17.7448V28.782H37.1656H37.492H41.7896C41.844 28.188 41.8984 27.54 41.8984 26.892C41.8984 17.982 34.6088 10.746 25.6328 10.746C16.6568 10.746 9.36719 17.982 9.36719 26.892C9.36719 35.802 16.6568 43.038 25.6328 43.038C31.6712 43.038 37.0024 39.744 39.7768 34.884L36.1864 32.832Z" fill="#F2F2F8"/>
<path d="M42.7681 9.45002C42.9857 8.96402 43.0945 8.42402 43.0945 7.88402C43.0945 5.61603 41.2449 3.83402 39.0145 3.83402C37.9265 3.83402 37.0017 4.21203 36.2401 4.91403C33.0305 3.34803 29.4401 2.53802 25.5777 2.53802C12.0321 2.53802 1.09766 13.446 1.09766 26.892C1.09766 40.338 12.0865 51.246 25.6321 51.246C39.2321 51.246 50.1665 40.338 50.1665 26.892C50.1665 20.034 47.3377 13.878 42.7681 9.45002ZM38.9601 5.18403C40.4833 5.18403 41.7345 6.42602 41.7345 7.93802C41.7345 9.45002 40.4833 10.692 38.9601 10.692C37.4369 10.692 36.1857 9.45002 36.1857 7.93802C36.1857 6.42602 37.4369 5.18403 38.9601 5.18403ZM25.6321 48.06C13.8273 48.06 4.30726 38.61 4.30726 26.892C4.30726 15.174 13.8817 5.72403 25.6321 5.72403C28.9505 5.72403 32.1057 6.48002 34.9345 7.83002C34.9345 7.88402 34.9345 7.88402 34.9345 7.93802C34.9345 10.206 36.7841 11.988 39.0145 11.988C39.5041 11.988 40.0481 11.88 40.4833 11.718C44.4545 15.552 46.9569 20.952 46.9569 26.946C46.9569 38.61 37.4369 48.06 25.6321 48.06Z" fill="#6ACCE5"/>
</svg>
