<svg width="22" height="23" viewBox="0 0 22 23" fill="none" xmlns="http://www.w3.org/2000/svg">
    <path d="M15.5418 14.0753H15.495C14.6054 15.6204 12.9431 16.6739 11.0234 16.6739C8.14381 16.6739 5.82609 14.3562 5.82609 11.5C5.82609 8.64381 8.14381 6.32609 11 6.32609C13.505 6.32609 15.612 8.12876 16.0803 10.5167H7.60535V12.3194H15.9632H16.1037H17.9532C17.9766 12.0619 18 11.7809 18 11.5C18 7.63712 14.8629 4.5 11 4.5C7.13712 4.5 4 7.63712 4 11.5C4 15.3629 7.13712 18.5 11 18.5C13.5987 18.5 15.893 17.0719 17.087 14.9649L15.5418 14.0753Z" fill="white" />
    <path d="M18.6829 3.62195C18.7805 3.40244 18.8293 3.15854 18.8293 2.91463C18.8293 1.89024 18 1.08537 17 1.08537C16.5122 1.08537 16.0976 1.2561 15.7561 1.57317C14.3171 0.865854 12.7073 0.5 10.9756 0.5C4.90244 0.5 0 5.42683 0 11.5C0 17.5732 4.92683 22.5 11 22.5C17.0976 22.5 22 17.5732 22 11.5C22 8.40244 20.7317 5.62195 18.6829 3.62195ZM16.9756 1.69512C17.6585 1.69512 18.2195 2.2561 18.2195 2.93902C18.2195 3.62195 17.6585 4.18293 16.9756 4.18293C16.2927 4.18293 15.7317 3.62195 15.7317 2.93902C15.7317 2.2561 16.2927 1.69512 16.9756 1.69512ZM11 21.061C5.70732 21.061 1.43902 16.7927 1.43902 11.5C1.43902 6.20732 5.73171 1.93902 11 1.93902C12.4878 1.93902 13.9024 2.28049 15.1707 2.89024C15.1707 2.91463 15.1707 2.91463 15.1707 2.93902C15.1707 3.96341 16 4.76829 17 4.76829C17.2195 4.76829 17.4634 4.71951 17.6585 4.64634C19.439 6.37805 20.561 8.81707 20.561 11.5244C20.561 16.7927 16.2927 21.061 11 21.061Z" fill="#6ACCE5" />
</svg>
    