<svg width="24" height="24" viewBox="0 0 24 24" fill="none" xmlns="http://www.w3.org/2000/svg">
<g clip-path="url(#clip0_31565_21050)">
<path d="M12.4956 20.7046H6.53248C3.0445 20.7046 1.80664 18.2583 1.80664 15.9788V8.02118C1.80664 4.62142 3.13271 3.29535 6.53248 3.29535H12.4962C15.8953 3.29535 17.222 4.62142 17.222 8.02118V15.9788C17.2214 19.3762 15.8947 20.7046 12.4956 20.7046ZM6.53248 4.78882C3.96675 4.78882 3.30012 5.45546 3.30012 8.02118V15.9788C3.30012 17.1872 3.72014 19.2111 6.53248 19.2111H12.4962C15.0601 19.2111 15.7285 18.5433 15.7285 15.9788V8.02118C15.7285 5.45726 15.0607 4.78882 12.4962 4.78882H6.53248Z" fill="#E5E9F0"/>
<path d="M20.2577 18.0027C19.6842 17.9807 19.1317 17.7816 18.676 17.4327L16.0527 15.596C15.9551 15.5273 15.8755 15.4361 15.8208 15.33C15.766 15.224 15.7377 15.1063 15.7383 14.987V9.01366C15.7376 8.89422 15.7659 8.7764 15.8206 8.67024C15.8754 8.56408 15.955 8.47275 16.0527 8.40403L18.6784 6.56734C19.8449 5.7519 20.6999 5.98771 21.1026 6.19352C21.5052 6.41013 22.1928 6.96996 22.1928 8.39563V15.596C22.1928 17.0205 21.5052 17.5905 21.1026 17.7969C20.8433 17.9368 20.5523 18.0077 20.2577 18.0027ZM17.2216 14.5939L19.5305 16.205C19.9727 16.5098 20.2871 16.5392 20.4149 16.4702C20.5523 16.4012 20.6999 16.1264 20.6999 15.596V8.40403C20.6999 7.864 20.5427 7.59819 20.4149 7.52979C20.2871 7.46138 19.9727 7.49078 19.5305 7.7956L17.2216 9.40668V14.5939Z" fill="#E5E9F0"/>
<path d="M11.1402 11.754C10.703 11.754 10.2756 11.6243 9.9121 11.3814C9.54859 11.1385 9.26526 10.7933 9.09795 10.3894C8.93065 9.98547 8.88687 9.54101 8.97216 9.11221C9.05746 8.68341 9.26799 8.28954 9.57713 7.98039C9.88628 7.67125 10.2802 7.46072 10.7089 7.37542C11.1377 7.29013 11.5822 7.3339 11.9861 7.50121C12.39 7.66852 12.7353 7.95185 12.9782 8.31536C13.2211 8.67888 13.3507 9.10626 13.3507 9.54346C13.3498 10.1294 13.1166 10.6911 12.7022 11.1055C12.2879 11.5198 11.7262 11.753 11.1402 11.754ZM11.1402 8.80662C10.9945 8.80662 10.852 8.84984 10.7308 8.9308C10.6097 9.01177 10.5152 9.12684 10.4595 9.26148C10.4037 9.39612 10.3891 9.54428 10.4175 9.68721C10.446 9.83014 10.5161 9.96143 10.6192 10.0645C10.7222 10.1675 10.8535 10.2377 10.9964 10.2661C11.1394 10.2946 11.2875 10.28 11.4222 10.2242C11.5568 10.1684 11.6719 10.074 11.7529 9.95282C11.8338 9.83165 11.877 9.68919 11.877 9.54346C11.8756 9.34847 11.7975 9.16188 11.6597 9.024C11.5218 8.88612 11.3352 8.80804 11.1402 8.80662Z" fill="#E5E9F0"/>
</g>
<defs>
<clipPath id="clip0_31565_21050">
<rect width="24" height="24" fill="white"/>
</clipPath>
</defs>
</svg>
