<svg width="17" height="16" viewBox="0 0 17 16" fill="none" xmlns="http://www.w3.org/2000/svg">
    <g clip-path="url(#clip0_1927_87916)">
        <path d="M14.8603 3.21404H2.09768C1.95694 3.213 1.82227 3.15659 1.72278 3.05703C1.6233 2.95748 1.567 2.82276 1.56606 2.68202C1.5671 2.54134 1.62345 2.40673 1.72292 2.30726C1.8224 2.20778 1.95701 2.15144 2.09768 2.15039H14.8583C14.999 2.15144 15.1336 2.20778 15.2331 2.30726C15.3326 2.40673 15.3889 2.54134 15.3899 2.68202C15.389 2.82242 15.333 2.95683 15.2339 3.05634C15.1349 3.15584 15.0007 3.21247 14.8603 3.21404Z" fill="#EFF1F8" />
        <path d="M14.8603 6.75914H2.09768C1.95694 6.75809 1.82227 6.70169 1.72278 6.60213C1.6233 6.50257 1.567 6.36786 1.56606 6.22712C1.5671 6.08644 1.62345 5.95183 1.72292 5.85236C1.8224 5.75288 1.95701 5.69654 2.09768 5.69549H14.8583C14.999 5.69654 15.1336 5.75288 15.2331 5.85236C15.3326 5.95183 15.3889 6.08644 15.3899 6.22712C15.389 6.36752 15.333 6.50193 15.2339 6.60144C15.1349 6.70094 15.0007 6.75757 14.8603 6.75914Z" fill="#EFF1F8" />
        <path d="M14.8603 13.8493H2.09768C1.95694 13.8483 1.82227 13.7919 1.72278 13.6923C1.6233 13.5928 1.567 13.4581 1.56606 13.3173C1.5671 13.1766 1.62345 13.042 1.72292 12.9426C1.8224 12.8431 1.95701 12.7867 2.09768 12.7857H14.8583C14.999 12.7867 15.1336 12.8431 15.2331 12.9426C15.3326 13.042 15.3889 13.1766 15.3899 13.3173C15.389 13.4577 15.333 13.5921 15.2339 13.6916C15.1349 13.7911 15.0007 13.8478 14.8603 13.8493Z" fill="#EFF1F8" />
        <path d="M14.8603 10.3042H2.09768C1.95694 10.3032 1.82227 10.2468 1.72278 10.1472C1.6233 10.0477 1.567 9.91296 1.56606 9.77222C1.5671 9.63154 1.62345 9.49693 1.72292 9.39746C1.8224 9.29798 1.95701 9.24164 2.09768 9.24059H14.8583C14.999 9.24164 15.1336 9.29798 15.2331 9.39746C15.3326 9.49693 15.3889 9.63154 15.3899 9.77222C15.389 9.91261 15.333 10.047 15.2339 10.1465C15.1349 10.246 15.0007 10.3027 14.8603 10.3042Z" fill="#EFF1F8" />
    </g>
    <defs>
        <clipPath id="clip0_1927_87916">
            <rect width="16" height="16" fill="white" transform="translate(0.537094)" />
        </clipPath>
    </defs>
</svg>