<svg width="24" height="24" viewBox="0 0 24 24" fill="none" xmlns="http://www.w3.org/2000/svg">
    <g clip-path="url(#clip0_1012_17133)">
        <path d="M22.3881 12.0001C22.3889 11.8809 22.366 11.7627 22.3208 11.6524C22.2755 11.5421 22.2088 11.4419 22.1245 11.3576C22.0403 11.2733 21.9401 11.2066 21.8298 11.1614C21.7195 11.1161 21.6013 11.0932 21.4821 11.094H2.63096C2.39058 11.094 2.16004 11.1895 1.99007 11.3595C1.8201 11.5295 1.72461 11.76 1.72461 12.0004C1.72461 12.2407 1.8201 12.4713 1.99007 12.6413C2.16004 12.8112 2.39058 12.9067 2.63096 12.9067H21.4821C21.7223 12.9059 21.9523 12.8101 22.1221 12.6403C22.2919 12.4704 22.3875 12.2402 22.3881 12.0001Z" fill="#EFF1F8" />
        <path d="M1.86881 18.5554C1.86802 18.6746 1.89091 18.7928 1.93616 18.9031C1.98141 19.0134 2.04812 19.1136 2.13241 19.1978C2.21671 19.2821 2.31691 19.3488 2.42719 19.3941C2.53748 19.4393 2.65565 19.4622 2.77486 19.4614H21.3374C21.5777 19.4614 21.8081 19.366 21.9781 19.1961C22.148 19.0262 22.2434 18.7957 22.2434 18.5554C22.2434 18.3151 22.148 18.0846 21.9781 17.9147C21.8081 17.7448 21.5777 17.6494 21.3374 17.6494H2.77546C2.53583 17.6517 2.30667 17.7479 2.13717 17.9173C1.96766 18.0867 1.87132 18.3158 1.86881 18.5554Z" fill="#EFF1F8" />
        <path d="M1.93616 5.79241C1.89091 5.68212 1.86802 5.56395 1.86881 5.44474C1.86961 5.20458 1.9654 4.9745 2.13528 4.80473C2.30515 4.63497 2.5353 4.53933 2.77546 4.5387H21.3374C21.5777 4.5387 21.8081 4.63415 21.9781 4.80407C22.148 4.97399 22.2434 5.20444 22.2434 5.44474C22.2434 5.68504 22.148 5.9155 21.9781 6.08541C21.8081 6.25533 21.5777 6.35079 21.3374 6.35079H2.77486C2.65565 6.35158 2.53748 6.32869 2.42719 6.28344C2.31691 6.23819 2.21671 6.17148 2.13241 6.08719C2.04812 6.0029 1.98141 5.9027 1.93616 5.79241Z" fill="#EFF1F8" />
    </g>
    <defs>
        <clipPath id="clip0_1012_17133">
            <rect width="24" height="24" fill="white" />
        </clipPath>
    </defs>
</svg>
    