<svg width="18" height="18" viewBox="0 0 18 18" fill="none" xmlns="http://www.w3.org/2000/svg">
<g clip-path="url(#clip0_30602_10796)">
<path d="M9.45032 15.6798C9.20398 15.6792 8.96066 15.6257 8.73671 15.5231C8.51277 15.4205 8.31342 15.2711 8.15207 15.0849L7.07207 13.8456C7.02901 13.8147 6.97971 13.7935 6.92762 13.7835H6.56762C3.55802 13.784 1.69727 13.0838 1.69727 9.60123V6.50298C1.69727 3.76428 3.37757 2.32068 6.56537 2.32068H12.3348C15.5226 2.32068 17.2029 3.76428 17.2029 6.50298V9.60123C17.2029 12.3399 15.5226 13.7835 12.3348 13.7835H11.9748C11.9478 13.7836 11.9211 13.7891 11.8962 13.7998C11.8714 13.8105 11.849 13.8261 11.8304 13.8456L10.7504 15.0849C10.5888 15.2713 10.3892 15.4208 10.1649 15.5235C9.94063 15.6261 9.69695 15.6794 9.45032 15.6798ZM6.56537 3.24993C3.98327 3.24993 2.77727 4.28493 2.77727 6.50298V9.60123C2.77727 12.402 3.89507 12.8543 6.56357 12.8543H6.92357C7.30428 12.8597 7.66735 13.0157 7.93337 13.2881L9.01337 14.5274C9.06424 14.5938 9.12973 14.6477 9.20477 14.6847C9.2798 14.7218 9.36236 14.741 9.44604 14.741C9.52972 14.741 9.61228 14.7218 9.68731 14.6847C9.76235 14.6477 9.82784 14.5938 9.87872 14.5274L10.9587 13.2881C11.0869 13.1487 11.2432 13.0379 11.4172 12.9632C11.5913 12.8884 11.7791 12.8513 11.9685 12.8543H12.3285C14.9106 12.8543 16.1148 11.8193 16.1148 9.60123V6.50298C16.1148 4.28493 14.9106 3.24993 12.3285 3.24993H6.56537Z" fill="#F2F2F8"/>
<path d="M9.45089 8.87579C9.34242 8.87579 9.23638 8.84363 9.14618 8.78337C9.05598 8.72311 8.98567 8.63747 8.94414 8.53726C8.90261 8.43705 8.89172 8.32678 8.91285 8.22039C8.93398 8.11399 8.98618 8.01625 9.06285 7.93951C9.13952 7.86278 9.23722 7.8105 9.3436 7.78928C9.44998 7.76807 9.56026 7.77886 9.6605 7.82031C9.76074 7.86176 9.84645 7.932 9.90678 8.02215C9.96711 8.1123 9.99935 8.21831 9.99944 8.32679C9.99974 8.39893 9.98576 8.47041 9.9583 8.53713C9.93085 8.60384 9.89046 8.66446 9.83947 8.71549C9.78848 8.76652 9.72789 8.80696 9.6612 8.83447C9.59451 8.86198 9.52303 8.87602 9.45089 8.87579Z" fill="#F2F2F8"/>
<path d="M12.8806 8.87579C12.7721 8.87579 12.6661 8.84363 12.5759 8.78337C12.4857 8.72311 12.4154 8.63747 12.3738 8.53726C12.3323 8.43705 12.3214 8.32678 12.3425 8.22039C12.3637 8.11399 12.4159 8.01625 12.4925 7.93951C12.5692 7.86278 12.6669 7.8105 12.7733 7.78928C12.8797 7.76807 12.9899 7.77886 13.0902 7.82031C13.1904 7.86176 13.2761 7.932 13.3365 8.02215C13.3968 8.1123 13.429 8.21831 13.4291 8.32679C13.4294 8.39893 13.4154 8.47041 13.388 8.53713C13.3605 8.60384 13.3201 8.66446 13.2692 8.71549C13.2182 8.76652 13.1576 8.80696 13.0909 8.83447C13.0242 8.86198 12.9527 8.87602 12.8806 8.87579Z" fill="#F2F2F8"/>
<path d="M6.01925 8.87579C5.91078 8.87579 5.80474 8.84363 5.71454 8.78337C5.62434 8.72311 5.55403 8.63747 5.5125 8.53726C5.47097 8.43705 5.46008 8.32678 5.48121 8.22039C5.50234 8.11399 5.55454 8.01625 5.63121 7.93951C5.70788 7.86278 5.80558 7.8105 5.91196 7.78928C6.01834 7.76807 6.12862 7.77886 6.22886 7.82031C6.3291 7.86176 6.41481 7.932 6.47514 8.02215C6.53547 8.1123 6.56771 8.21831 6.5678 8.32679C6.5681 8.39893 6.55412 8.47041 6.52666 8.53713C6.49921 8.60384 6.45882 8.66446 6.40783 8.71549C6.35684 8.76652 6.29625 8.80696 6.22956 8.83447C6.16287 8.86198 6.09139 8.87602 6.01925 8.87579Z" fill="#F2F2F8"/>
</g>
<defs>
<clipPath id="clip0_30602_10796">
<rect width="18" height="18" fill="white"/>
</clipPath>
</defs>
</svg>
