<svg width="18" height="19" viewBox="0 0 18 19" fill="none" xmlns="http://www.w3.org/2000/svg">
    <g clip-path="url(#clip0_1012_9839)">
        <path d="M4.04006 7.32596C7.30346 9.96881 7.35407 9.99725 7.40627 10.0175C7.87146 10.3449 8.42736 10.518 8.99621 10.5124C9.56163 10.5192 10.1151 10.3476 10.5774 10.0219C10.6341 10.0016 10.6884 9.97151 13.9559 7.32596C14.0679 7.23511 14.139 7.10353 14.1541 6.96011C14.1692 6.8167 14.1269 6.67317 14.0363 6.56098C13.9454 6.44899 13.8141 6.37767 13.6707 6.36257C13.5273 6.34747 13.3834 6.38983 13.2712 6.48045L10.0096 9.09674C9.71459 9.31174 9.35905 9.42753 8.99401 9.42753C8.62898 9.42753 8.27344 9.31174 7.97844 9.09674L4.72473 6.48045C4.61254 6.38983 4.46868 6.34747 4.32526 6.36257C4.18184 6.37767 4.05049 6.44899 3.95964 6.56098C3.86914 6.67321 3.82677 6.81673 3.84186 6.96011C3.85696 7.1035 3.92816 7.23504 4.04006 7.32596Z" fill="#EFF1F8" />
        <path fill-rule="evenodd" clip-rule="evenodd" d="M5.38517 16.5704H12.6135C15.2519 16.5704 16.7702 15.0521 16.7702 12.4137V7.35392C16.7702 4.71512 15.2519 3.19727 12.6135 3.19727H5.38517C2.74637 3.19727 1.22852 4.71512 1.22852 7.35392V12.4137C1.22852 15.0521 2.74637 16.5704 5.38517 16.5704ZM2.31302 7.35392C2.31302 5.28617 3.31742 4.28177 5.38517 4.28177H12.6135C14.6808 4.28177 15.6857 5.28662 15.6857 7.35392V12.4137C15.6857 14.481 14.6808 15.4859 12.6135 15.4859H5.38517C3.31787 15.4859 2.31302 14.481 2.31302 12.4137V7.35392Z" fill="#EFF1F8" />
    </g>
    <defs>
        <clipPath id="clip0_1012_9839">
            <rect width="18" height="18" fill="white" transform="translate(0 0.882812)" />
        </clipPath>
    </defs>
</svg>
    