<svg width="50" height="49" viewBox="0 0 50 49" fill="none" xmlns="http://www.w3.org/2000/svg">
<path d="M34.8192 30.086H34.7104C32.6432 33.65 28.7808 36.08 24.32 36.08C17.6288 36.08 12.2432 30.734 12.2432 24.146C12.2432 17.558 17.6288 12.212 24.2656 12.212C30.0864 12.212 34.9824 16.37 36.0704 21.878H16.3776V26.036H35.7984H36.1248H40.4224C40.4768 25.442 40.5312 24.794 40.5312 24.146C40.5312 15.236 33.2416 8 24.2656 8C15.2896 8 8 15.236 8 24.146C8 33.056 15.2896 40.292 24.2656 40.292C30.304 40.292 35.6352 36.998 38.4096 32.138L34.8192 30.086Z" fill="#F2F2F8"/>
<path d="M41.6704 6.912C41.888 6.426 41.9968 5.886 41.9968 5.346C41.9968 3.078 40.1472 1.296 37.9168 1.296C36.8288 1.296 35.904 1.674 35.1424 2.376C31.9328 0.81 28.3424 0 24.48 0C10.9344 0 0 10.908 0 24.354C0 37.8 10.9888 48.708 24.5344 48.708C38.1344 48.708 49.0688 37.8 49.0688 24.354C49.0688 17.496 46.24 11.34 41.6704 6.912ZM37.8624 2.646C39.3856 2.646 40.6368 3.888 40.6368 5.4C40.6368 6.912 39.3856 8.154 37.8624 8.154C36.3392 8.154 35.088 6.912 35.088 5.4C35.088 3.888 36.3392 2.646 37.8624 2.646ZM24.5344 45.522C12.7296 45.522 3.2096 36.072 3.2096 24.354C3.2096 12.636 12.784 3.186 24.5344 3.186C27.8528 3.186 31.008 3.942 33.8368 5.292C33.8368 5.346 33.8368 5.346 33.8368 5.4C33.8368 7.668 35.6864 9.45 37.9168 9.45C38.4064 9.45 38.9504 9.342 39.3856 9.18C43.3568 13.014 45.8592 18.414 45.8592 24.408C45.8592 36.072 36.3392 45.522 24.5344 45.522Z" fill="#6ACCE5"/>
</svg>
