<svg width="18" height="19" viewBox="0 0 18 19" fill="none" xmlns="http://www.w3.org/2000/svg">
    <g clip-path="url(#clip0_934_50141)">
        <path d="M14.9942 11.8836L13.8035 6.77385C13.5924 5.69385 13.0425 4.70926 12.2337 3.96308C11.4249 3.2169 10.3992 2.74797 9.30575 2.6244V2.19645C9.31143 2.12228 9.30172 2.04773 9.27723 1.97749C9.25275 1.90725 9.21402 1.84283 9.16347 1.78826C9.11291 1.73369 9.05163 1.69015 8.98346 1.66038C8.9153 1.6306 8.84171 1.61523 8.76732 1.61523C8.69294 1.61523 8.61935 1.6306 8.55119 1.66038C8.48302 1.69015 8.42174 1.73369 8.37118 1.78826C8.32063 1.84283 8.2819 1.90725 8.25742 1.97749C8.23293 2.04773 8.22322 2.12228 8.2289 2.19645V2.62485C7.13826 2.74711 6.11484 3.21334 5.30686 3.95604C4.49887 4.69874 3.94825 5.67934 3.73475 6.75585L2.5418 11.8836C2.45027 12.272 2.50341 12.6804 2.69126 13.0324C2.87912 13.3844 3.18882 13.6559 3.5624 13.7961C4.38099 14.0968 5.22416 14.3258 6.0824 14.4805C6.0824 14.5165 6.07655 14.5525 6.07655 14.5885C6.07194 14.945 6.13817 15.2988 6.27139 15.6295C6.40462 15.9602 6.60219 16.2611 6.85263 16.5148C7.10307 16.7685 7.40141 16.9699 7.73032 17.1074C8.05924 17.2449 8.41218 17.3157 8.76867 17.3157C9.12517 17.3157 9.47811 17.2449 9.80703 17.1074C10.1359 16.9699 10.4343 16.7685 10.6847 16.5148C10.9352 16.2611 11.1327 15.9602 11.266 15.6295C11.3992 15.2988 11.4654 14.945 11.4608 14.5885C11.4608 14.553 11.4523 14.517 11.4504 14.4814C12.3092 14.3265 13.1528 14.0972 13.9718 13.7961C14.3457 13.6563 14.6558 13.3849 14.844 13.0328C15.0322 12.6808 15.0856 12.2722 14.9942 11.8836ZM8.7671 16.2243C8.34327 16.2208 7.93756 16.0519 7.63652 15.7536C7.33547 15.4552 7.16291 15.051 7.15565 14.6272C7.6907 14.6881 8.22862 14.7202 8.7671 14.7235C9.30558 14.7202 9.8435 14.6881 10.3786 14.6272C10.3713 15.051 10.1987 15.4552 9.89768 15.7536C9.59664 16.0519 9.19093 16.2208 8.7671 16.2243ZM13.6055 12.7719C10.4829 13.921 7.05313 13.921 3.9305 12.7719C3.80595 12.725 3.70272 12.6344 3.64011 12.517C3.5775 12.3995 3.55979 12.2633 3.5903 12.1338L4.78685 6.98805C4.96101 6.05781 5.45544 5.21793 6.18431 4.61425C6.91317 4.01057 7.83044 3.6812 8.77684 3.68334C9.72324 3.68548 10.639 4.01899 11.3651 4.62596C12.0913 5.23293 12.5819 6.07503 12.7519 7.00605L13.9466 12.1338C13.9771 12.2633 13.9594 12.3995 13.8968 12.517C13.8342 12.6344 13.731 12.725 13.6064 12.7719H13.6055Z" fill="#EFF1F8" />
    </g>
    <defs>
        <clipPath id="clip0_934_50141">
            <rect width="18" height="18" fill="white" transform="translate(0 0.5)" />
        </clipPath>
    </defs>
</svg>
    