<svg width="18" height="19" viewBox="0 0 18 19" fill="none" xmlns="http://www.w3.org/2000/svg">
    <g clip-path="url(#clip0_934_50241)">
        <path d="M14.7696 11.8836L13.5789 6.77385C13.3678 5.69385 12.8179 4.70926 12.0091 3.96308C11.2002 3.2169 10.1746 2.74797 9.08114 2.6244V2.19645C9.08682 2.12228 9.07711 2.04773 9.05263 1.97749C9.02814 1.90725 8.98941 1.84283 8.93886 1.78826C8.8883 1.73369 8.82702 1.69015 8.75885 1.66038C8.69069 1.6306 8.6171 1.61523 8.54272 1.61523C8.46833 1.61523 8.39474 1.6306 8.32658 1.66038C8.25841 1.69015 8.19713 1.73369 8.14657 1.78826C8.09602 1.84283 8.05729 1.90725 8.03281 1.97749C8.00832 2.04773 7.99861 2.12228 8.00429 2.19645V2.62485C6.91365 2.74711 5.89023 3.21334 5.08225 3.95604C4.27426 4.69874 3.72364 5.67934 3.51014 6.75585L2.31719 11.8836C2.22566 12.272 2.2788 12.6804 2.46665 13.0324C2.65451 13.3844 2.96421 13.6559 3.33779 13.7961C4.15638 14.0968 4.99955 14.3258 5.85779 14.4805C5.85779 14.5165 5.85194 14.5525 5.85194 14.5885C5.84733 14.945 5.91356 15.2988 6.04679 15.6295C6.18001 15.9602 6.37758 16.2611 6.62802 16.5148C6.87846 16.7685 7.1768 16.9699 7.50571 17.1074C7.83463 17.2449 8.18757 17.3157 8.54407 17.3157C8.90056 17.3157 9.2535 17.2449 9.58242 17.1074C9.91133 16.9699 10.2097 16.7685 10.4601 16.5148C10.7106 16.2611 10.9081 15.9602 11.0413 15.6295C11.1746 15.2988 11.2408 14.945 11.2362 14.5885C11.2362 14.553 11.2276 14.517 11.2258 14.4814C12.0846 14.3265 12.9282 14.0972 13.7472 13.7961C14.1211 13.6563 14.4312 13.3849 14.6194 13.0328C14.8076 12.6808 14.861 12.2722 14.7696 11.8836ZM8.54249 16.2243C8.11866 16.2208 7.71295 16.0519 7.41191 15.7536C7.11086 15.4552 6.9383 15.051 6.93104 14.6272C7.46609 14.6881 8.00401 14.7202 8.54249 14.7235C9.08097 14.7202 9.61889 14.6881 10.1539 14.6272C10.1467 15.051 9.97412 15.4552 9.67307 15.7536C9.37203 16.0519 8.96632 16.2208 8.54249 16.2243Z" fill="#EFF1F8" />
    </g>
    <defs>
        <clipPath id="clip0_934_50241">
            <rect width="18" height="18" fill="white" transform="translate(0 0.5)" />
        </clipPath>
    </defs>
</svg>
    