<svg width="14" height="14" viewBox="0 0 14 14" fill="none" xmlns="http://www.w3.org/2000/svg">
<g clip-path="url(#clip0_31279_30325)">
<path d="M6.21601 3.08401C5.49558 3.49983 5.09732 4.33738 5.09732 5.43846L5.09732 6.47652L1.57361 6.47652C1.55301 6.47409 1.53227 6.47287 1.51153 6.47287C1.44311 6.47272 1.37535 6.48606 1.3121 6.51213C1.24885 6.53821 1.19136 6.57651 1.14293 6.62483C1.09451 6.67316 1.0561 6.73057 1.0299 6.79376C1.00369 6.85696 0.990216 6.9247 0.990234 6.99311C0.990234 7.28128 1.22419 7.52174 1.51229 7.52174C1.52656 7.52174 1.54064 7.52118 1.55455 7.52005L5.09732 7.52005L5.09732 8.56607C5.09732 9.66714 5.49558 10.5047 6.21601 10.9205C6.94227 11.3364 7.86184 11.2603 8.81647 10.7097L11.5282 9.14587C12.4829 8.59536 13.01 7.83396 13.01 7.00233C13.01 6.17069 12.4829 5.4092 11.5282 4.85278L8.81647 3.28903C8.27183 2.97275 7.73293 2.8146 7.24094 2.8146C6.87196 2.81457 6.52647 2.90242 6.21601 3.08401ZM6.76295 10.0173C6.34334 9.77673 6.11405 9.23412 6.11405 8.4957L6.11405 5.50848C6.11405 4.77014 6.34334 4.22747 6.76295 3.98692C7.18256 3.74638 7.76428 3.81914 8.40763 4.18835L10.9977 5.68194C11.6409 6.05107 11.9934 6.52101 11.9934 7.00207C11.9934 7.48313 11.6408 7.95306 10.9977 8.32227L8.40763 9.81586C8.01605 10.0453 7.64691 10.1571 7.32231 10.1571C7.12685 10.16 6.93401 10.1118 6.7629 10.0173L6.76295 10.0173Z" fill="#56566F"/>
</g>
<defs>
<clipPath id="clip0_31279_30325">
<rect width="14" height="14" fill="white" transform="matrix(1 -8.74228e-08 -8.74228e-08 -1 0 14)"/>
</clipPath>
</defs>
</svg>
