<svg width="15" height="14" viewBox="0 0 15 14" fill="none" xmlns="http://www.w3.org/2000/svg">
    <g clip-path="url(#clip0_1546_12986)">
        <path d="M4.02503 12.245C3.61064 12.2498 3.21092 12.0925 2.91074 11.8068C2.73836 11.6352 2.61094 11.4236 2.54023 11.1908C2.46621 10.947 2.44945 10.6894 2.49101 10.438L2.74599 8.63086C2.78244 8.41154 2.85213 8.19907 2.95278 8.00083C3.04913 7.79956 3.17674 7.61482 3.33082 7.45343L8.0662 2.7178C8.31216 2.43459 8.61213 2.2034 8.94874 2.03786C9.28534 1.87232 9.65164 1.77581 10.0261 1.75391C10.4083 1.75911 10.7833 1.8593 11.1172 2.04547C11.4419 2.22562 11.7389 2.45208 11.9983 2.7178C12.3188 3.02542 12.5784 3.3905 12.764 3.79406C12.9192 4.1401 12.9825 4.52037 12.9475 4.898C12.9166 5.20852 12.8213 5.50917 12.6676 5.78072C12.4856 6.10014 12.2602 6.39287 11.998 6.65052L7.26227 11.3857C6.93343 11.6901 6.52539 11.8958 6.08509 11.979L4.27831 12.2342C4.24331 12.2342 4.2083 12.2359 4.17645 12.2377H4.1515C4.10775 12.2433 4.06178 12.245 4.02503 12.245ZM9.92767 2.64012C9.65818 2.65587 9.39435 2.7253 9.15211 2.84444C8.90987 2.96357 8.69402 3.12998 8.51704 3.33382L3.86199 8.10268C3.75121 8.21883 3.65931 8.35171 3.58991 8.49645C3.54426 8.63903 3.52058 8.78775 3.51984 8.93746C3.49604 9.21117 3.45602 9.66967 3.34996 10.4253C3.31996 10.6062 3.3318 10.7916 3.38483 10.9672C3.42998 11.1149 3.43014 11.1149 3.50924 11.1838L3.54616 11.2167C3.62734 11.3084 3.73799 11.3691 3.85891 11.3885C3.86976 11.3885 4.13154 11.3662 4.48715 11.3294C4.82036 11.2944 5.30616 11.2405 5.72722 11.174C6.03154 11.1471 6.32135 11.0321 6.56122 10.8429L11.3434 6.16191C11.5321 5.97642 11.6942 5.76567 11.825 5.53573C11.9357 5.34037 12.0042 5.12396 12.026 4.90048C12.0516 4.62872 12.0063 4.35496 11.8944 4.10595C11.7608 3.81558 11.5739 3.5528 11.3434 3.33134C11.1566 3.14017 10.9428 2.97728 10.709 2.84768C10.4695 2.71569 10.2012 2.64494 9.92767 2.64183V2.64012Z" fill="#EFF1F8" />
        <path d="M10.7218 7.58719C10.6598 7.58799 10.5979 7.57873 10.5389 7.55984C9.72008 7.327 8.97453 6.88884 8.37253 6.28696C7.77052 5.68508 7.33231 4.93936 7.0993 4.1206C7.07622 3.93127 7.11777 3.73967 7.21757 3.57713C7.31737 3.41459 7.4693 3.29083 7.64858 3.22575C7.63711 3.31625 7.64411 3.40795 7.66875 3.49578C7.90159 4.31459 8.33975 5.06048 8.94163 5.66248C9.54351 6.26448 10.2889 6.70269 11.1077 6.93571C11.1669 6.95442 11.2288 6.96378 11.2909 6.96339C11.3679 6.96378 11.4446 6.95052 11.5171 6.92443C11.5128 6.95807 11.506 6.99144 11.4973 7.02423C11.4348 7.18201 11.3288 7.31867 11.1914 7.41833C11.054 7.518 10.8911 7.57671 10.7218 7.58719Z" fill="#EFF1F8" />
    </g>
    <defs>
        <clipPath id="clip0_1546_12986">
            <rect width="14" height="14" fill="white" transform="translate(0.714844)" />
        </clipPath>
    </defs>
</svg>
    