<svg width="18" height="18" viewBox="0 0 18 18" fill="none" xmlns="http://www.w3.org/2000/svg">
    <g clip-path="url(#clip0_33264_55862)">
        <path d="M3.51379 16.8027C2.89757 16.8097 2.3027 16.5756 1.85657 16.1505C1.60049 15.8951 1.41135 15.5805 1.30548 15.2347C1.19541 14.872 1.17041 14.4887 1.23253 14.1149L1.61223 11.4271C1.66614 11.1012 1.77021 10.7854 1.92029 10.4911C2.06347 10.1918 2.25303 9.91728 2.48193 9.67719L9.52654 2.63258C10.4774 1.68171 11.4591 1.19861 12.4424 1.19861C13.0108 1.206 13.5685 1.35534 14.0649 1.63236C14.548 1.90031 14.9891 2.23717 15.3749 2.63258C15.8515 3.0904 16.238 3.63351 16.514 4.23399C16.7449 4.74855 16.8389 5.31429 16.7865 5.87582C16.7416 6.33775 16.6003 6.78509 16.3716 7.18894C16.1007 7.66418 15.7649 8.09958 15.3745 8.48273L8.33119 15.5265C7.84181 15.9795 7.23437 16.2853 6.57905 16.4089L3.89129 16.7886C3.82784 16.7886 3.75857 16.792 3.70232 16.7956C3.64607 16.7992 3.57724 16.8027 3.51379 16.8027ZM12.4107 2.3065C11.9969 2.33072 11.5923 2.43735 11.2202 2.62027C10.8482 2.8032 10.5165 3.05836 10.2446 3.37132L3.06026 10.5144C2.72304 10.8757 2.49823 11.3278 2.41381 11.8147L2.13167 13.8117C2.08363 14.0823 2.10083 14.3606 2.18133 14.6234C2.26184 14.8862 2.40349 15.1261 2.59487 15.3234C2.9265 15.6384 3.36757 15.8119 3.82493 15.8068C3.86993 15.8068 3.9237 15.8038 3.966 15.8011H3.97039C4.01539 15.8011 4.06346 15.7958 4.10531 15.7958L6.10179 15.5146C6.5883 15.4222 7.03891 15.195 7.40261 14.8589L14.5892 7.71586C15.1567 7.21541 15.5276 6.5297 15.6364 5.7809C15.7183 4.96008 15.3668 4.14937 14.5892 3.3722C14.3155 3.05837 13.9818 2.80247 13.6078 2.6194C13.2339 2.43632 12.8269 2.33014 12.4112 2.3065H12.4107Z" fill="#EFF1F8" />
        <path d="M13.6509 9.78363C13.5594 9.78411 13.4685 9.77052 13.3811 9.7432C12.163 9.39653 11.0536 8.74461 10.1581 7.84911C9.26257 6.95361 8.61066 5.84414 8.26399 4.62608C8.19486 4.37671 8.22207 4.11064 8.34089 3.88075C8.45972 3.65086 8.6613 3.47417 8.90473 3.38635C8.88749 3.52119 8.89705 3.65789 8.93329 3.7889C9.27991 5.00694 9.93187 6.11649 10.8274 7.01193C11.7229 7.90737 12.8323 8.55907 14.0504 8.90558C14.1377 8.93342 14.2291 8.94774 14.3207 8.94733C14.4354 8.9474 14.5493 8.92722 14.6573 8.88844C14.6509 8.93851 14.6411 8.98815 14.6283 9.03698C14.5695 9.25123 14.4423 9.44047 14.2657 9.57533C14.0892 9.71018 13.8731 9.78328 13.6509 9.78363V9.78363Z" fill="#EFF1F8" />
    </g>
    <defs>
        <clipPath id="clip0_33264_55862">
            <rect width="18" height="18" fill="white" />
        </clipPath>
    </defs>
</svg>
    