<svg width="18" height="18" viewBox="0 0 18 18" fill="none" xmlns="http://www.w3.org/2000/svg">
    <path d="M4.25679 15.7435C3.72401 15.7495 3.21008 15.5474 2.82414 15.1801C2.6025 14.9594 2.43867 14.6873 2.34776 14.388C2.25259 14.0745 2.23105 13.7434 2.28447 13.4201L2.61231 11.0967C2.65917 10.8147 2.74878 10.5415 2.87819 10.2866C3.00206 10.0279 3.16613 9.79034 3.36424 9.58284L9.45257 3.49417C9.76881 3.13005 10.1545 2.8328 10.5873 2.61997C11.02 2.40713 11.491 2.28305 11.9725 2.25488C12.4639 2.26157 12.946 2.39039 13.3752 2.62975C13.7928 2.86137 14.1746 3.15254 14.5082 3.49417C14.9202 3.88969 15.2539 4.35907 15.4926 4.87793C15.6921 5.32284 15.7735 5.81177 15.7286 6.29729C15.6889 6.69654 15.5663 7.08308 15.3686 7.43221C15.1346 7.84289 14.8449 8.21927 14.5077 8.55054L8.41895 14.6386C7.99617 15.03 7.47154 15.2944 6.90544 15.4015L4.58243 15.7295C4.53743 15.7295 4.49242 15.7318 4.45147 15.734H4.41939C4.36314 15.7412 4.30404 15.7435 4.25679 15.7435ZM11.8459 3.3943C11.4994 3.41455 11.1602 3.50382 10.8488 3.65699C10.5373 3.81017 10.2598 4.02412 10.0322 4.2862L4.04716 10.4176C3.90473 10.5669 3.78657 10.7378 3.69735 10.9239C3.63865 11.1072 3.60821 11.2984 3.60726 11.4909C3.57666 11.8428 3.5252 12.4323 3.38885 13.4039C3.35028 13.6365 3.3655 13.8748 3.43367 14.1005C3.49172 14.2904 3.49194 14.2904 3.59364 14.379L3.6411 14.4213C3.74547 14.5392 3.88774 14.6173 4.04321 14.6423C4.05716 14.6423 4.39373 14.6135 4.85094 14.5662C5.27936 14.5212 5.90396 14.4519 6.44532 14.3664C6.8366 14.3319 7.20921 14.184 7.51761 13.9408L13.6662 7.92232C13.9087 7.68383 14.1171 7.41287 14.2854 7.11722C14.4277 6.86605 14.5158 6.58781 14.5438 6.30048C14.5767 5.95107 14.5184 5.59909 14.3746 5.27894C14.2028 4.90561 13.9625 4.56774 13.6662 4.28301C13.426 4.03722 13.1511 3.82779 12.8505 3.66117C12.5425 3.49146 12.1975 3.4005 11.8459 3.3965V3.3943Z" fill="#EFF1F8" />
    <path d="M12.8666 9.75502C12.7869 9.75606 12.7074 9.74415 12.6315 9.71987C11.5787 9.42049 10.6202 8.85715 9.84617 8.0833C9.07217 7.30945 8.50875 6.35068 8.20917 5.29798C8.17949 5.05455 8.23291 4.80821 8.36122 4.59923C8.48954 4.39025 8.68487 4.23113 8.91539 4.14746C8.90063 4.26381 8.90963 4.38171 8.94131 4.49464C9.24069 5.5474 9.80403 6.5064 10.5779 7.2804C11.3517 8.05441 12.3101 8.61782 13.3628 8.9174C13.4389 8.94146 13.5185 8.9535 13.5983 8.953C13.6974 8.9535 13.796 8.93645 13.8892 8.9029C13.8836 8.94616 13.8749 8.98907 13.8638 9.03123C13.7834 9.23409 13.647 9.40978 13.4704 9.53793C13.2938 9.66607 13.0844 9.74155 12.8666 9.75502Z" fill="#EFF1F8" />
</svg>
    