<svg width="15" height="15" viewBox="0 0 15 15" fill="none" xmlns="http://www.w3.org/2000/svg">
    <g clip-path="url(#clip0_934_36212)">
        <path fill-rule="evenodd" clip-rule="evenodd" d="M2.55116 12.0846C2.85717 12.3758 3.26465 12.5361 3.68708 12.5313C3.72455 12.5313 3.77141 12.5295 3.81601 12.5238H3.84144C3.87391 12.522 3.9096 12.5202 3.94528 12.5202L5.78715 12.2601C6.236 12.1752 6.65196 11.9656 6.98718 11.6553L11.8149 6.82812C12.0822 6.56547 12.3119 6.26705 12.4975 5.94142C12.6542 5.66461 12.7513 5.35812 12.7828 5.04157C12.8185 4.65661 12.7539 4.26895 12.5957 3.91619C12.4065 3.5048 12.1419 3.13263 11.8152 2.81903C11.5507 2.54816 11.248 2.31729 10.9169 2.13365C10.5766 1.94387 10.1943 1.84173 9.80469 1.83643C9.42295 1.85876 9.04954 1.95714 8.7064 2.12589C8.36326 2.29465 8.05746 2.53032 7.80672 2.81903L2.9794 7.64661C2.82232 7.81114 2.69223 7.99947 2.59402 8.20464C2.49141 8.40673 2.42037 8.62333 2.38321 8.84691L2.12327 10.6891C2.08092 10.9454 2.098 11.208 2.17345 11.4566C2.24553 11.6938 2.37543 11.9096 2.55116 12.0846ZM8.91372 2.94813C9.16066 2.82668 9.42961 2.7559 9.70434 2.73985V2.74159C9.98315 2.74476 10.2567 2.81688 10.5009 2.95144C10.7392 3.08355 10.9572 3.24961 11.1476 3.44449C11.3825 3.67025 11.5731 3.93813 11.7093 4.23414C11.8233 4.48798 11.8695 4.76706 11.8434 5.0441C11.8212 5.27192 11.7514 5.49252 11.6385 5.69168C11.5051 5.92609 11.3399 6.14093 11.1476 6.33002L10.3042 7.15561C9.63572 6.91138 9.02735 6.52027 8.52307 6.00865C8.04424 5.52285 7.67248 4.94161 7.43015 4.30362L8.26631 3.44701C8.44674 3.23922 8.66678 3.06958 8.91372 2.94813ZM6.86587 4.88169L3.52088 8.30848C3.40794 8.42688 3.31426 8.56235 3.24352 8.70989C3.19698 8.85524 3.17284 9.00685 3.17209 9.15946C3.14782 9.43849 3.10702 9.90589 2.99891 10.6762C2.96833 10.8606 2.9804 11.0497 3.03445 11.2286C3.0804 11.3789 3.08065 11.3791 3.16089 11.4491L3.16128 11.4494L3.19892 11.483C3.28167 11.5765 3.39447 11.6384 3.51774 11.6581C3.5288 11.6581 3.79566 11.6353 4.15818 11.5979C4.49786 11.5622 4.99309 11.5072 5.42233 11.4394C5.73256 11.4121 6.028 11.2948 6.27253 11.1019L9.69896 7.748C9.05197 7.50277 8.46288 7.11921 7.97229 6.62168C7.48456 6.12705 7.10792 5.53347 6.86587 4.88169Z" fill="#191A24" />
    </g>
    <defs>
        <clipPath id="clip0_934_36212">
            <rect width="14.2718" height="14.2718" fill="white" transform="translate(0.311523 0.048584)" />
        </clipPath>
    </defs>
</svg>
    