<svg width="17" height="17" viewBox="0 0 17 17" fill="none" xmlns="http://www.w3.org/2000/svg">
    <g clip-path="url(#clip0_934_36362)">
        <path fill-rule="evenodd" clip-rule="evenodd" d="M3.01099 13.712C3.35406 14.0385 3.81088 14.2182 4.28446 14.2128C4.32646 14.2128 4.379 14.2108 4.429 14.2044H4.45751C4.49392 14.2024 4.53392 14.2003 4.57392 14.2003L6.63882 13.9087C7.14202 13.8136 7.60835 13.5786 7.98417 13.2307L13.3964 7.81903C13.6961 7.52457 13.9537 7.19002 14.1617 6.82497C14.3374 6.51463 14.4463 6.17103 14.4816 5.81615C14.5215 5.38457 14.4492 4.94998 14.2718 4.5545C14.0597 4.09329 13.763 3.67606 13.3968 3.32449C13.1003 3.02081 12.7609 2.762 12.3897 2.55611C12.0082 2.34335 11.5797 2.22884 11.1428 2.2229C10.7149 2.24794 10.2962 2.35823 9.91156 2.54742C9.52687 2.73661 9.18404 3.00082 8.90294 3.32449L3.49108 8.73664C3.31499 8.92108 3.16915 9.13222 3.05904 9.36224C2.94401 9.58879 2.86436 9.83162 2.82271 10.0823L2.53129 12.1476C2.48381 12.4349 2.50296 12.7293 2.58755 13.0079C2.66836 13.2739 2.81399 13.5158 3.01099 13.712ZM10.144 3.46922C10.4208 3.33307 10.7223 3.25372 11.0303 3.23572V3.23767C11.3429 3.24123 11.6495 3.32208 11.9233 3.47293C12.1905 3.62104 12.4349 3.8072 12.6483 4.02568C12.9117 4.27878 13.1254 4.5791 13.278 4.91096C13.4059 5.19553 13.4577 5.5084 13.4284 5.81898C13.4036 6.07439 13.3253 6.32171 13.1987 6.54498C13.0492 6.80778 12.864 7.04863 12.6483 7.26062L11.7028 8.18617C10.9534 7.91238 10.2714 7.47391 9.70603 6.90033C9.16922 6.35571 8.75245 5.70409 8.48077 4.98884L9.41819 4.02851C9.62046 3.79556 9.86714 3.60538 10.144 3.46922ZM7.84817 5.63692L4.09813 9.47865C3.97152 9.61138 3.86649 9.76325 3.78719 9.92866C3.73501 10.0916 3.70795 10.2616 3.70711 10.4327C3.6799 10.7455 3.63416 11.2695 3.51296 12.1331C3.47868 12.3399 3.4922 12.5517 3.5528 12.7524C3.60432 12.9209 3.60459 12.9211 3.69455 12.9995L3.695 12.9999L3.73718 13.0375C3.82996 13.1423 3.95642 13.2117 4.09462 13.2339C4.10702 13.2339 4.40619 13.2083 4.8126 13.1663C5.19341 13.1263 5.74861 13.0647 6.22983 12.9887C6.57763 12.958 6.90884 12.8266 7.18298 12.6104L11.0243 8.8503C10.299 8.57538 9.63855 8.14537 9.08856 7.58759C8.54177 7.03307 8.11952 6.36761 7.84817 5.63692Z" fill="#9496B3" />
    </g>
    <defs>
        <clipPath id="clip0_934_36362">
            <rect width="16" height="16" fill="white" transform="translate(0.5 0.218506)" />
        </clipPath>
    </defs>
</svg>
    