<svg width="24" height="24" viewBox="0 0 24 24" fill="none" xmlns="http://www.w3.org/2000/svg">
    <path d="M22.2846 4.79951C22.2846 5.4098 22.1036 6.00637 21.7645 6.51381C21.4255 7.02124 20.9436 7.41673 20.3798 7.65028C19.8159 7.88382 19.1955 7.94493 18.5969 7.82587C17.9984 7.70681 17.4486 7.41293 17.017 6.98139C16.5855 6.54986 16.2916 6.00005 16.1726 5.40149C16.0535 4.80294 16.1146 4.18252 16.3482 3.61869C16.5817 3.05486 16.9772 2.57295 17.4846 2.23389C17.9921 1.89484 18.5886 1.71387 19.1989 1.71387C20.0173 1.71387 20.8021 2.03896 21.3808 2.61763C21.9595 3.1963 22.2846 3.98115 22.2846 4.79951Z" fill="#F2F2F8" />
    <path d="M15.5802 22.2857H7.39269C7.24869 22.2857 7.10518 22.2755 6.97259 22.2653C6.8526 22.2557 6.73704 22.2448 6.61284 22.2244C6.48745 22.2136 6.3599 22.1927 6.25251 22.1729C5.95259 22.13 5.65636 22.066 5.36544 21.9814C5.09169 21.9023 4.82448 21.802 4.56626 21.6814C4.31927 21.5653 4.08264 21.4287 3.85849 21.2729C3.63977 21.1205 3.43451 20.9492 3.24563 20.7611C3.05723 20.5728 2.88606 20.3682 2.73354 20.1497C2.57722 19.9257 2.43978 19.6889 2.32341 19.4418C2.20268 19.1833 2.10238 18.9157 2.02342 18.6415C1.93874 18.3498 1.87517 18.0523 1.83242 17.7516C1.81262 17.6442 1.79166 17.5177 1.78086 17.3917C1.76106 17.2717 1.75004 17.1565 1.73984 17.0317C1.72904 16.8895 1.71875 16.7509 1.71875 16.6117V8.42454C1.71875 8.28414 1.72964 8.14498 1.73984 8.00459C1.75064 7.87979 1.76106 7.76454 1.78086 7.64455C1.79166 7.51915 1.81262 7.39205 1.83242 7.28465C1.87517 6.98393 1.93874 6.68651 2.02342 6.3948C2.1024 6.12061 2.20271 5.85301 2.32341 5.59445C2.43982 5.34734 2.57725 5.11055 2.73354 4.88653C2.88606 4.6681 3.05723 4.46349 3.24563 4.27513C3.43451 4.08701 3.63977 3.91575 3.85849 3.76334C4.08264 3.6076 4.31927 3.47098 4.56626 3.35482C4.82448 3.23428 5.09169 3.13398 5.36544 3.05483C5.65638 2.97033 5.95261 2.90632 6.25251 2.86339C6.3599 2.84359 6.48745 2.82263 6.61284 2.81183C6.73284 2.79143 6.8484 2.78117 6.97259 2.77037C7.11418 2.75958 7.25289 2.75001 7.39269 2.75001H13.6461C13.801 2.74919 13.9541 2.78364 14.0937 2.85079C14.1602 2.88278 14.2233 2.92205 14.2812 2.96783C14.3386 3.0128 14.3908 3.06385 14.4371 3.12016C14.535 3.23908 14.6052 3.37824 14.6427 3.52766C14.6803 3.67708 14.6845 3.83298 14.6544 3.98408C14.6541 3.99448 14.6518 4.0048 14.6486 4.0147C14.6458 4.02469 14.6443 4.03496 14.6439 4.04531C14.6325 4.10111 14.6248 4.15572 14.6158 4.21332C14.6086 4.26192 14.6019 4.3117 14.5923 4.3639C14.5503 4.82094 14.5745 5.28166 14.6638 5.73185C14.6722 5.76125 14.6783 5.79181 14.6843 5.81461C14.7033 5.90132 14.7275 5.98686 14.7564 6.0708C14.8393 6.40698 14.9708 6.72919 15.1472 7.02714C15.2016 7.13253 15.2615 7.23487 15.3271 7.33372L15.3616 7.3866C15.6993 7.87856 16.1247 8.30408 16.6166 8.64176L16.6577 8.66754L16.6682 8.67413C16.7679 8.73925 16.8706 8.79936 16.9764 8.85415C17.2746 9.03032 17.5974 9.16183 17.9338 9.24466C18.0184 9.27395 18.1046 9.29824 18.1921 9.31731L18.273 9.33709C18.5821 9.39798 18.8966 9.42895 19.2116 9.42951C19.3556 9.42951 19.5001 9.42281 19.6417 9.40901C19.6933 9.39941 19.7437 9.39233 19.7923 9.38513C19.8523 9.37673 19.9052 9.36885 19.9604 9.35745C19.9708 9.35688 19.9809 9.35504 19.9909 9.35203C20.001 9.34906 20.0114 9.34723 20.0219 9.34661C20.0889 9.33353 20.157 9.32693 20.2252 9.32683C20.3609 9.32671 20.4953 9.35328 20.6207 9.40491C20.7432 9.45488 20.8547 9.52795 20.9494 9.62023C21.0474 9.71564 21.1251 9.82991 21.1779 9.9561C21.2307 10.0823 21.2579 10.2179 21.257 10.3547V16.6081C21.257 16.7491 21.2467 16.8878 21.2359 17.0282C21.2251 17.153 21.2153 17.2681 21.1949 17.3881C21.1841 17.514 21.1632 17.6407 21.1434 17.7481C21.1006 18.0488 21.0365 18.3461 20.9518 18.6378C20.8731 18.9121 20.7728 19.1797 20.6518 19.4381C20.5356 19.6852 20.3989 19.922 20.2428 20.1461C20.0901 20.3645 19.9187 20.5691 19.7302 20.7575C19.5415 20.9456 19.3364 21.1169 19.1179 21.2693C18.8936 21.4248 18.657 21.5615 18.4101 21.6779C18.1518 21.7984 17.8846 21.8987 17.6109 21.9779C17.32 22.0624 17.0232 22.1262 16.7233 22.1692C16.6153 22.189 16.4889 22.21 16.3635 22.2208C16.2387 22.2418 16.1238 22.252 16.0038 22.2616C15.8682 22.2754 15.7242 22.2857 15.5802 22.2857ZM6.60054 16.6286C6.49931 16.6286 6.39923 16.6487 6.30583 16.6877C6.21242 16.7268 6.128 16.7839 6.05681 16.8559C5.98491 16.927 5.92769 17.0116 5.88866 17.1049C5.84963 17.1982 5.82963 17.2984 5.82948 17.3995C5.82963 17.5006 5.84963 17.6007 5.88866 17.694C5.92769 17.7873 5.98491 17.8719 6.05681 17.9431C6.128 18.015 6.21242 18.0722 6.30583 18.1112C6.39923 18.1502 6.49931 18.1703 6.60054 18.1704H15.8579C15.959 18.1703 16.0587 18.1501 16.152 18.1111C16.2453 18.072 16.3299 18.015 16.401 17.9431C16.4731 17.8721 16.5306 17.7875 16.5698 17.6942C16.6089 17.6009 16.6294 17.5007 16.6295 17.3995C16.6294 17.2983 16.6089 17.1981 16.5698 17.1048C16.5306 17.0115 16.4731 16.9269 16.401 16.8559C16.3299 16.784 16.2453 16.7269 16.152 16.6879C16.0587 16.6489 15.959 16.6287 15.8579 16.6286H6.60054ZM6.55425 12.3166C6.34739 12.3166 6.1486 12.3987 6.00233 12.5449C5.85605 12.6912 5.77382 12.8896 5.77382 13.0964C5.77382 13.3033 5.85605 13.5018 6.00233 13.6481C6.1486 13.7943 6.34739 13.8764 6.55425 13.8764H15.8649C15.9673 13.8764 16.0685 13.8563 16.1631 13.8171C16.2578 13.7779 16.3438 13.7205 16.4163 13.6481C16.4887 13.5756 16.5464 13.4896 16.5856 13.3949C16.6248 13.3003 16.6448 13.1988 16.6448 13.0964C16.6448 12.994 16.6248 12.8927 16.5856 12.798C16.5464 12.7034 16.4887 12.6174 16.4163 12.5449C16.3438 12.4725 16.2578 12.4151 16.1631 12.3759C16.0685 12.3367 15.9673 12.3166 15.8649 12.3166H6.55425ZM6.60054 8.00341C6.49931 8.00349 6.39923 8.02356 6.30583 8.06259C6.21242 8.10162 6.128 8.15877 6.05681 8.23075C5.98491 8.30186 5.92769 8.38646 5.88866 8.47976C5.84963 8.57305 5.82963 8.67319 5.82948 8.77432C5.82963 8.87545 5.84963 8.97559 5.88866 9.06889C5.92769 9.16218 5.98491 9.24679 6.05681 9.3179C6.12798 9.3899 6.21242 9.44702 6.30583 9.48605C6.39923 9.52509 6.4993 9.54519 6.60054 9.54523H11.7431C11.8443 9.54513 11.9444 9.52508 12.0378 9.48605C12.1312 9.44703 12.2162 9.38984 12.2874 9.3179C12.3593 9.24679 12.4165 9.16218 12.4555 9.06889C12.4945 8.97559 12.5145 8.87545 12.5147 8.77432C12.5145 8.67319 12.4945 8.57305 12.4555 8.47976C12.4165 8.38646 12.3593 8.30186 12.2874 8.23075C12.2162 8.1588 12.1312 8.10162 12.0378 8.06259C11.9444 8.02356 11.8443 8.00352 11.7431 8.00341H6.60054Z" fill="#F2F2F8" />
</svg>
    