<svg width="18" height="19" viewBox="0 0 18 19" fill="none" xmlns="http://www.w3.org/2000/svg">
    <path d="M6.49191 15.8689H6.33986C5.49608 15.8701 4.6725 15.61 3.98263 15.1241C3.29086 14.6404 2.76588 13.9544 2.47971 13.1603C2.36171 12.8163 2.29344 12.4571 2.27712 12.0937V12.0879C2.24482 11.9381 2.24492 11.7831 2.27712 11.6333C2.30932 11.4835 2.37289 11.3423 2.46388 11.219C2.62966 11.0154 2.86447 10.8793 3.1235 10.8365L3.69216 10.8059H9.14094L9.70915 10.8365C9.96825 10.8791 10.2027 11.0153 10.3683 11.219C10.4596 11.3423 10.5235 11.4835 10.556 11.6334C10.5884 11.7833 10.5886 11.9384 10.5564 12.0884V12.0933C10.5404 12.4567 10.472 12.816 10.3534 13.1599C10.0676 13.954 9.54287 14.6402 8.85134 15.1241C8.1607 15.6101 7.33641 15.8703 6.49191 15.8689ZM4.31398 11.5939L3.87541 11.6145C3.68053 11.6411 3.50084 11.7341 3.36652 11.8778C3.29748 11.9594 3.24826 12.0561 3.22326 12.16C3.19826 12.2639 3.19801 12.3722 3.22238 12.4763V12.4795C3.23517 12.7309 3.28788 12.9786 3.37883 13.2134C3.63728 13.7823 4.05761 14.2626 4.58732 14.5941C5.11703 14.9257 5.73273 15.0939 6.35744 15.0777H6.47521C7.09985 15.0941 7.71572 14.9261 8.24533 14.5945C8.77494 14.2629 9.19488 13.7824 9.45295 13.2134C9.54399 12.9786 9.59715 12.7309 9.60983 12.4795V12.4759C9.63422 12.3718 9.63368 12.2634 9.60851 12.1596C9.58334 12.0557 9.53413 11.9591 9.46481 11.8778C9.33074 11.7337 9.15093 11.6407 8.95593 11.6145L8.51691 11.5939H4.31398ZM6.38381 8.94111C6.0493 8.94197 5.71808 8.87634 5.4091 8.74819C5.10012 8.62004 4.81951 8.43183 4.58381 8.19448C4.34643 7.95879 4.15825 7.67839 4.0301 7.36941C3.90194 7.06042 3.83673 6.72899 3.83762 6.39448C3.83691 6.06 3.90239 5.72874 4.03054 5.41977C4.15868 5.11081 4.34658 4.83028 4.58381 4.59448C4.81954 4.35719 5.10011 4.16906 5.4091 4.04099C5.71809 3.91291 6.04933 3.84746 6.38381 3.8484C6.71826 3.84761 7.04955 3.91314 7.35851 4.04121C7.66748 4.16927 7.94799 4.35731 8.18381 4.59448C8.42084 4.8304 8.60902 5.11094 8.73708 5.41988C8.86513 5.72882 8.93062 6.06005 8.93 6.39448C8.93076 6.72893 8.86514 7.06023 8.73708 7.36919C8.60901 7.67815 8.42096 7.95865 8.18381 8.19448C7.94804 8.43212 7.66764 8.62072 7.35851 8.74918C7.04938 8.87764 6.71768 8.94344 6.38293 8.94287L6.38381 8.94111ZM6.38381 4.63052C5.91655 4.63111 5.46876 4.81709 5.1384 5.14753C4.80804 5.47798 4.62208 5.9259 4.6216 6.39316C4.62208 6.86042 4.80804 7.30846 5.1384 7.6389C5.46876 7.96935 5.91655 8.15521 6.38381 8.15581C6.85119 8.15533 7.29957 7.96946 7.6301 7.63901C7.96062 7.30857 8.14674 6.86054 8.14733 6.39316C8.14626 5.92594 7.95989 5.47827 7.62922 5.14819C7.29854 4.81811 6.85015 4.63262 6.38293 4.63238L6.38381 4.63052Z" fill="#EFF1F8" />
    <path d="M10.4635 6.99751H15.4549C15.5456 7.01008 15.6278 7.05747 15.6842 7.12962C15.7406 7.20177 15.7666 7.29303 15.7569 7.38406C15.7666 7.47509 15.7406 7.56635 15.6842 7.6385C15.6278 7.71065 15.5456 7.75803 15.4549 7.77061H10.4635C10.3728 7.75803 10.2906 7.71065 10.2342 7.6385C10.1779 7.56635 10.1518 7.47509 10.1616 7.38406C10.1518 7.29303 10.1779 7.20177 10.2342 7.12962C10.2906 7.05747 10.3728 7.01008 10.4635 6.99751Z" fill="#EFF1F8" />
    <path d="M11.5296 9.40901H15.3816C15.4723 9.42158 15.5546 9.46896 15.6109 9.54112C15.6673 9.61327 15.6933 9.70452 15.6836 9.79556C15.6933 9.88659 15.6673 9.97785 15.6109 10.05C15.5546 10.1222 15.4723 10.1695 15.3816 10.1821H11.5296C11.439 10.1695 11.3567 10.1222 11.3004 10.05C11.244 9.97785 11.2179 9.88659 11.2277 9.79556C11.2179 9.70452 11.244 9.61327 11.3004 9.54112C11.3567 9.46896 11.439 9.42158 11.5296 9.40901Z" fill="#EFF1F8" />
    <path d="M12.9034 12.109H15.4054C15.4961 12.1216 15.5783 12.169 15.6347 12.2411C15.691 12.3133 15.7171 12.4045 15.7073 12.4956C15.7171 12.5866 15.691 12.6778 15.6347 12.75C15.5783 12.8222 15.4961 12.8695 15.4054 12.8821H12.9034C12.8127 12.8695 12.7305 12.8222 12.6741 12.75C12.6177 12.6778 12.5917 12.5866 12.6014 12.4956C12.5917 12.4045 12.6177 12.3133 12.6741 12.2411C12.7305 12.169 12.8127 12.1216 12.9034 12.109Z" fill="#EFF1F8" />
</svg>
    