<svg width="18" height="19" viewBox="0 0 18 19" fill="none" xmlns="http://www.w3.org/2000/svg">
    <path d="M6.49214 15.8693H6.34009C5.49631 15.8706 4.67273 15.6104 3.98286 15.1245C3.29096 14.641 2.76595 13.9549 2.47993 13.1607C2.36203 12.8166 2.29361 12.4576 2.2769 12.0943V12.0883C2.24467 11.9385 2.24507 11.7835 2.27734 11.6337C2.30962 11.4839 2.37304 11.3427 2.46411 11.2194C2.62988 11.0158 2.8647 10.8797 3.12373 10.8369L3.69238 10.8063H9.14028L9.70937 10.8369C9.96848 10.8795 10.2029 11.0157 10.3686 11.2194C10.4596 11.3428 10.5233 11.4841 10.5558 11.6339C10.5882 11.7838 10.5885 11.9388 10.5566 12.0888V12.0937C10.5402 12.4571 10.4718 12.8163 10.3536 13.1603C10.0676 13.9543 9.54296 14.6405 8.85156 15.1245C8.16092 15.6105 7.33664 15.8707 6.49214 15.8693ZM6.38315 8.94284C6.04864 8.94379 5.71744 8.87829 5.40845 8.75014C5.09945 8.62198 4.8188 8.43375 4.58315 8.19631C4.34572 7.96065 4.15767 7.68023 4.02944 7.37124C3.90121 7.06226 3.83572 6.73085 3.83652 6.39631C3.8359 6.06181 3.90122 5.73046 4.02944 5.4215C4.15766 5.11254 4.34586 4.83209 4.58315 4.59631C4.81879 4.3589 5.09944 4.17069 5.40845 4.0426C5.71745 3.91452 6.04866 3.84914 6.38315 3.85023C6.71761 3.84944 7.0489 3.91498 7.35786 4.04304C7.66683 4.17111 7.94734 4.35914 8.18315 4.59631C8.4201 4.8323 8.60838 5.11279 8.73643 5.42172C8.86448 5.73064 8.92986 6.0619 8.92935 6.39631C8.93004 6.73075 8.86449 7.06207 8.73643 7.37102C8.60837 7.67997 8.42024 7.96044 8.18315 8.19631C7.94728 8.43344 7.66681 8.62156 7.35786 8.7497C7.04892 8.87783 6.71762 8.94342 6.38315 8.94284Z" fill="#EFF1F8" />
    <path d="M10.4635 6.9978H15.4549C15.5456 7.01038 15.6278 7.05776 15.6842 7.12991C15.7406 7.20206 15.7666 7.29332 15.7569 7.38435C15.7666 7.47539 15.7406 7.56664 15.6842 7.6388C15.6278 7.71095 15.5456 7.75833 15.4549 7.7709H10.4635C10.3728 7.75833 10.2906 7.71095 10.2342 7.6388C10.1779 7.56664 10.1518 7.47539 10.1616 7.38435C10.1518 7.29332 10.1779 7.20206 10.2342 7.12991C10.2906 7.05776 10.3728 7.01038 10.4635 6.9978Z" fill="#EFF1F8" />
    <path d="M11.5296 9.4093H15.3816C15.4723 9.42188 15.5546 9.46926 15.6109 9.54141C15.6673 9.61356 15.6933 9.70482 15.6836 9.79585C15.6933 9.88689 15.6673 9.97814 15.6109 10.0503C15.5546 10.1224 15.4723 10.1698 15.3816 10.1824H11.5296C11.439 10.1698 11.3567 10.1224 11.3004 10.0503C11.244 9.97814 11.2179 9.88689 11.2277 9.79585C11.2179 9.70482 11.244 9.61356 11.3004 9.54141C11.3567 9.46926 11.439 9.42188 11.5296 9.4093Z" fill="#EFF1F8" />
    <path d="M12.9034 12.1093H15.4054C15.4961 12.1219 15.5783 12.1693 15.6347 12.2414C15.691 12.3136 15.7171 12.4048 15.7073 12.4959C15.7171 12.5869 15.691 12.6781 15.6347 12.7503C15.5783 12.8224 15.4961 12.8698 15.4054 12.8824H12.9034C12.8127 12.8698 12.7305 12.8224 12.6741 12.7503C12.6177 12.6781 12.5917 12.5869 12.6014 12.4959C12.5917 12.4048 12.6177 12.3136 12.6741 12.2414C12.7305 12.1693 12.8127 12.1219 12.9034 12.1093Z" fill="#EFF1F8" />
</svg>
    