<svg width="24" height="24" viewBox="0 0 24 24" fill="none" xmlns="http://www.w3.org/2000/svg">
<g clip-path="url(#clip0_31565_21065)">
<path d="M13.4976 19.8226C12.501 19.3878 11.5552 18.8445 10.6775 18.2026C9.74488 17.5157 8.86257 16.7629 8.03739 15.95C7.22227 15.1261 6.46841 14.2437 5.78185 13.3099C5.14999 12.4383 4.61332 11.5015 4.18099 10.5156C3.79508 9.63071 3.58692 8.6786 3.56836 7.71342C3.56759 7.11997 3.67789 6.53161 3.89357 5.97874C4.12447 5.3987 4.48342 4.87833 4.94363 4.45647C5.20586 4.17904 5.52102 3.95694 5.87048 3.80328C6.21994 3.64963 6.59662 3.56753 6.97832 3.56183C7.28408 3.56225 7.58607 3.6292 7.86335 3.75804C8.16887 3.89576 8.42987 4.11604 8.61698 4.39407L10.4393 6.9604C10.591 7.16686 10.7174 7.39064 10.8161 7.62703C10.9145 7.84719 10.9674 8.08497 10.9715 8.32607C10.9677 8.63112 10.8814 8.92945 10.7219 9.18951C10.5758 9.43386 10.3985 9.65815 10.1945 9.85674L9.66227 10.4136C9.66788 10.4328 9.6757 10.4513 9.68564 10.4688C9.87292 10.7777 10.0874 11.0692 10.3265 11.34C10.7123 11.7792 11.0753 12.1801 11.4329 12.5485C11.8991 13.0039 12.2808 13.3651 12.6432 13.6633C12.9216 13.9128 13.2265 14.1311 13.5523 14.3144L13.5702 14.3222L13.5937 14.2988L14.1127 13.7881C14.3189 13.5728 14.5571 13.3906 14.8189 13.2481C15.0474 13.1105 15.3062 13.0312 15.5726 13.0171C15.8394 13.002 16.1059 13.0513 16.3496 13.1611C16.5818 13.2609 16.803 13.3846 17.0096 13.5301L19.6137 15.3824C19.8912 15.564 20.1091 15.8231 20.2402 16.1277C20.3518 16.3966 20.4108 16.6844 20.4142 16.9755C20.4121 17.358 20.3269 17.7356 20.1646 18.0819C20.0047 18.427 19.7917 18.7449 19.5333 19.024C19.1232 19.4938 18.6097 19.862 18.0332 20.0998C17.4741 20.3001 16.8834 20.3973 16.2896 20.3867C16.2206 20.3867 16.1408 20.3867 16.0658 20.3867C15.8832 20.3849 15.7008 20.3719 15.5197 20.3477C14.8267 20.2563 14.1476 20.0799 13.4976 19.8226ZM6.97532 4.74447C6.74446 4.752 6.51748 4.80593 6.3079 4.90303C6.09833 5.00014 5.91048 5.13845 5.75548 5.30971C5.42005 5.61641 5.15775 5.99453 4.98801 6.41616C4.82242 6.83053 4.73929 7.27322 4.74323 7.71943C4.76097 8.52591 4.93713 9.32103 5.26166 10.0595C5.65641 10.9656 6.15238 11.8241 6.74013 12.6187C7.3853 13.5022 8.09532 14.3366 8.86426 15.1148C9.6457 15.887 10.483 16.6006 11.3693 17.2497C12.1688 17.8427 13.0347 18.3405 13.9495 18.733C14.5064 19.0193 15.115 19.1912 15.7395 19.2384C16.3639 19.2856 16.9914 19.2072 17.5851 19.0078C17.9988 18.835 18.3664 18.5679 18.6585 18.2278C18.8403 18.0327 18.9897 17.8099 19.1013 17.5677C19.1904 17.3785 19.2385 17.1726 19.2423 16.9635C19.2411 16.8278 19.2106 16.6939 19.153 16.5711C19.1052 16.4733 19.0298 16.3915 18.9363 16.3359L16.3274 14.483C16.194 14.3873 16.0503 14.3068 15.899 14.243C15.8229 14.1894 15.7311 14.1626 15.6382 14.1669C15.5452 14.1711 15.4563 14.2061 15.3853 14.2664C15.2166 14.3589 15.064 14.4783 14.9336 14.6198L14.3335 15.2084C14.1831 15.3481 13.9973 15.4439 13.7963 15.4853C13.5953 15.5268 13.3868 15.5124 13.1935 15.4436L12.9816 15.3494C12.5854 15.1232 12.213 14.8574 11.8703 14.5562C11.4935 14.2346 11.0838 13.8577 10.5893 13.3711C10.2029 12.9781 9.82188 12.5623 9.42166 12.0996C9.11647 11.7602 8.84817 11.3893 8.62123 10.9932L8.52703 10.758C8.48635 10.6308 8.46414 10.4984 8.46104 10.365C8.4601 10.2297 8.48578 10.0955 8.53663 9.97015C8.58798 9.84405 8.66499 9.73002 8.76281 9.63532L9.35142 9.0233C9.48597 8.89119 9.60465 8.74378 9.7049 8.58408C9.75636 8.50419 9.78556 8.41201 9.7895 8.31706C9.78381 8.23067 9.76347 8.14586 9.72944 8.06625C9.65926 7.9192 9.57403 7.77985 9.47506 7.65043L7.65878 5.0769C7.58438 4.97152 7.48358 4.88751 7.36653 4.83329C7.24361 4.7771 7.11045 4.74686 6.97532 4.74447Z" fill="#E5E9F0"/>
<path d="M17.1043 10.2383C16.9487 10.2368 16.7999 10.1746 16.6896 10.0649C16.5816 9.95324 16.5195 9.80504 16.5157 9.6497C16.4114 9.12536 16.1482 8.64582 15.762 8.27623C15.4158 7.8399 14.9115 7.55784 14.3585 7.49139C14.2027 7.4906 14.0536 7.42803 13.9439 7.31739C13.8887 7.26331 13.8448 7.19875 13.8149 7.1275C13.7849 7.05625 13.7695 6.97975 13.7695 6.90247C13.7695 6.82519 13.7849 6.74867 13.8149 6.67742C13.8448 6.60618 13.8887 6.54161 13.9439 6.48753C14.0536 6.37689 14.2027 6.31432 14.3585 6.31354C14.7939 6.34233 15.2188 6.45947 15.6074 6.65785C15.996 6.85622 16.3402 7.13168 16.6189 7.4674C17.2177 8.04897 17.597 8.81978 17.6923 9.6491C17.6925 9.72643 17.6773 9.80302 17.6474 9.87435C17.6175 9.94567 17.5736 10.0103 17.5183 10.0643C17.4087 10.1749 17.2599 10.2374 17.1043 10.2383Z" fill="#E5E9F0"/>
<path d="M19.8542 10.2372C19.6985 10.2361 19.5494 10.1736 19.4396 10.0632C19.3843 10.0092 19.3405 9.94468 19.3106 9.87347C19.2807 9.80225 19.2654 9.72576 19.2656 9.64853C19.2635 8.34784 18.7458 7.10105 17.826 6.18144C16.9061 5.26182 15.6592 4.74443 14.3585 4.74269C14.2027 4.7419 14.0536 4.67931 13.9439 4.56867C13.8887 4.51459 13.8448 4.45005 13.8149 4.3788C13.7849 4.30755 13.7695 4.23104 13.7695 4.15375C13.7695 4.07647 13.7849 3.99997 13.8149 3.92872C13.8448 3.85748 13.8887 3.79291 13.9439 3.73883C13.9982 3.68402 14.0628 3.64045 14.1339 3.6106C14.2051 3.58074 14.2813 3.56517 14.3585 3.56482C15.9712 3.56736 17.5171 4.20903 18.6575 5.34925C19.798 6.48947 20.44 8.03525 20.4428 9.64792C20.4389 9.80306 20.3768 9.95106 20.2689 10.0626C20.1585 10.1723 20.0098 10.2349 19.8542 10.2372Z" fill="#E5E9F0"/>
</g>
<defs>
<clipPath id="clip0_31565_21065">
<rect width="24" height="24" fill="white"/>
</clipPath>
</defs>
</svg>
