<svg width="23" height="23" viewBox="0 0 40 40" fill="none" xmlns="http://www.w3.org/2000/svg">
<path d="M12.4469 20.8851C12.3304 20.7694 12.2382 20.6316 12.1756 20.4799C12.1129 20.3281 12.0811 20.1654 12.0821 20.0012C12.0843 19.6705 12.2167 19.354 12.4505 19.1202C12.6843 18.8864 13.0008 18.754 13.3315 18.7518L26.6739 18.7553C27.0053 18.7553 27.3231 18.8869 27.5574 19.1213C27.7917 19.3556 27.9234 19.6734 27.9234 20.0048C27.9234 20.3361 27.7917 20.6539 27.5574 20.8883C27.3231 21.1226 27.0053 21.2542 26.6739 21.2542L13.3301 21.2507C13.1658 21.253 13.0027 21.2217 12.8508 21.1589C12.699 21.096 12.5616 21.0029 12.4469 20.8851Z" fill="#F2F2F8"/>
<path d="M19.1171 27.5553C19.0006 27.4396 18.9084 27.3018 18.8457 27.15C18.7831 26.9983 18.7513 26.8356 18.7522 26.6714L18.7522 13.3311C18.7588 13.0042 18.8932 12.693 19.1267 12.4641C19.3601 12.2353 19.674 12.1071 20.001 12.1071C20.3279 12.1071 20.6418 12.2353 20.8753 12.4641C21.1088 12.693 21.2432 13.0042 21.2497 13.3311L21.2476 26.6749C21.2454 27.0056 21.113 27.3221 20.8792 27.556C20.6453 27.7898 20.3288 27.9221 19.9981 27.9244C19.8341 27.9244 19.6718 27.8918 19.5205 27.8284C19.3693 27.765 19.2321 27.6722 19.1171 27.5553Z" fill="#F2F2F8"/>
<path d="M25 37.917H15C5.95001 37.917 2.08301 34.05 2.08301 25V15C2.08301 5.95001 5.95001 2.08301 15 2.08301H25C34.05 2.08301 37.917 5.95001 37.917 15V25C37.917 34.05 34.05 37.917 25 37.917ZM15 4.58301C7.31601 4.58301 4.58301 7.31601 4.58301 15V25C4.58301 32.684 7.31601 35.417 15 35.417H25C32.684 35.417 35.417 32.684 35.417 25V15C35.417 7.31601 32.683 4.58301 25 4.58301H15Z" fill="#F2F2F8"/>
</svg>
