<svg width="24" height="24" viewBox="0 0 24 24" fill="none" xmlns="http://www.w3.org/2000/svg">
    <path d="M11.4704 16.5313C11.4005 16.4619 11.3452 16.3792 11.3076 16.2882C11.27 16.1971 11.2509 16.0995 11.2515 16.001V12.7571L8.00613 12.7901C7.90756 12.7925 7.80953 12.7748 7.71803 12.738C7.62654 12.7013 7.54349 12.6463 7.47398 12.5763C7.40338 12.5076 7.34717 12.4256 7.30863 12.3349C7.2701 12.2442 7.25001 12.1468 7.24954 12.0483C7.24881 11.8499 7.32624 11.6592 7.46506 11.5174C7.60389 11.3757 7.79295 11.2943 7.99133 11.2909L11.2515 11.2577V7.99701C11.2554 7.8009 11.3361 7.61413 11.4761 7.47683C11.6162 7.33952 11.8046 7.26261 12.0007 7.26261C12.1969 7.26261 12.3852 7.33952 12.5253 7.47683C12.6654 7.61413 12.746 7.8009 12.7499 7.99701L12.7494 11.2425L15.9962 11.2094C16.195 11.2073 16.3865 11.2843 16.5285 11.4234C16.6706 11.5626 16.7515 11.7524 16.7536 11.9512C16.7557 12.15 16.6787 12.3415 16.5396 12.4836C16.4005 12.6256 16.2106 12.7066 16.0118 12.7086L12.7492 12.7418L12.7487 16.0031C12.7473 16.2015 12.6679 16.3914 12.5276 16.5317C12.3873 16.672 12.1974 16.7514 11.999 16.7528C11.9006 16.7528 11.8032 16.7332 11.7124 16.6952C11.6217 16.6571 11.5394 16.6014 11.4704 16.5313Z" fill="#EFF1F8" />
    <path fill-rule="evenodd" clip-rule="evenodd" d="M8.99903 22.7499H14.9989C20.4287 22.7499 22.7489 20.4297 22.7489 14.9999V9.00001C22.7489 3.57014 20.4287 1.25 14.9989 1.25H8.99903C3.56917 1.25 1.24902 3.57014 1.24902 9.00001V14.9999C1.24902 20.4297 3.56917 22.7499 8.99903 22.7499ZM2.74899 9.00001C2.74899 4.38972 4.38874 2.74996 8.99903 2.74996H14.9989C19.6086 2.74996 21.2489 4.38972 21.2489 9.00001V14.9999C21.2489 19.6101 19.6092 21.2499 14.9989 21.2499H8.99903C4.38874 21.2499 2.74899 19.6101 2.74899 14.9999V9.00001Z" fill="#EFF1F8" />
</svg>
    