<svg width="14" height="14" viewBox="0 0 14 14" fill="none" xmlns="http://www.w3.org/2000/svg">
    <g clip-path="url(#clip0_1370_13659)">
        <path d="M6.69098 9.64358C6.65022 9.60308 6.61793 9.55487 6.596 9.50175C6.57408 9.44864 6.56295 9.39169 6.56328 9.33423V7.44196L4.67016 7.46123C4.61266 7.46263 4.55548 7.45229 4.5021 7.43085C4.44873 7.40941 4.40029 7.37731 4.35974 7.33651C4.31856 7.29644 4.28577 7.24857 4.26329 7.19569C4.24081 7.1428 4.22909 7.08597 4.22882 7.02851C4.22839 6.91277 4.27356 6.80152 4.35454 6.71883C4.43552 6.63614 4.5458 6.58866 4.66153 6.58667L6.56328 6.56732V4.66525C6.56557 4.55085 6.61262 4.4419 6.69433 4.36181C6.77605 4.28171 6.88591 4.23685 7.00033 4.23685C7.11475 4.23685 7.22462 4.28171 7.30633 4.36181C7.38805 4.4419 7.4351 4.55085 7.43738 4.66525L7.43708 6.55843L9.33101 6.53915C9.44698 6.53794 9.55868 6.58285 9.64155 6.664C9.72441 6.74515 9.77164 6.85589 9.77285 6.97186C9.77406 7.08783 9.72915 7.19954 9.648 7.2824C9.56685 7.36526 9.45611 7.41249 9.34014 7.4137L7.43694 7.43307L7.43664 9.33547C7.43586 9.4512 7.38953 9.56198 7.30769 9.64382C7.22585 9.72566 7.11508 9.77198 6.99934 9.77277C6.94194 9.77277 6.88512 9.76135 6.83218 9.73917C6.77924 9.71699 6.73124 9.68449 6.69098 9.64358Z" fill="#EFF1F8" />
        <path fill-rule="evenodd" clip-rule="evenodd" d="M5.24935 13.2711H8.74926C11.9167 13.2711 13.2701 11.9177 13.2701 8.75024V5.25033C13.2701 2.08291 11.9167 0.729492 8.74926 0.729492H5.24935C2.08193 0.729492 0.728516 2.08291 0.728516 5.25033V8.75024C0.728516 11.9177 2.08193 13.2711 5.24935 13.2711ZM1.60349 5.25033C1.60349 2.561 2.56002 1.60447 5.24935 1.60447H8.74926C11.4382 1.60447 12.3951 2.561 12.3951 5.25033V8.75024C12.3951 11.4396 11.4386 12.3961 8.74926 12.3961H5.24935C2.56002 12.3961 1.60349 11.4396 1.60349 8.75024V5.25033Z" fill="#EFF1F8" />
    </g>
    <defs>
        <clipPath id="clip0_1370_13659">
            <rect width="14" height="14" fill="white" />
        </clipPath>
    </defs>
</svg>
    