<svg width="18" height="19" viewBox="0 0 18 19" fill="none" xmlns="http://www.w3.org/2000/svg">
    <g clip-path="url(#clip0_935_55183)">
        <path d="M9.00079 14.5462C8.20099 14.5481 7.42526 14.2726 6.8059 13.7665C6.18653 13.2605 5.76187 12.5554 5.60433 11.7712C5.44679 10.9871 5.56612 10.1725 5.94198 9.4665C6.31783 8.76051 6.92694 8.20677 7.66544 7.89966C8.40394 7.59256 9.2261 7.55113 9.99174 7.78243C10.7574 8.01374 11.4191 8.50347 11.864 9.1681C12.3089 9.83273 12.5095 10.6311 12.4316 11.4271C12.3537 12.2231 12.0021 12.9674 11.4368 13.5332C11.1174 13.854 10.7378 14.1088 10.3198 14.2826C9.90175 14.4564 9.45352 14.546 9.00079 14.5462ZM9.00079 8.74093C8.45418 8.73991 7.92414 8.92847 7.50104 9.27456C7.07795 9.62066 6.78801 10.1028 6.68066 10.6388C6.57331 11.1748 6.6552 11.7314 6.91236 12.2138C7.16952 12.6961 7.58604 13.0743 8.09088 13.2839C8.59572 13.4935 9.15763 13.5214 9.68079 13.363C10.2039 13.2046 10.656 12.8696 10.9598 12.4152C11.2636 11.9607 11.4003 11.415 11.3467 10.8711C11.2931 10.3271 11.0525 9.81852 10.6659 9.43211C10.2242 8.99014 9.6256 8.74106 9.00079 8.73917V8.74093Z" fill="#EFF1F8" />
        <path d="M8.59382 12.2815C8.47511 12.2816 8.35757 12.2579 8.2482 12.2117C8.13887 12.1675 8.03921 12.1024 7.95479 12.0201L7.48317 11.5467C7.41262 11.4696 7.36582 11.3737 7.34841 11.2707C7.33099 11.1676 7.3437 11.0618 7.385 10.9658C7.42629 10.8698 7.49443 10.7877 7.58121 10.7295C7.668 10.6712 7.76975 10.6394 7.87424 10.6376C7.94366 10.6351 8.01288 10.6464 8.07792 10.6708C8.14295 10.6952 8.20251 10.7322 8.25315 10.7798L8.60147 11.1281L9.77153 10.0534C9.85039 9.98031 9.94914 9.93218 10.0553 9.91511C10.1615 9.89803 10.2704 9.9128 10.3682 9.95752C10.466 10.0022 10.5484 10.0749 10.6049 10.1664C10.6615 10.2579 10.6897 10.364 10.686 10.4715C10.6806 10.6162 10.6182 10.7529 10.5123 10.8517L9.22025 12.0425C9.04738 12.1956 8.82472 12.2805 8.59382 12.2815Z" fill="#EFF1F8" />
        <path d="M11.9028 17.3052H6.09343C2.73987 17.3052 2.11569 15.7432 1.95593 14.2275L1.4132 8.4101C1.32427 7.93478 1.33649 7.44604 1.44908 6.97577C1.56167 6.50549 1.77209 6.06414 2.06663 5.68063C2.72006 4.95475 3.80147 4.60645 5.368 4.60645H12.6269C14.2019 4.60645 15.282 4.9633 15.9296 5.68063C16.2247 6.06548 16.4355 6.5083 16.5481 6.98005C16.6607 7.4518 16.6726 7.9419 16.583 8.41856L16.0385 14.2171C15.8819 15.7431 15.2577 17.3052 11.9028 17.3052ZM5.3698 5.69052C4.14304 5.69052 3.29969 5.92858 2.87262 6.40785C2.67879 6.679 2.54487 6.98837 2.47977 7.31526C2.41467 7.64215 2.41988 7.97914 2.49505 8.30386L3.03958 14.1168C3.16289 15.2639 3.4752 16.2162 6.09568 16.2162H11.901C14.5143 16.2162 14.8338 15.2639 14.9571 14.111L15.5016 8.30924C15.5768 7.98358 15.5821 7.64563 15.517 7.31779C15.4519 6.98994 15.318 6.67964 15.124 6.40741C14.6956 5.92814 13.8536 5.69008 12.6269 5.69008L5.3698 5.69052Z" fill="#EFF1F8" />
        <path d="M11.9045 5.69102C11.7604 5.68834 11.6228 5.63011 11.5206 5.52852C11.4184 5.42705 11.3606 5.28924 11.3599 5.14519V4.56421C11.3599 3.27219 11.3599 2.78708 9.58145 2.78708H8.42174C6.64325 2.78708 6.64325 3.27219 6.64325 4.56421V5.14519C6.64261 5.28924 6.58483 5.42705 6.4826 5.52852C6.43276 5.57994 6.37309 5.6208 6.30715 5.64872C6.24121 5.67664 6.17033 5.69102 6.09873 5.69102C6.02712 5.69102 5.95624 5.67664 5.8903 5.64872C5.82436 5.6208 5.7647 5.57994 5.71486 5.52852C5.61262 5.42705 5.55484 5.28924 5.5542 5.14519V4.56421C5.5542 3.28659 5.5542 1.69531 8.42174 1.69531H9.58325C12.4508 1.69531 12.4508 3.28659 12.4508 4.56421V5.14519C12.4502 5.28924 12.3924 5.42705 12.2901 5.52852C12.1874 5.63054 12.0492 5.68881 11.9045 5.69102Z" fill="#EFF1F8" />
        <path d="M11.9121 11.2351C11.7798 11.2347 11.6521 11.1868 11.5521 11.1C11.4525 11.0118 11.3885 10.8904 11.3719 10.7583C11.3554 10.6263 11.3874 10.4928 11.4621 10.3827C11.5362 10.2728 11.6485 10.1942 11.7771 10.1622C13.184 9.80805 14.5098 9.18705 15.6824 8.33288C15.7404 8.29018 15.8064 8.25948 15.8764 8.24279C15.946 8.22538 16.0184 8.22242 16.0892 8.23389C16.196 8.25149 16.2952 8.30026 16.3743 8.37419C16.4533 8.44812 16.5087 8.54382 16.5334 8.64919C16.55 8.71865 16.5526 8.79067 16.5411 8.86113C16.5295 8.93205 16.5043 9.00009 16.4668 9.06142C16.4287 9.12222 16.3796 9.17541 16.3219 9.21809C15.0351 10.1528 13.5813 10.8328 12.039 11.2216C11.9971 11.229 11.9547 11.2335 11.9121 11.2351Z" fill="#EFF1F8" />
        <path d="M6.09692 11.2564C6.05304 11.256 6.00932 11.2512 5.96641 11.242C4.50491 10.884 3.12034 10.2642 1.87976 9.41271C1.81907 9.373 1.7669 9.32163 1.7263 9.26153C1.68511 9.20235 1.65675 9.13521 1.64304 9.06442C1.62875 8.99343 1.62875 8.92029 1.64304 8.8493C1.65765 8.77873 1.68577 8.71166 1.72585 8.65176C1.76606 8.5917 1.818 8.54035 1.87856 8.50091C1.93912 8.46146 2.00703 8.43474 2.07821 8.42224C2.14921 8.40857 2.22225 8.40942 2.29288 8.42488C2.363 8.44194 2.42947 8.47156 2.48909 8.51222C3.62121 9.2905 4.88552 9.85623 6.22022 10.1818C6.28999 10.1985 6.35566 10.2291 6.41328 10.2718C6.47065 10.3144 6.51938 10.3676 6.55684 10.4284C6.59404 10.4902 6.61871 10.5586 6.62945 10.6298C6.64018 10.7011 6.63676 10.7738 6.61939 10.8437C6.5923 10.9619 6.52599 11.0674 6.43128 11.143C6.33651 11.2188 6.2182 11.2589 6.09692 11.2564Z" fill="#EFF1F8" />
    </g>
    <defs>
        <clipPath id="clip0_935_55183">
            <rect width="18" height="18" fill="white" transform="translate(0 0.5)" />
        </clipPath>
    </defs>
</svg>
    