<svg width="18" height="19" viewBox="0 0 18 19" fill="none" xmlns="http://www.w3.org/2000/svg">
    <g clip-path="url(#clip0_934_50286)">
        <path d="M9.00863 17.3018C8.81129 17.3013 8.61401 17.2863 8.41887 17.2569C8.22522 17.2279 8.03424 17.1844 7.84713 17.1268C7.47714 17.0142 7.12884 16.8398 6.81703 16.6111L3.04686 14.2822C2.60323 13.9293 2.24539 13.4804 2.0005 12.9691C1.86933 12.7087 1.76468 12.4356 1.68848 12.1541C1.61545 11.8927 1.57706 11.6228 1.57422 11.3513V5.95384C1.5762 5.66847 1.62528 5.38546 1.71924 5.116C1.81423 4.83764 1.94761 4.57384 2.11564 4.33244C2.28252 4.08997 2.4826 3.87202 2.70979 3.68489C2.93007 3.50214 3.17884 3.35701 3.44634 3.2552L7.71661 1.89836C8.12997 1.75797 8.56423 1.68991 9.00072 1.69719C9.43707 1.68985 9.87164 1.75791 10.2848 1.89836L14.5551 3.2552C14.8227 3.35692 15.0714 3.50205 15.2917 3.68489C15.519 3.8719 15.7186 4.08987 15.8854 4.33244C16.0535 4.57382 16.1875 4.83762 16.2826 5.116C16.3763 5.38554 16.4248 5.66852 16.4268 5.95384V11.3441C16.4092 11.9094 16.2638 12.4634 16.0009 12.9642C15.7558 13.4745 15.398 13.9225 14.9546 14.2745L11.1844 16.6034C10.8787 16.8361 10.5339 17.0129 10.1666 17.1255C9.98026 17.1838 9.7898 17.2273 9.59664 17.2559C9.40199 17.2857 9.20555 17.3011 9.00863 17.3018ZM6.07301 9.09227C6.0027 9.09212 5.93299 9.10552 5.86778 9.13183C5.80028 9.15847 5.73926 9.19885 5.68804 9.25026C5.63679 9.30161 5.59621 9.36281 5.56939 9.43022C5.5429 9.49539 5.52935 9.5651 5.5294 9.63545C5.52935 9.7058 5.5429 9.7754 5.56939 9.84057C5.59621 9.90798 5.63679 9.96929 5.68804 10.0206L7.23408 11.5723C7.28444 11.6231 7.34425 11.6633 7.4103 11.6907C7.47635 11.7181 7.54753 11.7322 7.61905 11.732C7.69049 11.7321 7.76095 11.718 7.82691 11.6906C7.89288 11.6632 7.95283 11.623 8.00314 11.5723L12.3354 7.22071C12.3867 7.16943 12.4269 7.1081 12.4536 7.04064C12.4799 6.97543 12.4938 6.90572 12.4936 6.83541C12.4938 6.76509 12.4799 6.69549 12.4536 6.63029C12.4269 6.56279 12.3868 6.50145 12.3354 6.45022C12.284 6.39897 12.223 6.35873 12.1556 6.33189C12.0904 6.30588 12.0207 6.29263 11.9504 6.29278C11.8801 6.29267 11.8105 6.30592 11.7452 6.33189C11.6778 6.35885 11.6164 6.39908 11.565 6.45022L7.61817 10.4176L6.45579 9.2507C6.40464 9.19919 6.34317 9.15881 6.27561 9.13227C6.21131 9.10597 6.14248 9.09229 6.07301 9.09183V9.09227Z" fill="#EFF1F8" />
    </g>
    <defs>
        <clipPath id="clip0_934_50286">
            <rect width="18" height="18" fill="white" transform="translate(0 0.5)" />
        </clipPath>
    </defs>
</svg>
    