<svg width="18" height="19" viewBox="0 0 18 19" fill="none" xmlns="http://www.w3.org/2000/svg">
    <g clip-path="url(#clip0_934_50244)">
        <path d="M7.4123 11.688C7.47827 11.7155 7.54903 11.7295 7.62047 11.7294C7.69198 11.7296 7.76282 11.7155 7.82887 11.6881C7.89492 11.6607 7.95487 11.6204 8.00523 11.5696L12.3375 7.21804C12.4386 7.11562 12.4954 6.97746 12.4954 6.8335C12.4954 6.68955 12.4386 6.55139 12.3375 6.44897C12.2351 6.34781 12.0969 6.29108 11.953 6.29108C11.809 6.29108 11.6708 6.34781 11.5684 6.44897L7.62092 10.4163L6.45899 9.24939C6.35657 9.14823 6.21841 9.0915 6.07445 9.0915C5.9305 9.0915 5.79234 9.14823 5.68992 9.24939C5.58876 9.35181 5.53203 9.48997 5.53203 9.63392C5.53203 9.77788 5.58876 9.91604 5.68992 10.0185L7.23616 11.5696C7.28646 11.6204 7.34634 11.6606 7.4123 11.688Z" fill="#EFF1F8" />
        <path fill-rule="evenodd" clip-rule="evenodd" d="M6.81685 16.612C7.45536 17.0689 8.22287 17.3104 9.00796 17.3015C9.78998 17.3136 10.5544 17.0691 11.1842 16.6053L14.9544 14.2765C15.3907 13.9176 15.747 13.4715 16.0006 12.9667C16.2542 12.462 16.3994 11.9098 16.4268 11.3456V5.95532C16.4047 5.37367 16.2167 4.81049 15.8851 4.33211C15.5535 3.85373 15.0921 3.4801 14.5552 3.25525L10.2846 1.89847C9.44961 1.63004 8.55145 1.63004 7.71642 1.89847L3.44582 3.25525C2.90894 3.4801 2.44751 3.85373 2.11592 4.33211C1.78433 4.81049 1.59638 5.37367 1.57422 5.95532V11.3528C1.60266 11.9167 1.74827 12.4685 2.00179 12.9731C2.2553 13.4776 2.61115 13.9238 3.04666 14.2832L6.81685 16.612ZM3.82878 4.27948L8.09938 2.92269C8.69297 2.74168 9.32658 2.73855 9.92193 2.91369L14.1925 4.27228C14.5191 4.42305 14.7991 4.65882 15.0032 4.95491C15.2074 5.251 15.3283 5.59652 15.3531 5.95532V11.3528C15.3263 11.7474 15.2212 12.1327 15.0442 12.4864C14.8671 12.84 14.6215 13.155 14.3217 13.4129L10.5515 15.7417C10.0953 16.0468 9.55879 16.2096 9.00998 16.2096C8.46117 16.2096 7.9247 16.0468 7.46847 15.7417L3.69827 13.4129C3.39929 13.1543 3.15437 12.8392 2.97759 12.4856C2.80081 12.1321 2.69567 11.7471 2.6682 11.3528V5.96252C2.69106 5.60317 2.81111 5.25678 3.01552 4.96035C3.21993 4.66392 3.50102 4.42858 3.82878 4.27948Z" fill="#EFF1F8" />
    </g>
    <defs>
        <clipPath id="clip0_934_50244">
            <rect width="18" height="18" fill="white" transform="translate(0 0.5)" />
        </clipPath>
    </defs>
</svg>
    