<svg width="98" height="106" viewBox="0 0 98 106" fill="none" xmlns="http://www.w3.org/2000/svg">
    <path d="M94.7569 82.9957C84.3676 96.9565 67.7399 106 49 106C30.1876 106 13.5037 96.8863 3.12268 82.8333L32.8396 74.9003C35.6445 74.1511 37.6042 71.3853 37.5657 68.2274L37.3672 60H62.9831V60.007L62.6885 69.8308C62.6885 72.0715 64.059 74.0391 66.0378 74.6342L94.7569 82.9957Z" fill="#292A3A" />
    <path d="M50.2536 17.0067C50.2536 17.0067 70.1275 16.0811 69.9994 35.9806C69.8712 55.8801 62.8238 74.2571 50.2536 74.9814C37.6835 75.7125 31.2831 54.6862 30.9051 47.5836C30.5271 40.481 24.3638 17.5366 50.2536 17.0067Z" fill="#292A3A" />
    <path d="M50.026 13.7599C50.026 13.7599 69.8911 12.8671 69.763 32.0623C69.6349 51.2574 62.5906 68.984 50.026 69.6827C37.4614 70.3815 31.0638 50.1059 30.686 43.2546C30.3081 36.4033 24.1475 14.271 50.026 13.7599Z" fill="#292A3A" />
</svg>
    