<svg width="18" height="19" viewBox="0 0 18 19" fill="none" xmlns="http://www.w3.org/2000/svg">
    <path d="M11.4704 10.364H6.15644C6.02463 10.363 5.89848 10.3103 5.80527 10.2171C5.71207 10.1238 5.65929 9.99769 5.65834 9.86588C5.65929 9.73407 5.71207 9.60792 5.80527 9.51471C5.89848 9.4215 6.02463 9.36872 6.15644 9.36778H11.4704C11.6022 9.36872 11.7284 9.4215 11.8216 9.51471C11.9148 9.60792 11.9676 9.73407 11.9685 9.86588C11.9676 9.99769 11.9148 10.1238 11.8216 10.2171C11.7284 10.3103 11.6022 10.363 11.4704 10.364Z" fill="#EFF1F8" />
    <path d="M5.49206 13.2733H10.806C10.9378 13.2724 11.064 13.2196 11.1572 13.1264C11.2504 13.0332 11.3032 12.907 11.3041 12.7752C11.3032 12.6434 11.2504 12.5172 11.1572 12.424C11.064 12.3308 10.9378 12.2781 10.806 12.2771H5.49206C5.36024 12.2781 5.2341 12.3308 5.14089 12.424C5.04768 12.5172 4.9949 12.6434 4.99396 12.7752C4.9949 12.907 5.04768 13.0332 5.14089 13.1264C5.2341 13.2196 5.36024 13.2724 5.49206 13.2733Z" fill="#EFF1F8" />
    <path fill-rule="evenodd" clip-rule="evenodd" d="M11.8659 3.39226H8.49418L8.64764 2.75465C8.66498 2.69043 8.66931 2.62339 8.66039 2.55747C8.65147 2.49155 8.62947 2.42808 8.59569 2.37078C8.56191 2.31348 8.51701 2.26351 8.46365 2.22379C8.41029 2.18408 8.34953 2.15542 8.28495 2.1395C8.22036 2.12359 8.15324 2.12074 8.08754 2.13111C8.02183 2.14149 7.95886 2.16489 7.90233 2.19993C7.84579 2.23498 7.79682 2.28096 7.75829 2.33519C7.71977 2.38942 7.69246 2.4508 7.67798 2.51572L7.46699 3.39226H5.99021C5.54777 3.40501 5.12187 3.56325 4.77845 3.8425C4.43502 4.12174 4.19323 4.50641 4.0905 4.93695L1.29178 14.7955C1.19628 15.1248 1.17434 15.4712 1.22753 15.8099C1.28071 16.1487 1.40772 16.4717 1.59955 16.7559C1.77147 17.0234 2.00717 17.2439 2.28543 17.3977C2.5637 17.5514 2.87582 17.6337 3.19374 17.6369H11.6604L11.6695 17.6377H14.8448C15.119 17.6366 15.3895 17.5754 15.6375 17.4584C15.8854 17.3414 16.1046 17.1714 16.2797 16.9605C16.6569 16.5181 16.8453 15.9453 16.8044 15.3654L16.1491 5.70276C16.1643 5.37378 16.1121 5.04366 15.9941 4.73312C15.8627 4.34867 15.6163 4.01387 15.2884 3.77405C14.9604 3.53422 14.5667 3.40094 14.1605 3.39226H12.887L13.0309 2.72806C13.0563 2.59934 13.0299 2.4658 12.9576 2.35634C12.8853 2.24688 12.7727 2.17032 12.6443 2.14323C12.516 2.11613 12.3821 2.14069 12.2717 2.21157C12.1613 2.28246 12.0833 2.39397 12.0545 2.52198L11.8659 3.39226ZM7.4719 6.00512C7.4317 6.00392 7.39167 5.9994 7.35222 5.99162C7.28833 5.97594 7.22817 5.94778 7.1752 5.90876C7.12224 5.86974 7.07751 5.82063 7.0436 5.76426C7.00968 5.70788 6.98725 5.64536 6.97759 5.58029C6.96793 5.51522 6.97123 5.44888 6.9873 5.38508L7.20391 4.4852H5.99696V4.4924C5.776 4.49979 5.56353 4.57932 5.39201 4.71882C5.22049 4.85833 5.09936 5.05014 5.04711 5.26497L2.25064 15.1235C2.20338 15.2901 2.19316 15.4651 2.22067 15.6361C2.24819 15.8071 2.31278 15.97 2.40992 16.1134C2.49523 16.246 2.61211 16.3554 2.75008 16.4317C2.88806 16.508 3.04282 16.5489 3.20049 16.5507H11.9296C12.1607 16.5434 12.3823 16.457 12.5575 16.306C12.7326 16.155 12.8507 15.9485 12.8921 15.721L15.1306 5.85486C15.1415 5.80974 15.1497 5.76417 15.1552 5.7184C15.1532 5.67794 15.156 5.63766 15.1632 5.59832C15.1654 5.45032 15.1394 5.30243 15.0856 5.16283C15.0213 4.96919 14.8987 4.80015 14.7346 4.67885C14.5706 4.55755 14.373 4.48991 14.169 4.4852H12.6502L12.4063 5.61092C12.3849 5.72353 12.3247 5.82506 12.2361 5.89789C12.1476 5.97072 12.0364 6.01024 11.9217 6.00958C11.8858 6.01179 11.8498 6.00737 11.8155 5.99653C11.6871 5.96708 11.5752 5.88893 11.5032 5.77856C11.4313 5.66819 11.405 5.53421 11.4299 5.40484L11.6292 4.4852H8.23114L7.95695 5.62446C7.9311 5.73343 7.86905 5.8304 7.78095 5.89955C7.69284 5.96869 7.58389 6.00591 7.4719 6.00512ZM15.3918 9.20557L15.8149 15.4441C15.8365 15.7316 15.7433 16.0158 15.5558 16.2347C15.4686 16.3386 15.3598 16.4224 15.2371 16.4802C15.1143 16.538 14.9805 16.5684 14.8448 16.5695H13.6463C13.7464 16.3827 13.8172 16.1801 13.855 15.9685L15.3918 9.20557Z" fill="#EFF1F8" />
</svg>
    