<svg width="18" height="19" viewBox="0 0 18 19" fill="none" xmlns="http://www.w3.org/2000/svg">
    <g clip-path="url(#clip0_935_56835)">
        <path d="M16.3241 5.38578C16.5784 5.00519 16.7141 4.55773 16.7141 4.09999C16.7141 3.48619 16.4703 2.89753 16.0363 2.4635C15.6023 2.02948 15.0136 1.78564 14.3998 1.78564C13.9421 1.78564 13.4946 1.92138 13.114 2.17568C12.7334 2.42999 12.4368 2.79144 12.2616 3.21433C12.0865 3.63722 12.0406 4.10256 12.1299 4.5515C12.2192 5.00044 12.4396 5.41282 12.7633 5.73649C13.087 6.06015 13.4994 6.28058 13.9483 6.36987C14.3972 6.45917 14.8626 6.41334 15.2855 6.23818C15.7084 6.06301 16.0698 5.76637 16.3241 5.38578Z" fill="#EFF1F8" />
        <path fill-rule="evenodd" clip-rule="evenodd" d="M5.54375 17.2146H11.6847C11.7927 17.2146 11.9007 17.207 12.0024 17.1966C12.0924 17.1894 12.1786 17.1817 12.2722 17.166C12.3663 17.1579 12.461 17.1421 12.542 17.1273C12.767 17.0951 12.9896 17.0472 13.2078 16.9838C13.4131 16.9244 13.6135 16.8492 13.8072 16.7588C13.9924 16.6715 14.1698 16.5689 14.3381 16.4523C14.502 16.338 14.6558 16.2096 14.7973 16.0684C14.9388 15.9272 15.0673 15.7737 15.1818 15.6099C15.2989 15.4418 15.4014 15.2642 15.4886 15.0789C15.5793 14.8851 15.6546 14.6843 15.7136 14.4786C15.7771 14.2598 15.8252 14.0368 15.8573 13.8113C15.8721 13.7307 15.8878 13.6357 15.8959 13.5412C15.911 13.4525 15.9184 13.3674 15.9264 13.2753L15.9267 13.2713C15.9348 13.166 15.9425 13.062 15.9425 12.9562V8.26594C15.9432 8.16335 15.9228 8.06165 15.8832 7.967C15.8436 7.87235 15.7853 7.78665 15.7118 7.71509C15.6408 7.64587 15.5571 7.59107 15.4653 7.55359C15.3712 7.51487 15.2704 7.49493 15.1687 7.49503C15.1174 7.4951 15.0664 7.50006 15.0162 7.50986C15.0082 7.51033 15.0005 7.5117 14.9929 7.51393C14.9854 7.51619 14.9778 7.51756 14.97 7.51799C14.9286 7.52654 14.8889 7.53246 14.8439 7.53876C14.8387 7.53952 14.8336 7.54028 14.8284 7.54104C14.7968 7.54569 14.7642 7.55048 14.731 7.55666C14.6248 7.56701 14.5164 7.57204 14.4084 7.57204C14.1721 7.57162 13.9362 7.54839 13.7044 7.50272L13.6437 7.48789C13.5781 7.47359 13.5135 7.45536 13.45 7.4334C13.1977 7.37127 12.9556 7.27263 12.7319 7.1405C12.6526 7.0994 12.5755 7.05432 12.5007 7.00548L12.4928 7.00054L12.4621 6.9812C12.0931 6.72793 11.774 6.40877 11.5208 6.03978L11.4948 6.00012C11.4457 5.92598 11.4007 5.84922 11.3599 5.77018C11.2276 5.5467 11.129 5.30503 11.0668 5.05288C11.0451 4.98993 11.027 4.92577 11.0127 4.86073C11.0109 4.8539 11.0091 4.84615 11.0072 4.83789C11.0043 4.82546 11.0011 4.8119 10.9974 4.79866C10.9304 4.461 10.9123 4.11544 10.9437 3.77264C10.9494 3.74208 10.9536 3.71261 10.9578 3.68381C10.959 3.67573 10.9601 3.66769 10.9613 3.6597C10.9626 3.65152 10.9638 3.64342 10.9651 3.63538C10.9704 3.60096 10.9755 3.56762 10.9824 3.53369C10.9828 3.52593 10.9839 3.51822 10.9859 3.51073C10.9883 3.5033 10.9901 3.49557 10.9903 3.48777C11.0129 3.37443 11.0097 3.2575 10.9815 3.14543C10.9534 3.03337 10.9008 2.92899 10.8273 2.83979C10.7926 2.79756 10.7534 2.75927 10.7104 2.72554C10.667 2.6912 10.6197 2.66174 10.5698 2.63776C10.4651 2.58739 10.3502 2.56155 10.234 2.56217H5.54375C5.4389 2.56217 5.33486 2.56934 5.22866 2.57744C5.13551 2.58554 5.04884 2.59323 4.95884 2.60853C4.86479 2.61663 4.76912 2.63235 4.68857 2.6472C4.46364 2.67941 4.24146 2.72742 4.02324 2.79079C3.81792 2.85016 3.6175 2.92539 3.42383 3.01579C3.23857 3.10292 3.06109 3.20539 2.89297 3.3222C2.72892 3.43652 2.57497 3.56497 2.4333 3.70607C2.29199 3.84734 2.16361 4.0008 2.04922 4.16463C1.932 4.33266 1.82891 4.51026 1.7416 4.6956C1.65107 4.88953 1.57584 5.09024 1.5166 5.2959C1.45309 5.51469 1.40541 5.73776 1.37334 5.96332C1.35849 6.04387 1.34277 6.1392 1.33467 6.23325C1.31982 6.32325 1.31201 6.40969 1.30391 6.50329C1.3034 6.51031 1.30289 6.51731 1.30237 6.52432C1.2952 6.6225 1.28809 6.71998 1.28809 6.81827V12.959C1.28809 13.0634 1.29581 13.1673 1.30391 13.2739C1.31156 13.3675 1.31982 13.454 1.33467 13.544C1.34277 13.6385 1.35849 13.7334 1.37334 13.8139C1.40541 14.0395 1.45309 14.2626 1.5166 14.4813C1.57582 14.687 1.65105 14.8877 1.7416 15.0816C1.82889 15.267 1.93197 15.4446 2.04922 15.6126C2.16361 15.7764 2.29199 15.9299 2.4333 16.0712C2.57497 16.2123 2.72892 16.3407 2.89297 16.455C3.06109 16.5719 3.23857 16.6743 3.42383 16.7614C3.6175 16.8519 3.81792 16.9271 4.02324 16.9864C4.24144 17.0499 4.46363 17.0979 4.68857 17.13C4.76912 17.1449 4.86479 17.1606 4.95884 17.1687C5.05199 17.184 5.13866 17.1922 5.22866 17.1994C5.32811 17.207 5.43575 17.2146 5.54375 17.2146ZM4.72856 13.016C4.79862 12.9867 4.87368 12.9717 4.94961 12.9716H11.893C11.9688 12.9717 12.0436 12.9868 12.1136 13.0161C12.1836 13.0454 12.247 13.0882 12.3003 13.1421C12.3544 13.1954 12.3975 13.2588 12.4269 13.3288C12.4563 13.3988 12.4716 13.4739 12.4717 13.5498C12.4716 13.6257 12.4563 13.7009 12.4269 13.7709C12.3975 13.8408 12.3544 13.9043 12.3003 13.9575C12.247 14.0115 12.1836 14.0543 12.1136 14.0835C12.0436 14.1128 11.9688 14.1279 11.893 14.128H4.94961C4.87368 14.128 4.79862 14.1129 4.72856 14.0836C4.65851 14.0544 4.59519 14.0115 4.5418 13.9575C4.48787 13.9042 4.44495 13.8407 4.41567 13.7708C4.3864 13.7008 4.3714 13.6257 4.37129 13.5498C4.3714 13.474 4.3864 13.3989 4.41567 13.3289C4.44495 13.2589 4.48787 13.1955 4.5418 13.1421C4.59519 13.0881 4.65851 13.0453 4.72856 13.016ZM4.50093 9.90873C4.61064 9.79902 4.75974 9.73745 4.91489 9.73745H11.8982C11.9751 9.73745 12.0509 9.75255 12.1219 9.78195C12.1929 9.81134 12.2574 9.85441 12.3118 9.90873C12.3661 9.96305 12.4094 10.0276 12.4388 10.0986C12.4682 10.1695 12.4832 10.2455 12.4832 10.3224C12.4832 10.3992 12.4682 10.4753 12.4388 10.5463C12.4094 10.6172 12.3661 10.6818 12.3118 10.7361C12.2574 10.7904 12.1929 10.8335 12.1219 10.8629C12.0509 10.8923 11.9751 10.9074 11.8982 10.9074H4.91489C4.75974 10.9074 4.61064 10.8458 4.50093 10.7361C4.39122 10.6264 4.32954 10.4775 4.32954 10.3224C4.32954 10.1672 4.39122 10.0184 4.50093 9.90873ZM4.72856 6.5468C4.79862 6.51753 4.87368 6.50247 4.94961 6.50242H8.80669C8.88261 6.5025 8.95768 6.51753 9.02773 6.5468C9.09778 6.57607 9.16153 6.61896 9.21494 6.67292C9.26887 6.72626 9.31179 6.78972 9.34106 6.85969C9.37034 6.92967 9.38533 7.00478 9.38545 7.08063C9.38533 7.15648 9.37034 7.23159 9.34106 7.30156C9.31179 7.37154 9.26887 7.43499 9.21494 7.48833C9.16153 7.54229 9.09778 7.58518 9.02773 7.61445C8.95768 7.64372 8.88261 7.65876 8.80669 7.65884H4.94961C4.87368 7.65881 4.79862 7.64373 4.72856 7.61445C4.65851 7.58518 4.59517 7.54233 4.5418 7.48833C4.48787 7.43499 4.44495 7.37154 4.41567 7.30156C4.3864 7.23159 4.3714 7.15648 4.37129 7.08063C4.3714 7.00478 4.3864 6.92967 4.41567 6.85969C4.44495 6.78972 4.48787 6.72626 4.5418 6.67292C4.59519 6.61894 4.65851 6.57607 4.72856 6.5468Z" fill="#EFF1F8" />
    </g>
    <defs>
        <clipPath id="clip0_935_56835">
            <rect width="18" height="18" fill="white" transform="translate(0 0.5)" />
        </clipPath>
    </defs>
</svg>
    