<svg width="24" height="24" viewBox="0 0 24 24" fill="none" xmlns="http://www.w3.org/2000/svg">
<path d="M22.2855 4.79951C22.2855 5.4098 22.1046 6.00637 21.7655 6.51381C21.4265 7.02124 20.9446 7.41673 20.3807 7.65028C19.8169 7.88382 19.1965 7.94493 18.5979 7.82587C17.9994 7.70681 17.4496 7.41293 17.018 6.98139C16.5865 6.54986 16.2926 6.00005 16.1735 5.40149C16.0545 4.80294 16.1156 4.18252 16.3491 3.61869C16.5827 3.05486 16.9782 2.57295 17.4856 2.23389C17.993 1.89484 18.5896 1.71387 19.1999 1.71387C20.0183 1.71387 20.8031 2.03896 21.3818 2.61763C21.9605 3.1963 22.2855 3.98115 22.2855 4.79951Z" fill="#F2F2F8"/>
<path d="M15.5792 22.2857H7.39171C7.24772 22.2857 7.10421 22.2755 6.97161 22.2653C6.85162 22.2557 6.73606 22.2448 6.61187 22.2244C6.48647 22.2136 6.35893 22.1927 6.25153 22.1729C5.95162 22.13 5.65539 22.066 5.36447 21.9814C5.09071 21.9023 4.8235 21.802 4.56529 21.6814C4.31829 21.5653 4.08166 21.4287 3.85751 21.2729C3.63879 21.1205 3.43353 20.9492 3.24465 20.7611C3.05625 20.5728 2.88509 20.3682 2.73257 20.1497C2.57624 19.9257 2.43881 19.6889 2.32243 19.4418C2.2017 19.1833 2.1014 18.9157 2.02245 18.6415C1.93777 18.3498 1.87419 18.0523 1.83144 17.7516C1.81164 17.6442 1.79068 17.5177 1.77988 17.3917C1.76008 17.2717 1.74907 17.1565 1.73887 17.0317C1.72807 16.8895 1.71777 16.7509 1.71777 16.6117V8.42454C1.71777 8.28414 1.72867 8.14498 1.73887 8.00459C1.74967 7.87979 1.76008 7.76454 1.77988 7.64455C1.79068 7.51915 1.81164 7.39205 1.83144 7.28465C1.87419 6.98393 1.93777 6.68651 2.02245 6.3948C2.10143 6.12061 2.20173 5.85301 2.32243 5.59445C2.43884 5.34734 2.57628 5.11055 2.73257 4.88653C2.88509 4.6681 3.05625 4.46349 3.24465 4.27513C3.43353 4.08701 3.63879 3.91575 3.85751 3.76334C4.08166 3.6076 4.31829 3.47098 4.56529 3.35482C4.8235 3.23428 5.09071 3.13398 5.36447 3.05483C5.6554 2.97033 5.95163 2.90632 6.25153 2.86339C6.35893 2.84359 6.48647 2.82263 6.61187 2.81183C6.73186 2.79143 6.84742 2.78117 6.97161 2.77037C7.11321 2.75958 7.25192 2.75001 7.39171 2.75001H13.6451C13.8 2.74919 13.9531 2.78364 14.0927 2.85079C14.1593 2.88278 14.2223 2.92205 14.2802 2.96783C14.3376 3.0128 14.3898 3.06385 14.4361 3.12016C14.534 3.23908 14.6042 3.37824 14.6417 3.52766C14.6793 3.67708 14.6835 3.83298 14.6535 3.98408C14.6531 3.99448 14.6508 4.0048 14.6476 4.0147C14.6449 4.02469 14.6434 4.03496 14.6429 4.04531C14.6315 4.10111 14.6238 4.15572 14.6148 4.21332C14.6076 4.26192 14.6009 4.3117 14.5913 4.3639C14.5494 4.82094 14.5735 5.28166 14.6628 5.73185C14.6712 5.76125 14.6773 5.79181 14.6833 5.81461C14.7024 5.90132 14.7265 5.98686 14.7554 6.0708C14.8384 6.40698 14.9698 6.72919 15.1462 7.02714C15.2006 7.13253 15.2606 7.23487 15.3261 7.33372L15.3606 7.3866C15.6983 7.87856 16.1237 8.30408 16.6157 8.64176L16.6567 8.66754L16.6672 8.67413C16.7669 8.73925 16.8697 8.79936 16.9754 8.85415C17.2736 9.03032 17.5965 9.16183 17.9328 9.24466C18.0175 9.27395 18.1036 9.29824 18.1912 9.31731L18.272 9.33709C18.5811 9.39798 18.8956 9.42895 19.2106 9.42951C19.3546 9.42951 19.4991 9.42281 19.6407 9.40901C19.6923 9.39941 19.7427 9.39233 19.7913 9.38513C19.8513 9.37673 19.9042 9.36885 19.9594 9.35745C19.9698 9.35688 19.98 9.35504 19.9899 9.35203C20.0001 9.34906 20.0104 9.34723 20.021 9.34661C20.088 9.33353 20.156 9.32693 20.2243 9.32683C20.3599 9.32671 20.4943 9.35328 20.6198 9.40491C20.7422 9.45488 20.8537 9.52795 20.9485 9.62023C21.0465 9.71564 21.1242 9.82991 21.177 9.9561C21.2297 10.0823 21.2569 10.2179 21.2561 10.3547V16.6081C21.2561 16.7491 21.2458 16.8878 21.235 17.0282C21.2242 17.153 21.2143 17.2681 21.1939 17.3881C21.1831 17.514 21.1622 17.6407 21.1424 17.7481C21.0996 18.0488 21.0355 18.3461 20.9508 18.6378C20.8721 18.9121 20.7718 19.1797 20.6508 19.4381C20.5346 19.6852 20.3979 19.922 20.2418 20.1461C20.0891 20.3645 19.9178 20.5691 19.7292 20.7575C19.5405 20.9456 19.3355 21.1169 19.1169 21.2693C18.8926 21.4248 18.656 21.5615 18.4091 21.6779C18.1509 21.7984 17.8837 21.8987 17.6099 21.9779C17.319 22.0624 17.0222 22.1262 16.7223 22.1692C16.6143 22.189 16.4879 22.21 16.3625 22.2208C16.2378 22.2418 16.1228 22.252 16.0028 22.2616C15.8672 22.2754 15.7232 22.2857 15.5792 22.2857ZM6.59956 16.6286C6.49833 16.6286 6.39825 16.6487 6.30485 16.6877C6.21145 16.7268 6.12702 16.7839 6.05584 16.8559C5.98394 16.927 5.92671 17.0116 5.88768 17.1049C5.84866 17.1982 5.82866 17.2984 5.82851 17.3995C5.82866 17.5006 5.84866 17.6007 5.88768 17.694C5.92671 17.7873 5.98394 17.8719 6.05584 17.9431C6.12702 18.015 6.21145 18.0722 6.30485 18.1112C6.39825 18.1502 6.49833 18.1703 6.59956 18.1704H15.8569C15.958 18.1703 16.0577 18.1501 16.151 18.1111C16.2443 18.072 16.329 18.015 16.4 17.9431C16.4721 17.8721 16.5297 17.7875 16.5688 17.6942C16.6079 17.6009 16.6284 17.5007 16.6286 17.3995C16.6284 17.2983 16.6079 17.1981 16.5688 17.1048C16.5297 17.0115 16.4721 16.9269 16.4 16.8559C16.329 16.784 16.2443 16.7269 16.151 16.6879C16.0577 16.6489 15.958 16.6287 15.8569 16.6286H6.59956ZM6.55327 12.3166C6.34642 12.3166 6.14762 12.3987 6.00135 12.5449C5.85508 12.6912 5.77284 12.8896 5.77284 13.0964C5.77284 13.3033 5.85508 13.5018 6.00135 13.6481C6.14762 13.7943 6.34642 13.8764 6.55327 13.8764H15.8639C15.9664 13.8764 16.0675 13.8563 16.1622 13.8171C16.2568 13.7779 16.3429 13.7205 16.4153 13.6481C16.4877 13.5756 16.5454 13.4896 16.5846 13.3949C16.6238 13.3003 16.6438 13.1988 16.6438 13.0964C16.6438 12.994 16.6238 12.8927 16.5846 12.798C16.5454 12.7034 16.4877 12.6174 16.4153 12.5449C16.3429 12.4725 16.2568 12.4151 16.1622 12.3759C16.0675 12.3367 15.9664 12.3166 15.8639 12.3166H6.55327ZM6.59956 8.00341C6.49833 8.00349 6.39825 8.02356 6.30485 8.06259C6.21145 8.10162 6.12702 8.15877 6.05584 8.23075C5.98394 8.30186 5.92671 8.38646 5.88768 8.47976C5.84866 8.57305 5.82866 8.67319 5.82851 8.77432C5.82866 8.87545 5.84866 8.97559 5.88768 9.06889C5.92671 9.16218 5.98394 9.24679 6.05584 9.3179C6.127 9.3899 6.21144 9.44702 6.30485 9.48605C6.39826 9.52509 6.49833 9.54519 6.59956 9.54523H11.7421C11.8433 9.54513 11.9434 9.52508 12.0368 9.48605C12.1302 9.44703 12.2152 9.38984 12.2864 9.3179C12.3583 9.24679 12.4155 9.16218 12.4545 9.06889C12.4936 8.97559 12.5136 8.87545 12.5137 8.77432C12.5136 8.67319 12.4936 8.57305 12.4545 8.47976C12.4155 8.38646 12.3583 8.30186 12.2864 8.23075C12.2152 8.1588 12.1302 8.10162 12.0368 8.06259C11.9434 8.02356 11.8433 8.00352 11.7421 8.00341H6.59956Z" fill="#F2F2F8"/>
</svg>
