<svg width="18" height="19" viewBox="0 0 18 19" fill="none" xmlns="http://www.w3.org/2000/svg">
    <g clip-path="url(#clip0_935_56754)">
        <path d="M6.83339 17.2644H11.1669C15.0886 17.2644 16.7644 15.5886 16.7644 11.6669V8.05564C16.7644 7.91194 16.7074 7.77414 16.6058 7.67253C16.5041 7.57092 16.3663 7.51384 16.2226 7.51384C16.0789 7.51384 15.9411 7.57092 15.8395 7.67253C15.7379 7.77414 15.6808 7.91194 15.6808 8.05564V11.6633C15.6808 14.9928 14.4969 16.1772 11.1669 16.1772H6.83339C3.50384 16.1772 2.31944 14.9933 2.31944 11.6633V7.32979C2.31944 4.00024 3.50339 2.81584 6.83339 2.81584H10.4446C10.5874 2.81432 10.7239 2.75694 10.8248 2.656C10.9257 2.55505 10.9831 2.41858 10.9846 2.27584C10.9831 2.13309 10.9257 1.99663 10.8248 1.89568C10.7239 1.79474 10.5874 1.73736 10.4446 1.73584H6.83339C2.91164 1.73584 1.23584 3.41164 1.23584 7.33339V11.6669C1.23584 15.5886 2.91164 17.2644 6.83339 17.2644Z" fill="#EFF1F8" />
        <path fill-rule="evenodd" clip-rule="evenodd" d="M14.0562 7.15294C13.5205 7.15294 12.9968 6.99409 12.5514 6.69647C12.106 6.39885 11.7588 5.97583 11.5538 5.48091C11.3488 4.98599 11.2952 4.44139 11.3997 3.91598C11.5042 3.39057 11.7622 2.90795 12.141 2.52916C12.5198 2.15036 13.0024 1.8924 13.5278 1.78789C14.0532 1.68338 14.5978 1.73701 15.0927 1.94202C15.5876 2.14702 16.0107 2.49418 16.3083 2.9396C16.6059 3.38502 16.7648 3.90869 16.7648 4.44439C16.7645 5.16267 16.4791 5.85146 15.9712 6.35936C15.4633 6.86726 14.7745 7.1527 14.0562 7.15294ZM14.0562 2.81944C13.7348 2.81944 13.4207 2.91474 13.1534 3.09329C12.8862 3.27185 12.6779 3.52563 12.5549 3.82255C12.432 4.11947 12.3998 4.44619 12.4625 4.7614C12.5252 5.07661 12.6799 5.36615 12.9072 5.5934C13.1344 5.82066 13.424 5.97542 13.7392 6.03812C14.0544 6.10082 14.3811 6.06864 14.678 5.94565C14.975 5.82266 15.2288 5.61439 15.4073 5.34716C15.5859 5.07994 15.6812 4.76578 15.6812 4.44439C15.6804 4.01365 15.509 3.60075 15.2044 3.29617C14.8998 2.99158 14.487 2.82015 14.0562 2.81944Z" fill="#EFF1F8" />
        <path d="M9.00032 7.69429H5.38727C5.2439 7.69276 5.1069 7.63488 5.00586 7.53316C4.90481 7.43145 4.84785 7.29406 4.84727 7.15069C4.84879 7.00795 4.90617 6.87148 5.00711 6.77054C5.10805 6.6696 5.24452 6.61221 5.38727 6.61069H9.00032C9.14306 6.61221 9.27953 6.6696 9.38047 6.77054C9.48141 6.87148 9.53879 7.00795 9.54032 7.15069C9.53973 7.29406 9.48277 7.43145 9.38172 7.53316C9.28068 7.63488 9.14368 7.69276 9.00032 7.69429Z" fill="#EFF1F8" />
        <path d="M5.38727 13.6533H11.8893C12.0327 13.6517 12.1697 13.5939 12.2707 13.4921C12.3718 13.3904 12.4287 13.253 12.4293 13.1097C12.4278 12.9669 12.3704 12.8305 12.2695 12.7295C12.1685 12.6286 12.0321 12.5712 11.8893 12.5697H5.38727C5.24452 12.5712 5.10805 12.6286 5.00711 12.7295C4.90617 12.8305 4.84879 12.9669 4.84727 13.1097C4.84785 13.253 4.90481 13.3904 5.00586 13.4921C5.1069 13.5939 5.2439 13.6517 5.38727 13.6533Z" fill="#EFF1F8" />
        <path d="M11.8893 10.7129H5.38727C5.2439 10.7114 5.1069 10.6535 5.00586 10.5518C4.90481 10.4501 4.84785 10.3127 4.84727 10.1693C4.84879 10.0266 4.90617 9.89008 5.00711 9.78914C5.10805 9.6882 5.24452 9.63082 5.38727 9.6293H11.8893C12.0321 9.63082 12.1685 9.6882 12.2695 9.78914C12.3704 9.89008 12.4278 10.0266 12.4293 10.1693C12.4287 10.3127 12.3718 10.4501 12.2707 10.5518C12.1697 10.6535 12.0327 10.7114 11.8893 10.7129Z" fill="#EFF1F8" />
    </g>
    <defs>
        <clipPath id="clip0_935_56754">
            <rect width="18" height="18" fill="white" transform="translate(0 0.5)" />
        </clipPath>
    </defs>
</svg>
    