<svg width="18" height="19" viewBox="0 0 18 19" fill="none" xmlns="http://www.w3.org/2000/svg">
    <g clip-path="url(#clip0_935_56078)">
        <path d="M7.64243 11.8545C7.34543 11.8545 6.99731 11.351 6.99731 10.9141C6.99992 10.7269 7.06457 10.5458 7.18101 10.3993C7.29744 10.2527 7.45939 10.1489 7.64111 10.1041H9.10449C10.6385 10.1041 12.2589 8.85713 12.2589 7.32308C12.2589 5.78903 10.639 4.542 9.10449 4.542H6.17949C4.64544 4.542 3.04707 5.78903 3.04707 7.32308C3.04886 7.9685 3.27435 8.59331 3.68516 9.09111C3.77151 9.26621 3.79994 9.46424 3.76645 9.65658C3.73297 9.84892 3.63927 10.0256 3.49883 10.1612C3.33587 10.2918 3.13532 10.3667 2.92666 10.3748C2.718 10.3829 2.51215 10.3238 2.33955 10.2062C1.66589 9.39585 1.29647 8.37547 1.29541 7.32166C1.29589 6.12045 1.77318 4.96863 2.62256 4.11925C3.47194 3.26987 4.62409 2.79247 5.82529 2.79199H9.44902C10.6501 2.79259 11.8017 3.27009 12.6509 4.11947C13.5001 4.96885 13.9772 6.12057 13.9776 7.32166C13.9782 7.91601 13.8618 8.50467 13.6348 9.05398C13.4079 9.60329 13.0752 10.1026 12.6553 10.5232C12.2353 10.9438 11.7364 11.2775 11.1875 11.5054C10.6385 11.7332 10.05 11.8506 9.45562 11.851L7.64243 11.8545Z" fill="#EFF1F8" />
        <path d="M10.3793 7.14543C10.6763 7.14543 11.0236 7.64857 11.024 8.08597C11.0212 8.27316 10.9568 8.45415 10.8403 8.60068C10.7238 8.74722 10.562 8.85097 10.3802 8.89589H8.91685C7.38325 8.89589 5.76289 10.1429 5.76289 11.677C5.76289 13.211 7.3828 14.4579 8.91685 14.4579H11.8418C13.3759 14.4579 14.9738 13.211 14.9738 11.677C14.972 11.0315 14.7465 10.4067 14.3357 9.90894C14.2496 9.73377 14.2213 9.53566 14.2549 9.34336C14.2884 9.15105 14.3821 8.97439 14.5225 8.83876C14.6855 8.70815 14.8859 8.63328 15.0947 8.62518C15.3034 8.61708 15.5096 8.67624 15.6822 8.79382C16.3555 9.60438 16.7241 10.6246 16.7251 11.6783C16.7246 12.8795 16.2473 14.0313 15.3979 14.8807C14.5485 15.7301 13.3968 16.2075 12.1956 16.2079H8.57188C7.37075 16.2073 6.21931 15.7299 5.37002 14.8806C4.52074 14.0312 4.04335 12.8794 4.04287 11.6783C4.04222 11.0839 4.15872 10.4952 4.38565 9.94585C4.61258 9.39649 4.94525 8.89719 5.36519 8.47654C5.78513 8.05589 6.28398 7.72211 6.83296 7.49425C7.38194 7.26639 7.97046 7.14897 8.56485 7.14862L10.3793 7.14543Z" fill="#EFF1F8" />
    </g>
    <defs>
        <clipPath id="clip0_935_56078">
            <rect width="18" height="18" fill="white" transform="translate(0 0.5)" />
        </clipPath>
    </defs>
</svg>
    