<svg width="16" height="16" viewBox="0 0 8 8" fill="none" xmlns="http://www.w3.org/2000/svg">
    <g clip-path="url(#clip0_1355_66984)">
        <path fill-rule="evenodd" clip-rule="evenodd" d="M1.25595 2.01935C1.24703 2.04931 1.24425 2.08088 1.24757 2.11196C1.25306 2.17119 1.2804 2.22624 1.32436 2.26631C1.36832 2.30637 1.42571 2.32844 1.48519 2.32843C1.4928 2.32843 1.50128 2.32802 2.15632 2.26402C3.81606 2.09582 4.81217 2.15928 6.49026 2.32748H6.51542C6.57456 2.32763 6.63153 2.30554 6.6751 2.26555C6.71867 2.22556 6.74566 2.17071 6.75056 2.11177C6.75661 2.04912 6.73762 1.98652 6.69778 1.93779C6.65793 1.88907 6.60051 1.85817 6.5379 1.85166C6.10492 1.80913 5.71533 1.77323 5.34752 1.74591C5.34735 1.74384 5.34698 1.74173 5.34661 1.73962C5.34611 1.73674 5.34561 1.73386 5.34561 1.73104L5.27587 1.31869L5.27576 1.31804C5.22815 1.02613 5.15683 0.588867 4.4159 0.588867H3.58451C2.84593 0.588867 2.77573 1.01063 2.725 1.31538L2.72493 1.31583L2.65519 1.73124C2.65483 1.734 2.65435 1.73673 2.65366 1.73943C2.47922 1.7527 2.29759 1.76889 2.10734 1.7884L1.46023 1.85186C1.42911 1.85478 1.39882 1.86384 1.37124 1.87853C1.34365 1.89323 1.31937 1.91322 1.29959 1.93741C1.2798 1.96161 1.26488 1.9894 1.25595 2.01935ZM4.81054 1.39815L4.86389 1.71447C4.54954 1.69749 4.2448 1.68893 3.93513 1.68893C3.67815 1.68893 3.41675 1.69471 3.14357 1.70837L3.19883 1.3951L3.19926 1.39253C3.2461 1.11248 3.25352 1.06811 3.58909 1.06811H4.42028C4.75649 1.06811 4.76585 1.12224 4.81054 1.39815Z" fill="#FFFFFF" />
        <path fill-rule="evenodd" clip-rule="evenodd" d="M1.79657 6.30328C1.83169 6.79812 1.87581 7.41058 2.98295 7.41058H5.01997C6.12751 7.41058 6.17161 6.79812 6.20674 6.30328L6.41292 3.10808C6.41501 3.07682 6.41095 3.04533 6.40091 3.01566C6.39087 2.98599 6.37506 2.95862 6.35442 2.93506C6.33377 2.91149 6.30877 2.89232 6.28067 2.87846C6.25258 2.86461 6.22199 2.8563 6.19073 2.85426C5.45892 2.72523 4.71797 2.65427 3.97498 2.64199C3.2494 2.65245 2.52596 2.72344 1.81219 2.85426C1.74925 2.85887 1.69067 2.88816 1.64908 2.93563C1.60749 2.9831 1.5863 3.04508 1.59001 3.10808L1.79657 6.30328ZM2.27232 6.27318L2.27219 6.27146L2.08221 3.32988C2.70468 3.19754 3.33865 3.12652 3.97498 3.1178C4.62864 3.1287 5.27986 3.19968 5.92053 3.32988L5.73073 6.27146C5.69893 6.75381 5.68652 6.93477 5.01997 6.93477H2.98295C2.32051 6.93477 2.30734 6.75405 2.27232 6.27318Z" fill="#FFFFFF" />
    </g>
    <defs>
        <clipPath id="clip0_1355_66984">
            <rect width="8" height="8" rx="4" fill="white" />
        </clipPath>
    </defs>
</svg>
    