<svg width="24" height="24" viewBox="0 0 24 24" fill="none" xmlns="http://www.w3.org/2000/svg">
<g clip-path="url(#clip0_30333_958)">
<path d="M18.7403 8.87051C18.026 8.87051 17.3278 8.6587 16.7339 8.26188C16.14 7.86505 15.6771 7.30103 15.4038 6.64113C15.1305 5.98123 15.059 5.2551 15.1983 4.55456C15.3376 3.85401 15.6816 3.21052 16.1867 2.70546C16.6917 2.2004 17.3352 1.85645 18.0358 1.7171C18.7363 1.57775 19.4624 1.64927 20.1223 1.92261C20.7822 2.19595 21.3463 2.65883 21.7431 3.25272C22.1399 3.84661 22.3517 4.54484 22.3517 5.25911C22.3514 6.21681 21.9708 7.1352 21.2936 7.8124C20.6164 8.4896 19.698 8.87019 18.7403 8.87051V8.87051ZM18.7403 3.09251C18.3118 3.09251 17.8929 3.21958 17.5366 3.45764C17.1803 3.69571 16.9026 4.03409 16.7386 4.42998C16.5746 4.82588 16.5317 5.26151 16.6153 5.68179C16.6989 6.10207 16.9053 6.48812 17.2083 6.79112C17.5113 7.09413 17.8973 7.30048 18.3176 7.38408C18.7379 7.46767 19.1735 7.42477 19.5694 7.26078C19.9653 7.0968 20.3037 6.8191 20.5418 6.4628C20.7798 6.10651 20.9069 5.68762 20.9069 5.25911C20.906 4.68478 20.6774 4.13425 20.2713 3.72814C19.8652 3.32203 19.3146 3.09346 18.7403 3.09251Z" fill="#F2F2F8"/>
<path d="M12.0003 9.59226H7.18289C6.99174 9.59021 6.80907 9.51304 6.67435 9.37742C6.53962 9.2418 6.46367 9.05862 6.46289 8.86746C6.46492 8.67713 6.54143 8.49518 6.67602 8.36059C6.81061 8.226 6.99256 8.14949 7.18289 8.14746H12.0003C12.1906 8.14949 12.3726 8.226 12.5072 8.36059C12.6418 8.49518 12.7183 8.67713 12.7203 8.86746C12.7195 9.05862 12.6436 9.2418 12.5088 9.37742C12.3741 9.51304 12.1914 9.59021 12.0003 9.59226V9.59226Z" fill="#F2F2F8"/>
<path d="M15.8523 17.5376H7.18289C6.99174 17.5355 6.80907 17.4584 6.67435 17.3227C6.53962 17.1871 6.46367 17.0039 6.46289 16.8128C6.46492 16.6224 6.54143 16.4405 6.67602 16.3059C6.81061 16.1713 6.99256 16.0948 7.18289 16.0928H15.8523C16.0426 16.0948 16.2246 16.1713 16.3592 16.3059C16.4938 16.4405 16.5703 16.6224 16.5723 16.8128C16.5715 17.0039 16.4956 17.1871 16.3608 17.3227C16.2261 17.4584 16.0434 17.5355 15.8523 17.5376V17.5376Z" fill="#F2F2F8"/>
<path d="M15.8523 13.617H7.18289C6.99174 13.615 6.80907 13.5378 6.67435 13.4022C6.53962 13.2666 6.46367 13.0834 6.46289 12.8922C6.46492 12.7019 6.54143 12.52 6.67602 12.3854C6.81061 12.2508 6.99256 12.1743 7.18289 12.1722H15.8523C16.0426 12.1743 16.2246 12.2508 16.3592 12.3854C16.4938 12.52 16.5703 12.7019 16.5723 12.8922C16.5715 13.0834 16.4956 13.2666 16.3608 13.4022C16.2261 13.5378 16.0434 13.615 15.8523 13.617V13.617Z" fill="#F2F2F8"/>
<path d="M14.8898 22.3525H9.11184C3.88284 22.3525 1.64844 20.1181 1.64844 14.8891V9.11111C1.64844 3.88211 3.88284 1.64771 9.11184 1.64771H13.9268C14.1172 1.64973 14.2991 1.72624 14.4337 1.86083C14.5683 1.99542 14.6448 2.17738 14.6468 2.36771C14.6448 2.55803 14.5683 2.73999 14.4337 2.87458C14.2991 3.00917 14.1172 3.08568 13.9268 3.08771H9.11184C4.67184 3.08771 3.09324 4.6669 3.09324 9.10631V14.8843C3.09324 19.3243 4.67244 20.9029 9.11184 20.9029H14.8898C19.3298 20.9029 20.9084 19.3237 20.9084 14.8843V10.0741C20.9084 9.88251 20.9846 9.69877 21.12 9.56329C21.2555 9.42782 21.4392 9.35171 21.6308 9.35171C21.8224 9.35171 22.0062 9.42782 22.1417 9.56329C22.2771 9.69877 22.3532 9.88251 22.3532 10.0741V14.8891C22.3532 20.1181 20.1188 22.3525 14.8898 22.3525Z" fill="#F2F2F8"/>
</g>
<defs>
<clipPath id="clip0_30333_958">
<rect width="24" height="24" fill="white"/>
</clipPath>
</defs>
</svg>
