<svg width="18" height="19" viewBox="0 0 18 19" fill="none" xmlns="http://www.w3.org/2000/svg">
    <g clip-path="url(#clip0_934_43360)">
        <path d="M6.83388 17.2649H11.1674C15.0891 17.2649 16.7649 15.5891 16.7649 11.6674V8.05613C16.7649 7.91243 16.7078 7.77462 16.6062 7.67302C16.5046 7.57141 16.3668 7.51433 16.2231 7.51433C16.0794 7.51433 15.9416 7.57141 15.84 7.67302C15.7384 7.77462 15.6813 7.91243 15.6813 8.05613V11.6638C15.6813 14.9933 14.4974 16.1777 11.1674 16.1777H6.83388C3.50433 16.1777 2.31993 14.9938 2.31993 11.6638V7.33028C2.31993 4.00073 3.50388 2.81633 6.83388 2.81633H10.4451C10.5879 2.81481 10.7243 2.75742 10.8253 2.65648C10.9262 2.55554 10.9836 2.41907 10.9851 2.27633C10.9836 2.13358 10.9262 1.99711 10.8253 1.89617C10.7243 1.79523 10.5879 1.73785 10.4451 1.73633H6.83388C2.91213 1.73633 1.23633 3.41213 1.23633 7.33388V11.6674C1.23633 15.5891 2.91213 17.2649 6.83388 17.2649Z" fill="white" />
        <path fill-rule="evenodd" clip-rule="evenodd" d="M14.0567 7.15343C13.521 7.15343 12.9973 6.99458 12.5519 6.69696C12.1065 6.39934 11.7593 5.97632 11.5543 5.4814C11.3493 4.98647 11.2957 4.44187 11.4002 3.91647C11.5047 3.39106 11.7627 2.90844 12.1415 2.52965C12.5203 2.15085 13.0029 1.89288 13.5283 1.78837C14.0537 1.68386 14.5983 1.7375 15.0932 1.94251C15.5881 2.14751 16.0112 2.49467 16.3088 2.94009C16.6064 3.38551 16.7652 3.90918 16.7652 4.44488C16.765 5.16316 16.4796 5.85195 15.9717 6.35985C15.4638 6.86775 14.775 7.15319 14.0567 7.15343ZM14.0567 2.81993C13.7353 2.81993 13.4211 2.91523 13.1539 3.09378C12.8867 3.27233 12.6784 3.52612 12.5554 3.82304C12.4324 4.11996 12.4003 4.44668 12.463 4.76189C12.5257 5.0771 12.6804 5.36664 12.9077 5.59389C13.1349 5.82115 13.4245 5.97591 13.7397 6.03861C14.0549 6.10131 14.3816 6.06913 14.6785 5.94614C14.9755 5.82315 15.2292 5.61487 15.4078 5.34765C15.5863 5.08043 15.6816 4.76626 15.6816 4.44488C15.6809 4.01413 15.5095 3.60124 15.2049 3.29665C14.9003 2.99207 14.4874 2.82064 14.0567 2.81993Z" fill="white" />
        <path d="M9.0008 7.69478H5.38775C5.24439 7.69325 5.10739 7.63537 5.00634 7.53365C4.9053 7.43194 4.84834 7.29455 4.84775 7.15118C4.84928 7.00844 4.90666 6.87197 5.0076 6.77103C5.10854 6.67008 5.24501 6.6127 5.38775 6.61118H9.0008C9.14355 6.6127 9.28002 6.67008 9.38096 6.77103C9.4819 6.87197 9.53928 7.00844 9.5408 7.15118C9.54022 7.29455 9.48325 7.43194 9.38221 7.53365C9.28117 7.63537 9.14417 7.69325 9.0008 7.69478Z" fill="white" />
        <path d="M5.38775 13.6538H11.8898C12.0332 13.6522 12.1702 13.5944 12.2712 13.4926C12.3723 13.3909 12.4292 13.2535 12.4298 13.1102C12.4283 12.9674 12.3709 12.831 12.27 12.73C12.169 12.6291 12.0325 12.5717 11.8898 12.5702H5.38775C5.24501 12.5717 5.10854 12.6291 5.0076 12.73C4.90666 12.831 4.84928 12.9674 4.84775 13.1102C4.84834 13.2535 4.9053 13.3909 5.00634 13.4926C5.10739 13.5944 5.24439 13.6522 5.38775 13.6538Z" fill="white" />
        <path d="M11.8898 10.7134H5.38775C5.24439 10.7118 5.10739 10.654 5.00634 10.5523C4.9053 10.4505 4.84834 10.3132 4.84775 10.1698C4.84928 10.027 4.90666 9.89057 5.0076 9.78963C5.10854 9.68869 5.24501 9.63131 5.38775 9.62978H11.8898C12.0325 9.63131 12.169 9.68869 12.27 9.78963C12.3709 9.89057 12.4283 10.027 12.4298 10.1698C12.4292 10.3132 12.3723 10.4505 12.2712 10.5523C12.1702 10.654 12.0332 10.7118 11.8898 10.7134Z" fill="white" />
    </g>
    <defs>
        <clipPath id="clip0_934_43360">
            <rect width="18" height="18" fill="white" transform="translate(0 0.5)" />
        </clipPath>
    </defs>
</svg>
    