<svg width="8" height="8" viewBox="0 0 8 8" fill="none" xmlns="http://www.w3.org/2000/svg">
    <g clip-path="url(#clip0_1355_66983)">
        <path fill-rule="evenodd" clip-rule="evenodd" d="M1.25525 6.74673C1.42678 6.90999 1.6552 6.99983 1.89199 6.99712C1.91299 6.99712 1.93925 6.99612 1.96426 6.99292H1.97851C1.99671 6.99192 2.01672 6.99092 2.03672 6.99092L3.06917 6.84512C3.32077 6.79755 3.55393 6.68004 3.74184 6.50609L6.44796 3.80026C6.59781 3.65303 6.72659 3.48576 6.83059 3.30323C6.91845 3.14806 6.97291 2.97626 6.99055 2.79882C7.01053 2.58303 6.97434 2.36574 6.88567 2.168C6.77961 1.93739 6.63126 1.72878 6.44816 1.55299C6.2999 1.40115 6.1302 1.27175 5.94463 1.1688C5.75386 1.06242 5.53958 1.00517 5.32118 1.0022C5.10719 1.01472 4.89788 1.06986 4.70553 1.16446C4.51319 1.25905 4.34177 1.39116 4.20123 1.55299L1.4953 4.25906C1.40725 4.35129 1.33433 4.45686 1.27928 4.57187C1.22176 4.68514 1.18194 4.80656 1.16111 4.93188L1.0154 5.96453C0.99166 6.1082 1.00123 6.25538 1.04353 6.39472C1.08393 6.52772 1.15675 6.64865 1.25525 6.74673ZM4.82175 1.62536C4.96017 1.55728 5.11093 1.5176 5.26492 1.50861V1.50958C5.42121 1.51136 5.57452 1.55179 5.71142 1.62721C5.845 1.70127 5.96718 1.79435 6.07393 1.90359C6.20563 2.03013 6.31245 2.1803 6.38878 2.34622C6.45269 2.48851 6.4786 2.64495 6.46398 2.80024C6.45154 2.92794 6.41238 3.0516 6.34913 3.16324C6.27435 3.29464 6.18174 3.41506 6.07393 3.52106L5.60115 3.98383C5.22646 3.84694 4.88544 3.6277 4.60277 3.34091C4.33437 3.0686 4.12598 2.74279 3.99014 2.38517L4.45885 1.905C4.55998 1.78853 4.68333 1.69343 4.82175 1.62536ZM3.67384 2.7092L1.79882 4.63007C1.73552 4.69644 1.683 4.77237 1.64335 4.85508C1.61726 4.93655 1.60373 5.02153 1.60331 5.10708C1.58971 5.26349 1.56684 5.52549 1.50624 5.9573C1.48909 6.06067 1.49586 6.16662 1.52616 6.26693C1.55192 6.35119 1.55205 6.35131 1.59703 6.39052L1.59725 6.39071L1.61835 6.40951C1.66474 6.46191 1.72796 6.49661 1.79706 6.50771C1.80326 6.50771 1.95285 6.49492 2.15606 6.47392C2.34646 6.45392 2.62406 6.4231 2.86467 6.3851C3.03857 6.36976 3.20417 6.30404 3.34124 6.19593L5.26191 4.3159C4.89925 4.17844 4.56903 3.96343 4.29403 3.68454C4.02064 3.40728 3.80951 3.07455 3.67384 2.7092Z" fill="#FFFFFF" />
    </g>
    <defs>
        <clipPath id="clip0_1355_66983">
            <rect width="8" height="8" rx="4" fill="white" />
        </clipPath>
    </defs>
</svg>
    