<svg width="18" height="19" viewBox="0 0 18 19" fill="none" xmlns="http://www.w3.org/2000/svg">
    <g clip-path="url(#clip0_934_44816)">
        <path d="M16.3251 5.38529C16.5794 5.0047 16.7151 4.55724 16.7151 4.09951C16.7151 3.4857 16.4713 2.89704 16.0373 2.46301C15.6032 2.02899 15.0146 1.78516 14.4008 1.78516C13.943 1.78516 13.4956 1.92089 13.115 2.17519C12.7344 2.4295 12.4378 2.79095 12.2626 3.21384C12.0874 3.63673 12.0416 4.10207 12.1309 4.55101C12.2202 4.99995 12.4406 5.41233 12.7643 5.736C13.088 6.05967 13.5003 6.28009 13.9493 6.36939C14.3982 6.45869 14.8635 6.41285 15.2864 6.23769C15.7093 6.06252 16.0708 5.76588 16.3251 5.38529Z" fill="white" />
        <path fill-rule="evenodd" clip-rule="evenodd" d="M5.54473 17.2141H11.6856C11.7936 17.2141 11.9017 17.2065 12.0034 17.1961C12.0934 17.1889 12.1796 17.1812 12.2732 17.1655C12.3672 17.1574 12.462 17.1417 12.543 17.1268C12.7679 17.0946 12.9906 17.0467 13.2088 16.9833C13.4141 16.9239 13.6145 16.8487 13.8082 16.7583C13.9934 16.671 14.1708 16.5684 14.3391 16.4518C14.503 16.3375 14.6568 16.2091 14.7983 16.0679C14.9397 15.9267 15.0683 15.7732 15.1828 15.6094C15.2999 15.4413 15.4024 15.2637 15.4895 15.0784C15.5803 14.8846 15.6555 14.6838 15.7145 14.4781C15.7781 14.2593 15.8262 14.0364 15.8583 13.8108C15.8731 13.7303 15.8888 13.6353 15.8969 13.5408C15.912 13.4521 15.9194 13.3669 15.9273 13.2749L15.9277 13.2708C15.9358 13.1655 15.9435 13.0615 15.9435 12.9557V8.26545C15.9442 8.16286 15.9238 8.06116 15.8842 7.96652C15.8446 7.87187 15.7863 7.78616 15.7128 7.7146C15.6418 7.64538 15.5581 7.59058 15.4663 7.5531C15.3722 7.51438 15.2714 7.49445 15.1696 7.49454C15.1184 7.49461 15.0674 7.49957 15.0171 7.50937C15.0092 7.50984 15.0015 7.51121 14.9938 7.51344C14.9864 7.5157 14.9788 7.51707 14.971 7.5175C14.9296 7.52605 14.8899 7.53197 14.8449 7.53827C14.8397 7.53903 14.8345 7.53979 14.8293 7.54056C14.7977 7.54521 14.7652 7.54999 14.7319 7.55618C14.6257 7.56653 14.5174 7.57156 14.4094 7.57156C14.1731 7.57113 13.9372 7.5479 13.7054 7.50223L13.6447 7.4874C13.5791 7.4731 13.5144 7.45487 13.4509 7.43291C13.1987 7.37079 12.9565 7.27214 12.7329 7.14001C12.6535 7.09891 12.5765 7.05383 12.5017 7.00499L12.4938 7.00005L12.463 6.98071C12.094 6.72744 11.775 6.40829 11.5217 6.03929L11.4958 5.99963C11.4467 5.92549 11.4017 5.84874 11.3609 5.76969C11.2286 5.54621 11.13 5.30455 11.0678 5.05239C11.0461 4.98944 11.028 4.92528 11.0137 4.86024C11.0119 4.85341 11.0101 4.84566 11.0082 4.8374C11.0053 4.82498 11.0021 4.81141 10.9983 4.79817C10.9313 4.46051 10.9132 4.11495 10.9447 3.77215C10.9503 3.74159 10.9546 3.71212 10.9588 3.68332C10.96 3.67524 10.9611 3.66721 10.9623 3.65922C10.9636 3.65103 10.9648 3.64293 10.9661 3.63489C10.9713 3.60047 10.9765 3.56713 10.9834 3.5332C10.9837 3.52544 10.9849 3.51773 10.9869 3.51024C10.9893 3.50282 10.991 3.49508 10.9913 3.48728C11.0139 3.37395 11.0107 3.25701 10.9825 3.14495C10.9543 3.03288 10.9017 2.9285 10.8283 2.83931C10.7935 2.79707 10.7544 2.75878 10.7114 2.72505C10.668 2.69072 10.6206 2.66126 10.5708 2.63727C10.466 2.5869 10.3512 2.56106 10.235 2.56168H5.54473C5.43988 2.56168 5.33584 2.56885 5.22964 2.57695C5.13649 2.58505 5.04981 2.59274 4.95981 2.60804C4.86576 2.61614 4.7701 2.63187 4.68955 2.64672C4.46461 2.67892 4.24243 2.72693 4.02422 2.79031C3.81889 2.84967 3.61848 2.9249 3.4248 3.01531C3.23955 3.10243 3.06207 3.2049 2.89395 3.32172C2.7299 3.43603 2.57594 3.56448 2.43428 3.70558C2.29297 3.84685 2.16459 4.00032 2.0502 4.16415C1.93297 4.33217 1.82989 4.50977 1.74258 4.69512C1.65205 4.88905 1.57682 5.08975 1.51758 5.29541C1.45406 5.5142 1.40638 5.73727 1.37432 5.96283C1.35947 6.04338 1.34374 6.13871 1.33564 6.23276C1.32079 6.32276 1.31298 6.40921 1.30488 6.50281C1.30437 6.50982 1.30386 6.51683 1.30335 6.52383C1.29618 6.62201 1.28906 6.7195 1.28906 6.81778V12.9585C1.28906 13.0629 1.29678 13.1668 1.30488 13.2735C1.31253 13.3671 1.32079 13.4535 1.33564 13.5435C1.34374 13.638 1.35947 13.7329 1.37432 13.8134C1.40638 14.039 1.45406 14.2621 1.51758 14.4809C1.5768 14.6865 1.65203 14.8872 1.74258 15.0812C1.82986 15.2665 1.93295 15.4441 2.0502 15.6121C2.16459 15.776 2.29297 15.9294 2.43428 16.0707C2.57594 16.2118 2.7299 16.3402 2.89395 16.4546C3.06207 16.5714 3.23955 16.6738 3.4248 16.761C3.61848 16.8514 3.81889 16.9266 4.02422 16.986C4.24242 17.0494 4.4646 17.0974 4.68955 17.1296C4.7701 17.1444 4.86576 17.1601 4.95981 17.1682C5.05296 17.1835 5.13964 17.1917 5.22964 17.1989C5.32909 17.2065 5.43673 17.2141 5.54473 17.2141ZM4.72954 13.0155C4.7996 12.9862 4.87466 12.9712 4.95059 12.9711H11.8939C11.9698 12.9712 12.0446 12.9863 12.1145 13.0156C12.1845 13.0449 12.248 13.0877 12.3013 13.1416C12.3554 13.1949 12.3985 13.2583 12.4279 13.3283C12.4572 13.3983 12.4726 13.4734 12.4727 13.5493C12.4726 13.6252 12.4572 13.7004 12.4279 13.7704C12.3985 13.8404 12.3554 13.9038 12.3013 13.957C12.248 14.011 12.1845 14.0538 12.1145 14.083C12.0446 14.1123 11.9698 14.1274 11.8939 14.1275H4.95059C4.87466 14.1275 4.7996 14.1124 4.72954 14.0832C4.65949 14.0539 4.59616 14.011 4.54277 13.957C4.48885 13.9037 4.44592 13.8402 4.41665 13.7703C4.38738 13.7003 4.37238 13.6252 4.37227 13.5493C4.37238 13.4735 4.38738 13.3984 4.41665 13.3284C4.44592 13.2584 4.48885 13.195 4.54277 13.1416C4.59616 13.0876 4.65949 13.0448 4.72954 13.0155ZM4.5019 9.90824C4.61161 9.79853 4.76072 9.73696 4.91587 9.73696H11.8992C11.976 9.73696 12.0519 9.75206 12.1229 9.78146C12.1939 9.81086 12.2584 9.85392 12.3127 9.90824C12.3671 9.96256 12.4103 10.0271 12.4397 10.0981C12.4691 10.1691 12.4841 10.2451 12.4841 10.3219C12.4841 10.3987 12.4691 10.4748 12.4397 10.5458C12.4103 10.6168 12.3671 10.6813 12.3127 10.7356C12.2584 10.7899 12.1939 10.833 12.1229 10.8624C12.0519 10.8918 11.976 10.9069 11.8992 10.9069H4.91587C4.76072 10.9069 4.61161 10.8453 4.5019 10.7356C4.3922 10.6259 4.33052 10.477 4.33052 10.3219C4.33052 10.1667 4.3922 10.0179 4.5019 9.90824ZM4.72954 6.54631C4.7996 6.51704 4.87466 6.50198 4.95059 6.50193H8.80767C8.88359 6.50201 8.95866 6.51704 9.02871 6.54631C9.09876 6.57558 9.16251 6.61847 9.21592 6.67244C9.26985 6.72577 9.31277 6.78923 9.34204 6.8592C9.37131 6.92918 9.38631 7.00429 9.38643 7.08014C9.38631 7.15599 9.37131 7.2311 9.34204 7.30107C9.31277 7.37105 9.26985 7.4345 9.21592 7.48784C9.16251 7.5418 9.09876 7.58469 9.02871 7.61396C8.95866 7.64324 8.88359 7.65827 8.80767 7.65835H4.95059C4.87466 7.65832 4.7996 7.64324 4.72954 7.61396C4.65948 7.58469 4.59615 7.54184 4.54277 7.48784C4.48885 7.4345 4.44592 7.37105 4.41665 7.30107C4.38738 7.2311 4.37238 7.15599 4.37227 7.08014C4.37238 7.00429 4.38738 6.92918 4.41665 6.8592C4.44592 6.78923 4.48885 6.72577 4.54277 6.67244C4.59616 6.61845 4.65949 6.57559 4.72954 6.54631Z" fill="white" />
    </g>
    <defs>
        <clipPath id="clip0_934_44816">
            <rect width="18" height="18" fill="white" transform="translate(0 0.5)" />
        </clipPath>
    </defs>
</svg>
    