<svg width="17" height="18" viewBox="0 0 17 18" fill="none" xmlns="http://www.w3.org/2000/svg">
    <path d="M7.95864 13.4737C7.1353 12.9985 6.68014 12.0413 6.68014 10.7829V9.59656H2.65305C2.6295 9.59933 2.6058 9.60072 2.58209 9.60072C2.50391 9.6009 2.42646 9.58565 2.35417 9.55585C2.28189 9.52605 2.21618 9.48228 2.16084 9.42705C2.1055 9.37182 2.06161 9.30622 2.03166 9.23399C2.00171 9.16177 1.98631 9.08435 1.98633 9.00616C1.98633 8.67683 2.25371 8.40202 2.58296 8.40202C2.59927 8.40202 2.61537 8.40266 2.63126 8.40394H6.68014V7.2085C6.68014 5.95013 7.1353 4.99291 7.95864 4.51769C8.78866 4.04238 9.83959 4.12942 10.9306 4.75866L14.0297 6.54587C15.1208 7.17502 15.7232 8.0452 15.7232 8.99563C15.7232 9.94607 15.1208 10.8163 14.0297 11.4523L10.9306 13.2394C10.3082 13.6009 9.69227 13.7816 9.12999 13.7816C8.7083 13.7816 8.31346 13.6812 7.95864 13.4737ZM8.58372 5.55C8.10416 5.82489 7.84211 6.44501 7.84211 7.28892V10.7029C7.84211 11.5467 8.10416 12.1669 8.58372 12.4418C9.06327 12.7167 9.7281 12.6336 10.4633 12.2116L13.4234 10.5046C14.1585 10.0828 14.5613 9.5457 14.5613 8.99592C14.5613 8.44614 14.1584 7.90908 13.4234 7.48713L10.4633 5.78016C10.0158 5.518 9.59396 5.39017 9.22299 5.39017C8.9996 5.38685 8.77921 5.44194 8.58366 5.54998L8.58372 5.55Z" fill="#EFF1F8" />
</svg>
    