<svg width="100%" height="100%" viewBox="0 0 757 723" fill="none" xmlns="http://www.w3.org/2000/svg">
    <path fill-rule="evenodd" clip-rule="evenodd" d="M836.635 682.511C848.836 758.722 552.948 808.432 298.27 773.741C43.5925 739.05 -73.2415 603.576 48.2864 531.39C169.814 459.204 824.434 606.3 836.635 682.511Z" fill="#292A3A" />
    <path d="M316 195.194H208V200.194H316V195.194Z" fill="#96BFE6" />
    <path d="M301 212.194H223V217.194H301V212.194Z" fill="#96BFE6" />
    <path d="M322.056 105.695C316.876 91.9886 304.429 85.6955 298.553 83.7343C296.463 83.0395 292.723 81.82 288.785 80.5457C281.689 78.253 273.937 75.7584 273.937 75.7584H249.452C249.452 75.7584 240.973 78.6004 231.962 81.758C231.962 81.759 231.962 81.76 231.962 81.761C231.962 81.7619 231.961 81.7628 231.96 81.7636C231.96 81.7643 231.959 81.7649 231.958 81.7653C231.957 81.7657 231.956 81.766 231.955 81.766C223.655 84.6764 214.914 87.8507 211.964 89.334C205.81 92.4066 195.458 114.374 193.363 116.892C192.282 118.189 187.479 126.744 182.753 136.303H209.133C211.921 131.516 214.067 127.798 214.067 127.798C214.067 127.798 215.735 131.458 217.758 136.303H302.262C303.598 130.681 304.432 123.601 304.432 123.601C304.432 123.601 308.956 129.755 313.897 136.303H338.251C332.326 126.365 324.975 113.431 322.056 105.695Z" fill="#385369" />
    <path d="M264.612 8.47709C264.612 8.47709 283.756 11.4928 280.842 41.4463C277.927 71.3999 261.03 68.9442 259.901 68.9147C258.771 68.8851 242.938 69.461 241.704 32.8894C241.703 32.8894 241.164 5.84557 264.612 8.47709Z" fill="#EEA886" />
    <path d="M281.137 32.9817C281.137 32.9817 283.233 30.743 284.003 33.0098C284.773 35.2766 281.143 45.3875 281.013 45.8596C281.013 45.8596 280.63 46.739 280.127 46.2553C279.624 45.7717 281.137 32.9817 281.137 32.9817Z" fill="#EEA886" />
    <path d="M242.22 32.6069C242.22 32.6069 240.166 30.3278 239.354 32.5795C238.541 34.8312 241.942 45.0077 242.093 45.4855C242.093 45.4855 242.458 46.3713 242.971 45.8978C243.483 45.4242 242.22 32.6069 242.22 32.6069Z" fill="#EEA886" />
    <path d="M281.129 37.5794L278.39 41.2438C278.39 41.2438 278.467 33.2109 278.029 31.951C277.592 30.6911 276.916 26.8429 276.549 25.9362C276.181 25.0295 260.109 20.5247 245.912 27.2516C245.912 27.2516 246.537 33.0285 245.176 33.5424C243.815 34.0563 244.483 42.9506 244.483 42.9506L242.23 40.4077C242.23 40.4077 238.781 17.3627 239.635 14.9611C240.489 12.5595 246.375 -6.07206 275.5 2.5C275.5 2.5 281.408 4.7673 283.229 11.0365C285.049 17.3057 281.129 37.5794 281.129 37.5794Z" fill="#434343" />
    <path d="M276.309 75.2178C276.301 75.1911 273.853 74.0112 273.853 74.0112C272.661 71.3444 273.547 60.0918 273.547 60.0918C273.547 60.0918 249.163 53.886 249.859 58.6315C250.556 63.377 247.758 74.4019 247.758 74.4019L235.25 80.6127C235.25 80.6127 248.578 116.399 263.896 111.782C279.213 107.166 284.997 79.3225 284.997 79.3225L276.309 75.2178Z" fill="#EEA886" />
    <path d="M250.212 63.9032C251.542 65.4615 253.188 66.7194 255.041 67.5935C256.893 68.4675 258.911 68.9378 260.959 68.9731C265.444 68.9731 268.664 67.716 273.132 63.359C273.132 63.359 271.195 71.6327 260.989 72.4025C260.99 72.4039 253.587 73.3445 250.212 63.9032Z" fill="#A77860" />
    <path d="M316.407 39.0441V42.3336H335.778V60.5128H339.067V39.0441H316.407ZM184.867 60.5128H188.157V42.3336H207.527V39.0441H184.868L184.867 60.5128ZM335.776 154.317V172.503H316.406V175.793H339.065V154.314L335.776 154.317ZM188.157 154.317H184.867V175.796H207.528V172.506H188.158L188.157 154.317Z" fill="#3869FF" />
    <path d="M352.403 265.07L341.809 254.475L344.999 251.284L352.403 258.687L362.779 248.309L365.971 251.501L352.403 265.07Z" fill="#3869FF" />
    <path d="M401.702 209.229L344.971 240.414L288 150.76L356.906 126.825L401.702 209.229Z" fill="#292C47" />
    <path d="M398.105 206.536L345.051 235.698L291.773 151.856L356.212 129.472L398.105 206.536Z" fill="white" />
    <path d="M417.536 190.856C417.536 190.856 407.662 186.134 403.328 183.665C398.994 181.196 387.845 177.808 386.944 177.004C386.043 176.2 353.894 174.216 351.944 172.534C349.994 170.852 348.098 176.477 356.431 178.302C364.764 180.127 376.358 184.59 376.992 187.846C377.626 191.102 368.434 191.874 367.503 194.557C366.572 197.24 367.764 196.637 369.082 197.213C370.4 197.789 380.016 192.463 384.244 193.974C388.472 195.485 394.936 193.393 398.178 194.502C401.42 195.611 417.178 200.914 417.178 200.914L417.536 190.856Z" fill="#EEA886" />
    <path d="M350.226 248.95C338.51 233.285 333.915 221.698 329.902 218.575C325.889 215.452 318.354 206.265 317.245 205.73C316.136 205.195 301.745 175.671 299.403 174.489C297.061 173.307 301.622 169.33 306.586 176.471C311.55 183.612 320.271 192.801 323.586 192.131C326.901 191.461 324.05 182.497 326.214 180.575C328.378 178.653 328.277 180.012 329.332 181.029C330.387 182.046 329.113 193.182 332.184 196.579C335.255 199.976 335.799 206.879 338.107 209.504C340.415 212.129 351.548 224.913 351.548 224.913L374.848 250.319L378.131 224.913L398.105 256.886L384.949 279.786C384.242 281.031 383.07 281.946 381.691 282.332C379.645 282.694 379.728 282.711 377.61 281.426C375.492 280.141 375.5 279.818 373.218 277.19C368.37 271.611 358.517 260.042 350.226 248.95Z" fill="#EEA886" />
    <path d="M520.851 628.22C520.851 628.22 522.645 640.675 522.87 642.545C523.095 644.415 542.831 641.445 542.831 641.445L544.431 626.618C544.431 626.618 523.323 626.463 520.851 628.22Z" fill="#424773" />
    <path d="M522.664 640.962C522.664 640.962 516.411 648.468 510.364 651.738C504.317 655.008 494.811 656.305 491.235 659.691C488.654 662.135 481.835 672.659 506.951 672.446C532.067 672.233 544.183 673.932 546.874 669.898C549.565 665.864 542.98 640.118 542.98 640.118C542.98 640.118 537.029 642.259 522.664 640.962Z" fill="#292C47" />
    <path d="M379.436 628.22C379.436 628.22 381.23 640.675 381.455 642.545C381.68 644.415 401.417 641.445 401.417 641.445L403.017 626.618C403.017 626.618 381.904 626.463 379.436 628.22Z" fill="#424773" />
    <path d="M381.245 640.962C381.245 640.962 374.991 648.468 368.945 651.738C362.899 655.008 340.639 657.696 337.063 661.082C334.481 663.527 330.188 673.366 365.533 672.447C390.644 671.793 402.764 673.933 405.455 669.899C408.146 665.865 401.561 640.119 401.561 640.119C401.561 640.119 395.954 642.405 381.245 640.962Z" fill="#292C47" />
    <path d="M504.509 308.179C504.509 308.179 523.054 337.644 521.671 364.279C520.288 390.914 528.395 419.992 531.182 447.816C534.288 478.834 546.998 552.266 547.459 568.857C547.92 585.448 545.486 638.43 545.486 638.43L520.043 639.012C520.043 639.012 498.674 510.636 493.143 497.537C487.612 484.438 460.163 391.053 459.243 380.575C458.323 370.097 504.509 308.179 504.509 308.179Z" fill="#2E3042" />
    <path d="M406.251 314.99C406.251 314.99 392.564 387.358 390.758 403.517C388.952 419.676 387.746 481.723 386.84 491.824C385.934 501.925 380.817 623.995 376 639H407.855C407.855 639 432.309 550.26 432.309 508.272C432.309 466.285 451.2 416.994 463.395 389.292C475.59 361.589 503.503 360.933 511 309.535C511.003 309.538 416.401 298.688 406.251 314.99Z" fill="#2E3042" />
    <path d="M473.565 60.4547C473.565 60.4547 448.673 51.1547 437.195 70.1057C425.717 89.0567 426.824 126.989 439.371 131.655C451.918 136.321 470.771 133.88 477.191 122.023C483.611 110.166 489.415 93.0227 489.136 81.5697C488.857 70.1167 480.101 63.7617 473.565 60.4547Z" fill="#EEA886" />
    <path d="M442.072 132.52C442.072 132.52 443.108 139.24 441.395 142.552C439.682 145.864 473.644 145.952 473.644 145.952C473.644 145.952 476.402 127.944 481.628 112.729C486.854 97.5137 442.072 132.52 442.072 132.52Z" fill="#EEA886" />
    <path d="M481.618 109.157C481.041 108.795 480.938 108.296 480.487 107.868C480.125 107.52 479.578 107.531 479.114 107.399C478.178 107.055 477.41 106.363 476.97 105.468C474.511 106.074 471.948 106.134 469.463 105.643C460.872 104.292 450.392 92.8667 446.805 91.6096C443.217 90.3525 443.184 88.2507 443.184 88.2507L440.938 91.5321L437.129 91.7695C437.129 91.7695 440.602 81.5499 435.357 77.3776C434.959 76.9917 434.642 76.5294 434.426 76.0188C434.21 75.5083 434.099 74.9597 434.099 74.4054C432.951 74.671 431.777 74.8053 430.598 74.8044C430.365 74.7625 430.137 74.6981 429.916 74.6131C429.41 74.6244 428.906 74.6811 428.41 74.7821C427.134 74.9786 425.831 74.6686 424.78 73.9189C422.514 72.0447 423.248 68.7205 425.906 67.4963C423.643 65.9955 421.608 64.1753 419.865 62.0927C419.005 61.0957 418.25 60.0126 417.613 58.8608C417.138 58.1659 416.928 57.3242 417.022 56.4879C417.673 54.0396 422.575 55.326 423.989 55.9339C424.124 55.4129 424.164 54.8722 424.108 54.3369C423.987 53.8225 424.011 53.2848 424.179 52.7836C424.572 51.9913 425.249 51.3762 426.076 51.0604C427.054 50.6142 428.107 50.3526 429.181 50.2887C429.365 50.2835 429.55 50.2883 429.734 50.3036C430.317 50.339 431.041 50.3743 431.244 49.9268C431.349 49.304 431.293 48.6655 431.083 48.0701C430.921 47.1764 430.808 46.2743 430.745 45.3683C430.65 44.1593 430.571 42.9497 430.499 41.7381C430.372 40.8417 430.377 39.9313 430.515 39.0363C431.08 36.6724 433.676 36.4791 435.547 36.8177C436.813 37.0561 438.022 37.53 439.111 38.216C439.891 38.6981 440.631 39.2498 441.396 39.747C441.91 40.078 442.305 40.5368 442.878 40.1543C444.229 39.2577 444.947 37.3087 445.932 36.0567C447.073 34.6742 448.551 33.6089 450.224 32.9633C451.936 32.3264 453.777 32.1121 455.591 32.3375C457.404 32.563 459.136 33.2217 460.64 34.2585C461.319 34.7034 461.946 35.2213 462.511 35.8028C462.992 36.3093 463.355 36.7011 464.109 36.5044C464.779 36.2642 465.405 35.9137 465.961 35.468C466.648 35.002 467.368 34.5853 468.093 34.1852C470.907 32.5559 474.146 31.8091 477.389 32.0415C478.907 32.1298 480.383 32.5769 481.696 33.3458C483.008 34.1148 484.12 35.1841 484.939 36.4656C486.698 39.2669 487.98 42.0073 488 45.3683L491.967 43.7589C493.628 43.1675 495.383 42.8866 497.145 42.9312C499.743 43.0156 502.549 43.776 504.401 45.6494C506.709 47.9804 506.657 51.5687 505.883 54.7194C505.469 56.2943 504.962 57.8424 504.364 59.3571C503.896 60.8842 503.1 62.2914 502.032 63.4786C505.759 63.5192 510.285 64.9132 512.197 68.362C514.677 72.8365 510.981 78.1791 507.001 80.4594C514.126 86.2249 500.993 95.0232 495.622 95.572C496.561 99.2023 492.033 100.644 489.543 101.724C491.075 103.503 491.524 106.352 489.638 108.242C488.385 109.433 486.715 110.085 484.986 110.056C483.802 110.075 482.635 109.763 481.618 109.157Z" fill="#E8E1E1" />
    <path d="M439.38 142.153C439.38 142.153 439.488 135.828 442.355 135.221C445.222 134.614 474.003 131.848 477.523 133.231V140.599C477.523 140.599 470.742 144.773 439.38 142.153Z" fill="#E2D2CA" />
    <path d="M441.081 90.8457C441.618 88.5977 447.335 82.1727 449.524 89.0517C451.713 95.9307 446.217 105.184 443.15 104.392C440.083 103.6 439.722 96.5457 441.081 90.8457Z" fill="#EEA886" />
    <path d="M325.154 216.892C325.169 216.887 325.186 216.887 325.201 216.892C325.004 216.975 324.976 216.983 325.154 216.892Z" fill="#323657" />
    <path d="M528.5 348C528.5 348 506.035 352.63 480 355.5C453.965 358.37 394.909 348.574 394.5 345.5C394.091 342.426 403.038 288.654 403.5 281.5C404.5 266 405.5 241 405.5 241C405.327 244.026 403.736 246.48 401 255.5C398.823 262.675 373.578 241.405 375.5 234.5C379 221.931 383.166 195.451 385 187.5C389 160 409.5 156 409.5 156C428.545 150.239 439.379 142.153 439.379 142.153L477.522 140.599C477.522 140.599 504.713 144.273 518.5 150.5C536.5 158 527.629 185.762 531.215 193.796L519 218.5C519 218.5 514.5 252.5 519 290.5C519.687 302.078 528.5 348 528.5 348Z" fill="#fbb03b" />
    <path d="M520.958 215.577C519.078 216.338 518.427 213.777 516.307 213.389L515.086 240.724L490.607 236.183C490.607 236.183 484.571 172.281 526 156.5C526.78 156.755 532 166.5 535.709 205.072C535.634 205.653 535.634 206.241 535.709 206.822C535.709 206.822 523.661 214.483 520.958 215.577Z" fill="#fbb03b" />
    <path d="M535.786 206.702V224.693C535.86 226.992 535.638 229.29 535.127 231.533C534.342 234.033 533.978 235.899 531.216 238.033C528.454 240.167 525.755 240.021 517 240.5L519 214.5L535.786 206.702Z" fill="#EEA886" />
    <path d="M314.227 145.949L310.91 140.249L337.03 131.237L340.345 136.904L314.227 145.949Z" fill="#292C47" />
</svg>