<svg width="24" height="24" viewBox="0 0 24 24" fill="none" xmlns="http://www.w3.org/2000/svg">
    <path d="M5.67572 20.9906C4.96534 20.9987 4.28011 20.7292 3.76551 20.2394C3.47001 19.9452 3.25156 19.5824 3.13034 19.1834C3.00346 18.7654 2.97473 18.3239 3.04597 17.8929L3.48309 14.7949C3.54557 14.4189 3.66504 14.0547 3.83759 13.7149C4.00275 13.3698 4.2215 13.0531 4.48565 12.7765L12.6034 4.65824C13.0251 4.17274 13.5393 3.77642 14.1164 3.49264C14.6934 3.20886 15.3213 3.04342 15.9633 3.00586C16.6185 3.01477 17.2613 3.18654 17.8336 3.50568C18.3904 3.8145 18.8995 4.20273 19.3442 4.65824C19.8935 5.1856 20.3386 5.81145 20.6568 6.50326C20.9228 7.09647 21.0313 7.74837 20.9714 8.39574C20.9185 8.92806 20.7551 9.44345 20.4915 9.90896C20.1795 10.4565 19.7932 10.9584 19.3436 11.4001L11.2253 19.5175C10.6616 20.0394 9.96206 20.3919 9.20725 20.5346L6.10991 20.972C6.04991 20.972 5.9899 20.975 5.9353 20.978H5.89252C5.81752 20.9876 5.73872 20.9906 5.67572 20.9906ZM15.7945 4.52509C15.3325 4.55208 14.8803 4.67111 14.465 4.87534C14.0497 5.07957 13.6797 5.36485 13.3763 5.71428L5.39622 13.8895C5.20631 14.0886 5.04877 14.3164 4.9298 14.5645C4.85154 14.8089 4.81095 15.0639 4.80968 15.3205C4.76888 15.7897 4.70027 16.5757 4.51846 17.8712C4.46704 18.1813 4.48733 18.4991 4.57823 18.8001C4.65563 19.0533 4.65591 19.0532 4.79152 19.1714L4.8548 19.2278C4.99396 19.385 5.18365 19.4891 5.39095 19.5224C5.40955 19.5224 5.85831 19.484 6.46793 19.421C7.03914 19.361 7.87194 19.2686 8.59376 19.1546C9.11546 19.1085 9.61228 18.9114 10.0235 18.5871L18.2215 10.5624C18.545 10.2445 18.8228 9.88318 19.0471 9.48898C19.2369 9.15408 19.3544 8.7831 19.3917 8.39999C19.4355 7.93411 19.3578 7.4648 19.1661 7.03794C18.9371 6.54016 18.6166 6.08967 18.2215 5.71003C17.9013 5.38231 17.5348 5.10307 17.134 4.88091C16.7233 4.65463 16.2634 4.53335 15.7945 4.52802V4.52509Z" fill="#F2F2F8" />
    <path d="M17.1581 13.006C17.0518 13.0074 16.9458 12.9915 16.8446 12.9592C15.4409 12.56 14.1628 11.8089 13.1308 10.7771C12.0988 9.74529 11.3476 8.46692 10.9482 7.06332C10.9086 6.73875 10.9798 6.4103 11.1509 6.13166C11.322 5.85302 11.5824 5.64086 11.8898 5.5293C11.8701 5.68443 11.8821 5.84163 11.9244 5.9922C12.3235 7.39588 13.0746 8.67454 14.1064 9.70655C15.1382 10.7386 16.416 11.4898 17.8196 11.8892C17.9211 11.9213 18.0273 11.9374 18.1337 11.9367C18.2658 11.9374 18.3973 11.9146 18.5216 11.8699C18.5141 11.9276 18.5025 11.9848 18.4876 12.041C18.3805 12.3115 18.1986 12.5457 17.9632 12.7166C17.7277 12.8874 17.4485 12.9881 17.1581 13.006Z" fill="#F2F2F8" />
</svg>
    