<svg width="16" height="16" viewBox="0 0 16 16" fill="none" xmlns="http://www.w3.org/2000/svg">
    <path d="M9.10024 7.38757C9.04879 7.5221 9.03611 7.63487 9.07771 7.75572C9.11037 7.85061 9.17182 7.93294 9.2535 7.99123C9.33518 8.04952 9.43303 8.08087 9.53338 8.08091C9.58679 8.08088 9.63982 8.07196 9.69031 8.05452C10.4505 7.3946 10.8405 7.35744 11.6588 7.37672C11.7796 7.33511 11.879 7.2472 11.935 7.13232C11.9911 7.01745 11.9992 6.88502 11.9576 6.76417C11.916 6.64332 11.8399 6.55641 11.7132 6.48792C11.11 6.16193 9.39376 6.6202 9.10024 7.38757Z" fill="#EFF1F8" />
    <path d="M6.88705 7.7558C6.92866 7.63495 6.91598 7.52218 6.86452 7.38765C6.57101 6.62028 4.85473 6.16201 4.25159 6.48799C4.12487 6.55648 4.0488 6.6434 4.0072 6.76425C3.96559 6.8851 3.97369 7.01752 4.02973 7.1324C4.08576 7.24727 4.18514 7.33519 4.30599 7.37679C5.1243 7.35752 5.51427 7.39468 6.27446 8.05459C6.32494 8.07204 6.37797 8.08096 6.43139 8.08099C6.53174 8.08095 6.62958 8.0496 6.71126 7.99131C6.79295 7.93301 6.85439 7.85068 6.88705 7.7558Z" fill="#EFF1F8" />
    <path fill-rule="evenodd" clip-rule="evenodd" d="M14.0406 12.9007C14.0827 12.9479 14.1343 12.9857 14.192 13.0116C14.2536 13.0389 14.3203 13.0527 14.3877 13.0521C14.455 13.0526 14.5217 13.0387 14.5832 13.0114C14.6409 12.9855 14.6924 12.9477 14.7345 12.9005C14.8222 12.7989 14.8693 12.6686 14.8668 12.5344V4.78917C14.867 4.71646 14.8517 4.64453 14.8219 4.57816C14.8553 4.38088 14.8714 4.25485 14.8688 4.21358C14.8651 4.1282 14.8401 4.04509 14.7961 3.97183C14.7725 3.93417 14.7435 3.90019 14.71 3.87098C14.6718 3.83787 14.6294 3.80994 14.5839 3.7879C14.5269 3.76017 14.4667 3.73987 14.4046 3.72751C14.3398 3.71482 14.2739 3.70862 14.2079 3.709C14.1229 3.70959 14.0382 3.71712 13.9545 3.73154C13.872 3.74513 13.7837 3.76461 13.6846 3.79118C13.5002 3.84066 13.304 3.90811 13.1143 3.97344C12.7386 4.10266 12.3501 4.23619 12.0046 4.25076C11.9821 4.25175 11.9582 4.25221 11.9337 4.25221C11.823 4.25221 11.7078 4.24286 11.5862 4.23299L11.5835 4.23278C11.4655 4.22316 11.3434 4.21321 11.223 4.21207C11.2059 4.21184 11.1887 4.21184 11.1717 4.21184C11.0239 4.21176 10.8759 4.21948 10.7289 4.23497C10.643 4.24458 10.5568 4.24986 10.4704 4.25076C10.2408 4.25187 10.0122 4.28072 9.7895 4.33666C9.55748 4.39469 9.33202 4.47641 9.11672 4.58054C8.66907 4.79727 8.26538 5.09493 7.926 5.45849C7.58666 5.0949 7.18297 4.79724 6.73532 4.58054C6.52001 4.4764 6.29458 4.39468 6.06256 4.33666C5.83987 4.28072 5.61124 4.25187 5.38165 4.25076C5.29527 4.24985 5.20898 4.24458 5.12314 4.23497C4.97612 4.21947 4.82839 4.21175 4.68055 4.21184C4.66363 4.21184 4.64634 4.21192 4.6291 4.21207C4.50868 4.21321 4.38637 4.22314 4.26839 4.23278L4.26445 4.2331C4.14321 4.24293 4.02871 4.25221 3.91837 4.25221C3.89385 4.25221 3.87003 4.25175 3.8475 4.25076C3.50203 4.23621 3.11338 4.1026 2.73778 3.97344L2.73661 3.97304C2.54728 3.90789 2.3516 3.84056 2.16768 3.79125C2.06865 3.76469 1.9804 3.7451 1.89793 3.73161C1.81421 3.7172 1.72945 3.70966 1.6445 3.70908C1.57847 3.7087 1.51256 3.71489 1.44776 3.72758C1.3857 3.73993 1.32549 3.76023 1.26862 3.78798C1.22308 3.81003 1.18063 3.83796 1.14236 3.87106C1.1089 3.90029 1.07991 3.93426 1.05631 3.9719C1.0123 4.04516 0.987342 4.12827 0.983697 4.21366C0.977104 4.31594 1.08089 4.87954 1.1718 5.33109C1.26944 5.81601 1.39711 6.39609 1.46239 6.59883C1.5382 6.83211 1.62759 7.06076 1.7301 7.28361C1.83564 7.51464 1.95726 7.74828 2.09157 7.9781C2.22647 8.209 2.37415 8.43572 2.53029 8.65197C2.68597 8.86809 2.85272 9.07601 3.02986 9.27491C3.20001 9.46636 3.38166 9.64725 3.57381 9.8166C3.75286 9.97477 3.9441 10.1186 4.14576 10.2467C4.55315 10.5023 4.94415 10.6384 5.30789 10.6512C5.35176 10.6527 5.39613 10.6534 5.43983 10.6534C5.67521 10.6534 5.91007 10.6313 6.14134 10.5876C6.36718 10.5447 6.58856 10.4811 6.80267 10.3975C7.01222 10.3156 7.2136 10.2142 7.40412 10.0946C7.59094 9.97731 7.76575 9.8419 7.92602 9.69033C8.0863 9.84193 8.26113 9.97737 8.44797 10.0947C8.63851 10.2143 8.83987 10.3156 9.0494 10.3975C9.2635 10.4812 9.4849 10.5448 9.71075 10.5876C9.94204 10.6314 10.1769 10.6534 10.4123 10.6535C10.4561 10.6535 10.5004 10.6527 10.5442 10.6512C10.8271 10.6413 11.1289 10.5559 11.441 10.3975C11.7322 10.2496 12.0307 10.0393 12.3282 9.77237C12.626 9.50207 12.8993 9.20602 13.1451 8.88766C13.3992 8.56101 13.6286 8.21579 13.8313 7.8549L13.9046 7.65938L13.9083 12.5346C13.9058 12.6687 13.9529 12.7991 14.0406 12.9007ZM2.17732 5.17236C2.22719 5.12427 2.28822 5.08932 2.35493 5.07062C2.50321 5.02229 2.6903 4.99877 2.9273 4.99895C3.19496 4.99895 3.49446 5.02896 3.78426 5.058L3.79043 5.05862C4.03445 5.08309 4.28654 5.10837 4.51327 5.11465C4.53205 5.11517 4.55206 5.11548 4.57253 5.11548C4.66545 5.11548 4.76198 5.11027 4.86413 5.10476L4.86929 5.10448C4.96684 5.09925 5.06764 5.09384 5.16726 5.09325C5.18076 5.0931 5.19492 5.0931 5.20903 5.0931H5.20998C5.37663 5.0931 5.48474 5.09989 5.58003 5.10587L5.58065 5.10591C5.65515 5.11064 5.71949 5.11465 5.7971 5.11465C6.05576 5.11465 6.34335 5.21169 6.67615 5.41132C6.96566 5.58484 7.25063 5.81283 7.50221 6.0141L7.5095 6.01993C7.65791 6.13856 7.79804 6.25058 7.92607 6.34133C8.05542 6.24969 8.19708 6.13638 8.34711 6.01638L8.348 6.01566L8.34885 6.01498C8.60067 5.81344 8.88612 5.58512 9.17613 5.41123C9.50893 5.21167 9.79642 5.11463 10.0552 5.11463C10.1328 5.11463 10.1971 5.1106 10.2716 5.10589L10.2724 5.10584C10.3677 5.09986 10.4757 5.09307 10.6423 5.09307C10.6496 5.09307 10.6568 5.09311 10.6641 5.09315C10.6711 5.09319 10.6781 5.09323 10.685 5.09323C10.785 5.09382 10.8866 5.09927 10.9845 5.10453L10.9886 5.10474C11.0906 5.11025 11.1869 5.11546 11.2797 5.11546C11.3003 5.11546 11.3202 5.11517 11.339 5.11463C11.5667 5.10838 11.8203 5.08292 12.0653 5.05826L12.0676 5.05802C12.3575 5.02897 12.6572 4.99893 12.925 4.99893C13.1617 4.99893 13.3489 5.02247 13.4972 5.07079C13.5639 5.08949 13.6249 5.12444 13.6748 5.17253C13.7097 5.20884 13.7311 5.25598 13.7356 5.30615C13.7372 5.32223 13.7359 5.43612 13.735 5.52564L13.7348 5.53894V5.54379C13.7344 5.58188 13.734 5.61207 13.734 5.62429L12.9896 7.31297C12.9896 7.31297 12.7027 7.86818 12.6121 7.98298L12.6114 7.98389L12.6091 7.98687C12.463 8.17204 12.2977 8.3815 12.1252 8.56798C11.9262 8.78294 11.7473 8.93538 11.5782 9.03395C11.0716 9.32918 10.5664 9.49072 10.1171 9.50111C10.1008 9.50148 10.0851 9.5017 10.0687 9.5017C9.23574 9.5017 8.44779 9.00781 7.92629 8.68093C7.88604 8.70618 7.84549 8.73157 7.79693 8.76229C7.26579 9.09874 6.53829 9.55946 5.77861 9.55946C5.76605 9.55946 5.75265 9.5593 5.7352 9.55892C5.49786 9.55092 5.26285 9.50939 5.03714 9.43555C4.79483 9.35702 4.56104 9.2543 4.33931 9.12893C4.12897 9.00753 3.93431 8.86083 3.75964 8.69211C3.57342 8.51448 3.40072 8.3232 3.243 8.11985C3.09089 7.92523 2.94932 7.7226 2.8189 7.51283C2.7092 7.33763 2.60843 7.15699 2.51698 6.97161C2.46281 6.86046 2.35601 6.44708 2.27391 6.0973C2.17943 5.69454 2.11175 5.35438 2.11645 5.30597C2.12094 5.25581 2.14241 5.20867 2.17732 5.17236Z" fill="#EFF1F8" />
</svg>
    