<svg width="24" height="24" viewBox="0 0 24 24" fill="none" xmlns="http://www.w3.org/2000/svg">
    <path d="M12.112 22.2544C12.092 22.2554 12.0722 22.2554 12.0522 22.2544H11.9567C11.9367 22.2555 11.9169 22.2555 11.8969 22.2544C11.5678 22.2518 11.2401 22.212 10.9202 22.1348C10.5732 22.0496 10.2344 21.9325 9.90894 21.785C9.55264 21.6237 9.20914 21.4353 8.88125 21.222C8.5263 20.9908 8.18676 20.7367 7.86529 20.4609C7.43507 20.1298 7.02486 19.7734 6.63664 19.394C6.23008 18.9937 5.84682 18.5703 5.48884 18.126C5.12097 17.6652 4.78087 17.1836 4.46936 16.683C4.15428 16.1712 3.87218 15.6395 3.62507 15.0916C3.51828 14.8516 3.42304 14.6051 3.34325 14.3651C3.26525 14.1347 3.19247 13.8852 3.12588 13.614C3.00363 13.098 2.91445 12.5746 2.85929 12.0472C2.75829 10.9303 2.71663 9.80902 2.73449 8.68765V8.49196C2.73449 8.02098 2.73463 7.65216 2.75383 7.28557C2.77745 6.87606 2.82586 6.46825 2.89854 6.06454C2.92167 5.92705 2.96152 5.79298 3.01807 5.66554C3.05969 5.55437 3.11677 5.44924 3.1874 5.35383C3.26206 5.25519 3.34643 5.16483 3.43934 5.08314C3.65796 4.9019 3.90028 4.75109 4.15942 4.63492C4.81436 4.35158 5.4888 4.11478 6.17729 3.92715H6.1849L6.23646 3.9125C6.78004 3.74931 7.34293 3.57928 7.9063 3.37229C7.93682 3.35488 7.96883 3.3399 8.00181 3.32776C8.82736 2.95998 9.3915 2.66814 9.84507 2.43835L9.85328 2.43425L9.90308 2.40847L9.92651 2.39558H9.93179C10.2351 2.22863 10.5486 2.08004 10.8698 1.95088C11.1931 1.80741 11.5447 1.73946 11.8981 1.75226H12.1149C12.4691 1.73977 12.8219 1.80769 13.1461 1.95088C13.4679 2.08117 13.7813 2.23069 14.0853 2.39851L14.1099 2.4114L14.1597 2.43718L14.1679 2.44128C14.6215 2.67407 15.188 2.96291 16.0112 3.33069L16.0493 3.34827L16.0709 3.35882L16.1067 3.37522C16.67 3.58281 17.2329 3.75224 17.7765 3.91543L17.8275 3.93008L17.8398 3.93418C18.5268 4.12176 19.1999 4.35759 19.8536 4.6402C20.1129 4.756 20.3552 4.90684 20.5736 5.08842C20.6669 5.16971 20.7513 5.2607 20.8256 5.35969C20.8969 5.45504 20.9547 5.55957 20.9973 5.67081C21.0526 5.79869 21.0924 5.93261 21.1168 6.06981C21.1883 6.48267 21.2358 6.89941 21.2586 7.3178C21.2802 7.70898 21.2802 8.10337 21.2802 8.55875V8.69292C21.2982 9.81434 21.2558 10.9357 21.1531 12.0525C21.0991 12.58 21.0099 13.1035 20.8865 13.6192C20.8235 13.8736 20.7507 14.1268 20.6715 14.3704C20.5839 14.626 20.4875 14.8701 20.3873 15.0969C20.1404 15.6449 19.8589 16.1766 19.5436 16.6882C19.2321 17.1889 18.8914 17.6711 18.5235 18.1319C18.1656 18.5761 17.7823 18.999 17.3758 19.3992C16.9884 19.7787 16.5789 20.1351 16.1494 20.4662C15.8261 20.7415 15.4853 20.9955 15.1294 21.2273C14.8021 21.4401 14.4594 21.6285 14.104 21.7903C13.7783 21.9387 13.4389 22.0558 13.091 22.1401C12.7701 22.2157 12.4417 22.2539 12.112 22.2544ZM11.9918 13.9679C11.2464 13.9352 10.5007 14.0202 9.7818 14.2198C9.64831 14.2633 9.52028 14.3217 9.39978 14.3938C9.29282 14.457 9.19534 14.5353 9.11093 14.6264C9.03128 14.7132 8.97017 14.8153 8.93106 14.9264C8.88711 15.0454 8.86546 15.1716 8.86778 15.2985C8.86763 15.4436 8.88914 15.5878 8.93106 15.7268C8.97455 15.8798 9.0348 16.0277 9.11093 16.1674C9.28509 16.4821 9.51207 16.7643 9.7818 17.0023C9.92578 17.1318 10.0808 17.2488 10.2447 17.3521C10.4123 17.4616 10.5902 17.5542 10.7761 17.6286C11.1606 17.7924 11.5738 17.8773 11.9918 17.8782C12.4099 17.8776 12.8237 17.7927 13.2082 17.6286C13.3945 17.5538 13.5729 17.4612 13.7414 17.3521C13.9047 17.248 14.0597 17.1311 14.2042 17.0023C14.4727 16.7639 14.6987 16.4817 14.8722 16.1674C14.9496 16.0279 15.011 15.8799 15.0556 15.7268C15.0963 15.5875 15.1179 15.4435 15.1194 15.2985C15.1202 15.1717 15.0984 15.0457 15.0556 14.9264C15.0143 14.8155 14.9521 14.7136 14.8722 14.6264C14.7889 14.5348 14.6919 14.4565 14.5851 14.3938C14.4645 14.3222 14.3368 14.2638 14.2036 14.2198C13.4835 14.0202 12.7361 13.9354 11.9895 13.9684L11.9918 13.9679ZM16.436 8.31677C16.2243 8.31816 16.0134 8.33706 15.8049 8.37361C15.5804 8.41042 15.3598 8.46699 15.1452 8.54235C14.8115 8.65515 14.4938 8.81153 14.2007 9.00697C13.9419 9.17601 13.7098 9.38279 13.5129 9.621C13.4261 9.7266 13.3498 9.84057 13.2849 9.96083C13.2243 10.0709 13.1772 10.1877 13.1437 10.3089C13.0778 10.5324 13.0819 10.7705 13.156 10.9914C13.2077 11.1389 13.2896 11.274 13.3963 11.3881C13.5121 11.5064 13.6467 11.6044 13.7947 11.6787C14.1522 11.8455 14.5428 11.9278 14.9372 11.9189C15.1492 11.9179 15.361 11.8981 15.5694 11.8592C15.794 11.8227 16.0146 11.7661 16.2291 11.6904C16.5622 11.5781 16.8792 11.4223 17.1719 11.2276C17.4303 11.0576 17.6622 10.8511 17.8609 10.6141C17.9471 10.5079 18.0233 10.3938 18.0888 10.2737C18.1501 10.1633 18.1979 10.0459 18.2306 9.92392C18.2954 9.70109 18.2907 9.46395 18.2177 9.24368C18.1661 9.09627 18.0847 8.96114 17.9781 8.84702C17.8618 8.7289 17.727 8.6304 17.5791 8.55582C17.2209 8.38843 16.8288 8.30664 16.4336 8.31619L16.436 8.31677ZM7.59694 8.31677C7.20244 8.3063 6.81081 8.38873 6.45384 8.55699C6.30559 8.63114 6.17073 8.72911 6.05483 8.8476C5.94751 8.9612 5.86545 9.09649 5.81461 9.24427C5.74051 9.46436 5.7364 9.70182 5.80231 9.9245C5.83501 10.0461 5.88139 10.1635 5.94117 10.2743C6.00749 10.3944 6.08506 10.5085 6.17201 10.6147C6.37006 10.8517 6.60141 11.0582 6.85928 11.2282C7.15246 11.4215 7.46916 11.5772 7.80142 11.691C8.01633 11.7655 8.23685 11.8221 8.46116 11.8598C8.66958 11.8978 8.8809 11.9165 9.09277 11.916C9.48618 11.9251 9.87659 11.8427 10.2329 11.6758C10.3831 11.6023 10.519 11.5032 10.6343 11.3822C10.7412 11.2686 10.8232 11.1335 10.8745 10.9862C10.9469 10.7658 10.951 10.5283 10.8868 10.3053C10.8521 10.1839 10.805 10.0665 10.7456 9.95497C10.6801 9.83527 10.6025 9.72262 10.5148 9.61807C10.3172 9.37904 10.0858 9.17027 9.8275 8.99877C9.53389 8.80677 9.21727 8.65242 8.88536 8.53883C8.67088 8.4629 8.45023 8.40633 8.22562 8.37009C8.0177 8.33465 7.80728 8.31669 7.59636 8.31619L7.59694 8.31677ZM11.9918 16.7533C11.5622 16.7557 11.1408 16.639 10.7737 16.4158C10.6322 16.3322 10.5063 16.2244 10.4017 16.0976C10.3214 16.0035 10.2736 15.886 10.2663 15.7625C10.2673 15.7125 10.2804 15.6631 10.3038 15.6189C10.3273 15.5747 10.3608 15.537 10.4017 15.5082C10.5139 15.432 10.6406 15.3789 10.7737 15.3529C11.1752 15.2764 11.5834 15.245 11.9918 15.2586C12.4011 15.2453 12.8106 15.2766 13.2129 15.3529C13.3452 15.3792 13.471 15.4323 13.5826 15.5082C13.6239 15.5368 13.6577 15.5747 13.6816 15.6189C13.7055 15.6631 13.719 15.7123 13.7203 15.7625C13.7129 15.8864 13.6643 16.0042 13.5826 16.0976C13.4784 16.2239 13.3533 16.3317 13.2129 16.4158C12.8442 16.6394 12.4207 16.7559 11.9895 16.7527L11.9918 16.7533ZM14.902 10.6985C14.6621 10.6985 14.5057 10.6388 14.4691 10.5368C14.4615 10.5047 14.4613 10.4711 14.4685 10.4389C14.4756 10.4067 14.4896 10.3764 14.5101 10.3505C14.5707 10.2668 14.6444 10.1937 14.728 10.1331C14.9794 9.95433 15.2567 9.81466 15.5501 9.71944C15.8467 9.6099 16.1591 9.54924 16.4752 9.53956C16.7182 9.53956 16.8722 9.59929 16.9082 9.70069C16.9157 9.73306 16.9158 9.76676 16.9082 9.79912C16.9006 9.83148 16.8854 9.86196 16.8643 9.88759C16.806 9.97294 16.7337 10.0476 16.6498 10.1079C16.3976 10.2857 16.1204 10.4247 15.8272 10.521C15.5294 10.6295 15.216 10.6893 14.8991 10.6979L14.902 10.6985ZM9.12909 10.6985C8.81407 10.6864 8.50276 10.6258 8.20629 10.5186C7.91312 10.4224 7.63585 10.2828 7.38367 10.105C7.29985 10.0438 7.22632 9.9699 7.1663 9.88525C7.14538 9.8595 7.13071 9.82916 7.12353 9.79678C7.11634 9.76439 7.11722 9.73052 7.12529 9.69834C7.16188 9.59275 7.31169 9.53722 7.55827 9.53722C7.87422 9.54809 8.18645 9.60872 8.48342 9.71709C8.7764 9.81264 9.05297 9.9531 9.30311 10.1331C9.38946 10.1905 9.46367 10.2641 9.52107 10.3505C9.54223 10.376 9.55664 10.406 9.56384 10.4383C9.57104 10.4707 9.57043 10.5047 9.56208 10.5368C9.52488 10.6406 9.37095 10.6979 9.12616 10.6979L9.12909 10.6985Z" fill="white" />
</svg>
    