<svg width="16" height="16" viewBox="0 0 16 16" fill="none" xmlns="http://www.w3.org/2000/svg">
<path d="M9.70715 2.42133V2.41781C9.62075 2.41341 7.61644 2.41117 5.95772 2.41117C4.15781 2.41117 3.34909 3.20611 3.33549 4.98682C3.33317 5.00218 3.33195 5.01777 3.33188 5.03331C3.33188 5.0417 3.33188 5.05029 3.33188 5.05908V8.15541H2.70232C2.42726 8.13025 2.15051 8.17972 1.90109 8.29838C1.65167 8.41703 1.43882 8.60071 1.28481 8.82999C1.16374 9.07836 1.11163 9.35454 1.13394 9.62995C1.15625 9.90536 1.2521 10.1699 1.41156 10.3955L2.35273 12.029C2.46831 12.2798 2.64921 12.4948 2.87643 12.6517C3.10365 12.8085 3.36883 12.9012 3.64426 12.9204C3.91987 12.9008 4.18525 12.8077 4.41278 12.6509C4.64031 12.4941 4.82174 12.2796 4.93824 12.029L5.88019 10.3955C6.05692 10.1098 6.15524 9.78256 6.16533 9.44676C6.16799 9.23026 6.11186 9.0171 6.00293 8.82999C5.84899 8.60065 5.63619 8.41704 5.38675 8.29838C5.13732 8.17971 4.86049 8.13016 4.58543 8.15541H4.25908V5.13447C4.25908 5.12327 4.25908 5.11207 4.25908 5.10127C4.25898 5.07987 4.25654 5.05848 4.25185 5.0376C4.26665 3.76127 4.74224 3.30566 6.04698 3.30566C7.37971 3.30566 9.19562 3.30326 9.6176 3.30566C9.63537 3.30791 9.65329 3.30929 9.67121 3.30917C9.78907 3.30917 9.90211 3.26205 9.98545 3.17871C10.0688 3.09537 10.1155 2.98252 10.1155 2.86466C10.1155 2.75302 10.0735 2.64561 9.99785 2.56351C9.9222 2.48141 9.81841 2.43046 9.70715 2.42133ZM2.11836 9.38504C2.21061 9.27018 2.33066 9.18105 2.46717 9.12568C2.60369 9.0703 2.75211 9.05051 2.8983 9.06865H4.42821C4.57435 9.05047 4.72279 9.06991 4.85924 9.12529C4.9957 9.18067 5.11562 9.27016 5.20776 9.38504C5.2655 9.51563 5.28652 9.65941 5.2684 9.80104C5.25028 9.94266 5.19379 10.0767 5.10503 10.1885L4.33944 11.4537C4.27839 11.5863 4.18399 11.7009 4.06543 11.7861C3.94688 11.8713 3.80826 11.924 3.66311 11.9396C3.51789 11.9241 3.37912 11.8713 3.26049 11.7861C3.14186 11.7009 3.04737 11.5863 2.98629 11.4537L2.22158 10.1885C2.11567 10.0313 2.05519 9.84823 2.04678 9.65885C2.04563 9.56288 2.07034 9.46814 2.11836 9.38504Z" fill="#56566F"/>
<path d="M14.8872 10.5883V8.1013C14.8872 7.17615 14.679 6.51611 14.2474 6.08773C13.8158 5.65935 13.1591 5.44792 12.2311 5.44792H9.40859C8.48383 5.44792 7.82262 5.65655 7.39384 6.08773C6.96506 6.51891 6.75403 7.17655 6.75403 8.1013V10.9219C6.75212 11.1887 6.77231 11.4554 6.81575 11.7187C6.87423 12.1782 7.07605 12.6078 7.39228 12.9464C7.82266 13.3763 8.48227 13.5862 9.40702 13.5862H12.2295C13.1547 13.5862 13.8147 13.3779 14.2458 12.9464C14.5614 12.6075 14.7632 12.178 14.8216 11.7187C14.8661 11.4555 14.8865 11.1888 14.8841 10.9219L14.8872 10.5883ZM13.9435 10.6895C13.9394 10.7126 13.9374 10.7359 13.9373 10.7594C13.9373 10.7802 13.9396 10.7227 13.9404 10.7867C13.9535 11.138 13.9016 11.4886 13.7873 11.821C13.7294 11.9718 13.641 12.1089 13.5279 12.2241C13.2451 12.5089 12.7859 12.6405 12.0819 12.6405H9.56248C8.86092 12.6405 8.39921 12.5089 8.11803 12.2241C7.94176 12.0387 7.82279 11.8062 7.77585 11.5546V11.5515L7.7696 11.5226L7.76101 11.4828C7.76137 11.4815 7.76137 11.4802 7.76101 11.4789C7.72416 11.2728 7.70568 11.0636 7.70555 10.8543C7.70572 10.8539 7.70555 10.8535 7.70555 10.8531C7.70555 10.8527 7.70572 10.8523 7.70555 10.8519V10.7879C7.70555 10.7239 7.70867 10.7813 7.70867 10.7609C7.70881 10.742 7.70782 10.7227 7.70555 10.7039V8.33254C7.70781 8.31383 7.7088 8.29475 7.70867 8.2759C7.70867 8.2547 7.70875 8.31213 7.70555 8.24973C7.70555 7.55057 7.83678 7.09236 8.12037 6.80957C8.40395 6.52678 8.86317 6.39553 9.56873 6.39553H12.0835C12.7858 6.39553 13.2459 6.52638 13.531 6.80957C13.7238 7.01892 13.8485 7.2821 13.8888 7.56383C13.9283 7.79003 13.9465 8.01936 13.9435 8.24895C13.9403 8.31335 13.9404 8.25628 13.9404 8.27707C13.9406 8.30068 13.9426 8.32414 13.9466 8.34738L13.9435 10.6895Z" fill="#56566F"/>
</svg>
