<svg width="16" height="16" viewBox="0 0 16 16" fill="none" xmlns="http://www.w3.org/2000/svg">
<g clip-path="url(#clip0_31863_31270)">
<path d="M6.29264 2.42129V2.41777C6.37904 2.41337 8.3834 2.41113 10.0422 2.41113C11.8421 2.41113 12.6509 3.20609 12.6645 4.98685C12.6668 5.00221 12.668 5.0178 12.6681 5.03333C12.6681 5.04173 12.6681 5.05031 12.6681 5.05911V8.15552H13.2976C13.5727 8.13035 13.8495 8.17983 14.0989 8.29849C14.3483 8.41714 14.5612 8.60082 14.7152 8.83011C14.8363 9.07849 14.8884 9.35468 14.8661 9.63009C14.8438 9.90551 14.7479 10.17 14.5884 10.3957L13.6472 12.0293C13.5317 12.28 13.3508 12.495 13.1235 12.6519C12.8963 12.8087 12.6311 12.9015 12.3557 12.9206C12.0801 12.901 11.8147 12.8083 11.5871 12.6515C11.3596 12.4947 11.1782 12.2798 11.0617 12.0293L10.1197 10.3957C9.94296 10.11 9.84464 9.78271 9.83455 9.44689C9.83189 9.2304 9.88801 9.01723 9.99694 8.83011C10.1509 8.60076 10.3637 8.41715 10.6131 8.29849C10.8626 8.17982 11.1394 8.13027 11.4145 8.15552H11.7408V5.1345C11.7408 5.1233 11.7408 5.1121 11.7408 5.1013C11.7409 5.0799 11.7434 5.05851 11.7481 5.03763C11.7333 3.76126 11.2577 3.30564 9.9529 3.30564C8.62013 3.30564 6.80417 3.30324 6.38258 3.30564C6.3648 3.30789 6.34689 3.30928 6.32897 3.30916C6.27061 3.30916 6.21287 3.29751 6.15895 3.27517C6.10504 3.25284 6.05608 3.21996 6.01482 3.17869C5.97355 3.13743 5.94076 3.08847 5.91843 3.03455C5.8961 2.98064 5.88464 2.923 5.88464 2.86464C5.88466 2.75305 5.92655 2.64557 6.00212 2.56347C6.07769 2.48138 6.18144 2.43052 6.29264 2.42129ZM13.8812 9.38518C13.789 9.27032 13.6689 9.18119 13.5324 9.12581C13.3959 9.07043 13.2475 9.05064 13.1013 9.06878H11.5713C11.4252 9.0506 11.2767 9.07004 11.1403 9.12542C11.0038 9.1808 10.8838 9.27029 10.7917 9.38518C10.7339 9.51577 10.713 9.65955 10.7311 9.80118C10.7492 9.94282 10.8057 10.0768 10.8945 10.1887L11.6601 11.4539C11.7211 11.5865 11.8155 11.7011 11.9341 11.7863C12.0527 11.8715 12.1913 11.9242 12.3364 11.9398C12.4817 11.9243 12.6204 11.8715 12.7391 11.7863C12.8577 11.7011 12.9522 11.5865 13.0133 11.4539L13.778 10.1887C13.8839 10.0315 13.9444 9.84838 13.9528 9.659C13.9541 9.56306 13.9295 9.46832 13.8816 9.38518H13.8812Z" fill="#56566F"/>
<path d="M1.11258 10.5885V8.10145C1.11258 7.17667 1.32082 6.51622 1.75241 6.08783C2.184 5.65944 2.84079 5.448 3.76876 5.448H6.59135C7.51613 5.448 8.17735 5.65664 8.60614 6.08783C9.03493 6.51902 9.24597 7.17667 9.24597 8.10145V10.9221C9.24788 11.189 9.22769 11.4556 9.18425 11.7189C9.12576 12.1785 8.92394 12.6081 8.6077 12.9466C8.17732 13.3766 7.51769 13.5865 6.59291 13.5865H3.77033C2.84515 13.5865 2.18516 13.3782 1.75397 12.9466C1.43839 12.6078 1.23662 12.1783 1.1782 11.7189C1.1337 11.4557 1.11325 11.189 1.1157 10.9221L1.11258 10.5885ZM2.05631 10.6897C2.06046 10.7128 2.06246 10.7365 2.06256 10.76C2.06256 10.7808 2.06023 10.7229 2.05943 10.7869C2.04631 11.1382 2.09817 11.4889 2.21255 11.8213C2.27045 11.972 2.35884 12.1095 2.47192 12.2248C2.75471 12.5096 3.214 12.6412 3.91798 12.6412H6.43745C7.13903 12.6412 7.60075 12.5096 7.88194 12.2248C8.05821 12.0393 8.17718 11.8064 8.22412 11.5549V11.5518L8.23037 11.5228L8.23896 11.483C8.23861 11.4817 8.23861 11.4804 8.23896 11.4791C8.27582 11.273 8.29429 11.0639 8.29443 10.8545C8.29425 10.8541 8.29443 10.8537 8.29443 10.8533C8.29443 10.8529 8.29425 10.8525 8.29443 10.8522V10.7881C8.29443 10.7241 8.29131 10.7815 8.29131 10.7611C8.29116 10.7422 8.29216 10.723 8.29443 10.7041V8.33269C8.29217 8.31398 8.29118 8.29529 8.29131 8.27644C8.29131 8.25524 8.29123 8.31228 8.29443 8.24988C8.29443 7.5507 8.16319 7.09287 7.8796 6.81007C7.596 6.52728 7.13678 6.39563 6.4312 6.39563H3.91642C3.21403 6.39563 2.75399 6.52688 2.4688 6.81007C2.27598 7.01943 2.15135 7.28222 2.11099 7.56396C2.07153 7.79016 2.0533 8.0195 2.05631 8.2491C2.05951 8.3135 2.05943 8.25642 2.05943 8.27722C2.05926 8.30083 2.05727 8.32429 2.05318 8.34754L2.05631 10.6897Z" fill="#56566F"/>
</g>
<defs>
<clipPath id="clip0_31863_31270">
<rect width="16" height="16" fill="white"/>
</clipPath>
</defs>
</svg>
