<svg width="30" height="31" viewBox="0 0 30 31" fill="none" xmlns="http://www.w3.org/2000/svg">
    <g clip-path="url(#clip0_934_50519)">
        <path fill-rule="evenodd" clip-rule="evenodd" d="M2.11328 15.5164C2.11338 15.0748 2.13562 14.6336 2.18013 14.1942C2.22376 13.7646 2.28996 13.3321 2.37571 12.9101C2.54591 12.0779 2.79788 11.2642 3.12793 10.4816C3.4537 9.71271 3.85313 8.97719 4.32035 8.28513C4.78492 7.59851 5.31375 6.95778 5.8999 6.37153C6.48609 5.7853 7.12683 5.25665 7.81351 4.79216C8.50538 4.32462 9.24111 3.92535 10.0101 3.59992C10.7924 3.26967 11.6056 3.0177 12.4376 2.8477C12.862 2.7611 13.2904 2.696 13.7214 2.6523C14.1608 2.60726 14.6022 2.58404 15.0439 2.58398C15.4855 2.58405 15.927 2.60726 16.3663 2.6523C16.7973 2.696 17.2259 2.7611 17.6504 2.8477C18.4824 3.01774 19.2955 3.26971 20.0778 3.59992C20.8468 3.92535 21.5824 4.32461 22.2743 4.79216C22.961 5.2566 23.6017 5.78526 24.1879 6.37153C24.7741 6.95773 25.3031 7.59847 25.7676 8.28513C26.2348 8.97718 26.6341 9.7127 26.9598 10.4816C27.2901 11.2641 27.542 12.0779 27.7121 12.9101C27.7989 13.3346 27.8644 13.7631 27.9084 14.1942C27.9529 14.6336 27.9751 15.0748 27.9752 15.5164C27.9751 15.9581 27.9529 16.3993 27.9084 16.8387C27.8644 17.2697 27.7989 17.6983 27.7121 18.1227C27.5421 18.9547 27.2902 19.7683 26.9598 20.5506C26.6344 21.3198 26.2351 22.0556 25.7676 22.7477C25.3033 23.4345 24.7742 24.0753 24.1879 24.6613C23.6017 25.2476 22.961 25.7762 22.2743 26.2407C21.5824 26.7082 20.8468 27.1075 20.0778 27.4329C19.2954 27.7628 18.4823 28.0148 17.6504 28.1851C17.2259 28.2717 16.7973 28.3376 16.3663 28.3813C15.927 28.4263 15.4855 28.4488 15.0439 28.4489C14.6022 28.4488 14.1608 28.4263 13.7214 28.3813C13.2904 28.3376 12.862 28.2717 12.4376 28.1851C11.6057 28.0148 10.7926 27.7628 10.0101 27.4329C9.24111 27.1075 8.50538 26.7082 7.81351 26.2407C7.12683 25.7762 6.48609 25.2475 5.8999 24.6613C5.3136 24.0752 4.78475 23.4345 4.32035 22.7477C3.85282 22.0556 3.45337 21.3198 3.12793 20.5506C2.79778 19.7682 2.54581 18.9547 2.37571 18.1227C2.28921 17.7 2.22526 17.2682 2.18013 16.8387C2.13562 16.3993 2.11338 15.9581 2.11328 15.5164ZM22.4858 13.6292C22.8237 13.3834 23.1528 13.1441 23.1528 12.7393C23.1528 12.2345 22.6413 11.6109 22.2388 11.9871C22.2388 11.9871 20.6009 12.9147 19.4578 12.901C18.3548 12.8878 16.7852 11.9871 16.7852 11.9871C16.2474 11.6109 15.8713 12.2345 15.8713 12.7393C15.8713 13.244 16.2474 13.4915 16.7852 13.8149C16.7852 13.8149 18.3548 14.6066 19.4578 14.6198C20.6009 14.6335 22.2388 13.8149 22.2388 13.8149C22.3185 13.7509 22.4024 13.6899 22.4858 13.6292ZM13.2122 13.8149C13.2919 13.7509 13.3758 13.6899 13.4592 13.6292C13.7971 13.3834 14.1262 13.1441 14.1262 12.7393C14.1262 12.2345 13.6146 11.6109 13.2122 11.9871C13.2122 11.9871 11.5743 12.9147 10.4312 12.901C9.32821 12.8878 7.75861 11.9871 7.75861 11.9871C7.22079 11.6109 6.84467 12.2345 6.84467 12.7393C6.84467 13.244 7.22078 13.4915 7.75861 13.8149C7.75861 13.8149 9.32821 14.6066 10.4312 14.6198C11.5743 14.6335 13.2122 13.8149 13.2122 13.8149ZM19.2766 21.1897C19.7814 21.1897 20.1906 20.7805 20.1906 20.2758C20.1906 19.771 19.7814 19.3618 19.2766 19.3618H10.8142C10.3094 19.3618 9.90023 19.771 9.90023 20.2758C9.90023 20.7805 10.3094 21.1897 10.8142 21.1897H19.2766Z" fill="#CED2DF" />
    </g>
    <defs>
        <clipPath id="clip0_934_50519">
            <rect width="30" height="30" fill="white" transform="translate(0 0.5)" />
        </clipPath>
    </defs>
</svg>
    