<svg width="16" height="16" viewBox="0 0 16 16" fill="none" xmlns="http://www.w3.org/2000/svg">
<g opacity="0.8" clip-path="url(#clip0_30602_10765)">
<path d="M9.79524 11.8621H4.34284C4.04045 11.8644 3.73873 11.8331 3.44324 11.7689C3.27377 11.7418 3.10782 11.6961 2.94844 11.6325C2.12244 11.3221 1.14844 10.5593 1.14844 8.66126V5.46686C1.14844 3.43846 2.31444 2.27246 4.34284 2.27246H9.79524C11.5072 2.27246 12.6112 3.09126 12.9088 4.58006C12.9654 4.8722 12.9922 5.16932 12.9888 5.46686V8.66126C12.9884 10.7021 11.8284 11.8621 9.79524 11.8621ZM4.34844 3.21526C2.82244 3.21526 2.08444 3.95326 2.08444 5.47926V8.67246C2.08444 9.78286 2.47524 10.4649 3.27524 10.7689C3.39023 10.81 3.50853 10.8411 3.62884 10.8621C3.86552 10.9123 4.10688 10.9373 4.34884 10.9365H9.80124C11.3272 10.9365 12.0652 10.1985 12.0652 8.67246V5.47926C12.0684 5.24416 12.0476 5.00935 12.0032 4.77846C11.7924 3.72406 11.0728 3.21526 9.80324 3.21526H4.34844Z" fill="#F2F2F8"/>
<path d="M11.6547 13.7228H6.20227C5.72461 13.7329 5.24915 13.6554 4.79947 13.494C4.35329 13.3304 3.95913 13.0502 3.65803 12.6826C3.35693 12.3149 3.15991 11.8733 3.08747 11.4036C3.07197 11.328 3.0758 11.2498 3.09859 11.1761C3.12139 11.1024 3.16241 11.0356 3.21787 10.982C3.27307 10.9273 3.34145 10.8876 3.41641 10.867C3.49138 10.8463 3.5704 10.8453 3.64587 10.864C3.87444 10.9111 4.10731 10.934 4.34067 10.9324H9.79387C11.3199 10.9324 12.0579 10.1944 12.0579 8.66842V5.47282C12.0609 5.23839 12.0401 5.00426 11.9959 4.77402C11.9808 4.69868 11.9842 4.62081 12.0057 4.54706C12.0272 4.4733 12.0663 4.40584 12.1195 4.35042C12.173 4.29498 12.24 4.2544 12.3139 4.23266C12.3878 4.21092 12.4661 4.20877 12.5411 4.22642C14.0299 4.53042 14.8487 5.63442 14.8487 7.33402V10.5284C14.8491 12.5628 13.6891 13.7228 11.6547 13.7228ZM4.22987 11.8616C4.42525 12.2207 4.74851 12.4931 5.13547 12.6248C5.4804 12.744 5.84382 12.8008 6.20867 12.7924H11.6607C13.1867 12.7924 13.9247 12.0544 13.9247 10.5284V7.33402C13.9247 6.35402 13.6207 5.70282 12.9943 5.36162V8.66762C12.9943 10.696 11.8283 11.862 9.79987 11.862H4.22987V11.8616Z" fill="#F2F2F8"/>
<path d="M7.07155 9.17606C6.65566 9.17606 6.2491 9.05273 5.9033 8.82167C5.55749 8.59062 5.28797 8.2622 5.12882 7.87797C4.96966 7.49373 4.92802 7.07093 5.00916 6.66302C5.09029 6.25512 5.29056 5.88044 5.58465 5.58636C5.87873 5.29227 6.25341 5.092 6.66131 5.01086C7.06922 4.92973 7.49202 4.97137 7.87626 5.13053C8.26049 5.28968 8.58891 5.5592 8.81997 5.90501C9.05102 6.25081 9.17435 6.65737 9.17435 7.07326C9.17393 7.63083 8.95225 8.16544 8.55799 8.5597C8.16373 8.95396 7.62912 9.17564 7.07155 9.17606ZM7.07155 5.90086C6.83967 5.90086 6.613 5.96962 6.4202 6.09844C6.2274 6.22727 6.07713 6.41037 5.98839 6.6246C5.89966 6.83883 5.87644 7.07456 5.92168 7.30198C5.96692 7.52941 6.07858 7.73831 6.24254 7.90227C6.4065 8.06624 6.6154 8.1779 6.84283 8.22313C7.07025 8.26837 7.30598 8.24515 7.52021 8.15642C7.73444 8.06768 7.91754 7.91741 8.04637 7.72461C8.17519 7.53181 8.24395 7.30514 8.24395 7.07326C8.24321 6.76255 8.11945 6.46477 7.89975 6.24506C7.68004 6.02536 7.38226 5.9016 7.07155 5.90086Z" fill="#F2F2F8"/>
<path d="M3.52379 8.90313C3.40067 8.90229 3.28284 8.85301 3.19577 8.76595C3.10871 8.67889 3.05943 8.56105 3.05859 8.43793V5.70873C3.05943 5.58561 3.10871 5.46777 3.19577 5.38071C3.28284 5.29365 3.40067 5.24437 3.52379 5.24353C3.64691 5.24437 3.76475 5.29365 3.85181 5.38071C3.93887 5.46777 3.98816 5.58561 3.98899 5.70873V8.43793C3.9891 8.49905 3.97714 8.55959 3.9538 8.61608C3.93046 8.67257 3.89619 8.72389 3.85298 8.76711C3.80976 8.81033 3.75843 8.84459 3.70194 8.86793C3.64545 8.89127 3.58491 8.90324 3.52379 8.90313Z" fill="#F2F2F8"/>
<path d="M10.6136 8.90313C10.4905 8.90229 10.3727 8.85301 10.2856 8.76595C10.1986 8.67889 10.1493 8.56105 10.1484 8.43793V5.70873C10.1493 5.58561 10.1986 5.46777 10.2856 5.38071C10.3727 5.29365 10.4905 5.24437 10.6136 5.24353C10.7368 5.24437 10.8546 5.29365 10.9417 5.38071C11.0287 5.46777 11.078 5.58561 11.0788 5.70873V8.43793C11.0789 8.49905 11.067 8.55959 11.0436 8.61608C11.0203 8.67257 10.986 8.72389 10.9428 8.76711C10.8996 8.81033 10.8483 8.84459 10.7918 8.86793C10.7353 8.89127 10.6748 8.90324 10.6136 8.90313Z" fill="#F2F2F8"/>
</g>
<defs>
<clipPath id="clip0_30602_10765">
<rect width="16" height="16" fill="white"/>
</clipPath>
</defs>
</svg>
