<svg width="24" height="24" viewBox="0 0 24 24" fill="none" xmlns="http://www.w3.org/2000/svg">
    <g clip-path="url(#clip0_30160_4224)">
        <path d="M11.5287 21.1855C9.61867 21.1856 7.75151 20.6193 6.16333 19.5582C4.57515 18.4972 3.3373 16.989 2.60631 15.2243C1.87532 13.4597 1.68403 11.518 2.05663 9.64465C2.42922 7.77132 3.34898 6.05056 4.69957 4.69996C6.05016 3.34937 7.77093 2.42962 9.64426 2.05702C11.5176 1.68442 13.4593 1.87572 15.2239 2.60671C16.9886 3.33769 18.4968 4.57555 19.5578 6.16373C20.6189 7.7519 21.1852 9.61907 21.1851 11.5291C21.1814 14.089 20.1629 16.543 18.3528 18.3532C16.5426 20.1633 14.0886 21.1818 11.5287 21.1855V21.1855ZM11.5287 3.28509C9.89833 3.28509 8.30458 3.76855 6.94897 4.67432C5.59337 5.58009 4.53679 6.86749 3.91285 8.37374C3.28891 9.87999 3.12562 11.5374 3.44365 13.1365C3.76167 14.7355 4.54672 16.2044 5.69952 17.3572C6.85232 18.5101 8.3211 19.2953 9.92012 19.6134C11.5191 19.9316 13.1766 19.7684 14.6829 19.1446C16.1892 18.5207 17.4767 17.4643 18.3825 16.1087C19.2884 14.7532 19.772 13.1595 19.7721 11.5291C19.7699 9.34344 18.9007 7.24793 17.3552 5.70237C15.8098 4.15682 13.7144 3.28748 11.5287 3.28509V3.28509Z" fill="#F2F2F8" />
        <path d="M21.4214 22.1282C21.3286 22.1285 21.2366 22.1104 21.1509 22.0748C21.0652 22.0393 20.9875 21.9871 20.9222 21.9212L19.0382 20.0366C18.9112 19.9031 18.8415 19.7252 18.8438 19.541C18.8461 19.3568 18.9203 19.1808 19.0506 19.0506C19.1808 18.9203 19.3568 18.8461 19.541 18.8438C19.7252 18.8415 19.9031 18.9112 20.0366 19.0382L21.9206 20.9222C22.0517 21.0552 22.1253 21.2345 22.1253 21.4214C22.1253 21.6082 22.0517 21.7875 21.9206 21.9206C21.8553 21.9866 21.7775 22.0389 21.6918 22.0746C21.6061 22.1102 21.5142 22.1284 21.4214 22.1282V22.1282Z" fill="#F2F2F8" />
    </g>
    <defs>
        <clipPath id="clip0_30160_4224">
            <rect width="24" height="24" fill="white" />
        </clipPath>
    </defs>
</svg>