<svg width="24" height="24" viewBox="0 0 24 24" fill="none" xmlns="http://www.w3.org/2000/svg">
<g clip-path="url(#clip0_30298_4162)">
<path d="M11.9992 15.5854C11.2901 15.5854 10.5969 15.3751 10.0074 14.9812C9.41782 14.5873 8.95831 14.0274 8.68696 13.3723C8.41562 12.7172 8.34462 11.9963 8.48295 11.3009C8.62128 10.6055 8.96273 9.96666 9.46411 9.46527C9.9655 8.96389 10.6043 8.62244 11.2997 8.48411C11.9952 8.34578 12.716 8.41678 13.3711 8.68812C14.0262 8.95947 14.5861 9.41898 14.98 10.0085C15.374 10.5981 15.5842 11.2912 15.5842 12.0003C15.5839 12.951 15.2061 13.8627 14.5338 14.535C13.8616 15.2073 12.9499 15.5851 11.9992 15.5854ZM11.9992 9.84926C11.5737 9.84926 11.1578 9.97542 10.8041 10.2118C10.4504 10.4481 10.1746 10.7841 10.0118 11.1771C9.84903 11.5702 9.80643 12.0027 9.88943 12.42C9.97243 12.8372 10.1773 13.2205 10.4781 13.5213C10.779 13.8222 11.1622 14.027 11.5795 14.11C11.9968 14.193 12.4293 14.1504 12.8223 13.9876C13.2154 13.8248 13.5513 13.5491 13.7877 13.1954C14.0241 12.8416 14.1502 12.4258 14.1502 12.0003C14.1494 11.4301 13.9225 10.8834 13.5193 10.4802C13.1161 10.0769 12.5694 9.85005 11.9992 9.84926Z" fill="#F2F2F8"/>
<path d="M15.0688 21.7421C14.8665 21.7402 14.6651 21.7146 14.4688 21.6659C13.8802 21.508 13.376 21.1273 13.0629 20.6045L12.9483 20.4131C12.3843 19.4381 11.6097 19.4381 11.0457 20.4131L10.9407 20.5931C10.789 20.8557 10.5866 21.0856 10.3454 21.2695C10.1042 21.4533 9.82889 21.5875 9.53545 21.6641C9.24278 21.7449 8.93675 21.7653 8.63596 21.724C8.33517 21.6827 8.04592 21.5807 7.78581 21.4241L6.13937 20.4803C5.55675 20.1454 5.13087 19.5929 4.95526 18.9442C4.77965 18.2956 4.86866 17.6037 5.20274 17.0206C5.33245 16.8516 5.41789 16.6529 5.45132 16.4425C5.48474 16.2321 5.46509 16.0167 5.39415 15.8158C5.25618 15.6528 5.07948 15.5272 4.88028 15.4503C4.68109 15.3735 4.46577 15.3479 4.25412 15.376C3.58275 15.3742 2.93942 15.1065 2.46497 14.6315C1.99052 14.1565 1.72361 13.5129 1.72266 12.8415V11.1615C1.72392 10.49 1.99123 9.84638 2.46603 9.37157C2.94084 8.89677 3.58445 8.62946 4.25592 8.62819C4.46757 8.65625 4.68289 8.63068 4.88208 8.55383C5.08128 8.47698 5.25798 8.35132 5.39595 8.18838C5.46954 7.98741 5.49042 7.77094 5.4566 7.5596C5.42278 7.34827 5.33538 7.14912 5.20274 6.98115C4.87019 6.39887 4.78092 5.70885 4.95434 5.06111C5.0372 4.7374 5.18497 4.4339 5.38867 4.16903C5.59238 3.90416 5.84778 3.68344 6.13937 3.52027L7.79361 2.57344C8.32282 2.26778 8.95138 2.18367 9.54234 2.33945C10.1333 2.49522 10.6387 2.87825 10.9485 3.40506L11.0631 3.59647C11.6271 4.57149 12.4017 4.57149 12.9657 3.59647L13.0707 3.41646C13.2233 3.1534 13.4263 2.92306 13.6681 2.73869C13.9099 2.55431 14.1857 2.41953 14.4798 2.34209C14.7738 2.26464 15.0803 2.24606 15.3815 2.28741C15.6828 2.32877 15.9729 2.42923 16.2352 2.58304L17.8799 3.52927C18.4628 3.8642 18.8889 4.41688 19.0645 5.06584C19.2402 5.7148 19.1509 6.40695 18.8165 6.99015C18.6868 7.15916 18.6013 7.35788 18.5679 7.56828C18.5345 7.77868 18.5541 7.9941 18.6251 8.19498C18.7631 8.35792 18.9398 8.48358 19.1389 8.56043C19.3381 8.63728 19.5535 8.66285 19.7651 8.63479C20.4366 8.63606 21.0802 8.90337 21.555 9.37817C22.0298 9.85298 22.2971 10.4966 22.2984 11.1681V12.8481C22.2971 13.5196 22.0298 14.1632 21.555 14.638C21.0802 15.1128 20.4366 15.3801 19.7651 15.3814C19.5535 15.3533 19.3381 15.3789 19.1389 15.4557C18.9398 15.5326 18.7631 15.6582 18.6251 15.8212C18.5517 16.0217 18.5308 16.2376 18.5643 16.4484C18.5978 16.6593 18.6846 16.8581 18.8165 17.026C18.9834 17.3135 19.0913 17.6313 19.134 17.961C19.1766 18.2907 19.1531 18.6256 19.0649 18.9461C18.9817 19.2695 18.8338 19.5727 18.63 19.8372C18.4262 20.1018 18.1708 20.3222 17.8793 20.4851L16.2256 21.4313C15.8728 21.6319 15.4746 21.7389 15.0688 21.7421ZM11.9997 18.202C12.4637 18.2312 12.9115 18.384 13.2965 18.6446C13.6815 18.9052 13.9897 19.2641 14.1892 19.6841L14.2942 19.8641C14.4112 20.0613 14.6009 20.2049 14.8226 20.2639C15.0442 20.3229 15.2802 20.2926 15.4798 20.1797L17.1334 19.2239C17.3872 19.0779 17.5728 18.8374 17.6495 18.5548C17.6876 18.4161 17.6979 18.2713 17.6799 18.1286C17.6619 17.9859 17.6158 17.8481 17.5445 17.7232C17.2815 17.3396 17.1253 16.893 17.0916 16.4291C17.058 15.9652 17.1482 15.5007 17.353 15.0832C17.6108 14.6958 17.9673 14.3843 18.3858 14.1809C18.8043 13.9776 19.2695 13.8897 19.7333 13.9263C19.8779 13.9271 20.0212 13.8992 20.1549 13.8443C20.2886 13.7893 20.4101 13.7084 20.5124 13.6061C20.6146 13.5039 20.6955 13.3824 20.7505 13.2487C20.8054 13.115 20.8333 12.9717 20.8325 12.8271V11.1471C20.8324 10.8556 20.7165 10.5761 20.5104 10.37C20.3043 10.1639 20.0248 10.048 19.7333 10.0478C19.2695 10.0845 18.8043 9.99659 18.3858 9.79321C17.9673 9.58983 17.6108 9.27836 17.353 8.891C17.1482 8.47344 17.058 8.00896 17.0916 7.54508C17.1253 7.0812 17.2815 6.63458 17.5445 6.25094C17.6158 6.12605 17.6619 5.9883 17.6799 5.84559C17.6979 5.70288 17.6876 5.55802 17.6495 5.41931C17.5732 5.14015 17.3917 4.90142 17.143 4.7533L15.4894 3.80707C15.3896 3.74855 15.2792 3.71028 15.1646 3.69447C15.05 3.67865 14.9334 3.6856 14.8215 3.71492C14.7096 3.74424 14.6046 3.79535 14.5124 3.86532C14.4203 3.93529 14.3429 4.02274 14.2846 4.12268L14.1796 4.30269C13.9801 4.72264 13.6719 5.08155 13.2869 5.34216C12.9019 5.60276 12.4541 5.75558 11.9901 5.78472C11.5261 5.75558 11.0784 5.60276 10.6934 5.34216C10.3084 5.08155 10.0001 4.72264 9.80066 4.30269L9.69566 4.11128C9.57683 3.91588 9.38644 3.77457 9.16501 3.71742C8.94357 3.66027 8.70857 3.69179 8.51003 3.80527L6.85638 4.7629C6.60352 4.90929 6.41887 5.14981 6.34277 5.43191C6.30467 5.57062 6.29433 5.71548 6.31235 5.85819C6.33037 6.00091 6.37639 6.13865 6.44777 6.26354C6.7107 6.64718 6.86697 7.0938 6.9006 7.55768C6.93423 8.02156 6.84401 8.48604 6.63918 8.9036C6.38117 9.29142 6.02415 9.60319 5.6051 9.8066C5.18605 10.01 4.72024 10.0976 4.25592 10.0604C4.11145 10.0596 3.96825 10.0875 3.8346 10.1424C3.70096 10.1973 3.57952 10.2781 3.4773 10.3802C3.37509 10.4823 3.29412 10.6036 3.23909 10.7372C3.18406 10.8708 3.15606 11.014 3.15669 11.1585V12.8385C3.15685 13.13 3.27271 13.4095 3.47882 13.6156C3.68493 13.8217 3.96444 13.9376 4.25592 13.9377C4.72041 13.9016 5.18612 13.9904 5.60475 14.1948C6.02339 14.3993 6.37971 14.712 6.63678 15.1006C6.84161 15.5181 6.93183 15.9826 6.8982 16.4465C6.86457 16.9104 6.70829 17.357 6.44537 17.7406C6.30315 17.992 6.26626 18.2895 6.34277 18.568C6.41836 18.8483 6.59996 19.0882 6.84918 19.2371L8.50283 20.1839C8.60062 20.2437 8.70957 20.283 8.82303 20.2994C8.93649 20.3158 9.05211 20.309 9.16284 20.2793C9.39105 20.2185 9.58652 20.071 9.70766 19.8683L9.81266 19.6883C10.0133 19.2695 10.3215 18.9116 10.7057 18.6509C11.09 18.3902 11.5365 18.2361 11.9997 18.2044V18.202Z" fill="#F2F2F8"/>
</g>
<defs>
<clipPath id="clip0_30298_4162">
<rect width="24" height="24" fill="white"/>
</clipPath>
</defs>
</svg>
