<svg width="18" height="18" viewBox="0 0 18 18" fill="none" xmlns="http://www.w3.org/2000/svg">
    <g clip-path="url(#clip0_1012_1747)">
        <path fill-rule="evenodd" clip-rule="evenodd" d="M7.50474 11.2359C7.94692 11.5314 8.46677 11.6891 8.99857 11.6891C9.71161 11.6888 10.3954 11.4055 10.8996 10.9013C11.4038 10.3971 11.6871 9.71328 11.6874 9.00024C11.6874 8.46844 11.5297 7.94858 11.2342 7.50641C10.9388 7.06424 10.5189 6.7196 10.0275 6.51609C9.53622 6.31258 8.99559 6.25934 8.47401 6.36308C7.95243 6.46683 7.47333 6.72292 7.09729 7.09896C6.72125 7.47499 6.46517 7.9541 6.36142 8.47567C6.25767 8.99725 6.31092 9.53789 6.51443 10.0292C6.71794 10.5205 7.06257 10.9405 7.50474 11.2359ZM8.10227 7.65884C8.36758 7.48156 8.67949 7.38695 8.99857 7.38695C9.42626 7.38754 9.83626 7.5577 10.1387 7.86013C10.4411 8.16255 10.6113 8.57255 10.6119 9.00024C10.6119 9.31932 10.5172 9.63123 10.34 9.89653C10.1627 10.1618 9.91074 10.3686 9.61595 10.4907C9.32116 10.6128 8.99678 10.6448 8.68383 10.5825C8.37088 10.5203 8.08342 10.3666 7.8578 10.141C7.63218 9.91538 7.47853 9.62792 7.41628 9.31497C7.35403 9.00203 7.38598 8.67765 7.50808 8.38286C7.63019 8.08807 7.83697 7.83611 8.10227 7.65884Z" fill="#EFF1F8" />
        <path fill-rule="evenodd" clip-rule="evenodd" d="M10.8506 16.2495C10.9979 16.286 11.1489 16.3052 11.3006 16.3067C11.605 16.3042 11.9036 16.224 12.1682 16.0735L13.4085 15.3639C13.6271 15.2417 13.8187 15.0764 13.9715 14.878C14.1244 14.6796 14.2353 14.4522 14.2977 14.2096C14.3639 13.9692 14.3815 13.7181 14.3495 13.4708C14.3175 13.2236 14.2366 12.9852 14.1114 12.7696C14.0125 12.6436 13.9474 12.4945 13.9223 12.3364C13.8971 12.1783 13.9128 12.0163 13.9678 11.8659C14.0713 11.7437 14.2038 11.6495 14.3532 11.5919C14.5026 11.5342 14.6641 11.515 14.8229 11.5361C15.3265 11.5351 15.8092 11.3347 16.1653 10.9785C16.5214 10.6224 16.7219 10.1397 16.7228 9.63614V8.3761C16.7219 7.8725 16.5214 7.38979 16.1653 7.03369C15.8092 6.67759 15.3265 6.47711 14.8229 6.47616C14.6641 6.4972 14.5026 6.47802 14.3532 6.42038C14.2038 6.36275 14.0713 6.2685 13.9678 6.1463C13.9146 5.99564 13.8999 5.83407 13.925 5.67627C13.95 5.51847 14.0141 5.36943 14.1114 5.24268C14.3622 4.80527 14.4292 4.28616 14.2974 3.79944C14.1657 3.31272 13.8461 2.89821 13.4089 2.64701L12.1754 1.93734C11.9787 1.82199 11.7611 1.74664 11.5352 1.71562C11.3092 1.68461 11.0794 1.69854 10.8589 1.75663C10.6383 1.81471 10.4314 1.9158 10.2501 2.05408C10.0687 2.19236 9.91647 2.36511 9.80208 2.56241L9.72333 2.69741C9.30032 3.42868 8.71935 3.42868 8.29634 2.69741L8.21039 2.55386C7.97806 2.15875 7.59899 1.87148 7.15578 1.75465C6.71256 1.63781 6.24113 1.7009 5.84423 1.93014L4.60355 2.64026C4.38486 2.76264 4.19331 2.92818 4.04053 3.12684C3.88775 3.32549 3.77692 3.55311 3.71478 3.79589C3.58472 4.2817 3.65167 4.79921 3.90108 5.23593C4.00056 5.3619 4.06611 5.51126 4.09148 5.66976C4.11684 5.82826 4.10118 5.99062 4.04598 6.14135C3.9425 6.26355 3.80998 6.3578 3.66058 6.41543C3.51119 6.47307 3.3497 6.49225 3.19096 6.47121C2.68736 6.47216 2.20465 6.67264 1.84855 7.02874C1.49245 7.38484 1.29197 7.86755 1.29102 8.37115V9.63119C1.29173 10.1347 1.49192 10.6174 1.84775 10.9737C2.20359 11.33 2.68609 11.5307 3.18961 11.532C3.34835 11.511 3.50984 11.5302 3.65923 11.5878C3.80863 11.6454 3.94115 11.7397 4.04463 11.8619C4.09784 12.0126 4.11258 12.1741 4.08751 12.3319C4.06244 12.4897 3.99836 12.6388 3.90108 12.7655C3.65052 13.2028 3.58376 13.7217 3.71547 14.2082C3.84718 14.6947 4.16659 15.1091 4.60355 15.3603L5.83838 16.0681C6.03346 16.1856 6.2504 16.2621 6.47599 16.2931C6.70158 16.324 6.93111 16.3087 7.15061 16.2482C7.37069 16.1906 7.57717 16.09 7.75809 15.9522C7.939 15.8143 8.09075 15.6418 8.20454 15.4449L8.28329 15.3099C8.7063 14.5786 9.28727 14.5786 9.71028 15.3099L9.79623 15.4534C10.031 15.8456 10.4091 16.131 10.8506 16.2495ZM9.97137 13.9835C9.68262 13.7881 9.34681 13.6734 8.99881 13.6516V13.6534C8.65138 13.6772 8.31649 13.7927 8.02831 13.9882C7.74014 14.1837 7.50901 14.4522 7.35852 14.7663L7.27977 14.9013C7.18891 15.0533 7.04231 15.1639 6.87115 15.2095C6.7881 15.2318 6.70139 15.2369 6.6163 15.2246C6.5312 15.2123 6.44949 15.1828 6.37614 15.138L5.13591 14.4279C4.94899 14.3162 4.81279 14.1363 4.7561 13.9261C4.69872 13.7172 4.72639 13.4941 4.83305 13.3055C5.03024 13.0178 5.14745 12.6828 5.17267 12.3349C5.1979 11.987 5.13023 11.6386 4.97661 11.3255C4.7838 11.0341 4.51656 10.7995 4.20259 10.6462C3.88861 10.4928 3.53933 10.4263 3.19096 10.4534C2.97235 10.4532 2.76272 10.3663 2.60814 10.2118C2.45356 10.0572 2.36666 9.84755 2.36654 9.62893V8.3689C2.36607 8.26055 2.38707 8.15317 2.42834 8.05298C2.46962 7.9528 2.53034 7.86178 2.607 7.7852C2.68366 7.70863 2.77474 7.648 2.87498 7.60684C2.97521 7.56568 3.08261 7.54479 3.19096 7.54538C3.5392 7.57329 3.88856 7.50756 4.20285 7.35501C4.51713 7.20246 4.7849 6.96863 4.97841 6.67776C5.13203 6.36459 5.19969 6.01623 5.17447 5.66832C5.14925 5.32041 5.03204 4.98545 4.83485 4.69771C4.78132 4.60405 4.7468 4.50074 4.73329 4.39371C4.71977 4.28667 4.72753 4.17803 4.7561 4.074C4.81317 3.86242 4.95166 3.68203 5.14131 3.57223L6.38154 2.85402C6.53045 2.7689 6.7067 2.74526 6.87278 2.78813C7.03885 2.83099 7.18165 2.93697 7.27077 3.08352L7.34952 3.22708C7.49912 3.54204 7.73029 3.81122 8.01905 4.00668C8.3078 4.20213 8.64361 4.31674 8.99161 4.3386C9.33961 4.31674 9.67542 4.20213 9.96417 4.00668C10.2529 3.81122 10.4841 3.54204 10.6337 3.22708L10.7125 3.09207C10.7562 3.01712 10.8142 2.95152 10.8833 2.89905C10.9524 2.84657 11.0312 2.80824 11.1152 2.78625C11.1991 2.76426 11.2865 2.75905 11.3725 2.77091C11.4585 2.78277 11.5412 2.81147 11.6161 2.85537L12.8563 3.56503C13.0428 3.67613 13.1789 3.85517 13.2361 4.06455C13.2647 4.16858 13.2724 4.27722 13.2589 4.38426C13.2454 4.49129 13.2109 4.5946 13.1574 4.68826C12.9602 4.976 12.843 5.31096 12.8177 5.65887C12.7925 6.00678 12.8602 6.35514 13.0138 6.66831C13.2071 6.95883 13.4745 7.19243 13.7884 7.34497C14.1022 7.4975 14.4511 7.56343 14.799 7.53593C15.0176 7.53605 15.2272 7.62295 15.3818 7.77753C15.5364 7.93212 15.6233 8.14174 15.6234 8.36035V9.62039C15.624 9.72882 15.6031 9.83629 15.5619 9.93658C15.5207 10.0369 15.46 10.128 15.3833 10.2047C15.3066 10.2813 15.2155 10.342 15.1152 10.3833C15.0149 10.4245 14.9074 10.4454 14.799 10.4448C14.4511 10.4173 14.1022 10.4832 13.7884 10.6358C13.4745 10.7883 13.2071 11.0219 13.0138 11.3124C12.8602 11.6256 12.7925 11.974 12.8177 12.3219C12.843 12.6698 12.9602 13.0047 13.1574 13.2925C13.2109 13.3861 13.2454 13.4894 13.2589 13.5965C13.2724 13.7035 13.2647 13.8122 13.2361 13.9162C13.1786 14.1281 13.0394 14.3085 12.8491 14.418L11.6089 15.1348C11.4592 15.2195 11.2822 15.2422 11.116 15.198C10.9497 15.1537 10.8074 15.0461 10.7197 14.8981L10.6409 14.7631C10.4913 14.4481 10.2601 14.179 9.97137 13.9835Z" fill="#EFF1F8" />
    </g>
    <defs>
        <clipPath id="clip0_1012_1747">
            <rect width="18" height="18" fill="white" />
        </clipPath>
    </defs>
</svg>
    