<svg width="18" height="18" viewBox="0 0 18 18" fill="none" xmlns="http://www.w3.org/2000/svg">
    <g clip-path="url(#clip0_1012_1753)">
        <path fill-rule="evenodd" clip-rule="evenodd" d="M6.54018 15.4428C6.72051 15.1729 6.8528 14.876 6.93308 14.565H11.3873C11.4929 15.0823 11.7482 15.5572 12.1216 15.9307C12.4982 16.3073 12.9781 16.5638 13.5005 16.6677C14.0228 16.7716 14.5643 16.7183 15.0564 16.5144C15.5484 16.3106 15.969 15.9655 16.2649 15.5226C16.5608 15.0798 16.7188 14.5591 16.7188 14.0265C16.7185 13.3124 16.4347 12.6275 15.9298 12.1226C15.4248 11.6176 14.74 11.3338 14.0258 11.3336C13.4932 11.3336 12.9726 11.4915 12.5297 11.7874C12.0869 12.0833 11.7417 12.5039 11.5379 12.996C11.4722 13.1546 11.4221 13.3183 11.3879 13.485H8.62596C8.70253 13.4038 8.77537 13.3186 8.84416 13.2298C9.31202 12.6254 9.56591 11.8827 9.56595 11.1184V11.104L9.55875 8.64105V8.62665C9.55826 7.84681 9.80067 7.08619 10.2523 6.45044C10.6153 5.93939 11.0991 5.52944 11.6575 5.25516C11.7806 5.48277 11.9366 5.69266 12.1216 5.87764C12.4982 6.25426 12.9781 6.51074 13.5005 6.61464C14.0228 6.71855 14.5643 6.66522 15.0564 6.4614C15.5484 6.25758 15.969 5.91242 16.2649 5.46957C16.5608 5.02672 16.7188 4.50606 16.7188 3.97345C16.7185 3.25931 16.4347 2.57449 15.9298 2.06952C15.4248 1.56455 14.74 1.28076 14.0258 1.28052C13.4932 1.28052 12.9726 1.43845 12.5297 1.73436C12.0869 2.03026 11.7417 2.45084 11.5379 2.94291C11.37 3.34828 11.3042 3.78717 11.3443 4.2213C10.5615 4.57144 9.88358 5.12512 9.38333 5.82789C8.80156 6.64517 8.48897 7.62345 8.48904 8.62665V8.64825L8.49624 11.1112V11.1184C8.4962 11.6445 8.32136 12.1557 7.99919 12.5716C7.73337 12.9148 7.37968 13.1771 6.97795 13.3323C6.94159 13.1323 6.884 12.9362 6.80587 12.7475C6.66156 12.399 6.44997 12.0823 6.18322 11.8155C5.91646 11.5488 5.59975 11.3372 5.25119 11.1929C4.90263 11.0485 4.52905 10.9743 4.15179 10.9744C3.58367 10.9744 3.0283 11.1429 2.55592 11.4585C2.08354 11.7742 1.71537 12.2228 1.49795 12.7477C1.28054 13.2726 1.22366 13.8501 1.33449 14.4073C1.44533 14.9645 1.71891 15.4764 2.12063 15.8781C2.52236 16.2798 3.03419 16.5534 3.5914 16.6642C4.14861 16.7751 4.72617 16.7182 5.25105 16.5008C5.77593 16.2834 6.22455 15.9152 6.54018 15.4428ZM12.4102 14.0305L12.4103 14.025L12.4103 14.0207C12.413 13.5947 12.5834 13.1868 12.8847 12.8854C13.1875 12.5827 13.5977 12.4121 14.0258 12.4109C14.3454 12.4109 14.6577 12.5057 14.9234 12.6832C15.1891 12.8607 15.3961 13.113 15.5184 13.4082C15.6407 13.7034 15.6727 14.0283 15.6104 14.3417C15.548 14.6551 15.3942 14.9429 15.1682 15.1689C14.9423 15.3948 14.6544 15.5487 14.341 15.611C14.0276 15.6734 13.7028 15.6414 13.4076 15.5191C13.1124 15.3968 12.86 15.1897 12.6825 14.9241C12.5057 14.6595 12.411 14.3486 12.4102 14.0305ZM2.35665 13.8469C2.35665 14.202 2.46194 14.5491 2.65919 14.8443C2.85644 15.1395 3.1368 15.3696 3.46482 15.5054C3.79284 15.6413 4.15378 15.6768 4.50201 15.6076C4.85023 15.5383 5.17009 15.3673 5.42115 15.1163C5.6722 14.8652 5.84317 14.5454 5.91244 14.1971C5.9817 13.8489 5.94615 13.488 5.81029 13.16C5.67442 12.8319 5.44433 12.5516 5.14912 12.3543C4.85391 12.1571 4.50684 12.0518 4.15179 12.0518C3.67576 12.052 3.2193 12.2412 2.8827 12.5778C2.5461 12.9144 2.35689 13.3709 2.35665 13.8469ZM12.4102 3.97345C12.4102 4.29298 12.505 4.60534 12.6825 4.87102C12.86 5.1367 13.1124 5.34377 13.4076 5.46605C13.7028 5.58833 14.0276 5.62033 14.341 5.55799C14.6544 5.49565 14.9423 5.34178 15.1682 5.11584C15.3942 4.8899 15.548 4.60203 15.6104 4.28864C15.6727 3.97524 15.6407 3.6504 15.5184 3.3552C15.3961 3.05999 15.1891 2.80767 14.9234 2.63015C14.6577 2.45262 14.3454 2.35787 14.0258 2.35787C13.5977 2.35906 13.1875 2.52965 12.8847 2.83238C12.582 3.1351 12.4114 3.54534 12.4102 3.97345Z" fill="#EFF1F8" />
    </g>
    <defs>
        <clipPath id="clip0_1012_1753">
            <rect width="18" height="18" fill="white" />
        </clipPath>
    </defs>
</svg>
    