<svg width="16" height="16" viewBox="0 0 16 16" fill="none" xmlns="http://www.w3.org/2000/svg">
<g opacity="0.8" clip-path="url(#clip0_30602_18327)">
<path d="M8.0062 14.9348C7.30835 14.9428 6.62612 14.7281 6.05855 14.322L2.70727 12.252C2.32015 11.9325 2.00384 11.5359 1.7785 11.0874C1.55315 10.6389 1.42371 10.1484 1.39844 9.6471V4.84937C1.41813 4.33236 1.5852 3.83175 1.87995 3.40652C2.1747 2.9813 2.58485 2.64919 3.06208 2.44931L6.85817 1.24328C7.60042 1.00468 8.39878 1.00468 9.14103 1.24328L12.9371 2.44931C13.4144 2.64919 13.8245 2.9813 14.1193 3.40652C14.414 3.83175 14.5811 4.33236 14.6008 4.84937V9.6407C14.5764 10.1422 14.4473 10.6331 14.2219 11.0818C13.9965 11.5304 13.6797 11.927 13.2919 12.246L9.94065 14.316C9.38085 14.7283 8.70134 14.9456 8.0062 14.9348ZM7.19858 2.15371L3.40249 3.35974C3.11115 3.49228 2.86129 3.70147 2.6796 3.96496C2.4979 4.22845 2.39119 4.53635 2.37086 4.85578V9.6471C2.39528 9.99761 2.48874 10.3398 2.64588 10.6541C2.80302 10.9684 3.02072 11.2485 3.28648 11.4783L6.63777 13.5484C7.04331 13.8195 7.52017 13.9643 8.008 13.9643C8.49584 13.9643 8.9727 13.8195 9.37824 13.5484L12.7295 11.4783C12.996 11.2491 13.2143 10.9691 13.3717 10.6547C13.5291 10.3404 13.6225 9.99785 13.6463 9.6471V4.84937C13.6242 4.53044 13.5168 4.22331 13.3353 3.96012C13.1539 3.69694 12.905 3.48736 12.6147 3.35334L8.81862 2.14571C8.28943 1.99003 7.72622 1.99281 7.19858 2.15371V2.15371Z" fill="#F2F2F8"/>
<path d="M6.7724 9.98189C6.7089 9.98199 6.64601 9.96949 6.58737 9.94512C6.52873 9.92074 6.47551 9.88497 6.43079 9.83988L5.05636 8.46105C4.96644 8.37001 4.91602 8.2472 4.91602 8.11924C4.91602 7.99128 4.96644 7.86847 5.05636 7.77743C5.1474 7.68751 5.27021 7.63709 5.39817 7.63709C5.52613 7.63709 5.64894 7.68751 5.73998 7.77743L6.7728 8.81466L10.2817 5.28817C10.3727 5.19825 10.4955 5.14783 10.6235 5.14783C10.7515 5.14783 10.8743 5.19825 10.9653 5.28817C11.0552 5.37921 11.1056 5.50202 11.1056 5.62998C11.1056 5.75794 11.0552 5.88075 10.9653 5.97179L7.11441 9.83988C7.06965 9.88502 7.01636 9.92082 6.95765 9.94519C6.89894 9.96957 6.83597 9.98204 6.7724 9.98189V9.98189Z" fill="#F2F2F8"/>
</g>
<defs>
<clipPath id="clip0_30602_18327">
<rect width="16" height="16" fill="white"/>
</clipPath>
</defs>
</svg>
