<svg width="18" height="19" viewBox="0 0 18 19" fill="none" xmlns="http://www.w3.org/2000/svg">
    <g clip-path="url(#clip0_935_55281)">
        <path fill-rule="evenodd" clip-rule="evenodd" d="M5.553 4.5502H5.37325C3.80185 4.5502 2.71917 4.89937 2.06442 5.62702C1.76864 6.01109 1.55741 6.45334 1.44457 6.92478C1.37966 7.19596 1.34815 7.47327 1.35019 7.7506C1.34858 7.97157 1.36799 8.19279 1.40851 8.41123L1.4148 8.46342L1.49111 9.26981C1.49111 9.26981 1.49229 9.2706 1.49456 9.27211L1.95373 14.1914C2.11393 15.7102 2.73944 17.2757 6.10049 17.2757H11.9203C15.2809 17.2757 15.9068 15.7102 16.0679 14.1833L16.5746 8.77088L16.6132 8.42293C16.6161 8.39924 16.6176 8.37806 16.6191 8.35643C16.62 8.34324 16.6209 8.32989 16.6221 8.3157C16.7011 7.85561 16.6861 7.38408 16.5777 6.92961C16.4648 6.45659 16.2534 6.01272 15.9573 5.62702C15.3111 4.91017 14.2256 4.5502 12.6484 4.5502H12.4629V4.54212C12.4629 3.25603 12.4629 1.66211 9.59112 1.66211H8.42931C5.553 1.66211 5.553 3.26363 5.553 4.54207V4.5502ZM2.65299 9.98116C3.9607 10.6978 5.38103 11.1847 6.85252 11.4208V11.4253C6.91983 12.1458 7.23796 12.9886 8.90992 12.9886C10.5819 12.9886 10.9121 12.1521 10.9642 11.41C12.5212 11.1565 14.0182 10.6175 15.3805 9.82014L14.9799 14.0762C14.8588 15.2314 14.5388 16.1858 11.9198 16.1858H6.1C3.47245 16.1858 3.16107 15.2314 3.03597 14.0821L2.65299 9.98116ZM11.3708 4.5502H6.64787V4.53855H6.6488C6.6488 3.2385 6.64881 2.75426 8.42487 2.75426H9.59156C11.3708 2.75426 11.3708 3.24479 11.3708 4.53852V4.5502ZM7.96223 10.9088V9.94305H9.84687V10.9024C9.84687 11.7151 9.84687 11.8375 8.90455 11.8375C7.96223 11.8375 7.96223 11.6904 7.96223 10.9088Z" fill="#EFF1F8" />
    </g>
    <defs>
        <clipPath id="clip0_935_55281">
            <rect width="18" height="18" fill="white" transform="translate(0 0.5)" />
        </clipPath>
    </defs>
</svg>
    