<svg width="18" height="19" viewBox="0 0 18 19" fill="none" xmlns="http://www.w3.org/2000/svg">
    <g clip-path="url(#clip0_935_55174)">
        <path fill-rule="evenodd" clip-rule="evenodd" d="M12.4575 4.55329V4.59641H12.6386C14.2159 4.59641 15.3013 4.95639 15.9475 5.67324C16.2437 6.05894 16.4551 6.50281 16.5679 6.97583C16.6807 7.44885 16.6924 7.94037 16.6022 8.41822L16.0582 14.2296C15.8971 15.7564 15.2712 17.3219 11.9106 17.3219H6.09073C2.72968 17.3219 2.10416 15.7564 1.94396 14.2376L1.39989 8.40878C1.31006 7.93241 1.32196 7.44244 1.4348 6.971C1.54764 6.49955 1.75887 6.0573 2.05465 5.67324C2.7094 4.94559 3.79209 4.59641 5.36349 4.59641H5.54326V4.55329C5.54326 3.27304 5.54328 1.67822 8.41833 1.67822H9.58244C12.4575 1.67822 12.4575 3.27304 12.4575 4.55329ZM11.9105 5.6823L11.9079 5.68224H5.36305C4.1323 5.68224 3.28811 5.92073 2.86061 6.40223C2.66494 6.67332 2.52985 6.98335 2.46455 7.31124C2.39925 7.63913 2.40527 7.97722 2.48216 8.30259L2.50412 8.53778C3.85692 9.45869 5.39007 10.0766 6.99873 10.3523V10.2291C6.99873 9.2049 7.24894 8.95469 8.27314 8.95469H9.72795C10.7522 8.95469 11.0024 9.2049 11.0024 10.2291V10.3316C12.6162 10.039 14.1507 9.40506 15.5021 8.47053L15.5173 8.30847C15.592 7.982 15.5968 7.6434 15.5316 7.31492C15.4664 6.98644 15.3325 6.67543 15.1388 6.40223C14.7082 5.92208 13.8644 5.68224 12.6364 5.68224H11.9131L11.9105 5.6823ZM7.01406 11.4596C5.46734 11.2216 3.9807 10.6939 2.63185 9.90559L3.0262 14.1283C3.1513 15.2776 3.46268 16.232 6.09023 16.232H11.9101C14.5291 16.232 14.849 15.2776 14.9701 14.1224L15.3719 9.85402C14.0232 10.6517 12.5366 11.1937 10.9869 11.4504C10.924 12.1566 10.6056 12.957 9.00077 12.957C7.39335 12.957 7.07651 12.1578 7.01406 11.4596ZM11.3635 4.59641H6.63722V4.55329C6.63722 3.25819 6.63723 2.77219 8.41833 2.77219H9.58244C11.3635 2.77219 11.3635 3.25864 11.3635 4.55329V4.59641ZM8.09313 10.9752V10.0468H9.9089V10.9693C9.9089 11.7492 9.90842 11.8626 9.00077 11.8626C8.09313 11.8626 8.09313 11.7258 8.09313 10.9752Z" fill="#EFF1F8" />
    </g>
    <defs>
        <clipPath id="clip0_935_55174">
            <rect width="18" height="18" fill="white" transform="translate(0 0.5)" />
        </clipPath>
    </defs>
</svg>
    