<svg width="24" height="24" viewBox="0 0 24 24" fill="none" xmlns="http://www.w3.org/2000/svg">
    <path d="M12.0245 22.4112C9.97157 22.4112 7.9647 21.8025 6.25772 20.6619C4.55073 19.5213 3.2203 17.9002 2.43467 16.0035C1.64903 14.1068 1.44347 12.0197 1.84398 10.0062C2.2445 7.99269 3.2331 6.14315 4.68477 4.69148C6.13644 3.23981 7.98597 2.25121 9.9995 1.8507C12.013 1.45018 14.1001 1.65574 15.9968 2.44138C17.8935 3.22702 19.5146 4.55745 20.6552 6.26443C21.7958 7.97141 22.4045 9.97828 22.4045 12.0312C22.4045 12.2233 22.3282 12.4075 22.1924 12.5433C22.0566 12.6791 21.8724 12.7554 21.6803 12.7554C21.4883 12.7554 21.3041 12.6791 21.1682 12.5433C21.0324 12.4075 20.9561 12.2233 20.9561 12.0312C20.9565 10.2644 20.4329 8.53709 19.4515 7.06784C18.4701 5.59858 17.075 4.45336 15.4427 3.77702C13.8104 3.10068 12.0142 2.92359 10.2813 3.26816C8.54835 3.61273 6.95651 4.46347 5.7071 5.71279C4.4577 6.96212 3.60685 8.5539 3.26216 10.2868C2.91748 12.0197 3.09444 13.816 3.77068 15.4483C4.44691 17.0806 5.59204 18.4758 7.06122 19.4573C8.53041 20.4387 10.2577 20.9625 12.0245 20.9622C12.2166 20.9622 12.4008 21.0385 12.5366 21.1744C12.6724 21.3102 12.7487 21.4944 12.7487 21.6864C12.7487 21.8785 12.6724 22.0627 12.5366 22.1985C12.4008 22.3343 12.2166 22.4106 12.0245 22.4106V22.4112Z" fill="white" />
    <path d="M9.13109 21.4452H8.16509C7.97336 21.4437 7.78989 21.3669 7.65436 21.2313C7.51883 21.0956 7.44215 20.9121 7.44089 20.7204C7.43976 20.5307 7.51348 20.3483 7.64604 20.2127C7.7786 20.0771 7.9593 19.9993 8.14889 19.9962C6.63266 14.7928 6.63266 9.26476 8.14889 4.06136C7.95682 4.05921 7.77348 3.98085 7.63918 3.84352C7.50489 3.70619 7.43065 3.52113 7.43279 3.32906C7.43494 3.13699 7.5133 2.95364 7.65064 2.81935C7.78797 2.68505 7.97302 2.61081 8.16509 2.61296H9.13109C9.24583 2.61394 9.35876 2.64154 9.46101 2.6936C9.56326 2.74566 9.65201 2.82075 9.72029 2.91296C9.78735 3.00673 9.83108 3.11513 9.84788 3.22918C9.86468 3.34323 9.85406 3.45964 9.81689 3.56876C8.00126 9.06592 8.00126 15.0012 9.81689 20.4984C9.85386 20.6073 9.86438 20.7235 9.84758 20.8373C9.83078 20.9511 9.78715 21.0593 9.72029 21.153C9.65319 21.2458 9.56448 21.321 9.46182 21.3719C9.35916 21.4228 9.24565 21.448 9.13109 21.4452Z" fill="white" />
    <path d="M16.3332 12.7548C16.1415 12.7534 15.9581 12.6766 15.8226 12.5411C15.6871 12.4056 15.6104 12.2222 15.609 12.0306C15.6086 9.15486 15.1455 6.29794 14.2374 3.56937C14.2069 3.47931 14.1945 3.38413 14.2008 3.28928C14.2072 3.19442 14.2321 3.10173 14.2743 3.01652C14.3164 2.9313 14.3749 2.85522 14.4465 2.79262C14.518 2.73002 14.6012 2.68213 14.6913 2.65167C14.7813 2.62122 14.8765 2.6088 14.9714 2.61513C15.0662 2.62146 15.1589 2.64641 15.2441 2.68856C15.3293 2.73071 15.4054 2.78923 15.468 2.86078C15.5306 2.93233 15.5785 3.01551 15.609 3.10557C16.5674 5.98319 17.0565 8.99633 17.0574 12.0294C17.0563 12.2212 16.9797 12.4049 16.8441 12.5407C16.7086 12.6764 16.525 12.7534 16.3332 12.7548Z" fill="white" />
    <path d="M12.0252 17.061C9.32806 17.0617 6.64481 16.6745 4.05784 15.9114C4.05529 16.1035 3.97655 16.2867 3.83894 16.4207C3.70132 16.5547 3.51611 16.6286 3.32404 16.626C3.13197 16.6235 2.94878 16.5447 2.81476 16.4071C2.68075 16.2695 2.60689 16.0843 2.60944 15.8922V14.9262C2.61051 14.8116 2.63816 14.6988 2.69021 14.5966C2.74227 14.4945 2.81731 14.4058 2.90944 14.3376C3.00321 14.2706 3.11161 14.2268 3.22566 14.21C3.33971 14.1932 3.45612 14.2038 3.56524 14.241C6.29342 15.149 9.14993 15.6121 12.0252 15.6126C12.2173 15.6126 12.4015 15.6889 12.5373 15.8247C12.6731 15.9605 12.7494 16.1447 12.7494 16.3368C12.7494 16.5289 12.6731 16.7131 12.5373 16.8489C12.4015 16.9847 12.2173 17.061 12.0252 17.061Z" fill="white" />
    <path d="M20.7192 9.85615C20.6403 9.85753 20.5618 9.84452 20.4876 9.81775C14.9904 8.00212 9.05514 8.00212 3.55798 9.81775C3.37593 9.87926 3.17691 9.86592 3.0047 9.78069C2.83248 9.69545 2.70118 9.5453 2.63968 9.36325C2.57817 9.18121 2.59151 8.98219 2.67674 8.80997C2.76198 8.63776 2.91213 8.50646 3.09418 8.44495C8.88467 6.52307 15.1411 6.52307 20.9316 8.44495C21.1128 8.5076 21.2619 8.63926 21.3465 8.81129C21.4311 8.98332 21.4444 9.1818 21.3834 9.36355C21.3416 9.5069 21.2541 9.63265 21.1341 9.72159C21.0142 9.81053 20.8685 9.85779 20.7192 9.85615Z" fill="white" />
    <path d="M18.014 21.8316C17.2595 21.8316 16.522 21.6079 15.8946 21.1887C15.2673 20.7695 14.7783 20.1738 14.4896 19.4767C14.2009 18.7796 14.1253 18.0126 14.2725 17.2726C14.4197 16.5326 14.783 15.8529 15.3165 15.3194C15.8501 14.7858 16.5298 14.4225 17.2698 14.2753C18.0098 14.1281 18.7768 14.2037 19.4739 14.4924C20.1709 14.7811 20.7667 15.2701 21.1859 15.8974C21.6051 16.5248 21.8288 17.2623 21.8288 18.0168C21.8283 19.0284 21.4263 19.9985 20.711 20.7138C19.9957 21.4291 19.0256 21.8311 18.014 21.8316ZM18.014 15.6516C17.5461 15.6515 17.0886 15.7902 16.6994 16.0501C16.3103 16.31 16.007 16.6795 15.8278 17.1118C15.6487 17.5441 15.6018 18.0198 15.693 18.4788C15.7843 18.9378 16.0096 19.3594 16.3405 19.6903C16.6714 20.0212 17.093 20.2465 17.552 20.3378C18.011 20.4291 18.4867 20.3822 18.919 20.203C19.3514 20.0239 19.7208 19.7206 19.9808 19.3314C20.2407 18.9423 20.3793 18.4848 20.3792 18.0168C20.3783 17.3897 20.1288 16.7886 19.6855 16.345C19.2422 15.9015 18.6411 15.6517 18.014 15.6504V15.6516Z" fill="white" />
    <path d="M21.6859 22.4106C21.5907 22.4109 21.4965 22.3923 21.4086 22.3559C21.3207 22.3194 21.241 22.2658 21.1741 22.1982L20.2081 21.2322C20.0724 21.0964 19.9961 20.9123 19.9961 20.7204C19.9961 20.5284 20.0724 20.3443 20.2081 20.2086C20.3438 20.0728 20.5279 19.9966 20.7199 19.9966C20.9119 19.9966 21.096 20.0728 21.2317 20.2086L22.1977 21.1746C22.3322 21.311 22.4076 21.4948 22.4076 21.6864C22.4076 21.8779 22.3322 22.0618 22.1977 22.1982C22.1308 22.2658 22.051 22.3194 21.9632 22.3559C21.8753 22.3923 21.781 22.4109 21.6859 22.4106Z" fill="white" />
</svg>
    