<svg width="24" height="24" viewBox="0 0 24 24" fill="none" xmlns="http://www.w3.org/2000/svg">
    <path d="M14.8896 22.3538H9.11176C8.7848 22.3538 8.46734 22.3448 8.16618 22.3274C7.86502 22.31 7.56629 22.283 7.28972 22.2476C7.01316 22.2122 6.738 22.1667 6.48123 22.1133C6.22446 22.0599 5.9741 21.9932 5.73953 21.9231C5.50995 21.8526 5.28429 21.7702 5.06344 21.676C4.85402 21.5865 4.64975 21.4847 4.45238 21.3712C4.26204 21.2616 4.07944 21.14 3.9046 21.0071C3.73353 20.8767 3.57105 20.7349 3.41892 20.5829C3.26677 20.4308 3.12505 20.2686 2.99475 20.0975C2.86197 19.9229 2.74085 19.74 2.63152 19.5499C2.51775 19.3523 2.41533 19.1481 2.3257 18.9385C2.23137 18.7178 2.14898 18.4919 2.07905 18.2623C2.00706 18.0277 1.94262 17.7782 1.88923 17.5209C1.83583 17.2635 1.79106 16.9922 1.75506 16.7121C1.71907 16.4319 1.69461 16.138 1.67422 15.8356C1.65382 15.5333 1.64844 15.2166 1.64844 14.8902V9.11284C1.64844 8.78648 1.65742 8.46856 1.67422 8.1674C1.69101 7.86624 1.71907 7.56751 1.75506 7.29095C1.79106 7.01438 1.83583 6.73893 1.88923 6.48216C1.94262 6.22539 2.00886 5.97532 2.07905 5.74075C2.14904 5.51111 2.23142 5.28544 2.3257 5.06466C2.41538 4.85506 2.51781 4.65091 2.63152 4.45331C2.74088 4.26316 2.86199 4.08015 2.99475 3.90553C3.12503 3.73418 3.26676 3.5718 3.41892 3.41955C3.5711 3.26755 3.73358 3.12584 3.9046 2.99539C4.07944 2.86246 4.26204 2.74086 4.45238 2.63127C4.64971 2.51744 4.85398 2.41545 5.06344 2.32589C5.28436 2.23179 5.51001 2.14937 5.73953 2.0788C5.9741 2.00621 6.22386 1.94254 6.48123 1.88854C6.7386 1.83455 7.00956 1.78964 7.28972 1.75365C7.56989 1.71765 7.86322 1.69362 8.16618 1.67382C8.46914 1.65403 8.7854 1.64746 9.11176 1.64746H14.8896C15.2153 1.64746 15.5334 1.65643 15.8351 1.67382C16.1369 1.69122 16.435 1.71825 16.711 1.75365C16.987 1.78904 17.2627 1.83455 17.5195 1.88854C17.7763 1.94254 18.0266 2.00861 18.2612 2.0788C18.4906 2.14927 18.716 2.2317 18.9367 2.32589C19.1465 2.41557 19.3506 2.51755 19.5483 2.63127C19.7385 2.74087 19.9215 2.86246 20.0961 2.99539C20.2673 3.12594 20.4299 3.26765 20.5824 3.41955C20.734 3.57211 20.8756 3.73447 21.006 3.90553C21.1388 4.08008 21.26 4.26309 21.3692 4.45331C21.4829 4.65091 21.5848 4.85506 21.6745 5.06466C21.7685 5.28554 21.8509 5.5112 21.9211 5.74075C21.9937 5.97532 22.0581 6.22479 22.1115 6.48216C22.1649 6.73953 22.2103 7.01078 22.2457 7.29095C22.2811 7.57111 22.3055 7.86444 22.3259 8.1674C22.3463 8.47036 22.3529 8.78648 22.3529 9.11284V14.8902C22.3529 15.2166 22.3427 15.5345 22.3259 15.8356C22.3091 16.1368 22.2817 16.4355 22.2457 16.7121C22.2097 16.9886 22.1649 17.2647 22.1115 17.5209C22.0581 17.777 21.9913 18.0277 21.9211 18.2623C21.8509 18.4918 21.7685 18.7177 21.6745 18.9385C21.5848 19.1481 21.483 19.3523 21.3692 19.5499C21.2599 19.7401 21.1388 19.9229 21.006 20.0975C20.8756 20.2684 20.734 20.4305 20.5824 20.5829C20.43 20.7349 20.2673 20.8766 20.0961 21.0071C19.9215 21.1399 19.7385 21.2615 19.5483 21.3712C19.3506 21.4847 19.1465 21.5865 18.9367 21.676C18.7161 21.7702 18.4906 21.8526 18.2612 21.9231C18.026 21.995 17.7763 22.0593 17.5195 22.1133C17.2627 22.1673 16.9912 22.2122 16.711 22.2476C16.4308 22.283 16.1375 22.3076 15.8351 22.3274C15.5328 22.3472 15.2153 22.3538 14.8896 22.3538ZM12.0264 3.78982C9.84237 3.79236 7.74902 4.66106 6.2047 6.20549C4.66039 7.74991 3.79157 9.84389 3.78919 12.028C3.79157 14.212 4.66039 16.306 6.2047 17.8504C7.74902 19.3948 9.84237 20.2635 12.0264 20.2661C12.1028 20.2661 12.1784 20.2507 12.2485 20.2205C12.3159 20.191 12.3774 20.1488 12.4289 20.0963C12.4814 20.0448 12.523 19.9837 12.5525 19.9163C12.5827 19.8462 12.5984 19.7708 12.5982 19.6944C12.5984 19.6179 12.5828 19.5421 12.5525 19.4718C12.523 19.4044 12.4814 19.3433 12.4289 19.2918C12.3774 19.2393 12.3159 19.1971 12.2485 19.1676C12.1784 19.1374 12.1028 19.122 12.0264 19.122C11.4452 19.1223 10.8661 19.0512 10.3022 18.9102C10.2994 18.8571 10.2893 18.8046 10.2718 18.7543C10.117 18.2893 9.97649 17.8112 9.85171 17.3331C9.72692 16.855 9.62472 16.3731 9.53593 15.8872C10.362 15.9791 11.1923 16.0253 12.0235 16.0253C12.0998 16.0255 12.1755 16.0099 12.2456 15.9796C12.3129 15.9504 12.3739 15.9084 12.4254 15.856C12.4779 15.8045 12.5201 15.7435 12.5496 15.6761C12.5799 15.6058 12.5955 15.53 12.5953 15.4535C12.5955 15.377 12.5799 15.3012 12.5496 15.2309C12.5201 15.1635 12.4779 15.1026 12.4254 15.051C12.3739 14.9984 12.313 14.9563 12.2456 14.9268C12.1755 14.8966 12.0998 14.881 12.0235 14.8811C11.579 14.8811 11.1293 14.8668 10.6854 14.8392C10.2414 14.8116 9.79523 14.7691 9.35548 14.7133C9.13342 12.9386 9.13342 11.1431 9.35548 9.36842C10.2397 9.2583 11.1295 9.20308 12.0206 9.20291C12.9157 9.20314 13.8098 9.25907 14.698 9.37032C14.7544 9.81007 14.7963 10.2575 14.8245 10.7002C14.8527 11.143 14.8667 11.5942 14.8667 12.0388C14.8665 12.1153 14.8822 12.191 14.9124 12.2613C14.9417 12.3288 14.9839 12.3899 15.0366 12.4413C15.0879 12.494 15.149 12.5362 15.2165 12.5655C15.2864 12.5956 15.3618 12.6111 15.4379 12.611C15.5145 12.6112 15.5903 12.5958 15.6606 12.5655C15.7279 12.5359 15.7889 12.4938 15.8404 12.4413C15.8929 12.3898 15.9351 12.3286 15.9646 12.2613C15.9949 12.191 16.0105 12.1153 16.0103 12.0388C16.0101 11.208 15.9636 10.3778 15.8715 9.55209C16.355 9.64028 16.84 9.74639 17.3115 9.86758C17.7831 9.98876 18.265 10.1298 18.7293 10.284C18.7814 10.3032 18.8361 10.3135 18.8916 10.3146C19.033 10.8786 19.1046 11.4579 19.1043 12.0394C19.1044 12.1159 19.1194 12.1915 19.1494 12.2619C19.1791 12.3291 19.2212 12.3902 19.2736 12.4419C19.325 12.4945 19.3866 12.5367 19.454 12.5661C19.5243 12.5963 19.5995 12.6118 19.6761 12.6116C19.7524 12.6116 19.828 12.5962 19.8981 12.5661C19.9666 12.5367 20.0293 12.4946 20.0821 12.4419C20.1342 12.3903 20.176 12.3291 20.2051 12.2619C20.2354 12.1916 20.2504 12.1159 20.2502 12.0394C20.2507 9.85583 19.3857 7.76122 17.8441 6.21486C16.3024 4.6685 14.21 3.7966 12.0264 3.79041V3.78982ZM18.4756 19.2852C18.4882 19.3008 18.5028 19.3165 18.5172 19.3315L19.2835 20.0975C19.3382 20.1522 19.4029 20.1956 19.4745 20.2248C19.5428 20.252 19.616 20.2658 19.6895 20.2655C19.7649 20.2657 19.8396 20.2509 19.9092 20.222C19.9789 20.1931 20.0419 20.1505 20.095 20.0969C20.1494 20.0431 20.1921 19.9786 20.2203 19.9074C20.248 19.8385 20.2625 19.765 20.2625 19.6908C20.2625 19.6166 20.248 19.543 20.2203 19.4741C20.1921 19.4029 20.1494 19.3384 20.095 19.2846L19.3298 18.5179C19.3154 18.5035 19.2991 18.4892 19.2835 18.4766C19.6242 17.9757 19.806 17.3838 19.805 16.7781C19.8038 15.9756 19.4844 15.2063 18.9168 14.6389C18.3492 14.0715 17.5792 13.7524 16.7766 13.7516C15.9742 13.7525 15.205 14.0716 14.6376 14.639C14.0702 15.2064 13.751 15.9757 13.7501 16.7781C13.751 17.5806 14.0703 18.3499 14.6376 18.9174C15.205 19.4849 15.9742 19.8042 16.7766 19.8053C17.3824 19.8068 17.9745 19.6255 18.4756 19.2852V19.2852ZM16.7772 18.6572C16.5266 18.6576 16.2786 18.6074 16.0478 18.5095C15.9363 18.4621 15.8301 18.404 15.7297 18.3361C15.6299 18.2684 15.5362 18.1916 15.4508 18.1064C15.3656 18.0211 15.2888 17.9278 15.2212 17.828C15.1533 17.7276 15.0952 17.6209 15.0477 17.5094C14.95 17.2785 14.8997 17.0301 14.9001 16.7793C14.8998 16.5287 14.95 16.2805 15.0477 16.0498C15.0952 15.9381 15.1533 15.8312 15.2212 15.7306C15.2889 15.631 15.3657 15.5381 15.4508 15.4529C15.5362 15.3678 15.6299 15.2908 15.7297 15.2231C15.8301 15.1553 15.9363 15.0972 16.0478 15.0497C16.2786 14.9518 16.5266 14.9017 16.7772 14.9022C17.028 14.9017 17.2769 14.9518 17.5078 15.0497C17.6195 15.097 17.726 15.1552 17.8265 15.2231C17.9262 15.2909 18.0199 15.3679 18.1054 15.4529C18.1901 15.5383 18.2667 15.6312 18.3344 15.7306C18.4023 15.8312 18.4604 15.9381 18.5079 16.0498C18.6058 16.2805 18.6562 16.5287 18.6561 16.7793C18.6563 17.0302 18.6058 17.2785 18.5079 17.5094C18.4603 17.6209 18.4022 17.7276 18.3344 17.828C18.2668 17.9277 18.1902 18.0209 18.1054 18.1064C18.0199 18.1915 17.9262 18.2683 17.8265 18.3361C17.726 18.4041 17.6195 18.4622 17.5078 18.5095C17.2769 18.6074 17.028 18.6577 16.7772 18.6572V18.6572ZM8.84461 18.3619C8.16856 18.0209 7.55151 17.574 7.01671 17.038C6.48074 16.5029 6.03373 15.8855 5.69266 15.2093C5.69953 15.1764 5.70385 15.1428 5.70496 15.1092C6.57181 15.3647 7.45296 15.5676 8.34428 15.7168C8.4912 16.6062 8.69154 17.4859 8.94421 18.3512C8.91014 18.3521 8.87626 18.3559 8.84285 18.3626L8.84461 18.3619ZM8.18141 14.5224C7.70147 14.4336 7.213 14.3262 6.73725 14.2039C6.26151 14.0815 5.78155 13.9405 5.3136 13.7839C5.26122 13.7658 5.20614 13.7554 5.15073 13.7533C5.00932 13.1895 4.93828 12.6104 4.93865 12.0291C4.93853 11.4473 5.00957 10.8676 5.15073 10.3032C5.20381 10.3008 5.25675 10.2911 5.30716 10.2743C5.7733 10.1189 6.25264 9.97858 6.73198 9.85439C7.21132 9.73021 7.69607 9.62638 8.18141 9.53759C7.99908 11.1924 7.99908 12.8622 8.18141 14.517V14.5224ZM18.4223 8.97487C17.5332 8.70965 16.6285 8.50032 15.7133 8.34799C15.5599 7.43209 15.3504 6.52648 15.0858 5.63632C15.4482 5.8108 15.7948 6.01551 16.1228 6.24825C16.4487 6.4802 16.7549 6.73889 17.0379 7.02159C17.3201 7.30493 17.5784 7.61106 17.8101 7.93701C18.0429 8.26489 18.2474 8.61189 18.4217 8.97428L18.4223 8.97487ZM5.63466 8.96769C5.80418 8.61632 6.00182 8.27946 6.22638 7.96044C6.4496 7.64274 6.69874 7.34396 6.97101 7.06715C7.24274 6.79021 7.53659 6.53594 7.84981 6.30699C8.1644 6.07653 8.49758 5.87255 8.84578 5.69695C8.87876 5.70382 8.91229 5.70766 8.94596 5.70838C8.69293 6.57415 8.49259 7.45433 8.34604 8.34433C7.42908 8.49471 6.52277 8.70237 5.63173 8.96593L5.63466 8.96769ZM14.5187 8.18234C13.6886 8.09015 12.854 8.04391 12.0188 8.04378C11.1907 8.04391 10.3632 8.08941 9.54003 8.17999C9.62762 7.69645 9.73464 7.21111 9.85522 6.73657C9.97581 6.26203 10.1175 5.7821 10.2747 5.31775C10.2933 5.26507 10.3041 5.20985 10.3058 5.15401C10.8696 5.01291 11.4487 4.94158 12.03 4.94163C12.6116 4.94136 13.1911 5.01269 13.7553 5.15401C13.7575 5.2095 13.7673 5.2644 13.7846 5.31717C13.94 5.78451 14.0811 6.26272 14.2047 6.73906C14.3283 7.2154 14.434 7.6988 14.5228 8.18234H14.5187Z" fill="#F2F2F8" />
</svg>
    