<svg width="17" height="17" viewBox="0 0 17 17" fill="none" xmlns="http://www.w3.org/2000/svg">
    <path d="M1.87418 9.10148C2.20776 8.52391 2.87933 8.20472 3.76208 8.20472H4.59444V5.37847C4.58755 5.31972 4.59318 5.26018 4.61097 5.20376C4.62875 5.14735 4.65828 5.09534 4.69762 5.05116C4.73696 5.00699 4.78521 4.97165 4.83919 4.94747C4.89318 4.92329 4.95167 4.91082 5.01082 4.91089C5.12247 4.91078 5.22965 4.95475 5.30905 5.03325C5.38845 5.11175 5.43364 5.21842 5.4348 5.33007C5.4348 5.34127 5.4348 5.35207 5.4348 5.36367V8.20352H6.27476C7.15752 8.20352 7.82948 8.52351 8.16267 9.10028C8.49585 9.67705 8.43505 10.4202 7.99347 11.1854L6.73954 13.3601C6.29956 14.1252 5.68759 14.5484 5.01962 14.5484C4.35166 14.5484 3.73889 14.1264 3.29091 13.3609L2.03857 11.1866C1.80309 10.8062 1.6719 10.3706 1.65819 9.92344C1.65501 9.63502 1.72962 9.35108 1.87418 9.10148ZM7.4339 9.54146C7.29404 9.35539 7.10769 9.20939 6.89356 9.11812C6.67943 9.02685 6.44505 8.99352 6.21396 9.02148H3.81848C3.58734 8.99349 3.35289 9.0268 3.13869 9.11807C2.92449 9.20934 2.73806 9.35535 2.59814 9.54146C2.50737 9.75631 2.47439 9.99117 2.50245 10.2227C2.53052 10.4543 2.61866 10.6744 2.75814 10.8614L3.95568 12.9385C4.0465 13.1528 4.19218 13.3394 4.37805 13.4794C4.56391 13.6195 4.7834 13.7082 5.01442 13.7364C5.24598 13.7082 5.46599 13.6193 5.65218 13.4788C5.83837 13.3383 5.98415 13.151 6.07477 12.9361L7.27231 10.859C7.43843 10.598 7.53279 10.2978 7.5459 9.98864C7.54832 9.83184 7.50971 9.67713 7.4339 9.53986V9.54146Z" fill="#EFF1F8" />
    <path d="M8.96706 8.43075C9.30065 9.00832 9.97221 9.3275 10.855 9.3275H11.6877V12.1538C11.6809 12.2123 11.6864 12.2716 11.7041 12.3279C11.7217 12.3841 11.751 12.436 11.7901 12.4802C11.8292 12.5243 11.8771 12.5597 11.9308 12.584C11.9845 12.6083 12.0428 12.6211 12.1017 12.6213C12.2134 12.6214 12.3205 12.5775 12.3999 12.499C12.4793 12.4205 12.5245 12.3138 12.5257 12.2022C12.5257 12.191 12.5257 12.1802 12.5257 12.1686V9.3287H13.3656C14.2484 9.3287 14.9204 9.00872 15.2535 8.43195C15.5867 7.85518 15.5259 7.11201 15.0844 6.34685L13.8304 4.17216C13.3904 3.407 12.7785 2.98382 12.1105 2.98382C11.4425 2.98382 10.831 3.4058 10.3854 4.17096L9.13146 6.34565C8.89597 6.726 8.76478 7.16165 8.75107 7.60879C8.74789 7.89721 8.82251 8.18115 8.96706 8.43075ZM14.5268 7.99077C14.3869 8.17684 14.2006 8.32284 13.9864 8.41411C13.7723 8.50538 13.5379 8.53871 13.3068 8.51074H10.911C10.6798 8.53874 10.4454 8.50543 10.2312 8.41416C10.017 8.32289 9.83055 8.17687 9.69063 7.99077C9.59986 7.77591 9.56687 7.54105 9.59494 7.30951C9.623 7.07796 9.71115 6.85778 9.85062 6.67084L11.0482 4.59374C11.1397 4.37936 11.2861 4.19291 11.4727 4.05323C11.6593 3.91355 11.8794 3.82557 12.1109 3.79818C12.3419 3.82646 12.5614 3.9151 12.7473 4.05518C12.9331 4.19527 13.0788 4.38185 13.1697 4.59614L14.3672 6.67323C14.5333 6.93426 14.6277 7.23447 14.6408 7.54359C14.6426 7.70057 14.6033 7.85529 14.5268 7.99237V7.99077Z" fill="#EFF1F8" />
</svg>
    