<svg width="14" height="14" viewBox="0 0 14 14" fill="none" xmlns="http://www.w3.org/2000/svg">
    <g clip-path="url(#clip0_930_32211)">
        <path d="M1.20241 7.29335C1.49429 6.78798 2.08191 6.50869 2.85432 6.50869H3.58264V4.03572C3.57661 3.98431 3.58153 3.93221 3.5971 3.88285C3.61266 3.83349 3.6385 3.78798 3.67292 3.74933C3.70734 3.71067 3.74956 3.67975 3.79679 3.6586C3.84403 3.63744 3.89521 3.62653 3.94697 3.62659C4.04466 3.62649 4.13845 3.66497 4.20792 3.73365C4.27739 3.80234 4.31694 3.89568 4.31795 3.99337C4.31795 4.00317 4.31795 4.01262 4.31795 4.02277V6.50764H5.05291C5.82533 6.50764 6.4133 6.78763 6.70483 7.2923C6.99637 7.79698 6.94317 8.44725 6.55679 9.11676L5.45959 11.0196C5.07461 11.6891 4.53914 12.0594 3.95467 12.0594C3.3702 12.0594 2.83403 11.6902 2.44205 11.0203L1.34625 9.11781C1.1402 8.78501 1.02541 8.40381 1.01342 8.01257C1.01063 7.7602 1.07592 7.51175 1.20241 7.29335ZM6.06716 7.67833C5.94479 7.51552 5.78173 7.38777 5.59436 7.30791C5.407 7.22805 5.20192 7.19889 4.99972 7.22336H2.90367C2.70142 7.19886 2.49628 7.22801 2.30885 7.30787C2.12142 7.38773 1.95831 7.51549 1.83588 7.67833C1.75645 7.86633 1.72759 8.07184 1.75215 8.27444C1.7767 8.47704 1.85383 8.6697 1.97587 8.83328L3.02372 10.6507C3.10319 10.8382 3.23066 11.0015 3.39329 11.1241C3.55592 11.2466 3.74798 11.3242 3.95012 11.349C4.15274 11.3242 4.34524 11.2465 4.50815 11.1235C4.67107 11.0005 4.79863 10.8367 4.87792 10.6486L5.92577 8.83118C6.07112 8.60278 6.15369 8.3401 6.16516 8.06961C6.16728 7.93242 6.1335 7.79705 6.06716 7.67693V7.67833Z" fill="#EFF1F8" />
        <path d="M7.40978 6.70665C7.70166 7.21202 8.28929 7.49131 9.0617 7.49131H9.79036V9.96428C9.78435 10.0155 9.78922 10.0674 9.80466 10.1167C9.8201 10.1659 9.84575 10.2113 9.87994 10.2499C9.91413 10.2885 9.9561 10.3195 10.0031 10.3408C10.0501 10.362 10.101 10.3732 10.1526 10.3734C10.2503 10.3735 10.3441 10.335 10.4135 10.2663C10.483 10.1977 10.5226 10.1043 10.5236 10.0066C10.5236 9.99683 10.5236 9.98738 10.5236 9.97723V7.49236H11.2585C12.0309 7.49236 12.6189 7.21237 12.9105 6.7077C13.202 6.20302 13.1488 5.55275 12.7624 4.88324L11.6652 2.98038C11.2802 2.31087 10.7448 1.94059 10.1603 1.94059C9.57582 1.94059 9.0407 2.30982 8.65082 2.97933L7.55362 4.88219C7.34757 5.21499 7.23278 5.59619 7.22079 5.98743C7.218 6.2398 7.28329 6.48825 7.40978 6.70665ZM12.2745 6.32167C12.1522 6.48448 11.9891 6.61223 11.8017 6.69209C11.6144 6.77195 11.4093 6.80111 11.2071 6.77664H9.11069C8.90844 6.80114 8.7033 6.77199 8.51587 6.69213C8.32845 6.61227 8.16533 6.48451 8.0429 6.32167C7.96347 6.13367 7.93461 5.92816 7.95917 5.72556C7.98373 5.52296 8.06085 5.3303 8.18289 5.16672L9.23074 3.34926C9.3108 3.16168 9.43893 2.99854 9.6022 2.87632C9.76547 2.7541 9.9581 2.67711 10.1606 2.65315C10.3628 2.67789 10.5548 2.75546 10.7175 2.87803C10.8801 3.0006 11.0076 3.16386 11.087 3.35136L12.1349 5.16882C12.2802 5.39722 12.3628 5.6599 12.3743 5.93039C12.3759 6.06774 12.3415 6.20312 12.2745 6.32307V6.32167Z" fill="#EFF1F8" />
    </g>
    <defs>
        <clipPath id="clip0_930_32211">
            <rect width="14" height="14" fill="white" />
        </clipPath>
    </defs>
</svg>
    