<svg width="16" height="17" viewBox="0 0 16 17" fill="none" xmlns="http://www.w3.org/2000/svg">
    <g clip-path="url(#clip0_1994_93926)">
        <path d="M8.00022 13.0649C7.09725 13.065 6.21454 12.7973 5.46372 12.2957C4.7129 11.7941 4.12769 11.0811 3.7821 10.2469C3.43651 9.41266 3.34607 8.4947 3.52221 7.60908C3.69835 6.72346 4.13316 5.90996 4.77166 5.27146C5.41015 4.63297 6.22365 4.19816 7.10927 4.02201C7.99489 3.84587 8.91286 3.93632 9.74708 4.2819C10.5813 4.62749 11.2943 5.2127 11.7959 5.96352C12.2975 6.71435 12.5652 7.59706 12.5651 8.50003C12.5642 9.71043 12.0829 10.871 11.227 11.7269C10.3712 12.5827 9.21062 13.064 8.00022 13.0649ZM8.00022 4.87914C7.28416 4.87914 6.58417 5.09148 5.98879 5.4893C5.3934 5.88712 4.92935 6.45257 4.65532 7.11413C4.3813 7.77568 4.3096 8.50364 4.4493 9.20595C4.589 9.90826 4.93381 10.5534 5.44015 11.0597C5.94648 11.566 6.59159 11.9109 7.2939 12.0506C7.99621 12.1902 8.72417 12.1186 9.38572 11.8445C10.0473 11.5705 10.6127 11.1065 11.0105 10.5111C11.4084 9.91568 11.6207 9.21569 11.6207 8.49963C11.6194 7.5398 11.2376 6.61966 10.5589 5.94096C9.88019 5.26226 8.96005 4.88041 8.00022 4.87914Z" fill="#EFF1F8" />
        <path d="M8.00006 15.401C7.9188 15.4036 7.83785 15.3899 7.76195 15.3607C7.68606 15.3316 7.61676 15.2876 7.55811 15.2313C7.49946 15.175 7.45265 15.1075 7.42042 15.0329C7.38819 14.9582 7.3712 14.8779 7.37044 14.7966V14.7462C7.37044 14.5792 7.43678 14.4191 7.55485 14.301C7.67293 14.1829 7.83308 14.1166 8.00006 14.1166C8.16704 14.1166 8.32719 14.1829 8.44526 14.301C8.56334 14.4191 8.62967 14.5792 8.62967 14.7462C8.6301 14.9157 8.56468 15.0787 8.44721 15.2009C8.32975 15.323 8.16942 15.3948 8.00006 15.401ZM12.4958 13.6254C12.3287 13.6248 12.1684 13.5594 12.0486 13.443L11.9686 13.363C11.8508 13.2452 11.7846 13.0855 11.7846 12.919C11.7846 12.7524 11.8508 12.5927 11.9686 12.475C12.0863 12.3572 12.246 12.291 12.4126 12.291C12.5791 12.291 12.7388 12.3572 12.8566 12.475L12.9366 12.555C12.995 12.6132 13.0413 12.6824 13.0729 12.7586C13.1045 12.8348 13.1208 12.9165 13.1208 12.999C13.1208 13.0815 13.1045 13.1631 13.0729 13.2393C13.0413 13.3155 12.995 13.3847 12.9366 13.443C12.8788 13.501 12.8101 13.547 12.7344 13.5783C12.6588 13.6096 12.5777 13.6256 12.4958 13.6254ZM3.50395 13.6254C3.33688 13.6248 3.17655 13.5594 3.05674 13.443C2.99834 13.3847 2.95202 13.3155 2.92041 13.2393C2.8888 13.1631 2.87253 13.0815 2.87253 12.999C2.87253 12.9165 2.8888 12.8348 2.92041 12.7586C2.95202 12.6824 2.99834 12.6132 3.05674 12.555L3.13674 12.475C3.2545 12.3572 3.41421 12.291 3.58075 12.291C3.74729 12.291 3.907 12.3572 4.02476 12.475C4.14252 12.5927 4.20868 12.7524 4.20868 12.919C4.20868 13.0855 4.14252 13.2452 4.02476 13.363L3.94476 13.443C3.82739 13.5592 3.6691 13.6247 3.50395 13.6254ZM14.2966 9.12967H14.2462C14.0792 9.12967 13.9191 9.06334 13.801 8.94526C13.6829 8.82719 13.6166 8.66704 13.6166 8.50006C13.6166 8.33308 13.6829 8.17293 13.801 8.05485C13.9191 7.93678 14.0792 7.87044 14.2462 7.87044C14.4157 7.87002 14.5787 7.93544 14.7009 8.0529C14.823 8.17037 14.8948 8.3307 14.901 8.50006C14.9036 8.58132 14.8899 8.66227 14.8607 8.73816C14.8316 8.81406 14.7876 8.88336 14.7313 8.94201C14.675 9.00066 14.6075 9.04747 14.5329 9.0797C14.4582 9.11193 14.3779 9.12892 14.2966 9.12967ZM1.7535 9.12967H1.7031C1.53612 9.12967 1.37597 9.06334 1.2579 8.94526C1.13982 8.82719 1.07349 8.66704 1.07349 8.50006C1.07349 8.33308 1.13982 8.17293 1.2579 8.05485C1.37597 7.93678 1.53612 7.87044 1.7031 7.87044C1.87258 7.87002 2.0356 7.93544 2.15776 8.0529C2.27993 8.17037 2.3517 8.3307 2.35792 8.50006C2.36048 8.58132 2.34678 8.66227 2.31763 8.73816C2.28848 8.81406 2.24446 8.88336 2.18816 8.94201C2.13186 9.00066 2.06441 9.04747 1.98977 9.0797C1.91513 9.11193 1.8348 9.12892 1.7535 9.12967ZM12.4138 4.71556C12.2469 4.715 12.0867 4.64976 11.967 4.53356C11.9086 4.4753 11.8622 4.40609 11.8306 4.3299C11.799 4.25371 11.7827 4.17204 11.7827 4.08955C11.7827 4.00706 11.799 3.92539 11.8306 3.8492C11.8622 3.77301 11.9086 3.7038 11.967 3.64554L12.047 3.56554C12.1647 3.44778 12.3244 3.38162 12.491 3.38162C12.6575 3.38162 12.8172 3.44778 12.935 3.56554C13.0527 3.6833 13.1189 3.84301 13.1189 4.00955C13.1189 4.17608 13.0527 4.3358 12.935 4.45356L12.855 4.53356C12.7971 4.59156 12.7283 4.63751 12.6526 4.66875C12.5769 4.69999 12.4957 4.7159 12.4138 4.71556ZM3.58555 4.71556C3.41867 4.715 3.25851 4.64976 3.13874 4.53356L3.05874 4.44556C3.00043 4.38725 2.95417 4.31803 2.92262 4.24184C2.89106 4.16566 2.87482 4.08401 2.87482 4.00155C2.87482 3.91909 2.89106 3.83743 2.92262 3.76125C2.95417 3.68507 3.00043 3.61584 3.05874 3.55754C3.11704 3.49923 3.18627 3.45297 3.26245 3.42142C3.33863 3.38986 3.42029 3.37362 3.50275 3.37362C3.58521 3.37362 3.66686 3.38986 3.74304 3.42142C3.81923 3.45297 3.88845 3.49923 3.94676 3.55754L4.02676 3.63754C4.08515 3.6958 4.13148 3.76501 4.16309 3.8412C4.1947 3.91739 4.21097 3.99906 4.21097 4.08155C4.21097 4.16404 4.1947 4.24571 4.16309 4.3219C4.13148 4.39809 4.08515 4.4673 4.02676 4.52556C3.96992 4.58536 3.90156 4.63302 3.8258 4.66568C3.75004 4.69833 3.66805 4.7153 3.58555 4.71556ZM8.00006 2.85792C7.91877 2.86053 7.83777 2.84688 7.76183 2.81775C7.68589 2.78862 7.61654 2.74461 7.55785 2.6883C7.49915 2.632 7.45231 2.56453 7.42006 2.48986C7.3878 2.41519 7.3708 2.33483 7.37004 2.2535V2.2031C7.37004 2.03612 7.43638 1.87597 7.55445 1.7579C7.67253 1.63982 7.83268 1.57349 7.99966 1.57349C8.16664 1.57349 8.32679 1.63982 8.44486 1.7579C8.56294 1.87597 8.62927 2.03612 8.62927 2.2031C8.6297 2.37251 8.56434 2.53547 8.44696 2.65763C8.32958 2.77979 8.16935 2.85159 8.00006 2.85792Z" fill="#EFF1F8" />
    </g>
    <defs>
        <clipPath id="clip0_1994_93926">
            <rect width="16" height="16" fill="white" transform="translate(0 0.5)" />
        </clipPath>
    </defs>
</svg>
    