<svg width="18" height="18" viewBox="0 0 18 18" fill="none" xmlns="http://www.w3.org/2000/svg">
    <path d="M9.00005 16.9855C6.88267 16.9831 4.85279 16.1408 3.35558 14.6436C1.85836 13.1463 1.01605 11.1165 1.01367 8.99908C1.01605 6.8817 1.85836 4.85159 3.35558 3.35438C4.85279 1.85716 6.88267 1.01508 9.00005 1.0127C11.1174 1.01508 13.1473 1.85716 14.6445 3.35438C16.1417 4.85159 16.9841 6.8817 16.9864 8.99908C16.9841 11.1165 16.1417 13.1463 14.6445 14.6436C13.1473 16.1408 11.1174 16.9831 9.00005 16.9855ZM8.86162 12.6838C8.70853 12.6839 8.56205 12.7447 8.4538 12.853C8.34555 12.9612 8.28472 13.1079 8.28461 13.261C8.28472 13.4141 8.34555 13.561 8.4538 13.6693C8.56205 13.7775 8.70853 13.8383 8.86162 13.8385C9.01495 13.8386 9.16217 13.778 9.27076 13.6697C9.37935 13.5614 9.44048 13.4143 9.44083 13.261C9.44048 13.1077 9.37969 12.961 9.2712 12.8527C9.16271 12.7445 9.01531 12.6838 8.86206 12.6838H8.86162ZM9.39293 5.34317C9.5665 5.34134 9.73722 5.38598 9.88777 5.47238C10.0399 5.56795 10.1664 5.69889 10.2569 5.85405C10.3474 6.00921 10.3993 6.18396 10.4077 6.36339C10.443 6.80396 10.3395 7.24446 10.1119 7.62333C9.94394 7.92031 9.71028 8.17472 9.42853 8.36713C9.41593 8.37433 9.05729 8.69389 8.99654 8.74924C8.72494 8.99928 8.52738 9.31952 8.42611 9.67453C8.27537 10.0687 8.22167 10.4932 8.26922 10.9125C8.27552 10.9755 8.28021 11.03 8.28021 11.0804C8.28021 11.1191 8.28021 11.1528 8.28021 11.1856V11.2045V11.2072C8.27586 11.2808 8.27728 11.3547 8.28373 11.4282C8.28583 11.4768 8.29709 11.5245 8.31756 11.5686C8.32695 11.5851 8.33295 11.6034 8.33514 11.6222C8.37824 11.7247 8.44971 11.8128 8.54081 11.8765C8.63191 11.9402 8.73916 11.9768 8.8502 11.9822H8.85767C8.95758 11.9749 9.05496 11.9467 9.14332 11.8995C9.23168 11.8523 9.30935 11.7871 9.37096 11.7082C9.42535 11.6334 9.45246 11.5421 9.44787 11.4497C9.36562 11.0057 9.39387 10.5482 9.53049 10.1177C9.63606 9.82027 9.81304 9.55315 10.0455 9.33966C10.4672 9.06928 10.8193 8.70381 11.0743 8.27264C11.1763 8.09448 11.2643 7.90872 11.3376 7.71694C11.4078 7.53284 11.4631 7.34347 11.5028 7.15047C11.5412 6.96627 11.5641 6.77907 11.5709 6.59103C11.5774 6.41049 11.5671 6.22964 11.5406 6.05093C11.516 5.88004 11.4754 5.712 11.4189 5.54884C11.3647 5.3914 11.2928 5.24047 11.2053 5.09883C11.1191 4.96089 11.0174 4.83321 10.9021 4.71848C10.7852 4.60417 10.6545 4.50497 10.5131 4.42294C10.3614 4.33558 10.1989 4.26927 10.0293 4.22584C9.86068 4.18235 9.68702 4.16055 9.51291 4.16102C9.26642 4.1627 9.02147 4.20133 8.78647 4.27572C8.5371 4.3566 8.29951 4.46933 8.07894 4.61103C7.59355 4.92874 7.1903 5.35695 6.90249 5.86064C6.80049 6.0395 6.71236 6.22601 6.63881 6.41832C6.56751 6.60202 6.5123 6.7915 6.47401 6.98479C6.45172 7.15052 6.44035 7.31747 6.44017 7.48468C6.44029 7.63769 6.50121 7.78449 6.60937 7.89273C6.71752 8.00096 6.86418 8.0619 7.01719 8.06214C7.1708 8.06346 7.31886 8.00381 7.42853 7.89624C7.5382 7.78868 7.60045 7.64203 7.60212 7.48842C7.60212 7.48122 7.60204 7.46452 7.60519 7.44337V7.42404V7.41415C7.60519 7.39255 7.60915 7.3736 7.60915 7.3691C7.62701 7.00997 7.73159 6.66044 7.91414 6.35065C8.05511 6.07121 8.26458 5.83231 8.52323 5.65607C8.78188 5.47984 9.08129 5.37213 9.39293 5.34317Z" fill="#EFF1F8" />
</svg>
    