<svg width="18" height="19" viewBox="0 0 18 19" fill="none" xmlns="http://www.w3.org/2000/svg">
    <path d="M9.00002 17.4864C7.42047 17.4864 5.8764 17.018 4.56305 16.1404C3.2497 15.2629 2.22607 14.0156 1.6216 12.5563C1.01713 11.097 0.858976 9.49117 1.16713 7.94197C1.47529 6.39277 2.23591 4.96973 3.35282 3.85282C4.46973 2.73591 5.89277 1.97529 7.44197 1.66713C8.99117 1.35898 10.597 1.51713 12.0563 2.1216C13.5156 2.72607 14.7629 3.7497 15.6404 5.06305C16.518 6.3764 16.9864 7.92047 16.9864 9.50002C16.9846 11.6176 16.1426 13.6479 14.6453 15.1453C13.1479 16.6426 11.1176 17.4846 9.00002 17.4864ZM9.00002 2.62835C7.64083 2.62835 6.31216 3.03141 5.18203 3.78655C4.05191 4.54168 3.17109 5.61499 2.65097 6.87073C2.13085 8.12647 1.99478 9.50825 2.25998 10.8413C2.52518 12.1744 3.17973 13.3989 4.14086 14.36C5.10199 15.321 6.32653 15.9755 7.65962 16.2406C8.99271 16.5057 10.3745 16.3696 11.6302 15.8494C12.8859 15.3292 13.9591 14.4483 14.7142 13.3181C15.4693 12.1879 15.8722 10.8592 15.8721 9.50002C15.87 7.67808 15.1453 5.93138 13.857 4.64307C12.5687 3.35476 10.822 2.63005 9.00002 2.6279V2.62835Z" fill="#EFF1F8" />
    <path d="M8.2855 13.7613C8.28561 13.6082 8.34644 13.4614 8.45469 13.3532C8.56294 13.2449 8.70986 13.184 8.86295 13.1839C9.01612 13.1839 9.16287 13.2447 9.27121 13.353C9.37956 13.4612 9.44073 13.6082 9.44085 13.7613C9.44073 13.9145 9.37956 14.0613 9.27121 14.1696C9.16287 14.2779 9.01612 14.3387 8.86295 14.3387C8.70986 14.3386 8.56294 14.2776 8.45469 14.1694C8.34644 14.0611 8.28561 13.9144 8.2855 13.7613ZM8.84537 12.4811C8.73446 12.4757 8.62737 12.439 8.53643 12.3753C8.44549 12.3115 8.37414 12.2234 8.3312 12.121C8.32445 12.0621 8.29239 12.0629 8.27934 11.9274C8.27276 11.8117 8.27276 11.6958 8.27934 11.58C8.21021 11.1065 8.25969 10.6232 8.42393 10.1738C8.52399 9.81824 8.72192 9.49791 8.99479 9.24902C9.06004 9.19052 9.41464 8.87412 9.42634 8.86647C9.70846 8.67416 9.9423 8.41956 10.1102 8.12223C10.3377 7.74431 10.4415 7.3046 10.4068 6.86482C10.3979 6.68506 10.346 6.51011 10.2552 6.35471C10.1644 6.19931 10.0374 6.06806 9.88514 5.97205C9.73521 5.88625 9.56524 5.84202 9.39251 5.84383C9.08016 5.87238 8.78037 5.97987 8.52105 6.15629C8.26173 6.33271 8.05144 6.57225 7.91019 6.85229C7.72733 7.16143 7.62285 7.51056 7.60564 7.86932C7.60564 7.88552 7.59598 7.97139 7.59598 7.98984C7.59408 8.14338 7.53157 8.28993 7.42195 8.39745C7.31233 8.50496 7.16459 8.56476 7.01105 8.56367C6.85792 8.56367 6.71106 8.50287 6.60279 8.39459C6.49451 8.28631 6.43359 8.13946 6.43359 7.98633C6.43388 7.8188 6.44539 7.65146 6.46787 7.48545C6.5072 7.29256 6.56238 7.10319 6.63267 6.91931C6.70586 6.72676 6.79444 6.54043 6.89767 6.36218C7.18443 5.85749 7.58769 5.42857 8.07367 5.11114C8.29391 4.96917 8.53159 4.85692 8.78121 4.77725C9.01604 4.7021 9.26109 4.66332 9.50765 4.66211C9.68172 4.6618 9.85535 4.68334 10.024 4.72638C10.1935 4.7702 10.3563 4.83678 10.5079 4.92436C10.6496 5.0062 10.7801 5.10579 10.8968 5.22056C11.0124 5.33479 11.1139 5.46227 11.1996 5.60037C11.2867 5.74233 11.3586 5.89319 11.4136 6.05038C11.4705 6.21296 11.5111 6.38073 11.5353 6.55126C11.561 6.73004 11.5709 6.91075 11.5643 7.09125C11.5577 7.2794 11.5351 7.46662 11.4971 7.65102C11.4576 7.84383 11.4031 8.03317 11.3332 8.21716C11.2596 8.40955 11.1706 8.59584 11.0677 8.77429C10.8118 9.20411 10.4603 9.56881 10.0398 9.83988C9.80801 10.0546 9.63105 10.3219 9.52434 10.6193C9.38959 11.0501 9.36136 11.5072 9.44173 11.9514C9.44746 12.0438 9.42024 12.1351 9.36482 12.2092C9.30375 12.2887 9.22632 12.3543 9.13806 12.4017C9.04979 12.4492 8.95237 12.4774 8.8524 12.4846L8.84537 12.4811Z" fill="#EFF1F8" />
</svg>
    