<svg width="18" height="18" viewBox="0 0 18 18" fill="none" xmlns="http://www.w3.org/2000/svg">
    <g clip-path="url(#clip0_930_33217)">
        <path d="M8.97039 16.8475C7.418 16.8476 5.90044 16.3873 4.60964 15.5249C3.31883 14.6625 2.31276 13.4367 1.71864 12.0025C1.12452 10.5682 0.969054 8.99007 1.27189 7.4675C1.57472 5.94494 2.32226 4.54636 3.41997 3.44866C4.51768 2.35095 5.91625 1.60341 7.43882 1.30058C8.96138 0.99774 10.5396 1.15321 11.9738 1.74733C13.408 2.34144 14.6338 3.34752 15.4962 4.63832C16.3586 5.92913 16.8189 7.44668 16.8188 8.99908C16.817 11.0801 15.9895 13.0753 14.5181 14.5468C13.0466 16.0182 11.0514 16.8457 8.97039 16.8475ZM8.97039 2.24514C7.63469 2.24514 6.329 2.64121 5.2184 3.38328C4.1078 4.12534 3.24219 5.18006 2.73102 6.41407C2.21985 7.64809 2.08609 9.00596 2.34664 10.316C2.60718 11.626 3.25035 12.8294 4.19479 13.7739C5.13924 14.7184 6.34256 15.3617 7.65257 15.6223C8.96259 15.8829 10.3205 15.7493 11.5545 15.2382C12.7886 14.7271 13.8434 13.8615 14.5855 12.751C15.3276 11.6404 15.7238 10.3348 15.7239 8.99908C15.7217 7.2086 15.0095 5.49207 13.7435 4.22601C12.4774 2.95995 10.7609 2.24773 8.97039 2.24559V2.24514Z" fill="#EFF1F8" />
        <path d="M3.78613 14.6578C3.71417 14.6582 3.64286 14.6441 3.5764 14.6165C3.50994 14.5889 3.44966 14.5484 3.39911 14.4971C3.29731 14.394 3.24023 14.255 3.24023 14.1101C3.24023 13.9652 3.29731 13.8262 3.39911 13.7231L13.6205 3.50174C13.7231 3.3991 13.8623 3.34143 14.0075 3.34143C14.1526 3.34143 14.2919 3.3991 14.3945 3.50174C14.4972 3.60438 14.5548 3.7436 14.5548 3.88876C14.5548 4.03392 14.4972 4.17313 14.3945 4.27578L4.17315 14.4971C4.1226 14.5484 4.06232 14.5889 3.99586 14.6165C3.92939 14.6441 3.85809 14.6582 3.78613 14.6578Z" fill="#EFF1F8" />
    </g>
    <defs>
        <clipPath id="clip0_930_33217">
            <rect width="18" height="18" fill="white" />
        </clipPath>
    </defs>
</svg>
    