<svg width="17" height="16" viewBox="0 0 17 16" fill="none" xmlns="http://www.w3.org/2000/svg">
    <g clip-path="url(#clip0_934_43507)">
        <path fill-rule="evenodd" clip-rule="evenodd" d="M4.80601 13.7994C5.95339 14.5659 7.30233 14.9751 8.68223 14.975C10.532 14.9734 12.3055 14.2379 13.6135 12.9299C14.9215 11.6219 15.657 9.84839 15.6586 7.99864C15.6587 6.61873 15.2495 5.26979 14.483 4.12241C13.7164 2.97503 12.6268 2.08074 11.3519 1.55264C10.0771 1.02453 8.67423 0.886338 7.32083 1.15552C5.96744 1.42471 4.72426 2.08919 3.74852 3.06493C2.77278 4.04067 2.1083 5.28384 1.83912 6.63724C1.56993 7.99063 1.70813 9.39346 2.23623 10.6683C2.76433 11.9432 3.65862 13.0328 4.80601 13.7994ZM5.34713 3.00681C6.33432 2.3472 7.49495 1.99514 8.68223 1.99514C10.0952 1.99683 11.4564 2.49643 12.5316 3.39597L4.07767 11.8499C3.43383 11.0802 2.99129 10.159 2.79445 9.16924C2.56285 8.00476 2.68175 6.79776 3.13613 5.70086C3.5905 4.60396 4.35993 3.66642 5.34713 3.00681ZM4.76043 12.5432L13.2249 4.07871C14.1622 5.16455 14.6836 6.55454 14.6853 7.99864C14.6853 9.18592 14.3331 10.3465 13.6734 11.3337C13.0138 12.3208 12.0762 13.0902 10.9792 13.5445C9.88231 13.9988 8.6753 14.1176 7.51084 13.8859C6.491 13.683 5.54391 13.2193 4.76043 12.5432Z" fill="#EFF1F8" />
    </g>
    <defs>
        <clipPath id="clip0_934_43507">
            <rect width="16" height="16" fill="white" transform="translate(0.708984)" />
        </clipPath>
    </defs>
</svg>
    