<svg width="30" height="31" viewBox="0 0 30 31" fill="none" xmlns="http://www.w3.org/2000/svg">
    <g clip-path="url(#clip0_934_50376)">
        <path fill-rule="evenodd" clip-rule="evenodd" d="M2.0923 14.1915C2.04662 14.6308 2.02437 15.0721 2.02545 15.5137C2.02407 15.9569 2.04632 16.3996 2.0923 16.8404C2.13504 17.2716 2.20038 17.7002 2.28843 18.1245C2.45792 18.9561 2.70991 19.7699 3.04065 20.5516C3.36785 21.3207 3.76702 22.057 4.23289 22.7509C4.69744 23.4373 5.22683 24.0778 5.81299 24.6638C6.40167 25.2485 7.04319 25.777 7.72953 26.2431C8.42142 26.7087 9.15644 27.1068 9.92449 27.4317C10.706 27.762 11.5181 28.0139 12.3494 28.1839C12.8014 28.275 13.234 28.3409 13.6349 28.3823C14.0756 28.4265 14.5187 28.4485 14.9616 28.4484C15.4121 28.4484 15.8573 28.4251 16.2838 28.3823C16.7132 28.3381 17.1402 28.272 17.5627 28.1839C18.3952 28.0138 19.2084 27.7619 19.9913 27.4317C20.7595 27.1071 21.4945 26.709 22.1862 26.2431C22.8716 25.7756 23.513 25.2472 24.1028 24.6638C24.6855 24.0747 25.2147 23.4345 25.6829 22.7509C26.1484 22.0574 26.5464 21.321 26.8715 20.5516C27.2047 19.7708 27.4568 18.9568 27.6237 18.1245C27.7072 17.7281 27.7821 17.3038 27.8242 16.8404C27.8663 16.377 27.8874 15.9252 27.8874 15.5137C27.8874 15.1023 27.8663 14.6571 27.8242 14.1915C27.7738 13.7454 27.7072 13.3157 27.6237 12.9133C27.4556 12.0803 27.2036 11.2669 26.8715 10.4847C26.5474 9.71626 26.1493 8.97969 25.6829 8.28833C25.2148 7.60317 24.6857 6.96159 24.1028 6.37105C23.5138 5.78807 22.8723 5.26096 22.1862 4.79609C21.4947 4.32911 20.7596 3.93009 19.9913 3.60459C19.2086 3.27392 18.3953 3.02194 17.5627 2.85237C17.1406 2.76265 16.7135 2.69753 16.2838 2.65697C15.8445 2.61118 15.4032 2.5887 14.9616 2.58939C14.5186 2.58841 14.0754 2.6109 13.6349 2.65697C13.2033 2.69989 12.7742 2.76499 12.3494 2.85237C11.5181 3.02234 10.706 3.27432 9.92449 3.60459C9.15617 3.93016 8.42112 4.32917 7.72953 4.79609C7.04276 5.25999 6.40117 5.78717 5.81299 6.37105C5.22861 6.96026 4.69937 7.60198 4.23289 8.28833C3.76534 8.97966 3.36607 9.71621 3.04065 10.4847C2.71004 11.2675 2.45806 12.0807 2.28843 12.9133C2.20095 13.3359 2.13561 13.7621 2.0923 14.1915ZM20.1068 19.8639C20.5878 19.7108 20.8536 19.1967 20.7005 18.7158C20.5474 18.2348 20.0334 17.969 19.5524 18.1221L11.4886 20.6889C11.0076 20.842 10.7418 21.356 10.8949 21.837C11.0481 22.318 11.5621 22.5838 12.0431 22.4307L20.1068 19.8639ZM11.2829 14.8815C12.1138 14.8815 12.7873 14.2079 12.7873 13.377C12.7873 12.5461 12.1138 11.8726 11.2829 11.8726C10.452 11.8726 9.77847 12.5461 9.77847 13.377C9.77847 14.2079 10.452 14.8815 11.2829 14.8815ZM18.8051 14.8815C19.636 14.8815 20.3095 14.2079 20.3095 13.377C20.3095 12.5461 19.636 11.8726 18.8051 11.8726C17.9742 11.8726 17.3007 12.5461 17.3007 13.377C17.3007 14.2079 17.9742 14.8815 18.8051 14.8815Z" fill="#CED2DF" />
    </g>
    <defs>
        <clipPath id="clip0_934_50376">
            <rect width="30" height="30" fill="white" transform="translate(0 0.5)" />
        </clipPath>
    </defs>
</svg>
    