<svg width="4" height="12" viewBox="0 0 4 12" fill="none" xmlns="http://www.w3.org/2000/svg">
    <path d="M3.21625 1.27549C3.21625 1.94655 2.67225 2.49055 2.00119 2.49055C1.33013 2.49055 0.786133 1.94655 0.786133 1.27549C0.786133 0.604426 1.33013 0.0604248 2.00119 0.0604248C2.67225 0.0604248 3.21625 0.604426 3.21625 1.27549Z" fill="#EFF1F8" />
    <path d="M3.21625 10.726C3.21625 11.397 2.67225 11.941 2.00119 11.941C1.33013 11.941 0.786133 11.397 0.786133 10.726C0.786133 10.0549 1.33013 9.5109 2.00119 9.5109C2.67225 9.5109 3.21625 10.0549 3.21625 10.726Z" fill="#EFF1F8" />
    <path d="M3.21625 5.77571C3.21625 6.44677 2.67225 6.99077 2.00119 6.99077C1.33013 6.99077 0.786133 6.44677 0.786133 5.77571C0.786133 5.10465 1.33013 4.56065 2.00119 4.56065C2.67225 4.56065 3.21625 5.10465 3.21625 5.77571Z" fill="#EFF1F8" />
</svg>
    