<svg width="24" height="24" viewBox="0 0 24 24" fill="none" xmlns="http://www.w3.org/2000/svg">
    <path d="M16.8026 9.79934H7.20255C7.01155 9.7957 6.82931 9.71847 6.69375 9.58386C6.59359 9.48311 6.52548 9.35498 6.49799 9.2156C6.47049 9.07622 6.48485 8.93185 6.53924 8.80061C6.59364 8.66937 6.68564 8.55712 6.80367 8.47805C6.9217 8.39899 7.06048 8.35668 7.20255 8.35632H16.8026C16.9446 8.35668 17.0834 8.39899 17.2014 8.47805C17.3195 8.55712 17.4115 8.66937 17.4659 8.80061C17.5203 8.93185 17.5346 9.07622 17.5071 9.2156C17.4796 9.35498 17.4115 9.48311 17.3114 9.58386C17.1758 9.71847 16.9936 9.7957 16.8026 9.79934Z" fill="#F2F2F8" />
    <path d="M11.9991 9.79861C11.8081 9.79503 11.6259 9.71793 11.4903 9.58328C11.3549 9.44897 11.2783 9.2663 11.2773 9.07556V7.45925C11.2773 7.2679 11.3534 7.08436 11.4887 6.94905C11.624 6.81374 11.8075 6.73767 11.9988 6.73767C12.1902 6.73767 12.3737 6.81374 12.509 6.94905C12.6443 7.08436 12.7203 7.2679 12.7203 7.45925V9.07556C12.7194 9.2663 12.6428 9.44897 12.5073 9.58328C12.372 9.71779 12.1899 9.79487 11.9991 9.79861Z" fill="#F2F2F8" />
    <path d="M7.19083 17.261C7.00003 17.2621 6.81661 17.1873 6.68083 17.0533C6.57968 16.9522 6.51076 16.8235 6.48276 16.6833C6.45476 16.543 6.46894 16.3975 6.5235 16.2653C6.57807 16.1332 6.67058 16.0202 6.78935 15.9406C6.90812 15.8609 7.04782 15.8183 7.19083 15.818C8.94828 15.7816 10.6194 15.0489 11.837 13.7811C13.0547 12.5133 13.7192 10.814 13.6846 9.05654C13.6846 8.86519 13.7606 8.68165 13.8959 8.54634C14.0313 8.41103 14.2148 8.33496 14.4061 8.33496C14.5975 8.33496 14.781 8.41103 14.9163 8.54634C15.0516 8.68165 15.1276 8.86519 15.1276 9.05654C15.1618 11.1966 14.3451 13.2627 12.857 14.8011C11.3688 16.3394 9.33086 17.2242 7.19083 17.261Z" fill="#F2F2F8" />
    <path d="M16.812 17.2645C15.8355 17.2426 14.8782 16.9895 14.0186 16.5259C13.1589 16.0623 12.4215 15.4014 11.8668 14.5976C11.8099 14.5218 11.7686 14.4356 11.7451 14.3439C11.7217 14.2521 11.7165 14.1566 11.73 14.0629C11.7431 13.9693 11.7748 13.8792 11.8231 13.7979C11.8714 13.7166 11.9354 13.6457 12.0114 13.5895C12.087 13.5323 12.1731 13.4907 12.2649 13.4669C12.3567 13.443 12.4522 13.4375 12.5461 13.4507C12.64 13.4639 12.7303 13.4955 12.812 13.5438C12.8936 13.592 12.9649 13.6558 13.0218 13.7317C13.4474 14.3533 14.013 14.8662 14.6731 15.2292C15.3332 15.5922 16.0693 15.795 16.8222 15.8214C17.0127 15.8227 17.1952 15.8991 17.3299 16.0338C17.4647 16.1686 17.5409 16.351 17.5422 16.5416C17.5389 16.7331 17.4605 16.9155 17.3238 17.0497C17.1868 17.1839 17.0037 17.2607 16.812 17.2645Z" fill="#F2F2F8" />
    <path d="M14.8845 22.3434H9.11245C3.88825 22.3434 1.65625 20.1113 1.65625 14.8853V9.11277C1.65625 3.89277 3.88825 1.65466 9.11245 1.65466H14.8851C20.1093 1.65466 22.3412 3.89037 22.3412 9.11277V14.8853C22.3412 20.1119 20.1087 22.3434 14.8845 22.3434ZM9.11185 3.10193C4.67665 3.10193 3.09865 4.67577 3.09865 9.11277V14.8853C3.09865 19.3253 4.67665 20.8961 9.11185 20.8961H14.8845C19.3197 20.8961 20.8977 19.3223 20.8977 14.8853V9.11277C20.8977 4.67277 19.3197 3.10193 14.8845 3.10193H9.11185Z" fill="#F2F2F8" />
</svg>
    