<svg width="24" height="24" viewBox="0 0 24 24" fill="none" xmlns="http://www.w3.org/2000/svg">
    <g clip-path="url(#clip0_33264_56174)">
        <path d="M16.3661 1.5918H7.64446C3.85606 1.5918 1.59766 3.85262 1.59766 7.64102V16.3519C1.59766 20.1487 3.85606 22.4118 7.64446 22.4118H16.3577C20.1461 22.4118 22.4045 20.1509 22.4045 16.3625V7.64526C22.4135 3.85386 20.1545 1.5918 16.3661 1.5918ZM17.2091 17.6904C16.3038 17.6778 15.4112 17.4761 14.5885 17.0982C13.7659 16.7203 13.0312 16.1747 12.4319 15.4962C10.8943 16.9041 8.88618 17.6866 6.80145 17.6904C6.59513 17.6913 6.39686 17.6104 6.25005 17.4654C6.13937 17.3566 6.06367 17.2172 6.03264 17.0651C6.00161 16.913 6.01665 16.7551 6.07587 16.6116C6.13508 16.4681 6.23575 16.3457 6.36501 16.2597C6.49427 16.1738 6.64623 16.1283 6.80145 16.1292C8.56502 16.0941 10.2534 15.4087 11.5424 14.2045C12.8314 13.0004 13.63 11.3625 13.7849 9.60537H6.81226C6.60583 9.60498 6.40798 9.52286 6.26206 9.37686C6.11557 9.22964 6.03281 9.03068 6.03166 8.823C6.03411 8.61781 6.11732 8.4219 6.26326 8.27764C6.41022 8.13439 6.60703 8.05373 6.81226 8.05264H11.2253V7.08657C11.2253 6.98414 11.2454 6.88267 11.2846 6.78804C11.3238 6.6934 11.3813 6.60749 11.4537 6.53506C11.5261 6.46263 11.6121 6.40521 11.7068 6.36602C11.8014 6.32682 11.9028 6.30654 12.0053 6.30654C12.1077 6.30654 12.2091 6.32682 12.3038 6.36602C12.3984 6.40521 12.4844 6.46263 12.5568 6.53506C12.6292 6.60749 12.6867 6.6934 12.7259 6.78804C12.7651 6.88267 12.7853 6.98414 12.7853 7.08657V8.05264H14.5445C14.5655 8.05264 14.5859 8.04414 14.6045 8.04414C14.6231 8.04414 14.6459 8.05264 14.6645 8.05264H17.1977C17.4045 8.05264 17.6029 8.13473 17.7492 8.28101C17.8955 8.42728 17.9777 8.6258 17.9777 8.83267C17.9777 9.03954 17.8955 9.2379 17.7492 9.38418C17.6029 9.53046 17.4045 9.61255 17.1977 9.61255H15.3449C15.1949 11.3376 14.5559 12.9841 13.5029 14.3586C13.958 14.9023 14.5239 15.3424 15.1629 15.6498C15.8018 15.9571 16.499 16.1245 17.2079 16.1406C17.4144 16.1412 17.6122 16.2235 17.7581 16.3697C17.8311 16.4414 17.8892 16.527 17.9288 16.6214C17.9684 16.7158 17.9888 16.817 17.9888 16.9193C17.9888 17.0217 17.9684 17.1231 17.9288 17.2174C17.8892 17.3118 17.8311 17.3973 17.7581 17.4689C17.6857 17.5404 17.6 17.5969 17.5058 17.6351C17.4116 17.6733 17.3107 17.6925 17.2091 17.6916V17.6904Z" fill="#F2F2F8" />
    </g>
    <defs>
        <clipPath id="clip0_33264_56174">
            <rect width="24" height="24" fill="white" />
        </clipPath>
    </defs>
</svg>
    