<svg width="18" height="18" viewBox="0 0 18 18" fill="none" xmlns="http://www.w3.org/2000/svg">
    <path d="M2.80773 4.75167C2.80027 4.68174 2.80651 4.61069 2.82659 4.5433C2.84668 4.4759 2.88026 4.41338 2.92478 4.35894C2.96929 4.3045 3.02392 4.25952 3.08599 4.22645C3.14805 4.19339 3.21619 4.17301 3.28621 4.16643L4.74223 4.02366C5.17029 3.97975 5.57894 3.94333 5.97144 3.91347C5.97299 3.9074 5.97408 3.90125 5.97487 3.89503L6.13179 2.96037C6.24594 2.2746 6.40323 1.32471 8.06586 1.32471H9.93648C11.6048 1.32471 11.7643 2.31 11.8714 2.9668L12.0283 3.89461C12.0283 3.90558 12.0317 3.91707 12.0326 3.92805C12.8602 3.98951 13.7368 4.07029 14.711 4.166C14.8518 4.18064 14.9811 4.25016 15.0707 4.35979C15.1603 4.46943 15.2031 4.61028 15.1895 4.75124C15.1784 4.88385 15.1177 5.00726 15.0197 5.09724C14.9216 5.18721 14.7935 5.23693 14.6604 5.23658H14.6038C10.8281 4.85813 8.58685 4.71536 4.85242 5.09381C3.37857 5.23781 3.3595 5.23872 3.34237 5.23872C3.20854 5.23875 3.07943 5.1891 2.98051 5.09895C2.88159 5.0088 2.8201 4.88493 2.80773 4.75167ZM10.9445 3.85731L10.8244 3.14559C10.7239 2.52479 10.7028 2.403 9.94634 2.403H8.07615C7.31881 2.403 7.30433 2.50344 7.19808 3.13873L7.07374 3.84359C7.68839 3.81285 8.27654 3.79985 8.85475 3.79985C9.5515 3.79985 10.2372 3.81911 10.9445 3.85731Z" fill="#EFF1F8" />
    <path d="M6.71319 16.6737C4.2221 16.6737 4.12285 15.2956 4.04382 14.1822L3.57906 6.99305C3.57072 6.8513 3.6184 6.71183 3.71197 6.60503C3.80555 6.49823 3.93736 6.43233 4.07898 6.42196C5.68495 6.12762 7.31268 5.96789 8.94523 5.94434C10.617 5.97197 12.2841 6.13165 13.9307 6.42196C14.001 6.42653 14.0698 6.44524 14.1331 6.47641C14.1963 6.50758 14.2525 6.55073 14.299 6.60375C14.3454 6.65676 14.381 6.71834 14.4036 6.78511C14.4262 6.85187 14.4353 6.92272 14.4306 6.99305L13.9667 14.1822C13.8877 15.2956 13.7884 16.6737 11.2965 16.6737H6.71319ZM5.11397 14.1106C5.19299 15.1955 5.22091 15.6031 6.71319 15.6031H11.2965C12.7962 15.6031 12.8241 15.1959 12.8957 14.1106L13.3227 7.49211C11.8812 7.19915 10.416 7.03944 8.94523 7.01491C7.51351 7.03453 6.08706 7.19433 4.68651 7.49211L5.11397 14.1106Z" fill="#EFF1F8" />
</svg>
    