<svg width="14" height="14" viewBox="0 0 14 14" fill="none" xmlns="http://www.w3.org/2000/svg">
    <g clip-path="url(#clip0_523_16663)">
        <path d="M5.90794 11.4751C5.82715 11.5559 5.78176 11.6655 5.78176 11.7797C5.78175 11.8363 5.7929 11.8924 5.81454 11.9446C5.83619 11.9969 5.86792 12.0444 5.90793 12.0844C5.94793 12.1244 5.99542 12.1562 6.04769 12.1778C6.09996 12.1995 6.15598 12.2106 6.21256 12.2106C6.2435 12.2106 6.27436 12.2073 6.30459 12.2008H9.80998C10.0537 12.2016 10.2972 12.1833 10.5381 12.1461C10.7569 12.1122 10.9721 12.058 11.1808 11.9843C11.3743 11.9158 11.56 11.8269 11.7347 11.7191C11.9019 11.6154 12.0567 11.4929 12.196 11.354C12.3349 11.2147 12.4573 11.0599 12.561 10.8927C12.6688 10.718 12.7577 10.5324 12.8263 10.3389C12.8999 10.1301 12.9541 9.91495 12.988 9.69617C13.0253 9.45525 13.0435 9.21179 13.0427 8.96802V5.03239C13.0435 4.78864 13.0253 4.5452 12.988 4.30431C12.9541 4.08552 12.8999 3.87036 12.8263 3.66156C12.7577 3.46808 12.6688 3.28243 12.561 3.10773C12.4574 2.94052 12.3349 2.78575 12.196 2.64646C12.0567 2.50754 11.9019 2.38505 11.7347 2.28141C11.56 2.17361 11.3743 2.0847 11.1808 2.01615C10.9721 1.94247 10.7569 1.88832 10.5381 1.85438C10.2972 1.81712 10.0537 1.7988 9.80998 1.79958H4.18769C4.01126 1.79933 3.83498 1.80867 3.65957 1.82757C3.49631 1.84527 3.33429 1.87298 3.17443 1.91055C3.02449 1.94594 2.87717 1.99162 2.73352 2.04729C2.59712 2.10027 2.46492 2.16349 2.33806 2.2364C2.21564 2.30703 2.0991 2.38738 1.98954 2.47666C1.88162 2.5649 1.78116 2.66188 1.68919 2.76664C1.59656 2.87248 1.51266 2.98567 1.43835 3.10508C1.37378 3.209 1.31609 3.31703 1.26564 3.42849C1.21748 3.49838 1.19176 3.58129 1.1919 3.66617C1.1919 3.7775 1.23614 3.88428 1.31486 3.963C1.39359 4.04172 1.50035 4.08595 1.61168 4.08595C1.69472 4.08595 1.77591 4.06133 1.84496 4.01521C1.91401 3.96909 1.96782 3.90353 1.99962 3.82683L2.00184 3.82781C2.32984 3.03058 3.04481 2.64296 4.18772 2.64296H9.80999C11.4179 2.64296 12.1995 3.42451 12.1995 5.03234V8.96797C12.1995 10.5758 11.4179 11.3573 9.80999 11.3573H6.29773C6.26969 11.3517 6.24117 11.3489 6.21258 11.3489C6.09832 11.3489 5.98874 11.3943 5.90794 11.4751Z" fill="#EFF1F8" />
        <path fill-rule="evenodd" clip-rule="evenodd" d="M3.57761 11.7974C3.57684 11.8076 3.57637 11.8177 3.57637 11.8281C3.57637 12.0368 3.78378 12.2063 3.99256 12.2063C4.20134 12.2063 4.4026 12.0374 4.4026 11.8286C4.40262 11.8136 4.40175 11.7986 4.39999 11.7837V10.153H5.1189C5.91675 10.153 6.52354 9.86439 6.82478 9.34243C6.95543 9.11697 7.02289 8.86046 7.02004 8.59989C7.02004 8.24344 6.90544 7.85297 6.67625 7.45834L5.54331 5.49364C5.14018 4.802 4.58847 4.42003 3.98591 4.42003C3.38334 4.42003 2.83169 4.802 2.43288 5.49364L1.2998 7.45834C0.900934 8.14998 0.845726 8.81629 1.1471 9.34243C1.44834 9.8644 2.05513 10.153 2.85296 10.153H3.57761V11.7974ZM2.0706 7.72631L3.08738 5.96314C3.33869 5.52524 3.65866 5.28535 3.98613 5.28535C4.3136 5.28535 4.63351 5.52525 4.88484 5.96316L5.90161 7.72632C6.15294 8.1643 6.20247 8.5603 6.03873 8.84595C5.87498 9.1316 5.50551 9.2877 5.00288 9.2877H2.96933C2.46669 9.2877 2.09725 9.1316 1.93351 8.84595C1.86914 8.72949 1.83632 8.59825 1.83828 8.46521C1.83828 8.24423 1.91449 7.9929 2.0706 7.72631Z" fill="#EFF1F8" />
    </g>
    <defs>
        <clipPath id="clip0_523_16663">
            <rect width="14" height="14" fill="white" />
        </clipPath>
    </defs>
</svg>
    