<svg width="18" height="19" viewBox="0 0 18 19" fill="none" xmlns="http://www.w3.org/2000/svg">
    <g clip-path="url(#clip0_934_43160)">
        <path d="M7.59649 15.2545C7.49261 15.3583 7.43425 15.4992 7.43425 15.6461C7.43424 15.7189 7.44857 15.7909 7.4764 15.8581C7.50423 15.9253 7.54503 15.9864 7.59647 16.0378C7.6479 16.0893 7.70895 16.1301 7.77616 16.1579C7.84336 16.1858 7.91539 16.2001 7.98814 16.2001C8.02791 16.2001 8.06759 16.1959 8.10646 16.1874H12.6134C12.9268 16.1885 13.2398 16.165 13.5495 16.1171C13.8308 16.0735 14.1075 16.0039 14.3759 15.9091C14.6247 15.821 14.8634 15.7067 15.088 15.5681C15.303 15.4348 15.502 15.2774 15.6811 15.0988C15.8597 14.9196 16.0171 14.7206 16.1504 14.5057C16.289 14.2811 16.4033 14.0424 16.4915 13.7936C16.5862 13.5252 16.6558 13.2485 16.6995 12.9672C16.7473 12.6575 16.7708 12.3445 16.7698 12.031V6.97095C16.7708 6.65755 16.7473 6.34456 16.6995 6.03484C16.6558 5.75355 16.5862 5.4769 16.4915 5.20845C16.4033 4.9597 16.289 4.721 16.1504 4.49638C16.0172 4.2814 15.8597 4.08241 15.6811 3.90332C15.502 3.72471 15.303 3.56723 15.088 3.43397C14.8634 3.29538 14.6247 3.18106 14.3759 3.09293C14.1075 2.9982 13.8308 2.92857 13.5495 2.88494C13.2398 2.83703 12.9268 2.81348 12.6134 2.81448H5.38473C5.1579 2.81415 4.93124 2.82617 4.70572 2.85047C4.49582 2.87322 4.2875 2.90885 4.08197 2.95716C3.88919 3.00265 3.69977 3.06139 3.51508 3.13296C3.33971 3.20108 3.16974 3.28236 3.00663 3.37611C2.84923 3.46692 2.6994 3.57022 2.55853 3.68502C2.41978 3.79846 2.29062 3.92315 2.17238 4.05784C2.05328 4.19392 1.94541 4.33945 1.84986 4.49298C1.76684 4.62658 1.69267 4.76548 1.62781 4.90879C1.56589 4.99865 1.53282 5.10524 1.533 5.21437C1.533 5.35752 1.58988 5.4948 1.6911 5.59602C1.79232 5.69723 1.92958 5.75409 2.07272 5.75409C2.17948 5.7541 2.28387 5.72245 2.37264 5.66315C2.46142 5.60385 2.53061 5.51956 2.5715 5.42094L2.57435 5.4222C2.99606 4.39719 3.91531 3.89882 5.38477 3.89882H12.6134C14.6807 3.89882 15.6856 4.90368 15.6856 6.97088V12.031C15.6856 14.0982 14.6807 15.103 12.6134 15.103H8.09763C8.06159 15.0958 8.02491 15.0922 7.98816 15.0922C7.84125 15.0922 7.70036 15.1506 7.59649 15.2545Z" fill="#EFF1F8" />
        <path fill-rule="evenodd" clip-rule="evenodd" d="M4.60035 15.6689C4.59935 15.6819 4.59875 15.695 4.59875 15.7082C4.59875 15.9766 4.86541 16.1946 5.13385 16.1946C5.40228 16.1946 5.66104 15.9774 5.66104 15.709C5.66108 15.6897 5.65995 15.6704 5.65769 15.6512V13.5546H6.58201C7.6078 13.5546 8.38796 13.1835 8.77527 12.5124C8.94326 12.2226 9.02999 11.8927 9.02632 11.5577C9.02632 11.0994 8.87898 10.5974 8.58431 10.09L7.12768 7.56399C6.60937 6.67473 5.90002 6.18363 5.12529 6.18363C4.35057 6.18363 3.6413 6.67473 3.12855 7.56399L1.67173 10.09C1.1589 10.9793 1.08792 11.836 1.4754 12.5124C1.86271 13.1835 2.64287 13.5546 3.66864 13.5546H4.60035V15.6689ZM2.66275 10.4346L3.97004 8.16762C4.29316 7.60462 4.70455 7.29618 5.12559 7.29618C5.54662 7.29618 5.95792 7.60462 6.28107 8.16765L7.58834 10.4346C7.91148 10.9977 7.97516 11.5068 7.76464 11.8741C7.55411 12.2414 7.07908 12.4421 6.43284 12.4421H3.81827C3.17201 12.4421 2.69702 12.2414 2.48649 11.8741C2.40374 11.7244 2.36154 11.5556 2.36406 11.3846C2.36406 11.1005 2.46205 10.7773 2.66275 10.4346Z" fill="#EFF1F8" />
    </g>
    <defs>
        <clipPath id="clip0_934_43160">
            <rect width="18" height="18" fill="white" transform="translate(0 0.5)" />
        </clipPath>
    </defs>
</svg>
    