<svg width="14" height="14" viewBox="0 0 14 14" fill="none" xmlns="http://www.w3.org/2000/svg">
    <path d="M4.35824 7.33645C4.31705 7.29638 4.28426 7.24851 4.26178 7.19562C4.2393 7.14274 4.22759 7.08591 4.22731 7.02845C4.22689 6.91271 4.27205 6.80146 4.35303 6.71877C4.43402 6.63608 4.5443 6.5886 4.66002 6.58661L9.3295 6.53909C9.44548 6.53788 9.55718 6.58279 9.64004 6.66393C9.7229 6.74508 9.77013 6.85583 9.77134 6.9718C9.77256 7.08777 9.72765 7.19947 9.6465 7.28234C9.56535 7.3652 9.45461 7.41243 9.33864 7.41364L4.66866 7.46116C4.61116 7.46257 4.55397 7.45223 4.5006 7.43079C4.44723 7.40934 4.39879 7.37724 4.35824 7.33645Z" fill="#F2F2F8" />
    <path d="M6.69065 9.64347C6.64988 9.60297 6.6176 9.55476 6.59567 9.50164C6.57375 9.44853 6.56262 9.39158 6.56295 9.33412L6.56295 4.66514C6.56523 4.55074 6.61229 4.44179 6.694 4.36169C6.77571 4.2816 6.88558 4.23673 7 4.23673C7.11442 4.23673 7.22429 4.2816 7.306 4.36169C7.38771 4.44179 7.43477 4.55074 7.43705 4.66514L7.43631 9.33535C7.43553 9.45109 7.3892 9.56186 7.30736 9.6437C7.22552 9.72555 7.11475 9.77187 6.99901 9.77265C6.94161 9.77265 6.88479 9.76123 6.83185 9.73905C6.7789 9.71687 6.73091 9.68438 6.69065 9.64347Z" fill="#F2F2F8" />
    <path d="M8.75122 13.2711H5.25131C2.08388 13.2711 0.730469 11.9177 0.730469 8.75024V5.25033C0.730469 2.08291 2.08388 0.729492 5.25131 0.729492H8.75122C11.9186 0.729492 13.2721 2.08291 13.2721 5.25033V8.75024C13.2721 11.9177 11.9186 13.2711 8.75122 13.2711ZM5.25131 1.60447C2.56197 1.60447 1.60545 2.561 1.60545 5.25033V8.75024C1.60545 11.4396 2.56197 12.3961 5.25131 12.3961H8.75122C11.4406 12.3961 12.3971 11.4396 12.3971 8.75024V5.25033C12.3971 2.561 11.4402 1.60447 8.75122 1.60447H5.25131Z" fill="#F2F2F8" />
</svg>
    