<svg width="16" height="16" viewBox="0 0 16 16" fill="none" xmlns="http://www.w3.org/2000/svg">
<g opacity="0.8" clip-path="url(#clip0_30602_18313)">
<path d="M11.1049 12.9592C11.0813 12.8864 11.1085 12.826 11.1721 12.7056C11.2489 12.5608 11.3255 12.3984 11.3991 12.2228C11.4139 12.1868 11.4288 12.1488 11.4436 12.1096C11.4808 12.018 11.5181 11.92 11.5545 11.818C11.6869 11.4173 11.7604 10.9996 11.7729 10.5779V10.5723C11.7813 10.3723 11.7829 10.0595 11.7729 9.72308C11.7774 9.58755 11.7499 9.4529 11.6928 9.32991C11.6517 9.20099 11.5669 9.09049 11.453 9.0175C11.2571 8.89126 11.0368 8.80769 10.8065 8.77228C10.6309 8.73987 10.6316 8.75904 10.542 8.71143C10.5171 8.69932 10.4956 8.68117 10.4795 8.6586C10.4634 8.63603 10.4535 8.60975 10.4502 8.58223C10.449 8.55688 10.4542 8.53163 10.4655 8.50889C10.4767 8.48615 10.4938 8.46668 10.5147 8.45225C10.5811 8.41831 10.6563 8.40521 10.7303 8.41465C11.6551 8.40745 11.7254 8.38825 12.4339 8.38945C13.2059 8.38945 13.539 8.42227 13.539 8.42227C13.7779 8.46164 13.9944 8.58708 14.1472 8.77501C14.2311 8.88847 14.2899 9.01846 14.3198 9.15637C14.3498 9.29428 14.3503 9.43696 14.321 9.57503V9.57952C14.3059 9.91468 14.2428 10.2459 14.1335 10.5631C13.8699 11.2956 13.386 11.9283 12.7483 12.3747C12.5387 12.5219 12.3148 12.6474 12.0799 12.7495L11.7756 12.8695L11.4581 12.9579L11.2666 12.9955C11.2666 12.9955 11.1285 13.0307 11.1065 12.9579L11.1049 12.9592ZM12.6554 9.84711V9.8515V9.85912C12.6406 10.3928 12.5775 10.9241 12.4663 11.4464C12.4431 11.5488 12.4177 11.6519 12.3909 11.7527C12.797 11.4667 13.1137 11.0715 13.3042 10.6128C13.3882 10.3963 13.4368 10.1677 13.448 9.93588V9.93266C13.4704 9.83661 13.4697 9.73668 13.4464 9.64085C13.423 9.54503 13.3777 9.45604 13.3136 9.38108C13.1901 9.2483 13.0241 9.16251 12.8444 9.1383L12.6471 9.12863C12.6661 9.36764 12.6687 9.60772 12.6554 9.84711ZM9.20448 6.2602C9.16848 6.167 9.21259 6.10936 9.2666 6.04096C9.33268 5.95677 9.39338 5.8685 9.44824 5.7766C9.55338 5.60075 9.64026 5.41476 9.70801 5.22141C9.84383 4.83504 9.91373 4.42848 9.91427 4.01893C9.91039 3.48526 9.78481 2.9595 9.54707 2.48169C9.52301 2.44914 9.5073 2.41118 9.50137 2.37114C9.49544 2.3311 9.49949 2.29022 9.51309 2.25209C9.54749 2.15849 9.58457 2.14208 9.68457 2.10687C9.8531 2.04897 10.0274 2.0098 10.2045 1.99007C10.2045 1.99007 10.2044 1.99007 10.2072 1.99007C10.21 1.99007 10.2072 1.99007 10.21 1.99007C10.2974 1.98049 10.3853 1.97573 10.4733 1.97572C10.782 1.97477 11.0881 2.03506 11.3733 2.15316C11.6585 2.27127 11.9173 2.44482 12.135 2.66372C12.3538 2.88149 12.5271 3.14045 12.6452 3.42566C12.7633 3.71087 12.8237 4.01669 12.8229 4.32539C12.8238 4.63397 12.7633 4.93964 12.6452 5.22473C12.5271 5.50981 12.3538 5.76859 12.135 5.98617C11.9953 6.12596 11.8388 6.24783 11.669 6.34897C11.3085 6.55965 10.8983 6.67015 10.4807 6.669C10.1087 6.66944 9.74162 6.58138 9.41035 6.41216C9.30555 6.36056 9.24049 6.3538 9.20448 6.2602ZM10.4573 2.70015C10.5696 3.13765 10.6257 3.58766 10.6241 4.03935C10.6246 4.37263 10.5945 4.70521 10.5338 5.03292C10.4774 5.34298 10.3896 5.64658 10.2721 5.939C10.3385 5.94708 10.4052 5.9511 10.4721 5.95101C10.9031 5.95059 11.3165 5.7792 11.6213 5.47444C11.9262 5.16968 12.0978 4.75644 12.0983 4.32539C12.0978 3.89433 11.9262 3.4811 11.6213 3.17633C11.3165 2.87157 10.9031 2.70009 10.4721 2.69966L10.4573 2.70015Z" fill="#F2F2F8"/>
<path d="M6.68061 14.9144H6.506C5.53531 14.9157 4.58791 14.6165 3.79421 14.0576C2.9985 13.5013 2.39505 12.7119 2.06643 11.7983C1.92987 11.4027 1.85107 10.9896 1.83244 10.5715V10.5651C1.79546 10.3927 1.79541 10.2144 1.83244 10.042C1.86947 9.86962 1.94238 9.70705 2.0469 9.56505C2.23808 9.33057 2.50854 9.17414 2.80708 9.12509L3.46139 9.08984H9.72952L10.3838 9.12509C10.6825 9.17379 10.9527 9.33029 11.1436 9.56505C11.2482 9.70701 11.3219 9.86956 11.3592 10.0419C11.3966 10.2143 11.3969 10.3925 11.3604 10.5651V10.5707C11.3414 10.9887 11.2627 11.4018 11.1268 11.7975C10.7979 12.7112 10.1945 13.5007 9.39904 14.0576C8.60337 14.6174 7.65342 14.9166 6.68061 14.9144ZM4.17508 9.99826L3.66999 10.0223C3.44611 10.0535 3.23972 10.1605 3.08521 10.3255C3.00556 10.4193 2.94913 10.5305 2.92036 10.6501C2.8916 10.7698 2.89128 10.8945 2.91958 11.0143V11.0175C2.93384 11.3068 2.9947 11.592 3.09966 11.862C3.39699 12.5164 3.88025 13.0687 4.48954 13.4501C5.09884 13.8315 5.80696 14.0249 6.52553 14.0064H6.66147C7.38 14.0252 8.08823 13.8319 8.69746 13.4505C9.30668 13.0691 9.79006 12.5166 10.0869 11.862C10.1917 11.592 10.2524 11.3068 10.2666 11.0175V11.0135C10.2946 10.8937 10.2938 10.7691 10.2647 10.6495C10.2356 10.53 10.179 10.419 10.0991 10.3255C9.94506 10.1598 9.73803 10.0527 9.51388 10.0223L9.00918 9.99826H4.17508ZM6.55522 6.94662C6.17026 6.94765 5.78893 6.87226 5.43331 6.72484C5.0777 6.57742 4.755 6.3609 4.48368 6.08781C4.21068 5.81645 3.99391 5.49359 3.84656 5.13798C3.6992 4.78237 3.62401 4.4011 3.62507 4.01618C3.62402 3.63107 3.6996 3.24958 3.84695 2.89378C3.99429 2.53798 4.21068 2.21488 4.48368 1.94327C4.75497 1.67016 5.07769 1.4537 5.43331 1.30634C5.78894 1.15898 6.17027 1.08366 6.55522 1.08485C6.9404 1.08369 7.32202 1.15899 7.6779 1.30634C8.03378 1.45369 8.3567 1.67017 8.62832 1.94327C8.90119 2.21496 9.11778 2.53809 9.26505 2.89388C9.41232 3.24967 9.48757 3.63111 9.48654 4.01618C9.48761 4.40107 9.41233 4.78228 9.26505 5.13788C9.11777 5.49348 8.90121 5.81639 8.62832 6.08781C8.35666 6.3609 8.03377 6.57742 7.6779 6.72484C7.32203 6.87225 6.94041 6.94762 6.55522 6.94662ZM6.55522 1.98654C6.01778 1.98738 5.50271 2.20128 5.12276 2.58137C4.74281 2.96147 4.52885 3.47669 4.52821 4.01413C4.52874 4.55163 4.74241 5.06699 5.12237 5.44717C5.50233 5.82735 6.01772 6.04136 6.55522 6.0422C7.09293 6.04157 7.60859 5.82774 7.98885 5.44756C8.36911 5.06738 8.58304 4.55184 8.58378 4.01413C8.58273 3.47666 8.3683 2.96153 7.98807 2.58167C7.60783 2.20181 7.09269 1.98824 6.55522 1.98771V1.98654Z" fill="#F2F2F8"/>
</g>
<defs>
<clipPath id="clip0_30602_18313">
<rect width="16" height="16" fill="white"/>
</clipPath>
</defs>
</svg>
