<svg width="24" height="24" viewBox="0 0 40 40" fill="none" xmlns="http://www.w3.org/2000/svg">
    <g clip-path="url(#clip0_31371_29731)">
        <path d="M35.641 11.5342C34.174 9.91218 31.741 9.09717 28.167 9.09717H27.753V9.02808C27.753 6.12808 27.753 2.53809 21.263 2.53809H18.639C12.149 2.53809 12.149 6.12808 12.149 9.02808V9.09717H11.735C8.16197 9.09717 5.71097 9.91218 4.26097 11.5342C3.59516 12.4058 3.11916 13.407 2.86358 14.4736C2.60799 15.5402 2.57849 16.6484 2.77697 17.7271L2.79397 17.8511L2.94896 19.6602C3.53596 20.0402 4.19196 20.4741 4.81296 20.8201C5.05496 20.9721 5.31297 21.11 5.57197 21.248C7.52668 22.3219 9.60049 23.163 11.751 23.7542C11.7575 24.831 11.9761 25.8961 12.3943 26.8884C12.8124 27.8808 13.422 28.781 14.188 29.5378C14.9541 30.2946 15.8618 30.893 16.8592 31.2991C17.8565 31.7051 18.9241 31.9106 20.001 31.9041C21.0778 31.8975 22.1428 31.6789 23.1352 31.2607C24.1275 30.8426 25.0278 30.2331 25.7846 29.467C26.5414 28.701 27.1399 27.7933 27.5459 26.7959C27.9519 25.7985 28.1575 24.7309 28.151 23.6541V23.5852C30.322 22.9289 32.4078 22.0181 34.365 20.8721C34.465 20.8241 34.538 20.7722 34.624 20.7202C35.4368 20.2549 36.2206 19.7406 36.971 19.1802L37.126 17.7512C37.143 17.6512 37.143 17.5582 37.161 17.4402C37.3262 16.4052 37.2766 15.3471 37.0153 14.332C36.7539 13.317 36.2865 12.3668 35.642 11.5403L35.641 11.5342ZM14.618 9.02808C14.618 6.09408 14.618 4.98926 18.64 4.98926H21.264C25.286 4.98926 25.286 6.08908 25.286 9.02808V9.09717H14.617L14.618 9.02808ZM19.956 29.2571C18.5923 29.2554 17.2758 28.7571 16.2529 27.8552C15.23 26.9534 14.5706 25.7099 14.398 24.3572C14.3635 24.1254 14.3461 23.8915 14.346 23.6572C14.3469 22.1686 14.9377 20.7411 15.989 19.6873C16.5111 19.1681 17.1293 18.7554 17.809 18.4722C18.4895 18.1897 19.2191 18.0442 19.956 18.0442C20.6928 18.0442 21.4224 18.1897 22.103 18.4722C22.784 18.7539 23.4028 19.1671 23.9238 19.6885C24.4448 20.2098 24.8577 20.829 25.139 21.5103C25.4207 22.191 25.5658 22.9205 25.566 23.6572C25.566 23.8642 25.549 24.0511 25.531 24.2441V24.2581C25.3806 25.6323 24.7287 26.9028 23.7001 27.8264C22.6715 28.75 21.3384 29.262 19.956 29.2642V29.2571Z" fill="#F2F2F8" />
        <path d="M18.9681 27.1573C18.7959 27.1629 18.6248 27.1288 18.4681 27.0574C18.3094 26.9943 18.1661 26.8979 18.0481 26.7745L16.3391 25.0833C16.1191 24.8371 16.0019 24.5161 16.0115 24.1861C16.0212 23.8561 16.1571 23.5422 16.3911 23.3094C16.6246 23.0745 16.9395 22.9384 17.2705 22.9295C17.6015 22.9205 17.9233 23.0393 18.1691 23.2613L18.9971 24.0894L21.7761 21.5354C21.9005 21.4194 22.0466 21.329 22.2061 21.2698C22.3655 21.2106 22.5351 21.1837 22.7051 21.1905C23.0477 21.2054 23.3708 21.3539 23.6051 21.6043C23.7208 21.7289 23.8109 21.8752 23.87 22.0347C23.9292 22.1942 23.9564 22.3638 23.95 22.5337C23.9436 22.7037 23.9037 22.8706 23.8327 23.0252C23.7617 23.1797 23.6609 23.3188 23.5361 23.4344L19.8601 26.8343C19.6066 27.0375 19.2929 27.1511 18.9681 27.1573Z" fill="#F2F2F8" />
        <path d="M36.6111 22.5679L35.8861 30.4871C35.5241 33.9391 34.1081 37.46 26.5141 37.46H13.3611C5.7661 37.46 4.3511 33.9388 4.0061 30.5068L3.2981 22.926C3.2981 22.926 4.0401 23.3609 4.3341 23.5129C5.67508 24.2589 7.07155 24.9004 8.5111 25.4319C8.77201 25.5287 9.00561 25.6873 9.19194 25.894C9.37827 26.1007 9.5118 26.3494 9.5811 26.6189C10.2308 28.8922 11.6098 30.889 13.5057 32.3018C15.4016 33.7145 17.7093 34.465 20.0735 34.4375C22.4377 34.41 24.7273 33.6061 26.5898 32.1497C28.4523 30.6932 29.7845 28.6648 30.3811 26.377C30.4461 26.106 30.5758 25.8549 30.7591 25.645C30.9442 25.4362 31.1753 25.2731 31.4341 25.1689C32.8553 24.6096 34.234 23.9475 35.5591 23.188C35.7181 23.099 36.5591 22.6019 36.6111 22.5679Z" fill="#F2F2F8" />
    </g>
    <defs>
        <clipPath id="clip0_31371_29731">
            <rect width="39.998" height="39.998" fill="white" />
        </clipPath>
    </defs>
</svg>
    