<svg width="14" height="14" viewBox="0 0 14 14" fill="none" xmlns="http://www.w3.org/2000/svg">
    <path d="M2.18205 3.69569C2.17625 3.6413 2.18111 3.58604 2.19673 3.53362C2.21235 3.4812 2.23847 3.43257 2.27309 3.39023C2.30771 3.34789 2.3502 3.31291 2.39847 3.28719C2.44675 3.26147 2.49975 3.24562 2.5542 3.2405L3.68666 3.12946C4.0196 3.09531 4.33744 3.06698 4.64272 3.04376C4.64392 3.03904 4.64477 3.03425 4.64539 3.02942L4.76743 2.30246C4.85622 1.76908 4.97856 1.03027 6.27171 1.03027H7.72663C9.02423 1.03027 9.14826 1.79662 9.23158 2.30746L9.35363 3.02908C9.35363 3.03762 9.35628 3.04656 9.35696 3.05509C10.0006 3.1029 10.6824 3.16573 11.4401 3.24017C11.5497 3.25156 11.6502 3.30563 11.7199 3.3909C11.7896 3.47617 11.8229 3.58572 11.8123 3.69535C11.8037 3.79849 11.7565 3.89448 11.6802 3.96446C11.604 4.03445 11.5043 4.07311 11.4008 4.07284H11.3568C8.42011 3.77849 6.67692 3.66745 3.77236 3.96179C2.62604 4.0738 2.61121 4.07451 2.59789 4.07451C2.4938 4.07453 2.39338 4.03591 2.31644 3.9658C2.2395 3.89568 2.19167 3.79934 2.18205 3.69569ZM8.51062 3.00007L8.41725 2.44651C8.33905 1.96367 8.32266 1.86895 7.7343 1.86895H6.27971C5.69068 1.86895 5.67941 1.94707 5.59677 2.44118L5.50006 2.9894C5.97813 2.9655 6.43557 2.95539 6.88529 2.95539C7.42721 2.95539 7.96051 2.97036 8.51062 3.00007Z" fill="#F2F2F8" />
    <path d="M5.21963 12.9681C3.28212 12.9681 3.20492 11.8963 3.14346 11.0303L2.78198 5.43871C2.77549 5.32846 2.81257 5.21999 2.88535 5.13692C2.95813 5.05385 3.06065 5.00259 3.1708 4.99453C4.41989 4.7656 5.68591 4.64136 6.95567 4.62305C8.25591 4.64454 9.55258 4.76873 10.8332 4.99453C10.8879 4.99809 10.9415 5.01264 10.9906 5.03688C11.0398 5.06113 11.0836 5.09469 11.1197 5.13592C11.1558 5.17715 11.1835 5.22505 11.2011 5.27698C11.2186 5.3289 11.2257 5.38401 11.2221 5.43871L10.8613 11.0303C10.7998 11.8963 10.7226 12.9681 8.78441 12.9681H5.21963ZM3.97579 10.9746C4.03726 11.8184 4.05897 12.1354 5.21963 12.1354H8.78441C9.95088 12.1354 9.97259 11.8187 10.0282 10.9746L10.3604 5.82687C9.23923 5.59901 8.09959 5.47479 6.95567 5.45572C5.8421 5.47098 4.73265 5.59527 3.64333 5.82687L3.97579 10.9746Z" fill="#F2F2F8" />
</svg>
    