<svg width="18" height="19" viewBox="0 0 18 19" fill="none" xmlns="http://www.w3.org/2000/svg">
    <g clip-path="url(#clip0_934_36349)">
        <path d="M9.11676 17.6362H8.92033C7.82848 17.6376 6.76283 17.3008 5.87008 16.6722C4.97498 16.0465 4.29568 15.1587 3.92594 14.1311C3.77267 13.686 3.68417 13.2212 3.66315 12.751V12.7437C3.62131 12.5498 3.62149 12.3492 3.66315 12.1552C3.70482 11.9612 3.78706 11.7784 3.90485 11.6187C4.11992 11.355 4.42419 11.1789 4.76003 11.1237L5.49611 11.0841H12.5467L13.2819 11.1237C13.6179 11.1785 13.9223 11.3547 14.1371 11.6187C14.255 11.7783 14.3377 11.9611 14.3797 12.1551C14.4216 12.349 14.422 12.5497 14.3805 12.7437V12.75C14.3592 13.2202 14.2707 13.685 14.1177 14.1302C13.7478 15.1579 13.0688 16.0458 12.174 16.6722C11.2791 17.3019 10.211 17.6386 9.11676 17.6362V17.6362ZM6.29855 12.1061L5.73078 12.1331C5.47872 12.168 5.24635 12.2884 5.07248 12.4742C4.98306 12.5799 4.91938 12.705 4.88703 12.8395C4.85468 12.9741 4.85453 13.1144 4.88615 13.2491V13.2527C4.90218 13.5782 4.9702 13.8989 5.0883 14.2026C5.42264 14.9387 5.96658 15.56 6.65187 15.989C7.33716 16.4179 8.13366 16.6356 8.94186 16.6147H9.09479C9.90308 16.636 10.6999 16.4185 11.3852 15.9895C12.0706 15.5605 12.6143 14.939 12.9484 14.2026C13.066 13.8988 13.1339 13.5781 13.1501 13.2527V13.2482C13.1816 13.1135 13.1813 12.9733 13.1487 12.8389C13.1162 12.7044 13.0521 12.5795 12.9624 12.4742C12.789 12.2878 12.5564 12.1673 12.3041 12.1331L11.7363 12.1061H6.29855ZM8.9757 8.67396C8.54271 8.67508 8.11357 8.59019 7.71359 8.42435C7.31362 8.2585 6.95088 8.01501 6.64572 7.70782C6.33863 7.40261 6.09474 7.03948 5.92897 6.63951C5.76321 6.23954 5.67864 5.81069 5.6798 5.37773C5.67866 4.94457 5.76321 4.51548 5.92897 4.11529C6.09473 3.7151 6.33863 3.3517 6.64572 3.04621C6.95086 2.73906 7.3136 2.4956 7.71359 2.3299C8.11358 2.1642 8.54275 2.07956 8.9757 2.08095C9.40892 2.07957 9.83797 2.16421 10.2382 2.3299C10.6385 2.49559 11.0019 2.73905 11.3074 3.04621C11.6143 3.35182 11.8576 3.71523 12.0233 4.1154C12.189 4.51556 12.274 4.94462 12.2729 5.37773C12.274 5.81063 12.189 6.23945 12.0233 6.6394C11.8576 7.03935 11.6143 7.40248 11.3074 7.70782C11.0019 8.015 10.6385 8.25851 10.2382 8.42435C9.83799 8.59018 9.40896 8.67504 8.9757 8.67396ZM8.9757 3.09389C8.37107 3.09472 7.79124 3.33533 7.36379 3.76296C6.93633 4.19058 6.69597 4.77035 6.69538 5.37498C6.69609 5.97958 6.9368 6.55919 7.36423 6.98678C7.79166 7.41438 8.3711 7.65512 8.9757 7.65607C9.58049 7.65536 10.1604 7.41473 10.5881 6.98711C11.0158 6.5595 11.2561 5.97977 11.2569 5.37498C11.2555 4.77058 11.0148 4.1914 10.5872 3.76427C10.1595 3.33715 9.58011 3.09691 8.9757 3.0962V3.09389Z" fill="#EFF1F8" />
    </g>
    <defs>
        <clipPath id="clip0_934_36349">
            <rect width="18" height="18" fill="white" transform="translate(0 0.859253)" />
        </clipPath>
    </defs>
</svg>
    