<svg width="14" height="14" viewBox="0 0 14 14" fill="none" xmlns="http://www.w3.org/2000/svg">
    <g clip-path="url(#clip0_33264_67993)">
        <path d="M2.72991 13.0691C2.25063 13.0746 1.78795 12.8925 1.44096 12.5619C1.24179 12.3632 1.09468 12.1185 1.01234 11.8495C0.926726 11.5675 0.907285 11.2694 0.955597 10.9786L1.25092 8.88814C1.29285 8.63461 1.3738 8.38903 1.49052 8.16009C1.60188 7.92735 1.74932 7.71381 1.92735 7.52707L7.40649 2.04793C8.14606 1.30836 8.9096 0.932617 9.67437 0.932617C10.1164 0.93837 10.5503 1.05452 10.9363 1.26998C11.3121 1.47839 11.6551 1.74038 11.9552 2.04793C12.3259 2.40401 12.6265 2.82643 12.8412 3.29347C13.0208 3.69368 13.0939 4.1337 13.0531 4.57045C13.0182 4.92973 12.9083 5.27766 12.7305 5.59177C12.5198 5.9614 12.2586 6.30004 11.9549 6.59804L6.47678 12.0765C6.09615 12.4288 5.62369 12.6667 5.114 12.7628L3.02352 13.0582C2.97417 13.0582 2.92029 13.0608 2.87654 13.0636C2.83279 13.0664 2.77926 13.0691 2.72991 13.0691ZM9.64976 1.79431C9.32787 1.81315 9.01316 1.89608 8.72381 2.03836C8.43445 2.18063 8.17647 2.37909 7.965 2.6225L2.37717 8.17821C2.11488 8.45923 1.94003 8.81085 1.87437 9.18961L1.65493 10.7428C1.61756 10.9533 1.63094 11.1697 1.69355 11.3741C1.75617 11.5785 1.86634 11.7651 2.01519 11.9186C2.27313 12.1636 2.61618 12.2985 2.97191 12.2946C3.00691 12.2946 3.04873 12.2922 3.08163 12.2901H3.08504C3.12005 12.2901 3.15743 12.286 3.18998 12.286L4.7428 12.0673C5.1212 11.9954 5.47167 11.8187 5.75454 11.5573L11.3441 6.00159C11.7855 5.61235 12.074 5.07902 12.1586 4.49662C12.2223 3.85821 11.9489 3.22765 11.3441 2.62319C11.1313 2.3791 10.8717 2.18007 10.5808 2.03767C10.29 1.89528 9.97342 1.81269 9.6501 1.79431H9.64976Z" fill="#F2F2F8" />
        <path d="M10.6174 7.60945C10.5462 7.60982 10.4755 7.59925 10.4075 7.578C9.46015 7.30837 8.59723 6.80133 7.90073 6.10482C7.20422 5.40832 6.69718 4.5454 6.42755 3.59802C6.37378 3.40406 6.39494 3.19712 6.48736 3.01832C6.57978 2.83952 6.73657 2.70209 6.9259 2.63379C6.9125 2.73866 6.91993 2.84499 6.94812 2.94688C7.21771 3.89425 7.72478 4.75723 8.4213 5.45368C9.11781 6.15014 9.98071 6.65701 10.9281 6.92652C10.996 6.94818 11.0671 6.95931 11.1383 6.95899C11.2275 6.95905 11.3161 6.94336 11.4001 6.91319C11.3952 6.95214 11.3875 6.99075 11.3776 7.02872C11.3318 7.19536 11.2329 7.34255 11.0956 7.44743C10.9583 7.55232 10.7902 7.60918 10.6174 7.60945V7.60945Z" fill="#F2F2F8" />
    </g>
    <defs>
        <clipPath id="clip0_33264_67993">
            <rect width="14" height="14" fill="white" />
        </clipPath>
    </defs>
</svg>
    