<svg width="18" height="18" viewBox="0 0 18 18" fill="none" xmlns="http://www.w3.org/2000/svg">
    <path fill-rule="evenodd" clip-rule="evenodd" d="M6.72284 16.779H6.92434C8.04689 16.7815 9.14307 16.4448 10.0612 15.8151C10.9791 15.1885 11.6754 14.3003 12.055 13.2725C12.2118 12.8273 12.3026 12.3626 12.3245 11.8923V11.886C12.3666 11.6918 12.3663 11.4913 12.3232 11.2974C12.28 11.1035 12.1951 10.9206 12.0743 10.7609C11.854 10.4968 11.5422 10.3208 11.1976 10.266L10.4426 10.2263H3.20957L2.45454 10.266C2.11005 10.3212 1.79796 10.4972 1.57735 10.7609C1.45674 10.9207 1.37261 11.1036 1.32988 11.2975C1.28715 11.4915 1.2872 11.692 1.32988 11.886V11.8932C1.35138 12.3635 1.4423 12.8283 1.59989 13.2734C1.97909 14.3012 2.67543 15.1892 3.59363 15.8151C4.50951 16.4438 5.60274 16.7804 6.72284 16.779ZM3.45028 11.2753L4.03312 11.2483H9.61135L10.1937 11.2753C10.4524 11.3095 10.6913 11.4301 10.869 11.6165C10.9613 11.7216 11.0265 11.8465 11.0601 11.981C11.0937 12.1155 11.0947 12.2557 11.0624 12.3905V12.395C11.046 12.7204 10.9759 13.0412 10.855 13.345C10.5124 14.0814 9.95465 14.703 9.25164 15.1321C8.54863 15.5612 7.73138 15.7787 6.90225 15.7574H6.74538C5.9162 15.7783 5.09908 15.5607 4.39599 15.1316C3.6929 14.7026 3.13526 14.0812 2.79217 13.345C2.67104 13.0413 2.60081 12.7205 2.58436 12.395V12.3913C2.5517 12.2566 2.55207 12.1163 2.58526 11.9817C2.61846 11.847 2.68358 11.722 2.77549 11.6165C2.95379 11.4308 3.19194 11.3104 3.45028 11.2753Z" fill="#EFF1F8" />
    <path fill-rule="evenodd" clip-rule="evenodd" d="M5.48504 7.5657C5.89539 7.73155 6.33542 7.81637 6.77964 7.81521C7.22412 7.81633 7.66449 7.73154 8.07514 7.5657C8.48579 7.39986 8.85839 7.15627 9.17185 6.84905C9.48676 6.54369 9.73665 6.18043 9.9066 5.78038C10.0766 5.38033 10.1634 4.95146 10.1622 4.51846C10.1634 4.08526 10.0765 3.65614 9.9066 3.25588C9.73666 2.85561 9.48674 2.49209 9.17185 2.18644C8.85842 1.8792 8.4858 1.63567 8.07514 1.46989C7.66448 1.30412 7.22411 1.21941 6.77964 1.22072C6.33544 1.21938 5.89541 1.30412 5.48504 1.46989C5.07467 1.63567 4.70227 1.87919 4.38923 2.18644C4.0742 2.492 3.82451 2.85549 3.65448 3.25577C3.48445 3.65604 3.39724 4.08522 3.39845 4.51846C3.39722 4.9515 3.484 5.38043 3.65403 5.78049C3.82406 6.18055 4.0742 6.54376 4.38923 6.84905C4.70231 7.15628 5.07469 7.39985 5.48504 7.5657ZM5.12668 2.90431C5.56512 2.4767 6.15948 2.23606 6.77964 2.23511V2.23643C7.39984 2.23702 7.99428 2.47729 8.43305 2.90464C8.87182 3.33198 9.11925 3.9115 9.12047 4.51615C9.11961 5.12108 8.87274 5.70106 8.43395 6.12876C7.99516 6.55647 7.40013 6.79702 6.77964 6.79774C6.1594 6.79679 5.56468 6.55603 5.12623 6.12832C4.68778 5.70062 4.44123 5.12084 4.44062 4.51615C4.44135 3.91154 4.68825 3.33192 5.12668 2.90431Z" fill="#EFF1F8" />
    <path fill-rule="evenodd" clip-rule="evenodd" d="M12.1092 14.294C12.0358 14.4295 12.0045 14.4974 12.0317 14.5793L12.0335 14.5779C12.0589 14.6598 12.2183 14.6202 12.2183 14.6202L12.4392 14.5779L12.8057 14.4785L13.1568 14.3434C13.4278 14.2286 13.6862 14.0873 13.9281 13.9218C14.664 13.4196 15.2223 12.7077 15.5265 11.8838C15.6526 11.5269 15.7254 11.1542 15.7429 10.7772V10.7721C15.7766 10.6168 15.7761 10.4563 15.7415 10.3011C15.7069 10.146 15.6391 9.99975 15.5423 9.87212C15.366 9.66069 15.1162 9.51958 14.8404 9.47528C14.8404 9.47528 14.4561 9.43836 13.5652 9.43836C13.1391 9.43766 12.9131 9.44319 12.6431 9.44979C12.3952 9.45586 12.1103 9.46283 11.5994 9.46671C11.514 9.45609 11.4273 9.47083 11.3506 9.50901C11.3265 9.52524 11.3068 9.54714 11.2938 9.57273C11.2808 9.59832 11.2749 9.62672 11.2762 9.65524C11.28 9.68619 11.2915 9.71576 11.31 9.74115C11.3286 9.76655 11.3534 9.78696 11.3822 9.80059C11.4499 9.83567 11.4729 9.83852 11.5376 9.84656C11.5717 9.85079 11.6174 9.85646 11.6873 9.86904C11.9531 9.90888 12.2073 10.0029 12.4333 10.1449C12.5648 10.227 12.6626 10.3513 12.7101 10.4964C12.776 10.6347 12.8077 10.7862 12.8025 10.9387C12.8141 11.3172 12.8122 11.6691 12.8025 11.8941V11.9004C12.7881 12.3748 12.7033 12.8447 12.5505 13.2954C12.5085 13.4102 12.4654 13.5204 12.4225 13.6235C12.4054 13.6676 12.3882 13.7103 12.3711 13.7508C12.2862 13.9484 12.1979 14.1311 12.1092 14.294ZM13.8208 11.0782C13.8362 10.8089 13.8332 10.5388 13.8113 10.2699L14.039 10.2808C14.2463 10.308 14.4379 10.4046 14.5803 10.5539C14.6543 10.6383 14.7067 10.7384 14.7336 10.8462C14.7605 10.954 14.7613 11.0664 14.7354 11.1745V11.1781C14.7225 11.4389 14.6664 11.6961 14.5695 11.9396C14.3497 12.4556 13.9842 12.9003 13.5156 13.222C13.5466 13.1086 13.5759 12.9926 13.6026 12.8774C13.7309 12.2899 13.8038 11.6922 13.8208 11.0917V11.0782Z" fill="#EFF1F8" />
    <path fill-rule="evenodd" clip-rule="evenodd" d="M9.9104 6.79631C9.84809 6.87326 9.79719 6.9381 9.83873 7.04296C9.87127 7.12543 9.92437 7.14797 10.004 7.18175C10.026 7.19111 10.0501 7.20132 10.0763 7.21391C10.4585 7.40428 10.8821 7.50335 11.3114 7.50285C11.7932 7.50415 12.2666 7.37983 12.6826 7.14282C12.8785 7.02904 13.0592 6.89194 13.2204 6.73467C13.4729 6.48989 13.6728 6.19877 13.8091 5.87805C13.9454 5.55733 14.0151 5.21344 14.0142 4.86629C14.0151 4.51901 13.9453 4.17496 13.8091 3.85409C13.6728 3.53323 13.4729 3.2419 13.2204 2.99692C12.9692 2.75065 12.6705 2.5554 12.3414 2.42254C12.0122 2.28968 11.659 2.22185 11.3028 2.22291C11.2013 2.22292 11.0999 2.22828 10.999 2.23906H10.9927C10.7883 2.26125 10.5872 2.30532 10.3927 2.37046C10.2773 2.41006 10.2345 2.42853 10.1948 2.53383C10.1791 2.57673 10.1745 2.62272 10.1813 2.66776C10.1882 2.71281 10.2063 2.75551 10.2341 2.79213C10.5084 3.32967 10.6533 3.92115 10.6578 4.52153C10.6572 4.98227 10.5765 5.43965 10.4198 5.87431C10.3416 6.09183 10.2413 6.30107 10.12 6.4989C10.0567 6.60229 9.98666 6.70159 9.9104 6.79631ZM11.4768 4.54449C11.4787 4.03634 11.414 3.53008 11.2843 3.0379L11.3015 3.03735C11.7989 3.03783 12.2759 3.23075 12.6276 3.57361C12.9794 3.91647 13.1774 4.38135 13.178 4.86629C13.1774 5.35123 12.9794 5.81611 12.6276 6.15897C12.2759 6.50183 11.7989 6.69464 11.3015 6.69512C11.2243 6.69522 11.1472 6.6907 11.0707 6.68161C11.2063 6.35263 11.3075 6.01108 11.3727 5.66227C11.4427 5.29359 11.4774 4.91944 11.4768 4.54449Z" fill="#EFF1F8" />
</svg>
    