<svg width="18" height="19" viewBox="0 0 18 19" fill="none" xmlns="http://www.w3.org/2000/svg">
    <g clip-path="url(#clip0_934_36218)">
        <path d="M9.09679 17.6146H8.89991C7.81125 17.6161 6.74894 17.2803 5.85889 16.6534C4.96617 16.0296 4.28904 15.1444 3.92047 14.1196C3.76802 13.6757 3.67968 13.2122 3.65811 12.7434V12.7363C3.6166 12.543 3.61653 12.3431 3.65811 12.1498C3.6997 11.9566 3.7816 11.7743 3.89893 11.6152C4.1127 11.3522 4.4154 11.1762 4.74972 11.1203L5.4836 11.0811H12.5131L13.247 11.1203C13.5815 11.1756 13.884 11.3516 14.0973 11.6152C14.2149 11.7744 14.2976 11.9568 14.3395 12.1501C14.3814 12.3435 14.3815 12.5436 14.3403 12.7371V12.7434C14.319 13.2122 14.2308 13.6757 14.0784 14.1196C13.7092 15.1441 13.0322 16.0293 12.14 16.6539C11.2491 17.2808 10.1861 17.6164 9.09679 17.6146ZM8.95616 8.67813C8.52459 8.67943 8.09707 8.59491 7.69845 8.42951C7.29982 8.26411 6.93797 8.02109 6.63409 7.71463C6.32749 7.41053 6.08465 7.04857 5.9191 6.64973C5.75355 6.25089 5.66879 5.82319 5.66993 5.39135C5.66881 4.95932 5.75356 4.53138 5.9191 4.13232C6.08464 3.73326 6.32749 3.37103 6.63409 3.06665C6.93797 2.76025 7.29981 2.51735 7.69845 2.3521C8.09708 2.18685 8.52463 2.10248 8.95616 2.10402C9.38806 2.10272 9.81615 2.1872 10.2152 2.35243C10.6142 2.51765 10.9763 2.76041 11.2809 3.06665C11.5868 3.37142 11.8293 3.73376 11.9945 4.13276C12.1597 4.53176 12.2442 4.95951 12.2433 5.39135C12.2442 5.823 12.1598 6.25051 11.9945 6.64929C11.8293 7.04806 11.5868 7.41013 11.2809 7.71463C10.9765 8.02073 10.6148 8.26352 10.2161 8.42896C9.81738 8.5944 9.38958 8.67926 8.95792 8.67857L8.95616 8.67813Z" fill="#EFF1F8" />
    </g>
    <defs>
        <clipPath id="clip0_934_36218">
            <rect width="18" height="18" fill="white" transform="translate(0 0.859253)" />
        </clipPath>
    </defs>
</svg>
    