<svg width="24" height="24" viewBox="0 0 41 41" fill="none" xmlns="http://www.w3.org/2000/svg">
    <path d="M37.1439 7.99993C37.1439 9.01712 36.8423 10.0115 36.2772 10.8572C35.712 11.703 34.9088 12.3622 33.9691 12.7514C33.0293 13.1407 31.9952 13.2426 30.9976 13.0441C29.9999 12.8457 29.0835 12.3558 28.3643 11.6366C27.645 10.9173 27.1552 10.0009 26.9567 9.00328C26.7583 8.00564 26.8601 6.97155 27.2494 6.03179C27.6387 5.09203 28.2979 4.28881 29.1436 3.72369C29.9894 3.15857 30.9837 2.85693 32.0009 2.85693C33.3649 2.85693 34.6731 3.39878 35.6376 4.36328C36.6021 5.32778 37.1439 6.63593 37.1439 7.99993Z" fill="#F2F2F8" />
    <path d="M25.9673 37.1441H12.3208C12.0808 37.1441 11.8416 37.1271 11.6206 37.1101C11.4206 37.0941 11.228 37.076 11.021 37.042C10.812 37.024 10.5994 36.9891 10.4204 36.9561C9.92053 36.8846 9.42679 36.7779 8.94189 36.637C8.48562 36.5051 8.04025 36.3379 7.60986 36.137C7.19818 35.9434 6.80378 35.7157 6.43018 35.4561C6.06563 35.2021 5.72351 34.9166 5.40869 34.6031C5.09467 34.2891 4.80939 33.9481 4.55518 33.584C4.29463 33.2106 4.06555 32.816 3.87158 32.4041C3.67036 31.9731 3.50318 31.5271 3.37158 31.0701C3.23044 30.5839 3.12448 30.0882 3.05322 29.5869C3.02022 29.4079 2.98529 29.1971 2.96729 28.9871C2.93429 28.7871 2.91593 28.595 2.89893 28.387C2.88093 28.15 2.86377 27.919 2.86377 27.687V14.041C2.86377 13.807 2.88193 13.5751 2.89893 13.3411C2.91693 13.1331 2.93429 12.941 2.96729 12.741C2.98529 12.532 3.02022 12.3201 3.05322 12.1411C3.12448 11.6399 3.23044 11.1442 3.37158 10.658C3.50323 10.201 3.6704 9.75495 3.87158 9.324C4.06561 8.91213 4.29468 8.51746 4.55518 8.14407C4.80939 7.78 5.09467 7.43897 5.40869 7.12502C5.72351 6.81147 6.06563 6.52602 6.43018 6.272C6.80378 6.01241 7.19818 5.7847 7.60986 5.59109C8.04025 5.39018 8.48562 5.22301 8.94189 5.09109C9.42682 4.95025 9.92055 4.84356 10.4204 4.772C10.5994 4.739 10.812 4.70406 11.021 4.68606C11.221 4.65206 11.4136 4.63497 11.6206 4.61697C11.8566 4.59897 12.0878 4.58303 12.3208 4.58303H22.7437C23.0019 4.58165 23.2571 4.63907 23.4897 4.751C23.6006 4.80431 23.7057 4.86978 23.8022 4.94607C23.8979 5.02104 23.9848 5.10611 24.062 5.19998C24.2253 5.39819 24.3422 5.63013 24.4048 5.87917C24.4674 6.12822 24.4744 6.38807 24.4243 6.63992C24.4237 6.65725 24.4199 6.67444 24.4146 6.69094C24.41 6.70759 24.4075 6.72472 24.4067 6.74197C24.3877 6.83497 24.3749 6.926 24.3599 7.022C24.3479 7.103 24.3368 7.18597 24.3208 7.27297C24.2508 8.03475 24.291 8.80265 24.4399 9.553C24.4539 9.602 24.4641 9.65294 24.4741 9.69094C24.5058 9.83547 24.546 9.97805 24.5942 10.1179C24.7325 10.6783 24.9515 11.2153 25.2456 11.7119C25.3362 11.8876 25.4362 12.0582 25.5454 12.2229L25.603 12.3111C26.1659 13.131 26.8748 13.8403 27.6948 14.4031L27.7632 14.4461L27.7808 14.4571C27.947 14.5656 28.1182 14.6658 28.2944 14.7571C28.7915 15.0507 29.3296 15.2699 29.8901 15.408C30.0313 15.4568 30.1749 15.4973 30.3208 15.5291L30.4556 15.562C30.9707 15.6635 31.4949 15.7152 32.02 15.7161C32.26 15.7161 32.5008 15.7049 32.7368 15.6819C32.8228 15.6659 32.9068 15.6541 32.9878 15.6421C33.0878 15.6281 33.1761 15.615 33.2681 15.596C33.2854 15.595 33.3023 15.592 33.3188 15.5869C33.3358 15.582 33.353 15.5789 33.3706 15.5779C33.4823 15.5561 33.5957 15.5451 33.7095 15.5449C33.9355 15.5447 34.1596 15.589 34.3687 15.6751C34.5727 15.7584 34.7586 15.8802 34.9165 16.034C35.0799 16.193 35.2094 16.3834 35.2974 16.5938C35.3853 16.8041 35.4307 17.0301 35.4292 17.2581V27.6809C35.4292 27.9159 35.412 28.1471 35.394 28.3811C35.376 28.5891 35.3597 28.781 35.3257 28.981C35.3077 29.191 35.2727 29.4021 35.2397 29.5811C35.1685 30.0823 35.0616 30.5778 34.9204 31.064C34.7893 31.5212 34.6221 31.9672 34.4204 32.398C34.2267 32.8098 33.9989 33.2045 33.7388 33.5779C33.4842 33.942 33.1986 34.283 32.8843 34.5969C32.5699 34.9106 32.2281 35.196 31.8638 35.45C31.4899 35.7092 31.0955 35.9371 30.6841 36.1311C30.2536 36.3319 29.8083 36.499 29.3521 36.6311C28.8671 36.7719 28.3724 36.8783 27.8726 36.95C27.6926 36.983 27.4819 37.0179 27.2729 37.0359C27.0649 37.0709 26.8733 37.088 26.6733 37.104C26.4473 37.127 26.2073 37.1441 25.9673 37.1441ZM11.0005 27.7151C10.8318 27.7152 10.665 27.7487 10.5093 27.8137C10.3536 27.8788 10.2129 27.9741 10.0942 28.094C9.9744 28.2125 9.87901 28.3536 9.81396 28.5091C9.74892 28.6646 9.71559 28.8315 9.71533 29C9.71559 29.1686 9.74892 29.3355 9.81396 29.491C9.87901 29.6465 9.9744 29.7875 10.0942 29.906C10.2129 30.026 10.3536 30.1213 10.5093 30.1863C10.665 30.2514 10.8318 30.2848 11.0005 30.2849H26.4302C26.5987 30.2847 26.7649 30.2511 26.9204 30.1861C27.0759 30.121 27.217 30.0259 27.3354 29.906C27.4556 29.7877 27.5515 29.6468 27.6167 29.4912C27.6819 29.3357 27.7161 29.1687 27.7163 29C27.7161 28.8314 27.6819 28.6643 27.6167 28.5088C27.5515 28.3533 27.4556 28.2124 27.3354 28.094C27.217 27.9741 27.0759 27.879 26.9204 27.814C26.7649 27.7489 26.5987 27.7153 26.4302 27.7151H11.0005ZM10.9233 20.5281C10.5786 20.5281 10.2472 20.6649 10.0034 20.9087C9.75962 21.1525 9.62256 21.4831 9.62256 21.8279C9.62256 22.1727 9.75962 22.5035 10.0034 22.7473C10.2472 22.9911 10.5786 23.128 10.9233 23.128H26.4419C26.6126 23.128 26.7812 23.0944 26.939 23.0291C27.0967 22.9637 27.2401 22.8681 27.3608 22.7473C27.4816 22.6266 27.5777 22.4832 27.6431 22.3255C27.7084 22.1677 27.7417 21.9986 27.7417 21.8279C27.7417 21.6572 27.7084 21.4883 27.6431 21.3306C27.5777 21.1729 27.4816 21.0294 27.3608 20.9087C27.2401 20.788 27.0967 20.6923 26.939 20.627C26.7812 20.5616 26.6126 20.5281 26.4419 20.5281H10.9233ZM11.0005 13.3391C10.8318 13.3393 10.665 13.3727 10.5093 13.4378C10.3536 13.5028 10.2129 13.5981 10.0942 13.718C9.9744 13.8366 9.87901 13.9776 9.81396 14.1331C9.74892 14.2886 9.71559 14.4555 9.71533 14.624C9.71559 14.7926 9.74892 14.9595 9.81396 15.115C9.87901 15.2705 9.9744 15.4115 10.0942 15.5301C10.2129 15.6501 10.3536 15.7453 10.5093 15.8103C10.665 15.8754 10.8318 15.9089 11.0005 15.909H19.5718C19.7405 15.9088 19.9073 15.8754 20.063 15.8103C20.2187 15.7453 20.3603 15.65 20.479 15.5301C20.5988 15.4115 20.6942 15.2705 20.7593 15.115C20.8243 14.9595 20.8577 14.7926 20.8579 14.624C20.8577 14.4555 20.8243 14.2886 20.7593 14.1331C20.6942 13.9776 20.5988 13.8366 20.479 13.718C20.3603 13.5981 20.2187 13.5028 20.063 13.4378C19.9073 13.3727 19.7405 13.3393 19.5718 13.3391H11.0005Z" fill="#F2F2F8" />
</svg>
    