<svg width="14" height="14" viewBox="0 0 14 14" fill="none" xmlns="http://www.w3.org/2000/svg">
    <path d="M5.79467 8.86634L3.12032 6.26078C3.06489 6.20701 3.02084 6.14263 2.99077 6.0715C2.96071 6.00037 2.94524 5.92398 2.94531 5.84676C2.94698 5.68971 3.01089 5.53976 3.12306 5.42983C3.23522 5.3199 3.38644 5.25897 3.54349 5.26046C3.70277 5.26045 3.85556 5.32335 3.9687 5.43547L6.22263 7.63145L12.1828 1.78302L12.1849 1.78481C12.2989 1.69217 12.4436 1.64526 12.5903 1.65321C12.737 1.66117 12.8756 1.72336 12.9789 1.82779C13.0838 1.93164 13.1459 2.07105 13.1532 2.21849C13.1606 2.36593 13.1127 2.51075 13.0186 2.62448L13.0121 2.6308C13.0026 2.64165 12.9928 2.65211 12.9827 2.66191C12.97 2.67502 12.9564 2.68739 12.9423 2.69899L6.63725 8.87335C6.52662 8.99016 6.37732 9.0629 6.21716 9.0781C6.05598 9.05881 5.90657 8.98393 5.79467 8.86634Z" fill="#F2F2F8" />
</svg>
    