<svg width="24" height="24" viewBox="0 0 24 24" fill="none" xmlns="http://www.w3.org/2000/svg">
    <g clip-path="url(#clip0_30333_953)">
        <path d="M12.155 22.3692H11.8931C10.4373 22.3711 9.01645 21.9221 7.82613 21.084C6.63266 20.2496 5.72693 19.066 5.23394 17.6958C5.02957 17.1023 4.91157 16.4827 4.88355 15.8556V15.846C4.82776 15.5874 4.828 15.3199 4.88355 15.0613C4.9391 14.8026 5.04876 14.5588 5.20582 14.346C5.49258 13.9943 5.89826 13.7595 6.34605 13.6859L7.3275 13.6332H16.7283L17.7086 13.6859C18.1565 13.759 18.5624 13.9939 18.8488 14.346C19.006 14.5587 19.1163 14.8025 19.1722 15.0611C19.2282 15.3197 19.2286 15.5872 19.1734 15.846V15.8543C19.1449 16.4813 19.0269 17.101 18.823 17.6946C18.3298 19.0648 17.4244 20.2487 16.2314 21.084C15.0381 21.9235 13.614 22.3725 12.155 22.3692V22.3692ZM8.39742 14.9958L7.64039 15.0318C7.30431 15.0783 6.99448 15.2389 6.76265 15.4866C6.64343 15.6275 6.55852 15.7943 6.51539 15.9737C6.47225 16.1531 6.47205 16.3401 6.51422 16.5198V16.5246C6.53559 16.9586 6.62629 17.3862 6.78375 17.7911C7.22954 18.7726 7.95479 19.601 8.86851 20.173C9.78223 20.7449 10.8442 21.0351 11.9218 21.0072H12.1257C13.2034 21.0356 14.2658 20.7457 15.1796 20.1737C16.0935 19.6017 16.8185 18.7729 17.2638 17.7911C17.4207 17.386 17.5112 16.9585 17.5328 16.5246V16.5186C17.5748 16.339 17.5745 16.1521 17.531 15.9728C17.4876 15.7936 17.4022 15.627 17.2826 15.4866C17.0514 15.2381 16.7412 15.0773 16.4048 15.0318L15.6478 14.9958H8.39742ZM11.967 10.4196C11.3896 10.4211 10.8174 10.3079 10.2841 10.0868C9.75084 9.86566 9.26718 9.541 8.86031 9.13142C8.45086 8.72447 8.12567 8.2403 7.90464 7.707C7.68362 7.17371 7.57087 6.60191 7.57242 6.02463C7.5709 5.44709 7.68363 4.87496 7.90464 4.34138C8.12566 3.8078 8.45086 3.32326 8.86031 2.91594C9.26716 2.50641 9.75081 2.18179 10.2841 1.96086C10.8175 1.73993 11.3897 1.62707 11.967 1.62893C12.5446 1.62709 13.1166 1.73994 13.6503 1.96086C14.1841 2.18178 14.6686 2.50639 15.0759 2.91594C15.4851 3.32343 15.8095 3.80797 16.0304 4.34153C16.2513 4.87508 16.3646 5.44716 16.3632 6.02463C16.3647 6.60184 16.2513 7.17359 16.0304 7.70686C15.8095 8.24012 15.4851 8.7243 15.0759 9.13142C14.6686 9.541 14.184 9.86567 13.6503 10.0868C13.1167 10.3079 12.5446 10.4211 11.967 10.4196ZM11.967 2.97951C11.1608 2.98063 10.3877 3.30144 9.81773 3.8716C9.24779 4.44177 8.92731 5.21479 8.92652 6.02097C8.92747 6.8271 9.24841 7.59991 9.81832 8.17004C10.3882 8.74017 11.1608 9.06115 11.967 9.06242C12.7733 9.06147 13.5465 8.74063 14.1168 8.17048C14.687 7.60033 15.0074 6.82736 15.0086 6.02097C15.0066 5.2151 14.6858 4.44286 14.1156 3.87336C13.5454 3.30386 12.7728 2.98354 11.967 2.98259V2.97951Z" fill="#F2F2F8" />
    </g>
    <defs>
        <clipPath id="clip0_30333_953">
            <rect width="24" height="24" fill="white" />
        </clipPath>
    </defs>
</svg>