<svg width="24" height="24" viewBox="0 0 24 24" fill="none" xmlns="http://www.w3.org/2000/svg">
    <g clip-path="url(#clip0_31119_39491)">
        <path d="M16.6584 19.4389C16.623 19.3297 16.6637 19.239 16.7591 19.0584C16.8743 18.8412 16.9892 18.5976 17.0996 18.3342C17.1218 18.2802 17.1442 18.2232 17.1664 18.1644C17.2222 18.027 17.2782 17.88 17.3328 17.727C17.5313 17.1261 17.6416 16.4995 17.6603 15.8669V15.8585C17.6729 15.5585 17.6753 15.0893 17.6603 14.5847C17.6671 14.3814 17.6259 14.1794 17.5402 13.9949C17.4785 13.8015 17.3514 13.6358 17.1804 13.5263C16.8867 13.3369 16.5562 13.2116 16.2107 13.1585C15.9473 13.1099 15.9484 13.1386 15.814 13.0672C15.7766 13.049 15.7444 13.0218 15.7203 12.988C15.6961 12.9541 15.6813 12.9147 15.6763 12.8734C15.6745 12.8354 15.6823 12.7975 15.6992 12.7634C15.7161 12.7293 15.7417 12.7001 15.773 12.6784C15.8727 12.6275 15.9854 12.6079 16.0964 12.622C17.4837 12.6112 17.5891 12.5824 18.6518 12.5842C19.8098 12.5842 20.3094 12.6335 20.3094 12.6335C20.6679 12.6925 20.9926 12.8807 21.2218 13.1626C21.3477 13.3328 21.4358 13.5278 21.4807 13.7346C21.5257 13.9415 21.5264 14.1555 21.4825 14.3626V14.3693C21.4598 14.8721 21.3651 15.369 21.2012 15.8448C20.8058 16.9434 20.08 17.8926 19.1235 18.5621C18.8091 18.7829 18.4732 18.9712 18.1209 19.1243L17.6644 19.3044L17.1881 19.437L16.9009 19.4934C16.9009 19.4934 16.6937 19.5462 16.6607 19.437L16.6584 19.4389ZM13.8077 9.39036C13.7537 9.25056 13.8199 9.1641 13.9009 9.0615C14 8.93521 14.091 8.80281 14.1733 8.66495C14.3311 8.40119 14.4614 8.1222 14.563 7.83217C14.7667 7.25262 14.8716 6.64278 14.8724 6.02846C14.8666 5.22795 14.6782 4.43931 14.3216 3.72259C14.2855 3.67377 14.2619 3.61683 14.253 3.55677C14.2441 3.49671 14.2502 3.43539 14.2706 3.3782C14.3222 3.2378 14.3778 3.21317 14.5278 3.16037C14.7806 3.07351 15.0421 3.01476 15.3077 2.98517C15.3077 2.98517 15.3076 2.98517 15.3118 2.98517C15.316 2.98517 15.3117 2.98517 15.3159 2.98517C15.4471 2.9708 15.579 2.96365 15.7109 2.96364C16.1739 2.96222 16.6331 3.05266 17.0609 3.22981C17.4888 3.40696 17.877 3.66729 18.2035 3.99565C18.5317 4.32229 18.7916 4.71073 18.9688 5.13855C19.1459 5.56637 19.2366 6.0251 19.2354 6.48814C19.2366 6.95101 19.1459 7.40952 18.9688 7.83715C18.7916 8.26478 18.5317 8.65294 18.2035 8.97932C17.994 9.18901 17.7591 9.37181 17.5045 9.52352C16.9637 9.83953 16.3484 10.0053 15.722 10.0036C15.164 10.0042 14.6134 9.87213 14.1165 9.6183C13.9593 9.5409 13.8617 9.53077 13.8077 9.39036Z" fill="#6E7191" />
        <path d="M10.0199 22.3715H9.75802C8.30199 22.3735 6.8809 21.9246 5.69034 21.0864C4.49677 20.2519 3.5916 19.0678 3.09867 17.6974C2.89383 17.104 2.77563 16.4843 2.74769 15.8572V15.8475C2.69221 15.5889 2.69215 15.3215 2.74769 15.063C2.80323 14.8044 2.9126 14.5605 3.06938 14.3475C3.35615 13.9958 3.76184 13.7611 4.20964 13.6876L5.19111 13.6347H14.5933L15.5748 13.6876C16.0228 13.7606 16.428 13.9954 16.7144 14.3475C16.8714 14.5604 16.9818 14.8043 17.0379 15.0628C17.0939 15.3213 17.0943 15.5887 17.0396 15.8475V15.856C17.0111 16.483 16.8931 17.1026 16.6892 17.6962C16.1958 19.0667 15.2908 20.251 14.0976 21.0864C12.9041 21.926 11.4792 22.3749 10.0199 22.3715ZM9.83244 10.4199C9.255 10.4214 8.683 10.3083 8.14958 10.0872C7.61616 9.86606 7.13211 9.5413 6.72513 9.13165C6.31563 8.72461 5.99047 8.24032 5.76944 7.70691C5.54842 7.1735 5.43562 6.60159 5.43721 6.0242C5.43565 5.44655 5.54901 4.87432 5.77003 4.34062C5.99105 3.80692 6.31563 3.32227 6.72513 2.91485C7.13206 2.50518 7.61614 2.18049 8.14958 1.95945C8.68302 1.73841 9.25502 1.62543 9.83244 1.62722C10.4102 1.62548 10.9826 1.73843 11.5165 1.95945C12.0503 2.18048 12.5347 2.50519 12.9421 2.91485C13.3514 3.32238 13.6763 3.80708 13.8972 4.34076C14.1181 4.87445 14.231 5.44661 14.2294 6.0242C14.231 6.60154 14.1181 7.17336 13.8972 7.70676C13.6763 8.24016 13.3514 8.72452 12.9421 9.13165C12.5345 9.54136 12.0498 9.86622 11.5159 10.0873C10.982 10.3085 10.4097 10.4214 9.83185 10.4199H9.83244Z" fill="#6E7191" />
    </g>
    <defs>
        <clipPath id="clip0_31119_39491">
            <rect width="24" height="24" fill="white" />
        </clipPath>
    </defs>
</svg>