<svg width="18" height="19" viewBox="0 0 18 19" fill="none" xmlns="http://www.w3.org/2000/svg">
    <g clip-path="url(#clip0_840_8110)">
        <path d="M8.99983 18.0472C8.73155 18.0472 8.46381 18.0335 8.19693 18.0062C7.93495 17.9794 7.67434 17.9393 7.41644 17.8861C6.91067 17.7815 6.4165 17.6265 5.9416 17.4235C5.47434 17.2236 5.0278 16.9785 4.60826 16.6918C4.19161 16.407 3.80333 16.0826 3.44896 15.7233C3.43861 15.7138 3.42895 15.7048 3.41995 15.6958C3.08705 15.3537 2.78581 14.9821 2.51993 14.5856C2.25702 14.194 2.03025 13.7794 1.84228 13.3468C1.65503 12.9148 1.50735 12.4668 1.40149 12.0081C1.29456 11.5446 1.23035 11.0724 1.20945 10.5973V10.5973C1.20945 10.5793 1.20154 10.4172 1.20154 10.2476C1.20154 10.0707 1.209 9.89975 1.20945 9.8984V9.89566C1.23035 9.42052 1.29456 8.94829 1.40149 8.48487C1.50736 8.02615 1.65504 7.57799 1.84228 7.14604C2.03027 6.71344 2.25704 6.29882 2.51993 5.90719C2.7858 5.51072 3.08704 5.13912 3.41995 4.79699C3.4294 4.78754 3.43861 4.77853 3.44896 4.76953C3.80317 4.4102 4.19131 4.08595 4.60782 3.80117C5.02748 3.51455 5.474 3.2695 5.94116 3.06946C6.41612 2.86661 6.91028 2.71161 7.416 2.60682C7.67407 2.55354 7.93481 2.51326 8.19693 2.48618C8.46381 2.45888 8.73155 2.44529 8.99983 2.44531C9.2666 2.44531 9.53337 2.45876 9.79877 2.48574C10.0594 2.51235 10.3183 2.55221 10.5749 2.60506C11.0781 2.70862 11.5702 2.86186 12.0431 3.06265C12.508 3.26037 12.9527 3.50278 13.3707 3.78634C13.7858 4.06805 14.1726 4.38883 14.5265 4.74437C14.5405 4.75611 14.5537 4.76873 14.5661 4.78216C14.9176 5.13865 15.2343 5.52803 15.5114 5.94498C15.7844 6.35677 16.0174 6.79384 16.207 7.25008C16.3962 7.70564 16.5414 8.17819 16.6408 8.66131C16.7412 9.15013 16.7952 9.64728 16.8016 10.1463C16.8016 10.1827 16.8016 10.2179 16.8016 10.2476C16.8016 10.2773 16.8016 10.3124 16.8016 10.3489C16.7952 10.8478 16.7412 11.345 16.6408 11.8338C16.5413 12.3169 16.3961 12.7895 16.207 13.245C16.0173 13.7013 15.7844 14.1383 15.5114 14.5501C15.2343 14.9671 14.9176 15.3565 14.5661 15.713C14.5538 15.7264 14.5406 15.7391 14.5265 15.7507C14.1725 16.1062 13.7857 16.427 13.3707 16.7088C12.9527 16.9924 12.508 17.2348 12.0431 17.4325C11.5702 17.6332 11.0781 17.7864 10.5749 17.8901C10.3183 17.9429 10.0594 17.9827 9.79877 18.0094C9.53333 18.0354 9.26655 18.0481 8.99983 18.0472V18.0472ZM8.99983 10.2498C8.20605 10.2515 7.44574 10.5683 6.88513 11.1302C6.32451 11.6922 6.00959 12.4536 6.00971 13.2473C6.01067 14.0401 6.32584 14.8001 6.88645 15.3606C7.44705 15.9211 8.20708 16.2364 8.99983 16.2372C9.79361 16.2354 10.5544 15.9188 11.115 15.3569C11.6756 14.7949 11.9905 14.0334 11.9904 13.2396C11.9894 12.4469 11.6743 11.6869 11.1137 11.1264C10.5531 10.5659 9.79258 10.2506 8.99983 10.2498V10.2498ZM13.9583 6.89368C13.879 6.89349 13.8008 6.9107 13.7289 6.94422C13.657 6.97774 13.5934 7.02672 13.5426 7.08759L11.855 9.1968C11.7625 9.3071 11.7173 9.44963 11.7298 9.59309C11.7423 9.73654 11.8111 9.86916 11.9214 9.9618C11.9707 10.0031 12.027 10.0354 12.0875 10.0572C12.146 10.0781 12.2078 10.0888 12.2699 10.0887C12.3491 10.0889 12.4274 10.0717 12.4993 10.0383C12.5711 10.0048 12.6348 9.95601 12.6856 9.89522L14.3732 7.78601C14.4189 7.73151 14.4534 7.66855 14.4747 7.60067C14.496 7.53278 14.5039 7.46136 14.4975 7.39049C14.4916 7.31948 14.4716 7.25033 14.4386 7.18713C14.4057 7.12393 14.3603 7.06788 14.3055 7.02233C14.2564 6.98094 14.2007 6.94867 14.1402 6.92697C14.0818 6.9056 14.0201 6.89449 13.9579 6.89412L13.9583 6.89368Z" fill="#2F2F3D" />
    </g>
    <defs>
        <clipPath id="clip0_840_8110">
            <rect width="18" height="18" fill="white" transform="translate(0 0.882812)" />
        </clipPath>
    </defs>
</svg>
    