<svg width="18" height="18" viewBox="0 0 18 18" fill="none" xmlns="http://www.w3.org/2000/svg">
    <path fill-rule="evenodd" clip-rule="evenodd" d="M5.553 4.0502H5.37325C3.80185 4.0502 2.71917 4.39937 2.06442 5.12702C1.76864 5.51109 1.55741 5.95334 1.44457 6.42478C1.37966 6.69596 1.34815 6.97327 1.35019 7.2506C1.34858 7.47157 1.36799 7.69279 1.40851 7.91123L1.4148 7.96342L1.49111 8.76981C1.49111 8.76981 1.49229 8.7706 1.49456 8.77211L1.95373 13.6914C2.11393 15.2102 2.73944 16.7757 6.10049 16.7757H11.9203C15.2809 16.7757 15.9068 15.2102 16.0679 13.6833L16.5746 8.27088L16.6132 7.92293C16.6161 7.89924 16.6176 7.87806 16.6191 7.85643C16.62 7.84324 16.6209 7.82989 16.6221 7.8157C16.7011 7.35561 16.6861 6.88408 16.5777 6.42961C16.4648 5.95659 16.2534 5.51272 15.9573 5.12702C15.3111 4.41017 14.2256 4.0502 12.6484 4.0502H12.4629V4.04212C12.4629 2.75603 12.4629 1.16211 9.59112 1.16211H8.42931C5.553 1.16211 5.553 2.76363 5.553 4.04207V4.0502ZM2.65299 9.48116C3.9607 10.1978 5.38103 10.6847 6.85252 10.9208V10.9253C6.91983 11.6458 7.23796 12.4886 8.90992 12.4886C10.5819 12.4886 10.9121 11.6521 10.9642 10.91C12.5212 10.6565 14.0182 10.1175 15.3805 9.32014L14.9799 13.5762C14.8588 14.7314 14.5388 15.6858 11.9198 15.6858H6.1C3.47245 15.6858 3.16107 14.7314 3.03597 13.5821L2.65299 9.48116ZM11.3708 4.0502H6.64787V4.03855H6.6488C6.6488 2.7385 6.64881 2.25426 8.42487 2.25426H9.59156C11.3708 2.25426 11.3708 2.74479 11.3708 4.03852V4.0502ZM7.96223 10.4088V9.44305H9.84687V10.4024C9.84687 11.2151 9.84687 11.3375 8.90455 11.3375C7.96223 11.3375 7.96223 11.1904 7.96223 10.4088Z" fill="#2F2F3D" />
</svg>
    