<svg width="24" height="24" viewBox="0 0 24 24" fill="none" xmlns="http://www.w3.org/2000/svg">
    <path d="M16.8186 20.9154H7.17988C3.65848 20.9154 1.63867 18.8954 1.63867 15.3722V8.62627C1.63867 5.10487 3.65848 3.08594 7.17988 3.08594H16.8186C20.3418 3.08594 22.3615 5.10547 22.3615 8.62627V15.3722C22.3645 18.8954 20.3424 20.9154 16.8186 20.9154ZM5.84512 7.29561C5.73666 7.29513 5.62951 7.31916 5.53164 7.36592C5.43377 7.41267 5.34748 7.48076 5.27969 7.56543C5.21953 7.63955 5.17435 7.72496 5.14727 7.8165C5.12018 7.90804 5.11192 8.004 5.12207 8.09893C5.13179 8.19389 5.16023 8.28607 5.20586 8.36992C5.25149 8.45377 5.31303 8.52758 5.3875 8.5873C9.7675 12.1345 9.8062 12.1495 9.8752 12.1753C10.4961 12.6128 11.2391 12.8437 11.9986 12.8354C12.7523 12.8458 13.4898 12.6166 14.1051 12.1812C14.1825 12.1548 14.2249 12.1405 18.6121 8.58848C18.7603 8.46653 18.8548 8.29103 18.8746 8.1001C18.8944 7.90917 18.8383 7.71808 18.7182 7.56836C18.6503 7.48386 18.5639 7.41568 18.4662 7.36885C18.3685 7.32201 18.2617 7.2979 18.1533 7.29795C17.9869 7.29823 17.8258 7.3554 17.6963 7.45996L13.348 10.9495C12.9597 11.2447 12.4828 11.3997 11.9951 11.3893C11.5069 11.3995 11.029 11.2446 10.6398 10.9495L6.30215 7.45996C6.17299 7.35492 6.01159 7.29786 5.84512 7.29853V7.29561Z" fill="#6E7191" />
</svg>