<svg width="24" height="24" viewBox="0 0 24 24" fill="none" xmlns="http://www.w3.org/2000/svg">
    <g clip-path="url(#clip0_30002_4245)">
        <path d="M12.2931 22.6808H12.0306C10.5791 22.6828 9.16265 22.2351 7.97592 21.3992C6.78562 20.5675 5.88278 19.3872 5.39135 18.0207C5.18809 17.4289 5.0703 16.811 5.04155 16.1859V16.1763C4.9862 15.9187 4.9861 15.6521 5.04155 15.3944C5.09699 15.1367 5.2062 14.8937 5.36264 14.6816C5.64766 14.3309 6.05126 14.0963 6.49702 14.0217L7.47553 13.9694H16.8482L17.8267 14.0217C18.2728 14.0954 18.6761 14.3302 18.9605 14.6816C19.1173 14.8938 19.2275 15.137 19.2833 15.3949C19.3392 15.6527 19.3394 15.9195 19.2845 16.1775V16.1859C19.2561 16.811 19.1385 17.4289 18.9353 18.0207C18.4429 19.3868 17.5403 20.5671 16.3507 21.3998C15.1629 22.2357 13.7456 22.6832 12.2931 22.6808ZM12.1056 10.7655C11.5302 10.7672 10.9602 10.6545 10.4287 10.434C9.89716 10.2135 9.41469 9.88945 9.00952 9.48084C8.60072 9.07537 8.27692 8.59275 8.0562 8.06097C7.83547 7.52918 7.72245 6.95891 7.72397 6.38313C7.72248 5.80709 7.83548 5.2365 8.0562 4.70442C8.27692 4.17235 8.60072 3.68936 9.00952 3.28352C9.41469 2.875 9.89714 2.55112 10.4287 2.33079C10.9602 2.11046 11.5302 1.99797 12.1056 2.00003C12.6815 1.99829 13.2523 2.11093 13.7843 2.33123C14.3164 2.55153 14.7991 2.87521 15.2052 3.28352C15.6132 3.68988 15.9365 4.17301 16.1568 4.70501C16.3771 5.237 16.4897 5.80734 16.4884 6.38313C16.4897 6.95866 16.3771 7.52868 16.1568 8.06038C15.9365 8.59208 15.6131 9.07483 15.2052 9.48084C14.7994 9.88897 14.3171 10.2127 13.7855 10.4333C13.2539 10.6539 12.6835 10.767 12.108 10.7661L12.1056 10.7655Z" fill="#6E7191" />
    </g>
    <defs>
        <clipPath id="clip0_30002_4245">
            <rect width="24" height="24" fill="white" />
        </clipPath>
    </defs>
</svg>