<svg width="100%" height="100%" viewBox="0 0 636 511" fill="none" xmlns="http://www.w3.org/2000/svg">
    <path opacity="0.3" d="M244.174 486.248L272.519 502.61L283.223 496.432L254.878 480.069L244.174 486.248Z" fill="#F0F8FF" />
    <path opacity="0.15" d="M229.804 494.638L258.149 511L263.663 508.269L235.32 491.906L229.804 494.638Z" fill="#F0F8FF" />
    <g opacity="0.5">
        <path opacity="0.5" d="M473.674 122.243L466.838 74.1527L401.636 107.08L401.469 107.075L330.285 104.261L239.607 169.673L231.808 124.2L137.171 191.67L135.915 190.121L233.095 120.583L240.936 166.255L329.675 102.24L401.38 105.075L468.312 71.6237L474.958 118.873L473.674 122.243Z" fill="#6ACCE5" />
        <path opacity="0.5" d="M475.416 71.3982C473.561 74.5821 469.053 77.153 465.345 77.1403C461.637 77.1276 460.133 74.5339 461.987 71.3505C463.841 68.1672 468.349 65.5952 472.057 65.6079C475.764 65.6206 477.269 68.2137 475.416 71.3982Z" fill="#3869FF" />
        <path opacity="0.5" d="M407.385 105.78C405.814 108.48 401.991 110.66 398.847 110.648C395.702 110.636 394.427 108.44 395.998 105.74C397.57 103.04 401.393 100.86 404.538 100.871C407.683 100.883 408.956 103.08 407.385 105.78Z" fill="#3869FF" />
        <path opacity="0.5" d="M335.537 103.272C333.966 105.971 330.143 108.151 326.999 108.14C323.855 108.13 322.579 105.931 324.151 103.232C325.722 100.533 329.546 98.3516 332.689 98.3625C335.833 98.3735 337.109 100.572 335.537 103.272Z" fill="#3869FF" />
        <path opacity="0.5" d="M479.618 120.684C478.045 123.384 474.222 125.563 471.078 125.553C467.935 125.542 466.66 123.343 468.231 120.644C469.803 117.945 473.625 115.764 476.769 115.775C479.913 115.785 481.189 117.984 479.618 120.684Z" fill="#3869FF" />
        <path opacity="0.5" d="M246.218 167.671C244.647 170.371 240.824 172.551 237.68 172.539C234.535 172.528 233.26 170.331 234.831 167.631C236.403 164.931 240.227 162.751 243.371 162.763C246.515 162.775 247.789 164.971 246.218 167.671Z" fill="#3869FF" />
        <path opacity="0.5" d="M238.103 121.942C236.53 124.641 232.707 126.821 229.563 126.81C226.42 126.8 225.144 124.6 226.716 121.901C228.289 119.202 232.111 117.021 235.254 117.032C238.398 117.043 239.674 119.242 238.103 121.942Z" fill="#3869FF" />
        <path opacity="0.5" d="M141.488 190.92C139.916 193.62 136.093 195.8 132.951 195.791C129.808 195.781 128.53 193.58 130.101 190.88C131.672 188.18 135.496 186.001 138.641 186.011C141.785 186.022 143.059 188.221 141.488 190.92Z" fill="#3869FF" />
        <path opacity="0.5" d="M295.821 210.764L250.692 245.541L258.117 184.431L160.961 275.036L125.162 232.872L50.1274 321.124L49.1494 319.385L124.635 230.879L125.374 230.757L161.109 272.161L260.671 179.961L253.101 242.254L297.576 207.776L295.821 210.764Z" fill="#6ACCE5" />
        <path opacity="0.5" d="M301.637 206.586C300.546 204.658 296.953 204.625 293.611 206.515C290.27 208.404 288.445 211.499 289.536 213.428C290.627 215.357 294.221 215.389 297.562 213.5C300.903 211.61 302.728 208.515 301.637 206.586Z" fill="#3869FF" />
        <path opacity="0.5" d="M256.752 244.182C255.18 246.882 251.356 249.062 248.213 249.05C245.069 249.039 243.794 246.842 245.366 244.142C246.937 241.442 250.76 239.262 253.904 239.274C257.048 239.286 258.323 241.482 256.752 244.182Z" fill="#3869FF" />
        <path opacity="0.5" d="M263.927 182.798C262.356 185.498 258.533 187.678 255.388 187.666C252.243 187.655 250.97 185.458 252.541 182.758C254.112 180.058 257.935 177.878 261.08 177.889C264.225 177.9 265.498 180.098 263.927 182.798Z" fill="#3869FF" />
        <path opacity="0.5" d="M165.54 274.327C163.968 277.028 160.145 279.208 157.001 279.196C153.857 279.184 152.583 276.987 154.154 274.287C155.725 271.587 159.549 269.407 162.693 269.419C165.836 269.431 167.112 271.628 165.54 274.327Z" fill="#3869FF" />
        <path opacity="0.5" d="M129.885 228.566C128.794 226.638 125.201 226.606 121.859 228.495C118.518 230.384 116.693 233.479 117.784 235.408C118.875 237.337 122.469 237.369 125.81 235.48C129.152 233.591 130.976 230.495 129.885 228.566Z" fill="#3869FF" />
        <path opacity="0.5" d="M56.6094 321.008C54.7551 324.194 50.2459 326.765 46.5379 326.751C42.8299 326.737 41.3259 324.146 43.1802 320.961C45.0345 317.776 49.5426 315.206 53.2506 315.22C56.9586 315.234 58.4626 317.824 56.6094 321.008Z" fill="#3869FF" />
    </g>
    <path d="M314.527 239.244L326.622 246.233L314.527 253.217L302.433 246.228L314.527 239.244Z" fill="#A7DBE8" />
    <path d="M326.631 325.215L314.531 332.199V253.213L326.631 246.228V325.215Z" fill="#6ACCE5" />
    <path d="M314.534 332.198L302.434 325.215V246.228L314.534 253.213L314.534 332.198Z" fill="#37ACC9" />
    <path d="M294.669 264.847L306.764 271.836L294.669 278.821L282.575 271.832L294.669 264.847Z" fill="#A7DBE8" />
    <path d="M306.777 336.181L294.677 343.166V278.817L306.777 271.832V336.181Z" fill="#6ACCE5" />
    <path d="M294.677 343.165L282.577 336.181V271.832L294.677 278.817V343.165Z" fill="#37ACC9" />
    <path d="M275.158 294.21L287.252 301.199L275.158 308.183L263.063 301.196L275.158 294.21Z" fill="#A7DBE8" />
    <path d="M287.266 347.352L275.166 354.337V308.18L287.266 301.195V347.352Z" fill="#6ACCE5" />
    <path d="M275.166 354.337L263.065 347.352V301.195L275.166 308.18V354.337Z" fill="#37ACC9" />
    <path d="M255.207 325.385L267.301 332.374L255.207 339.358L243.113 332.369L255.207 325.385Z" fill="#A7DBE8" />
    <path d="M267.312 358.524L255.212 365.509V339.354L267.312 332.369L267.312 358.524Z" fill="#6ACCE5" />
    <path d="M255.213 365.509L243.112 358.524V332.369L255.213 339.354V365.509Z" fill="#37ACC9" />
    <path d="M236.584 346.424C236.502 346.424 236.421 346.408 236.345 346.377C236.27 346.346 236.201 346.301 236.143 346.244C236.085 346.186 236.039 346.118 236.008 346.044C235.977 345.969 235.961 345.889 235.961 345.808V343.344C235.959 343.262 235.973 343.181 236.004 343.104C236.034 343.028 236.08 342.958 236.138 342.899C236.196 342.841 236.265 342.794 236.342 342.762C236.418 342.73 236.501 342.714 236.584 342.714C236.667 342.714 236.749 342.73 236.826 342.762C236.903 342.794 236.972 342.841 237.03 342.899C237.088 342.958 237.134 343.028 237.164 343.104C237.194 343.181 237.209 343.262 237.207 343.344V345.808C237.207 345.971 237.141 346.128 237.025 346.243C236.908 346.359 236.749 346.424 236.584 346.424ZM236.584 340.266C236.502 340.266 236.421 340.25 236.345 340.219C236.27 340.188 236.201 340.143 236.143 340.085C236.085 340.028 236.039 339.96 236.008 339.885C235.977 339.811 235.961 339.73 235.961 339.65V337.186C235.959 337.104 235.973 337.022 236.004 336.946C236.034 336.87 236.08 336.8 236.138 336.741C236.196 336.682 236.265 336.636 236.342 336.604C236.418 336.572 236.501 336.555 236.584 336.555C236.667 336.555 236.749 336.572 236.826 336.604C236.903 336.636 236.972 336.682 237.03 336.741C237.088 336.8 237.134 336.87 237.164 336.946C237.194 337.022 237.209 337.104 237.207 337.186V339.65C237.207 339.813 237.141 339.969 237.025 340.085C236.908 340.2 236.749 340.265 236.584 340.266ZM236.584 334.107C236.502 334.107 236.421 334.092 236.345 334.061C236.27 334.03 236.201 333.984 236.143 333.927C236.085 333.87 236.039 333.802 236.008 333.727C235.977 333.652 235.961 333.572 235.961 333.491V331.028C235.965 330.867 236.032 330.715 236.148 330.602C236.265 330.49 236.421 330.427 236.584 330.427C236.747 330.427 236.903 330.49 237.019 330.602C237.136 330.715 237.203 330.867 237.207 331.028V333.491C237.207 333.655 237.141 333.811 237.025 333.927C236.908 334.042 236.749 334.108 236.584 334.108V334.107ZM237.94 328.704C237.804 328.704 237.672 328.66 237.564 328.579C237.455 328.498 237.377 328.384 237.34 328.254C237.304 328.125 237.311 327.987 237.361 327.862C237.411 327.737 237.501 327.631 237.618 327.562L239.75 326.287C239.892 326.206 240.059 326.184 240.217 326.224C240.375 326.264 240.511 326.364 240.596 326.502C240.68 326.64 240.707 326.805 240.669 326.962C240.632 327.119 240.534 327.255 240.396 327.341L238.262 328.616C238.165 328.674 238.053 328.705 237.94 328.704H237.94ZM243.275 325.518C243.138 325.52 243.004 325.477 242.895 325.396C242.785 325.315 242.706 325.2 242.669 325.07C242.632 324.94 242.64 324.801 242.691 324.676C242.742 324.551 242.834 324.445 242.952 324.377L245.085 323.102C245.155 323.059 245.232 323.03 245.314 323.017C245.395 323.004 245.478 323.007 245.558 323.026C245.638 323.045 245.714 323.08 245.78 323.128C245.847 323.176 245.903 323.236 245.946 323.306C245.988 323.376 246.017 323.453 246.029 323.533C246.041 323.614 246.037 323.696 246.017 323.775C245.997 323.854 245.961 323.928 245.912 323.993C245.863 324.058 245.801 324.113 245.73 324.155L243.596 325.43C243.499 325.488 243.388 325.518 243.274 325.518H243.275ZM248.607 322.332C248.47 322.332 248.338 322.288 248.23 322.207C248.122 322.125 248.043 322.011 248.007 321.882C247.97 321.752 247.977 321.614 248.027 321.489C248.077 321.364 248.167 321.259 248.284 321.189L250.416 319.914C250.486 319.871 250.564 319.843 250.646 319.83C250.727 319.817 250.81 319.82 250.89 319.839C250.97 319.858 251.046 319.892 251.112 319.94C251.179 319.988 251.235 320.049 251.278 320.119C251.32 320.188 251.349 320.265 251.361 320.346C251.373 320.426 251.369 320.508 251.349 320.587C251.329 320.666 251.293 320.74 251.244 320.806C251.195 320.871 251.133 320.926 251.062 320.967L248.929 322.242C248.832 322.301 248.721 322.332 248.607 322.332H248.607ZM253.941 319.146C253.805 319.146 253.672 319.102 253.563 319.021C253.455 318.94 253.376 318.826 253.34 318.696C253.303 318.567 253.31 318.429 253.36 318.304C253.41 318.178 253.5 318.073 253.616 318.003L255.751 316.728C255.821 316.685 255.899 316.656 255.98 316.644C256.061 316.631 256.144 316.634 256.225 316.653C256.305 316.672 256.38 316.706 256.447 316.754C256.513 316.802 256.569 316.863 256.612 316.933C256.655 317.002 256.683 317.08 256.695 317.16C256.707 317.241 256.703 317.323 256.683 317.402C256.663 317.481 256.627 317.555 256.577 317.62C256.528 317.685 256.466 317.74 256.395 317.781L254.262 319.056C254.165 319.114 254.054 319.145 253.941 319.146L253.941 319.146ZM256.701 314.528C256.535 314.528 256.377 314.463 256.26 314.347C256.143 314.232 256.077 314.075 256.077 313.912V311.448C256.077 311.285 256.143 311.128 256.26 311.013C256.377 310.897 256.535 310.832 256.701 310.832C256.866 310.832 257.024 310.897 257.141 311.013C257.258 311.128 257.324 311.285 257.324 311.448V313.912C257.324 313.992 257.308 314.072 257.276 314.147C257.245 314.222 257.199 314.289 257.141 314.346C257.083 314.404 257.014 314.449 256.939 314.48C256.863 314.51 256.782 314.526 256.701 314.526V314.528ZM256.701 308.369C256.535 308.369 256.377 308.304 256.26 308.189C256.143 308.073 256.077 307.917 256.077 307.753V305.29C256.077 305.127 256.143 304.97 256.26 304.855C256.377 304.739 256.535 304.674 256.701 304.674C256.866 304.674 257.024 304.739 257.141 304.855C257.258 304.97 257.324 305.127 257.324 305.29V307.753C257.324 307.834 257.308 307.914 257.276 307.989C257.245 308.063 257.199 308.131 257.141 308.188C257.083 308.245 257.014 308.291 256.939 308.321C256.863 308.352 256.782 308.368 256.701 308.368V308.369ZM256.701 302.211C256.535 302.211 256.377 302.146 256.26 302.031C256.143 301.915 256.077 301.759 256.077 301.595V299.131C256.077 298.967 256.143 298.811 256.26 298.695C256.377 298.58 256.535 298.515 256.701 298.515C256.866 298.515 257.024 298.58 257.141 298.695C257.258 298.811 257.324 298.967 257.324 299.131V301.594C257.324 301.675 257.308 301.755 257.277 301.83C257.245 301.905 257.199 301.973 257.142 302.03C257.084 302.087 257.015 302.133 256.939 302.163C256.864 302.194 256.782 302.21 256.701 302.21V302.211ZM258.752 297.169C258.617 297.169 258.485 297.126 258.377 297.046C258.269 296.966 258.19 296.853 258.152 296.725C258.115 296.597 258.12 296.46 258.168 296.335C258.216 296.21 258.304 296.104 258.418 296.032L260.527 294.718C260.667 294.634 260.834 294.607 260.994 294.644C261.153 294.68 261.292 294.778 261.379 294.915C261.467 295.051 261.496 295.217 261.461 295.375C261.426 295.533 261.329 295.671 261.191 295.759L259.084 297.074C258.984 297.135 258.87 297.168 258.753 297.168L258.752 297.169ZM264.023 293.883C263.888 293.883 263.756 293.84 263.648 293.76C263.54 293.679 263.462 293.567 263.424 293.439C263.386 293.31 263.392 293.174 263.44 293.049C263.487 292.924 263.575 292.818 263.689 292.746L265.798 291.432C265.937 291.345 266.106 291.317 266.267 291.353C266.429 291.389 266.569 291.486 266.657 291.624C266.745 291.762 266.774 291.929 266.737 292.088C266.701 292.247 266.602 292.386 266.462 292.473L264.354 293.788C264.255 293.85 264.14 293.882 264.023 293.882L264.023 293.883ZM269.293 290.596C269.158 290.596 269.026 290.553 268.918 290.472C268.81 290.392 268.732 290.279 268.694 290.151C268.656 290.023 268.662 289.886 268.71 289.761C268.758 289.636 268.846 289.53 268.96 289.459L271.068 288.145C271.208 288.058 271.377 288.029 271.539 288.065C271.7 288.101 271.84 288.199 271.929 288.337C272.017 288.475 272.046 288.642 272.01 288.802C271.973 288.961 271.874 289.1 271.734 289.187L269.625 290.501C269.526 290.563 269.411 290.595 269.294 290.595L269.293 290.596ZM274.564 287.31C274.429 287.31 274.297 287.267 274.189 287.186C274.081 287.106 274.002 286.993 273.965 286.865C273.927 286.737 273.933 286.6 273.981 286.475C274.029 286.35 274.117 286.244 274.231 286.173L275.758 285.221C275.756 285.139 275.771 285.057 275.801 284.981C275.831 284.904 275.877 284.835 275.935 284.776C275.993 284.717 276.063 284.67 276.139 284.639C276.216 284.607 276.298 284.59 276.381 284.59C276.464 284.59 276.547 284.607 276.623 284.639C276.7 284.67 276.769 284.717 276.827 284.776C276.885 284.835 276.931 284.904 276.961 284.981C276.992 285.057 277.006 285.139 277.004 285.221V285.9L274.896 287.215C274.797 287.277 274.682 287.309 274.564 287.309L274.564 287.31ZM276.381 282.14C276.217 282.14 276.058 282.075 275.942 281.96C275.825 281.845 275.759 281.689 275.758 281.526V279.062C275.756 278.98 275.771 278.898 275.801 278.822C275.832 278.745 275.877 278.675 275.935 278.617C275.994 278.558 276.063 278.511 276.14 278.479C276.216 278.447 276.298 278.431 276.382 278.431C276.465 278.431 276.547 278.447 276.624 278.479C276.7 278.511 276.77 278.558 276.828 278.617C276.886 278.675 276.931 278.745 276.962 278.822C276.992 278.898 277.007 278.98 277.005 279.062V281.526C277.004 281.689 276.938 281.845 276.821 281.96C276.704 282.075 276.546 282.14 276.381 282.14ZM276.381 275.981C276.216 275.981 276.057 275.917 275.941 275.801C275.824 275.686 275.758 275.529 275.758 275.366V272.903C275.756 272.82 275.771 272.739 275.801 272.662C275.831 272.586 275.877 272.516 275.935 272.457C275.993 272.399 276.063 272.352 276.139 272.32C276.216 272.288 276.298 272.272 276.381 272.272C276.464 272.272 276.547 272.288 276.623 272.32C276.7 272.352 276.769 272.399 276.827 272.457C276.885 272.516 276.931 272.586 276.961 272.662C276.992 272.739 277.006 272.82 277.004 272.903V275.366C277.005 275.447 276.989 275.527 276.957 275.602C276.926 275.677 276.88 275.745 276.822 275.802C276.764 275.859 276.696 275.905 276.62 275.936C276.544 275.967 276.463 275.983 276.381 275.983V275.981ZM276.381 269.823C276.216 269.823 276.057 269.758 275.941 269.643C275.824 269.527 275.758 269.371 275.758 269.207V268.217L277.628 267.089C277.769 267.004 277.939 266.977 278.099 267.016C278.26 267.054 278.399 267.154 278.485 267.294C278.572 267.433 278.598 267.601 278.559 267.759C278.521 267.918 278.419 268.056 278.278 268.141L277.006 268.911V269.209C277.006 269.29 276.99 269.37 276.958 269.445C276.927 269.52 276.881 269.588 276.823 269.645C276.765 269.702 276.696 269.747 276.62 269.778C276.544 269.809 276.463 269.825 276.381 269.825V269.823ZM281.144 266.306C281.009 266.306 280.876 266.262 280.768 266.181C280.66 266.099 280.582 265.986 280.545 265.856C280.508 265.727 280.515 265.589 280.565 265.465C280.615 265.34 280.704 265.234 280.82 265.164L282.948 263.881C283.09 263.796 283.259 263.77 283.42 263.808C283.581 263.847 283.719 263.946 283.805 264.086C283.892 264.225 283.918 264.393 283.879 264.552C283.84 264.711 283.739 264.848 283.598 264.933L281.47 266.216C281.372 266.276 281.26 266.307 281.145 266.307L281.144 266.306ZM286.465 263.099C286.329 263.099 286.196 263.055 286.088 262.974C285.98 262.893 285.901 262.779 285.864 262.65C285.827 262.521 285.834 262.383 285.884 262.258C285.933 262.133 286.023 262.027 286.139 261.957L288.267 260.674C288.337 260.632 288.415 260.603 288.496 260.591C288.577 260.578 288.659 260.582 288.739 260.601C288.819 260.62 288.894 260.654 288.96 260.702C289.026 260.749 289.082 260.809 289.125 260.878C289.168 260.947 289.196 261.024 289.209 261.104C289.221 261.184 289.218 261.266 289.199 261.344C289.18 261.423 289.145 261.497 289.097 261.563C289.048 261.628 288.988 261.683 288.918 261.726L286.79 263.009C286.692 263.068 286.579 263.099 286.465 263.099ZM291.785 259.89C291.649 259.891 291.517 259.847 291.408 259.766C291.3 259.685 291.221 259.571 291.184 259.442C291.147 259.313 291.154 259.175 291.204 259.05C291.254 258.925 291.343 258.82 291.46 258.75L293.589 257.466C293.659 257.424 293.736 257.396 293.817 257.384C293.898 257.371 293.98 257.374 294.06 257.393C294.139 257.412 294.214 257.447 294.28 257.494C294.347 257.542 294.403 257.602 294.445 257.671C294.488 257.74 294.516 257.816 294.529 257.896C294.542 257.976 294.538 258.058 294.519 258.136C294.5 258.215 294.465 258.289 294.417 258.354C294.369 258.42 294.308 258.475 294.238 258.517L292.109 259.801C292.012 259.859 291.9 259.891 291.785 259.89H291.785ZM296.403 256.293C296.321 256.293 296.24 256.278 296.164 256.247C296.089 256.216 296.02 256.171 295.962 256.113C295.904 256.056 295.858 255.988 295.827 255.913C295.795 255.838 295.78 255.758 295.78 255.677V253.214C295.784 253.053 295.851 252.9 295.968 252.788C296.084 252.676 296.24 252.613 296.403 252.613C296.566 252.613 296.722 252.676 296.839 252.788C296.955 252.9 297.022 253.053 297.026 253.214V255.677C297.026 255.758 297.01 255.838 296.979 255.913C296.948 255.988 296.902 256.055 296.844 256.113C296.786 256.17 296.718 256.215 296.642 256.246C296.567 256.277 296.486 256.293 296.404 256.293H296.403ZM296.403 250.135C296.321 250.135 296.24 250.12 296.164 250.089C296.089 250.058 296.02 250.012 295.962 249.955C295.904 249.898 295.858 249.83 295.827 249.755C295.795 249.68 295.78 249.6 295.78 249.519V247.056C295.784 246.895 295.851 246.742 295.968 246.63C296.084 246.517 296.24 246.455 296.403 246.455C296.566 246.455 296.722 246.517 296.839 246.63C296.955 246.742 297.022 246.895 297.026 247.056V249.519C297.026 249.6 297.01 249.68 296.979 249.754C296.948 249.829 296.902 249.897 296.844 249.954C296.786 250.011 296.718 250.057 296.642 250.088C296.566 250.119 296.485 250.135 296.404 250.135L296.403 250.135ZM296.403 243.977C296.321 243.977 296.24 243.961 296.164 243.93C296.089 243.9 296.02 243.854 295.962 243.797C295.904 243.74 295.858 243.672 295.827 243.597C295.795 243.522 295.78 243.442 295.78 243.361V242.691L297.974 241.438C298.117 241.357 298.287 241.335 298.447 241.377C298.607 241.419 298.743 241.523 298.826 241.664C298.908 241.806 298.931 241.974 298.888 242.132C298.845 242.29 298.74 242.424 298.597 242.506L297.027 243.403C297.016 243.559 296.946 243.705 296.83 243.811C296.714 243.918 296.562 243.977 296.404 243.977L296.403 243.977ZM301.524 240.74C301.387 240.74 301.254 240.695 301.145 240.613C301.036 240.53 300.958 240.414 300.922 240.284C300.887 240.153 300.896 240.014 300.949 239.889C301.001 239.763 301.094 239.659 301.213 239.591L303.372 238.358C303.443 238.316 303.521 238.288 303.603 238.276C303.685 238.265 303.769 238.269 303.849 238.289C303.929 238.31 304.004 238.346 304.07 238.395C304.136 238.445 304.191 238.507 304.233 238.578C304.274 238.649 304.301 238.727 304.311 238.808C304.322 238.889 304.316 238.972 304.294 239.05C304.272 239.129 304.234 239.203 304.183 239.267C304.131 239.331 304.068 239.385 303.995 239.425L301.836 240.657C301.741 240.711 301.634 240.74 301.525 240.74L301.524 240.74ZM306.922 237.66C306.785 237.66 306.651 237.615 306.543 237.532C306.434 237.45 306.356 237.334 306.32 237.203C306.285 237.072 306.294 236.933 306.346 236.808C306.399 236.683 306.492 236.578 306.61 236.511L308.769 235.278C308.912 235.199 309.081 235.18 309.238 235.223C309.396 235.266 309.53 235.368 309.612 235.508C309.693 235.648 309.716 235.814 309.675 235.97C309.634 236.127 309.533 236.261 309.393 236.344L307.234 237.578C307.139 237.632 307.032 237.66 306.922 237.66L306.922 237.66ZM312.318 234.579C312.181 234.579 312.048 234.534 311.939 234.451C311.831 234.369 311.753 234.253 311.717 234.123C311.682 233.992 311.691 233.853 311.743 233.728C311.796 233.603 311.888 233.498 312.007 233.43L314.167 232.199C314.31 232.12 314.478 232.101 314.636 232.144C314.793 232.187 314.928 232.29 315.009 232.429C315.091 232.569 315.114 232.735 315.073 232.892C315.032 233.048 314.931 233.182 314.791 233.265L312.63 234.497C312.536 234.551 312.428 234.579 312.319 234.58L312.318 234.579Z" fill="#6ACCE5" />
    <path d="M294.569 406.213C294.443 406.212 294.32 406.172 294.219 406.096C294.119 406.021 294.046 405.915 294.012 405.795C293.978 405.674 293.985 405.547 294.032 405.431C294.078 405.315 294.162 405.217 294.27 405.153L294.533 404.996C294.598 404.956 294.671 404.929 294.747 404.916C294.822 404.904 294.9 404.906 294.975 404.924C295.05 404.941 295.12 404.973 295.182 405.018C295.245 405.062 295.297 405.119 295.337 405.184C295.377 405.248 295.403 405.32 295.414 405.395C295.426 405.471 295.422 405.547 295.403 405.62C295.384 405.694 295.35 405.763 295.304 405.824C295.257 405.884 295.199 405.935 295.133 405.973L294.869 406.13C294.778 406.184 294.675 406.212 294.569 406.213ZM297.803 404.282C297.677 404.282 297.554 404.241 297.454 404.165C297.354 404.09 297.281 403.984 297.247 403.864C297.213 403.744 297.22 403.617 297.266 403.501C297.312 403.385 297.396 403.287 297.504 403.222L299.484 402.04C299.549 402 299.621 401.973 299.697 401.96C299.773 401.948 299.851 401.95 299.926 401.968C300 401.985 300.071 402.017 300.133 402.062C300.195 402.106 300.248 402.163 300.288 402.228C300.327 402.292 300.354 402.364 300.365 402.439C300.376 402.514 300.372 402.591 300.353 402.664C300.334 402.738 300.301 402.807 300.254 402.868C300.208 402.928 300.15 402.979 300.083 403.017L298.103 404.199C298.013 404.253 297.909 404.281 297.803 404.281V404.282ZM302.756 401.325C302.63 401.325 302.507 401.285 302.406 401.209C302.305 401.134 302.232 401.028 302.198 400.908C302.164 400.787 302.171 400.659 302.218 400.543C302.265 400.427 302.348 400.33 302.457 400.265L304.437 399.083C304.502 399.042 304.575 399.015 304.651 399.002C304.727 398.989 304.805 398.991 304.88 399.009C304.955 399.026 305.026 399.058 305.088 399.102C305.151 399.147 305.204 399.204 305.243 399.269C305.283 399.334 305.31 399.406 305.321 399.482C305.332 399.557 305.328 399.634 305.308 399.707C305.289 399.781 305.255 399.85 305.208 399.911C305.161 399.971 305.103 400.022 305.036 400.06L303.055 401.241C302.965 401.295 302.862 401.324 302.756 401.324V401.325ZM307.707 398.371C307.581 398.371 307.458 398.33 307.357 398.254C307.257 398.179 307.184 398.073 307.15 397.953C307.116 397.833 307.123 397.705 307.169 397.589C307.216 397.473 307.299 397.376 307.407 397.311L309.388 396.128C309.453 396.087 309.525 396.06 309.601 396.048C309.677 396.035 309.755 396.038 309.829 396.055C309.904 396.073 309.975 396.105 310.037 396.149C310.099 396.194 310.152 396.25 310.191 396.315C310.231 396.38 310.258 396.452 310.269 396.527C310.28 396.602 310.276 396.679 310.257 396.752C310.238 396.826 310.204 396.895 310.158 396.955C310.112 397.016 310.054 397.066 309.987 397.105L308.007 398.289C307.916 398.342 307.812 398.369 307.707 398.368V398.371ZM312.659 395.414C312.533 395.414 312.41 395.373 312.309 395.298C312.208 395.222 312.135 395.116 312.101 394.996C312.067 394.876 312.074 394.748 312.121 394.632C312.167 394.516 312.251 394.418 312.359 394.354L314.34 393.172C314.471 393.093 314.629 393.07 314.778 393.106C314.927 393.142 315.056 393.235 315.135 393.365C315.215 393.495 315.239 393.65 315.202 393.797C315.165 393.944 315.071 394.071 314.939 394.15L312.959 395.332C312.868 395.384 312.765 395.412 312.659 395.411V395.414ZM317.611 392.46C317.485 392.46 317.362 392.419 317.261 392.344C317.16 392.268 317.087 392.162 317.053 392.042C317.019 391.922 317.026 391.794 317.073 391.678C317.119 391.562 317.203 391.464 317.312 391.4L319.292 390.217C319.424 390.138 319.581 390.115 319.73 390.151C319.879 390.187 320.008 390.281 320.087 390.41C320.166 390.54 320.19 390.695 320.153 390.842C320.117 390.989 320.022 391.116 319.891 391.194L317.911 392.373C317.821 392.427 317.717 392.455 317.611 392.455V392.46ZM322.563 389.502C322.437 389.502 322.314 389.461 322.214 389.386C322.113 389.311 322.04 389.205 322.006 389.085C321.972 388.965 321.979 388.837 322.026 388.721C322.072 388.605 322.156 388.507 322.264 388.443L324.244 387.261C324.309 387.222 324.382 387.196 324.457 387.185C324.532 387.173 324.609 387.177 324.683 387.195C324.756 387.212 324.826 387.245 324.887 387.289C324.948 387.334 325 387.389 325.04 387.454C325.079 387.518 325.105 387.589 325.117 387.663C325.128 387.737 325.125 387.813 325.106 387.886C325.088 387.959 325.056 388.027 325.011 388.088C324.966 388.148 324.909 388.199 324.844 388.238L322.864 389.42C322.772 389.473 322.669 389.5 322.563 389.498L322.563 389.502ZM327.514 386.542C327.388 386.542 327.265 386.501 327.165 386.425C327.064 386.35 326.992 386.244 326.958 386.124C326.924 386.004 326.931 385.877 326.977 385.761C327.023 385.645 327.107 385.548 327.214 385.483L329.195 384.3C329.326 384.221 329.484 384.198 329.633 384.234C329.782 384.27 329.91 384.363 329.99 384.493C330.069 384.623 330.093 384.778 330.057 384.925C330.02 385.072 329.926 385.199 329.794 385.278L327.814 386.46C327.723 386.514 327.62 386.542 327.514 386.542ZM332.467 383.588C332.341 383.588 332.218 383.547 332.117 383.472C332.017 383.396 331.944 383.29 331.91 383.17C331.876 383.05 331.883 382.923 331.929 382.807C331.976 382.691 332.059 382.593 332.167 382.529L334.148 381.346C334.28 381.267 334.437 381.244 334.586 381.28C334.735 381.316 334.864 381.41 334.943 381.539C335.022 381.669 335.046 381.824 335.009 381.971C334.973 382.118 334.878 382.245 334.747 382.323L332.766 383.505C332.676 383.558 332.572 383.586 332.467 383.585V383.588ZM337.418 380.63C337.292 380.631 337.169 380.59 337.068 380.514C336.967 380.439 336.895 380.333 336.861 380.213C336.827 380.093 336.833 379.966 336.88 379.85C336.926 379.734 337.01 379.636 337.118 379.572L339.099 378.39C339.164 378.349 339.236 378.322 339.312 378.309C339.388 378.297 339.466 378.299 339.54 378.317C339.615 378.334 339.686 378.366 339.748 378.411C339.81 378.456 339.863 378.512 339.903 378.577C339.942 378.642 339.969 378.714 339.98 378.789C339.991 378.864 339.987 378.94 339.968 379.014C339.949 379.087 339.916 379.156 339.869 379.217C339.823 379.277 339.765 379.328 339.698 379.366L337.718 380.548C337.627 380.601 337.523 380.629 337.418 380.628V380.63ZM342.37 377.676C342.244 377.676 342.121 377.635 342.02 377.56C341.92 377.484 341.847 377.379 341.813 377.258C341.779 377.138 341.786 377.011 341.832 376.895C341.879 376.779 341.962 376.681 342.07 376.616L344.051 375.434C344.116 375.393 344.188 375.365 344.265 375.351C344.341 375.338 344.419 375.34 344.495 375.357C344.57 375.374 344.641 375.406 344.704 375.451C344.767 375.496 344.82 375.553 344.86 375.618C344.9 375.683 344.926 375.756 344.938 375.831C344.949 375.907 344.944 375.984 344.925 376.058C344.905 376.132 344.871 376.201 344.824 376.262C344.777 376.322 344.718 376.373 344.65 376.411L342.669 377.593C342.579 377.646 342.475 377.674 342.37 377.673V377.676ZM347.322 374.719C347.196 374.719 347.073 374.679 346.972 374.603C346.871 374.528 346.798 374.422 346.764 374.302C346.73 374.181 346.737 374.053 346.783 373.937C346.83 373.821 346.914 373.724 347.022 373.659L349.003 372.477C349.134 372.4 349.291 372.377 349.439 372.414C349.587 372.45 349.715 372.543 349.794 372.672C349.873 372.801 349.897 372.956 349.861 373.102C349.825 373.249 349.731 373.375 349.601 373.454L347.621 374.636C347.53 374.689 347.427 374.717 347.322 374.716V374.719ZM352.274 371.763C352.148 371.763 352.025 371.723 351.924 371.647C351.823 371.572 351.75 371.466 351.716 371.346C351.682 371.225 351.689 371.097 351.736 370.981C351.782 370.865 351.866 370.768 351.974 370.703L353.955 369.52C354.02 369.481 354.092 369.455 354.167 369.444C354.242 369.433 354.319 369.436 354.393 369.454C354.467 369.472 354.536 369.504 354.598 369.549C354.659 369.593 354.711 369.649 354.75 369.713C354.789 369.777 354.816 369.849 354.827 369.923C354.839 369.997 354.835 370.073 354.817 370.145C354.799 370.218 354.766 370.287 354.721 370.347C354.676 370.408 354.619 370.459 354.554 370.498L352.574 371.681C352.483 371.733 352.379 371.761 352.274 371.76L352.274 371.763ZM357.225 368.806C357.098 368.806 356.975 368.765 356.874 368.69C356.774 368.615 356.701 368.509 356.667 368.388C356.633 368.268 356.64 368.14 356.686 368.024C356.733 367.908 356.817 367.811 356.925 367.746L358.905 366.564C358.971 366.525 359.043 366.499 359.118 366.488C359.193 366.477 359.27 366.48 359.344 366.498C359.417 366.516 359.487 366.548 359.548 366.593C359.61 366.637 359.661 366.693 359.701 366.757C359.74 366.821 359.766 366.893 359.778 366.967C359.789 367.041 359.786 367.117 359.768 367.189C359.749 367.262 359.717 367.331 359.672 367.391C359.627 367.452 359.57 367.503 359.505 367.542L357.524 368.724C357.434 368.777 357.33 368.804 357.225 368.803V368.806ZM362.178 365.849C362.052 365.849 361.928 365.808 361.828 365.733C361.727 365.657 361.654 365.552 361.62 365.431C361.586 365.311 361.593 365.183 361.639 365.067C361.686 364.951 361.77 364.853 361.878 364.789L363.859 363.607C363.99 363.529 364.148 363.505 364.297 363.541C364.446 363.578 364.574 363.671 364.653 363.801C364.733 363.93 364.757 364.086 364.72 364.233C364.683 364.38 364.588 364.506 364.457 364.585L362.477 365.767C362.386 365.82 362.283 365.847 362.178 365.846L362.178 365.849ZM367.129 362.895C367.003 362.895 366.88 362.854 366.779 362.779C366.679 362.703 366.606 362.598 366.572 362.478C366.538 362.358 366.545 362.23 366.591 362.114C366.638 361.998 366.721 361.9 366.829 361.836L368.81 360.653C368.875 360.614 368.947 360.588 369.022 360.577C369.098 360.565 369.174 360.569 369.248 360.587C369.322 360.605 369.392 360.637 369.453 360.681C369.514 360.726 369.566 360.782 369.605 360.846C369.645 360.91 369.671 360.981 369.682 361.055C369.694 361.13 369.69 361.205 369.672 361.278C369.654 361.351 369.621 361.42 369.576 361.48C369.531 361.541 369.475 361.592 369.41 361.63L367.429 362.813C367.338 362.865 367.235 362.891 367.129 362.89L367.129 362.895ZM372.081 359.938C371.955 359.938 371.832 359.897 371.731 359.822C371.631 359.746 371.558 359.64 371.524 359.52C371.49 359.4 371.497 359.273 371.543 359.157C371.59 359.041 371.673 358.943 371.781 358.879L373.762 357.695C373.893 357.617 374.051 357.593 374.2 357.629C374.274 357.647 374.343 357.679 374.405 357.724C374.466 357.768 374.518 357.824 374.557 357.888C374.596 357.953 374.623 358.024 374.634 358.098C374.645 358.172 374.642 358.248 374.624 358.321C374.606 358.394 374.573 358.462 374.528 358.523C374.483 358.583 374.426 358.634 374.361 358.673L372.381 359.855C372.29 359.907 372.186 359.934 372.081 359.933L372.081 359.938ZM377.033 356.983C376.907 356.983 376.784 356.943 376.683 356.867C376.583 356.792 376.51 356.686 376.476 356.566C376.442 356.446 376.449 356.318 376.495 356.203C376.542 356.087 376.625 355.989 376.733 355.925L378.714 354.742C378.845 354.665 379.002 354.642 379.15 354.679C379.298 354.715 379.426 354.808 379.505 354.937C379.584 355.066 379.608 355.221 379.572 355.367C379.536 355.514 379.443 355.64 379.312 355.719L377.332 356.901C377.241 356.953 377.137 356.979 377.032 356.977L377.033 356.983ZM381.985 354.029C381.859 354.029 381.736 353.988 381.636 353.913C381.535 353.837 381.462 353.731 381.428 353.611C381.394 353.491 381.401 353.363 381.447 353.248C381.494 353.132 381.578 353.034 381.686 352.969L383.666 351.787C383.731 351.747 383.804 351.719 383.879 351.707C383.955 351.694 384.033 351.697 384.108 351.714C384.182 351.732 384.253 351.764 384.315 351.808C384.377 351.853 384.43 351.91 384.47 351.974C384.509 352.039 384.536 352.111 384.547 352.186C384.558 352.261 384.554 352.338 384.535 352.411C384.516 352.485 384.483 352.554 384.436 352.614C384.39 352.675 384.332 352.726 384.265 352.764L382.285 353.946C382.194 353.997 382.09 354.023 381.985 354.02L381.985 354.029Z" fill="#6ACCE5" />
    <path opacity="0.2" d="M489.184 452.813C534.344 452.813 570.954 437.46 570.954 418.522C570.954 399.584 534.344 384.231 489.184 384.231C444.023 384.231 407.414 399.584 407.414 418.522C407.414 437.46 444.023 452.813 489.184 452.813Z" fill="#92B4D1" />
    <path opacity="0.6" d="M283.439 464.068L310.701 480.069L323.885 472.331L296.623 456.33L283.439 464.068Z" fill="#F0F8FF" />
    <path opacity="0.8" d="M303.662 452.619L330.555 468.639L344.987 460.041L318.094 444.02L303.662 452.619Z" fill="#F0F8FF" />
    <path opacity="0.5" d="M263.217 476.135L290.259 491.5L301.904 484.883L274.861 469.518L263.217 476.135Z" fill="#F0F8FF" />
    <path d="M301.904 426.472L375.141 468.639L388.949 418.522L301.904 426.472Z" fill="#F0F8FF" />
    <path d="M469.037 175.428C442.983 160.388 419.256 158.117 401.448 166.555L387.121 174.668L387.123 174.74C404.894 166.484 428.493 168.823 454.389 183.771C509.668 215.68 554.479 292.957 554.479 356.376C554.479 387.16 543.92 409.016 526.731 419.715L536.335 414.103C556.479 404.726 569.127 381.723 569.127 348.032C569.126 284.614 524.315 207.337 469.037 175.428Z" fill="#3869FF" />
    <path d="M454.388 183.773C399.11 151.864 354.298 177.408 354.298 240.827C354.298 304.245 399.11 381.523 454.388 413.432C509.666 445.34 554.478 419.796 554.478 356.378C554.478 292.96 509.666 215.68 454.388 183.773Z" fill="url(#paint0_linear_31383_27996)" />
    <path d="M455.875 182.925C427.839 166.743 402.504 165.346 384.333 176.162C402.387 166.279 427.113 168.025 454.391 183.772C509.668 215.681 554.481 292.959 554.481 356.377C554.481 387.633 543.591 409.681 525.933 420.193C544.463 410.049 555.963 387.652 555.963 355.53C555.963 292.112 511.152 214.832 455.875 182.925Z" fill="#084C94" />
    <path d="M525.606 420.397C564.447 397.694 564.05 324.76 524.718 257.495C485.387 190.229 422.014 154.104 383.173 176.807C344.331 199.51 344.728 272.444 384.06 339.709C423.392 406.975 486.764 443.1 525.606 420.397Z" fill="#012DB4" />
    <path d="M521.749 413.802C558.488 392.329 558.112 323.344 520.91 259.72C483.708 196.096 423.767 161.927 387.028 183.401C350.289 204.875 350.664 273.86 387.867 337.483C425.069 401.107 485.01 435.276 521.749 413.802Z" fill="#E3F3FF" />
    <path d="M512.04 397.197C543.483 378.819 543.162 319.778 511.322 265.325C479.482 210.872 428.181 181.628 396.738 200.006C365.294 218.385 365.616 277.426 397.456 331.879C429.296 386.332 480.597 415.576 512.04 397.197Z" fill="#6ACCE5" />
    <path d="M501.119 378.516C526.605 363.62 526.344 315.765 500.537 271.63C474.73 227.495 433.149 203.792 407.664 218.688C382.178 233.584 382.439 281.439 408.246 325.574C434.053 369.709 475.634 393.412 501.119 378.516Z" fill="#E3F3FF" />
    <path d="M490.83 360.817C510.682 349.203 510.464 311.917 490.342 277.538C470.221 243.159 437.816 224.704 417.964 236.319C398.112 247.933 398.33 285.218 418.452 319.598C438.573 353.977 470.978 372.432 490.83 360.817Z" fill="#6ACCE5" />
    <path d="M481.113 344.227C495.671 335.709 495.511 308.367 480.755 283.155C465.999 257.944 442.236 244.41 427.677 252.928C413.119 261.445 413.279 288.788 428.035 313.999C442.791 339.211 466.555 352.744 481.113 344.227Z" fill="#E3F3FF" />
    <path d="M455.85 406.303C403.564 376.122 361.179 303.028 361.179 243.042C361.179 214.405 370.844 193.94 386.631 183.647C369.981 193.613 359.718 214.445 359.718 243.955C359.718 303.94 402.104 377.035 454.388 407.215C481.712 422.988 506.328 423.911 523.608 412.646C506.416 422.935 482.413 421.636 455.85 406.303Z" fill="#A8CFF0" />
    <path d="M455.851 373.033C419.58 352.097 390.177 301.392 390.177 259.78C390.177 239.839 396.943 225.625 407.968 218.512C396.074 225.282 388.716 239.879 388.716 260.693C388.716 302.305 418.119 353.012 454.389 373.946C473.278 384.849 490.291 385.509 502.272 377.78C490.389 384.544 473.978 383.497 455.851 373.033Z" fill="#A8CFF0" />
    <path d="M455.85 340.744C435.124 328.78 418.323 299.806 418.323 276.028C418.323 264.942 421.976 256.947 427.976 252.779C421.114 256.619 416.862 264.982 416.862 276.94C416.862 300.718 433.664 329.693 454.389 341.657C465.452 348.043 475.394 348.287 482.263 343.514C475.482 347.31 466.152 346.69 455.85 340.744Z" fill="#A8CFF0" />
    <path d="M470.787 326.599C479.721 321.373 479.622 304.594 470.568 289.123C461.513 273.653 446.931 265.348 437.997 270.575C429.064 275.801 429.162 292.58 438.217 308.05C447.272 323.521 461.854 331.826 470.787 326.599Z" fill="#f37070" />
    <path opacity="0.5" d="M456.618 299.078C456.618 300.12 455.882 300.54 454.974 300.016C454.496 299.706 454.099 299.287 453.813 298.795C453.528 298.302 453.362 297.749 453.331 297.18C453.331 296.139 454.066 295.72 454.974 296.244C455.452 296.554 455.849 296.972 456.135 297.464C456.42 297.957 456.586 298.51 456.618 299.078Z" fill="#231F20" />
    <path d="M454.388 272.183C448.636 268.863 443.38 268.254 439.345 269.925C443.141 268.954 447.807 269.778 452.858 272.693C465.576 280.034 475.885 297.814 475.885 312.405C475.885 320.397 472.789 325.767 467.9 327.789C473.664 326.315 477.416 320.693 477.416 311.896C477.415 297.304 467.105 279.524 454.388 272.183Z" fill="#D62D69" />
    <path d="M246.714 420L237.747 418.792C232.843 418.131 232.383 411.216 237.157 409.912L287.425 396.175L246.714 420Z" fill="#f37070" />
    <path d="M247.063 419.123L238.097 417.915C234.989 417.495 233.671 414.567 234.335 412.143C233.025 414.673 234.247 418.32 237.746 418.793L246.713 420L287.423 396.174L285.269 396.764L247.063 419.123Z" fill="#F76195" />
    <path opacity="0.5" d="M237.963 418.171L246.93 419.38L285.84 396.608L285.27 396.763L247.065 419.123L238.098 417.915C234.989 417.495 233.672 414.567 234.336 412.145C234.283 412.246 234.242 412.353 234.197 412.458C233.565 414.869 234.878 417.755 237.963 418.171Z" fill="white" />
    <path d="M455.704 298.469C455.712 298.548 455.699 298.627 455.667 298.7C455.635 298.772 455.585 298.835 455.521 298.883C455.521 298.883 450.424 305.819 437.946 313.046C420.121 323.368 417.268 324.064 417.268 324.064C416.788 324.333 417.09 323.733 416.373 323.32C415.614 322.827 414.983 322.163 414.529 321.38C414.075 320.598 413.812 319.719 413.762 318.816C413.762 317.997 413.005 317.991 413.468 317.718C413.468 317.718 415.532 315.7 433.38 305.377C445.9 298.137 454.594 297.293 454.594 297.293C454.668 297.261 454.749 297.248 454.829 297.257C454.909 297.266 454.986 297.295 455.051 297.342C455.241 297.465 455.399 297.631 455.512 297.827C455.626 298.023 455.691 298.243 455.704 298.469Z" fill="#fbb03b" />
    <path d="M417.927 322.432C417.927 324.086 416.758 324.753 415.315 323.921C414.556 323.428 413.924 322.763 413.47 321.981C413.017 321.198 412.754 320.32 412.703 319.417C412.703 317.761 413.872 317.095 415.315 317.928C416.074 318.42 416.706 319.085 417.16 319.867C417.614 320.65 417.877 321.528 417.927 322.432Z" fill="#FFDE17" />
    <path d="M417.409 322.492C417.409 323.264 417.142 323.81 416.709 324.075L243.954 425.246C243.504 425.499 243.792 424.926 243.108 424.531C242.384 424.061 241.78 423.426 241.347 422.679C240.913 421.932 240.662 421.093 240.614 420.231C240.614 419.45 239.892 419.444 240.334 419.184C240.334 419.184 413.161 318.006 413.173 318C413.623 317.757 414.237 317.802 414.915 318.193C415.639 318.663 416.243 319.297 416.676 320.044C417.109 320.791 417.36 321.63 417.409 322.492Z" fill="#3869FF" />
    <path d="M244.589 423.683C244.589 425.262 243.474 425.899 242.097 425.104C241.372 424.634 240.769 423.999 240.336 423.252C239.903 422.505 239.652 421.666 239.604 420.804C239.604 419.225 240.719 418.589 242.097 419.383C242.821 419.853 243.424 420.488 243.857 421.235C244.29 421.982 244.541 422.821 244.589 423.683Z" fill="#3F92D1" />
    <path d="M245.218 416.709L286.798 392.759L254.347 390.102C242.192 389.107 234.639 403.017 242.095 412.667L245.218 416.709Z" fill="#F76195" />
    <path d="M245.873 416.577L287.453 392.627L255.003 389.97C242.848 388.976 235.295 402.885 242.75 412.535L245.873 416.577Z" fill="#f37070" />
    <path opacity="0.5" d="M243.364 412.799C235.909 403.15 243.461 389.239 255.617 390.234L287.129 392.814L287.452 392.628L255.003 389.971C242.848 388.976 235.295 402.886 242.75 412.535L245.873 416.578L246.158 416.413L243.364 412.799Z" fill="white" />
    <path d="M247.849 421.588L248.87 425.256C251.593 435.045 264.624 436.983 270.079 428.412L289.429 398.011L247.849 421.588Z" fill="#F76195" />
    <path d="M248.495 421.061L249.515 424.73C252.238 434.518 265.269 436.457 270.726 427.885L290.074 397.486L248.495 421.061Z" fill="#f37070" />
    <path opacity="0.5" d="M271.076 427.271C265.62 435.842 252.589 433.903 249.867 424.116L248.946 420.806L248.495 421.061L249.515 424.73C252.238 434.518 265.269 436.457 270.726 427.886L290.074 397.486L290.012 397.522L271.076 427.271Z" fill="white" />
    <path d="M617.361 258.019L623.331 255.114L592.393 191.128L586.349 194.469L617.361 258.019Z" fill="#3FABC7" />
    <path d="M599.198 322.942L605.168 320.037V315.548L599.198 318.453V322.942Z" fill="#3FABC7" />
    <path d="M573.659 303.709L579.629 300.804L605.168 315.547L599.198 318.452L573.659 303.709Z" fill="#A6DCE9" />
    <path d="M573.659 289.306L579.629 286.401L605.168 301.144L599.198 304.049L573.659 289.306Z" fill="#A6DCE9" />
    <path d="M573.659 299.692L599.198 314.435V303.957L573.659 289.215V299.692Z" fill="#6ACCE5" />
    <path d="M573.659 308.199L599.198 322.942V318.453L573.659 303.71V308.199Z" fill="#6ACCE5" />
    <path d="M599.198 314.435L605.168 311.53V301.052L599.198 303.957V314.435Z" fill="#3FABC7" />
    <path d="M599.198 300.413L605.168 297.508V244.626L599.198 247.531V300.413Z" fill="#3FABC7" />
    <path d="M612.793 313.518C612.63 313.518 612.473 313.454 612.357 313.338C612.241 313.223 612.176 313.066 612.175 312.903V310.431C612.173 310.349 612.188 310.267 612.218 310.19C612.248 310.114 612.293 310.044 612.351 309.985C612.408 309.926 612.477 309.879 612.553 309.847C612.629 309.815 612.711 309.798 612.793 309.798C612.875 309.798 612.957 309.815 613.033 309.847C613.109 309.879 613.178 309.926 613.235 309.985C613.293 310.044 613.338 310.114 613.368 310.19C613.398 310.267 613.413 310.349 613.411 310.431V312.903C613.411 312.984 613.395 313.064 613.364 313.139C613.333 313.214 613.287 313.282 613.23 313.339C613.172 313.396 613.104 313.441 613.029 313.472C612.954 313.503 612.874 313.519 612.793 313.518ZM612.793 307.341C612.629 307.341 612.472 307.276 612.356 307.16C612.24 307.044 612.175 306.887 612.175 306.723V304.251C612.173 304.169 612.188 304.087 612.218 304.01C612.248 303.934 612.293 303.864 612.351 303.805C612.408 303.746 612.477 303.699 612.553 303.667C612.629 303.635 612.711 303.618 612.793 303.618C612.875 303.618 612.957 303.635 613.033 303.667C613.109 303.699 613.178 303.746 613.235 303.805C613.293 303.864 613.338 303.934 613.368 304.01C613.398 304.087 613.413 304.169 613.411 304.251V306.723C613.411 306.804 613.395 306.884 613.364 306.959C613.333 307.034 613.287 307.102 613.23 307.16C613.173 307.217 613.105 307.263 613.03 307.294C612.955 307.325 612.874 307.341 612.793 307.341V307.341ZM612.793 301.162C612.629 301.162 612.472 301.097 612.356 300.981C612.24 300.865 612.175 300.708 612.175 300.544V298.073C612.179 297.911 612.246 297.758 612.361 297.645C612.477 297.533 612.632 297.47 612.793 297.47C612.954 297.47 613.109 297.533 613.225 297.645C613.34 297.758 613.407 297.911 613.411 298.073V300.544C613.411 300.625 613.395 300.706 613.364 300.781C613.333 300.856 613.288 300.924 613.23 300.981C613.173 301.039 613.105 301.084 613.03 301.115C612.955 301.146 612.874 301.162 612.793 301.162ZM612.793 294.983C612.629 294.983 612.472 294.918 612.356 294.802C612.24 294.686 612.175 294.529 612.175 294.365V291.894C612.173 291.811 612.188 291.729 612.218 291.653C612.248 291.576 612.293 291.506 612.351 291.447C612.408 291.388 612.477 291.341 612.553 291.309C612.629 291.277 612.711 291.261 612.793 291.261C612.875 291.261 612.957 291.277 613.033 291.309C613.109 291.341 613.178 291.388 613.235 291.447C613.293 291.506 613.338 291.576 613.368 291.653C613.398 291.729 613.413 291.811 613.411 291.894V294.365C613.411 294.446 613.395 294.527 613.364 294.602C613.333 294.677 613.288 294.745 613.23 294.802C613.173 294.86 613.105 294.905 613.03 294.936C612.955 294.967 612.874 294.983 612.793 294.983ZM612.793 288.805C612.629 288.805 612.472 288.74 612.356 288.624C612.24 288.508 612.175 288.351 612.175 288.187V285.715C612.173 285.633 612.188 285.551 612.218 285.474C612.248 285.397 612.293 285.328 612.351 285.269C612.408 285.21 612.477 285.163 612.553 285.131C612.629 285.099 612.711 285.082 612.793 285.082C612.875 285.082 612.957 285.099 613.033 285.131C613.109 285.163 613.178 285.21 613.235 285.269C613.293 285.328 613.338 285.397 613.368 285.474C613.398 285.551 613.413 285.633 613.411 285.715V288.187C613.411 288.268 613.395 288.348 613.364 288.423C613.333 288.498 613.288 288.567 613.23 288.624C613.173 288.681 613.105 288.727 613.03 288.758C612.955 288.789 612.874 288.805 612.793 288.805ZM612.793 282.626C612.629 282.626 612.472 282.561 612.356 282.445C612.24 282.329 612.175 282.172 612.175 282.008V279.537C612.179 279.376 612.246 279.222 612.361 279.109C612.477 278.997 612.632 278.934 612.793 278.934C612.954 278.934 613.109 278.997 613.225 279.109C613.34 279.222 613.407 279.376 613.411 279.537V282.008C613.411 282.09 613.395 282.17 613.364 282.245C613.333 282.32 613.287 282.388 613.23 282.445C613.173 282.503 613.105 282.548 613.03 282.579C612.955 282.61 612.874 282.626 612.793 282.626ZM612.793 276.447C612.629 276.447 612.472 276.382 612.356 276.266C612.24 276.15 612.175 275.993 612.175 275.829V273.358C612.173 273.275 612.188 273.193 612.218 273.117C612.248 273.04 612.293 272.97 612.351 272.911C612.408 272.852 612.477 272.805 612.553 272.773C612.629 272.741 612.711 272.725 612.793 272.725C612.875 272.725 612.957 272.741 613.033 272.773C613.109 272.805 613.178 272.852 613.235 272.911C613.293 272.97 613.338 273.04 613.368 273.117C613.398 273.193 613.413 273.275 613.411 273.358V275.829C613.411 275.91 613.395 275.991 613.364 276.066C613.333 276.141 613.288 276.209 613.23 276.266C613.173 276.324 613.105 276.369 613.03 276.4C612.955 276.431 612.874 276.447 612.793 276.447ZM631.813 271.425C631.655 271.424 631.503 271.363 631.388 271.253C631.274 271.143 631.206 270.994 631.199 270.836C631.191 270.677 631.245 270.522 631.349 270.402C631.453 270.283 631.599 270.207 631.757 270.192C632.431 270.12 633.054 269.8 633.504 269.293C633.559 269.233 633.624 269.184 633.697 269.149C633.77 269.114 633.85 269.093 633.931 269.089C634.012 269.085 634.093 269.096 634.169 269.123C634.246 269.15 634.316 269.192 634.377 269.246C634.437 269.3 634.486 269.365 634.521 269.439C634.556 269.512 634.577 269.591 634.581 269.672C634.585 269.753 634.574 269.834 634.547 269.91C634.52 269.987 634.478 270.057 634.424 270.118C633.769 270.859 632.858 271.325 631.873 271.421C631.853 271.424 631.833 271.425 631.813 271.425V271.425ZM612.793 270.267C612.629 270.267 612.472 270.201 612.356 270.086C612.24 269.97 612.175 269.813 612.175 269.649V267.177C612.179 267.016 612.246 266.863 612.361 266.75C612.477 266.637 612.632 266.574 612.793 266.574C612.954 266.574 613.109 266.637 613.225 266.75C613.34 266.863 613.407 267.016 613.411 267.177V269.649C613.411 269.73 613.396 269.811 613.365 269.886C613.334 269.962 613.289 270.03 613.231 270.088C613.174 270.145 613.106 270.191 613.03 270.222C612.955 270.253 612.875 270.269 612.793 270.269V270.267ZM628.417 270.133C628.309 270.134 628.202 270.105 628.108 270.05L625.966 268.815C625.827 268.731 625.727 268.597 625.686 268.44C625.646 268.283 625.668 268.116 625.749 267.976C625.83 267.836 625.963 267.733 626.119 267.69C626.276 267.646 626.443 267.666 626.584 267.745L628.726 268.98C628.844 269.048 628.936 269.153 628.988 269.279C629.04 269.405 629.049 269.544 629.014 269.675C628.979 269.807 628.901 269.923 628.793 270.005C628.685 270.088 628.553 270.133 628.417 270.133ZM623.064 267.044C622.956 267.044 622.849 267.016 622.755 266.961L620.614 265.726C620.475 265.642 620.375 265.507 620.334 265.351C620.294 265.194 620.316 265.027 620.397 264.887C620.478 264.747 620.611 264.644 620.768 264.6C620.924 264.557 621.091 264.577 621.232 264.655L623.373 265.891C623.491 265.959 623.582 266.064 623.634 266.19C623.686 266.315 623.695 266.454 623.66 266.586C623.625 266.717 623.547 266.833 623.44 266.916C623.332 266.999 623.2 267.044 623.064 267.044ZM634.525 266.865C634.405 266.865 634.288 266.83 634.188 266.765C634.088 266.699 634.009 266.606 633.961 266.497L632.896 264.288C632.861 264.215 632.841 264.136 632.836 264.055C632.831 263.974 632.843 263.893 632.869 263.816C632.896 263.74 632.937 263.669 632.991 263.609C633.045 263.548 633.111 263.499 633.184 263.463C633.257 263.428 633.336 263.408 633.417 263.403C633.498 263.398 633.579 263.409 633.656 263.436C633.732 263.463 633.803 263.504 633.864 263.558C633.924 263.612 633.974 263.678 634.009 263.751L635.09 265.995C635.123 266.069 635.141 266.149 635.143 266.231C635.145 266.312 635.131 266.393 635.102 266.468C635.072 266.544 635.029 266.613 634.973 266.672C634.916 266.731 634.849 266.778 634.775 266.811C634.696 266.846 634.611 266.865 634.525 266.867V266.865ZM612.793 264.088C612.629 264.088 612.472 264.023 612.356 263.907C612.24 263.791 612.175 263.634 612.175 263.47V261.001C612.179 260.839 612.246 260.686 612.361 260.573C612.477 260.461 612.632 260.398 612.793 260.398C612.954 260.398 613.109 260.461 613.225 260.573C613.34 260.686 613.407 260.839 613.411 261.001V263.472C613.411 263.553 613.395 263.634 613.364 263.709C613.333 263.784 613.287 263.852 613.23 263.909C613.173 263.966 613.105 264.012 613.03 264.043C612.955 264.074 612.874 264.09 612.793 264.09V264.088ZM617.712 263.954C617.604 263.955 617.497 263.926 617.403 263.872L615.262 262.636C615.123 262.552 615.023 262.418 614.982 262.261C614.942 262.104 614.965 261.938 615.046 261.797C615.127 261.657 615.26 261.554 615.416 261.511C615.572 261.467 615.739 261.487 615.88 261.566L618.021 262.801C618.139 262.87 618.23 262.975 618.282 263.1C618.334 263.226 618.343 263.365 618.308 263.496C618.273 263.627 618.196 263.743 618.088 263.826C617.98 263.909 617.848 263.954 617.712 263.954ZM631.838 261.3C631.722 261.3 631.608 261.267 631.51 261.206C631.411 261.144 631.332 261.055 631.282 260.95L630.207 258.726C630.171 258.653 630.151 258.574 630.146 258.492C630.141 258.411 630.153 258.33 630.179 258.254C630.206 258.177 630.248 258.106 630.302 258.045C630.356 257.985 630.421 257.935 630.494 257.9C630.567 257.865 630.647 257.844 630.728 257.839C630.809 257.835 630.89 257.846 630.967 257.873C631.043 257.899 631.114 257.941 631.175 257.995C631.235 258.049 631.285 258.114 631.32 258.187L632.396 260.413C632.441 260.507 632.462 260.611 632.456 260.716C632.45 260.82 632.418 260.922 632.362 261.01C632.307 261.099 632.229 261.172 632.138 261.223C632.046 261.273 631.943 261.3 631.838 261.3ZM629.15 255.738C629.034 255.738 628.919 255.706 628.821 255.644C628.722 255.582 628.643 255.493 628.592 255.388L627.517 253.163C627.45 253.016 627.444 252.849 627.499 252.697C627.554 252.545 627.666 252.421 627.812 252.351C627.957 252.281 628.124 252.271 628.277 252.322C628.43 252.374 628.557 252.483 628.63 252.627L629.706 254.851C629.777 254.999 629.786 255.169 629.732 255.324C629.678 255.479 629.564 255.605 629.416 255.677C629.333 255.717 629.242 255.739 629.15 255.74V255.738ZM626.46 250.175C626.344 250.175 626.23 250.142 626.132 250.081C626.034 250.019 625.955 249.931 625.904 249.826L624.828 247.601C624.756 247.453 624.747 247.283 624.8 247.129C624.854 246.974 624.968 246.847 625.115 246.776C625.263 246.704 625.432 246.695 625.587 246.749C625.742 246.802 625.869 246.916 625.94 247.063L627.017 249.287C627.062 249.382 627.083 249.486 627.078 249.59C627.072 249.695 627.04 249.796 626.984 249.885C626.929 249.974 626.851 250.047 626.76 250.098C626.668 250.148 626.565 250.175 626.46 250.175ZM623.77 244.611C623.654 244.611 623.54 244.579 623.441 244.517C623.343 244.455 623.264 244.367 623.213 244.263L622.138 242.038C622.101 241.965 622.079 241.885 622.073 241.803C622.067 241.721 622.077 241.639 622.103 241.561C622.13 241.484 622.171 241.412 622.225 241.35C622.28 241.288 622.346 241.238 622.42 241.202C622.494 241.167 622.574 241.146 622.656 241.142C622.738 241.137 622.82 241.149 622.897 241.177C622.975 241.204 623.046 241.247 623.106 241.303C623.167 241.358 623.216 241.425 623.25 241.5L624.326 243.724C624.371 243.818 624.392 243.922 624.387 244.027C624.381 244.132 624.349 244.233 624.293 244.322C624.238 244.41 624.16 244.483 624.069 244.534C623.977 244.585 623.874 244.611 623.77 244.611ZM621.08 239.049C620.964 239.049 620.85 239.017 620.752 238.955C620.654 238.893 620.575 238.805 620.524 238.701L619.448 236.475C619.41 236.402 619.388 236.322 619.382 236.24C619.376 236.158 619.387 236.076 619.413 235.998C619.439 235.92 619.481 235.849 619.535 235.787C619.589 235.725 619.655 235.675 619.729 235.639C619.803 235.604 619.884 235.583 619.966 235.579C620.048 235.574 620.13 235.586 620.207 235.614C620.284 235.641 620.355 235.684 620.416 235.74C620.477 235.795 620.526 235.862 620.56 235.937L621.638 238.162C621.683 238.256 621.704 238.361 621.698 238.465C621.692 238.57 621.66 238.671 621.604 238.76C621.548 238.848 621.471 238.921 621.38 238.972C621.288 239.023 621.185 239.049 621.08 239.049ZM618.391 233.486C618.274 233.486 618.16 233.454 618.062 233.392C617.963 233.33 617.884 233.242 617.833 233.137L616.758 230.912C616.72 230.839 616.697 230.758 616.691 230.676C616.684 230.594 616.695 230.511 616.721 230.433C616.747 230.354 616.789 230.282 616.843 230.22C616.898 230.158 616.964 230.108 617.038 230.072C617.113 230.036 617.194 230.015 617.276 230.011C617.359 230.007 617.441 230.019 617.519 230.047C617.596 230.076 617.668 230.119 617.728 230.175C617.789 230.231 617.837 230.299 617.871 230.374L618.947 232.599C619.018 232.747 619.027 232.917 618.973 233.072C618.919 233.227 618.805 233.354 618.657 233.426C618.574 233.466 618.483 233.487 618.391 233.488L618.391 233.486ZM615.701 227.924C615.585 227.924 615.471 227.892 615.373 227.83C615.274 227.768 615.195 227.68 615.145 227.576L614.07 225.349C613.998 225.201 613.989 225.031 614.042 224.877C614.096 224.722 614.209 224.595 614.357 224.524C614.504 224.452 614.674 224.443 614.829 224.497C614.984 224.55 615.111 224.664 615.182 224.811L616.257 227.038C616.303 227.132 616.324 227.236 616.318 227.34C616.312 227.445 616.28 227.546 616.224 227.635C616.169 227.723 616.092 227.796 616 227.847C615.909 227.897 615.806 227.924 615.701 227.924V227.924ZM613.012 222.361C612.896 222.361 612.782 222.328 612.684 222.267C612.585 222.205 612.506 222.117 612.456 222.013L611.379 219.787C611.344 219.714 611.323 219.634 611.319 219.553C611.314 219.472 611.325 219.391 611.352 219.315C611.379 219.238 611.42 219.168 611.474 219.107C611.528 219.046 611.593 218.997 611.666 218.962C611.74 218.927 611.819 218.906 611.9 218.901C611.981 218.897 612.062 218.908 612.139 218.935C612.215 218.961 612.286 219.003 612.346 219.057C612.407 219.111 612.456 219.176 612.492 219.249L613.568 221.473C613.614 221.568 613.635 221.672 613.629 221.776C613.623 221.881 613.591 221.982 613.536 222.071C613.48 222.16 613.403 222.233 613.311 222.283C613.22 222.334 613.117 222.361 613.012 222.361ZM610.321 216.797C610.205 216.797 610.091 216.765 609.993 216.703C609.895 216.641 609.816 216.553 609.765 216.449L608.689 214.223C608.618 214.076 608.608 213.906 608.662 213.751C608.716 213.597 608.829 213.47 608.977 213.398C609.124 213.327 609.294 213.317 609.449 213.371C609.604 213.425 609.731 213.538 609.802 213.686L610.877 215.911C610.913 215.984 610.933 216.063 610.938 216.144C610.943 216.225 610.932 216.307 610.905 216.383C610.878 216.46 610.837 216.531 610.783 216.591C610.729 216.652 610.664 216.701 610.59 216.737C610.506 216.777 610.414 216.799 610.321 216.8V216.797ZM607.632 211.239C607.515 211.239 607.402 211.207 607.303 211.145C607.205 211.083 607.126 210.994 607.076 210.889L606 208.665C605.929 208.517 605.919 208.347 605.973 208.193C606.027 208.038 606.14 207.91 606.287 207.839C606.435 207.768 606.605 207.758 606.76 207.812C606.915 207.866 607.042 207.979 607.114 208.126L608.189 210.353C608.234 210.447 608.255 210.552 608.249 210.656C608.243 210.76 608.21 210.861 608.155 210.95C608.099 211.038 608.022 211.111 607.93 211.162C607.839 211.212 607.736 211.239 607.631 211.239H607.632ZM604.944 205.674C604.827 205.674 604.713 205.642 604.615 205.58C604.516 205.519 604.437 205.43 604.387 205.325L603.31 203.101C603.238 202.953 603.228 202.783 603.282 202.628C603.336 202.474 603.449 202.346 603.597 202.275C603.745 202.204 603.915 202.194 604.07 202.248C604.225 202.301 604.352 202.415 604.423 202.562L605.5 204.788C605.535 204.861 605.556 204.94 605.56 205.021C605.565 205.103 605.553 205.184 605.526 205.26C605.499 205.337 605.458 205.408 605.403 205.468C605.349 205.529 605.283 205.578 605.21 205.613C605.127 205.653 605.036 205.673 604.944 205.674ZM602.253 200.112C602.136 200.112 602.023 200.079 601.924 200.017C601.826 199.955 601.747 199.867 601.697 199.762L600.621 197.538C600.553 197.391 600.546 197.223 600.6 197.071C600.655 196.918 600.767 196.793 600.913 196.723C601.059 196.652 601.226 196.642 601.38 196.693C601.533 196.745 601.66 196.855 601.733 196.999L602.809 199.225C602.88 199.372 602.89 199.542 602.836 199.697C602.782 199.851 602.669 199.978 602.522 200.05C602.438 200.09 602.346 200.111 602.253 200.112ZM599.563 194.549C599.447 194.549 599.333 194.517 599.235 194.455C599.136 194.393 599.057 194.305 599.007 194.201L597.93 191.975C597.891 191.902 597.866 191.821 597.858 191.738C597.851 191.655 597.86 191.571 597.885 191.492C597.911 191.412 597.952 191.339 598.007 191.276C598.062 191.213 598.129 191.162 598.204 191.125C598.279 191.089 598.361 191.068 598.444 191.064C598.527 191.06 598.611 191.073 598.689 191.102C598.767 191.131 598.839 191.175 598.899 191.233C598.96 191.29 599.008 191.359 599.041 191.436L600.118 193.661C600.163 193.755 600.185 193.86 600.179 193.964C600.173 194.069 600.141 194.17 600.085 194.259C600.03 194.348 599.953 194.421 599.861 194.471C599.769 194.522 599.666 194.549 599.562 194.549L599.563 194.549ZM596.872 188.987C596.756 188.988 596.642 188.955 596.544 188.893C596.445 188.831 596.367 188.743 596.316 188.638L595.241 186.412C595.17 186.265 595.16 186.095 595.214 185.941C595.268 185.786 595.381 185.659 595.529 185.588C595.677 185.517 595.846 185.507 596.001 185.561C596.155 185.615 596.282 185.729 596.353 185.876L597.43 188.1C597.501 188.248 597.51 188.418 597.456 188.573C597.401 188.728 597.288 188.855 597.14 188.926C597.057 188.966 596.965 188.986 596.873 188.987L596.872 188.987Z" fill="#6ACCE5" />
    <path d="M573.658 232.789V285.671L599.197 300.413V247.532L617.364 258.019L586.427 194.033L555.49 222.302L573.658 232.789Z" fill="#6ACCE5" />
    <defs>
        <linearGradient id="paint0_linear_31383_27996" x1="-60.0743" y1="2236.71" x2="171.134" y2="2236.71" gradientUnits="userSpaceOnUse">
            <stop stop-color="#311B61" />
            <stop offset="0.203" stop-color="#290E52" />
            <stop offset="0.495" stop-color="#200041" />
            <stop offset="1" stop-color="#0F001F" />
        </linearGradient>
    </defs>
</svg>