<svg width="100%" height="100%" viewBox="0 0 637 512" fill="none" xmlns="http://www.w3.org/2000/svg">
    <g opacity="0.5">
        <path opacity="0.5" d="M474.439 120.576L467.579 72.2985L402.132 105.357L401.964 105.352L330.514 102.53L239.494 168.202L231.667 122.551L136.674 190.289L135.413 188.734L232.96 118.921L240.828 164.77L329.902 100. 501L401.876 103.344L469.059 69.7595L475.728 117.193L474.439 120.576Z" fill="#6ACCE5" />
        <path opacity="0.5" d="M472.919 71.7941C471.34 74.5044 467.503 76.6928 464.348 76.6821C461.192 76.6715 459.912 74.4637 461.49 71.754C463.068 69.0444 466.905 66.855 470.06 66.8656C473.216 66.8763 474.496 69.0835 472.919 71.7941Z" fill="#3869FF" />
        <path opacity="0.5" d="M407.895 104.054C406.318 106.765 402.481 108.953 399.325 108.941C396.169 108.93 394.889 106.725 396.466 104.014C398.043 101.304 401.881 99.1152 405.038 99.1264C408.194 99.1377 409.473 101.343 407.895 104.054Z" fill="#3869FF" />
        <path opacity="0.5" d="M335.782 101.536C334.204 104.246 330.367 106.435 327.212 106.424C324.056 106.413 322.775 104.206 324.353 101.497C325.931 98.7869 329.769 96.5968 332.924 96.6076C336.079 96.6185 337.359 98.8259 335.782 101.536Z" fill="#3869FF" />
        <path opacity="0.5" d="M480.404 119.017C478.825 121.727 474.987 123.916 471.832 123.905C468.677 123.894 467.397 121.687 468.974 118.977C470.552 116.267 474.389 114.078 477.545 114.089C480.7 114.099 481.981 116.306 480.404 119.017Z" fill="#3869FF" />
        <path opacity="0.5" d="M246.122 166.189C244.545 168.9 240.707 171.089 237.551 171.077C234.395 171.065 233.115 168.861 234.693 166.15C236.27 163.439 240.109 161.25 243.264 161.262C246.42 161.274 247.699 163.479 246.122 166.189Z" fill="#3869FF" />
        <path opacity="0.5" d="M237.974 120.279C236.395 122.99 232.558 125.178 229.402 125.168C226.247 125.157 224.967 122.949 226.545 120.239C228.123 117.529 231.96 115.34 235.115 115.351C238.27 115.362 239.551 117.569 237.974 120.279Z" fill="#3869FF" />
        <path opacity="0.5" d="M141 189.53C139.423 192.241 135.586 194.429 132.431 194.42C129.277 194.411 127.994 192.201 129.571 189.49C131.149 186.78 134.987 184.592 138.143 184.602C141.3 184.612 142.578 186.82 141 189.53Z" fill="#3869FF" />
        <path opacity="0.5" d="M295.913 209.449L250.613 244.364L258.069 183.015L160.545 273.977L124.614 231.65L49.2954 320.249L48.3138 318.504L124.085 229.649L124.828 229.527L160.694 271.091L260.632 178.527L253.032 241.063L297.674 206.449L295.913 209.449Z" fill="#6ACCE5" />
        <path opacity="0.5" d="M301.749 205.258C300.654 203.322 297.048 203.29 293.694 205.187C290.339 207.083 288.508 210.191 289.603 212.127C290.698 214.063 294.305 214.096 297.659 212.199C301.013 210.302 302.844 207.195 301.749 205.258Z" fill="#3869FF" />
        <path opacity="0.5" d="M256.696 243.002C255.118 245.713 251.28 247.902 248.125 247.89C244.969 247.878 243.69 245.673 245.267 242.962C246.845 240.252 250.682 238.063 253.838 238.075C256.994 238.087 258.274 240.291 256.696 243.002Z" fill="#3869FF" />
        <path opacity="0.5" d="M263.904 181.376C262.327 184.086 258.489 186.275 255.332 186.264C252.175 186.253 250.898 184.047 252.475 181.336C254.052 178.625 257.89 176.437 261.047 176.448C264.204 176.459 265.481 178.665 263.904 181.376Z" fill="#3869FF" />
        <path opacity="0.5" d="M165.146 273.267C163.567 275.978 159.73 278.166 156.574 278.155C153.418 278.143 152.139 275.937 153.717 273.227C155.294 270.516 159.132 268.327 162.287 268.339C165.443 268.351 166.723 270.556 165.146 273.267Z" fill="#3869FF" />
        <path opacity="0.5" d="M129.351 227.325C128.256 225.389 124.649 225.357 121.295 227.253C117.941 229.15 116.11 232.258 117.205 234.194C118.3 236.13 121.907 236.162 125.261 234.266C128.615 232.369 130.446 229.261 129.351 227.325Z" fill="#3869FF" />
        <path opacity="0.5" d="M56.7563 318.591C54.8396 321.884 50.1787 324.542 46.346 324.527C42.5134 324.513 40.959 321.835 42.8757 318.542C44.7925 315.25 49.4522 312.592 53.2849 312.607C57.1175 312.621 58.6719 315.299 56.7563 318.591Z" fill="#3869FF" />
    </g>
    <path d="M314.683 238.045L326.822 245.062L314.683 252.073L302.543 245.057L314.683 238.045Z" fill="#A7DBE8" />
    <path d="M326.829 324.355L314.684 331.367V252.069L326.829 245.057V324.355Z" fill="#6ACCE5" />
    <path d="M314.688 331.366L302.543 324.355V245.057L314.689 252.069L314.688 331.366Z" fill="#37ACC9" />
    <path d="M294.753 263.749L306.893 270.766L294.753 277.778L282.613 270.761L294.753 263.749Z" fill="#A7DBE8" />
    <path d="M306.899 335.364L294.754 342.376V277.774L306.899 270.761V335.364Z" fill="#6ACCE5" />
    <path d="M294.759 342.376L282.613 335.364V270.761L294.759 277.773V342.376Z" fill="#37ACC9" />
    <path d="M275.175 293.228L287.314 300.244L275.175 307.256L263.035 300.241L275.175 293.228Z" fill="#A7DBE8" />
    <path d="M287.321 346.579L275.176 353.591V307.252L287.321 300.24V346.579Z" fill="#6ACCE5" />
    <path d="M275.181 353.591L263.035 346.579V300.24L275.181 307.252V353.591Z" fill="#37ACC9" />
    <path d="M255.147 324.525L267.287 331.542L255.147 338.554L243.008 331.537L255.147 324.525Z" fill="#A7DBE8" />
    <path d="M267.297 357.795L255.152 364.807V338.549L267.298 331.537L267.297 357.795Z" fill="#6ACCE5" />
    <path d="M255.154 364.807L243.008 357.795V331.537L255.154 338.549V364.807Z" fill="#37ACC9" />
    <path d="M236.816 345.61C236.734 345.61 236.654 345.594 236.578 345.562C236.503 345.531 236.435 345.486 236.377 345.428C236.319 345.37 236.274 345.302 236.243 345.227C236.211 345.151 236.195 345.071 236.195 344.989V342.508C236.193 342.425 236.208 342.343 236.238 342.266C236.269 342.189 236.314 342.119 236.372 342.059C236.43 342 236.499 341.953 236.575 341.921C236.651 341.889 236.733 341.872 236.816 341.872C236.898 341.872 236.98 341.889 237.057 341.921C237.133 341.953 237.202 342 237.26 342.059C237.318 342.119 237.363 342.189 237.393 342.266C237.423 342.343 237.438 342.425 237.436 342.508V344.989C237.436 345.154 237.371 345.311 237.254 345.428C237.138 345.544 236.98 345.609 236.816 345.61V345.61ZM236.816 339.406C236.734 339.406 236.654 339.39 236.578 339.359C236.503 339.328 236.435 339.282 236.377 339.225C236.319 339.167 236.274 339.099 236.243 339.023C236.211 338.948 236.195 338.867 236.195 338.786V336.305C236.193 336.222 236.208 336.14 236.238 336.063C236.269 335.986 236.314 335.915 236.372 335.856C236.43 335.797 236.499 335.75 236.575 335.718C236.651 335.686 236.733 335.669 236.816 335.669C236.898 335.669 236.98 335.686 237.057 335.718C237.133 335.75 237.202 335.797 237.26 335.856C237.318 335.915 237.363 335.986 237.393 336.063C237.423 336.14 237.438 336.222 237.436 336.305V338.786C237.436 338.95 237.371 339.108 237.254 339.224C237.138 339.341 236.98 339.406 236.816 339.406V339.406ZM236.816 333.203C236.734 333.203 236.654 333.187 236.578 333.156C236.503 333.125 236.435 333.079 236.377 333.022C236.319 332.964 236.274 332.896 236.243 332.82C236.211 332.745 236.195 332.664 236.195 332.583V330.101C236.199 329.939 236.266 329.785 236.382 329.672C236.498 329.559 236.654 329.496 236.816 329.496C236.978 329.496 237.133 329.559 237.249 329.672C237.365 329.785 237.432 329.939 237.436 330.101V332.583C237.436 332.747 237.371 332.905 237.254 333.021C237.138 333.138 236.98 333.203 236.816 333.203V333.203ZM238.166 327.761C238.03 327.761 237.899 327.716 237.791 327.634C237.683 327.552 237.605 327.437 237.568 327.307C237.532 327.177 237.539 327.038 237.589 326.912C237.639 326.786 237.729 326.68 237.845 326.61L239.967 325.325C240.108 325.244 240.275 325.222 240.432 325.262C240.589 325.302 240.724 325.403 240.808 325.542C240.892 325.681 240.919 325.847 240.882 326.005C240.844 326.163 240.747 326.3 240.61 326.387L238.486 327.672C238.389 327.73 238.278 327.761 238.165 327.761H238.166ZM243.475 324.551C243.338 324.553 243.206 324.509 243.097 324.428C242.988 324.346 242.909 324.231 242.872 324.1C242.836 323.969 242.843 323.829 242.894 323.703C242.945 323.576 243.036 323.47 243.153 323.401L245.276 322.117C245.346 322.074 245.423 322.045 245.504 322.032C245.585 322.019 245.668 322.022 245.747 322.041C245.827 322.06 245.902 322.095 245.968 322.143C246.034 322.192 246.09 322.253 246.133 322.323C246.175 322.393 246.203 322.471 246.216 322.552C246.228 322.633 246.224 322.716 246.204 322.795C246.184 322.875 246.149 322.949 246.1 323.015C246.051 323.081 245.989 323.136 245.918 323.178L243.795 324.462C243.698 324.52 243.587 324.551 243.474 324.551H243.475ZM248.781 321.342C248.646 321.342 248.514 321.297 248.406 321.215C248.298 321.133 248.22 321.018 248.184 320.888C248.148 320.758 248.155 320.619 248.205 320.493C248.254 320.367 248.344 320.261 248.46 320.19L250.582 318.906C250.652 318.863 250.73 318.834 250.811 318.821C250.891 318.808 250.974 318.811 251.054 318.83C251.134 318.85 251.209 318.884 251.275 318.933C251.341 318.981 251.397 319.042 251.439 319.112C251.482 319.182 251.51 319.26 251.522 319.341C251.534 319.422 251.53 319.505 251.511 319.584C251.491 319.664 251.455 319.738 251.406 319.804C251.357 319.87 251.296 319.925 251.225 319.967L249.102 321.251C249.006 321.31 248.895 321.341 248.781 321.342H248.781ZM254.09 318.133C253.954 318.133 253.822 318.088 253.714 318.007C253.606 317.925 253.528 317.81 253.491 317.679C253.455 317.549 253.462 317.41 253.512 317.284C253.562 317.158 253.651 317.051 253.767 316.981L255.891 315.697C255.961 315.654 256.038 315.625 256.119 315.612C256.2 315.599 256.283 315.602 256.363 315.621C256.443 315.64 256.518 315.675 256.584 315.723C256.65 315.772 256.706 315.833 256.748 315.903C256.791 315.973 256.819 316.051 256.831 316.132C256.843 316.213 256.839 316.296 256.819 316.375C256.799 316.455 256.763 316.53 256.714 316.595C256.665 316.661 256.603 316.716 256.532 316.758L254.41 318.042C254.313 318.1 254.203 318.132 254.09 318.132L254.09 318.133ZM256.836 313.48C256.672 313.48 256.514 313.415 256.398 313.298C256.281 313.182 256.216 313.024 256.216 312.86V310.378C256.216 310.214 256.281 310.056 256.398 309.94C256.514 309.823 256.672 309.758 256.836 309.758C257.001 309.758 257.159 309.823 257.275 309.94C257.392 310.056 257.457 310.214 257.457 310.378V312.86C257.457 312.941 257.441 313.022 257.409 313.097C257.378 313.172 257.333 313.24 257.275 313.298C257.217 313.355 257.149 313.401 257.074 313.432C256.998 313.463 256.918 313.479 256.836 313.479V313.48ZM256.836 307.277C256.672 307.277 256.514 307.212 256.398 307.095C256.281 306.979 256.216 306.821 256.216 306.657V304.175C256.216 304.011 256.281 303.853 256.398 303.736C256.514 303.62 256.672 303.555 256.836 303.555C257.001 303.555 257.159 303.62 257.275 303.736C257.392 303.853 257.457 304.011 257.457 304.175V306.657C257.457 306.738 257.441 306.819 257.409 306.894C257.378 306.969 257.333 307.037 257.275 307.095C257.217 307.152 257.149 307.198 257.074 307.229C256.998 307.26 256.918 307.276 256.836 307.276V307.277ZM256.836 301.074C256.672 301.074 256.514 301.008 256.398 300.892C256.281 300.776 256.216 300.618 256.216 300.453V297.971C256.216 297.806 256.281 297.649 256.398 297.532C256.514 297.416 256.672 297.35 256.836 297.35C257.001 297.35 257.159 297.416 257.275 297.532C257.392 297.649 257.457 297.806 257.457 297.971V300.452C257.457 300.534 257.441 300.614 257.41 300.69C257.379 300.765 257.333 300.834 257.275 300.891C257.218 300.949 257.149 300.995 257.074 301.026C256.999 301.057 256.918 301.073 256.836 301.073V301.074ZM258.878 295.995C258.744 295.995 258.613 295.952 258.505 295.871C258.398 295.79 258.319 295.677 258.281 295.547C258.244 295.418 258.249 295.28 258.297 295.154C258.345 295.029 258.432 294.922 258.546 294.85L260.645 293.526C260.784 293.441 260.951 293.414 261.109 293.451C261.268 293.488 261.406 293.586 261.493 293.724C261.58 293.862 261.609 294.028 261.574 294.187C261.539 294.347 261.443 294.486 261.306 294.574L259.208 295.899C259.109 295.961 258.995 295.994 258.879 295.994L258.878 295.995ZM264.124 292.685C263.989 292.685 263.859 292.641 263.751 292.56C263.644 292.48 263.565 292.366 263.528 292.237C263.49 292.108 263.496 291.97 263.543 291.845C263.591 291.719 263.678 291.612 263.791 291.54L265.89 290.216C266.029 290.128 266.197 290.099 266.358 290.136C266.518 290.172 266.657 290.27 266.745 290.409C266.833 290.548 266.862 290.717 266.826 290.877C266.789 291.037 266.691 291.177 266.552 291.264L264.454 292.589C264.355 292.651 264.241 292.684 264.124 292.684L264.124 292.685ZM269.369 289.374C269.234 289.374 269.104 289.33 268.996 289.249C268.888 289.168 268.81 289.055 268.773 288.925C268.735 288.796 268.741 288.658 268.789 288.533C268.837 288.407 268.924 288.3 269.038 288.228L271.136 286.905C271.275 286.817 271.443 286.788 271.604 286.824C271.765 286.86 271.904 286.959 271.992 287.098C272.08 287.237 272.109 287.406 272.072 287.566C272.036 287.727 271.938 287.866 271.798 287.954L269.699 289.278C269.6 289.34 269.486 289.373 269.369 289.372L269.369 289.374ZM274.614 286.064C274.48 286.064 274.349 286.02 274.242 285.939C274.134 285.858 274.056 285.745 274.018 285.615C273.981 285.486 273.987 285.348 274.034 285.223C274.082 285.097 274.17 284.99 274.283 284.918L275.803 283.959C275.801 283.877 275.816 283.794 275.846 283.717C275.876 283.64 275.921 283.57 275.979 283.511C276.037 283.452 276.106 283.405 276.182 283.373C276.259 283.341 276.341 283.324 276.423 283.324C276.506 283.324 276.588 283.341 276.664 283.373C276.74 283.405 276.809 283.452 276.867 283.511C276.925 283.57 276.97 283.64 277.001 283.717C277.031 283.794 277.046 283.877 277.044 283.959V284.643L274.946 285.968C274.846 286.03 274.732 286.063 274.615 286.062L274.614 286.064ZM276.423 280.855C276.259 280.855 276.102 280.79 275.986 280.675C275.87 280.559 275.804 280.402 275.803 280.238V277.755C275.801 277.672 275.816 277.59 275.846 277.513C275.876 277.436 275.922 277.366 275.98 277.307C276.037 277.248 276.106 277.201 276.183 277.168C276.259 277.136 276.341 277.12 276.424 277.12C276.506 277.12 276.588 277.136 276.665 277.168C276.741 277.201 276.81 277.248 276.868 277.307C276.925 277.366 276.971 277.436 277.001 277.513C277.031 277.59 277.046 277.672 277.044 277.755V280.238C277.043 280.402 276.978 280.559 276.861 280.675C276.745 280.79 276.588 280.855 276.423 280.855V280.855ZM276.423 274.652C276.259 274.652 276.101 274.587 275.985 274.471C275.868 274.354 275.803 274.196 275.803 274.032V271.551C275.801 271.468 275.816 271.386 275.846 271.309C275.876 271.232 275.921 271.162 275.979 271.102C276.037 271.043 276.106 270.996 276.182 270.964C276.259 270.932 276.341 270.915 276.423 270.915C276.506 270.915 276.588 270.932 276.664 270.964C276.74 270.996 276.809 271.043 276.867 271.102C276.925 271.162 276.97 271.232 277.001 271.309C277.031 271.386 277.046 271.468 277.044 271.551V274.032C277.044 274.114 277.028 274.195 276.997 274.27C276.966 274.345 276.92 274.414 276.862 274.472C276.805 274.529 276.736 274.575 276.661 274.606C276.586 274.638 276.505 274.654 276.423 274.654V274.652ZM276.423 268.449C276.259 268.449 276.101 268.384 275.985 268.267C275.868 268.151 275.803 267.993 275.803 267.829V266.831L277.664 265.695C277.804 265.609 277.973 265.582 278.133 265.621C278.293 265.66 278.432 265.76 278.517 265.901C278.603 266.041 278.63 266.21 278.591 266.37C278.552 266.53 278.452 266.668 278.311 266.754L277.045 267.53V267.83C277.045 267.912 277.029 267.993 276.998 268.068C276.966 268.143 276.92 268.212 276.863 268.269C276.805 268.327 276.737 268.373 276.661 268.404C276.586 268.435 276.505 268.451 276.423 268.451V268.449ZM281.164 264.906C281.029 264.906 280.897 264.862 280.789 264.78C280.682 264.698 280.604 264.583 280.567 264.453C280.531 264.323 280.538 264.184 280.587 264.059C280.637 263.933 280.726 263.827 280.841 263.756L282.959 262.463C283.1 262.378 283.269 262.351 283.428 262.39C283.588 262.429 283.726 262.529 283.812 262.67C283.898 262.81 283.924 262.979 283.885 263.139C283.847 263.299 283.746 263.437 283.605 263.523L281.488 264.816C281.39 264.876 281.278 264.907 281.164 264.908L281.164 264.906ZM286.459 261.676C286.323 261.676 286.192 261.632 286.084 261.55C285.976 261.468 285.898 261.354 285.861 261.223C285.824 261.093 285.831 260.954 285.881 260.828C285.93 260.702 286.019 260.596 286.135 260.526L288.253 259.233C288.322 259.19 288.4 259.162 288.48 259.149C288.561 259.137 288.643 259.14 288.722 259.159C288.801 259.178 288.876 259.213 288.942 259.261C289.008 259.309 289.064 259.369 289.106 259.439C289.149 259.508 289.177 259.586 289.19 259.666C289.202 259.747 289.199 259.829 289.18 259.908C289.161 259.987 289.126 260.062 289.078 260.128C289.03 260.194 288.97 260.25 288.9 260.292L286.782 261.585C286.685 261.645 286.573 261.676 286.459 261.676V261.676ZM291.754 258.444C291.618 258.444 291.487 258.4 291.379 258.318C291.271 258.237 291.192 258.122 291.156 257.992C291.119 257.862 291.126 257.723 291.175 257.597C291.225 257.471 291.314 257.365 291.43 257.295L293.549 256.002C293.618 255.96 293.695 255.931 293.776 255.919C293.856 255.906 293.938 255.909 294.018 255.928C294.097 255.947 294.171 255.982 294.237 256.03C294.303 256.078 294.359 256.138 294.401 256.208C294.444 256.277 294.472 256.355 294.485 256.435C294.497 256.515 294.494 256.598 294.475 256.677C294.456 256.756 294.421 256.831 294.373 256.896C294.325 256.962 294.265 257.018 294.195 257.06L292.076 258.353C291.979 258.412 291.868 258.444 291.754 258.444H291.754ZM296.35 254.82C296.268 254.82 296.187 254.805 296.112 254.773C296.037 254.742 295.968 254.697 295.91 254.639C295.853 254.581 295.807 254.513 295.776 254.437C295.745 254.362 295.729 254.281 295.729 254.2V251.718C295.733 251.556 295.8 251.402 295.916 251.289C296.032 251.176 296.188 251.113 296.35 251.113C296.512 251.113 296.667 251.176 296.783 251.289C296.899 251.402 296.966 251.556 296.97 251.718V254.2C296.97 254.281 296.954 254.362 296.923 254.437C296.892 254.512 296.846 254.581 296.789 254.638C296.731 254.696 296.663 254.742 296.588 254.773C296.512 254.804 296.432 254.82 296.35 254.82H296.35ZM296.35 248.617C296.268 248.617 296.187 248.601 296.112 248.57C296.037 248.539 295.968 248.493 295.91 248.436C295.853 248.378 295.807 248.31 295.776 248.234C295.745 248.159 295.729 248.078 295.729 247.996V245.515C295.733 245.353 295.8 245.199 295.916 245.086C296.032 244.973 296.188 244.91 296.35 244.91C296.512 244.91 296.667 244.973 296.783 245.086C296.899 245.199 296.966 245.353 296.97 245.515V247.996C296.97 248.078 296.954 248.158 296.923 248.234C296.892 248.309 296.846 248.377 296.789 248.435C296.731 248.492 296.663 248.538 296.587 248.569C296.512 248.6 296.432 248.616 296.35 248.616L296.35 248.617ZM296.35 242.414C296.268 242.414 296.187 242.398 296.112 242.367C296.037 242.336 295.968 242.29 295.91 242.233C295.853 242.175 295.807 242.106 295.776 242.031C295.745 241.956 295.729 241.875 295.729 241.793V241.118L297.913 239.857C298.055 239.774 298.225 239.752 298.384 239.795C298.543 239.837 298.678 239.942 298.761 240.084C298.843 240.227 298.865 240.396 298.823 240.555C298.78 240.714 298.676 240.85 298.533 240.932L296.97 241.835C296.96 241.992 296.89 242.14 296.774 242.247C296.659 242.354 296.508 242.414 296.35 242.414L296.35 242.414ZM301.446 239.153C301.31 239.153 301.177 239.108 301.069 239.025C300.961 238.942 300.883 238.825 300.847 238.693C300.812 238.562 300.821 238.422 300.873 238.296C300.926 238.169 301.018 238.064 301.136 237.996L303.285 236.754C303.356 236.711 303.434 236.683 303.516 236.671C303.597 236.66 303.68 236.664 303.76 236.685C303.84 236.705 303.915 236.742 303.98 236.792C304.046 236.841 304.101 236.904 304.142 236.975C304.183 237.047 304.21 237.125 304.22 237.207C304.231 237.289 304.225 237.372 304.203 237.451C304.181 237.531 304.143 237.605 304.092 237.67C304.041 237.734 303.978 237.788 303.906 237.828L301.757 239.07C301.662 239.124 301.556 239.153 301.447 239.154L301.446 239.153ZM306.818 236.05C306.682 236.05 306.549 236.005 306.441 235.922C306.333 235.839 306.255 235.722 306.219 235.591C306.184 235.459 306.193 235.319 306.245 235.193C306.298 235.067 306.39 234.961 306.508 234.893L308.657 233.651C308.799 233.572 308.967 233.552 309.124 233.596C309.28 233.639 309.414 233.742 309.495 233.883C309.576 234.024 309.599 234.191 309.559 234.349C309.518 234.506 309.417 234.641 309.277 234.725L307.129 235.968C307.034 236.022 306.927 236.051 306.819 236.051L306.818 236.05ZM312.189 232.948C312.052 232.947 311.92 232.902 311.812 232.819C311.704 232.736 311.626 232.619 311.591 232.487C311.556 232.356 311.565 232.216 311.617 232.09C311.669 231.964 311.761 231.858 311.879 231.79L314.029 230.549C314.171 230.471 314.339 230.451 314.496 230.494C314.652 230.538 314.786 230.641 314.867 230.782C314.948 230.923 314.971 231.09 314.93 231.247C314.89 231.405 314.789 231.54 314.649 231.624L312.5 232.864C312.405 232.919 312.298 232.948 312.189 232.948L312.189 232.948Z" fill="#6ACCE5" />
    <path d="M295.084 405.77C294.958 405.77 294.835 405.728 294.735 405.652C294.635 405.576 294.563 405.469 294.529 405.348C294.495 405.227 294.502 405.098 294.549 404.981C294.595 404.864 294.678 404.765 294.786 404.7L295.048 404.543C295.113 404.502 295.185 404.474 295.26 404.462C295.336 404.449 295.413 404.452 295.488 404.469C295.562 404.487 295.632 404.519 295.694 404.564C295.756 404.609 295.808 404.666 295.848 404.731C295.888 404.797 295.914 404.87 295.925 404.945C295.936 405.021 295.932 405.098 295.913 405.172C295.894 405.246 295.861 405.316 295.815 405.377C295.769 405.438 295.711 405.489 295.645 405.528L295.382 405.687C295.292 405.741 295.189 405.769 295.084 405.77V405.77ZM298.303 403.822C298.177 403.822 298.055 403.78 297.955 403.704C297.855 403.628 297.783 403.521 297.749 403.4C297.716 403.279 297.722 403.151 297.768 403.034C297.814 402.917 297.897 402.818 298.005 402.753L299.976 401.56C300.041 401.52 300.113 401.492 300.189 401.479C300.264 401.467 300.341 401.469 300.416 401.487C300.49 401.505 300.56 401.537 300.622 401.582C300.684 401.627 300.736 401.684 300.776 401.749C300.816 401.815 300.842 401.887 300.853 401.963C300.864 402.039 300.86 402.116 300.842 402.19C300.823 402.264 300.789 402.334 300.743 402.395C300.697 402.456 300.639 402.507 300.573 402.546L298.601 403.738C298.511 403.793 298.408 403.821 298.303 403.821V403.822ZM303.234 400.839C303.108 400.839 302.985 400.798 302.885 400.722C302.785 400.646 302.712 400.539 302.678 400.418C302.644 400.296 302.651 400.167 302.698 400.05C302.744 399.933 302.828 399.835 302.935 399.77L304.907 398.577C304.972 398.536 305.044 398.508 305.12 398.495C305.196 398.482 305.273 398.484 305.348 398.502C305.423 398.519 305.493 398.551 305.555 398.597C305.617 398.642 305.67 398.699 305.71 398.764C305.749 398.83 305.775 398.903 305.787 398.979C305.798 399.055 305.793 399.132 305.774 399.207C305.755 399.281 305.721 399.351 305.674 399.412C305.628 399.473 305.57 399.524 305.503 399.562L303.531 400.754C303.442 400.809 303.339 400.838 303.234 400.838V400.839ZM308.162 397.859C308.036 397.858 307.914 397.817 307.814 397.741C307.714 397.665 307.641 397.558 307.607 397.437C307.574 397.316 307.58 397.187 307.627 397.07C307.673 396.953 307.756 396.854 307.864 396.789L309.835 395.596C309.9 395.555 309.972 395.527 310.047 395.515C310.123 395.502 310.2 395.505 310.275 395.522C310.349 395.54 310.419 395.572 310.481 395.617C310.543 395.662 310.595 395.719 310.635 395.785C310.675 395.85 310.701 395.923 310.712 395.998C310.723 396.074 310.719 396.151 310.7 396.225C310.682 396.299 310.648 396.369 310.602 396.43C310.556 396.491 310.498 396.543 310.432 396.581L308.46 397.776C308.37 397.829 308.267 397.856 308.162 397.856V397.859ZM313.092 394.875C312.966 394.875 312.843 394.834 312.743 394.758C312.642 394.682 312.57 394.575 312.536 394.454C312.502 394.333 312.509 394.204 312.555 394.087C312.602 393.97 312.685 393.871 312.793 393.806L314.765 392.613C314.895 392.534 315.052 392.51 315.201 392.547C315.349 392.583 315.477 392.677 315.556 392.808C315.635 392.939 315.659 393.096 315.623 393.244C315.586 393.393 315.492 393.521 315.361 393.6L313.39 394.792C313.3 394.845 313.196 394.873 313.092 394.872V394.875ZM318.021 391.895C317.895 391.895 317.773 391.854 317.672 391.778C317.572 391.702 317.499 391.595 317.466 391.474C317.432 391.352 317.439 391.223 317.485 391.106C317.532 390.989 317.615 390.891 317.723 390.826L319.695 389.632C319.825 389.553 319.982 389.529 320.131 389.566C320.279 389.602 320.407 389.696 320.486 389.827C320.565 389.958 320.588 390.115 320.552 390.263C320.515 390.412 320.421 390.539 320.29 390.618L318.32 391.807C318.23 391.862 318.127 391.891 318.021 391.89V391.895ZM322.951 388.912C322.825 388.911 322.703 388.87 322.603 388.794C322.503 388.718 322.43 388.611 322.396 388.49C322.362 388.369 322.369 388.24 322.415 388.123C322.462 388.006 322.545 387.907 322.652 387.842L324.624 386.65C324.689 386.611 324.761 386.584 324.836 386.573C324.911 386.562 324.987 386.565 325.06 386.583C325.134 386.601 325.203 386.634 325.264 386.679C325.325 386.723 325.377 386.78 325.416 386.845C325.455 386.909 325.481 386.981 325.493 387.056C325.504 387.131 325.501 387.207 325.482 387.281C325.464 387.354 325.432 387.423 325.387 387.484C325.342 387.545 325.286 387.597 325.221 387.636L323.25 388.829C323.159 388.882 323.055 388.909 322.951 388.907L322.951 388.912ZM327.879 385.925C327.753 385.924 327.631 385.883 327.531 385.807C327.431 385.731 327.359 385.624 327.325 385.504C327.291 385.383 327.298 385.254 327.344 385.137C327.39 385.02 327.473 384.922 327.581 384.856L329.552 383.663C329.683 383.584 329.84 383.56 329.988 383.596C330.137 383.633 330.265 383.727 330.344 383.858C330.423 383.988 330.447 384.145 330.41 384.294C330.374 384.442 330.28 384.57 330.149 384.649L328.177 385.842C328.087 385.896 327.984 385.925 327.879 385.925V385.925ZM332.81 382.944C332.684 382.944 332.562 382.903 332.462 382.827C332.361 382.751 332.289 382.645 332.255 382.523C332.221 382.402 332.228 382.273 332.274 382.157C332.321 382.04 332.404 381.941 332.511 381.876L334.483 380.682C334.614 380.603 334.771 380.58 334.919 380.616C335.068 380.653 335.195 380.747 335.274 380.878C335.353 381.009 335.377 381.165 335.34 381.314C335.304 381.462 335.21 381.59 335.079 381.669L333.107 382.861C333.017 382.915 332.914 382.942 332.81 382.941V382.944ZM337.738 379.961C337.612 379.961 337.49 379.92 337.39 379.844C337.29 379.768 337.217 379.661 337.183 379.54C337.149 379.419 337.156 379.29 337.202 379.173C337.249 379.056 337.332 378.958 337.44 378.893L339.411 377.7C339.476 377.659 339.548 377.632 339.624 377.619C339.699 377.607 339.776 377.609 339.851 377.627C339.925 377.644 339.996 377.677 340.058 377.722C340.119 377.767 340.172 377.824 340.211 377.889C340.251 377.955 340.277 378.027 340.288 378.103C340.3 378.179 340.296 378.256 340.277 378.33C340.258 378.404 340.224 378.474 340.178 378.535C340.132 378.596 340.074 378.647 340.008 378.686L338.036 379.878C337.946 379.932 337.843 379.959 337.738 379.958V379.961ZM342.668 376.981C342.542 376.98 342.42 376.939 342.319 376.863C342.219 376.787 342.147 376.68 342.113 376.559C342.079 376.438 342.086 376.309 342.132 376.192C342.178 376.075 342.262 375.976 342.369 375.911L344.341 374.719C344.405 374.677 344.478 374.648 344.554 374.635C344.63 374.622 344.707 374.624 344.783 374.641C344.858 374.658 344.929 374.69 344.991 374.736C345.053 374.781 345.106 374.838 345.146 374.904C345.186 374.97 345.212 375.043 345.224 375.119C345.235 375.196 345.23 375.273 345.211 375.348C345.191 375.423 345.157 375.492 345.11 375.554C345.063 375.615 345.004 375.666 344.937 375.704L342.966 376.896C342.876 376.95 342.772 376.978 342.668 376.977V376.981ZM347.597 373.997C347.471 373.997 347.349 373.956 347.248 373.88C347.148 373.804 347.075 373.697 347.042 373.576C347.008 373.455 347.015 373.326 347.061 373.209C347.107 373.092 347.191 372.993 347.299 372.928L349.27 371.735C349.401 371.658 349.557 371.635 349.705 371.671C349.852 371.708 349.979 371.802 350.058 371.932C350.136 372.062 350.16 372.218 350.124 372.366C350.089 372.514 349.996 372.641 349.866 372.721L347.895 373.913C347.805 373.967 347.702 373.995 347.597 373.994V373.997ZM352.527 371.015C352.401 371.015 352.278 370.974 352.178 370.898C352.078 370.822 352.005 370.715 351.971 370.594C351.937 370.473 351.944 370.344 351.991 370.226C352.037 370.109 352.121 370.011 352.228 369.946L354.2 368.752C354.265 368.713 354.336 368.687 354.411 368.676C354.486 368.664 354.563 368.668 354.636 368.686C354.71 368.704 354.779 368.736 354.84 368.781C354.901 368.826 354.952 368.882 354.991 368.947C355.031 369.012 355.057 369.084 355.068 369.158C355.08 369.233 355.076 369.31 355.058 369.383C355.04 369.457 355.008 369.526 354.963 369.587C354.918 369.648 354.861 369.699 354.797 369.739L352.825 370.932C352.735 370.985 352.631 371.013 352.526 371.012L352.527 371.015ZM357.455 368.032C357.329 368.032 357.207 367.991 357.106 367.915C357.006 367.839 356.933 367.732 356.899 367.611C356.866 367.489 356.872 367.36 356.919 367.243C356.965 367.126 357.049 367.028 357.157 366.962L359.128 365.77C359.193 365.731 359.265 365.705 359.34 365.693C359.414 365.682 359.491 365.685 359.564 365.703C359.638 365.721 359.707 365.754 359.768 365.799C359.829 365.844 359.88 365.9 359.92 365.965C359.959 366.03 359.985 366.101 359.996 366.176C360.008 366.251 360.004 366.327 359.986 366.401C359.968 366.474 359.936 366.544 359.891 366.605C359.846 366.666 359.79 366.717 359.725 366.756L357.753 367.949C357.663 368.002 357.56 368.03 357.455 368.028V368.032ZM362.386 365.048C362.26 365.049 362.137 365.008 362.037 364.931C361.937 364.855 361.864 364.749 361.83 364.627C361.796 364.506 361.803 364.377 361.85 364.26C361.896 364.143 361.98 364.044 362.087 363.979L364.059 362.787C364.19 362.708 364.346 362.684 364.495 362.72C364.643 362.757 364.771 362.851 364.85 362.982C364.929 363.113 364.953 363.27 364.916 363.418C364.879 363.566 364.785 363.694 364.654 363.773L362.683 364.966C362.593 365.019 362.49 365.046 362.385 365.045L362.386 365.048ZM367.314 362.068C367.189 362.068 367.066 362.027 366.966 361.951C366.866 361.875 366.793 361.768 366.76 361.647C366.726 361.526 366.732 361.397 366.779 361.28C366.825 361.164 366.908 361.065 367.016 361L368.988 359.806C369.052 359.767 369.124 359.741 369.199 359.73C369.274 359.718 369.35 359.722 369.424 359.74C369.497 359.758 369.567 359.79 369.628 359.835C369.689 359.88 369.74 359.936 369.779 360.001C369.818 360.066 369.845 360.138 369.856 360.213C369.867 360.287 369.864 360.364 369.846 360.437C369.828 360.511 369.795 360.58 369.751 360.641C369.706 360.702 369.649 360.754 369.584 360.793L367.613 361.985C367.523 362.038 367.419 362.065 367.315 362.063L367.314 362.068ZM372.244 359.085C372.118 359.085 371.996 359.044 371.896 358.968C371.796 358.892 371.723 358.785 371.689 358.664C371.655 358.543 371.662 358.414 371.708 358.297C371.755 358.18 371.838 358.082 371.946 358.017L373.917 356.823C374.048 356.743 374.205 356.72 374.353 356.756C374.427 356.774 374.496 356.807 374.557 356.851C374.618 356.896 374.669 356.953 374.709 357.017C374.748 357.082 374.774 357.154 374.785 357.229C374.797 357.304 374.793 357.38 374.775 357.454C374.757 357.527 374.725 357.596 374.68 357.657C374.635 357.718 374.579 357.77 374.514 357.809L372.542 359.002C372.452 359.054 372.348 359.081 372.244 359.08L372.244 359.085ZM377.174 356.104C377.048 356.104 376.926 356.063 376.825 355.987C376.725 355.911 376.653 355.805 376.619 355.684C376.585 355.562 376.592 355.434 376.638 355.317C376.684 355.2 376.768 355.101 376.875 355.036L378.847 353.843C378.977 353.765 379.133 353.742 379.281 353.779C379.428 353.816 379.555 353.91 379.634 354.04C379.713 354.17 379.737 354.326 379.701 354.474C379.665 354.622 379.572 354.749 379.442 354.829L377.471 356.021C377.38 356.073 377.277 356.1 377.173 356.097L377.174 356.104ZM382.103 353.124C381.977 353.124 381.855 353.083 381.755 353.007C381.655 352.93 381.582 352.824 381.549 352.703C381.515 352.581 381.521 352.452 381.568 352.336C381.614 352.219 381.697 352.12 381.805 352.055L383.776 350.862C383.841 350.821 383.913 350.794 383.989 350.781C384.064 350.769 384.141 350.771 384.216 350.789C384.29 350.806 384.361 350.839 384.422 350.884C384.484 350.929 384.537 350.986 384.576 351.051C384.616 351.117 384.642 351.189 384.653 351.265C384.664 351.341 384.661 351.418 384.642 351.492C384.623 351.566 384.589 351.636 384.543 351.697C384.497 351.758 384.439 351.809 384.373 351.848L382.402 353.04C382.311 353.092 382.207 353.118 382.102 353.115L382.103 353.124Z" fill="#6ACCE5" />
    <path opacity="0.2" d="M489.803 452.247C535.095 452.247 571.812 436.971 571.812 418.126C571.812 399.282 535.095 384.006 489.803 384.006C444.51 384.006 407.793 399.282 407.793 418.126C407.793 436.971 444.51 452.247 489.803 452.247Z" fill="#92B4D1" />
    <path opacity="0.6" d="M229.613 495.352L234.887 492.74L261.991 508.389L256.718 511.001L229.613 495.352ZM243.357 487.328L253.591 481.419L280.696 497.068L270.461 502.977L243.357 487.328ZM263.588 475.647L275.259 468.908L302.364 484.557L290.693 491.296L263.588 475.647ZM283.819 463.966L296.928 456.399L324.032 472.047L310.924 479.616L283.819 463.966ZM304.05 452.286L318.596 443.887L345.701 459.537L331.155 467.934L304.05 452.286Z" fill="url(#paint0_linear_31383_28122)" />
    <path opacity="0.1" d="M301.941 426.139L375.553 468.639L389.432 418.127L301.941 426.139Z" fill="#7D98B1" />
    <path d="M469.786 173.977C443.634 158.878 419.818 156.598 401.943 165.069L387.562 173.214L387.565 173.287C405.402 164.998 429.089 167.346 455.083 182.353C510.569 214.388 555.548 291.97 555.548 355.639C555.548 386.544 544.949 408.487 527.696 419.227L537.336 413.594C557.556 404.18 570.251 381.086 570.251 347.262C570.25 283.594 525.271 206.012 469.786 173.977Z" fill="#3869FF" />
    <path d="M455.082 182.355C399.597 150.32 354.617 175.965 354.617 239.633C354.617 303.302 399.597 380.885 455.082 412.92C510.567 444.954 555.548 419.309 555.548 355.641C555.548 291.972 510.567 214.388 455.082 182.355Z" fill="url(#paint1_linear_31383_28122)" />
    <path d="M456.579 181.503C428.439 165.258 403.008 163.855 384.77 174.715C402.891 164.792 427.71 166.546 455.09 182.355C510.575 214.389 555.555 291.972 555.555 355.64C555.555 387.02 544.624 409.155 526.9 419.708C545.5 409.524 557.043 387.038 557.043 354.789C557.043 291.121 512.064 213.537 456.579 181.503Z" fill="#084C94" />
    <path d="M526.568 419.912C565.556 397.12 565.157 323.898 525.677 256.367C486.198 188.836 422.588 152.568 383.601 175.361C344.613 198.153 345.012 271.375 384.491 338.906C423.971 406.437 487.581 442.705 526.568 419.912Z" fill="#012DB4" />
    <path d="M522.697 413.292C559.574 391.733 559.197 322.476 521.855 258.601C484.513 194.727 424.347 160.423 387.47 181.981C350.594 203.54 350.971 272.797 388.313 336.672C425.654 400.546 485.82 434.85 522.697 413.292Z" fill="#E3F3FF" />
    <path d="M512.951 396.621C544.513 378.17 544.19 318.896 512.231 264.228C480.271 209.561 428.778 180.201 397.217 198.652C365.656 217.103 365.978 276.378 397.938 331.045C429.897 385.713 481.39 415.072 512.951 396.621Z" fill="#6ACCE5" />
    <path d="M501.988 377.866C527.569 362.911 527.307 314.868 501.404 270.558C475.5 226.249 433.763 202.452 408.182 217.407C382.601 232.362 382.862 280.406 408.766 324.715C434.67 369.025 476.407 392.821 501.988 377.866Z" fill="#E3F3FF" />
    <path d="M491.665 360.097C511.592 348.437 511.372 311.005 491.175 276.49C470.978 241.975 438.452 223.447 418.525 235.108C398.599 246.768 398.818 284.2 419.015 318.715C439.212 353.23 471.739 371.758 491.665 360.097Z" fill="#6ACCE5" />
    <path d="M481.911 343.441C496.524 334.89 496.363 307.44 481.552 282.129C466.741 256.818 442.888 243.231 428.275 251.782C413.662 260.333 413.823 287.784 428.634 313.095C443.446 338.406 467.298 351.992 481.911 343.441Z" fill="#E3F3FF" />
    <path d="M456.551 405.763C404.069 375.463 361.525 302.08 361.525 241.858C361.525 213.108 371.226 192.562 387.072 182.229C370.359 192.234 360.059 213.147 360.059 242.774C360.059 302.996 402.603 376.379 455.084 406.679C482.51 422.513 507.218 423.44 524.563 412.13C507.306 422.461 483.213 421.156 456.551 405.763Z" fill="#A8CFF0" />
    <path d="M456.554 372.362C420.148 351.343 390.635 300.437 390.635 258.662C390.635 238.642 397.425 224.372 408.492 217.231C396.553 224.028 389.168 238.682 389.168 259.579C389.168 301.355 418.681 352.261 455.087 373.278C474.047 384.225 491.124 384.887 503.149 377.127C491.222 383.918 474.749 382.867 456.554 372.362Z" fill="#A8CFF0" />
    <path d="M456.552 339.945C435.748 327.934 418.884 298.845 418.884 274.973C418.884 263.844 422.551 255.817 428.573 251.633C421.686 255.488 417.418 263.884 417.418 275.89C417.418 299.762 434.283 328.85 455.085 340.861C466.19 347.273 476.169 347.518 483.064 342.726C476.258 346.537 466.893 345.915 456.552 339.945Z" fill="#A8CFF0" />
    <path d="M471.544 325.745C480.511 320.497 480.412 303.653 471.323 288.121C462.234 272.589 447.598 264.252 438.631 269.499C429.664 274.746 429.762 291.591 438.851 307.123C447.94 322.654 462.577 330.992 471.544 325.745Z" fill="#f37070" />
    <path opacity="0.5" d="M457.319 298.114C457.319 299.161 456.58 299.582 455.669 299.056C455.19 298.745 454.791 298.324 454.504 297.83C454.217 297.335 454.051 296.78 454.02 296.209C454.02 295.164 454.758 294.743 455.669 295.269C456.149 295.58 456.548 296 456.834 296.495C457.121 296.989 457.287 297.544 457.319 298.114V298.114Z" fill="#231F20" />
    <path d="M455.083 271.113C449.31 267.781 444.034 267.169 439.984 268.847C443.795 267.872 448.478 268.699 453.548 271.626C466.314 278.996 476.662 296.846 476.662 311.494C476.662 319.518 473.553 324.909 468.647 326.939C474.432 325.459 478.198 319.816 478.198 310.983C478.197 296.334 467.848 278.484 455.083 271.113Z" fill="#D62D69" />
    <path d="M246.626 419.514L237.626 418.301C232.703 417.637 232.242 410.695 237.033 409.386L287.49 395.595L246.626 419.514Z" fill="#f37070" />
    <path d="M246.978 418.634L237.979 417.421C234.858 416.999 233.536 414.059 234.203 411.626C232.887 414.166 234.114 417.828 237.626 418.302L246.626 419.514L287.49 395.594L285.327 396.186L246.978 418.634Z" fill="#F76195" />
    <path opacity="0.5" d="M237.842 417.678L246.843 418.891L285.899 396.03L285.327 396.186L246.978 418.633L237.977 417.421C234.857 416.999 233.535 414.059 234.201 411.627C234.149 411.73 234.107 411.836 234.062 411.942C233.427 414.363 234.745 417.26 237.842 417.678Z" fill="white" />
    <path d="M456.4 297.503C456.408 297.582 456.396 297.662 456.363 297.735C456.331 297.808 456.281 297.871 456.217 297.919C456.217 297.919 451.101 304.882 438.576 312.137C420.684 322.501 417.821 323.199 417.821 323.199C417.339 323.469 417.642 322.867 416.922 322.452C416.161 321.958 415.526 321.291 415.071 320.505C414.616 319.719 414.352 318.837 414.301 317.931C414.301 317.109 413.541 317.102 414.006 316.829C414.006 316.829 416.078 314.803 433.993 304.439C446.56 297.17 455.286 296.322 455.286 296.322C455.361 296.29 455.442 296.278 455.522 296.287C455.603 296.295 455.679 296.325 455.745 296.372C455.936 296.496 456.094 296.662 456.208 296.859C456.322 297.056 456.388 297.276 456.4 297.503V297.503Z" fill="#fbb03b" />
    <path d="M418.482 321.561C418.482 323.222 417.308 323.892 415.86 323.056C415.098 322.561 414.464 321.894 414.008 321.108C413.553 320.322 413.289 319.44 413.238 318.534C413.238 316.872 414.412 316.203 415.86 317.039C416.621 317.533 417.256 318.2 417.712 318.986C418.167 319.772 418.431 320.654 418.482 321.561V321.561Z" fill="#FFDE17" />
    <path d="M417.964 321.622C417.964 322.396 417.697 322.945 417.262 323.211L243.859 424.781C243.407 425.035 243.696 424.459 243.01 424.064C242.283 423.591 241.677 422.954 241.242 422.204C240.807 421.454 240.555 420.612 240.507 419.746C240.507 418.962 239.782 418.957 240.226 418.695C240.226 418.695 413.701 317.118 413.713 317.112C414.164 316.868 414.781 316.913 415.461 317.306C416.188 317.778 416.794 318.414 417.229 319.164C417.664 319.914 417.916 320.756 417.964 321.622V321.622Z" fill="#3869FF" />
    <path d="M244.497 423.212C244.497 424.797 243.377 425.436 241.995 424.639C241.268 424.167 240.662 423.53 240.227 422.78C239.792 422.029 239.541 421.187 239.492 420.322C239.492 418.737 240.612 418.098 241.995 418.895C242.722 419.367 243.327 420.004 243.762 420.755C244.197 421.505 244.448 422.347 244.497 423.212V423.212Z" fill="#3F92D1" />
    <path d="M245.124 416.209L286.86 392.165L254.287 389.498C242.087 388.499 234.505 402.464 241.989 412.152L245.124 416.209Z" fill="#F76195" />
    <path d="M245.784 416.078L287.519 392.033L254.948 389.366C242.747 388.367 235.165 402.331 242.649 412.019L245.784 416.078Z" fill="#f37070" />
    <path opacity="0.5" d="M243.265 412.284C235.782 402.597 243.363 388.631 255.564 389.63L287.194 392.22L287.518 392.033L254.948 389.366C242.747 388.367 235.165 402.332 242.649 412.019L245.784 416.078L246.07 415.913L243.265 412.284Z" fill="white" />
    <path d="M247.766 421.108L248.79 424.791C251.523 434.618 264.604 436.564 270.079 427.959L289.502 397.438L247.766 421.108Z" fill="#F76195" />
    <path d="M248.414 420.58L249.438 424.262C252.172 434.089 265.252 436.036 270.728 427.43L290.15 396.911L248.414 420.58Z" fill="#f37070" />
    <path opacity="0.5" d="M271.08 426.814C265.604 435.419 252.523 433.472 249.791 423.646L248.867 420.323L248.414 420.58L249.438 424.262C252.172 434.089 265.252 436.036 270.728 427.431L290.15 396.911L290.087 396.947L271.08 426.814Z" fill="white" />
    <path d="M618.656 256.893L624.648 253.977L593.594 189.739L587.527 193.093L618.656 256.893Z" fill="#3FABC7" />
    <path d="M600.422 322.072L606.414 319.156V314.649L600.422 317.565V322.072Z" fill="#3FABC7" />
    <path d="M574.785 302.764L580.778 299.848L606.413 314.648L600.42 317.565L574.785 302.764Z" fill="#A6DCE9" />
    <path d="M574.785 288.304L580.778 285.388L606.413 300.188L600.42 303.105L574.785 288.304Z" fill="#A6DCE9" />
    <path d="M574.785 298.732L600.42 313.532V303.013L574.785 288.213V298.732Z" fill="#6ACCE5" />
    <path d="M574.785 307.272L600.42 322.073V317.566L574.785 302.765V307.272Z" fill="#6ACCE5" />
    <path d="M600.422 313.532L606.414 310.616V300.097L600.422 303.013V313.532Z" fill="#3FABC7" />
    <path d="M600.422 299.455L606.414 296.539V243.448L600.422 246.364V299.455Z" fill="#3FABC7" />
    <path d="M614.066 312.612C613.902 312.612 613.745 312.547 613.628 312.431C613.512 312.315 613.446 312.158 613.446 311.994V309.513C613.444 309.43 613.458 309.348 613.489 309.271C613.519 309.194 613.564 309.123 613.622 309.064C613.68 309.005 613.749 308.958 613.825 308.926C613.901 308.894 613.983 308.877 614.066 308.877C614.149 308.877 614.231 308.894 614.307 308.926C614.383 308.958 614.452 309.005 614.51 309.064C614.568 309.123 614.613 309.194 614.644 309.271C614.674 309.348 614.688 309.43 614.686 309.513V311.994C614.686 312.075 614.67 312.156 614.639 312.231C614.608 312.306 614.562 312.374 614.505 312.432C614.447 312.489 614.379 312.535 614.303 312.565C614.228 312.596 614.148 312.612 614.066 312.612V312.612ZM614.066 306.41C613.902 306.41 613.744 306.345 613.628 306.228C613.511 306.112 613.446 305.954 613.446 305.79V303.308C613.444 303.226 613.458 303.143 613.489 303.066C613.519 302.989 613.564 302.919 613.622 302.86C613.68 302.801 613.749 302.754 613.825 302.722C613.901 302.689 613.983 302.673 614.066 302.673C614.149 302.673 614.231 302.689 614.307 302.722C614.383 302.754 614.452 302.801 614.51 302.86C614.568 302.919 614.613 302.989 614.644 303.066C614.674 303.143 614.688 303.226 614.686 303.308V305.79C614.686 305.871 614.67 305.952 614.639 306.027C614.608 306.102 614.562 306.171 614.505 306.228C614.447 306.286 614.379 306.332 614.304 306.363C614.228 306.394 614.148 306.41 614.066 306.41V306.41ZM614.066 300.207C613.902 300.207 613.744 300.142 613.628 300.025C613.511 299.909 613.446 299.751 613.446 299.587V297.105C613.45 296.943 613.517 296.789 613.633 296.676C613.749 296.563 613.904 296.5 614.066 296.5C614.228 296.5 614.384 296.563 614.499 296.676C614.615 296.789 614.682 296.943 614.686 297.105V299.587C614.686 299.668 614.67 299.749 614.639 299.824C614.608 299.899 614.563 299.968 614.505 300.025C614.447 300.083 614.379 300.129 614.304 300.16C614.228 300.191 614.148 300.207 614.066 300.207V300.207ZM614.066 294.004C613.902 294.004 613.744 293.938 613.628 293.822C613.511 293.706 613.446 293.548 613.446 293.383V290.902C613.444 290.819 613.458 290.737 613.489 290.66C613.519 290.583 613.564 290.513 613.622 290.454C613.68 290.394 613.749 290.347 613.825 290.315C613.901 290.283 613.983 290.267 614.066 290.267C614.149 290.267 614.231 290.283 614.307 290.315C614.383 290.347 614.452 290.394 614.51 290.454C614.568 290.513 614.613 290.583 614.644 290.66C614.674 290.737 614.688 290.819 614.686 290.902V293.383C614.686 293.465 614.67 293.545 614.639 293.621C614.608 293.696 614.563 293.764 614.505 293.822C614.447 293.88 614.379 293.925 614.304 293.957C614.228 293.988 614.148 294.004 614.066 294.004V294.004ZM614.066 287.801C613.902 287.801 613.744 287.736 613.628 287.619C613.511 287.503 613.446 287.345 613.446 287.18V284.699C613.444 284.616 613.458 284.534 613.489 284.457C613.519 284.38 613.564 284.31 613.622 284.251C613.68 284.192 613.749 284.144 613.825 284.112C613.901 284.08 613.983 284.064 614.066 284.064C614.149 284.064 614.231 284.08 614.307 284.112C614.383 284.144 614.452 284.192 614.51 284.251C614.568 284.31 614.613 284.38 614.644 284.457C614.674 284.534 614.688 284.616 614.686 284.699V287.18C614.686 287.262 614.67 287.343 614.639 287.418C614.608 287.493 614.563 287.562 614.505 287.619C614.447 287.677 614.379 287.723 614.304 287.754C614.228 287.785 614.148 287.801 614.066 287.801V287.801ZM614.066 281.598C613.902 281.598 613.744 281.532 613.628 281.416C613.511 281.3 613.446 281.142 613.446 280.977V278.496C613.45 278.334 613.517 278.18 613.633 278.067C613.749 277.954 613.904 277.891 614.066 277.891C614.228 277.891 614.384 277.954 614.499 278.067C614.615 278.18 614.682 278.334 614.686 278.496V280.978C614.686 281.059 614.67 281.14 614.639 281.215C614.608 281.29 614.562 281.359 614.505 281.416C614.447 281.474 614.379 281.519 614.304 281.551C614.228 281.582 614.148 281.598 614.066 281.598ZM614.066 275.394C613.902 275.394 613.744 275.329 613.628 275.213C613.511 275.096 613.446 274.939 613.446 274.774V272.293C613.444 272.21 613.458 272.128 613.489 272.051C613.519 271.974 613.564 271.904 613.622 271.844C613.68 271.785 613.749 271.738 613.825 271.706C613.901 271.674 613.983 271.657 614.066 271.657C614.149 271.657 614.231 271.674 614.307 271.706C614.383 271.738 614.452 271.785 614.51 271.844C614.568 271.904 614.613 271.974 614.644 272.051C614.674 272.128 614.688 272.21 614.686 272.293V274.774C614.686 274.856 614.67 274.936 614.639 275.012C614.608 275.087 614.563 275.155 614.505 275.213C614.447 275.27 614.379 275.316 614.304 275.347C614.228 275.379 614.148 275.395 614.066 275.394V275.394ZM633.158 270.353C632.999 270.352 632.846 270.29 632.731 270.18C632.616 270.07 632.548 269.92 632.541 269.761C632.534 269.602 632.588 269.446 632.692 269.326C632.796 269.206 632.942 269.13 633.101 269.115C633.777 269.043 634.403 268.721 634.855 268.212C634.91 268.152 634.975 268.103 635.049 268.067C635.122 268.032 635.202 268.012 635.283 268.007C635.364 268.003 635.446 268.014 635.522 268.041C635.599 268.068 635.67 268.11 635.731 268.165C635.791 268.219 635.841 268.285 635.876 268.358C635.911 268.432 635.931 268.511 635.936 268.592C635.94 268.674 635.929 268.755 635.902 268.832C635.875 268.909 635.833 268.979 635.778 269.04C635.121 269.784 634.206 270.252 633.218 270.349C633.198 270.351 633.178 270.353 633.158 270.353V270.353ZM614.066 269.189C613.902 269.189 613.744 269.124 613.628 269.008C613.511 268.892 613.446 268.734 613.446 268.569V266.088C613.45 265.926 613.517 265.772 613.633 265.659C613.749 265.546 613.904 265.483 614.066 265.483C614.228 265.483 614.384 265.546 614.499 265.659C614.615 265.772 614.682 265.926 614.686 266.088V268.569C614.687 268.651 614.671 268.732 614.64 268.808C614.609 268.883 614.564 268.952 614.506 269.01C614.448 269.068 614.38 269.114 614.304 269.145C614.229 269.176 614.148 269.192 614.066 269.192V269.189ZM629.749 269.056C629.64 269.056 629.533 269.027 629.439 268.972L627.289 267.732C627.149 267.648 627.048 267.513 627.008 267.355C626.967 267.198 626.99 267.031 627.071 266.89C627.152 266.749 627.286 266.646 627.443 266.602C627.599 266.559 627.767 266.579 627.909 266.658L630.059 267.898C630.177 267.966 630.27 268.072 630.322 268.198C630.374 268.324 630.383 268.464 630.348 268.596C630.313 268.728 630.235 268.844 630.126 268.927C630.018 269.011 629.885 269.056 629.749 269.056V269.056ZM624.376 265.954C624.267 265.955 624.16 265.926 624.065 265.871L621.917 264.631C621.777 264.547 621.676 264.412 621.636 264.254C621.595 264.097 621.618 263.929 621.699 263.789C621.78 263.648 621.914 263.544 622.071 263.501C622.227 263.457 622.395 263.477 622.537 263.556L624.686 264.797C624.804 264.865 624.896 264.971 624.948 265.097C625 265.223 625.009 265.362 624.974 265.494C624.939 265.626 624.861 265.742 624.753 265.825C624.645 265.909 624.512 265.954 624.376 265.954V265.954ZM635.88 265.774C635.76 265.775 635.642 265.74 635.541 265.674C635.441 265.608 635.361 265.515 635.313 265.405L634.245 263.188C634.209 263.114 634.189 263.035 634.184 262.953C634.179 262.872 634.191 262.791 634.218 262.714C634.244 262.637 634.286 262.566 634.34 262.505C634.394 262.444 634.46 262.395 634.533 262.359C634.607 262.324 634.686 262.303 634.768 262.299C634.849 262.294 634.93 262.305 635.007 262.332C635.084 262.359 635.155 262.401 635.216 262.455C635.277 262.509 635.326 262.575 635.361 262.648L636.447 264.901C636.48 264.976 636.498 265.056 636.5 265.138C636.502 265.219 636.488 265.3 636.459 265.376C636.429 265.452 636.385 265.522 636.329 265.581C636.273 265.64 636.205 265.687 636.131 265.72C636.052 265.756 635.966 265.775 635.88 265.776V265.774ZM614.066 262.987C613.902 262.987 613.744 262.921 613.628 262.805C613.511 262.689 613.446 262.531 613.446 262.366V259.887C613.45 259.725 613.517 259.571 613.633 259.458C613.749 259.345 613.904 259.282 614.066 259.282C614.228 259.282 614.384 259.345 614.499 259.458C614.615 259.571 614.682 259.725 614.686 259.887V262.368C614.686 262.45 614.67 262.53 614.639 262.606C614.608 262.681 614.562 262.749 614.505 262.807C614.447 262.865 614.379 262.91 614.304 262.941C614.228 262.972 614.148 262.988 614.066 262.988V262.987ZM619.004 262.852C618.895 262.853 618.788 262.824 618.694 262.769L616.545 261.529C616.405 261.445 616.304 261.31 616.264 261.152C616.223 260.995 616.246 260.828 616.327 260.687C616.408 260.546 616.542 260.443 616.699 260.399C616.855 260.356 617.023 260.376 617.165 260.454L619.314 261.695C619.432 261.763 619.524 261.869 619.576 261.995C619.628 262.121 619.637 262.261 619.602 262.392C619.567 262.524 619.489 262.64 619.381 262.724C619.273 262.807 619.14 262.852 619.004 262.852V262.852ZM633.183 260.188C633.066 260.188 632.952 260.155 632.853 260.093C632.754 260.031 632.675 259.942 632.625 259.836L631.545 257.603C631.51 257.53 631.489 257.45 631.484 257.369C631.479 257.288 631.491 257.206 631.518 257.129C631.544 257.052 631.586 256.981 631.64 256.92C631.694 256.859 631.76 256.81 631.834 256.774C631.907 256.739 631.987 256.718 632.068 256.713C632.149 256.708 632.231 256.72 632.308 256.747C632.385 256.773 632.456 256.815 632.517 256.869C632.578 256.923 632.627 256.989 632.663 257.063L633.742 259.297C633.788 259.391 633.809 259.496 633.803 259.601C633.797 259.706 633.765 259.808 633.709 259.897C633.653 259.986 633.575 260.059 633.483 260.11C633.391 260.161 633.288 260.188 633.183 260.188V260.188ZM630.485 254.604C630.368 254.604 630.253 254.571 630.154 254.509C630.055 254.447 629.976 254.358 629.925 254.253L628.845 252.018C628.778 251.871 628.772 251.703 628.827 251.551C628.883 251.398 628.995 251.274 629.141 251.203C629.287 251.133 629.455 251.123 629.608 251.174C629.762 251.226 629.889 251.336 629.963 251.48L631.042 253.713C631.114 253.862 631.123 254.032 631.068 254.188C631.014 254.343 630.9 254.47 630.752 254.542C630.669 254.583 630.577 254.605 630.485 254.606V254.604ZM627.785 249.018C627.668 249.019 627.554 248.986 627.455 248.924C627.356 248.862 627.277 248.773 627.226 248.668L626.146 246.434C626.074 246.286 626.065 246.116 626.119 245.96C626.173 245.805 626.286 245.678 626.434 245.606C626.582 245.534 626.753 245.525 626.908 245.579C627.063 245.633 627.191 245.746 627.262 245.894L628.343 248.128C628.389 248.222 628.41 248.327 628.404 248.432C628.399 248.537 628.366 248.639 628.311 248.728C628.255 248.817 628.177 248.89 628.085 248.941C627.993 248.992 627.89 249.018 627.785 249.018V249.018ZM625.084 243.433C624.967 243.433 624.853 243.4 624.754 243.338C624.656 243.276 624.576 243.188 624.526 243.083L623.446 240.85C623.409 240.776 623.387 240.696 623.381 240.614C623.375 240.532 623.385 240.449 623.411 240.371C623.438 240.293 623.479 240.221 623.534 240.159C623.588 240.097 623.655 240.047 623.729 240.011C623.803 239.975 623.884 239.954 623.966 239.95C624.048 239.945 624.131 239.957 624.208 239.985C624.286 240.013 624.357 240.056 624.418 240.111C624.479 240.167 624.528 240.234 624.563 240.309L625.642 242.542C625.688 242.637 625.709 242.741 625.703 242.846C625.698 242.951 625.665 243.053 625.609 243.142C625.554 243.231 625.476 243.305 625.384 243.355C625.292 243.406 625.189 243.433 625.084 243.433V243.433ZM622.384 237.849C622.268 237.849 622.154 237.816 622.055 237.754C621.956 237.693 621.877 237.604 621.826 237.499L620.746 235.265C620.708 235.191 620.686 235.111 620.68 235.029C620.674 234.947 620.685 234.864 620.711 234.786C620.737 234.708 620.779 234.636 620.833 234.574C620.888 234.512 620.954 234.462 621.028 234.426C621.103 234.39 621.183 234.369 621.266 234.365C621.348 234.36 621.43 234.372 621.508 234.4C621.585 234.428 621.657 234.471 621.718 234.526C621.778 234.582 621.828 234.649 621.862 234.724L622.944 236.958C622.989 237.053 623.01 237.158 623.004 237.263C622.999 237.368 622.966 237.469 622.91 237.558C622.854 237.647 622.777 237.721 622.685 237.772C622.593 237.822 622.49 237.849 622.384 237.849V237.849ZM619.685 232.264C619.568 232.264 619.453 232.231 619.354 232.169C619.255 232.107 619.176 232.019 619.125 231.914L618.046 229.68C618.008 229.606 617.985 229.525 617.979 229.443C617.972 229.36 617.982 229.277 618.009 229.198C618.035 229.12 618.077 229.047 618.131 228.985C618.186 228.923 618.253 228.872 618.328 228.836C618.402 228.8 618.483 228.779 618.566 228.775C618.649 228.771 618.732 228.783 618.81 228.812C618.888 228.84 618.959 228.884 619.02 228.94C619.081 228.996 619.129 229.064 619.163 229.14L620.243 231.373C620.314 231.522 620.324 231.693 620.269 231.848C620.215 232.004 620.101 232.131 619.952 232.203C619.869 232.243 619.778 232.265 619.685 232.266L619.685 232.264ZM616.985 226.68C616.869 226.68 616.754 226.648 616.656 226.586C616.557 226.524 616.477 226.435 616.427 226.33L615.347 224.094C615.276 223.946 615.266 223.776 615.32 223.621C615.374 223.465 615.488 223.338 615.636 223.266C615.784 223.195 615.954 223.185 616.11 223.239C616.265 223.293 616.392 223.407 616.464 223.555L617.544 225.79C617.589 225.885 617.61 225.989 617.604 226.094C617.598 226.199 617.566 226.3 617.51 226.389C617.454 226.478 617.377 226.551 617.285 226.602C617.193 226.653 617.09 226.68 616.985 226.68V226.68ZM614.286 221.095C614.169 221.095 614.055 221.062 613.956 221C613.858 220.938 613.778 220.85 613.728 220.745L612.647 218.51C612.612 218.437 612.591 218.358 612.586 218.276C612.581 218.195 612.593 218.114 612.62 218.037C612.646 217.96 612.688 217.889 612.742 217.828C612.796 217.767 612.862 217.718 612.935 217.682C613.009 217.647 613.088 217.626 613.17 217.622C613.251 217.617 613.332 217.628 613.409 217.655C613.486 217.682 613.557 217.723 613.618 217.778C613.679 217.832 613.728 217.897 613.763 217.971L614.844 220.204C614.89 220.298 614.911 220.403 614.905 220.508C614.899 220.613 614.867 220.715 614.811 220.804C614.756 220.893 614.678 220.966 614.586 221.017C614.494 221.068 614.391 221.095 614.286 221.095V221.095ZM611.585 215.509C611.468 215.509 611.354 215.477 611.255 215.415C611.157 215.353 611.077 215.264 611.027 215.159L609.947 212.925C609.876 212.777 609.866 212.607 609.92 212.451C609.974 212.296 610.088 212.169 610.236 212.097C610.384 212.025 610.554 212.016 610.709 212.07C610.865 212.124 610.992 212.237 611.064 212.385L612.143 214.62C612.179 214.693 612.199 214.773 612.204 214.854C612.209 214.935 612.198 215.017 612.171 215.094C612.144 215.171 612.103 215.242 612.048 215.302C611.994 215.363 611.929 215.413 611.855 215.448C611.771 215.489 611.679 215.511 611.585 215.512V215.509ZM608.885 209.929C608.769 209.929 608.654 209.896 608.556 209.834C608.457 209.772 608.378 209.683 608.327 209.578L607.248 207.345C607.176 207.197 607.166 207.026 607.22 206.871C607.274 206.715 607.388 206.587 607.536 206.516C607.684 206.444 607.855 206.434 608.01 206.488C608.166 206.542 608.294 206.656 608.365 206.804L609.444 209.04C609.49 209.134 609.511 209.239 609.505 209.344C609.499 209.448 609.466 209.55 609.41 209.639C609.354 209.728 609.277 209.801 609.185 209.852C609.093 209.902 608.99 209.929 608.885 209.929H608.885ZM606.187 204.342C606.07 204.343 605.956 204.31 605.857 204.248C605.758 204.186 605.679 204.097 605.629 203.992L604.547 201.759C604.475 201.611 604.466 201.44 604.52 201.285C604.574 201.129 604.687 201.001 604.836 200.93C604.984 200.858 605.154 200.848 605.31 200.902C605.465 200.956 605.593 201.07 605.665 201.218L606.745 203.452C606.781 203.526 606.801 203.606 606.806 203.687C606.811 203.768 606.799 203.85 606.772 203.927C606.745 204.004 606.703 204.075 606.649 204.136C606.594 204.196 606.528 204.246 606.455 204.281C606.371 204.321 606.28 204.342 606.187 204.342ZM603.486 198.758C603.37 198.758 603.255 198.725 603.157 198.663C603.058 198.601 602.979 198.512 602.928 198.407L601.849 196.174C601.78 196.026 601.773 195.858 601.828 195.705C601.882 195.552 601.995 195.426 602.141 195.356C602.288 195.285 602.456 195.274 602.61 195.326C602.764 195.378 602.891 195.488 602.965 195.633L604.044 197.867C604.116 198.015 604.126 198.186 604.072 198.341C604.018 198.497 603.904 198.624 603.756 198.696C603.672 198.736 603.58 198.757 603.486 198.758V198.758ZM600.786 193.174C600.67 193.174 600.556 193.141 600.457 193.079C600.358 193.017 600.279 192.928 600.228 192.824L599.148 190.589C599.108 190.516 599.083 190.435 599.075 190.351C599.068 190.268 599.077 190.184 599.103 190.104C599.128 190.024 599.17 189.95 599.225 189.887C599.28 189.824 599.347 189.772 599.422 189.736C599.498 189.699 599.58 189.678 599.663 189.674C599.747 189.67 599.831 189.683 599.909 189.712C599.988 189.741 600.059 189.786 600.12 189.844C600.181 189.902 600.229 189.971 600.263 190.048L601.343 192.282C601.389 192.377 601.41 192.481 601.405 192.586C601.399 192.691 601.367 192.793 601.311 192.882C601.255 192.971 601.178 193.045 601.086 193.095C600.994 193.146 600.89 193.173 600.785 193.173L600.786 193.174ZM598.086 187.59C597.969 187.59 597.855 187.557 597.756 187.495C597.657 187.433 597.578 187.344 597.528 187.239L596.448 185.004C596.377 184.856 596.367 184.686 596.421 184.531C596.476 184.376 596.589 184.248 596.737 184.177C596.885 184.106 597.056 184.096 597.211 184.15C597.366 184.204 597.493 184.318 597.565 184.466L598.645 186.699C598.717 186.848 598.726 187.018 598.671 187.174C598.617 187.329 598.503 187.456 598.355 187.528C598.271 187.568 598.179 187.589 598.086 187.589L598.086 187.59Z" fill="#6ACCE5" />
    <path d="M574.787 231.565V284.654L600.422 299.455V246.365L618.657 256.894L587.604 192.656L556.551 221.036L574.787 231.565Z" fill="#6ACCE5" />
    <defs>
        <linearGradient id="paint0_linear_31383_28122" x1="344.192" y1="441.136" x2="288.862" y2="540.687" gradientUnits="userSpaceOnUse">
            <stop stop-color="#979CA5" stop-opacity="0.639" />
            <stop offset="1" stop-color="#959AA3" stop-opacity="0.271" />
        </linearGradient>
        <linearGradient id="paint1_linear_31383_28122" x1="-61.3093" y1="2243.39" x2="170.766" y2="2243.39" gradientUnits="userSpaceOnUse">
            <stop stop-color="#311B61" />
            <stop offset="0.203" stop-color="#290E52" />
            <stop offset="0.495" stop-color="#200041" />
            <stop offset="1" stop-color="#0F001F" />
        </linearGradient>
    </defs>
</svg>