<svg width="100%" height="100%" viewBox="0 0 317 165" fill="none" xmlns="http://www.w3.org/2000/svg">
    <path d="M263.273 168.565L0 17.8867V168.565H263.273Z" fill="#F0F8FF" />
    <path d="M64.0861 41.235L41.4688 28.1792L86.4211 2.23169L109.038 15.2875L64.0861 41.235Z" fill="#F0F8FF" />
    <path d="M278.949 165.262L256.332 152.206L282.554 137.071L305.172 150.127L278.949 165.262Z" fill="#F0F8FF" />
    <path d="M30.2619 20.5438L7.64453 7.48651L21.7512 0L44.3686 13.0558L30.2619 20.5438Z" fill="#F0F8FF" />
    <path d="M99.8947 61.9063L77.2773 48.851L148.99 6.3772L171.608 19.433L99.8947 61.9063Z" fill="#F0F8FF" />
    <path d="M135.707 82.5781L113.09 69.5223L232.963 0.32666L255.581 13.3825L135.707 82.5781Z" fill="#F0F8FF" />
    <path d="M171.516 103.25L148.898 90.1942L240.178 36.9795L262.795 50.0353L171.516 103.25Z" fill="#F0F8FF" />
    <path d="M207.328 123.921L184.711 110.865L282.732 54.2832L305.35 67.339L207.328 123.921Z" fill="#F0F8FF" />
    <path d="M243.141 144.592L220.523 131.537L294.197 89.0103L316.815 102.066L243.141 144.592Z" fill="#F0F8FF" />
</svg>