<svg width="100%" height="100%" viewBox="0 0 315 168" fill="none" xmlns="http://www.w3.org/2000/svg">
    <path opacity="0.1" d="M261.435 167.875L0 18.2195V167.875H261.435Z" fill="#7D98B1" />
    <path opacity="0.1" d="M63.6353 41.4092L41.1758 28.442L85.8142 2.67065L108.274 15.6378L63.6353 41.4092Z" fill="#7D98B1" />
    <path opacity="0.1" d="M277.002 164.594L254.543 151.627L280.582 136.595L303.042 149.562L277.002 164.594Z" fill="#7D98B1" />
    <path opacity="0.1" d="M30.0493 20.8584L7.58984 7.88977L21.598 0.454102L44.0575 13.4212L30.0493 20.8584Z" fill="#7D98B1" />
    <path opacity="0.1" d="M99.1978 61.9402L76.7383 48.9735L147.951 6.78809L170.41 19.7553L99.1978 61.9402Z" fill="#7D98B1" />
    <path opacity="0.1" d="M134.756 82.4715L112.297 69.5043L231.333 0.778564L253.793 13.7457L134.756 82.4715Z" fill="#7D98B1" />
    <path opacity="0.1" d="M170.319 103.003L147.859 90.0358L238.501 37.1824L260.961 50.1495L170.319 103.003Z" fill="#7D98B1" />
    <path opacity="0.1" d="M205.881 123.533L183.422 110.566L280.759 54.3687L303.218 67.3358L205.881 123.533Z" fill="#7D98B1" />
    <path opacity="0.1" d="M241.44 144.065L218.98 131.098L292.14 88.8601L314.599 101.827L241.44 144.065Z" fill="#7D98B1" />
</svg>